%TF.GenerationSoftware,KiCad,Pcbnew,8.0.6*%
%TF.CreationDate,2024-12-08T18:35:23+09:00*%
%TF.ProjectId,backplane,6261636b-706c-4616-9e65-2e6b69636164,rev?*%
%TF.SameCoordinates,Original*%
%TF.FileFunction,Legend,Bot*%
%TF.FilePolarity,Positive*%
%FSLAX46Y46*%
G04 Gerber Fmt 4.6, Leading zero omitted, Abs format (unit mm)*
G04 Created by KiCad (PCBNEW 8.0.6) date 2024-12-08 18:35:23*
%MOMM*%
%LPD*%
G01*
G04 APERTURE LIST*
G04 Aperture macros list*
%AMRoundRect*
0 Rectangle with rounded corners*
0 $1 Rounding radius*
0 $2 $3 $4 $5 $6 $7 $8 $9 X,Y pos of 4 corners*
0 Add a 4 corners polygon primitive as box body*
4,1,4,$2,$3,$4,$5,$6,$7,$8,$9,$2,$3,0*
0 Add four circle primitives for the rounded corners*
1,1,$1+$1,$2,$3*
1,1,$1+$1,$4,$5*
1,1,$1+$1,$6,$7*
1,1,$1+$1,$8,$9*
0 Add four rect primitives between the rounded corners*
20,1,$1+$1,$2,$3,$4,$5,0*
20,1,$1+$1,$4,$5,$6,$7,0*
20,1,$1+$1,$6,$7,$8,$9,0*
20,1,$1+$1,$8,$9,$2,$3,0*%
G04 Aperture macros list end*
%ADD10C,3.076000*%
%ADD11RoundRect,0.038000X-0.800000X0.800000X-0.800000X-0.800000X0.800000X-0.800000X0.800000X0.800000X0*%
%ADD12O,1.676000X1.676000*%
%ADD13RoundRect,0.038000X0.800000X0.800000X-0.800000X0.800000X-0.800000X-0.800000X0.800000X-0.800000X0*%
%ADD14C,1.676000*%
%ADD15C,2.076000*%
%ADD16O,2.076000X2.076000*%
%ADD17C,1.576000*%
%ADD18C,2.276000*%
G04 APERTURE END LIST*
%LPC*%
D10*
%TO.C,TP6*%
X16000000Y-3000000D03*
%TD*%
%TO.C,TP18*%
X50000000Y-3000000D03*
%TD*%
D11*
%TO.C,D3*%
X51000000Y-7000000D03*
D12*
X51000000Y-14620000D03*
%TD*%
D13*
%TO.C,C7*%
X79500000Y-6000000D03*
D14*
X77000000Y-6000000D03*
%TD*%
%TO.C,C8*%
X88350000Y-19000000D03*
X88350000Y-24000000D03*
%TD*%
D15*
%TO.C,L5*%
X60350000Y-19000000D03*
D16*
X47650000Y-19000000D03*
%TD*%
D11*
%TO.C,D2*%
X27000000Y-7000000D03*
D12*
X27000000Y-14620000D03*
%TD*%
D11*
%TO.C,D4*%
X73000000Y-7000000D03*
D12*
X73000000Y-14620000D03*
%TD*%
D17*
%TO.C,TP12*%
X24000000Y-7000000D03*
%TD*%
D14*
%TO.C,R7*%
X88000000Y-7000000D03*
D12*
X88000000Y-14620000D03*
%TD*%
D14*
%TO.C,R4*%
X38000000Y-7000000D03*
D12*
X38000000Y-14620000D03*
%TD*%
D14*
%TO.C,R6*%
X62000000Y-7000000D03*
D12*
X62000000Y-14620000D03*
%TD*%
D15*
%TO.C,L3*%
X36350000Y-19000000D03*
D16*
X23650000Y-19000000D03*
%TD*%
D14*
%TO.C,R5*%
X66000000Y-7000000D03*
D12*
X66000000Y-14620000D03*
%TD*%
D17*
%TO.C,TP13*%
X39350000Y-19000000D03*
%TD*%
%TO.C,TP21*%
X63350000Y-24000000D03*
%TD*%
%TO.C,TP19*%
X48000000Y-7000000D03*
%TD*%
D14*
%TO.C,R1*%
X20000000Y-7000000D03*
D12*
X20000000Y-14620000D03*
%TD*%
D10*
%TO.C,TP11*%
X26000000Y-3000000D03*
%TD*%
D17*
%TO.C,TP1*%
X17350000Y-19000000D03*
%TD*%
D13*
%TO.C,C1*%
X11500000Y-6000000D03*
D14*
X9000000Y-6000000D03*
%TD*%
%TO.C,R2*%
X16000000Y-7000000D03*
D12*
X16000000Y-14620000D03*
%TD*%
D10*
%TO.C,TP7*%
X4000000Y-3000000D03*
%TD*%
D17*
%TO.C,TP10*%
X24000000Y-14000000D03*
%TD*%
%TO.C,TP16*%
X66000000Y-4000000D03*
%TD*%
D15*
%TO.C,L2*%
X14350000Y-24000000D03*
D16*
X1650000Y-24000000D03*
%TD*%
D15*
%TO.C,L8*%
X82350000Y-24000000D03*
D16*
X69650000Y-24000000D03*
%TD*%
D17*
%TO.C,TP26*%
X70000000Y-7000000D03*
%TD*%
D15*
%TO.C,L7*%
X82350000Y-19000000D03*
D16*
X69650000Y-19000000D03*
%TD*%
D17*
%TO.C,TP17*%
X48000000Y-14000000D03*
%TD*%
D13*
%TO.C,C3*%
X33500000Y-6000000D03*
D14*
X31000000Y-6000000D03*
%TD*%
D17*
%TO.C,TP2*%
X20000000Y-4000000D03*
%TD*%
D11*
%TO.C,D1*%
X5000000Y-7000000D03*
D12*
X5000000Y-14620000D03*
%TD*%
D17*
%TO.C,TP3*%
X2000000Y-7000000D03*
%TD*%
D15*
%TO.C,L1*%
X14350000Y-19000000D03*
D16*
X1650000Y-19000000D03*
%TD*%
D17*
%TO.C,TP14*%
X39350000Y-24000000D03*
%TD*%
D10*
%TO.C,TP8*%
X38000000Y-3000000D03*
%TD*%
D17*
%TO.C,TP20*%
X63350000Y-19000000D03*
%TD*%
D10*
%TO.C,TP22*%
X84000000Y-3000000D03*
%TD*%
%TO.C,TP15*%
X62000000Y-3000000D03*
%TD*%
D17*
%TO.C,TP27*%
X85350000Y-19000000D03*
%TD*%
D14*
%TO.C,R3*%
X42000000Y-7000000D03*
D12*
X42000000Y-14620000D03*
%TD*%
D17*
%TO.C,TP28*%
X85350000Y-24000000D03*
%TD*%
D14*
%TO.C,C4*%
X42350000Y-19000000D03*
X42350000Y-24000000D03*
%TD*%
D13*
%TO.C,C5*%
X57500000Y-6000000D03*
D14*
X55000000Y-6000000D03*
%TD*%
D17*
%TO.C,TP24*%
X70000000Y-14000000D03*
%TD*%
D14*
%TO.C,C6*%
X66350000Y-19000000D03*
X66350000Y-24000000D03*
%TD*%
D15*
%TO.C,L4*%
X36350000Y-24000000D03*
D16*
X23650000Y-24000000D03*
%TD*%
D10*
%TO.C,TP25*%
X72000000Y-3000000D03*
%TD*%
D17*
%TO.C,TP23*%
X88000000Y-4000000D03*
%TD*%
%TO.C,TP9*%
X42000000Y-4000000D03*
%TD*%
D14*
%TO.C,C2*%
X20350000Y-19000000D03*
X20350000Y-24000000D03*
%TD*%
D17*
%TO.C,TP4*%
X17350000Y-24000000D03*
%TD*%
%TO.C,TP5*%
X2000000Y-14000000D03*
%TD*%
D15*
%TO.C,L6*%
X60350000Y-24000000D03*
D16*
X47650000Y-24000000D03*
%TD*%
D14*
%TO.C,R8*%
X84000000Y-7000000D03*
D12*
X84000000Y-14620000D03*
%TD*%
D18*
%TO.C,H1*%
X46096399Y-10303952D03*
%TD*%
%LPD*%
M02*
