  0
SECTION
  2
HEADER
  9
$ANGBASE
  50
0.0
  9
$ANGDIR
  70
1
  9
$MEASUREMENT
  70
1
  0
ENDSEC
  0
SECTION
  2
TABLES
  0
TABLE
  2
LTYPE
  70
4
  0
LTYPE
  5
40F
  2
CONTINUOUS
  70
0
  3
Solid line
  72
65
  73
0
  40
0.0
  0
LTYPE
  5
410
  2
DASHDOT
 70
0
  3
Dash Dot ____ _ ____ _
 72
65
 73
4
 40
2.0
 49
1.25
 49
-0.25
 49
0.25
 49
-0.25
  0
LTYPE
  5
411
  2
DASHED
 70
0
  3
Dashed __ __ __ __ __
 72
65
 73
2
 40
0.75
 49
0.5
 49
-0.25
  0
LTYPE
  5
43B
  2
DOTTED
 70
0
  3
Dotted .  .  .  .
 72
65
 73
2
 40
0.2
 49
0.0
 49
-0.2
  0
ENDTAB
  0
TABLE
  2
STYLE
  70
4
  0
STYLE
  2
KICAD
  70
0
  40
0
  41
1
  42
1
  50
0
  71
0
  3
isocp.shx
  0
STYLE
  2
KICADB
  70
0
  40
0
  41
1
  42
1
  50
0
  71
0
  3
isocp.shx
  0
STYLE
  2
KICADI
  70
0
  40
0
  41
1
  42
1
  50
15
  71
0
  3
isocp.shx
  0
STYLE
  2
KICADBI
  70
0
  40
0
  41
1
  42
1
  50
15
  71
0
  3
isocp.shx
  0
ENDTAB
  0
TABLE
  2
LAYER
  70
1
  0
LAYER
  2
BLACK
  70
0
  62
7
  6
CONTINUOUS
  0
ENDTAB
  0
ENDSEC
  0
SECTION
  2
ENTITIES
0
LINE
8
BLACK
6
CONTINUOUS
10
0.
20
0.
11
90.
21
0.
0
LINE
8
BLACK
6
CONTINUOUS
10
90.
20
0.
11
90.
21
-27.
0
LINE
8
BLACK
6
CONTINUOUS
10
90.
20
-27.
11
0.
21
-27.
0
LINE
8
BLACK
6
CONTINUOUS
10
0.
20
-27.
11
0.
21
0.
0
LINE
8
BLACK
6
CONTINUOUS
10
44.9963989999999967
20
-9.2039519999999992
11
47.1963989999999995
21
-11.4039520000000003
0
LINE
8
BLACK
6
CONTINUOUS
10
47.1963989999999995
20
-9.2039519999999992
11
44.9963989999999967
21
-11.4039520000000003
0
LINE
8
BLACK
6
CONTINUOUS
10
2.5827679999999997
20
-30.1398379999999975
11
2.5827679999999997
21
-28.1398379999999975
0
LINE
8
BLACK
6
CONTINUOUS
10
2.5827679999999997
20
-28.1398379999999975
11
3.0589580000000001
21
-28.1398379999999975
0
LINE
8
BLACK
6
CONTINUOUS
10
3.0589580000000001
20
-28.1398379999999975
11
3.3446729999999998
21
-28.2350759999999994
0
LINE
8
BLACK
6
CONTINUOUS
10
3.3446729999999998
20
-28.2350759999999994
11
3.5351489999999997
21
-28.4255519999999997
0
LINE
8
BLACK
6
CONTINUOUS
10
3.5351489999999997
20
-28.4255519999999997
11
3.6303869999999998
21
-28.616028
0
LINE
8
BLACK
6
CONTINUOUS
10
3.6303869999999998
20
-28.616028
11
3.725625
21
-28.9969799999999971
0
LINE
8
BLACK
6
CONTINUOUS
10
3.725625
20
-28.9969799999999971
11
3.725625
21
-29.2826950000000004
0
LINE
8
BLACK
6
CONTINUOUS
10
3.725625
20
-29.2826950000000004
11
3.6303869999999998
21
-29.6636469999999974
0
LINE
8
BLACK
6
CONTINUOUS
10
3.6303869999999998
20
-29.6636469999999974
11
3.5351489999999997
21
-29.8541229999999977
0
LINE
8
BLACK
6
CONTINUOUS
10
3.5351489999999997
20
-29.8541229999999977
11
3.3446729999999998
21
-30.0445999999999991
0
LINE
8
BLACK
6
CONTINUOUS
10
3.3446729999999998
20
-30.0445999999999991
11
3.0589580000000001
21
-30.1398379999999975
0
LINE
8
BLACK
6
CONTINUOUS
10
3.0589580000000001
20
-30.1398379999999975
11
2.5827679999999997
21
-30.1398379999999975
0
LINE
8
BLACK
6
CONTINUOUS
10
4.5827679999999997
20
-30.1398379999999975
11
4.5827679999999997
21
-28.8065040000000003
0
LINE
8
BLACK
6
CONTINUOUS
10
4.5827679999999997
20
-29.1874569999999984
11
4.6780059999999999
21
-28.9969799999999971
0
LINE
8
BLACK
6
CONTINUOUS
10
4.6780059999999999
20
-28.9969799999999971
11
4.773244
21
-28.9017419999999987
0
LINE
8
BLACK
6
CONTINUOUS
10
4.773244
20
-28.9017419999999987
11
4.9637199999999995
21
-28.8065040000000003
0
LINE
8
BLACK
6
CONTINUOUS
10
4.9637199999999995
20
-28.8065040000000003
11
5.1541969999999999
21
-28.8065040000000003
0
LINE
8
BLACK
6
CONTINUOUS
10
5.8208630000000001
20
-30.1398379999999975
11
5.8208630000000001
21
-28.8065040000000003
0
LINE
8
BLACK
6
CONTINUOUS
10
5.8208630000000001
20
-28.1398379999999975
11
5.725625
21
-28.2350759999999994
0
LINE
8
BLACK
6
CONTINUOUS
10
5.725625
20
-28.2350759999999994
11
5.8208630000000001
21
-28.3303139999999978
0
LINE
8
BLACK
6
CONTINUOUS
10
5.8208630000000001
20
-28.3303139999999978
11
5.9161009999999994
21
-28.2350759999999994
0
LINE
8
BLACK
6
CONTINUOUS
10
5.9161009999999994
20
-28.2350759999999994
11
5.8208630000000001
21
-28.1398379999999975
0
LINE
8
BLACK
6
CONTINUOUS
10
5.8208630000000001
20
-28.1398379999999975
11
5.8208630000000001
21
-28.3303139999999978
0
LINE
8
BLACK
6
CONTINUOUS
10
7.0589579999999996
20
-30.1398379999999975
11
6.8684819999999993
21
-30.0445999999999991
0
LINE
8
BLACK
6
CONTINUOUS
10
6.8684819999999993
20
-30.0445999999999991
11
6.773244
21
-29.8541229999999977
0
LINE
8
BLACK
6
CONTINUOUS
10
6.773244
20
-29.8541229999999977
11
6.773244
21
-28.1398379999999975
0
LINE
8
BLACK
6
CONTINUOUS
10
8.1065769999999997
20
-30.1398379999999975
11
7.9161009999999994
21
-30.0445999999999991
0
LINE
8
BLACK
6
CONTINUOUS
10
7.9161009999999994
20
-30.0445999999999991
11
7.8208629999999992
21
-29.8541229999999977
0
LINE
8
BLACK
6
CONTINUOUS
10
7.8208629999999992
20
-29.8541229999999977
11
7.8208629999999992
21
-28.1398379999999975
0
LINE
8
BLACK
6
CONTINUOUS
10
10.3922919999999994
20
-30.1398379999999975
11
10.3922919999999994
21
-28.1398379999999975
0
LINE
8
BLACK
6
CONTINUOUS
10
10.3922919999999994
20
-28.1398379999999975
11
11.0589589999999998
21
-29.5684089999999991
0
LINE
8
BLACK
6
CONTINUOUS
10
11.0589589999999998
20
-29.5684089999999991
11
11.7256249999999991
21
-28.1398379999999975
0
LINE
8
BLACK
6
CONTINUOUS
10
11.7256249999999991
20
-28.1398379999999975
11
11.7256249999999991
21
-30.1398379999999975
0
LINE
8
BLACK
6
CONTINUOUS
10
13.5351489999999988
20
-30.1398379999999975
11
13.5351489999999988
21
-29.0922190000000001
0
LINE
8
BLACK
6
CONTINUOUS
10
13.5351489999999988
20
-29.0922190000000001
11
13.4399109999999986
21
-28.9017419999999987
0
LINE
8
BLACK
6
CONTINUOUS
10
13.4399109999999986
20
-28.9017419999999987
11
13.2494350000000001
21
-28.8065040000000003
0
LINE
8
BLACK
6
CONTINUOUS
10
13.2494350000000001
20
-28.8065040000000003
11
12.8684820000000002
21
-28.8065040000000003
0
LINE
8
BLACK
6
CONTINUOUS
10
12.8684820000000002
20
-28.8065040000000003
11
12.6780059999999999
21
-28.9017419999999987
0
LINE
8
BLACK
6
CONTINUOUS
10
13.5351489999999988
20
-30.0445999999999991
11
13.3446730000000002
21
-30.1398379999999975
0
LINE
8
BLACK
6
CONTINUOUS
10
13.3446730000000002
20
-30.1398379999999975
11
12.8684820000000002
21
-30.1398379999999975
0
LINE
8
BLACK
6
CONTINUOUS
10
12.8684820000000002
20
-30.1398379999999975
11
12.6780059999999999
21
-30.0445999999999991
0
LINE
8
BLACK
6
CONTINUOUS
10
12.6780059999999999
20
-30.0445999999999991
11
12.5827679999999997
21
-29.8541229999999977
0
LINE
8
BLACK
6
CONTINUOUS
10
12.5827679999999997
20
-29.8541229999999977
11
12.5827679999999997
21
-29.6636469999999974
0
LINE
8
BLACK
6
CONTINUOUS
10
12.5827679999999997
20
-29.6636469999999974
11
12.6780059999999999
21
-29.4731709999999971
0
LINE
8
BLACK
6
CONTINUOUS
10
12.6780059999999999
20
-29.4731709999999971
11
12.8684820000000002
21
-29.3779329999999987
0
LINE
8
BLACK
6
CONTINUOUS
10
12.8684820000000002
20
-29.3779329999999987
11
13.3446730000000002
21
-29.3779329999999987
0
LINE
8
BLACK
6
CONTINUOUS
10
13.3446730000000002
20
-29.3779329999999987
11
13.5351489999999988
21
-29.2826950000000004
0
LINE
8
BLACK
6
CONTINUOUS
10
14.4875299999999996
20
-28.8065040000000003
11
14.4875299999999996
21
-30.8065040000000003
0
LINE
8
BLACK
6
CONTINUOUS
10
14.4875299999999996
20
-28.9017419999999987
11
14.6780059999999999
21
-28.8065040000000003
0
LINE
8
BLACK
6
CONTINUOUS
10
14.6780059999999999
20
-28.8065040000000003
11
15.0589589999999998
21
-28.8065040000000003
0
LINE
8
BLACK
6
CONTINUOUS
10
15.0589589999999998
20
-28.8065040000000003
11
15.2494350000000001
21
-28.9017419999999987
0
LINE
8
BLACK
6
CONTINUOUS
10
15.2494350000000001
20
-28.9017419999999987
11
15.3446729999999985
21
-28.9969799999999971
0
LINE
8
BLACK
6
CONTINUOUS
10
15.3446729999999985
20
-28.9969799999999971
11
15.4399109999999986
21
-29.1874569999999984
0
LINE
8
BLACK
6
CONTINUOUS
10
15.4399109999999986
20
-29.1874569999999984
11
15.4399109999999986
21
-29.7588849999999994
0
LINE
8
BLACK
6
CONTINUOUS
10
15.4399109999999986
20
-29.7588849999999994
11
15.3446729999999985
21
-29.9493609999999997
0
LINE
8
BLACK
6
CONTINUOUS
10
15.3446729999999985
20
-29.9493609999999997
11
15.2494350000000001
21
-30.0445999999999991
0
LINE
8
BLACK
6
CONTINUOUS
10
15.2494350000000001
20
-30.0445999999999991
11
15.0589589999999998
21
-30.1398379999999975
0
LINE
8
BLACK
6
CONTINUOUS
10
15.0589589999999998
20
-30.1398379999999975
11
14.6780059999999999
21
-30.1398379999999975
0
LINE
8
BLACK
6
CONTINUOUS
10
14.6780059999999999
20
-30.1398379999999975
11
14.4875299999999996
21
-30.0445999999999991
0
LINE
8
BLACK
6
CONTINUOUS
10
16.2970539999999993
20
-29.9493609999999997
11
16.3922919999999976
21
-30.0445999999999991
0
LINE
8
BLACK
6
CONTINUOUS
10
16.3922919999999976
20
-30.0445999999999991
11
16.2970539999999993
21
-30.1398379999999975
0
LINE
8
BLACK
6
CONTINUOUS
10
16.2970539999999993
20
-30.1398379999999975
11
16.2018160000000009
21
-30.0445999999999991
0
LINE
8
BLACK
6
CONTINUOUS
10
16.2018160000000009
20
-30.0445999999999991
11
16.2970539999999993
21
-29.9493609999999997
0
LINE
8
BLACK
6
CONTINUOUS
10
16.2970539999999993
20
-29.9493609999999997
11
16.2970539999999993
21
-30.1398379999999975
0
LINE
8
BLACK
6
CONTINUOUS
10
16.2970539999999993
20
-28.9017419999999987
11
16.3922919999999976
21
-28.9969799999999971
0
LINE
8
BLACK
6
CONTINUOUS
10
16.3922919999999976
20
-28.9969799999999971
11
16.2970539999999993
21
-29.0922190000000001
0
LINE
8
BLACK
6
CONTINUOUS
10
16.2970539999999993
20
-29.0922190000000001
11
16.2018160000000009
21
-28.9969799999999971
0
LINE
8
BLACK
6
CONTINUOUS
10
16.2018160000000009
20
-28.9969799999999971
11
16.2970539999999993
21
-28.9017419999999987
0
LINE
8
BLACK
6
CONTINUOUS
10
16.2970539999999993
20
-28.9017419999999987
11
16.2970539999999993
21
-29.0922190000000001
0
LINE
8
BLACK
6
CONTINUOUS
10
-2.0249999999999999
20
-32.4249999999999972
11
-0.025
21
-34.4249999999999972
0
LINE
8
BLACK
6
CONTINUOUS
10
-0.025
20
-32.4249999999999972
11
-2.0249999999999999
21
-34.4249999999999972
0
LINE
8
BLACK
6
CONTINUOUS
10
2.48753
20
-32.5303139999999971
11
2.5827679999999997
21
-32.4350759999999951
0
LINE
8
BLACK
6
CONTINUOUS
10
2.5827679999999997
20
-32.4350759999999951
11
2.773244
21
-32.3398380000000003
0
LINE
8
BLACK
6
CONTINUOUS
10
2.773244
20
-32.3398380000000003
11
3.2494350000000001
21
-32.3398380000000003
0
LINE
8
BLACK
6
CONTINUOUS
10
3.2494350000000001
20
-32.3398380000000003
11
3.4399109999999999
21
-32.4350759999999951
0
LINE
8
BLACK
6
CONTINUOUS
10
3.4399109999999999
20
-32.4350759999999951
11
3.5351489999999997
21
-32.5303139999999971
0
LINE
8
BLACK
6
CONTINUOUS
10
3.5351489999999997
20
-32.5303139999999971
11
3.6303869999999998
21
-32.7207900000000009
0
LINE
8
BLACK
6
CONTINUOUS
10
3.6303869999999998
20
-32.7207900000000009
11
3.6303869999999998
21
-32.9112659999999977
0
LINE
8
BLACK
6
CONTINUOUS
10
3.6303869999999998
20
-32.9112659999999977
11
3.5351489999999997
21
-33.1969799999999964
0
LINE
8
BLACK
6
CONTINUOUS
10
3.5351489999999997
20
-33.1969799999999964
11
2.3922919999999999
21
-34.3398380000000003
0
LINE
8
BLACK
6
CONTINUOUS
10
2.3922919999999999
20
-34.3398380000000003
11
3.6303869999999998
21
-34.3398380000000003
0
LINE
8
BLACK
6
CONTINUOUS
10
4.4875299999999996
20
-34.149360999999999
11
4.5827679999999997
21
-34.2445999999999984
0
LINE
8
BLACK
6
CONTINUOUS
10
4.5827679999999997
20
-34.2445999999999984
11
4.4875299999999996
21
-34.3398380000000003
0
LINE
8
BLACK
6
CONTINUOUS
10
4.4875299999999996
20
-34.3398380000000003
11
4.3922919999999994
21
-34.2445999999999984
0
LINE
8
BLACK
6
CONTINUOUS
10
4.3922919999999994
20
-34.2445999999999984
11
4.4875299999999996
21
-34.149360999999999
0
LINE
8
BLACK
6
CONTINUOUS
10
4.4875299999999996
20
-34.149360999999999
11
4.4875299999999996
21
-34.3398380000000003
0
LINE
8
BLACK
6
CONTINUOUS
10
5.3446729999999993
20
-32.5303139999999971
11
5.4399109999999995
21
-32.4350759999999951
0
LINE
8
BLACK
6
CONTINUOUS
10
5.4399109999999995
20
-32.4350759999999951
11
5.6303869999999998
21
-32.3398380000000003
0
LINE
8
BLACK
6
CONTINUOUS
10
5.6303869999999998
20
-32.3398380000000003
11
6.1065779999999998
21
-32.3398380000000003
0
LINE
8
BLACK
6
CONTINUOUS
10
6.1065779999999998
20
-32.3398380000000003
11
6.2970540000000002
21
-32.4350759999999951
0
LINE
8
BLACK
6
CONTINUOUS
10
6.2970540000000002
20
-32.4350759999999951
11
6.3922919999999994
21
-32.5303139999999971
0
LINE
8
BLACK
6
CONTINUOUS
10
6.3922919999999994
20
-32.5303139999999971
11
6.4875299999999996
21
-32.7207900000000009
0
LINE
8
BLACK
6
CONTINUOUS
10
6.4875299999999996
20
-32.7207900000000009
11
6.4875299999999996
21
-32.9112659999999977
0
LINE
8
BLACK
6
CONTINUOUS
10
6.4875299999999996
20
-32.9112659999999977
11
6.3922919999999994
21
-33.1969799999999964
0
LINE
8
BLACK
6
CONTINUOUS
10
6.3922919999999994
20
-33.1969799999999964
11
5.2494350000000001
21
-34.3398380000000003
0
LINE
8
BLACK
6
CONTINUOUS
10
5.2494350000000001
20
-34.3398380000000003
11
6.4875299999999996
21
-34.3398380000000003
0
LINE
8
BLACK
6
CONTINUOUS
10
7.725625
20
-32.3398380000000003
11
7.9161019999999995
21
-32.3398380000000003
0
LINE
8
BLACK
6
CONTINUOUS
10
7.9161019999999995
20
-32.3398380000000003
11
8.106577999999999
21
-32.4350759999999951
0
LINE
8
BLACK
6
CONTINUOUS
10
8.106577999999999
20
-32.4350759999999951
11
8.2018159999999991
21
-32.5303139999999971
0
LINE
8
BLACK
6
CONTINUOUS
10
8.2018159999999991
20
-32.5303139999999971
11
8.2970539999999993
21
-32.7207900000000009
0
LINE
8
BLACK
6
CONTINUOUS
10
8.2970539999999993
20
-32.7207900000000009
11
8.3922919999999994
21
-33.1017420000000016
0
LINE
8
BLACK
6
CONTINUOUS
10
8.3922919999999994
20
-33.1017420000000016
11
8.3922919999999994
21
-33.5779330000000016
0
LINE
8
BLACK
6
CONTINUOUS
10
8.3922919999999994
20
-33.5779330000000016
11
8.2970539999999993
21
-33.9588849999999951
0
LINE
8
BLACK
6
CONTINUOUS
10
8.2970539999999993
20
-33.9588849999999951
11
8.2018159999999991
21
-34.149360999999999
0
LINE
8
BLACK
6
CONTINUOUS
10
8.2018159999999991
20
-34.149360999999999
11
8.106577999999999
21
-34.2445999999999984
0
LINE
8
BLACK
6
CONTINUOUS
10
8.106577999999999
20
-34.2445999999999984
11
7.9161019999999995
21
-34.3398380000000003
0
LINE
8
BLACK
6
CONTINUOUS
10
7.9161019999999995
20
-34.3398380000000003
11
7.725625
21
-34.3398380000000003
0
LINE
8
BLACK
6
CONTINUOUS
10
7.725625
20
-34.3398380000000003
11
7.5351489999999997
21
-34.2445999999999984
0
LINE
8
BLACK
6
CONTINUOUS
10
7.5351489999999997
20
-34.2445999999999984
11
7.4399109999999995
21
-34.149360999999999
0
LINE
8
BLACK
6
CONTINUOUS
10
7.4399109999999995
20
-34.149360999999999
11
7.3446729999999993
21
-33.9588849999999951
0
LINE
8
BLACK
6
CONTINUOUS
10
7.3446729999999993
20
-33.9588849999999951
11
7.2494350000000001
21
-33.5779330000000016
0
LINE
8
BLACK
6
CONTINUOUS
10
7.2494350000000001
20
-33.5779330000000016
11
7.2494350000000001
21
-33.1017420000000016
0
LINE
8
BLACK
6
CONTINUOUS
10
7.2494350000000001
20
-33.1017420000000016
11
7.3446729999999993
21
-32.7207900000000009
0
LINE
8
BLACK
6
CONTINUOUS
10
7.3446729999999993
20
-32.7207900000000009
11
7.4399109999999995
21
-32.5303139999999971
0
LINE
8
BLACK
6
CONTINUOUS
10
7.4399109999999995
20
-32.5303139999999971
11
7.5351489999999997
21
-32.4350759999999951
0
LINE
8
BLACK
6
CONTINUOUS
10
7.5351489999999997
20
-32.4350759999999951
11
7.725625
21
-32.3398380000000003
0
LINE
8
BLACK
6
CONTINUOUS
10
9.6303869999999989
20
-32.3398380000000003
11
9.8208640000000003
21
-32.3398380000000003
0
LINE
8
BLACK
6
CONTINUOUS
10
9.8208640000000003
20
-32.3398380000000003
11
10.0113399999999988
21
-32.4350759999999951
0
LINE
8
BLACK
6
CONTINUOUS
10
10.0113399999999988
20
-32.4350759999999951
11
10.106577999999999
21
-32.5303139999999971
0
LINE
8
BLACK
6
CONTINUOUS
10
10.106577999999999
20
-32.5303139999999971
11
10.2018159999999991
21
-32.7207900000000009
0
LINE
8
BLACK
6
CONTINUOUS
10
10.2018159999999991
20
-32.7207900000000009
11
10.2970539999999993
21
-33.1017420000000016
0
LINE
8
BLACK
6
CONTINUOUS
10
10.2970539999999993
20
-33.1017420000000016
11
10.2970539999999993
21
-33.5779330000000016
0
LINE
8
BLACK
6
CONTINUOUS
10
10.2970539999999993
20
-33.5779330000000016
11
10.2018159999999991
21
-33.9588849999999951
0
LINE
8
BLACK
6
CONTINUOUS
10
10.2018159999999991
20
-33.9588849999999951
11
10.106577999999999
21
-34.149360999999999
0
LINE
8
BLACK
6
CONTINUOUS
10
10.106577999999999
20
-34.149360999999999
11
10.0113399999999988
21
-34.2445999999999984
0
LINE
8
BLACK
6
CONTINUOUS
10
10.0113399999999988
20
-34.2445999999999984
11
9.8208640000000003
21
-34.3398380000000003
0
LINE
8
BLACK
6
CONTINUOUS
10
9.8208640000000003
20
-34.3398380000000003
11
9.6303869999999989
21
-34.3398380000000003
0
LINE
8
BLACK
6
CONTINUOUS
10
9.6303869999999989
20
-34.3398380000000003
11
9.4399110000000004
21
-34.2445999999999984
0
LINE
8
BLACK
6
CONTINUOUS
10
9.4399110000000004
20
-34.2445999999999984
11
9.3446730000000002
21
-34.149360999999999
0
LINE
8
BLACK
6
CONTINUOUS
10
9.3446730000000002
20
-34.149360999999999
11
9.2494350000000001
21
-33.9588849999999951
0
LINE
8
BLACK
6
CONTINUOUS
10
9.2494350000000001
20
-33.9588849999999951
11
9.1541969999999999
21
-33.5779330000000016
0
LINE
8
BLACK
6
CONTINUOUS
10
9.1541969999999999
20
-33.5779330000000016
11
9.1541969999999999
21
-33.1017420000000016
0
LINE
8
BLACK
6
CONTINUOUS
10
9.1541969999999999
20
-33.1017420000000016
11
9.2494350000000001
21
-32.7207900000000009
0
LINE
8
BLACK
6
CONTINUOUS
10
9.2494350000000001
20
-32.7207900000000009
11
9.3446730000000002
21
-32.5303139999999971
0
LINE
8
BLACK
6
CONTINUOUS
10
9.3446730000000002
20
-32.5303139999999971
11
9.4399110000000004
21
-32.4350759999999951
0
LINE
8
BLACK
6
CONTINUOUS
10
9.4399110000000004
20
-32.4350759999999951
11
9.6303869999999989
21
-32.3398380000000003
0
LINE
8
BLACK
6
CONTINUOUS
10
11.1541969999999999
20
-34.3398380000000003
11
11.1541969999999999
21
-33.0065039999999996
0
LINE
8
BLACK
6
CONTINUOUS
10
11.1541969999999999
20
-33.1969799999999964
11
11.2494350000000001
21
-33.1017420000000016
0
LINE
8
BLACK
6
CONTINUOUS
10
11.2494350000000001
20
-33.1017420000000016
11
11.4399109999999986
21
-33.0065039999999996
0
LINE
8
BLACK
6
CONTINUOUS
10
11.4399109999999986
20
-33.0065039999999996
11
11.7256260000000001
21
-33.0065039999999996
0
LINE
8
BLACK
6
CONTINUOUS
10
11.7256260000000001
20
-33.0065039999999996
11
11.9161019999999986
21
-33.1017420000000016
0
LINE
8
BLACK
6
CONTINUOUS
10
11.9161019999999986
20
-33.1017420000000016
11
12.0113399999999988
21
-33.2922189999999958
0
LINE
8
BLACK
6
CONTINUOUS
10
12.0113399999999988
20
-33.2922189999999958
11
12.0113399999999988
21
-34.3398380000000003
0
LINE
8
BLACK
6
CONTINUOUS
10
12.0113399999999988
20
-33.2922189999999958
11
12.106577999999999
21
-33.1017420000000016
0
LINE
8
BLACK
6
CONTINUOUS
10
12.106577999999999
20
-33.1017420000000016
11
12.2970539999999993
21
-33.0065039999999996
0
LINE
8
BLACK
6
CONTINUOUS
10
12.2970539999999993
20
-33.0065039999999996
11
12.5827679999999997
21
-33.0065039999999996
0
LINE
8
BLACK
6
CONTINUOUS
10
12.5827679999999997
20
-33.0065039999999996
11
12.7732449999999993
21
-33.1017420000000016
0
LINE
8
BLACK
6
CONTINUOUS
10
12.7732449999999993
20
-33.1017420000000016
11
12.8684829999999994
21
-33.2922189999999958
0
LINE
8
BLACK
6
CONTINUOUS
10
12.8684829999999994
20
-33.2922189999999958
11
12.8684829999999994
21
-34.3398380000000003
0
LINE
8
BLACK
6
CONTINUOUS
10
13.8208640000000003
20
-34.3398380000000003
11
13.8208640000000003
21
-33.0065039999999996
0
LINE
8
BLACK
6
CONTINUOUS
10
13.8208640000000003
20
-33.1969799999999964
11
13.9161019999999986
21
-33.1017420000000016
0
LINE
8
BLACK
6
CONTINUOUS
10
13.9161019999999986
20
-33.1017420000000016
11
14.106577999999999
21
-33.0065039999999996
0
LINE
8
BLACK
6
CONTINUOUS
10
14.106577999999999
20
-33.0065039999999996
11
14.3922929999999987
21
-33.0065039999999996
0
LINE
8
BLACK
6
CONTINUOUS
10
14.3922929999999987
20
-33.0065039999999996
11
14.582768999999999
21
-33.1017420000000016
0
LINE
8
BLACK
6
CONTINUOUS
10
14.582768999999999
20
-33.1017420000000016
11
14.6780069999999991
21
-33.2922189999999958
0
LINE
8
BLACK
6
CONTINUOUS
10
14.6780069999999991
20
-33.2922189999999958
11
14.6780069999999991
21
-34.3398380000000003
0
LINE
8
BLACK
6
CONTINUOUS
10
14.6780069999999991
20
-33.2922189999999958
11
14.7732449999999993
21
-33.1017420000000016
0
LINE
8
BLACK
6
CONTINUOUS
10
14.7732449999999993
20
-33.1017420000000016
11
14.9637209999999996
21
-33.0065039999999996
0
LINE
8
BLACK
6
CONTINUOUS
10
14.9637209999999996
20
-33.0065039999999996
11
15.2494350000000001
21
-33.0065039999999996
0
LINE
8
BLACK
6
CONTINUOUS
10
15.2494350000000001
20
-33.0065039999999996
11
15.4399119999999996
21
-33.1017420000000016
0
LINE
8
BLACK
6
CONTINUOUS
10
15.4399119999999996
20
-33.1017420000000016
11
15.5351499999999998
21
-33.2922189999999958
0
LINE
8
BLACK
6
CONTINUOUS
10
15.5351499999999998
20
-33.2922189999999958
11
15.5351499999999998
21
-34.3398380000000003
0
LINE
8
BLACK
6
CONTINUOUS
10
19.4399119999999996
20
-32.2445999999999984
11
17.7256269999999994
21
-34.8160279999999958
0
LINE
8
BLACK
6
CONTINUOUS
10
22.011340999999998
20
-32.3398380000000003
11
22.2018179999999994
21
-32.3398380000000003
0
LINE
8
BLACK
6
CONTINUOUS
10
22.2018179999999994
20
-32.3398380000000003
11
22.3922939999999997
21
-32.4350759999999951
0
LINE
8
BLACK
6
CONTINUOUS
10
22.3922939999999997
20
-32.4350759999999951
11
22.4875319999999981
21
-32.5303139999999971
0
LINE
8
BLACK
6
CONTINUOUS
10
22.4875319999999981
20
-32.5303139999999971
11
22.58277
21
-32.7207900000000009
0
LINE
8
BLACK
6
CONTINUOUS
10
22.58277
20
-32.7207900000000009
11
22.6780079999999984
21
-33.1017420000000016
0
LINE
8
BLACK
6
CONTINUOUS
10
22.6780079999999984
20
-33.1017420000000016
11
22.6780079999999984
21
-33.5779330000000016
0
LINE
8
BLACK
6
CONTINUOUS
10
22.6780079999999984
20
-33.5779330000000016
11
22.58277
21
-33.9588849999999951
0
LINE
8
BLACK
6
CONTINUOUS
10
22.58277
20
-33.9588849999999951
11
22.4875319999999981
21
-34.149360999999999
0
LINE
8
BLACK
6
CONTINUOUS
10
22.4875319999999981
20
-34.149360999999999
11
22.3922939999999997
21
-34.2445999999999984
0
LINE
8
BLACK
6
CONTINUOUS
10
22.3922939999999997
20
-34.2445999999999984
11
22.2018179999999994
21
-34.3398380000000003
0
LINE
8
BLACK
6
CONTINUOUS
10
22.2018179999999994
20
-34.3398380000000003
11
22.011340999999998
21
-34.3398380000000003
0
LINE
8
BLACK
6
CONTINUOUS
10
22.011340999999998
20
-34.3398380000000003
11
21.8208649999999977
21
-34.2445999999999984
0
LINE
8
BLACK
6
CONTINUOUS
10
21.8208649999999977
20
-34.2445999999999984
11
21.7256269999999994
21
-34.149360999999999
0
LINE
8
BLACK
6
CONTINUOUS
10
21.7256269999999994
20
-34.149360999999999
11
21.6303889999999974
21
-33.9588849999999951
0
LINE
8
BLACK
6
CONTINUOUS
10
21.6303889999999974
20
-33.9588849999999951
11
21.535150999999999
21
-33.5779330000000016
0
LINE
8
BLACK
6
CONTINUOUS
10
21.535150999999999
20
-33.5779330000000016
11
21.535150999999999
21
-33.1017420000000016
0
LINE
8
BLACK
6
CONTINUOUS
10
21.535150999999999
20
-33.1017420000000016
11
21.6303889999999974
21
-32.7207900000000009
0
LINE
8
BLACK
6
CONTINUOUS
10
21.6303889999999974
20
-32.7207900000000009
11
21.7256269999999994
21
-32.5303139999999971
0
LINE
8
BLACK
6
CONTINUOUS
10
21.7256269999999994
20
-32.5303139999999971
11
21.8208649999999977
21
-32.4350759999999951
0
LINE
8
BLACK
6
CONTINUOUS
10
21.8208649999999977
20
-32.4350759999999951
11
22.011340999999998
21
-32.3398380000000003
0
LINE
8
BLACK
6
CONTINUOUS
10
23.535150999999999
20
-34.149360999999999
11
23.6303889999999974
21
-34.2445999999999984
0
LINE
8
BLACK
6
CONTINUOUS
10
23.6303889999999974
20
-34.2445999999999984
11
23.535150999999999
21
-34.3398380000000003
0
LINE
8
BLACK
6
CONTINUOUS
10
23.535150999999999
20
-34.3398380000000003
11
23.4399130000000007
21
-34.2445999999999984
0
LINE
8
BLACK
6
CONTINUOUS
10
23.4399130000000007
20
-34.2445999999999984
11
23.535150999999999
21
-34.149360999999999
0
LINE
8
BLACK
6
CONTINUOUS
10
23.535150999999999
20
-34.149360999999999
11
23.535150999999999
21
-34.3398380000000003
0
LINE
8
BLACK
6
CONTINUOUS
10
24.8684839999999987
20
-32.3398380000000003
11
25.058961
21
-32.3398380000000003
0
LINE
8
BLACK
6
CONTINUOUS
10
25.058961
20
-32.3398380000000003
11
25.2494370000000004
21
-32.4350759999999951
0
LINE
8
BLACK
6
CONTINUOUS
10
25.2494370000000004
20
-32.4350759999999951
11
25.3446749999999987
21
-32.5303139999999971
0
LINE
8
BLACK
6
CONTINUOUS
10
25.3446749999999987
20
-32.5303139999999971
11
25.4399129999999971
21
-32.7207900000000009
0
LINE
8
BLACK
6
CONTINUOUS
10
25.4399129999999971
20
-32.7207900000000009
11
25.535150999999999
21
-33.1017420000000016
0
LINE
8
BLACK
6
CONTINUOUS
10
25.535150999999999
20
-33.1017420000000016
11
25.535150999999999
21
-33.5779330000000016
0
LINE
8
BLACK
6
CONTINUOUS
10
25.535150999999999
20
-33.5779330000000016
11
25.4399129999999971
21
-33.9588849999999951
0
LINE
8
BLACK
6
CONTINUOUS
10
25.4399129999999971
20
-33.9588849999999951
11
25.3446749999999987
21
-34.149360999999999
0
LINE
8
BLACK
6
CONTINUOUS
10
25.3446749999999987
20
-34.149360999999999
11
25.2494370000000004
21
-34.2445999999999984
0
LINE
8
BLACK
6
CONTINUOUS
10
25.2494370000000004
20
-34.2445999999999984
11
25.058961
21
-34.3398380000000003
0
LINE
8
BLACK
6
CONTINUOUS
10
25.058961
20
-34.3398380000000003
11
24.8684839999999987
21
-34.3398380000000003
0
LINE
8
BLACK
6
CONTINUOUS
10
24.8684839999999987
20
-34.3398380000000003
11
24.6780079999999984
21
-34.2445999999999984
0
LINE
8
BLACK
6
CONTINUOUS
10
24.6780079999999984
20
-34.2445999999999984
11
24.58277
21
-34.149360999999999
0
LINE
8
BLACK
6
CONTINUOUS
10
24.58277
20
-34.149360999999999
11
24.4875319999999981
21
-33.9588849999999951
0
LINE
8
BLACK
6
CONTINUOUS
10
24.4875319999999981
20
-33.9588849999999951
11
24.3922939999999997
21
-33.5779330000000016
0
LINE
8
BLACK
6
CONTINUOUS
10
24.3922939999999997
20
-33.5779330000000016
11
24.3922939999999997
21
-33.1017420000000016
0
LINE
8
BLACK
6
CONTINUOUS
10
24.3922939999999997
20
-33.1017420000000016
11
24.4875319999999981
21
-32.7207900000000009
0
LINE
8
BLACK
6
CONTINUOUS
10
24.4875319999999981
20
-32.7207900000000009
11
24.58277
21
-32.5303139999999971
0
LINE
8
BLACK
6
CONTINUOUS
10
24.58277
20
-32.5303139999999971
11
24.6780079999999984
21
-32.4350759999999951
0
LINE
8
BLACK
6
CONTINUOUS
10
24.6780079999999984
20
-32.4350759999999951
11
24.8684839999999987
21
-32.3398380000000003
0
LINE
8
BLACK
6
CONTINUOUS
10
26.6780079999999984
20
-33.1969799999999964
11
26.4875319999999981
21
-33.1017420000000016
0
LINE
8
BLACK
6
CONTINUOUS
10
26.4875319999999981
20
-33.1017420000000016
11
26.3922939999999997
21
-33.0065039999999996
0
LINE
8
BLACK
6
CONTINUOUS
10
26.3922939999999997
20
-33.0065039999999996
11
26.2970559999999978
21
-32.8160279999999958
0
LINE
8
BLACK
6
CONTINUOUS
10
26.2970559999999978
20
-32.8160279999999958
11
26.2970559999999978
21
-32.7207900000000009
0
LINE
8
BLACK
6
CONTINUOUS
10
26.2970559999999978
20
-32.7207900000000009
11
26.3922939999999997
21
-32.5303139999999971
0
LINE
8
BLACK
6
CONTINUOUS
10
26.3922939999999997
20
-32.5303139999999971
11
26.4875319999999981
21
-32.4350759999999951
0
LINE
8
BLACK
6
CONTINUOUS
10
26.4875319999999981
20
-32.4350759999999951
11
26.6780079999999984
21
-32.3398380000000003
0
LINE
8
BLACK
6
CONTINUOUS
10
26.6780079999999984
20
-32.3398380000000003
11
27.058961
21
-32.3398380000000003
0
LINE
8
BLACK
6
CONTINUOUS
10
27.058961
20
-32.3398380000000003
11
27.2494370000000004
21
-32.4350759999999951
0
LINE
8
BLACK
6
CONTINUOUS
10
27.2494370000000004
20
-32.4350759999999951
11
27.3446749999999987
21
-32.5303139999999971
0
LINE
8
BLACK
6
CONTINUOUS
10
27.3446749999999987
20
-32.5303139999999971
11
27.4399129999999971
21
-32.7207900000000009
0
LINE
8
BLACK
6
CONTINUOUS
10
27.4399129999999971
20
-32.7207900000000009
11
27.4399129999999971
21
-32.8160279999999958
0
LINE
8
BLACK
6
CONTINUOUS
10
27.4399129999999971
20
-32.8160279999999958
11
27.3446749999999987
21
-33.0065039999999996
0
LINE
8
BLACK
6
CONTINUOUS
10
27.3446749999999987
20
-33.0065039999999996
11
27.2494370000000004
21
-33.1017420000000016
0
LINE
8
BLACK
6
CONTINUOUS
10
27.2494370000000004
20
-33.1017420000000016
11
27.058961
21
-33.1969799999999964
0
LINE
8
BLACK
6
CONTINUOUS
10
27.058961
20
-33.1969799999999964
11
26.6780079999999984
21
-33.1969799999999964
0
LINE
8
BLACK
6
CONTINUOUS
10
26.6780079999999984
20
-33.1969799999999964
11
26.4875319999999981
21
-33.2922189999999958
0
LINE
8
BLACK
6
CONTINUOUS
10
26.4875319999999981
20
-33.2922189999999958
11
26.3922939999999997
21
-33.3874569999999977
0
LINE
8
BLACK
6
CONTINUOUS
10
26.3922939999999997
20
-33.3874569999999977
11
26.2970559999999978
21
-33.5779330000000016
0
LINE
8
BLACK
6
CONTINUOUS
10
26.2970559999999978
20
-33.5779330000000016
11
26.2970559999999978
21
-33.9588849999999951
0
LINE
8
BLACK
6
CONTINUOUS
10
26.2970559999999978
20
-33.9588849999999951
11
26.3922939999999997
21
-34.149360999999999
0
LINE
8
BLACK
6
CONTINUOUS
10
26.3922939999999997
20
-34.149360999999999
11
26.4875319999999981
21
-34.2445999999999984
0
LINE
8
BLACK
6
CONTINUOUS
10
26.4875319999999981
20
-34.2445999999999984
11
26.6780079999999984
21
-34.3398380000000003
0
LINE
8
BLACK
6
CONTINUOUS
10
26.6780079999999984
20
-34.3398380000000003
11
27.058961
21
-34.3398380000000003
0
LINE
8
BLACK
6
CONTINUOUS
10
27.058961
20
-34.3398380000000003
11
27.2494370000000004
21
-34.2445999999999984
0
LINE
8
BLACK
6
CONTINUOUS
10
27.2494370000000004
20
-34.2445999999999984
11
27.3446749999999987
21
-34.149360999999999
0
LINE
8
BLACK
6
CONTINUOUS
10
27.3446749999999987
20
-34.149360999999999
11
27.4399129999999971
21
-33.9588849999999951
0
LINE
8
BLACK
6
CONTINUOUS
10
27.4399129999999971
20
-33.9588849999999951
11
27.4399129999999971
21
-33.5779330000000016
0
LINE
8
BLACK
6
CONTINUOUS
10
27.4399129999999971
20
-33.5779330000000016
11
27.3446749999999987
21
-33.3874569999999977
0
LINE
8
BLACK
6
CONTINUOUS
10
27.3446749999999987
20
-33.3874569999999977
11
27.2494370000000004
21
-33.2922189999999958
0
LINE
8
BLACK
6
CONTINUOUS
10
27.2494370000000004
20
-33.2922189999999958
11
27.058961
21
-33.1969799999999964
0
LINE
8
BLACK
6
CONTINUOUS
10
29.1541989999999984
20
-32.3398380000000003
11
28.7732460000000003
21
-32.3398380000000003
0
LINE
8
BLACK
6
CONTINUOUS
10
28.7732460000000003
20
-32.3398380000000003
11
28.58277
21
-32.4350759999999951
0
LINE
8
BLACK
6
CONTINUOUS
10
28.58277
20
-32.4350759999999951
11
28.4875319999999981
21
-32.5303139999999971
0
LINE
8
BLACK
6
CONTINUOUS
10
28.4875319999999981
20
-32.5303139999999971
11
28.2970559999999978
21
-32.8160279999999958
0
LINE
8
BLACK
6
CONTINUOUS
10
28.2970559999999978
20
-32.8160279999999958
11
28.2018179999999994
21
-33.1969799999999964
0
LINE
8
BLACK
6
CONTINUOUS
10
28.2018179999999994
20
-33.1969799999999964
11
28.2018179999999994
21
-33.9588849999999951
0
LINE
8
BLACK
6
CONTINUOUS
10
28.2018179999999994
20
-33.9588849999999951
11
28.2970559999999978
21
-34.149360999999999
0
LINE
8
BLACK
6
CONTINUOUS
10
28.2970559999999978
20
-34.149360999999999
11
28.3922939999999997
21
-34.2445999999999984
0
LINE
8
BLACK
6
CONTINUOUS
10
28.3922939999999997
20
-34.2445999999999984
11
28.58277
21
-34.3398380000000003
0
LINE
8
BLACK
6
CONTINUOUS
10
28.58277
20
-34.3398380000000003
11
28.9637229999999981
21
-34.3398380000000003
0
LINE
8
BLACK
6
CONTINUOUS
10
28.9637229999999981
20
-34.3398380000000003
11
29.1541989999999984
21
-34.2445999999999984
0
LINE
8
BLACK
6
CONTINUOUS
10
29.1541989999999984
20
-34.2445999999999984
11
29.2494370000000004
21
-34.149360999999999
0
LINE
8
BLACK
6
CONTINUOUS
10
29.2494370000000004
20
-34.149360999999999
11
29.3446749999999987
21
-33.9588849999999951
0
LINE
8
BLACK
6
CONTINUOUS
10
29.3446749999999987
20
-33.9588849999999951
11
29.3446749999999987
21
-33.4826949999999997
0
LINE
8
BLACK
6
CONTINUOUS
10
29.3446749999999987
20
-33.4826949999999997
11
29.2494370000000004
21
-33.2922189999999958
0
LINE
8
BLACK
6
CONTINUOUS
10
29.2494370000000004
20
-33.2922189999999958
11
29.1541989999999984
21
-33.1969799999999964
0
LINE
8
BLACK
6
CONTINUOUS
10
29.1541989999999984
20
-33.1969799999999964
11
28.9637229999999981
21
-33.1017420000000016
0
LINE
8
BLACK
6
CONTINUOUS
10
28.9637229999999981
20
-33.1017420000000016
11
28.58277
21
-33.1017420000000016
0
LINE
8
BLACK
6
CONTINUOUS
10
28.58277
20
-33.1017420000000016
11
28.3922939999999997
21
-33.1969799999999964
0
LINE
8
BLACK
6
CONTINUOUS
10
28.3922939999999997
20
-33.1969799999999964
11
28.2970559999999978
21
-33.2922189999999958
0
LINE
8
BLACK
6
CONTINUOUS
10
28.2970559999999978
20
-33.2922189999999958
11
28.2018179999999994
21
-33.4826949999999997
0
LINE
8
BLACK
6
CONTINUOUS
10
31.058961
20
-32.3398380000000003
11
30.6780079999999984
21
-32.3398380000000003
0
LINE
8
BLACK
6
CONTINUOUS
10
30.6780079999999984
20
-32.3398380000000003
11
30.4875319999999981
21
-32.4350759999999951
0
LINE
8
BLACK
6
CONTINUOUS
10
30.4875319999999981
20
-32.4350759999999951
11
30.3922939999999997
21
-32.5303139999999971
0
LINE
8
BLACK
6
CONTINUOUS
10
30.3922939999999997
20
-32.5303139999999971
11
30.2018179999999994
21
-32.8160279999999958
0
LINE
8
BLACK
6
CONTINUOUS
10
30.2018179999999994
20
-32.8160279999999958
11
30.1065799999999975
21
-33.1969799999999964
0
LINE
8
BLACK
6
CONTINUOUS
10
30.1065799999999975
20
-33.1969799999999964
11
30.1065799999999975
21
-33.9588849999999951
0
LINE
8
BLACK
6
CONTINUOUS
10
30.1065799999999975
20
-33.9588849999999951
11
30.2018179999999994
21
-34.149360999999999
0
LINE
8
BLACK
6
CONTINUOUS
10
30.2018179999999994
20
-34.149360999999999
11
30.2970559999999978
21
-34.2445999999999984
0
LINE
8
BLACK
6
CONTINUOUS
10
30.2970559999999978
20
-34.2445999999999984
11
30.4875319999999981
21
-34.3398380000000003
0
LINE
8
BLACK
6
CONTINUOUS
10
30.4875319999999981
20
-34.3398380000000003
11
30.8684849999999997
21
-34.3398380000000003
0
LINE
8
BLACK
6
CONTINUOUS
10
30.8684849999999997
20
-34.3398380000000003
11
31.058961
21
-34.2445999999999984
0
LINE
8
BLACK
6
CONTINUOUS
10
31.058961
20
-34.2445999999999984
11
31.1541989999999984
21
-34.149360999999999
0
LINE
8
BLACK
6
CONTINUOUS
10
31.1541989999999984
20
-34.149360999999999
11
31.2494370000000004
21
-33.9588849999999951
0
LINE
8
BLACK
6
CONTINUOUS
10
31.2494370000000004
20
-33.9588849999999951
11
31.2494370000000004
21
-33.4826949999999997
0
LINE
8
BLACK
6
CONTINUOUS
10
31.2494370000000004
20
-33.4826949999999997
11
31.1541989999999984
21
-33.2922189999999958
0
LINE
8
BLACK
6
CONTINUOUS
10
31.1541989999999984
20
-33.2922189999999958
11
31.058961
21
-33.1969799999999964
0
LINE
8
BLACK
6
CONTINUOUS
10
31.058961
20
-33.1969799999999964
11
30.8684849999999997
21
-33.1017420000000016
0
LINE
8
BLACK
6
CONTINUOUS
10
30.8684849999999997
20
-33.1017420000000016
11
30.4875319999999981
21
-33.1017420000000016
0
LINE
8
BLACK
6
CONTINUOUS
10
30.4875319999999981
20
-33.1017420000000016
11
30.2970559999999978
21
-33.1969799999999964
0
LINE
8
BLACK
6
CONTINUOUS
10
30.2970559999999978
20
-33.1969799999999964
11
30.2018179999999994
21
-33.2922189999999958
0
LINE
8
BLACK
6
CONTINUOUS
10
30.2018179999999994
20
-33.2922189999999958
11
30.1065799999999975
21
-33.4826949999999997
0
LINE
8
BLACK
6
CONTINUOUS
10
32.0113419999999991
20
-32.3398380000000003
11
32.0113419999999991
21
-32.7207900000000009
0
LINE
8
BLACK
6
CONTINUOUS
10
32.7732469999999978
20
-32.3398380000000003
11
32.7732469999999978
21
-32.7207900000000009
0
LINE
8
BLACK
6
CONTINUOUS
10
35.7256289999999979
20
-35.1017420000000016
11
35.6303899999999985
21
-35.0065039999999996
0
LINE
8
BLACK
6
CONTINUOUS
10
35.6303899999999985
20
-35.0065039999999996
11
35.4399140000000017
21
-34.7207900000000009
0
LINE
8
BLACK
6
CONTINUOUS
10
35.4399140000000017
20
-34.7207900000000009
11
35.3446759999999998
21
-34.5303139999999971
0
LINE
8
BLACK
6
CONTINUOUS
10
35.3446759999999998
20
-34.5303139999999971
11
35.2494379999999978
21
-34.2445999999999984
0
LINE
8
BLACK
6
CONTINUOUS
10
35.2494379999999978
20
-34.2445999999999984
11
35.1541999999999959
21
-33.7684089999999983
0
LINE
8
BLACK
6
CONTINUOUS
10
35.1541999999999959
20
-33.7684089999999983
11
35.1541999999999959
21
-33.3874569999999977
0
LINE
8
BLACK
6
CONTINUOUS
10
35.1541999999999959
20
-33.3874569999999977
11
35.2494379999999978
21
-32.9112659999999977
0
LINE
8
BLACK
6
CONTINUOUS
10
35.2494379999999978
20
-32.9112659999999977
11
35.3446759999999998
21
-32.625551999999999
0
LINE
8
BLACK
6
CONTINUOUS
10
35.3446759999999998
20
-32.625551999999999
11
35.4399140000000017
21
-32.4350759999999951
0
LINE
8
BLACK
6
CONTINUOUS
10
35.4399140000000017
20
-32.4350759999999951
11
35.6303899999999985
21
-32.149360999999999
0
LINE
8
BLACK
6
CONTINUOUS
10
35.6303899999999985
20
-32.149360999999999
11
35.7256289999999979
21
-32.054122999999997
0
LINE
8
BLACK
6
CONTINUOUS
10
37.5351519999999965
20
-34.3398380000000003
11
36.3922949999999972
21
-34.3398380000000003
0
LINE
8
BLACK
6
CONTINUOUS
10
36.9637230000000017
20
-34.3398380000000003
11
36.9637230000000017
21
-32.3398380000000003
0
LINE
8
BLACK
6
CONTINUOUS
10
36.9637230000000017
20
-32.3398380000000003
11
36.7732469999999978
21
-32.625551999999999
0
LINE
8
BLACK
6
CONTINUOUS
10
36.7732469999999978
20
-32.625551999999999
11
36.582771000000001
21
-32.8160279999999958
0
LINE
8
BLACK
6
CONTINUOUS
10
36.582771000000001
20
-32.8160279999999958
11
36.3922949999999972
21
-32.9112659999999977
0
LINE
8
BLACK
6
CONTINUOUS
10
39.9161050000000017
20
-34.3398380000000003
11
39.9161050000000017
21
-32.3398380000000003
0
LINE
8
BLACK
6
CONTINUOUS
10
40.7732479999999953
20
-34.3398380000000003
11
40.7732479999999953
21
-33.2922189999999958
0
LINE
8
BLACK
6
CONTINUOUS
10
40.7732479999999953
20
-33.2922189999999958
11
40.6780100000000004
21
-33.1017420000000016
0
LINE
8
BLACK
6
CONTINUOUS
10
40.6780100000000004
20
-33.1017420000000016
11
40.4875339999999966
21
-33.0065039999999996
0
LINE
8
BLACK
6
CONTINUOUS
10
40.4875339999999966
20
-33.0065039999999996
11
40.2018190000000004
21
-33.0065039999999996
0
LINE
8
BLACK
6
CONTINUOUS
10
40.2018190000000004
20
-33.0065039999999996
11
40.0113429999999966
21
-33.1017420000000016
0
LINE
8
BLACK
6
CONTINUOUS
10
40.0113429999999966
20
-33.1017420000000016
11
39.9161050000000017
21
-33.1969799999999964
0
LINE
8
BLACK
6
CONTINUOUS
10
42.0113429999999966
20
-34.3398380000000003
11
41.8208669999999998
21
-34.2445999999999984
0
LINE
8
BLACK
6
CONTINUOUS
10
41.8208669999999998
20
-34.2445999999999984
11
41.7256289999999979
21
-34.149360999999999
0
LINE
8
BLACK
6
CONTINUOUS
10
41.7256289999999979
20
-34.149360999999999
11
41.6303909999999959
21
-33.9588849999999951
0
LINE
8
BLACK
6
CONTINUOUS
10
41.6303909999999959
20
-33.9588849999999951
11
41.6303909999999959
21
-33.3874569999999977
0
LINE
8
BLACK
6
CONTINUOUS
10
41.6303909999999959
20
-33.3874569999999977
11
41.7256289999999979
21
-33.1969799999999964
0
LINE
8
BLACK
6
CONTINUOUS
10
41.7256289999999979
20
-33.1969799999999964
11
41.8208669999999998
21
-33.1017420000000016
0
LINE
8
BLACK
6
CONTINUOUS
10
41.8208669999999998
20
-33.1017420000000016
11
42.0113429999999966
21
-33.0065039999999996
0
LINE
8
BLACK
6
CONTINUOUS
10
42.0113429999999966
20
-33.0065039999999996
11
42.2970579999999998
21
-33.0065039999999996
0
LINE
8
BLACK
6
CONTINUOUS
10
42.2970579999999998
20
-33.0065039999999996
11
42.4875339999999966
21
-33.1017420000000016
0
LINE
8
BLACK
6
CONTINUOUS
10
42.4875339999999966
20
-33.1017420000000016
11
42.5827719999999985
21
-33.1969799999999964
0
LINE
8
BLACK
6
CONTINUOUS
10
42.5827719999999985
20
-33.1969799999999964
11
42.6780100000000004
21
-33.3874569999999977
0
LINE
8
BLACK
6
CONTINUOUS
10
42.6780100000000004
20
-33.3874569999999977
11
42.6780100000000004
21
-33.9588849999999951
0
LINE
8
BLACK
6
CONTINUOUS
10
42.6780100000000004
20
-33.9588849999999951
11
42.5827719999999985
21
-34.149360999999999
0
LINE
8
BLACK
6
CONTINUOUS
10
42.5827719999999985
20
-34.149360999999999
11
42.4875339999999966
21
-34.2445999999999984
0
LINE
8
BLACK
6
CONTINUOUS
10
42.4875339999999966
20
-34.2445999999999984
11
42.2970579999999998
21
-34.3398380000000003
0
LINE
8
BLACK
6
CONTINUOUS
10
42.2970579999999998
20
-34.3398380000000003
11
42.0113429999999966
21
-34.3398380000000003
0
LINE
8
BLACK
6
CONTINUOUS
10
43.8208669999999998
20
-34.3398380000000003
11
43.6303909999999959
21
-34.2445999999999984
0
LINE
8
BLACK
6
CONTINUOUS
10
43.6303909999999959
20
-34.2445999999999984
11
43.5351530000000011
21
-34.054122999999997
0
LINE
8
BLACK
6
CONTINUOUS
10
43.5351530000000011
20
-34.054122999999997
11
43.5351530000000011
21
-32.3398380000000003
0
LINE
8
BLACK
6
CONTINUOUS
10
45.3446769999999972
20
-34.2445999999999984
11
45.1542010000000005
21
-34.3398380000000003
0
LINE
8
BLACK
6
CONTINUOUS
10
45.1542010000000005
20
-34.3398380000000003
11
44.7732479999999953
21
-34.3398380000000003
0
LINE
8
BLACK
6
CONTINUOUS
10
44.7732479999999953
20
-34.3398380000000003
11
44.5827719999999985
21
-34.2445999999999984
0
LINE
8
BLACK
6
CONTINUOUS
10
44.5827719999999985
20
-34.2445999999999984
11
44.4875339999999966
21
-34.054122999999997
0
LINE
8
BLACK
6
CONTINUOUS
10
44.4875339999999966
20
-34.054122999999997
11
44.4875339999999966
21
-33.2922189999999958
0
LINE
8
BLACK
6
CONTINUOUS
10
44.4875339999999966
20
-33.2922189999999958
11
44.5827719999999985
21
-33.1017420000000016
0
LINE
8
BLACK
6
CONTINUOUS
10
44.5827719999999985
20
-33.1017420000000016
11
44.7732479999999953
21
-33.0065039999999996
0
LINE
8
BLACK
6
CONTINUOUS
10
44.7732479999999953
20
-33.0065039999999996
11
45.1542010000000005
21
-33.0065039999999996
0
LINE
8
BLACK
6
CONTINUOUS
10
45.1542010000000005
20
-33.0065039999999996
11
45.3446769999999972
21
-33.1017420000000016
0
LINE
8
BLACK
6
CONTINUOUS
10
45.3446769999999972
20
-33.1017420000000016
11
45.4399149999999992
21
-33.2922189999999958
0
LINE
8
BLACK
6
CONTINUOUS
10
45.4399149999999992
20
-33.2922189999999958
11
45.4399149999999992
21
-33.4826949999999997
0
LINE
8
BLACK
6
CONTINUOUS
10
45.4399149999999992
20
-33.4826949999999997
11
44.4875339999999966
21
-33.6731709999999964
0
LINE
8
BLACK
6
CONTINUOUS
10
46.106581999999996
20
-35.1017420000000016
11
46.2018199999999979
21
-35.0065039999999996
0
LINE
8
BLACK
6
CONTINUOUS
10
46.2018199999999979
20
-35.0065039999999996
11
46.3922959999999946
21
-34.7207900000000009
0
LINE
8
BLACK
6
CONTINUOUS
10
46.3922959999999946
20
-34.7207900000000009
11
46.4875339999999966
21
-34.5303139999999971
0
LINE
8
BLACK
6
CONTINUOUS
10
46.4875339999999966
20
-34.5303139999999971
11
46.5827719999999985
21
-34.2445999999999984
0
LINE
8
BLACK
6
CONTINUOUS
10
46.5827719999999985
20
-34.2445999999999984
11
46.6780100000000004
21
-33.7684089999999983
0
LINE
8
BLACK
6
CONTINUOUS
10
46.6780100000000004
20
-33.7684089999999983
11
46.6780100000000004
21
-33.3874569999999977
0
LINE
8
BLACK
6
CONTINUOUS
10
46.6780100000000004
20
-33.3874569999999977
11
46.5827719999999985
21
-32.9112659999999977
0
LINE
8
BLACK
6
CONTINUOUS
10
46.5827719999999985
20
-32.9112659999999977
11
46.4875339999999966
21
-32.625551999999999
0
LINE
8
BLACK
6
CONTINUOUS
10
46.4875339999999966
20
-32.625551999999999
11
46.3922959999999946
21
-32.4350759999999951
0
LINE
8
BLACK
6
CONTINUOUS
10
46.3922959999999946
20
-32.4350759999999951
11
46.2018199999999979
21
-32.149360999999999
0
LINE
8
BLACK
6
CONTINUOUS
10
46.2018199999999979
20
-32.149360999999999
11
46.106581999999996
21
-32.054122999999997
0
LINE
8
BLACK
6
CONTINUOUS
10
49.7256299999999953
20
-35.1017420000000016
11
49.6303909999999959
21
-35.0065039999999996
0
LINE
8
BLACK
6
CONTINUOUS
10
49.6303909999999959
20
-35.0065039999999996
11
49.4399149999999992
21
-34.7207900000000009
0
LINE
8
BLACK
6
CONTINUOUS
10
49.4399149999999992
20
-34.7207900000000009
11
49.3446769999999972
21
-34.5303139999999971
0
LINE
8
BLACK
6
CONTINUOUS
10
49.3446769999999972
20
-34.5303139999999971
11
49.2494389999999953
21
-34.2445999999999984
0
LINE
8
BLACK
6
CONTINUOUS
10
49.2494389999999953
20
-34.2445999999999984
11
49.1542010000000005
21
-33.7684089999999983
0
LINE
8
BLACK
6
CONTINUOUS
10
49.1542010000000005
20
-33.7684089999999983
11
49.1542010000000005
21
-33.3874569999999977
0
LINE
8
BLACK
6
CONTINUOUS
10
49.1542010000000005
20
-33.3874569999999977
11
49.2494389999999953
21
-32.9112659999999977
0
LINE
8
BLACK
6
CONTINUOUS
10
49.2494389999999953
20
-32.9112659999999977
11
49.3446769999999972
21
-32.625551999999999
0
LINE
8
BLACK
6
CONTINUOUS
10
49.3446769999999972
20
-32.625551999999999
11
49.4399149999999992
21
-32.4350759999999951
0
LINE
8
BLACK
6
CONTINUOUS
10
49.4399149999999992
20
-32.4350759999999951
11
49.6303909999999959
21
-32.149360999999999
0
LINE
8
BLACK
6
CONTINUOUS
10
49.6303909999999959
20
-32.149360999999999
11
49.7256299999999953
21
-32.054122999999997
0
LINE
8
BLACK
6
CONTINUOUS
10
50.4875339999999966
20
-33.0065039999999996
11
50.4875339999999966
21
-34.3398380000000003
0
LINE
8
BLACK
6
CONTINUOUS
10
50.4875339999999966
20
-33.1969799999999964
11
50.5827719999999985
21
-33.1017420000000016
0
LINE
8
BLACK
6
CONTINUOUS
10
50.5827719999999985
20
-33.1017420000000016
11
50.7732479999999953
21
-33.0065039999999996
0
LINE
8
BLACK
6
CONTINUOUS
10
50.7732479999999953
20
-33.0065039999999996
11
51.0589629999999985
21
-33.0065039999999996
0
LINE
8
BLACK
6
CONTINUOUS
10
51.0589629999999985
20
-33.0065039999999996
11
51.2494389999999953
21
-33.1017420000000016
0
LINE
8
BLACK
6
CONTINUOUS
10
51.2494389999999953
20
-33.1017420000000016
11
51.3446769999999972
21
-33.2922189999999958
0
LINE
8
BLACK
6
CONTINUOUS
10
51.3446769999999972
20
-33.2922189999999958
11
51.3446769999999972
21
-34.3398380000000003
0
LINE
8
BLACK
6
CONTINUOUS
10
52.5827719999999985
20
-34.3398380000000003
11
52.3922959999999946
21
-34.2445999999999984
0
LINE
8
BLACK
6
CONTINUOUS
10
52.3922959999999946
20
-34.2445999999999984
11
52.2970579999999998
21
-34.149360999999999
0
LINE
8
BLACK
6
CONTINUOUS
10
52.2970579999999998
20
-34.149360999999999
11
52.2018199999999979
21
-33.9588849999999951
0
LINE
8
BLACK
6
CONTINUOUS
10
52.2018199999999979
20
-33.9588849999999951
11
52.2018199999999979
21
-33.3874569999999977
0
LINE
8
BLACK
6
CONTINUOUS
10
52.2018199999999979
20
-33.3874569999999977
11
52.2970579999999998
21
-33.1969799999999964
0
LINE
8
BLACK
6
CONTINUOUS
10
52.2970579999999998
20
-33.1969799999999964
11
52.3922959999999946
21
-33.1017420000000016
0
LINE
8
BLACK
6
CONTINUOUS
10
52.3922959999999946
20
-33.1017420000000016
11
52.5827719999999985
21
-33.0065039999999996
0
LINE
8
BLACK
6
CONTINUOUS
10
52.5827719999999985
20
-33.0065039999999996
11
52.8684869999999947
21
-33.0065039999999996
0
LINE
8
BLACK
6
CONTINUOUS
10
52.8684869999999947
20
-33.0065039999999996
11
53.0589629999999985
21
-33.1017420000000016
0
LINE
8
BLACK
6
CONTINUOUS
10
53.0589629999999985
20
-33.1017420000000016
11
53.1542010000000005
21
-33.1969799999999964
0
LINE
8
BLACK
6
CONTINUOUS
10
53.1542010000000005
20
-33.1969799999999964
11
53.2494389999999953
21
-33.3874569999999977
0
LINE
8
BLACK
6
CONTINUOUS
10
53.2494389999999953
20
-33.3874569999999977
11
53.2494389999999953
21
-33.9588849999999951
0
LINE
8
BLACK
6
CONTINUOUS
10
53.2494389999999953
20
-33.9588849999999951
11
53.1542010000000005
21
-34.149360999999999
0
LINE
8
BLACK
6
CONTINUOUS
10
53.1542010000000005
20
-34.149360999999999
11
53.0589629999999985
21
-34.2445999999999984
0
LINE
8
BLACK
6
CONTINUOUS
10
53.0589629999999985
20
-34.2445999999999984
11
52.8684869999999947
21
-34.3398380000000003
0
LINE
8
BLACK
6
CONTINUOUS
10
52.8684869999999947
20
-34.3398380000000003
11
52.5827719999999985
21
-34.3398380000000003
0
LINE
8
BLACK
6
CONTINUOUS
10
53.8208679999999973
20
-33.0065039999999996
11
54.5827719999999985
21
-33.0065039999999996
0
LINE
8
BLACK
6
CONTINUOUS
10
54.106581999999996
20
-32.3398380000000003
11
54.106581999999996
21
-34.054122999999997
0
LINE
8
BLACK
6
CONTINUOUS
10
54.106581999999996
20
-34.054122999999997
11
54.2018199999999979
21
-34.2445999999999984
0
LINE
8
BLACK
6
CONTINUOUS
10
54.2018199999999979
20
-34.2445999999999984
11
54.3922959999999946
21
-34.3398380000000003
0
LINE
8
BLACK
6
CONTINUOUS
10
54.3922959999999946
20
-34.3398380000000003
11
54.5827719999999985
21
-34.3398380000000003
0
LINE
8
BLACK
6
CONTINUOUS
10
56.7732489999999999
20
-33.0065039999999996
11
56.7732489999999999
21
-35.0065039999999996
0
LINE
8
BLACK
6
CONTINUOUS
10
56.7732489999999999
20
-33.1017420000000016
11
56.9637249999999966
21
-33.0065039999999996
0
LINE
8
BLACK
6
CONTINUOUS
10
56.9637249999999966
20
-33.0065039999999996
11
57.3446779999999947
21
-33.0065039999999996
0
LINE
8
BLACK
6
CONTINUOUS
10
57.3446779999999947
20
-33.0065039999999996
11
57.5351539999999986
21
-33.1017420000000016
0
LINE
8
BLACK
6
CONTINUOUS
10
57.5351539999999986
20
-33.1017420000000016
11
57.6303920000000005
21
-33.1969799999999964
0
LINE
8
BLACK
6
CONTINUOUS
10
57.6303920000000005
20
-33.1969799999999964
11
57.7256299999999953
21
-33.3874569999999977
0
LINE
8
BLACK
6
CONTINUOUS
10
57.7256299999999953
20
-33.3874569999999977
11
57.7256299999999953
21
-33.9588849999999951
0
LINE
8
BLACK
6
CONTINUOUS
10
57.7256299999999953
20
-33.9588849999999951
11
57.6303920000000005
21
-34.149360999999999
0
LINE
8
BLACK
6
CONTINUOUS
10
57.6303920000000005
20
-34.149360999999999
11
57.5351539999999986
21
-34.2445999999999984
0
LINE
8
BLACK
6
CONTINUOUS
10
57.5351539999999986
20
-34.2445999999999984
11
57.3446779999999947
21
-34.3398380000000003
0
LINE
8
BLACK
6
CONTINUOUS
10
57.3446779999999947
20
-34.3398380000000003
11
56.9637249999999966
21
-34.3398380000000003
0
LINE
8
BLACK
6
CONTINUOUS
10
56.9637249999999966
20
-34.3398380000000003
11
56.7732489999999999
21
-34.2445999999999984
0
LINE
8
BLACK
6
CONTINUOUS
10
58.8684869999999947
20
-34.3398380000000003
11
58.6780109999999979
21
-34.2445999999999984
0
LINE
8
BLACK
6
CONTINUOUS
10
58.6780109999999979
20
-34.2445999999999984
11
58.582772999999996
21
-34.054122999999997
0
LINE
8
BLACK
6
CONTINUOUS
10
58.582772999999996
20
-34.054122999999997
11
58.582772999999996
21
-32.3398380000000003
0
LINE
8
BLACK
6
CONTINUOUS
10
60.4875349999999941
20
-34.3398380000000003
11
60.4875349999999941
21
-33.2922189999999958
0
LINE
8
BLACK
6
CONTINUOUS
10
60.4875349999999941
20
-33.2922189999999958
11
60.3922969999999992
21
-33.1017420000000016
0
LINE
8
BLACK
6
CONTINUOUS
10
60.3922969999999992
20
-33.1017420000000016
11
60.2018209999999954
21
-33.0065039999999996
0
LINE
8
BLACK
6
CONTINUOUS
10
60.2018209999999954
20
-33.0065039999999996
11
59.8208679999999973
21
-33.0065039999999996
0
LINE
8
BLACK
6
CONTINUOUS
10
59.8208679999999973
20
-33.0065039999999996
11
59.6303920000000005
21
-33.1017420000000016
0
LINE
8
BLACK
6
CONTINUOUS
10
60.4875349999999941
20
-34.2445999999999984
11
60.2970589999999973
21
-34.3398380000000003
0
LINE
8
BLACK
6
CONTINUOUS
10
60.2970589999999973
20
-34.3398380000000003
11
59.8208679999999973
21
-34.3398380000000003
0
LINE
8
BLACK
6
CONTINUOUS
10
59.8208679999999973
20
-34.3398380000000003
11
59.6303920000000005
21
-34.2445999999999984
0
LINE
8
BLACK
6
CONTINUOUS
10
59.6303920000000005
20
-34.2445999999999984
11
59.5351539999999986
21
-34.054122999999997
0
LINE
8
BLACK
6
CONTINUOUS
10
59.5351539999999986
20
-34.054122999999997
11
59.5351539999999986
21
-33.8636470000000003
0
LINE
8
BLACK
6
CONTINUOUS
10
59.5351539999999986
20
-33.8636470000000003
11
59.6303920000000005
21
-33.6731709999999964
0
LINE
8
BLACK
6
CONTINUOUS
10
59.6303920000000005
20
-33.6731709999999964
11
59.8208679999999973
21
-33.5779330000000016
0
LINE
8
BLACK
6
CONTINUOUS
10
59.8208679999999973
20
-33.5779330000000016
11
60.2970589999999973
21
-33.5779330000000016
0
LINE
8
BLACK
6
CONTINUOUS
10
60.2970589999999973
20
-33.5779330000000016
11
60.4875349999999941
21
-33.4826949999999997
0
LINE
8
BLACK
6
CONTINUOUS
10
61.154201999999998
20
-33.0065039999999996
11
61.9161059999999992
21
-33.0065039999999996
0
LINE
8
BLACK
6
CONTINUOUS
10
61.4399159999999966
20
-32.3398380000000003
11
61.4399159999999966
21
-34.054122999999997
0
LINE
8
BLACK
6
CONTINUOUS
10
61.4399159999999966
20
-34.054122999999997
11
61.5351539999999986
21
-34.2445999999999984
0
LINE
8
BLACK
6
CONTINUOUS
10
61.5351539999999986
20
-34.2445999999999984
11
61.7256299999999953
21
-34.3398380000000003
0
LINE
8
BLACK
6
CONTINUOUS
10
61.7256299999999953
20
-34.3398380000000003
11
61.9161059999999992
21
-34.3398380000000003
0
LINE
8
BLACK
6
CONTINUOUS
10
63.3446779999999947
20
-34.2445999999999984
11
63.154201999999998
21
-34.3398380000000003
0
LINE
8
BLACK
6
CONTINUOUS
10
63.154201999999998
20
-34.3398380000000003
11
62.7732489999999999
21
-34.3398380000000003
0
LINE
8
BLACK
6
CONTINUOUS
10
62.7732489999999999
20
-34.3398380000000003
11
62.582772999999996
21
-34.2445999999999984
0
LINE
8
BLACK
6
CONTINUOUS
10
62.582772999999996
20
-34.2445999999999984
11
62.4875349999999941
21
-34.054122999999997
0
LINE
8
BLACK
6
CONTINUOUS
10
62.4875349999999941
20
-34.054122999999997
11
62.4875349999999941
21
-33.2922189999999958
0
LINE
8
BLACK
6
CONTINUOUS
10
62.4875349999999941
20
-33.2922189999999958
11
62.582772999999996
21
-33.1017420000000016
0
LINE
8
BLACK
6
CONTINUOUS
10
62.582772999999996
20
-33.1017420000000016
11
62.7732489999999999
21
-33.0065039999999996
0
LINE
8
BLACK
6
CONTINUOUS
10
62.7732489999999999
20
-33.0065039999999996
11
63.154201999999998
21
-33.0065039999999996
0
LINE
8
BLACK
6
CONTINUOUS
10
63.154201999999998
20
-33.0065039999999996
11
63.3446779999999947
21
-33.1017420000000016
0
LINE
8
BLACK
6
CONTINUOUS
10
63.3446779999999947
20
-33.1017420000000016
11
63.4399159999999966
21
-33.2922189999999958
0
LINE
8
BLACK
6
CONTINUOUS
10
63.4399159999999966
20
-33.2922189999999958
11
63.4399159999999966
21
-33.4826949999999997
0
LINE
8
BLACK
6
CONTINUOUS
10
63.4399159999999966
20
-33.4826949999999997
11
62.4875349999999941
21
-33.6731709999999964
0
LINE
8
BLACK
6
CONTINUOUS
10
65.154201999999998
20
-34.3398380000000003
11
65.154201999999998
21
-32.3398380000000003
0
LINE
8
BLACK
6
CONTINUOUS
10
65.154201999999998
20
-34.2445999999999984
11
64.9637259999999941
21
-34.3398380000000003
0
LINE
8
BLACK
6
CONTINUOUS
10
64.9637259999999941
20
-34.3398380000000003
11
64.5827730000000031
21
-34.3398380000000003
0
LINE
8
BLACK
6
CONTINUOUS
10
64.5827730000000031
20
-34.3398380000000003
11
64.3922969999999992
21
-34.2445999999999984
0
LINE
8
BLACK
6
CONTINUOUS
10
64.3922969999999992
20
-34.2445999999999984
11
64.2970589999999902
21
-34.149360999999999
0
LINE
8
BLACK
6
CONTINUOUS
10
64.2970589999999902
20
-34.149360999999999
11
64.2018209999999954
21
-33.9588849999999951
0
LINE
8
BLACK
6
CONTINUOUS
10
64.2018209999999954
20
-33.9588849999999951
11
64.2018209999999954
21
-33.3874569999999977
0
LINE
8
BLACK
6
CONTINUOUS
10
64.2018209999999954
20
-33.3874569999999977
11
64.2970589999999902
21
-33.1969799999999964
0
LINE
8
BLACK
6
CONTINUOUS
10
64.2970589999999902
20
-33.1969799999999964
11
64.3922969999999992
21
-33.1017420000000016
0
LINE
8
BLACK
6
CONTINUOUS
10
64.3922969999999992
20
-33.1017420000000016
11
64.5827730000000031
21
-33.0065039999999996
0
LINE
8
BLACK
6
CONTINUOUS
10
64.5827730000000031
20
-33.0065039999999996
11
64.9637259999999941
21
-33.0065039999999996
0
LINE
8
BLACK
6
CONTINUOUS
10
64.9637259999999941
20
-33.0065039999999996
11
65.154201999999998
21
-33.1017420000000016
0
LINE
8
BLACK
6
CONTINUOUS
10
65.9161069999999967
20
-35.1017420000000016
11
66.0113449999999915
21
-35.0065039999999996
0
LINE
8
BLACK
6
CONTINUOUS
10
66.0113449999999915
20
-35.0065039999999996
11
66.2018209999999954
21
-34.7207900000000009
0
LINE
8
BLACK
6
CONTINUOUS
10
66.2018209999999954
20
-34.7207900000000009
11
66.2970589999999902
21
-34.5303139999999971
0
LINE
8
BLACK
6
CONTINUOUS
10
66.2970589999999902
20
-34.5303139999999971
11
66.3922969999999992
21
-34.2445999999999984
0
LINE
8
BLACK
6
CONTINUOUS
10
66.3922969999999992
20
-34.2445999999999984
11
66.4875349999999941
21
-33.7684089999999983
0
LINE
8
BLACK
6
CONTINUOUS
10
66.4875349999999941
20
-33.7684089999999983
11
66.4875349999999941
21
-33.3874569999999977
0
LINE
8
BLACK
6
CONTINUOUS
10
66.4875349999999941
20
-33.3874569999999977
11
66.3922969999999992
21
-32.9112659999999977
0
LINE
8
BLACK
6
CONTINUOUS
10
66.3922969999999992
20
-32.9112659999999977
11
66.2970589999999902
21
-32.625551999999999
0
LINE
8
BLACK
6
CONTINUOUS
10
66.2970589999999902
20
-32.625551999999999
11
66.2018209999999954
21
-32.4350759999999951
0
LINE
8
BLACK
6
CONTINUOUS
10
66.2018209999999954
20
-32.4350759999999951
11
66.0113449999999915
21
-32.149360999999999
0
LINE
8
BLACK
6
CONTINUOUS
10
66.0113449999999915
20
-32.149360999999999
11
65.9161069999999967
21
-32.054122999999997
  0
ENDSEC
  0
EOF
