%TF.GenerationSoftware,KiCad,Pcbnew,8.0.7*%
%TF.CreationDate,2024-12-25T10:14:00+09:00*%
%TF.ProjectId,atx_breakout,6174785f-6272-4656-916b-6f75742e6b69,rev?*%
%TF.SameCoordinates,Original*%
%TF.FileFunction,Soldermask,Top*%
%TF.FilePolarity,Negative*%
%FSLAX46Y46*%
G04 Gerber Fmt 4.6, Leading zero omitted, Abs format (unit mm)*
G04 Created by KiCad (PCBNEW 8.0.7) date 2024-12-25 10:14:00*
%MOMM*%
%LPD*%
G01*
G04 APERTURE LIST*
G04 Aperture macros list*
%AMRoundRect*
0 Rectangle with rounded corners*
0 $1 Rounding radius*
0 $2 $3 $4 $5 $6 $7 $8 $9 X,Y pos of 4 corners*
0 Add a 4 corners polygon primitive as box body*
4,1,4,$2,$3,$4,$5,$6,$7,$8,$9,$2,$3,0*
0 Add four circle primitives for the rounded corners*
1,1,$1+$1,$2,$3*
1,1,$1+$1,$4,$5*
1,1,$1+$1,$6,$7*
1,1,$1+$1,$8,$9*
0 Add four rect primitives between the rounded corners*
20,1,$1+$1,$2,$3,$4,$5,0*
20,1,$1+$1,$4,$5,$6,$7,0*
20,1,$1+$1,$6,$7,$8,$9,0*
20,1,$1+$1,$8,$9,$2,$3,0*%
G04 Aperture macros list end*
%ADD10RoundRect,0.257037X-1.430963X1.130963X-1.430963X-1.130963X1.430963X-1.130963X1.430963X1.130963X0*%
%ADD11O,3.376000X2.776000*%
%ADD12RoundRect,0.038000X-0.900000X-0.900000X0.900000X-0.900000X0.900000X0.900000X-0.900000X0.900000X0*%
%ADD13C,1.876000*%
%ADD14C,1.676000*%
%ADD15O,1.676000X1.676000*%
%ADD16C,2.276000*%
%ADD17RoundRect,0.038000X-1.200000X-1.200000X1.200000X-1.200000X1.200000X1.200000X-1.200000X1.200000X0*%
%ADD18C,2.476000*%
%ADD19RoundRect,0.038000X-1.300000X-1.300000X1.300000X-1.300000X1.300000X1.300000X-1.300000X1.300000X0*%
%ADD20C,2.676000*%
%ADD21RoundRect,0.257037X1.130963X1.430963X-1.130963X1.430963X-1.130963X-1.430963X1.130963X-1.430963X0*%
%ADD22O,2.776000X3.376000*%
G04 APERTURE END LIST*
D10*
%TO.C,J4*%
X83000000Y-32000000D03*
D11*
X83000000Y-36200000D03*
X83000000Y-40400000D03*
X83000000Y-44600000D03*
X78800000Y-32000000D03*
X78800000Y-36200000D03*
X78800000Y-40400000D03*
X78800000Y-44600000D03*
%TD*%
D12*
%TO.C,D1*%
X26000000Y-17000000D03*
D13*
X28540000Y-17000000D03*
%TD*%
D10*
%TO.C,J2*%
X35000000Y-32000000D03*
D11*
X35000000Y-36200000D03*
X35000000Y-40400000D03*
X35000000Y-44600000D03*
X30800000Y-32000000D03*
X30800000Y-36200000D03*
X30800000Y-40400000D03*
X30800000Y-44600000D03*
%TD*%
D10*
%TO.C,J1*%
X11000000Y-32000000D03*
D11*
X11000000Y-36200000D03*
X11000000Y-40400000D03*
X11000000Y-44600000D03*
X6800000Y-32000000D03*
X6800000Y-36200000D03*
X6800000Y-40400000D03*
X6800000Y-44600000D03*
%TD*%
D14*
%TO.C,R1*%
X24000000Y-22000000D03*
D15*
X31620000Y-22000000D03*
%TD*%
D10*
%TO.C,J3*%
X59000000Y-32000000D03*
D11*
X59000000Y-36200000D03*
X59000000Y-40400000D03*
X59000000Y-44600000D03*
X54800000Y-32000000D03*
X54800000Y-36200000D03*
X54800000Y-40400000D03*
X54800000Y-44600000D03*
%TD*%
D16*
%TO.C,H2*%
X20000000Y-30000000D03*
%TD*%
D14*
%TO.C,R2*%
X14000000Y-22000000D03*
D15*
X21620000Y-22000000D03*
%TD*%
D16*
%TO.C,H1*%
X45000000Y-30000000D03*
%TD*%
D17*
%TO.C,J6*%
X5000000Y-4000000D03*
D18*
X8500000Y-4000000D03*
X12000000Y-4000000D03*
X15500000Y-4000000D03*
X19000000Y-4000000D03*
X22500000Y-4000000D03*
X26000000Y-4000000D03*
X29500000Y-4000000D03*
%TD*%
D17*
%TO.C,J8*%
X61000000Y-4000000D03*
D18*
X64500000Y-4000000D03*
X68000000Y-4000000D03*
X71500000Y-4000000D03*
X75000000Y-4000000D03*
X78500000Y-4000000D03*
X82000000Y-4000000D03*
X85500000Y-4000000D03*
%TD*%
D17*
%TO.C,J7*%
X33000000Y-4000000D03*
D18*
X36500000Y-4000000D03*
X40000000Y-4000000D03*
X43500000Y-4000000D03*
X47000000Y-4000000D03*
X50500000Y-4000000D03*
X54000000Y-4000000D03*
X57500000Y-4000000D03*
%TD*%
D14*
%TO.C,U1*%
X9000000Y-15500000D03*
X7000000Y-15500000D03*
X5000000Y-15500000D03*
X9000000Y-20500000D03*
X7000000Y-20500000D03*
X5000000Y-20500000D03*
%TD*%
D16*
%TO.C,H3*%
X70000000Y-30000000D03*
%TD*%
D19*
%TO.C,J9*%
X8000000Y-54000000D03*
D20*
X13000000Y-54000000D03*
X18000000Y-54000000D03*
X23000000Y-54000000D03*
X28000000Y-54000000D03*
X33000000Y-54000000D03*
X38000000Y-54000000D03*
X43000000Y-54000000D03*
%TD*%
D21*
%TO.C,J5*%
X85000000Y-21000000D03*
D22*
X80800000Y-21000000D03*
X76600000Y-21000000D03*
X72400000Y-21000000D03*
X68200000Y-21000000D03*
X64000000Y-21000000D03*
X59800000Y-21000000D03*
X55600000Y-21000000D03*
X51400000Y-21000000D03*
X47200000Y-21000000D03*
X43000000Y-21000000D03*
X38800000Y-21000000D03*
X85000000Y-16800000D03*
X80800000Y-16800000D03*
X76600000Y-16800000D03*
X72400000Y-16800000D03*
X68200000Y-16800000D03*
X64000000Y-16800000D03*
X59800000Y-16800000D03*
X55600000Y-16800000D03*
X51400000Y-16800000D03*
X47200000Y-16800000D03*
X43000000Y-16800000D03*
X38800000Y-16800000D03*
%TD*%
D19*
%TO.C,J10*%
X48000000Y-54000000D03*
D20*
X53000000Y-54000000D03*
X58000000Y-54000000D03*
X63000000Y-54000000D03*
X68000000Y-54000000D03*
X73000000Y-54000000D03*
X78000000Y-54000000D03*
X83000000Y-54000000D03*
%TD*%
D12*
%TO.C,D2*%
X16000000Y-17000000D03*
D13*
X18540000Y-17000000D03*
%TD*%
M02*
