M48
; DRILL file {KiCad 8.0.7} date 2024-12-25T10:14:12+0900
; FORMAT={-:-/ absolute / metric / decimal}
; #@! TF.CreationDate,2024-12-25T10:14:12+09:00
; #@! TF.GenerationSoftware,Kicad,Pcbnew,8.0.7
; #@! TF.FileFunction,Plated,1,2,PTH
FMAT,2
METRIC
; #@! TA.AperFunction,Plated,PTH,ComponentDrill
T1C0.800
; #@! TA.AperFunction,Plated,PTH,ComponentDrill
T2C0.900
; #@! TA.AperFunction,Plated,PTH,ComponentDrill
T3C1.200
; #@! TA.AperFunction,Plated,PTH,ComponentDrill
T4C1.300
; #@! TA.AperFunction,Plated,PTH,ComponentDrill
T5C1.600
%
G90
G05
T1
X5.0Y-15.5
X5.0Y-20.5
X7.0Y-15.5
X7.0Y-20.5
X9.0Y-15.5
X9.0Y-20.5
X14.0Y-22.0
X21.62Y-22.0
X24.0Y-22.0
X31.62Y-22.0
T2
X16.0Y-17.0
X18.54Y-17.0
X26.0Y-17.0
X28.54Y-17.0
T3
X5.0Y-4.0
X8.5Y-4.0
X12.0Y-4.0
X15.5Y-4.0
X19.0Y-4.0
X22.5Y-4.0
X26.0Y-4.0
X29.5Y-4.0
X33.0Y-4.0
X36.5Y-4.0
X40.0Y-4.0
X43.5Y-4.0
X47.0Y-4.0
X50.5Y-4.0
X54.0Y-4.0
X57.5Y-4.0
X61.0Y-4.0
X64.5Y-4.0
X68.0Y-4.0
X71.5Y-4.0
X75.0Y-4.0
X78.5Y-4.0
X82.0Y-4.0
X85.5Y-4.0
T4
X8.0Y-54.0
X13.0Y-54.0
X18.0Y-54.0
X23.0Y-54.0
X28.0Y-54.0
X33.0Y-54.0
X38.0Y-54.0
X43.0Y-54.0
X48.0Y-54.0
X53.0Y-54.0
X58.0Y-54.0
X63.0Y-54.0
X68.0Y-54.0
X73.0Y-54.0
X78.0Y-54.0
X83.0Y-54.0
T5
X6.8Y-32.0
X6.8Y-36.2
X6.8Y-40.4
X6.8Y-44.6
X11.0Y-32.0
X11.0Y-36.2
X11.0Y-40.4
X11.0Y-44.6
X30.8Y-32.0
X30.8Y-36.2
X30.8Y-40.4
X30.8Y-44.6
X35.0Y-32.0
X35.0Y-36.2
X35.0Y-40.4
X35.0Y-44.6
X38.8Y-16.8
X38.8Y-21.0
X43.0Y-16.8
X43.0Y-21.0
X47.2Y-16.8
X47.2Y-21.0
X51.4Y-16.8
X51.4Y-21.0
X54.8Y-32.0
X54.8Y-36.2
X54.8Y-40.4
X54.8Y-44.6
X55.6Y-16.8
X55.6Y-21.0
X59.0Y-32.0
X59.0Y-36.2
X59.0Y-40.4
X59.0Y-44.6
X59.8Y-16.8
X59.8Y-21.0
X64.0Y-16.8
X64.0Y-21.0
X68.2Y-16.8
X68.2Y-21.0
X72.4Y-16.8
X72.4Y-21.0
X76.6Y-16.8
X76.6Y-21.0
X78.8Y-32.0
X78.8Y-36.2
X78.8Y-40.4
X78.8Y-44.6
X80.8Y-16.8
X80.8Y-21.0
X83.0Y-32.0
X83.0Y-36.2
X83.0Y-40.4
X83.0Y-44.6
X85.0Y-16.8
X85.0Y-21.0
M30
