%TF.GenerationSoftware,KiCad,Pcbnew,8.0.6*%
%TF.CreationDate,2024-12-10T23:43:24+09:00*%
%TF.ProjectId,atx_breakout,6174785f-6272-4656-916b-6f75742e6b69,rev?*%
%TF.SameCoordinates,Original*%
%TF.FileFunction,Legend,Top*%
%TF.FilePolarity,Positive*%
%FSLAX46Y46*%
G04 Gerber Fmt 4.6, Leading zero omitted, Abs format (unit mm)*
G04 Created by KiCad (PCBNEW 8.0.6) date 2024-12-10 23:43:24*
%MOMM*%
%LPD*%
G01*
G04 APERTURE LIST*
G04 Aperture macros list*
%AMRoundRect*
0 Rectangle with rounded corners*
0 $1 Rounding radius*
0 $2 $3 $4 $5 $6 $7 $8 $9 X,Y pos of 4 corners*
0 Add a 4 corners polygon primitive as box body*
4,1,4,$2,$3,$4,$5,$6,$7,$8,$9,$2,$3,0*
0 Add four circle primitives for the rounded corners*
1,1,$1+$1,$2,$3*
1,1,$1+$1,$4,$5*
1,1,$1+$1,$6,$7*
1,1,$1+$1,$8,$9*
0 Add four rect primitives between the rounded corners*
20,1,$1+$1,$2,$3,$4,$5,0*
20,1,$1+$1,$4,$5,$6,$7,0*
20,1,$1+$1,$6,$7,$8,$9,0*
20,1,$1+$1,$8,$9,$2,$3,0*%
G04 Aperture macros list end*
%ADD10C,0.100000*%
%ADD11C,0.120000*%
%ADD12RoundRect,0.257038X-1.430962X1.130962X-1.430962X-1.130962X1.430962X-1.130962X1.430962X1.130962X0*%
%ADD13O,3.376000X2.776000*%
%ADD14RoundRect,0.038000X-0.900000X-0.900000X0.900000X-0.900000X0.900000X0.900000X-0.900000X0.900000X0*%
%ADD15C,1.876000*%
%ADD16C,1.676000*%
%ADD17O,1.676000X1.676000*%
%ADD18C,2.276000*%
%ADD19RoundRect,0.038000X-1.200000X-1.200000X1.200000X-1.200000X1.200000X1.200000X-1.200000X1.200000X0*%
%ADD20C,2.476000*%
%ADD21RoundRect,0.038000X-1.300000X-1.300000X1.300000X-1.300000X1.300000X1.300000X-1.300000X1.300000X0*%
%ADD22C,2.676000*%
%ADD23RoundRect,0.257038X1.130962X1.430962X-1.130962X1.430962X-1.130962X-1.430962X1.130962X-1.430962X0*%
%ADD24O,2.776000X3.376000*%
G04 APERTURE END LIST*
D10*
X52303884Y-10491466D02*
X53065789Y-10491466D01*
X52684836Y-10872419D02*
X52684836Y-10110514D01*
X53446741Y-9872419D02*
X54065788Y-9872419D01*
X54065788Y-9872419D02*
X53732455Y-10253371D01*
X53732455Y-10253371D02*
X53875312Y-10253371D01*
X53875312Y-10253371D02*
X53970550Y-10300990D01*
X53970550Y-10300990D02*
X54018169Y-10348609D01*
X54018169Y-10348609D02*
X54065788Y-10443847D01*
X54065788Y-10443847D02*
X54065788Y-10681942D01*
X54065788Y-10681942D02*
X54018169Y-10777180D01*
X54018169Y-10777180D02*
X53970550Y-10824800D01*
X53970550Y-10824800D02*
X53875312Y-10872419D01*
X53875312Y-10872419D02*
X53589598Y-10872419D01*
X53589598Y-10872419D02*
X53494360Y-10824800D01*
X53494360Y-10824800D02*
X53446741Y-10777180D01*
X54494360Y-10777180D02*
X54541979Y-10824800D01*
X54541979Y-10824800D02*
X54494360Y-10872419D01*
X54494360Y-10872419D02*
X54446741Y-10824800D01*
X54446741Y-10824800D02*
X54494360Y-10777180D01*
X54494360Y-10777180D02*
X54494360Y-10872419D01*
X54875312Y-9872419D02*
X55494359Y-9872419D01*
X55494359Y-9872419D02*
X55161026Y-10253371D01*
X55161026Y-10253371D02*
X55303883Y-10253371D01*
X55303883Y-10253371D02*
X55399121Y-10300990D01*
X55399121Y-10300990D02*
X55446740Y-10348609D01*
X55446740Y-10348609D02*
X55494359Y-10443847D01*
X55494359Y-10443847D02*
X55494359Y-10681942D01*
X55494359Y-10681942D02*
X55446740Y-10777180D01*
X55446740Y-10777180D02*
X55399121Y-10824800D01*
X55399121Y-10824800D02*
X55303883Y-10872419D01*
X55303883Y-10872419D02*
X55018169Y-10872419D01*
X55018169Y-10872419D02*
X54922931Y-10824800D01*
X54922931Y-10824800D02*
X54875312Y-10777180D01*
X55780074Y-9872419D02*
X56113407Y-10872419D01*
X56113407Y-10872419D02*
X56446740Y-9872419D01*
X54000000Y-10000000D02*
X54000000Y-5680000D01*
X24303884Y-10491466D02*
X25065789Y-10491466D01*
X24684836Y-10872419D02*
X24684836Y-10110514D01*
X26065788Y-10872419D02*
X25494360Y-10872419D01*
X25780074Y-10872419D02*
X25780074Y-9872419D01*
X25780074Y-9872419D02*
X25684836Y-10015276D01*
X25684836Y-10015276D02*
X25589598Y-10110514D01*
X25589598Y-10110514D02*
X25494360Y-10158133D01*
X26446741Y-9967657D02*
X26494360Y-9920038D01*
X26494360Y-9920038D02*
X26589598Y-9872419D01*
X26589598Y-9872419D02*
X26827693Y-9872419D01*
X26827693Y-9872419D02*
X26922931Y-9920038D01*
X26922931Y-9920038D02*
X26970550Y-9967657D01*
X26970550Y-9967657D02*
X27018169Y-10062895D01*
X27018169Y-10062895D02*
X27018169Y-10158133D01*
X27018169Y-10158133D02*
X26970550Y-10300990D01*
X26970550Y-10300990D02*
X26399122Y-10872419D01*
X26399122Y-10872419D02*
X27018169Y-10872419D01*
X27303884Y-9872419D02*
X27637217Y-10872419D01*
X27637217Y-10872419D02*
X27970550Y-9872419D01*
X26000000Y-10000000D02*
X26000000Y-5680000D01*
X17303884Y-10491466D02*
X18065789Y-10491466D01*
X17684836Y-10872419D02*
X17684836Y-10110514D01*
X19065788Y-10872419D02*
X18494360Y-10872419D01*
X18780074Y-10872419D02*
X18780074Y-9872419D01*
X18780074Y-9872419D02*
X18684836Y-10015276D01*
X18684836Y-10015276D02*
X18589598Y-10110514D01*
X18589598Y-10110514D02*
X18494360Y-10158133D01*
X19446741Y-9967657D02*
X19494360Y-9920038D01*
X19494360Y-9920038D02*
X19589598Y-9872419D01*
X19589598Y-9872419D02*
X19827693Y-9872419D01*
X19827693Y-9872419D02*
X19922931Y-9920038D01*
X19922931Y-9920038D02*
X19970550Y-9967657D01*
X19970550Y-9967657D02*
X20018169Y-10062895D01*
X20018169Y-10062895D02*
X20018169Y-10158133D01*
X20018169Y-10158133D02*
X19970550Y-10300990D01*
X19970550Y-10300990D02*
X19399122Y-10872419D01*
X19399122Y-10872419D02*
X20018169Y-10872419D01*
X20303884Y-9872419D02*
X20637217Y-10872419D01*
X20637217Y-10872419D02*
X20970550Y-9872419D01*
X19000000Y-10000000D02*
X19000000Y-5680000D01*
X10303884Y-10491466D02*
X11065789Y-10491466D01*
X10684836Y-10872419D02*
X10684836Y-10110514D01*
X12065788Y-10872419D02*
X11494360Y-10872419D01*
X11780074Y-10872419D02*
X11780074Y-9872419D01*
X11780074Y-9872419D02*
X11684836Y-10015276D01*
X11684836Y-10015276D02*
X11589598Y-10110514D01*
X11589598Y-10110514D02*
X11494360Y-10158133D01*
X12446741Y-9967657D02*
X12494360Y-9920038D01*
X12494360Y-9920038D02*
X12589598Y-9872419D01*
X12589598Y-9872419D02*
X12827693Y-9872419D01*
X12827693Y-9872419D02*
X12922931Y-9920038D01*
X12922931Y-9920038D02*
X12970550Y-9967657D01*
X12970550Y-9967657D02*
X13018169Y-10062895D01*
X13018169Y-10062895D02*
X13018169Y-10158133D01*
X13018169Y-10158133D02*
X12970550Y-10300990D01*
X12970550Y-10300990D02*
X12399122Y-10872419D01*
X12399122Y-10872419D02*
X13018169Y-10872419D01*
X13303884Y-9872419D02*
X13637217Y-10872419D01*
X13637217Y-10872419D02*
X13970550Y-9872419D01*
X12000000Y-10000000D02*
X12000000Y-5680000D01*
X8000000Y-49000000D02*
X8000000Y-51820000D01*
X18000000Y-49000000D02*
X18000000Y-51820000D01*
X28000000Y-49000000D02*
X28000000Y-51820000D01*
X38000000Y-49000000D02*
X38000000Y-51820000D01*
X48000000Y-49000000D02*
X48000000Y-51820000D01*
X58000000Y-49000000D02*
X58000000Y-51820000D01*
X68000000Y-49000000D02*
X68000000Y-51820000D01*
X78000000Y-49000000D02*
X78000000Y-51820000D01*
X76303884Y-48491466D02*
X77065789Y-48491466D01*
X76684836Y-48872419D02*
X76684836Y-48110514D01*
X78065788Y-48872419D02*
X77494360Y-48872419D01*
X77780074Y-48872419D02*
X77780074Y-47872419D01*
X77780074Y-47872419D02*
X77684836Y-48015276D01*
X77684836Y-48015276D02*
X77589598Y-48110514D01*
X77589598Y-48110514D02*
X77494360Y-48158133D01*
X78446741Y-47967657D02*
X78494360Y-47920038D01*
X78494360Y-47920038D02*
X78589598Y-47872419D01*
X78589598Y-47872419D02*
X78827693Y-47872419D01*
X78827693Y-47872419D02*
X78922931Y-47920038D01*
X78922931Y-47920038D02*
X78970550Y-47967657D01*
X78970550Y-47967657D02*
X79018169Y-48062895D01*
X79018169Y-48062895D02*
X79018169Y-48158133D01*
X79018169Y-48158133D02*
X78970550Y-48300990D01*
X78970550Y-48300990D02*
X78399122Y-48872419D01*
X78399122Y-48872419D02*
X79018169Y-48872419D01*
X79303884Y-47872419D02*
X79637217Y-48872419D01*
X79637217Y-48872419D02*
X79970550Y-47872419D01*
X66303884Y-48491466D02*
X67065789Y-48491466D01*
X66684836Y-48872419D02*
X66684836Y-48110514D01*
X68065788Y-48872419D02*
X67494360Y-48872419D01*
X67780074Y-48872419D02*
X67780074Y-47872419D01*
X67780074Y-47872419D02*
X67684836Y-48015276D01*
X67684836Y-48015276D02*
X67589598Y-48110514D01*
X67589598Y-48110514D02*
X67494360Y-48158133D01*
X68446741Y-47967657D02*
X68494360Y-47920038D01*
X68494360Y-47920038D02*
X68589598Y-47872419D01*
X68589598Y-47872419D02*
X68827693Y-47872419D01*
X68827693Y-47872419D02*
X68922931Y-47920038D01*
X68922931Y-47920038D02*
X68970550Y-47967657D01*
X68970550Y-47967657D02*
X69018169Y-48062895D01*
X69018169Y-48062895D02*
X69018169Y-48158133D01*
X69018169Y-48158133D02*
X68970550Y-48300990D01*
X68970550Y-48300990D02*
X68399122Y-48872419D01*
X68399122Y-48872419D02*
X69018169Y-48872419D01*
X69303884Y-47872419D02*
X69637217Y-48872419D01*
X69637217Y-48872419D02*
X69970550Y-47872419D01*
X56303884Y-48491466D02*
X57065789Y-48491466D01*
X56684836Y-48872419D02*
X56684836Y-48110514D01*
X58065788Y-48872419D02*
X57494360Y-48872419D01*
X57780074Y-48872419D02*
X57780074Y-47872419D01*
X57780074Y-47872419D02*
X57684836Y-48015276D01*
X57684836Y-48015276D02*
X57589598Y-48110514D01*
X57589598Y-48110514D02*
X57494360Y-48158133D01*
X58446741Y-47967657D02*
X58494360Y-47920038D01*
X58494360Y-47920038D02*
X58589598Y-47872419D01*
X58589598Y-47872419D02*
X58827693Y-47872419D01*
X58827693Y-47872419D02*
X58922931Y-47920038D01*
X58922931Y-47920038D02*
X58970550Y-47967657D01*
X58970550Y-47967657D02*
X59018169Y-48062895D01*
X59018169Y-48062895D02*
X59018169Y-48158133D01*
X59018169Y-48158133D02*
X58970550Y-48300990D01*
X58970550Y-48300990D02*
X58399122Y-48872419D01*
X58399122Y-48872419D02*
X59018169Y-48872419D01*
X59303884Y-47872419D02*
X59637217Y-48872419D01*
X59637217Y-48872419D02*
X59970550Y-47872419D01*
X46303884Y-48491466D02*
X47065789Y-48491466D01*
X46684836Y-48872419D02*
X46684836Y-48110514D01*
X48065788Y-48872419D02*
X47494360Y-48872419D01*
X47780074Y-48872419D02*
X47780074Y-47872419D01*
X47780074Y-47872419D02*
X47684836Y-48015276D01*
X47684836Y-48015276D02*
X47589598Y-48110514D01*
X47589598Y-48110514D02*
X47494360Y-48158133D01*
X48446741Y-47967657D02*
X48494360Y-47920038D01*
X48494360Y-47920038D02*
X48589598Y-47872419D01*
X48589598Y-47872419D02*
X48827693Y-47872419D01*
X48827693Y-47872419D02*
X48922931Y-47920038D01*
X48922931Y-47920038D02*
X48970550Y-47967657D01*
X48970550Y-47967657D02*
X49018169Y-48062895D01*
X49018169Y-48062895D02*
X49018169Y-48158133D01*
X49018169Y-48158133D02*
X48970550Y-48300990D01*
X48970550Y-48300990D02*
X48399122Y-48872419D01*
X48399122Y-48872419D02*
X49018169Y-48872419D01*
X49303884Y-47872419D02*
X49637217Y-48872419D01*
X49637217Y-48872419D02*
X49970550Y-47872419D01*
X36303884Y-48491466D02*
X37065789Y-48491466D01*
X36684836Y-48872419D02*
X36684836Y-48110514D01*
X38065788Y-48872419D02*
X37494360Y-48872419D01*
X37780074Y-48872419D02*
X37780074Y-47872419D01*
X37780074Y-47872419D02*
X37684836Y-48015276D01*
X37684836Y-48015276D02*
X37589598Y-48110514D01*
X37589598Y-48110514D02*
X37494360Y-48158133D01*
X38446741Y-47967657D02*
X38494360Y-47920038D01*
X38494360Y-47920038D02*
X38589598Y-47872419D01*
X38589598Y-47872419D02*
X38827693Y-47872419D01*
X38827693Y-47872419D02*
X38922931Y-47920038D01*
X38922931Y-47920038D02*
X38970550Y-47967657D01*
X38970550Y-47967657D02*
X39018169Y-48062895D01*
X39018169Y-48062895D02*
X39018169Y-48158133D01*
X39018169Y-48158133D02*
X38970550Y-48300990D01*
X38970550Y-48300990D02*
X38399122Y-48872419D01*
X38399122Y-48872419D02*
X39018169Y-48872419D01*
X39303884Y-47872419D02*
X39637217Y-48872419D01*
X39637217Y-48872419D02*
X39970550Y-47872419D01*
X26303884Y-48491466D02*
X27065789Y-48491466D01*
X26684836Y-48872419D02*
X26684836Y-48110514D01*
X28065788Y-48872419D02*
X27494360Y-48872419D01*
X27780074Y-48872419D02*
X27780074Y-47872419D01*
X27780074Y-47872419D02*
X27684836Y-48015276D01*
X27684836Y-48015276D02*
X27589598Y-48110514D01*
X27589598Y-48110514D02*
X27494360Y-48158133D01*
X28446741Y-47967657D02*
X28494360Y-47920038D01*
X28494360Y-47920038D02*
X28589598Y-47872419D01*
X28589598Y-47872419D02*
X28827693Y-47872419D01*
X28827693Y-47872419D02*
X28922931Y-47920038D01*
X28922931Y-47920038D02*
X28970550Y-47967657D01*
X28970550Y-47967657D02*
X29018169Y-48062895D01*
X29018169Y-48062895D02*
X29018169Y-48158133D01*
X29018169Y-48158133D02*
X28970550Y-48300990D01*
X28970550Y-48300990D02*
X28399122Y-48872419D01*
X28399122Y-48872419D02*
X29018169Y-48872419D01*
X29303884Y-47872419D02*
X29637217Y-48872419D01*
X29637217Y-48872419D02*
X29970550Y-47872419D01*
X16303884Y-48491466D02*
X17065789Y-48491466D01*
X16684836Y-48872419D02*
X16684836Y-48110514D01*
X18065788Y-48872419D02*
X17494360Y-48872419D01*
X17780074Y-48872419D02*
X17780074Y-47872419D01*
X17780074Y-47872419D02*
X17684836Y-48015276D01*
X17684836Y-48015276D02*
X17589598Y-48110514D01*
X17589598Y-48110514D02*
X17494360Y-48158133D01*
X18446741Y-47967657D02*
X18494360Y-47920038D01*
X18494360Y-47920038D02*
X18589598Y-47872419D01*
X18589598Y-47872419D02*
X18827693Y-47872419D01*
X18827693Y-47872419D02*
X18922931Y-47920038D01*
X18922931Y-47920038D02*
X18970550Y-47967657D01*
X18970550Y-47967657D02*
X19018169Y-48062895D01*
X19018169Y-48062895D02*
X19018169Y-48158133D01*
X19018169Y-48158133D02*
X18970550Y-48300990D01*
X18970550Y-48300990D02*
X18399122Y-48872419D01*
X18399122Y-48872419D02*
X19018169Y-48872419D01*
X19303884Y-47872419D02*
X19637217Y-48872419D01*
X19637217Y-48872419D02*
X19970550Y-47872419D01*
X5303884Y-48491466D02*
X6065789Y-48491466D01*
X5684836Y-48872419D02*
X5684836Y-48110514D01*
X7065788Y-48872419D02*
X6494360Y-48872419D01*
X6780074Y-48872419D02*
X6780074Y-47872419D01*
X6780074Y-47872419D02*
X6684836Y-48015276D01*
X6684836Y-48015276D02*
X6589598Y-48110514D01*
X6589598Y-48110514D02*
X6494360Y-48158133D01*
X7446741Y-47967657D02*
X7494360Y-47920038D01*
X7494360Y-47920038D02*
X7589598Y-47872419D01*
X7589598Y-47872419D02*
X7827693Y-47872419D01*
X7827693Y-47872419D02*
X7922931Y-47920038D01*
X7922931Y-47920038D02*
X7970550Y-47967657D01*
X7970550Y-47967657D02*
X8018169Y-48062895D01*
X8018169Y-48062895D02*
X8018169Y-48158133D01*
X8018169Y-48158133D02*
X7970550Y-48300990D01*
X7970550Y-48300990D02*
X7399122Y-48872419D01*
X7399122Y-48872419D02*
X8018169Y-48872419D01*
X8303884Y-47872419D02*
X8637217Y-48872419D01*
X8637217Y-48872419D02*
X8970550Y-47872419D01*
X5000000Y-10000000D02*
X5000000Y-5680000D01*
X33000000Y-10000000D02*
X33000000Y-5680000D01*
X47000000Y-10000000D02*
X47000000Y-5680000D01*
X61000000Y-10000000D02*
X61000000Y-5680000D01*
X68000000Y-10000000D02*
X68000000Y-5680000D01*
X75000000Y-10000000D02*
X75000000Y-5680000D01*
X66780074Y-9872419D02*
X66303884Y-9872419D01*
X66303884Y-9872419D02*
X66256265Y-10348609D01*
X66256265Y-10348609D02*
X66303884Y-10300990D01*
X66303884Y-10300990D02*
X66399122Y-10253371D01*
X66399122Y-10253371D02*
X66637217Y-10253371D01*
X66637217Y-10253371D02*
X66732455Y-10300990D01*
X66732455Y-10300990D02*
X66780074Y-10348609D01*
X66780074Y-10348609D02*
X66827693Y-10443847D01*
X66827693Y-10443847D02*
X66827693Y-10681942D01*
X66827693Y-10681942D02*
X66780074Y-10777180D01*
X66780074Y-10777180D02*
X66732455Y-10824800D01*
X66732455Y-10824800D02*
X66637217Y-10872419D01*
X66637217Y-10872419D02*
X66399122Y-10872419D01*
X66399122Y-10872419D02*
X66303884Y-10824800D01*
X66303884Y-10824800D02*
X66256265Y-10777180D01*
X67113408Y-9872419D02*
X67446741Y-10872419D01*
X67446741Y-10872419D02*
X67780074Y-9872419D01*
X68065789Y-10824800D02*
X68208646Y-10872419D01*
X68208646Y-10872419D02*
X68446741Y-10872419D01*
X68446741Y-10872419D02*
X68541979Y-10824800D01*
X68541979Y-10824800D02*
X68589598Y-10777180D01*
X68589598Y-10777180D02*
X68637217Y-10681942D01*
X68637217Y-10681942D02*
X68637217Y-10586704D01*
X68637217Y-10586704D02*
X68589598Y-10491466D01*
X68589598Y-10491466D02*
X68541979Y-10443847D01*
X68541979Y-10443847D02*
X68446741Y-10396228D01*
X68446741Y-10396228D02*
X68256265Y-10348609D01*
X68256265Y-10348609D02*
X68161027Y-10300990D01*
X68161027Y-10300990D02*
X68113408Y-10253371D01*
X68113408Y-10253371D02*
X68065789Y-10158133D01*
X68065789Y-10158133D02*
X68065789Y-10062895D01*
X68065789Y-10062895D02*
X68113408Y-9967657D01*
X68113408Y-9967657D02*
X68161027Y-9920038D01*
X68161027Y-9920038D02*
X68256265Y-9872419D01*
X68256265Y-9872419D02*
X68494360Y-9872419D01*
X68494360Y-9872419D02*
X68637217Y-9920038D01*
X69399122Y-10348609D02*
X69541979Y-10396228D01*
X69541979Y-10396228D02*
X69589598Y-10443847D01*
X69589598Y-10443847D02*
X69637217Y-10539085D01*
X69637217Y-10539085D02*
X69637217Y-10681942D01*
X69637217Y-10681942D02*
X69589598Y-10777180D01*
X69589598Y-10777180D02*
X69541979Y-10824800D01*
X69541979Y-10824800D02*
X69446741Y-10872419D01*
X69446741Y-10872419D02*
X69065789Y-10872419D01*
X69065789Y-10872419D02*
X69065789Y-9872419D01*
X69065789Y-9872419D02*
X69399122Y-9872419D01*
X69399122Y-9872419D02*
X69494360Y-9920038D01*
X69494360Y-9920038D02*
X69541979Y-9967657D01*
X69541979Y-9967657D02*
X69589598Y-10062895D01*
X69589598Y-10062895D02*
X69589598Y-10158133D01*
X69589598Y-10158133D02*
X69541979Y-10253371D01*
X69541979Y-10253371D02*
X69494360Y-10300990D01*
X69494360Y-10300990D02*
X69399122Y-10348609D01*
X69399122Y-10348609D02*
X69065789Y-10348609D01*
X59303884Y-10491466D02*
X60065789Y-10491466D01*
X61065788Y-10872419D02*
X60494360Y-10872419D01*
X60780074Y-10872419D02*
X60780074Y-9872419D01*
X60780074Y-9872419D02*
X60684836Y-10015276D01*
X60684836Y-10015276D02*
X60589598Y-10110514D01*
X60589598Y-10110514D02*
X60494360Y-10158133D01*
X61446741Y-9967657D02*
X61494360Y-9920038D01*
X61494360Y-9920038D02*
X61589598Y-9872419D01*
X61589598Y-9872419D02*
X61827693Y-9872419D01*
X61827693Y-9872419D02*
X61922931Y-9920038D01*
X61922931Y-9920038D02*
X61970550Y-9967657D01*
X61970550Y-9967657D02*
X62018169Y-10062895D01*
X62018169Y-10062895D02*
X62018169Y-10158133D01*
X62018169Y-10158133D02*
X61970550Y-10300990D01*
X61970550Y-10300990D02*
X61399122Y-10872419D01*
X61399122Y-10872419D02*
X62018169Y-10872419D01*
X62303884Y-9872419D02*
X62637217Y-10872419D01*
X62637217Y-10872419D02*
X62970550Y-9872419D01*
X45303884Y-10491466D02*
X46065789Y-10491466D01*
X45684836Y-10872419D02*
X45684836Y-10110514D01*
X46446741Y-9872419D02*
X47065788Y-9872419D01*
X47065788Y-9872419D02*
X46732455Y-10253371D01*
X46732455Y-10253371D02*
X46875312Y-10253371D01*
X46875312Y-10253371D02*
X46970550Y-10300990D01*
X46970550Y-10300990D02*
X47018169Y-10348609D01*
X47018169Y-10348609D02*
X47065788Y-10443847D01*
X47065788Y-10443847D02*
X47065788Y-10681942D01*
X47065788Y-10681942D02*
X47018169Y-10777180D01*
X47018169Y-10777180D02*
X46970550Y-10824800D01*
X46970550Y-10824800D02*
X46875312Y-10872419D01*
X46875312Y-10872419D02*
X46589598Y-10872419D01*
X46589598Y-10872419D02*
X46494360Y-10824800D01*
X46494360Y-10824800D02*
X46446741Y-10777180D01*
X47494360Y-10777180D02*
X47541979Y-10824800D01*
X47541979Y-10824800D02*
X47494360Y-10872419D01*
X47494360Y-10872419D02*
X47446741Y-10824800D01*
X47446741Y-10824800D02*
X47494360Y-10777180D01*
X47494360Y-10777180D02*
X47494360Y-10872419D01*
X47875312Y-9872419D02*
X48494359Y-9872419D01*
X48494359Y-9872419D02*
X48161026Y-10253371D01*
X48161026Y-10253371D02*
X48303883Y-10253371D01*
X48303883Y-10253371D02*
X48399121Y-10300990D01*
X48399121Y-10300990D02*
X48446740Y-10348609D01*
X48446740Y-10348609D02*
X48494359Y-10443847D01*
X48494359Y-10443847D02*
X48494359Y-10681942D01*
X48494359Y-10681942D02*
X48446740Y-10777180D01*
X48446740Y-10777180D02*
X48399121Y-10824800D01*
X48399121Y-10824800D02*
X48303883Y-10872419D01*
X48303883Y-10872419D02*
X48018169Y-10872419D01*
X48018169Y-10872419D02*
X47922931Y-10824800D01*
X47922931Y-10824800D02*
X47875312Y-10777180D01*
X48780074Y-9872419D02*
X49113407Y-10872419D01*
X49113407Y-10872419D02*
X49446740Y-9872419D01*
X31303884Y-10491466D02*
X32065789Y-10491466D01*
X31684836Y-10872419D02*
X31684836Y-10110514D01*
X33018169Y-9872419D02*
X32541979Y-9872419D01*
X32541979Y-9872419D02*
X32494360Y-10348609D01*
X32494360Y-10348609D02*
X32541979Y-10300990D01*
X32541979Y-10300990D02*
X32637217Y-10253371D01*
X32637217Y-10253371D02*
X32875312Y-10253371D01*
X32875312Y-10253371D02*
X32970550Y-10300990D01*
X32970550Y-10300990D02*
X33018169Y-10348609D01*
X33018169Y-10348609D02*
X33065788Y-10443847D01*
X33065788Y-10443847D02*
X33065788Y-10681942D01*
X33065788Y-10681942D02*
X33018169Y-10777180D01*
X33018169Y-10777180D02*
X32970550Y-10824800D01*
X32970550Y-10824800D02*
X32875312Y-10872419D01*
X32875312Y-10872419D02*
X32637217Y-10872419D01*
X32637217Y-10872419D02*
X32541979Y-10824800D01*
X32541979Y-10824800D02*
X32494360Y-10777180D01*
X33351503Y-9872419D02*
X33684836Y-10872419D01*
X33684836Y-10872419D02*
X34018169Y-9872419D01*
X3303884Y-10491466D02*
X4065789Y-10491466D01*
X3684836Y-10872419D02*
X3684836Y-10110514D01*
X5065788Y-10872419D02*
X4494360Y-10872419D01*
X4780074Y-10872419D02*
X4780074Y-9872419D01*
X4780074Y-9872419D02*
X4684836Y-10015276D01*
X4684836Y-10015276D02*
X4589598Y-10110514D01*
X4589598Y-10110514D02*
X4494360Y-10158133D01*
X5446741Y-9967657D02*
X5494360Y-9920038D01*
X5494360Y-9920038D02*
X5589598Y-9872419D01*
X5589598Y-9872419D02*
X5827693Y-9872419D01*
X5827693Y-9872419D02*
X5922931Y-9920038D01*
X5922931Y-9920038D02*
X5970550Y-9967657D01*
X5970550Y-9967657D02*
X6018169Y-10062895D01*
X6018169Y-10062895D02*
X6018169Y-10158133D01*
X6018169Y-10158133D02*
X5970550Y-10300990D01*
X5970550Y-10300990D02*
X5399122Y-10872419D01*
X5399122Y-10872419D02*
X6018169Y-10872419D01*
X6303884Y-9872419D02*
X6637217Y-10872419D01*
X6637217Y-10872419D02*
X6970550Y-9872419D01*
X72303884Y-10872419D02*
X72303884Y-9872419D01*
X72303884Y-9872419D02*
X72684836Y-9872419D01*
X72684836Y-9872419D02*
X72780074Y-9920038D01*
X72780074Y-9920038D02*
X72827693Y-9967657D01*
X72827693Y-9967657D02*
X72875312Y-10062895D01*
X72875312Y-10062895D02*
X72875312Y-10205752D01*
X72875312Y-10205752D02*
X72827693Y-10300990D01*
X72827693Y-10300990D02*
X72780074Y-10348609D01*
X72780074Y-10348609D02*
X72684836Y-10396228D01*
X72684836Y-10396228D02*
X72303884Y-10396228D01*
X73208646Y-9872419D02*
X73446741Y-10872419D01*
X73446741Y-10872419D02*
X73637217Y-10158133D01*
X73637217Y-10158133D02*
X73827693Y-10872419D01*
X73827693Y-10872419D02*
X74065789Y-9872419D01*
X75018169Y-10872419D02*
X74684836Y-10396228D01*
X74446741Y-10872419D02*
X74446741Y-9872419D01*
X74446741Y-9872419D02*
X74827693Y-9872419D01*
X74827693Y-9872419D02*
X74922931Y-9920038D01*
X74922931Y-9920038D02*
X74970550Y-9967657D01*
X74970550Y-9967657D02*
X75018169Y-10062895D01*
X75018169Y-10062895D02*
X75018169Y-10205752D01*
X75018169Y-10205752D02*
X74970550Y-10300990D01*
X74970550Y-10300990D02*
X74922931Y-10348609D01*
X74922931Y-10348609D02*
X74827693Y-10396228D01*
X74827693Y-10396228D02*
X74446741Y-10396228D01*
X75208646Y-10967657D02*
X75970550Y-10967657D01*
X76399122Y-9872419D02*
X76589598Y-9872419D01*
X76589598Y-9872419D02*
X76684836Y-9920038D01*
X76684836Y-9920038D02*
X76780074Y-10015276D01*
X76780074Y-10015276D02*
X76827693Y-10205752D01*
X76827693Y-10205752D02*
X76827693Y-10539085D01*
X76827693Y-10539085D02*
X76780074Y-10729561D01*
X76780074Y-10729561D02*
X76684836Y-10824800D01*
X76684836Y-10824800D02*
X76589598Y-10872419D01*
X76589598Y-10872419D02*
X76399122Y-10872419D01*
X76399122Y-10872419D02*
X76303884Y-10824800D01*
X76303884Y-10824800D02*
X76208646Y-10729561D01*
X76208646Y-10729561D02*
X76161027Y-10539085D01*
X76161027Y-10539085D02*
X76161027Y-10205752D01*
X76161027Y-10205752D02*
X76208646Y-10015276D01*
X76208646Y-10015276D02*
X76303884Y-9920038D01*
X76303884Y-9920038D02*
X76399122Y-9872419D01*
X77256265Y-10872419D02*
X77256265Y-9872419D01*
X77827693Y-10872419D02*
X77399122Y-10300990D01*
X77827693Y-9872419D02*
X77256265Y-10443847D01*
X40000000Y-10000000D02*
X40000000Y-5680000D01*
X38303884Y-10491466D02*
X39065789Y-10491466D01*
X38684836Y-10872419D02*
X38684836Y-10110514D01*
X40018169Y-9872419D02*
X39541979Y-9872419D01*
X39541979Y-9872419D02*
X39494360Y-10348609D01*
X39494360Y-10348609D02*
X39541979Y-10300990D01*
X39541979Y-10300990D02*
X39637217Y-10253371D01*
X39637217Y-10253371D02*
X39875312Y-10253371D01*
X39875312Y-10253371D02*
X39970550Y-10300990D01*
X39970550Y-10300990D02*
X40018169Y-10348609D01*
X40018169Y-10348609D02*
X40065788Y-10443847D01*
X40065788Y-10443847D02*
X40065788Y-10681942D01*
X40065788Y-10681942D02*
X40018169Y-10777180D01*
X40018169Y-10777180D02*
X39970550Y-10824800D01*
X39970550Y-10824800D02*
X39875312Y-10872419D01*
X39875312Y-10872419D02*
X39637217Y-10872419D01*
X39637217Y-10872419D02*
X39541979Y-10824800D01*
X39541979Y-10824800D02*
X39494360Y-10777180D01*
X40351503Y-9872419D02*
X40684836Y-10872419D01*
X40684836Y-10872419D02*
X41018169Y-9872419D01*
D11*
%TO.C,J4*%
X74790000Y-36490000D02*
X74790000Y-38300000D01*
X74790000Y-40110000D02*
X74790000Y-38300000D01*
X76190000Y-29190000D02*
X76190000Y-36490000D01*
X76190000Y-36490000D02*
X74790000Y-36490000D01*
X76190000Y-40110000D02*
X74790000Y-40110000D01*
X76190000Y-47410000D02*
X76190000Y-40110000D01*
X86010000Y-29190000D02*
X76190000Y-29190000D01*
X86010000Y-38300000D02*
X86010000Y-29190000D01*
X86010000Y-38300000D02*
X86010000Y-47410000D01*
X86010000Y-47410000D02*
X76190000Y-47410000D01*
X86250000Y-28950000D02*
X83400000Y-28950000D01*
X86250000Y-31800000D02*
X86250000Y-28950000D01*
%TO.C,D1*%
X24710000Y-15455000D02*
X24710000Y-18545000D01*
X24710000Y-15455170D02*
G75*
G02*
X30260000Y-17000462I2560000J-1544830D01*
G01*
X30260000Y-16999538D02*
G75*
G02*
X24710000Y-18544830I-2990000J-462D01*
G01*
X29770000Y-17000000D02*
G75*
G02*
X24770000Y-17000000I-2500000J0D01*
G01*
X24770000Y-17000000D02*
G75*
G02*
X29770000Y-17000000I2500000J0D01*
G01*
%TO.C,J2*%
X26790000Y-36490000D02*
X26790000Y-38300000D01*
X26790000Y-40110000D02*
X26790000Y-38300000D01*
X28190000Y-29190000D02*
X28190000Y-36490000D01*
X28190000Y-36490000D02*
X26790000Y-36490000D01*
X28190000Y-40110000D02*
X26790000Y-40110000D01*
X28190000Y-47410000D02*
X28190000Y-40110000D01*
X38010000Y-29190000D02*
X28190000Y-29190000D01*
X38010000Y-38300000D02*
X38010000Y-29190000D01*
X38010000Y-38300000D02*
X38010000Y-47410000D01*
X38010000Y-47410000D02*
X28190000Y-47410000D01*
X38250000Y-28950000D02*
X35400000Y-28950000D01*
X38250000Y-31800000D02*
X38250000Y-28950000D01*
%TO.C,J1*%
X2790000Y-36490000D02*
X2790000Y-38300000D01*
X2790000Y-40110000D02*
X2790000Y-38300000D01*
X4190000Y-29190000D02*
X4190000Y-36490000D01*
X4190000Y-36490000D02*
X2790000Y-36490000D01*
X4190000Y-40110000D02*
X2790000Y-40110000D01*
X4190000Y-47410000D02*
X4190000Y-40110000D01*
X14010000Y-29190000D02*
X4190000Y-29190000D01*
X14010000Y-38300000D02*
X14010000Y-29190000D01*
X14010000Y-38300000D02*
X14010000Y-47410000D01*
X14010000Y-47410000D02*
X4190000Y-47410000D01*
X14250000Y-28950000D02*
X11400000Y-28950000D01*
X14250000Y-31800000D02*
X14250000Y-28950000D01*
%TO.C,R1*%
X24540000Y-20630000D02*
X31080000Y-20630000D01*
X24540000Y-20960000D02*
X24540000Y-20630000D01*
X24540000Y-23040000D02*
X24540000Y-23370000D01*
X24540000Y-23370000D02*
X31080000Y-23370000D01*
X31080000Y-20630000D02*
X31080000Y-20960000D01*
X31080000Y-23370000D02*
X31080000Y-23040000D01*
%TO.C,J3*%
X50790000Y-36490000D02*
X50790000Y-38300000D01*
X50790000Y-40110000D02*
X50790000Y-38300000D01*
X52190000Y-29190000D02*
X52190000Y-36490000D01*
X52190000Y-36490000D02*
X50790000Y-36490000D01*
X52190000Y-40110000D02*
X50790000Y-40110000D01*
X52190000Y-47410000D02*
X52190000Y-40110000D01*
X62010000Y-29190000D02*
X52190000Y-29190000D01*
X62010000Y-38300000D02*
X62010000Y-29190000D01*
X62010000Y-38300000D02*
X62010000Y-47410000D01*
X62010000Y-47410000D02*
X52190000Y-47410000D01*
X62250000Y-28950000D02*
X59400000Y-28950000D01*
X62250000Y-31800000D02*
X62250000Y-28950000D01*
%TO.C,R2*%
X14540000Y-20630000D02*
X21080000Y-20630000D01*
X14540000Y-20960000D02*
X14540000Y-20630000D01*
X14540000Y-23040000D02*
X14540000Y-23370000D01*
X14540000Y-23370000D02*
X21080000Y-23370000D01*
X21080000Y-20630000D02*
X21080000Y-20960000D01*
X21080000Y-23370000D02*
X21080000Y-23040000D01*
%TO.C,J6*%
X2950000Y-8160000D02*
X2950000Y-8800000D01*
X2950000Y-8800000D02*
X3350000Y-8800000D01*
X3190000Y-840000D02*
X3190000Y-8560000D01*
X3190000Y-840000D02*
X31310000Y-840000D01*
X3190000Y-7000000D02*
X31310000Y-7000000D01*
X3190000Y-8100000D02*
X31310000Y-8100000D01*
X3190000Y-8560000D02*
X31310000Y-8560000D01*
X7355000Y-4941000D02*
X7226000Y-5069000D01*
X7525000Y-5181000D02*
X7431000Y-5274000D01*
X9570000Y-2725000D02*
X9476000Y-2819000D01*
X9775000Y-2931000D02*
X9646000Y-3059000D01*
X10855000Y-4941000D02*
X10726000Y-5069000D01*
X11025000Y-5181000D02*
X10931000Y-5274000D01*
X13070000Y-2725000D02*
X12976000Y-2819000D01*
X13275000Y-2931000D02*
X13146000Y-3059000D01*
X14355000Y-4941000D02*
X14226000Y-5069000D01*
X14525000Y-5181000D02*
X14431000Y-5274000D01*
X16570000Y-2725000D02*
X16476000Y-2819000D01*
X16775000Y-2931000D02*
X16646000Y-3059000D01*
X17855000Y-4941000D02*
X17726000Y-5069000D01*
X18025000Y-5181000D02*
X17931000Y-5274000D01*
X20070000Y-2725000D02*
X19976000Y-2819000D01*
X20275000Y-2931000D02*
X20146000Y-3059000D01*
X21355000Y-4941000D02*
X21226000Y-5069000D01*
X21525000Y-5181000D02*
X21431000Y-5274000D01*
X23570000Y-2725000D02*
X23476000Y-2819000D01*
X23775000Y-2931000D02*
X23646000Y-3059000D01*
X24855000Y-4941000D02*
X24726000Y-5069000D01*
X25025000Y-5181000D02*
X24931000Y-5274000D01*
X27070000Y-2725000D02*
X26976000Y-2819000D01*
X27275000Y-2931000D02*
X27146000Y-3059000D01*
X28355000Y-4941000D02*
X28226000Y-5069000D01*
X28525000Y-5181000D02*
X28431000Y-5274000D01*
X30570000Y-2725000D02*
X30476000Y-2819000D01*
X30775000Y-2931000D02*
X30646000Y-3059000D01*
X31310000Y-840000D02*
X31310000Y-8560000D01*
X3574642Y-4889894D02*
G75*
G02*
X3560000Y-3134000I1425356J889894D01*
G01*
X4110106Y-2574642D02*
G75*
G02*
X5866000Y-2560000I889894J-1425356D01*
G01*
X5028674Y-5680099D02*
G75*
G02*
X4134000Y-5440000I-28671J1680113D01*
G01*
X5890264Y-5424721D02*
G75*
G02*
X5000000Y-5680000I-890261J1424711D01*
G01*
X6425504Y-3109807D02*
G75*
G02*
X6425000Y-4891000I-1425507J-890193D01*
G01*
X10180000Y-4000000D02*
G75*
G02*
X6820000Y-4000000I-1680000J0D01*
G01*
X6820000Y-4000000D02*
G75*
G02*
X10180000Y-4000000I1680000J0D01*
G01*
X13680000Y-4000000D02*
G75*
G02*
X10320000Y-4000000I-1680000J0D01*
G01*
X10320000Y-4000000D02*
G75*
G02*
X13680000Y-4000000I1680000J0D01*
G01*
X17180000Y-4000000D02*
G75*
G02*
X13820000Y-4000000I-1680000J0D01*
G01*
X13820000Y-4000000D02*
G75*
G02*
X17180000Y-4000000I1680000J0D01*
G01*
X20680000Y-4000000D02*
G75*
G02*
X17320000Y-4000000I-1680000J0D01*
G01*
X17320000Y-4000000D02*
G75*
G02*
X20680000Y-4000000I1680000J0D01*
G01*
X24180000Y-4000000D02*
G75*
G02*
X20820000Y-4000000I-1680000J0D01*
G01*
X20820000Y-4000000D02*
G75*
G02*
X24180000Y-4000000I1680000J0D01*
G01*
X27680000Y-4000000D02*
G75*
G02*
X24320000Y-4000000I-1680000J0D01*
G01*
X24320000Y-4000000D02*
G75*
G02*
X27680000Y-4000000I1680000J0D01*
G01*
X31180000Y-4000000D02*
G75*
G02*
X27820000Y-4000000I-1680000J0D01*
G01*
X27820000Y-4000000D02*
G75*
G02*
X31180000Y-4000000I1680000J0D01*
G01*
%TO.C,J8*%
X58950000Y-8160000D02*
X58950000Y-8800000D01*
X58950000Y-8800000D02*
X59350000Y-8800000D01*
X59190000Y-840000D02*
X59190000Y-8560000D01*
X59190000Y-840000D02*
X87310000Y-840000D01*
X59190000Y-7000000D02*
X87310000Y-7000000D01*
X59190000Y-8100000D02*
X87310000Y-8100000D01*
X59190000Y-8560000D02*
X87310000Y-8560000D01*
X63355000Y-4941000D02*
X63226000Y-5069000D01*
X63525000Y-5181000D02*
X63431000Y-5274000D01*
X65570000Y-2725000D02*
X65476000Y-2819000D01*
X65775000Y-2931000D02*
X65646000Y-3059000D01*
X66855000Y-4941000D02*
X66726000Y-5069000D01*
X67025000Y-5181000D02*
X66931000Y-5274000D01*
X69070000Y-2725000D02*
X68976000Y-2819000D01*
X69275000Y-2931000D02*
X69146000Y-3059000D01*
X70355000Y-4941000D02*
X70226000Y-5069000D01*
X70525000Y-5181000D02*
X70431000Y-5274000D01*
X72570000Y-2725000D02*
X72476000Y-2819000D01*
X72775000Y-2931000D02*
X72646000Y-3059000D01*
X73855000Y-4941000D02*
X73726000Y-5069000D01*
X74025000Y-5181000D02*
X73931000Y-5274000D01*
X76070000Y-2725000D02*
X75976000Y-2819000D01*
X76275000Y-2931000D02*
X76146000Y-3059000D01*
X77355000Y-4941000D02*
X77226000Y-5069000D01*
X77525000Y-5181000D02*
X77431000Y-5274000D01*
X79570000Y-2725000D02*
X79476000Y-2819000D01*
X79775000Y-2931000D02*
X79646000Y-3059000D01*
X80855000Y-4941000D02*
X80726000Y-5069000D01*
X81025000Y-5181000D02*
X80931000Y-5274000D01*
X83070000Y-2725000D02*
X82976000Y-2819000D01*
X83275000Y-2931000D02*
X83146000Y-3059000D01*
X84355000Y-4941000D02*
X84226000Y-5069000D01*
X84525000Y-5181000D02*
X84431000Y-5274000D01*
X86570000Y-2725000D02*
X86476000Y-2819000D01*
X86775000Y-2931000D02*
X86646000Y-3059000D01*
X87310000Y-840000D02*
X87310000Y-8560000D01*
X59574642Y-4889894D02*
G75*
G02*
X59560000Y-3134000I1425356J889894D01*
G01*
X60110106Y-2574642D02*
G75*
G02*
X61866000Y-2560000I889894J-1425356D01*
G01*
X61028674Y-5680099D02*
G75*
G02*
X60134000Y-5440000I-28671J1680113D01*
G01*
X61890264Y-5424721D02*
G75*
G02*
X61000000Y-5680000I-890261J1424711D01*
G01*
X62425504Y-3109807D02*
G75*
G02*
X62425000Y-4891000I-1425507J-890193D01*
G01*
X66180000Y-4000000D02*
G75*
G02*
X62820000Y-4000000I-1680000J0D01*
G01*
X62820000Y-4000000D02*
G75*
G02*
X66180000Y-4000000I1680000J0D01*
G01*
X69680000Y-4000000D02*
G75*
G02*
X66320000Y-4000000I-1680000J0D01*
G01*
X66320000Y-4000000D02*
G75*
G02*
X69680000Y-4000000I1680000J0D01*
G01*
X73180000Y-4000000D02*
G75*
G02*
X69820000Y-4000000I-1680000J0D01*
G01*
X69820000Y-4000000D02*
G75*
G02*
X73180000Y-4000000I1680000J0D01*
G01*
X76680000Y-4000000D02*
G75*
G02*
X73320000Y-4000000I-1680000J0D01*
G01*
X73320000Y-4000000D02*
G75*
G02*
X76680000Y-4000000I1680000J0D01*
G01*
X80180000Y-4000000D02*
G75*
G02*
X76820000Y-4000000I-1680000J0D01*
G01*
X76820000Y-4000000D02*
G75*
G02*
X80180000Y-4000000I1680000J0D01*
G01*
X83680000Y-4000000D02*
G75*
G02*
X80320000Y-4000000I-1680000J0D01*
G01*
X80320000Y-4000000D02*
G75*
G02*
X83680000Y-4000000I1680000J0D01*
G01*
X87180000Y-4000000D02*
G75*
G02*
X83820000Y-4000000I-1680000J0D01*
G01*
X83820000Y-4000000D02*
G75*
G02*
X87180000Y-4000000I1680000J0D01*
G01*
%TO.C,J7*%
X30950000Y-8160000D02*
X30950000Y-8800000D01*
X30950000Y-8800000D02*
X31350000Y-8800000D01*
X31190000Y-840000D02*
X31190000Y-8560000D01*
X31190000Y-840000D02*
X59310000Y-840000D01*
X31190000Y-7000000D02*
X59310000Y-7000000D01*
X31190000Y-8100000D02*
X59310000Y-8100000D01*
X31190000Y-8560000D02*
X59310000Y-8560000D01*
X35355000Y-4941000D02*
X35226000Y-5069000D01*
X35525000Y-5181000D02*
X35431000Y-5274000D01*
X37570000Y-2725000D02*
X37476000Y-2819000D01*
X37775000Y-2931000D02*
X37646000Y-3059000D01*
X38855000Y-4941000D02*
X38726000Y-5069000D01*
X39025000Y-5181000D02*
X38931000Y-5274000D01*
X41070000Y-2725000D02*
X40976000Y-2819000D01*
X41275000Y-2931000D02*
X41146000Y-3059000D01*
X42355000Y-4941000D02*
X42226000Y-5069000D01*
X42525000Y-5181000D02*
X42431000Y-5274000D01*
X44570000Y-2725000D02*
X44476000Y-2819000D01*
X44775000Y-2931000D02*
X44646000Y-3059000D01*
X45855000Y-4941000D02*
X45726000Y-5069000D01*
X46025000Y-5181000D02*
X45931000Y-5274000D01*
X48070000Y-2725000D02*
X47976000Y-2819000D01*
X48275000Y-2931000D02*
X48146000Y-3059000D01*
X49355000Y-4941000D02*
X49226000Y-5069000D01*
X49525000Y-5181000D02*
X49431000Y-5274000D01*
X51570000Y-2725000D02*
X51476000Y-2819000D01*
X51775000Y-2931000D02*
X51646000Y-3059000D01*
X52855000Y-4941000D02*
X52726000Y-5069000D01*
X53025000Y-5181000D02*
X52931000Y-5274000D01*
X55070000Y-2725000D02*
X54976000Y-2819000D01*
X55275000Y-2931000D02*
X55146000Y-3059000D01*
X56355000Y-4941000D02*
X56226000Y-5069000D01*
X56525000Y-5181000D02*
X56431000Y-5274000D01*
X58570000Y-2725000D02*
X58476000Y-2819000D01*
X58775000Y-2931000D02*
X58646000Y-3059000D01*
X59310000Y-840000D02*
X59310000Y-8560000D01*
X31574642Y-4889894D02*
G75*
G02*
X31560000Y-3134000I1425356J889894D01*
G01*
X32110106Y-2574642D02*
G75*
G02*
X33866000Y-2560000I889894J-1425356D01*
G01*
X33028674Y-5680099D02*
G75*
G02*
X32134000Y-5440000I-28671J1680113D01*
G01*
X33890264Y-5424721D02*
G75*
G02*
X33000000Y-5680000I-890261J1424711D01*
G01*
X34425504Y-3109807D02*
G75*
G02*
X34425000Y-4891000I-1425507J-890193D01*
G01*
X38180000Y-4000000D02*
G75*
G02*
X34820000Y-4000000I-1680000J0D01*
G01*
X34820000Y-4000000D02*
G75*
G02*
X38180000Y-4000000I1680000J0D01*
G01*
X41680000Y-4000000D02*
G75*
G02*
X38320000Y-4000000I-1680000J0D01*
G01*
X38320000Y-4000000D02*
G75*
G02*
X41680000Y-4000000I1680000J0D01*
G01*
X45180000Y-4000000D02*
G75*
G02*
X41820000Y-4000000I-1680000J0D01*
G01*
X41820000Y-4000000D02*
G75*
G02*
X45180000Y-4000000I1680000J0D01*
G01*
X48680000Y-4000000D02*
G75*
G02*
X45320000Y-4000000I-1680000J0D01*
G01*
X45320000Y-4000000D02*
G75*
G02*
X48680000Y-4000000I1680000J0D01*
G01*
X52180000Y-4000000D02*
G75*
G02*
X48820000Y-4000000I-1680000J0D01*
G01*
X48820000Y-4000000D02*
G75*
G02*
X52180000Y-4000000I1680000J0D01*
G01*
X55680000Y-4000000D02*
G75*
G02*
X52320000Y-4000000I-1680000J0D01*
G01*
X52320000Y-4000000D02*
G75*
G02*
X55680000Y-4000000I1680000J0D01*
G01*
X59180000Y-4000000D02*
G75*
G02*
X55820000Y-4000000I-1680000J0D01*
G01*
X55820000Y-4000000D02*
G75*
G02*
X59180000Y-4000000I1680000J0D01*
G01*
%TO.C,U1*%
X3000000Y-22000000D02*
X10979999Y-22000000D01*
X3010001Y-14000000D02*
X3000000Y-22000000D01*
X10979999Y-22000000D02*
X10990000Y-14000000D01*
X10990000Y-14000000D02*
X3010001Y-14000000D01*
%TO.C,J9*%
X5200000Y-58660000D02*
X5200000Y-59300000D01*
X5200000Y-59300000D02*
X5600000Y-59300000D01*
X5440000Y-49940000D02*
X5440000Y-59060000D01*
X5440000Y-49940000D02*
X45560000Y-49940000D01*
X5440000Y-57500000D02*
X45560000Y-57500000D01*
X5440000Y-58600000D02*
X45560000Y-58600000D01*
X5440000Y-59060000D02*
X45560000Y-59060000D01*
X6452000Y-55281000D02*
X6346000Y-55388000D01*
X6718000Y-55547000D02*
X6612000Y-55654000D01*
X9388000Y-52346000D02*
X9281000Y-52453000D01*
X9654000Y-52612000D02*
X9547000Y-52719000D01*
X11742000Y-54992000D02*
X11347000Y-55388000D01*
X11993000Y-55274000D02*
X11613000Y-55654000D01*
X14388000Y-52346000D02*
X14008000Y-52726000D01*
X14654000Y-52612000D02*
X14259000Y-53008000D01*
X16742000Y-54992000D02*
X16347000Y-55388000D01*
X16993000Y-55274000D02*
X16613000Y-55654000D01*
X19388000Y-52346000D02*
X19008000Y-52726000D01*
X19654000Y-52612000D02*
X19259000Y-53008000D01*
X21742000Y-54992000D02*
X21347000Y-55388000D01*
X21993000Y-55274000D02*
X21613000Y-55654000D01*
X24388000Y-52346000D02*
X24008000Y-52726000D01*
X24654000Y-52612000D02*
X24259000Y-53008000D01*
X26742000Y-54992000D02*
X26347000Y-55388000D01*
X26993000Y-55274000D02*
X26613000Y-55654000D01*
X29388000Y-52346000D02*
X29008000Y-52726000D01*
X29654000Y-52612000D02*
X29259000Y-53008000D01*
X31742000Y-54992000D02*
X31347000Y-55388000D01*
X31993000Y-55274000D02*
X31613000Y-55654000D01*
X34388000Y-52346000D02*
X34008000Y-52726000D01*
X34654000Y-52612000D02*
X34259000Y-53008000D01*
X36742000Y-54992000D02*
X36347000Y-55388000D01*
X36993000Y-55274000D02*
X36613000Y-55654000D01*
X39388000Y-52346000D02*
X39008000Y-52726000D01*
X39654000Y-52612000D02*
X39259000Y-53008000D01*
X41742000Y-54992000D02*
X41347000Y-55388000D01*
X41993000Y-55274000D02*
X41613000Y-55654000D01*
X44388000Y-52346000D02*
X44008000Y-52726000D01*
X44654000Y-52612000D02*
X44259000Y-53008000D01*
X45560000Y-49940000D02*
X45560000Y-59060000D01*
X10180000Y-54000000D02*
G75*
G02*
X5820000Y-54000000I-2180000J0D01*
G01*
X5820000Y-54000000D02*
G75*
G02*
X10180000Y-54000000I2180000J0D01*
G01*
X15180000Y-54000000D02*
G75*
G02*
X10820000Y-54000000I-2180000J0D01*
G01*
X10820000Y-54000000D02*
G75*
G02*
X15180000Y-54000000I2180000J0D01*
G01*
X20180000Y-54000000D02*
G75*
G02*
X15820000Y-54000000I-2180000J0D01*
G01*
X15820000Y-54000000D02*
G75*
G02*
X20180000Y-54000000I2180000J0D01*
G01*
X25180000Y-54000000D02*
G75*
G02*
X20820000Y-54000000I-2180000J0D01*
G01*
X20820000Y-54000000D02*
G75*
G02*
X25180000Y-54000000I2180000J0D01*
G01*
X30180000Y-54000000D02*
G75*
G02*
X25820000Y-54000000I-2180000J0D01*
G01*
X25820000Y-54000000D02*
G75*
G02*
X30180000Y-54000000I2180000J0D01*
G01*
X35180000Y-54000000D02*
G75*
G02*
X30820000Y-54000000I-2180000J0D01*
G01*
X30820000Y-54000000D02*
G75*
G02*
X35180000Y-54000000I2180000J0D01*
G01*
X40180000Y-54000000D02*
G75*
G02*
X35820000Y-54000000I-2180000J0D01*
G01*
X35820000Y-54000000D02*
G75*
G02*
X40180000Y-54000000I2180000J0D01*
G01*
X45180000Y-54000000D02*
G75*
G02*
X40820000Y-54000000I-2180000J0D01*
G01*
X40820000Y-54000000D02*
G75*
G02*
X45180000Y-54000000I2180000J0D01*
G01*
%TO.C,J5*%
X35990000Y-14190000D02*
X60090000Y-14190000D01*
X35990000Y-24010000D02*
X35990000Y-14190000D01*
X60090000Y-12790000D02*
X61900000Y-12790000D01*
X60090000Y-14190000D02*
X60090000Y-12790000D01*
X61900000Y-24010000D02*
X35990000Y-24010000D01*
X61900000Y-24010000D02*
X87810000Y-24010000D01*
X63710000Y-12790000D02*
X61900000Y-12790000D01*
X63710000Y-14190000D02*
X63710000Y-12790000D01*
X85200000Y-24250000D02*
X88050000Y-24250000D01*
X87810000Y-14190000D02*
X63710000Y-14190000D01*
X87810000Y-24010000D02*
X87810000Y-14190000D01*
X88050000Y-24250000D02*
X88050000Y-21400000D01*
%TO.C,J10*%
X45200000Y-58660000D02*
X45200000Y-59300000D01*
X45200000Y-59300000D02*
X45600000Y-59300000D01*
X45440000Y-49940000D02*
X45440000Y-59060000D01*
X45440000Y-49940000D02*
X85560000Y-49940000D01*
X45440000Y-57500000D02*
X85560000Y-57500000D01*
X45440000Y-58600000D02*
X85560000Y-58600000D01*
X45440000Y-59060000D02*
X85560000Y-59060000D01*
X46452000Y-55281000D02*
X46346000Y-55388000D01*
X46718000Y-55547000D02*
X46612000Y-55654000D01*
X49388000Y-52346000D02*
X49281000Y-52453000D01*
X49654000Y-52612000D02*
X49547000Y-52719000D01*
X51742000Y-54992000D02*
X51347000Y-55388000D01*
X51993000Y-55274000D02*
X51613000Y-55654000D01*
X54388000Y-52346000D02*
X54008000Y-52726000D01*
X54654000Y-52612000D02*
X54259000Y-53008000D01*
X56742000Y-54992000D02*
X56347000Y-55388000D01*
X56993000Y-55274000D02*
X56613000Y-55654000D01*
X59388000Y-52346000D02*
X59008000Y-52726000D01*
X59654000Y-52612000D02*
X59259000Y-53008000D01*
X61742000Y-54992000D02*
X61347000Y-55388000D01*
X61993000Y-55274000D02*
X61613000Y-55654000D01*
X64388000Y-52346000D02*
X64008000Y-52726000D01*
X64654000Y-52612000D02*
X64259000Y-53008000D01*
X66742000Y-54992000D02*
X66347000Y-55388000D01*
X66993000Y-55274000D02*
X66613000Y-55654000D01*
X69388000Y-52346000D02*
X69008000Y-52726000D01*
X69654000Y-52612000D02*
X69259000Y-53008000D01*
X71742000Y-54992000D02*
X71347000Y-55388000D01*
X71993000Y-55274000D02*
X71613000Y-55654000D01*
X74388000Y-52346000D02*
X74008000Y-52726000D01*
X74654000Y-52612000D02*
X74259000Y-53008000D01*
X76742000Y-54992000D02*
X76347000Y-55388000D01*
X76993000Y-55274000D02*
X76613000Y-55654000D01*
X79388000Y-52346000D02*
X79008000Y-52726000D01*
X79654000Y-52612000D02*
X79259000Y-53008000D01*
X81742000Y-54992000D02*
X81347000Y-55388000D01*
X81993000Y-55274000D02*
X81613000Y-55654000D01*
X84388000Y-52346000D02*
X84008000Y-52726000D01*
X84654000Y-52612000D02*
X84259000Y-53008000D01*
X85560000Y-49940000D02*
X85560000Y-59060000D01*
X50180000Y-54000000D02*
G75*
G02*
X45820000Y-54000000I-2180000J0D01*
G01*
X45820000Y-54000000D02*
G75*
G02*
X50180000Y-54000000I2180000J0D01*
G01*
X55180000Y-54000000D02*
G75*
G02*
X50820000Y-54000000I-2180000J0D01*
G01*
X50820000Y-54000000D02*
G75*
G02*
X55180000Y-54000000I2180000J0D01*
G01*
X60180000Y-54000000D02*
G75*
G02*
X55820000Y-54000000I-2180000J0D01*
G01*
X55820000Y-54000000D02*
G75*
G02*
X60180000Y-54000000I2180000J0D01*
G01*
X65180000Y-54000000D02*
G75*
G02*
X60820000Y-54000000I-2180000J0D01*
G01*
X60820000Y-54000000D02*
G75*
G02*
X65180000Y-54000000I2180000J0D01*
G01*
X70180000Y-54000000D02*
G75*
G02*
X65820000Y-54000000I-2180000J0D01*
G01*
X65820000Y-54000000D02*
G75*
G02*
X70180000Y-54000000I2180000J0D01*
G01*
X75180000Y-54000000D02*
G75*
G02*
X70820000Y-54000000I-2180000J0D01*
G01*
X70820000Y-54000000D02*
G75*
G02*
X75180000Y-54000000I2180000J0D01*
G01*
X80180000Y-54000000D02*
G75*
G02*
X75820000Y-54000000I-2180000J0D01*
G01*
X75820000Y-54000000D02*
G75*
G02*
X80180000Y-54000000I2180000J0D01*
G01*
X85180000Y-54000000D02*
G75*
G02*
X80820000Y-54000000I-2180000J0D01*
G01*
X80820000Y-54000000D02*
G75*
G02*
X85180000Y-54000000I2180000J0D01*
G01*
%TO.C,D2*%
X14710000Y-15455000D02*
X14710000Y-18545000D01*
X14710000Y-15455170D02*
G75*
G02*
X20260000Y-17000462I2560000J-1544830D01*
G01*
X20260000Y-16999538D02*
G75*
G02*
X14710000Y-18544830I-2990000J-462D01*
G01*
X19770000Y-17000000D02*
G75*
G02*
X14770000Y-17000000I-2500000J0D01*
G01*
X14770000Y-17000000D02*
G75*
G02*
X19770000Y-17000000I2500000J0D01*
G01*
%TD*%
%LPC*%
D12*
%TO.C,J4*%
X83000000Y-32000000D03*
D13*
X83000000Y-36200000D03*
X83000000Y-40400000D03*
X83000000Y-44600000D03*
X78800000Y-32000000D03*
X78800000Y-36200000D03*
X78800000Y-40400000D03*
X78800000Y-44600000D03*
%TD*%
D14*
%TO.C,D1*%
X26000000Y-17000000D03*
D15*
X28540000Y-17000000D03*
%TD*%
D12*
%TO.C,J2*%
X35000000Y-32000000D03*
D13*
X35000000Y-36200000D03*
X35000000Y-40400000D03*
X35000000Y-44600000D03*
X30800000Y-32000000D03*
X30800000Y-36200000D03*
X30800000Y-40400000D03*
X30800000Y-44600000D03*
%TD*%
D12*
%TO.C,J1*%
X11000000Y-32000000D03*
D13*
X11000000Y-36200000D03*
X11000000Y-40400000D03*
X11000000Y-44600000D03*
X6800000Y-32000000D03*
X6800000Y-36200000D03*
X6800000Y-40400000D03*
X6800000Y-44600000D03*
%TD*%
D16*
%TO.C,R1*%
X24000000Y-22000000D03*
D17*
X31620000Y-22000000D03*
%TD*%
D12*
%TO.C,J3*%
X59000000Y-32000000D03*
D13*
X59000000Y-36200000D03*
X59000000Y-40400000D03*
X59000000Y-44600000D03*
X54800000Y-32000000D03*
X54800000Y-36200000D03*
X54800000Y-40400000D03*
X54800000Y-44600000D03*
%TD*%
D18*
%TO.C,H2*%
X20000000Y-30000000D03*
%TD*%
D16*
%TO.C,R2*%
X14000000Y-22000000D03*
D17*
X21620000Y-22000000D03*
%TD*%
D18*
%TO.C,H1*%
X45000000Y-30000000D03*
%TD*%
D19*
%TO.C,J6*%
X5000000Y-4000000D03*
D20*
X8500000Y-4000000D03*
X12000000Y-4000000D03*
X15500000Y-4000000D03*
X19000000Y-4000000D03*
X22500000Y-4000000D03*
X26000000Y-4000000D03*
X29500000Y-4000000D03*
%TD*%
D19*
%TO.C,J8*%
X61000000Y-4000000D03*
D20*
X64500000Y-4000000D03*
X68000000Y-4000000D03*
X71500000Y-4000000D03*
X75000000Y-4000000D03*
X78500000Y-4000000D03*
X82000000Y-4000000D03*
X85500000Y-4000000D03*
%TD*%
D19*
%TO.C,J7*%
X33000000Y-4000000D03*
D20*
X36500000Y-4000000D03*
X40000000Y-4000000D03*
X43500000Y-4000000D03*
X47000000Y-4000000D03*
X50500000Y-4000000D03*
X54000000Y-4000000D03*
X57500000Y-4000000D03*
%TD*%
D16*
%TO.C,U1*%
X9000000Y-15500000D03*
X7000000Y-15500000D03*
X5000000Y-15500000D03*
X9000000Y-20500000D03*
X7000000Y-20500000D03*
X5000000Y-20500000D03*
%TD*%
D18*
%TO.C,H3*%
X70000000Y-30000000D03*
%TD*%
D21*
%TO.C,J9*%
X8000000Y-54000000D03*
D22*
X13000000Y-54000000D03*
X18000000Y-54000000D03*
X23000000Y-54000000D03*
X28000000Y-54000000D03*
X33000000Y-54000000D03*
X38000000Y-54000000D03*
X43000000Y-54000000D03*
%TD*%
D23*
%TO.C,J5*%
X85000000Y-21000000D03*
D24*
X80800000Y-21000000D03*
X76600000Y-21000000D03*
X72400000Y-21000000D03*
X68200000Y-21000000D03*
X64000000Y-21000000D03*
X59800000Y-21000000D03*
X55600000Y-21000000D03*
X51400000Y-21000000D03*
X47200000Y-21000000D03*
X43000000Y-21000000D03*
X38800000Y-21000000D03*
X85000000Y-16800000D03*
X80800000Y-16800000D03*
X76600000Y-16800000D03*
X72400000Y-16800000D03*
X68200000Y-16800000D03*
X64000000Y-16800000D03*
X59800000Y-16800000D03*
X55600000Y-16800000D03*
X51400000Y-16800000D03*
X47200000Y-16800000D03*
X43000000Y-16800000D03*
X38800000Y-16800000D03*
%TD*%
D21*
%TO.C,J10*%
X48000000Y-54000000D03*
D22*
X53000000Y-54000000D03*
X58000000Y-54000000D03*
X63000000Y-54000000D03*
X68000000Y-54000000D03*
X73000000Y-54000000D03*
X78000000Y-54000000D03*
X83000000Y-54000000D03*
%TD*%
D14*
%TO.C,D2*%
X16000000Y-17000000D03*
D15*
X18540000Y-17000000D03*
%TD*%
%LPD*%
M02*
