%TF.GenerationSoftware,KiCad,Pcbnew,8.0.7*%
%TF.CreationDate,2024-12-25T10:13:59+09:00*%
%TF.ProjectId,atx_breakout,6174785f-6272-4656-916b-6f75742e6b69,rev?*%
%TF.SameCoordinates,Original*%
%TF.FileFunction,Copper,L2,Bot*%
%TF.FilePolarity,Positive*%
%FSLAX46Y46*%
G04 Gerber Fmt 4.6, Leading zero omitted, Abs format (unit mm)*
G04 Created by KiCad (PCBNEW 8.0.7) date 2024-12-25 10:13:59*
%MOMM*%
%LPD*%
G01*
G04 APERTURE LIST*
G04 Aperture macros list*
%AMRoundRect*
0 Rectangle with rounded corners*
0 $1 Rounding radius*
0 $2 $3 $4 $5 $6 $7 $8 $9 X,Y pos of 4 corners*
0 Add a 4 corners polygon primitive as box body*
4,1,4,$2,$3,$4,$5,$6,$7,$8,$9,$2,$3,0*
0 Add four circle primitives for the rounded corners*
1,1,$1+$1,$2,$3*
1,1,$1+$1,$4,$5*
1,1,$1+$1,$6,$7*
1,1,$1+$1,$8,$9*
0 Add four rect primitives between the rounded corners*
20,1,$1+$1,$2,$3,$4,$5,0*
20,1,$1+$1,$4,$5,$6,$7,0*
20,1,$1+$1,$6,$7,$8,$9,0*
20,1,$1+$1,$8,$9,$2,$3,0*%
G04 Aperture macros list end*
%TA.AperFunction,ComponentPad*%
%ADD10RoundRect,0.250000X-1.400000X1.100000X-1.400000X-1.100000X1.400000X-1.100000X1.400000X1.100000X0*%
%TD*%
%TA.AperFunction,ComponentPad*%
%ADD11O,3.300000X2.700000*%
%TD*%
%TA.AperFunction,ComponentPad*%
%ADD12R,1.800000X1.800000*%
%TD*%
%TA.AperFunction,ComponentPad*%
%ADD13C,1.800000*%
%TD*%
%TA.AperFunction,ComponentPad*%
%ADD14C,1.600000*%
%TD*%
%TA.AperFunction,ComponentPad*%
%ADD15O,1.600000X1.600000*%
%TD*%
%TA.AperFunction,ComponentPad*%
%ADD16R,2.400000X2.400000*%
%TD*%
%TA.AperFunction,ComponentPad*%
%ADD17C,2.400000*%
%TD*%
%TA.AperFunction,ComponentPad*%
%ADD18R,2.600000X2.600000*%
%TD*%
%TA.AperFunction,ComponentPad*%
%ADD19C,2.600000*%
%TD*%
%TA.AperFunction,ComponentPad*%
%ADD20RoundRect,0.250000X1.100000X1.400000X-1.100000X1.400000X-1.100000X-1.400000X1.100000X-1.400000X0*%
%TD*%
%TA.AperFunction,ComponentPad*%
%ADD21O,2.700000X3.300000*%
%TD*%
%TA.AperFunction,Conductor*%
%ADD22C,1.000000*%
%TD*%
G04 APERTURE END LIST*
D10*
%TO.P,J4,1,Pin_1*%
%TO.N,+12V*%
X83000000Y-32000000D03*
D11*
%TO.P,J4,2,Pin_2*%
X83000000Y-36200000D03*
%TO.P,J4,3,Pin_3*%
X83000000Y-40400000D03*
%TO.P,J4,4,Pin_4*%
%TO.N,GND*%
X83000000Y-44600000D03*
%TO.P,J4,5,Pin_5*%
X78800000Y-32000000D03*
%TO.P,J4,6,Pin_6*%
X78800000Y-36200000D03*
%TO.P,J4,7,Pin_7*%
X78800000Y-40400000D03*
%TO.P,J4,8,Pin_8*%
X78800000Y-44600000D03*
%TD*%
D12*
%TO.P,D1,1,K*%
%TO.N,Net-(D1-K)*%
X26000000Y-17000000D03*
D13*
%TO.P,D1,2,A*%
%TO.N,VBUS*%
X28540000Y-17000000D03*
%TD*%
D10*
%TO.P,J2,1,Pin_1*%
%TO.N,+12V*%
X35000000Y-32000000D03*
D11*
%TO.P,J2,2,Pin_2*%
X35000000Y-36200000D03*
%TO.P,J2,3,Pin_3*%
X35000000Y-40400000D03*
%TO.P,J2,4,Pin_4*%
%TO.N,GND*%
X35000000Y-44600000D03*
%TO.P,J2,5,Pin_5*%
X30800000Y-32000000D03*
%TO.P,J2,6,Pin_6*%
X30800000Y-36200000D03*
%TO.P,J2,7,Pin_7*%
X30800000Y-40400000D03*
%TO.P,J2,8,Pin_8*%
X30800000Y-44600000D03*
%TD*%
D10*
%TO.P,J1,1,Pin_1*%
%TO.N,GND*%
X11000000Y-32000000D03*
D11*
%TO.P,J1,2,Pin_2*%
X11000000Y-36200000D03*
%TO.P,J1,3,Pin_3*%
X11000000Y-40400000D03*
%TO.P,J1,4,Pin_4*%
X11000000Y-44600000D03*
%TO.P,J1,5,Pin_5*%
%TO.N,+12V*%
X6800000Y-32000000D03*
%TO.P,J1,6,Pin_6*%
X6800000Y-36200000D03*
%TO.P,J1,7,Pin_7*%
X6800000Y-40400000D03*
%TO.P,J1,8,Pin_8*%
X6800000Y-44600000D03*
%TD*%
D14*
%TO.P,R1,1*%
%TO.N,Net-(D1-K)*%
X24000000Y-22000000D03*
D15*
%TO.P,R1,2*%
%TO.N,GND*%
X31620000Y-22000000D03*
%TD*%
D10*
%TO.P,J3,1,Pin_1*%
%TO.N,+12V*%
X59000000Y-32000000D03*
D11*
%TO.P,J3,2,Pin_2*%
X59000000Y-36200000D03*
%TO.P,J3,3,Pin_3*%
X59000000Y-40400000D03*
%TO.P,J3,4,Pin_4*%
%TO.N,GND*%
X59000000Y-44600000D03*
%TO.P,J3,5,Pin_5*%
X54800000Y-32000000D03*
%TO.P,J3,6,Pin_6*%
X54800000Y-36200000D03*
%TO.P,J3,7,Pin_7*%
X54800000Y-40400000D03*
%TO.P,J3,8,Pin_8*%
X54800000Y-44600000D03*
%TD*%
D14*
%TO.P,R2,1*%
%TO.N,Net-(D2-K)*%
X14000000Y-22000000D03*
D15*
%TO.P,R2,2*%
%TO.N,GND*%
X21620000Y-22000000D03*
%TD*%
D16*
%TO.P,J6,1,Pin_1*%
%TO.N,+12V*%
X5000000Y-4000000D03*
D17*
%TO.P,J6,2,Pin_2*%
%TO.N,GND*%
X8500000Y-4000000D03*
%TO.P,J6,3,Pin_3*%
%TO.N,+12V*%
X12000000Y-4000000D03*
%TO.P,J6,4,Pin_4*%
%TO.N,GND*%
X15500000Y-4000000D03*
%TO.P,J6,5,Pin_5*%
%TO.N,+12V*%
X19000000Y-4000000D03*
%TO.P,J6,6,Pin_6*%
%TO.N,GND*%
X22500000Y-4000000D03*
%TO.P,J6,7,Pin_7*%
%TO.N,+12V*%
X26000000Y-4000000D03*
%TO.P,J6,8,Pin_8*%
%TO.N,GND*%
X29500000Y-4000000D03*
%TD*%
D16*
%TO.P,J8,1,Pin_1*%
%TO.N,-12V*%
X61000000Y-4000000D03*
D17*
%TO.P,J8,2,Pin_2*%
%TO.N,GND*%
X64500000Y-4000000D03*
%TO.P,J8,3,Pin_3*%
%TO.N,VBUS*%
X68000000Y-4000000D03*
%TO.P,J8,4,Pin_4*%
%TO.N,GND*%
X71500000Y-4000000D03*
%TO.P,J8,5,Pin_5*%
%TO.N,/PWR_OK*%
X75000000Y-4000000D03*
%TO.P,J8,6,Pin_6*%
%TO.N,GND*%
X78500000Y-4000000D03*
%TO.P,J8,7,Pin_7*%
X82000000Y-4000000D03*
%TO.P,J8,8,Pin_8*%
X85500000Y-4000000D03*
%TD*%
D16*
%TO.P,J7,1,Pin_1*%
%TO.N,+5V*%
X33000000Y-4000000D03*
D17*
%TO.P,J7,2,Pin_2*%
%TO.N,GND*%
X36500000Y-4000000D03*
%TO.P,J7,3,Pin_3*%
%TO.N,+5V*%
X40000000Y-4000000D03*
%TO.P,J7,4,Pin_4*%
%TO.N,GND*%
X43500000Y-4000000D03*
%TO.P,J7,5,Pin_5*%
%TO.N,+3.3V*%
X47000000Y-4000000D03*
%TO.P,J7,6,Pin_6*%
%TO.N,GND*%
X50500000Y-4000000D03*
%TO.P,J7,7,Pin_7*%
%TO.N,+3.3V*%
X54000000Y-4000000D03*
%TO.P,J7,8,Pin_8*%
%TO.N,GND*%
X57500000Y-4000000D03*
%TD*%
D14*
%TO.P,U1,1*%
%TO.N,GND*%
X9000000Y-15500000D03*
%TO.P,U1,2*%
X7000000Y-15500000D03*
%TO.P,U1,3*%
%TO.N,Net-(J5-PS_ON#)*%
X5000000Y-15500000D03*
%TO.P,U1,4*%
%TO.N,GND*%
X9000000Y-20500000D03*
%TO.P,U1,5*%
X7000000Y-20500000D03*
%TO.P,U1,6*%
X5000000Y-20500000D03*
%TD*%
D18*
%TO.P,J9,1,Pin_1*%
%TO.N,+12V*%
X8000000Y-54000000D03*
D19*
%TO.P,J9,2,Pin_2*%
%TO.N,GND*%
X13000000Y-54000000D03*
%TO.P,J9,3,Pin_3*%
%TO.N,+12V*%
X18000000Y-54000000D03*
%TO.P,J9,4,Pin_4*%
%TO.N,GND*%
X23000000Y-54000000D03*
%TO.P,J9,5,Pin_5*%
%TO.N,+12V*%
X28000000Y-54000000D03*
%TO.P,J9,6,Pin_6*%
%TO.N,GND*%
X33000000Y-54000000D03*
%TO.P,J9,7,Pin_7*%
%TO.N,+12V*%
X38000000Y-54000000D03*
%TO.P,J9,8,Pin_8*%
%TO.N,GND*%
X43000000Y-54000000D03*
%TD*%
D20*
%TO.P,J5,1,+3.3V*%
%TO.N,+3.3V*%
X85000000Y-21000000D03*
D21*
%TO.P,J5,2,+3.3V*%
X80800000Y-21000000D03*
%TO.P,J5,3,GND*%
%TO.N,GND*%
X76600000Y-21000000D03*
%TO.P,J5,4,+5V*%
%TO.N,+5V*%
X72400000Y-21000000D03*
%TO.P,J5,5,GND*%
%TO.N,GND*%
X68200000Y-21000000D03*
%TO.P,J5,6,+5V*%
%TO.N,+5V*%
X64000000Y-21000000D03*
%TO.P,J5,7,GND*%
%TO.N,GND*%
X59800000Y-21000000D03*
%TO.P,J5,8,PWR_OK*%
%TO.N,/PWR_OK*%
X55600000Y-21000000D03*
%TO.P,J5,9,+5VSB*%
%TO.N,VBUS*%
X51400000Y-21000000D03*
%TO.P,J5,10,+12V*%
%TO.N,+12V*%
X47200000Y-21000000D03*
%TO.P,J5,11,+12V*%
X43000000Y-21000000D03*
%TO.P,J5,12,+3.3V*%
%TO.N,+3.3V*%
X38800000Y-21000000D03*
%TO.P,J5,13,+3.3V*%
X85000000Y-16800000D03*
%TO.P,J5,14,-12V*%
%TO.N,-12V*%
X80800000Y-16800000D03*
%TO.P,J5,15,GND*%
%TO.N,GND*%
X76600000Y-16800000D03*
%TO.P,J5,16,PS_ON#*%
%TO.N,Net-(J5-PS_ON#)*%
X72400000Y-16800000D03*
%TO.P,J5,17,GND*%
%TO.N,GND*%
X68200000Y-16800000D03*
%TO.P,J5,18,GND*%
X64000000Y-16800000D03*
%TO.P,J5,19,GND*%
X59800000Y-16800000D03*
%TO.P,J5,20,NC*%
%TO.N,unconnected-(J5-NC-Pad20)*%
X55600000Y-16800000D03*
%TO.P,J5,21,+5V*%
%TO.N,+5V*%
X51400000Y-16800000D03*
%TO.P,J5,22,+5V*%
X47200000Y-16800000D03*
%TO.P,J5,23,+5V*%
X43000000Y-16800000D03*
%TO.P,J5,24,GND*%
%TO.N,GND*%
X38800000Y-16800000D03*
%TD*%
D18*
%TO.P,J10,1,Pin_1*%
%TO.N,+12V*%
X48000000Y-54000000D03*
D19*
%TO.P,J10,2,Pin_2*%
%TO.N,GND*%
X53000000Y-54000000D03*
%TO.P,J10,3,Pin_3*%
%TO.N,+12V*%
X58000000Y-54000000D03*
%TO.P,J10,4,Pin_4*%
%TO.N,GND*%
X63000000Y-54000000D03*
%TO.P,J10,5,Pin_5*%
%TO.N,+12V*%
X68000000Y-54000000D03*
%TO.P,J10,6,Pin_6*%
%TO.N,GND*%
X73000000Y-54000000D03*
%TO.P,J10,7,Pin_7*%
%TO.N,+12V*%
X78000000Y-54000000D03*
%TO.P,J10,8,Pin_8*%
%TO.N,GND*%
X83000000Y-54000000D03*
%TD*%
D12*
%TO.P,D2,1,K*%
%TO.N,Net-(D2-K)*%
X16000000Y-17000000D03*
D13*
%TO.P,D2,2,A*%
%TO.N,+5V*%
X18540000Y-17000000D03*
%TD*%
D22*
%TO.N,-12V*%
X87450000Y-10150000D02*
X87450000Y-3192283D01*
X62950000Y-2050000D02*
X61000000Y-4000000D01*
X80800000Y-16800000D02*
X87450000Y-10150000D01*
X86307717Y-2050000D02*
X62950000Y-2050000D01*
X87450000Y-3192283D02*
X86307717Y-2050000D01*
%TO.N,+5V*%
X43000000Y-7000000D02*
X40000000Y-4000000D01*
X43000000Y-16800000D02*
X43000000Y-7000000D01*
%TO.N,+3.3V*%
X38800000Y-21000000D02*
X41200000Y-23400000D01*
X45100000Y-5900000D02*
X47000000Y-4000000D01*
X45100000Y-22900000D02*
X45100000Y-5900000D01*
X44600000Y-23400000D02*
X45100000Y-22900000D01*
X41200000Y-23400000D02*
X44600000Y-23400000D01*
%TO.N,VBUS*%
X54980152Y-14000000D02*
X58000000Y-14000000D01*
X53500000Y-15480152D02*
X54980152Y-14000000D01*
X51400000Y-21000000D02*
X53500000Y-18900000D01*
X53500000Y-18900000D02*
X53500000Y-15480152D01*
X58000000Y-14000000D02*
X68000000Y-4000000D01*
%TD*%
%TA.AperFunction,Conductor*%
%TO.N,GND*%
G36*
X89542539Y-420185D02*
G01*
X89588294Y-472989D01*
X89599500Y-524500D01*
X89599500Y-59475500D01*
X89579815Y-59542539D01*
X89527011Y-59588294D01*
X89475500Y-59599500D01*
X524500Y-59599500D01*
X457461Y-59579815D01*
X411706Y-59527011D01*
X400500Y-59475500D01*
X400500Y-52652135D01*
X6199500Y-52652135D01*
X6199500Y-55347870D01*
X6199501Y-55347876D01*
X6205908Y-55407483D01*
X6256202Y-55542328D01*
X6256206Y-55542335D01*
X6342452Y-55657544D01*
X6342455Y-55657547D01*
X6457664Y-55743793D01*
X6457671Y-55743797D01*
X6592517Y-55794091D01*
X6592516Y-55794091D01*
X6599444Y-55794835D01*
X6652127Y-55800500D01*
X9347872Y-55800499D01*
X9407483Y-55794091D01*
X9542331Y-55743796D01*
X9657546Y-55657546D01*
X9743796Y-55542331D01*
X9794091Y-55407483D01*
X9800500Y-55347873D01*
X9800499Y-53999995D01*
X16194451Y-53999995D01*
X16194451Y-54000004D01*
X16214616Y-54269101D01*
X16274664Y-54532188D01*
X16274666Y-54532195D01*
X16373257Y-54783398D01*
X16508185Y-55017102D01*
X16644080Y-55187509D01*
X16676442Y-55228089D01*
X16863183Y-55401358D01*
X16874259Y-55411635D01*
X17097226Y-55563651D01*
X17340359Y-55680738D01*
X17598228Y-55760280D01*
X17598229Y-55760280D01*
X17598232Y-55760281D01*
X17865063Y-55800499D01*
X17865068Y-55800499D01*
X17865071Y-55800500D01*
X17865072Y-55800500D01*
X18134928Y-55800500D01*
X18134929Y-55800500D01*
X18134936Y-55800499D01*
X18401767Y-55760281D01*
X18401768Y-55760280D01*
X18401772Y-55760280D01*
X18659641Y-55680738D01*
X18902775Y-55563651D01*
X19125741Y-55411635D01*
X19323561Y-55228085D01*
X19491815Y-55017102D01*
X19626743Y-54783398D01*
X19725334Y-54532195D01*
X19785383Y-54269103D01*
X19805549Y-54000000D01*
X19805549Y-53999995D01*
X26194451Y-53999995D01*
X26194451Y-54000004D01*
X26214616Y-54269101D01*
X26274664Y-54532188D01*
X26274666Y-54532195D01*
X26373257Y-54783398D01*
X26508185Y-55017102D01*
X26644080Y-55187509D01*
X26676442Y-55228089D01*
X26863183Y-55401358D01*
X26874259Y-55411635D01*
X27097226Y-55563651D01*
X27340359Y-55680738D01*
X27598228Y-55760280D01*
X27598229Y-55760280D01*
X27598232Y-55760281D01*
X27865063Y-55800499D01*
X27865068Y-55800499D01*
X27865071Y-55800500D01*
X27865072Y-55800500D01*
X28134928Y-55800500D01*
X28134929Y-55800500D01*
X28134936Y-55800499D01*
X28401767Y-55760281D01*
X28401768Y-55760280D01*
X28401772Y-55760280D01*
X28659641Y-55680738D01*
X28902775Y-55563651D01*
X29125741Y-55411635D01*
X29323561Y-55228085D01*
X29491815Y-55017102D01*
X29626743Y-54783398D01*
X29725334Y-54532195D01*
X29785383Y-54269103D01*
X29805549Y-54000000D01*
X29805549Y-53999995D01*
X36194451Y-53999995D01*
X36194451Y-54000004D01*
X36214616Y-54269101D01*
X36274664Y-54532188D01*
X36274666Y-54532195D01*
X36373257Y-54783398D01*
X36508185Y-55017102D01*
X36644080Y-55187509D01*
X36676442Y-55228089D01*
X36863183Y-55401358D01*
X36874259Y-55411635D01*
X37097226Y-55563651D01*
X37340359Y-55680738D01*
X37598228Y-55760280D01*
X37598229Y-55760280D01*
X37598232Y-55760281D01*
X37865063Y-55800499D01*
X37865068Y-55800499D01*
X37865071Y-55800500D01*
X37865072Y-55800500D01*
X38134928Y-55800500D01*
X38134929Y-55800500D01*
X38134936Y-55800499D01*
X38401767Y-55760281D01*
X38401768Y-55760280D01*
X38401772Y-55760280D01*
X38659641Y-55680738D01*
X38902775Y-55563651D01*
X39125741Y-55411635D01*
X39323561Y-55228085D01*
X39491815Y-55017102D01*
X39626743Y-54783398D01*
X39725334Y-54532195D01*
X39785383Y-54269103D01*
X39805549Y-54000000D01*
X39785383Y-53730897D01*
X39725334Y-53467805D01*
X39626743Y-53216602D01*
X39491815Y-52982898D01*
X39323561Y-52771915D01*
X39323560Y-52771914D01*
X39323557Y-52771910D01*
X39194469Y-52652135D01*
X46199500Y-52652135D01*
X46199500Y-55347870D01*
X46199501Y-55347876D01*
X46205908Y-55407483D01*
X46256202Y-55542328D01*
X46256206Y-55542335D01*
X46342452Y-55657544D01*
X46342455Y-55657547D01*
X46457664Y-55743793D01*
X46457671Y-55743797D01*
X46592517Y-55794091D01*
X46592516Y-55794091D01*
X46599444Y-55794835D01*
X46652127Y-55800500D01*
X49347872Y-55800499D01*
X49407483Y-55794091D01*
X49542331Y-55743796D01*
X49657546Y-55657546D01*
X49743796Y-55542331D01*
X49794091Y-55407483D01*
X49800500Y-55347873D01*
X49800499Y-53999995D01*
X56194451Y-53999995D01*
X56194451Y-54000004D01*
X56214616Y-54269101D01*
X56274664Y-54532188D01*
X56274666Y-54532195D01*
X56373257Y-54783398D01*
X56508185Y-55017102D01*
X56644080Y-55187509D01*
X56676442Y-55228089D01*
X56863183Y-55401358D01*
X56874259Y-55411635D01*
X57097226Y-55563651D01*
X57340359Y-55680738D01*
X57598228Y-55760280D01*
X57598229Y-55760280D01*
X57598232Y-55760281D01*
X57865063Y-55800499D01*
X57865068Y-55800499D01*
X57865071Y-55800500D01*
X57865072Y-55800500D01*
X58134928Y-55800500D01*
X58134929Y-55800500D01*
X58134936Y-55800499D01*
X58401767Y-55760281D01*
X58401768Y-55760280D01*
X58401772Y-55760280D01*
X58659641Y-55680738D01*
X58902775Y-55563651D01*
X59125741Y-55411635D01*
X59323561Y-55228085D01*
X59491815Y-55017102D01*
X59626743Y-54783398D01*
X59725334Y-54532195D01*
X59785383Y-54269103D01*
X59805549Y-54000000D01*
X59805549Y-53999995D01*
X66194451Y-53999995D01*
X66194451Y-54000004D01*
X66214616Y-54269101D01*
X66274664Y-54532188D01*
X66274666Y-54532195D01*
X66373257Y-54783398D01*
X66508185Y-55017102D01*
X66644080Y-55187509D01*
X66676442Y-55228089D01*
X66863183Y-55401358D01*
X66874259Y-55411635D01*
X67097226Y-55563651D01*
X67340359Y-55680738D01*
X67598228Y-55760280D01*
X67598229Y-55760280D01*
X67598232Y-55760281D01*
X67865063Y-55800499D01*
X67865068Y-55800499D01*
X67865071Y-55800500D01*
X67865072Y-55800500D01*
X68134928Y-55800500D01*
X68134929Y-55800500D01*
X68134936Y-55800499D01*
X68401767Y-55760281D01*
X68401768Y-55760280D01*
X68401772Y-55760280D01*
X68659641Y-55680738D01*
X68902775Y-55563651D01*
X69125741Y-55411635D01*
X69323561Y-55228085D01*
X69491815Y-55017102D01*
X69626743Y-54783398D01*
X69725334Y-54532195D01*
X69785383Y-54269103D01*
X69805549Y-54000000D01*
X69805549Y-53999995D01*
X76194451Y-53999995D01*
X76194451Y-54000004D01*
X76214616Y-54269101D01*
X76274664Y-54532188D01*
X76274666Y-54532195D01*
X76373257Y-54783398D01*
X76508185Y-55017102D01*
X76644080Y-55187509D01*
X76676442Y-55228089D01*
X76863183Y-55401358D01*
X76874259Y-55411635D01*
X77097226Y-55563651D01*
X77340359Y-55680738D01*
X77598228Y-55760280D01*
X77598229Y-55760280D01*
X77598232Y-55760281D01*
X77865063Y-55800499D01*
X77865068Y-55800499D01*
X77865071Y-55800500D01*
X77865072Y-55800500D01*
X78134928Y-55800500D01*
X78134929Y-55800500D01*
X78134936Y-55800499D01*
X78401767Y-55760281D01*
X78401768Y-55760280D01*
X78401772Y-55760280D01*
X78659641Y-55680738D01*
X78902775Y-55563651D01*
X79125741Y-55411635D01*
X79323561Y-55228085D01*
X79491815Y-55017102D01*
X79626743Y-54783398D01*
X79725334Y-54532195D01*
X79785383Y-54269103D01*
X79805549Y-54000000D01*
X79785383Y-53730897D01*
X79725334Y-53467805D01*
X79626743Y-53216602D01*
X79491815Y-52982898D01*
X79323561Y-52771915D01*
X79323560Y-52771914D01*
X79323557Y-52771910D01*
X79125741Y-52588365D01*
X78902775Y-52436349D01*
X78902769Y-52436346D01*
X78902768Y-52436345D01*
X78902767Y-52436344D01*
X78659643Y-52319263D01*
X78659645Y-52319263D01*
X78401773Y-52239720D01*
X78401767Y-52239718D01*
X78134936Y-52199500D01*
X78134929Y-52199500D01*
X77865071Y-52199500D01*
X77865063Y-52199500D01*
X77598232Y-52239718D01*
X77598226Y-52239720D01*
X77340358Y-52319262D01*
X77097230Y-52436346D01*
X76874258Y-52588365D01*
X76676442Y-52771910D01*
X76508185Y-52982898D01*
X76373258Y-53216599D01*
X76373256Y-53216603D01*
X76274666Y-53467804D01*
X76274664Y-53467811D01*
X76214616Y-53730898D01*
X76194451Y-53999995D01*
X69805549Y-53999995D01*
X69785383Y-53730897D01*
X69725334Y-53467805D01*
X69626743Y-53216602D01*
X69491815Y-52982898D01*
X69323561Y-52771915D01*
X69323560Y-52771914D01*
X69323557Y-52771910D01*
X69125741Y-52588365D01*
X68902775Y-52436349D01*
X68902769Y-52436346D01*
X68902768Y-52436345D01*
X68902767Y-52436344D01*
X68659643Y-52319263D01*
X68659645Y-52319263D01*
X68401773Y-52239720D01*
X68401767Y-52239718D01*
X68134936Y-52199500D01*
X68134929Y-52199500D01*
X67865071Y-52199500D01*
X67865063Y-52199500D01*
X67598232Y-52239718D01*
X67598226Y-52239720D01*
X67340358Y-52319262D01*
X67097230Y-52436346D01*
X66874258Y-52588365D01*
X66676442Y-52771910D01*
X66508185Y-52982898D01*
X66373258Y-53216599D01*
X66373256Y-53216603D01*
X66274666Y-53467804D01*
X66274664Y-53467811D01*
X66214616Y-53730898D01*
X66194451Y-53999995D01*
X59805549Y-53999995D01*
X59785383Y-53730897D01*
X59725334Y-53467805D01*
X59626743Y-53216602D01*
X59491815Y-52982898D01*
X59323561Y-52771915D01*
X59323560Y-52771914D01*
X59323557Y-52771910D01*
X59125741Y-52588365D01*
X58902775Y-52436349D01*
X58902769Y-52436346D01*
X58902768Y-52436345D01*
X58902767Y-52436344D01*
X58659643Y-52319263D01*
X58659645Y-52319263D01*
X58401773Y-52239720D01*
X58401767Y-52239718D01*
X58134936Y-52199500D01*
X58134929Y-52199500D01*
X57865071Y-52199500D01*
X57865063Y-52199500D01*
X57598232Y-52239718D01*
X57598226Y-52239720D01*
X57340358Y-52319262D01*
X57097230Y-52436346D01*
X56874258Y-52588365D01*
X56676442Y-52771910D01*
X56508185Y-52982898D01*
X56373258Y-53216599D01*
X56373256Y-53216603D01*
X56274666Y-53467804D01*
X56274664Y-53467811D01*
X56214616Y-53730898D01*
X56194451Y-53999995D01*
X49800499Y-53999995D01*
X49800499Y-52652128D01*
X49794091Y-52592517D01*
X49792542Y-52588365D01*
X49743797Y-52457671D01*
X49743793Y-52457664D01*
X49657547Y-52342455D01*
X49657544Y-52342452D01*
X49542335Y-52256206D01*
X49542328Y-52256202D01*
X49407482Y-52205908D01*
X49407483Y-52205908D01*
X49347883Y-52199501D01*
X49347881Y-52199500D01*
X49347873Y-52199500D01*
X49347864Y-52199500D01*
X46652129Y-52199500D01*
X46652123Y-52199501D01*
X46592516Y-52205908D01*
X46457671Y-52256202D01*
X46457664Y-52256206D01*
X46342455Y-52342452D01*
X46342452Y-52342455D01*
X46256206Y-52457664D01*
X46256202Y-52457671D01*
X46205908Y-52592517D01*
X46199501Y-52652116D01*
X46199501Y-52652123D01*
X46199500Y-52652135D01*
X39194469Y-52652135D01*
X39125741Y-52588365D01*
X38902775Y-52436349D01*
X38902769Y-52436346D01*
X38902768Y-52436345D01*
X38902767Y-52436344D01*
X38659643Y-52319263D01*
X38659645Y-52319263D01*
X38401773Y-52239720D01*
X38401767Y-52239718D01*
X38134936Y-52199500D01*
X38134929Y-52199500D01*
X37865071Y-52199500D01*
X37865063Y-52199500D01*
X37598232Y-52239718D01*
X37598226Y-52239720D01*
X37340358Y-52319262D01*
X37097230Y-52436346D01*
X36874258Y-52588365D01*
X36676442Y-52771910D01*
X36508185Y-52982898D01*
X36373258Y-53216599D01*
X36373256Y-53216603D01*
X36274666Y-53467804D01*
X36274664Y-53467811D01*
X36214616Y-53730898D01*
X36194451Y-53999995D01*
X29805549Y-53999995D01*
X29785383Y-53730897D01*
X29725334Y-53467805D01*
X29626743Y-53216602D01*
X29491815Y-52982898D01*
X29323561Y-52771915D01*
X29323560Y-52771914D01*
X29323557Y-52771910D01*
X29125741Y-52588365D01*
X28902775Y-52436349D01*
X28902769Y-52436346D01*
X28902768Y-52436345D01*
X28902767Y-52436344D01*
X28659643Y-52319263D01*
X28659645Y-52319263D01*
X28401773Y-52239720D01*
X28401767Y-52239718D01*
X28134936Y-52199500D01*
X28134929Y-52199500D01*
X27865071Y-52199500D01*
X27865063Y-52199500D01*
X27598232Y-52239718D01*
X27598226Y-52239720D01*
X27340358Y-52319262D01*
X27097230Y-52436346D01*
X26874258Y-52588365D01*
X26676442Y-52771910D01*
X26508185Y-52982898D01*
X26373258Y-53216599D01*
X26373256Y-53216603D01*
X26274666Y-53467804D01*
X26274664Y-53467811D01*
X26214616Y-53730898D01*
X26194451Y-53999995D01*
X19805549Y-53999995D01*
X19785383Y-53730897D01*
X19725334Y-53467805D01*
X19626743Y-53216602D01*
X19491815Y-52982898D01*
X19323561Y-52771915D01*
X19323560Y-52771914D01*
X19323557Y-52771910D01*
X19125741Y-52588365D01*
X18902775Y-52436349D01*
X18902769Y-52436346D01*
X18902768Y-52436345D01*
X18902767Y-52436344D01*
X18659643Y-52319263D01*
X18659645Y-52319263D01*
X18401773Y-52239720D01*
X18401767Y-52239718D01*
X18134936Y-52199500D01*
X18134929Y-52199500D01*
X17865071Y-52199500D01*
X17865063Y-52199500D01*
X17598232Y-52239718D01*
X17598226Y-52239720D01*
X17340358Y-52319262D01*
X17097230Y-52436346D01*
X16874258Y-52588365D01*
X16676442Y-52771910D01*
X16508185Y-52982898D01*
X16373258Y-53216599D01*
X16373256Y-53216603D01*
X16274666Y-53467804D01*
X16274664Y-53467811D01*
X16214616Y-53730898D01*
X16194451Y-53999995D01*
X9800499Y-53999995D01*
X9800499Y-52652128D01*
X9794091Y-52592517D01*
X9792542Y-52588365D01*
X9743797Y-52457671D01*
X9743793Y-52457664D01*
X9657547Y-52342455D01*
X9657544Y-52342452D01*
X9542335Y-52256206D01*
X9542328Y-52256202D01*
X9407482Y-52205908D01*
X9407483Y-52205908D01*
X9347883Y-52199501D01*
X9347881Y-52199500D01*
X9347873Y-52199500D01*
X9347864Y-52199500D01*
X6652129Y-52199500D01*
X6652123Y-52199501D01*
X6592516Y-52205908D01*
X6457671Y-52256202D01*
X6457664Y-52256206D01*
X6342455Y-52342452D01*
X6342452Y-52342455D01*
X6256206Y-52457664D01*
X6256202Y-52457671D01*
X6205908Y-52592517D01*
X6199501Y-52652116D01*
X6199501Y-52652123D01*
X6199500Y-52652135D01*
X400500Y-52652135D01*
X400500Y-44478711D01*
X4649500Y-44478711D01*
X4649500Y-44721288D01*
X4681161Y-44961785D01*
X4743947Y-45196104D01*
X4836773Y-45420205D01*
X4836776Y-45420212D01*
X4958064Y-45630289D01*
X4958066Y-45630292D01*
X4958067Y-45630293D01*
X5105733Y-45822736D01*
X5105739Y-45822743D01*
X5277256Y-45994260D01*
X5277262Y-45994265D01*
X5469711Y-46141936D01*
X5679788Y-46263224D01*
X5903900Y-46356054D01*
X6138211Y-46418838D01*
X6318586Y-46442584D01*
X6378711Y-46450500D01*
X6378712Y-46450500D01*
X7221289Y-46450500D01*
X7269388Y-46444167D01*
X7461789Y-46418838D01*
X7696100Y-46356054D01*
X7920212Y-46263224D01*
X8130289Y-46141936D01*
X8322738Y-45994265D01*
X8494265Y-45822738D01*
X8641936Y-45630289D01*
X8763224Y-45420212D01*
X8856054Y-45196100D01*
X8918838Y-44961789D01*
X8950500Y-44721288D01*
X8950500Y-44478712D01*
X8918838Y-44238211D01*
X8856054Y-44003900D01*
X8763224Y-43779788D01*
X8641936Y-43569711D01*
X8494265Y-43377262D01*
X8494260Y-43377256D01*
X8322743Y-43205739D01*
X8322736Y-43205733D01*
X8130293Y-43058067D01*
X8130292Y-43058066D01*
X8130289Y-43058064D01*
X7920212Y-42936776D01*
X7920205Y-42936773D01*
X7696104Y-42843947D01*
X7461785Y-42781161D01*
X7221289Y-42749500D01*
X7221288Y-42749500D01*
X6378712Y-42749500D01*
X6378711Y-42749500D01*
X6138214Y-42781161D01*
X5903895Y-42843947D01*
X5679794Y-42936773D01*
X5679785Y-42936777D01*
X5469706Y-43058067D01*
X5277263Y-43205733D01*
X5277256Y-43205739D01*
X5105739Y-43377256D01*
X5105733Y-43377263D01*
X4958067Y-43569706D01*
X4836777Y-43779785D01*
X4836773Y-43779794D01*
X4743947Y-44003895D01*
X4681161Y-44238214D01*
X4649500Y-44478711D01*
X400500Y-44478711D01*
X400500Y-40278711D01*
X4649500Y-40278711D01*
X4649500Y-40521288D01*
X4681161Y-40761785D01*
X4743947Y-40996104D01*
X4836773Y-41220205D01*
X4836776Y-41220212D01*
X4958064Y-41430289D01*
X4958066Y-41430292D01*
X4958067Y-41430293D01*
X5105733Y-41622736D01*
X5105739Y-41622743D01*
X5277256Y-41794260D01*
X5277262Y-41794265D01*
X5469711Y-41941936D01*
X5679788Y-42063224D01*
X5903900Y-42156054D01*
X6138211Y-42218838D01*
X6318586Y-42242584D01*
X6378711Y-42250500D01*
X6378712Y-42250500D01*
X7221289Y-42250500D01*
X7269388Y-42244167D01*
X7461789Y-42218838D01*
X7696100Y-42156054D01*
X7920212Y-42063224D01*
X8130289Y-41941936D01*
X8322738Y-41794265D01*
X8494265Y-41622738D01*
X8641936Y-41430289D01*
X8763224Y-41220212D01*
X8856054Y-40996100D01*
X8918838Y-40761789D01*
X8950500Y-40521288D01*
X8950500Y-40278712D01*
X8950500Y-40278711D01*
X32849500Y-40278711D01*
X32849500Y-40521288D01*
X32881161Y-40761785D01*
X32943947Y-40996104D01*
X33036773Y-41220205D01*
X33036776Y-41220212D01*
X33158064Y-41430289D01*
X33158066Y-41430292D01*
X33158067Y-41430293D01*
X33305733Y-41622736D01*
X33305739Y-41622743D01*
X33477256Y-41794260D01*
X33477262Y-41794265D01*
X33669711Y-41941936D01*
X33879788Y-42063224D01*
X34103900Y-42156054D01*
X34338211Y-42218838D01*
X34518586Y-42242584D01*
X34578711Y-42250500D01*
X34578712Y-42250500D01*
X35421289Y-42250500D01*
X35469388Y-42244167D01*
X35661789Y-42218838D01*
X35896100Y-42156054D01*
X36120212Y-42063224D01*
X36330289Y-41941936D01*
X36522738Y-41794265D01*
X36694265Y-41622738D01*
X36841936Y-41430289D01*
X36963224Y-41220212D01*
X37056054Y-40996100D01*
X37118838Y-40761789D01*
X37150500Y-40521288D01*
X37150500Y-40278712D01*
X37150500Y-40278711D01*
X56849500Y-40278711D01*
X56849500Y-40521288D01*
X56881161Y-40761785D01*
X56943947Y-40996104D01*
X57036773Y-41220205D01*
X57036776Y-41220212D01*
X57158064Y-41430289D01*
X57158066Y-41430292D01*
X57158067Y-41430293D01*
X57305733Y-41622736D01*
X57305739Y-41622743D01*
X57477256Y-41794260D01*
X57477262Y-41794265D01*
X57669711Y-41941936D01*
X57879788Y-42063224D01*
X58103900Y-42156054D01*
X58338211Y-42218838D01*
X58518586Y-42242584D01*
X58578711Y-42250500D01*
X58578712Y-42250500D01*
X59421289Y-42250500D01*
X59469388Y-42244167D01*
X59661789Y-42218838D01*
X59896100Y-42156054D01*
X60120212Y-42063224D01*
X60330289Y-41941936D01*
X60522738Y-41794265D01*
X60694265Y-41622738D01*
X60841936Y-41430289D01*
X60963224Y-41220212D01*
X61056054Y-40996100D01*
X61118838Y-40761789D01*
X61150500Y-40521288D01*
X61150500Y-40278712D01*
X61150500Y-40278711D01*
X80849500Y-40278711D01*
X80849500Y-40521288D01*
X80881161Y-40761785D01*
X80943947Y-40996104D01*
X81036773Y-41220205D01*
X81036776Y-41220212D01*
X81158064Y-41430289D01*
X81158066Y-41430292D01*
X81158067Y-41430293D01*
X81305733Y-41622736D01*
X81305739Y-41622743D01*
X81477256Y-41794260D01*
X81477262Y-41794265D01*
X81669711Y-41941936D01*
X81879788Y-42063224D01*
X82103900Y-42156054D01*
X82338211Y-42218838D01*
X82518586Y-42242584D01*
X82578711Y-42250500D01*
X82578712Y-42250500D01*
X83421289Y-42250500D01*
X83469388Y-42244167D01*
X83661789Y-42218838D01*
X83896100Y-42156054D01*
X84120212Y-42063224D01*
X84330289Y-41941936D01*
X84522738Y-41794265D01*
X84694265Y-41622738D01*
X84841936Y-41430289D01*
X84963224Y-41220212D01*
X85056054Y-40996100D01*
X85118838Y-40761789D01*
X85150500Y-40521288D01*
X85150500Y-40278712D01*
X85118838Y-40038211D01*
X85056054Y-39803900D01*
X84963224Y-39579788D01*
X84841936Y-39369711D01*
X84694265Y-39177262D01*
X84694260Y-39177256D01*
X84522743Y-39005739D01*
X84522736Y-39005733D01*
X84330293Y-38858067D01*
X84330292Y-38858066D01*
X84330289Y-38858064D01*
X84120212Y-38736776D01*
X84120205Y-38736773D01*
X83896104Y-38643947D01*
X83661785Y-38581161D01*
X83421289Y-38549500D01*
X83421288Y-38549500D01*
X82578712Y-38549500D01*
X82578711Y-38549500D01*
X82338214Y-38581161D01*
X82103895Y-38643947D01*
X81879794Y-38736773D01*
X81879785Y-38736777D01*
X81669706Y-38858067D01*
X81477263Y-39005733D01*
X81477256Y-39005739D01*
X81305739Y-39177256D01*
X81305733Y-39177263D01*
X81158067Y-39369706D01*
X81036777Y-39579785D01*
X81036773Y-39579794D01*
X80943947Y-39803895D01*
X80881161Y-40038214D01*
X80849500Y-40278711D01*
X61150500Y-40278711D01*
X61118838Y-40038211D01*
X61056054Y-39803900D01*
X60963224Y-39579788D01*
X60841936Y-39369711D01*
X60694265Y-39177262D01*
X60694260Y-39177256D01*
X60522743Y-39005739D01*
X60522736Y-39005733D01*
X60330293Y-38858067D01*
X60330292Y-38858066D01*
X60330289Y-38858064D01*
X60120212Y-38736776D01*
X60120205Y-38736773D01*
X59896104Y-38643947D01*
X59661785Y-38581161D01*
X59421289Y-38549500D01*
X59421288Y-38549500D01*
X58578712Y-38549500D01*
X58578711Y-38549500D01*
X58338214Y-38581161D01*
X58103895Y-38643947D01*
X57879794Y-38736773D01*
X57879785Y-38736777D01*
X57669706Y-38858067D01*
X57477263Y-39005733D01*
X57477256Y-39005739D01*
X57305739Y-39177256D01*
X57305733Y-39177263D01*
X57158067Y-39369706D01*
X57036777Y-39579785D01*
X57036773Y-39579794D01*
X56943947Y-39803895D01*
X56881161Y-40038214D01*
X56849500Y-40278711D01*
X37150500Y-40278711D01*
X37118838Y-40038211D01*
X37056054Y-39803900D01*
X36963224Y-39579788D01*
X36841936Y-39369711D01*
X36694265Y-39177262D01*
X36694260Y-39177256D01*
X36522743Y-39005739D01*
X36522736Y-39005733D01*
X36330293Y-38858067D01*
X36330292Y-38858066D01*
X36330289Y-38858064D01*
X36120212Y-38736776D01*
X36120205Y-38736773D01*
X35896104Y-38643947D01*
X35661785Y-38581161D01*
X35421289Y-38549500D01*
X35421288Y-38549500D01*
X34578712Y-38549500D01*
X34578711Y-38549500D01*
X34338214Y-38581161D01*
X34103895Y-38643947D01*
X33879794Y-38736773D01*
X33879785Y-38736777D01*
X33669706Y-38858067D01*
X33477263Y-39005733D01*
X33477256Y-39005739D01*
X33305739Y-39177256D01*
X33305733Y-39177263D01*
X33158067Y-39369706D01*
X33036777Y-39579785D01*
X33036773Y-39579794D01*
X32943947Y-39803895D01*
X32881161Y-40038214D01*
X32849500Y-40278711D01*
X8950500Y-40278711D01*
X8918838Y-40038211D01*
X8856054Y-39803900D01*
X8763224Y-39579788D01*
X8641936Y-39369711D01*
X8494265Y-39177262D01*
X8494260Y-39177256D01*
X8322743Y-39005739D01*
X8322736Y-39005733D01*
X8130293Y-38858067D01*
X8130292Y-38858066D01*
X8130289Y-38858064D01*
X7920212Y-38736776D01*
X7920205Y-38736773D01*
X7696104Y-38643947D01*
X7461785Y-38581161D01*
X7221289Y-38549500D01*
X7221288Y-38549500D01*
X6378712Y-38549500D01*
X6378711Y-38549500D01*
X6138214Y-38581161D01*
X5903895Y-38643947D01*
X5679794Y-38736773D01*
X5679785Y-38736777D01*
X5469706Y-38858067D01*
X5277263Y-39005733D01*
X5277256Y-39005739D01*
X5105739Y-39177256D01*
X5105733Y-39177263D01*
X4958067Y-39369706D01*
X4836777Y-39579785D01*
X4836773Y-39579794D01*
X4743947Y-39803895D01*
X4681161Y-40038214D01*
X4649500Y-40278711D01*
X400500Y-40278711D01*
X400500Y-36078711D01*
X4649500Y-36078711D01*
X4649500Y-36321288D01*
X4681161Y-36561785D01*
X4743947Y-36796104D01*
X4836773Y-37020205D01*
X4836776Y-37020212D01*
X4958064Y-37230289D01*
X4958066Y-37230292D01*
X4958067Y-37230293D01*
X5105733Y-37422736D01*
X5105739Y-37422743D01*
X5277256Y-37594260D01*
X5277262Y-37594265D01*
X5469711Y-37741936D01*
X5679788Y-37863224D01*
X5903900Y-37956054D01*
X6138211Y-38018838D01*
X6318586Y-38042584D01*
X6378711Y-38050500D01*
X6378712Y-38050500D01*
X7221289Y-38050500D01*
X7269388Y-38044167D01*
X7461789Y-38018838D01*
X7696100Y-37956054D01*
X7920212Y-37863224D01*
X8130289Y-37741936D01*
X8322738Y-37594265D01*
X8494265Y-37422738D01*
X8641936Y-37230289D01*
X8763224Y-37020212D01*
X8856054Y-36796100D01*
X8918838Y-36561789D01*
X8950500Y-36321288D01*
X8950500Y-36078712D01*
X8950500Y-36078711D01*
X32849500Y-36078711D01*
X32849500Y-36321288D01*
X32881161Y-36561785D01*
X32943947Y-36796104D01*
X33036773Y-37020205D01*
X33036776Y-37020212D01*
X33158064Y-37230289D01*
X33158066Y-37230292D01*
X33158067Y-37230293D01*
X33305733Y-37422736D01*
X33305739Y-37422743D01*
X33477256Y-37594260D01*
X33477262Y-37594265D01*
X33669711Y-37741936D01*
X33879788Y-37863224D01*
X34103900Y-37956054D01*
X34338211Y-38018838D01*
X34518586Y-38042584D01*
X34578711Y-38050500D01*
X34578712Y-38050500D01*
X35421289Y-38050500D01*
X35469388Y-38044167D01*
X35661789Y-38018838D01*
X35896100Y-37956054D01*
X36120212Y-37863224D01*
X36330289Y-37741936D01*
X36522738Y-37594265D01*
X36694265Y-37422738D01*
X36841936Y-37230289D01*
X36963224Y-37020212D01*
X37056054Y-36796100D01*
X37118838Y-36561789D01*
X37150500Y-36321288D01*
X37150500Y-36078712D01*
X37150500Y-36078711D01*
X56849500Y-36078711D01*
X56849500Y-36321288D01*
X56881161Y-36561785D01*
X56943947Y-36796104D01*
X57036773Y-37020205D01*
X57036776Y-37020212D01*
X57158064Y-37230289D01*
X57158066Y-37230292D01*
X57158067Y-37230293D01*
X57305733Y-37422736D01*
X57305739Y-37422743D01*
X57477256Y-37594260D01*
X57477262Y-37594265D01*
X57669711Y-37741936D01*
X57879788Y-37863224D01*
X58103900Y-37956054D01*
X58338211Y-38018838D01*
X58518586Y-38042584D01*
X58578711Y-38050500D01*
X58578712Y-38050500D01*
X59421289Y-38050500D01*
X59469388Y-38044167D01*
X59661789Y-38018838D01*
X59896100Y-37956054D01*
X60120212Y-37863224D01*
X60330289Y-37741936D01*
X60522738Y-37594265D01*
X60694265Y-37422738D01*
X60841936Y-37230289D01*
X60963224Y-37020212D01*
X61056054Y-36796100D01*
X61118838Y-36561789D01*
X61150500Y-36321288D01*
X61150500Y-36078712D01*
X61150500Y-36078711D01*
X80849500Y-36078711D01*
X80849500Y-36321288D01*
X80881161Y-36561785D01*
X80943947Y-36796104D01*
X81036773Y-37020205D01*
X81036776Y-37020212D01*
X81158064Y-37230289D01*
X81158066Y-37230292D01*
X81158067Y-37230293D01*
X81305733Y-37422736D01*
X81305739Y-37422743D01*
X81477256Y-37594260D01*
X81477262Y-37594265D01*
X81669711Y-37741936D01*
X81879788Y-37863224D01*
X82103900Y-37956054D01*
X82338211Y-38018838D01*
X82518586Y-38042584D01*
X82578711Y-38050500D01*
X82578712Y-38050500D01*
X83421289Y-38050500D01*
X83469388Y-38044167D01*
X83661789Y-38018838D01*
X83896100Y-37956054D01*
X84120212Y-37863224D01*
X84330289Y-37741936D01*
X84522738Y-37594265D01*
X84694265Y-37422738D01*
X84841936Y-37230289D01*
X84963224Y-37020212D01*
X85056054Y-36796100D01*
X85118838Y-36561789D01*
X85150500Y-36321288D01*
X85150500Y-36078712D01*
X85118838Y-35838211D01*
X85056054Y-35603900D01*
X84963224Y-35379788D01*
X84841936Y-35169711D01*
X84694265Y-34977262D01*
X84694260Y-34977256D01*
X84522743Y-34805739D01*
X84522736Y-34805733D01*
X84330293Y-34658067D01*
X84330292Y-34658066D01*
X84330289Y-34658064D01*
X84120212Y-34536776D01*
X84120205Y-34536773D01*
X83896104Y-34443947D01*
X83661785Y-34381161D01*
X83421289Y-34349500D01*
X83421288Y-34349500D01*
X82578712Y-34349500D01*
X82578711Y-34349500D01*
X82338214Y-34381161D01*
X82103895Y-34443947D01*
X81879794Y-34536773D01*
X81879785Y-34536777D01*
X81669706Y-34658067D01*
X81477263Y-34805733D01*
X81477256Y-34805739D01*
X81305739Y-34977256D01*
X81305733Y-34977263D01*
X81158067Y-35169706D01*
X81036777Y-35379785D01*
X81036773Y-35379794D01*
X80943947Y-35603895D01*
X80881161Y-35838214D01*
X80849500Y-36078711D01*
X61150500Y-36078711D01*
X61118838Y-35838211D01*
X61056054Y-35603900D01*
X60963224Y-35379788D01*
X60841936Y-35169711D01*
X60694265Y-34977262D01*
X60694260Y-34977256D01*
X60522743Y-34805739D01*
X60522736Y-34805733D01*
X60330293Y-34658067D01*
X60330292Y-34658066D01*
X60330289Y-34658064D01*
X60120212Y-34536776D01*
X60120205Y-34536773D01*
X59896104Y-34443947D01*
X59661785Y-34381161D01*
X59421289Y-34349500D01*
X59421288Y-34349500D01*
X58578712Y-34349500D01*
X58578711Y-34349500D01*
X58338214Y-34381161D01*
X58103895Y-34443947D01*
X57879794Y-34536773D01*
X57879785Y-34536777D01*
X57669706Y-34658067D01*
X57477263Y-34805733D01*
X57477256Y-34805739D01*
X57305739Y-34977256D01*
X57305733Y-34977263D01*
X57158067Y-35169706D01*
X57036777Y-35379785D01*
X57036773Y-35379794D01*
X56943947Y-35603895D01*
X56881161Y-35838214D01*
X56849500Y-36078711D01*
X37150500Y-36078711D01*
X37118838Y-35838211D01*
X37056054Y-35603900D01*
X36963224Y-35379788D01*
X36841936Y-35169711D01*
X36694265Y-34977262D01*
X36694260Y-34977256D01*
X36522743Y-34805739D01*
X36522736Y-34805733D01*
X36330293Y-34658067D01*
X36330292Y-34658066D01*
X36330289Y-34658064D01*
X36120212Y-34536776D01*
X36120205Y-34536773D01*
X35896104Y-34443947D01*
X35661785Y-34381161D01*
X35421289Y-34349500D01*
X35421288Y-34349500D01*
X34578712Y-34349500D01*
X34578711Y-34349500D01*
X34338214Y-34381161D01*
X34103895Y-34443947D01*
X33879794Y-34536773D01*
X33879785Y-34536777D01*
X33669706Y-34658067D01*
X33477263Y-34805733D01*
X33477256Y-34805739D01*
X33305739Y-34977256D01*
X33305733Y-34977263D01*
X33158067Y-35169706D01*
X33036777Y-35379785D01*
X33036773Y-35379794D01*
X32943947Y-35603895D01*
X32881161Y-35838214D01*
X32849500Y-36078711D01*
X8950500Y-36078711D01*
X8918838Y-35838211D01*
X8856054Y-35603900D01*
X8763224Y-35379788D01*
X8641936Y-35169711D01*
X8494265Y-34977262D01*
X8494260Y-34977256D01*
X8322743Y-34805739D01*
X8322736Y-34805733D01*
X8130293Y-34658067D01*
X8130292Y-34658066D01*
X8130289Y-34658064D01*
X7920212Y-34536776D01*
X7920205Y-34536773D01*
X7696104Y-34443947D01*
X7461785Y-34381161D01*
X7221289Y-34349500D01*
X7221288Y-34349500D01*
X6378712Y-34349500D01*
X6378711Y-34349500D01*
X6138214Y-34381161D01*
X5903895Y-34443947D01*
X5679794Y-34536773D01*
X5679785Y-34536777D01*
X5469706Y-34658067D01*
X5277263Y-34805733D01*
X5277256Y-34805739D01*
X5105739Y-34977256D01*
X5105733Y-34977263D01*
X4958067Y-35169706D01*
X4836777Y-35379785D01*
X4836773Y-35379794D01*
X4743947Y-35603895D01*
X4681161Y-35838214D01*
X4649500Y-36078711D01*
X400500Y-36078711D01*
X400500Y-31878711D01*
X4649500Y-31878711D01*
X4649500Y-32121288D01*
X4681161Y-32361785D01*
X4743947Y-32596104D01*
X4836773Y-32820205D01*
X4836776Y-32820212D01*
X4958064Y-33030289D01*
X4958066Y-33030292D01*
X4958067Y-33030293D01*
X5105733Y-33222736D01*
X5105739Y-33222743D01*
X5277256Y-33394260D01*
X5277263Y-33394266D01*
X5309935Y-33419336D01*
X5469711Y-33541936D01*
X5679788Y-33663224D01*
X5903900Y-33756054D01*
X6138211Y-33818838D01*
X6298940Y-33839998D01*
X6378711Y-33850500D01*
X6378712Y-33850500D01*
X7221289Y-33850500D01*
X7301052Y-33839999D01*
X7461789Y-33818838D01*
X7696100Y-33756054D01*
X7920212Y-33663224D01*
X8130289Y-33541936D01*
X8322738Y-33394265D01*
X8494265Y-33222738D01*
X8641936Y-33030289D01*
X8763224Y-32820212D01*
X8856054Y-32596100D01*
X8918838Y-32361789D01*
X8950500Y-32121288D01*
X8950500Y-31878712D01*
X8918838Y-31638211D01*
X8856054Y-31403900D01*
X8763224Y-31179788D01*
X8641936Y-30969711D01*
X8494265Y-30777262D01*
X8494260Y-30777256D01*
X8322743Y-30605739D01*
X8322736Y-30605733D01*
X8130293Y-30458067D01*
X8130292Y-30458066D01*
X8130289Y-30458064D01*
X7920212Y-30336776D01*
X7898907Y-30327951D01*
X7696104Y-30243947D01*
X7461785Y-30181161D01*
X7221289Y-30149500D01*
X7221288Y-30149500D01*
X6378712Y-30149500D01*
X6378711Y-30149500D01*
X6138214Y-30181161D01*
X5903895Y-30243947D01*
X5679794Y-30336773D01*
X5679785Y-30336777D01*
X5469706Y-30458067D01*
X5277263Y-30605733D01*
X5277256Y-30605739D01*
X5105739Y-30777256D01*
X5105733Y-30777263D01*
X4958067Y-30969706D01*
X4836777Y-31179785D01*
X4836773Y-31179794D01*
X4743947Y-31403895D01*
X4681161Y-31638214D01*
X4649500Y-31878711D01*
X400500Y-31878711D01*
X400500Y-29889778D01*
X18599500Y-29889778D01*
X18599500Y-30110221D01*
X18633985Y-30327952D01*
X18702103Y-30537603D01*
X18702104Y-30537606D01*
X18802187Y-30734025D01*
X18931752Y-30912358D01*
X18931756Y-30912363D01*
X19087636Y-31068243D01*
X19087641Y-31068247D01*
X19241162Y-31179785D01*
X19265978Y-31197815D01*
X19394375Y-31263237D01*
X19462393Y-31297895D01*
X19462396Y-31297896D01*
X19567221Y-31331955D01*
X19672049Y-31366015D01*
X19889778Y-31400500D01*
X19889779Y-31400500D01*
X20110221Y-31400500D01*
X20110222Y-31400500D01*
X20327951Y-31366015D01*
X20537606Y-31297895D01*
X20734022Y-31197815D01*
X20912365Y-31068242D01*
X21068242Y-30912365D01*
X21113565Y-30849983D01*
X32849500Y-30849983D01*
X32849500Y-33150001D01*
X32849501Y-33150018D01*
X32860000Y-33252796D01*
X32860001Y-33252799D01*
X32906877Y-33394260D01*
X32915186Y-33419334D01*
X33007288Y-33568656D01*
X33131344Y-33692712D01*
X33280666Y-33784814D01*
X33447203Y-33839999D01*
X33549991Y-33850500D01*
X36450008Y-33850499D01*
X36552797Y-33839999D01*
X36719334Y-33784814D01*
X36868656Y-33692712D01*
X36992712Y-33568656D01*
X37084814Y-33419334D01*
X37139999Y-33252797D01*
X37150500Y-33150009D01*
X37150499Y-30849992D01*
X37139999Y-30747203D01*
X37084814Y-30580666D01*
X36992712Y-30431344D01*
X36868656Y-30307288D01*
X36719334Y-30215186D01*
X36552797Y-30160001D01*
X36552795Y-30160000D01*
X36450010Y-30149500D01*
X33549998Y-30149500D01*
X33549981Y-30149501D01*
X33447203Y-30160000D01*
X33447200Y-30160001D01*
X33280668Y-30215185D01*
X33280663Y-30215187D01*
X33131342Y-30307289D01*
X33007289Y-30431342D01*
X32915187Y-30580663D01*
X32915185Y-30580668D01*
X32887349Y-30664670D01*
X32860001Y-30747203D01*
X32860001Y-30747204D01*
X32860000Y-30747204D01*
X32849500Y-30849983D01*
X21113565Y-30849983D01*
X21197815Y-30734022D01*
X21297895Y-30537606D01*
X21366015Y-30327951D01*
X21400500Y-30110222D01*
X21400500Y-29889778D01*
X43599500Y-29889778D01*
X43599500Y-30110221D01*
X43633985Y-30327952D01*
X43702103Y-30537603D01*
X43702104Y-30537606D01*
X43802187Y-30734025D01*
X43931752Y-30912358D01*
X43931756Y-30912363D01*
X44087636Y-31068243D01*
X44087641Y-31068247D01*
X44241162Y-31179785D01*
X44265978Y-31197815D01*
X44394375Y-31263237D01*
X44462393Y-31297895D01*
X44462396Y-31297896D01*
X44567221Y-31331955D01*
X44672049Y-31366015D01*
X44889778Y-31400500D01*
X44889779Y-31400500D01*
X45110221Y-31400500D01*
X45110222Y-31400500D01*
X45327951Y-31366015D01*
X45537606Y-31297895D01*
X45734022Y-31197815D01*
X45912365Y-31068242D01*
X46068242Y-30912365D01*
X46113565Y-30849983D01*
X56849500Y-30849983D01*
X56849500Y-33150001D01*
X56849501Y-33150018D01*
X56860000Y-33252796D01*
X56860001Y-33252799D01*
X56906877Y-33394260D01*
X56915186Y-33419334D01*
X57007288Y-33568656D01*
X57131344Y-33692712D01*
X57280666Y-33784814D01*
X57447203Y-33839999D01*
X57549991Y-33850500D01*
X60450008Y-33850499D01*
X60552797Y-33839999D01*
X60719334Y-33784814D01*
X60868656Y-33692712D01*
X60992712Y-33568656D01*
X61084814Y-33419334D01*
X61139999Y-33252797D01*
X61150500Y-33150009D01*
X61150499Y-30849992D01*
X61139999Y-30747203D01*
X61084814Y-30580666D01*
X60992712Y-30431344D01*
X60868656Y-30307288D01*
X60719334Y-30215186D01*
X60552797Y-30160001D01*
X60552795Y-30160000D01*
X60450010Y-30149500D01*
X57549998Y-30149500D01*
X57549981Y-30149501D01*
X57447203Y-30160000D01*
X57447200Y-30160001D01*
X57280668Y-30215185D01*
X57280663Y-30215187D01*
X57131342Y-30307289D01*
X57007289Y-30431342D01*
X56915187Y-30580663D01*
X56915185Y-30580668D01*
X56887349Y-30664670D01*
X56860001Y-30747203D01*
X56860001Y-30747204D01*
X56860000Y-30747204D01*
X56849500Y-30849983D01*
X46113565Y-30849983D01*
X46197815Y-30734022D01*
X46297895Y-30537606D01*
X46366015Y-30327951D01*
X46400500Y-30110222D01*
X46400500Y-29889778D01*
X68599500Y-29889778D01*
X68599500Y-30110221D01*
X68633985Y-30327952D01*
X68702103Y-30537603D01*
X68702104Y-30537606D01*
X68802187Y-30734025D01*
X68931752Y-30912358D01*
X68931756Y-30912363D01*
X69087636Y-31068243D01*
X69087641Y-31068247D01*
X69241162Y-31179785D01*
X69265978Y-31197815D01*
X69394375Y-31263237D01*
X69462393Y-31297895D01*
X69462396Y-31297896D01*
X69567221Y-31331955D01*
X69672049Y-31366015D01*
X69889778Y-31400500D01*
X69889779Y-31400500D01*
X70110221Y-31400500D01*
X70110222Y-31400500D01*
X70327951Y-31366015D01*
X70537606Y-31297895D01*
X70734022Y-31197815D01*
X70912365Y-31068242D01*
X71068242Y-30912365D01*
X71113565Y-30849983D01*
X80849500Y-30849983D01*
X80849500Y-33150001D01*
X80849501Y-33150018D01*
X80860000Y-33252796D01*
X80860001Y-33252799D01*
X80906877Y-33394260D01*
X80915186Y-33419334D01*
X81007288Y-33568656D01*
X81131344Y-33692712D01*
X81280666Y-33784814D01*
X81447203Y-33839999D01*
X81549991Y-33850500D01*
X84450008Y-33850499D01*
X84552797Y-33839999D01*
X84719334Y-33784814D01*
X84868656Y-33692712D01*
X84992712Y-33568656D01*
X85084814Y-33419334D01*
X85139999Y-33252797D01*
X85150500Y-33150009D01*
X85150499Y-30849992D01*
X85139999Y-30747203D01*
X85084814Y-30580666D01*
X84992712Y-30431344D01*
X84868656Y-30307288D01*
X84719334Y-30215186D01*
X84552797Y-30160001D01*
X84552795Y-30160000D01*
X84450010Y-30149500D01*
X81549998Y-30149500D01*
X81549981Y-30149501D01*
X81447203Y-30160000D01*
X81447200Y-30160001D01*
X81280668Y-30215185D01*
X81280663Y-30215187D01*
X81131342Y-30307289D01*
X81007289Y-30431342D01*
X80915187Y-30580663D01*
X80915185Y-30580668D01*
X80887349Y-30664670D01*
X80860001Y-30747203D01*
X80860001Y-30747204D01*
X80860000Y-30747204D01*
X80849500Y-30849983D01*
X71113565Y-30849983D01*
X71197815Y-30734022D01*
X71297895Y-30537606D01*
X71366015Y-30327951D01*
X71400500Y-30110222D01*
X71400500Y-29889778D01*
X71366015Y-29672049D01*
X71297895Y-29462394D01*
X71297895Y-29462393D01*
X71263237Y-29394375D01*
X71197815Y-29265978D01*
X71181260Y-29243192D01*
X71068247Y-29087641D01*
X71068243Y-29087636D01*
X70912363Y-28931756D01*
X70912358Y-28931752D01*
X70734025Y-28802187D01*
X70734024Y-28802186D01*
X70734022Y-28802185D01*
X70671096Y-28770122D01*
X70537606Y-28702104D01*
X70537603Y-28702103D01*
X70327952Y-28633985D01*
X70219086Y-28616742D01*
X70110222Y-28599500D01*
X69889778Y-28599500D01*
X69817201Y-28610995D01*
X69672047Y-28633985D01*
X69462396Y-28702103D01*
X69462393Y-28702104D01*
X69265974Y-28802187D01*
X69087641Y-28931752D01*
X69087636Y-28931756D01*
X68931756Y-29087636D01*
X68931752Y-29087641D01*
X68802187Y-29265974D01*
X68702104Y-29462393D01*
X68702103Y-29462396D01*
X68633985Y-29672047D01*
X68599500Y-29889778D01*
X46400500Y-29889778D01*
X46366015Y-29672049D01*
X46297895Y-29462394D01*
X46297895Y-29462393D01*
X46263237Y-29394375D01*
X46197815Y-29265978D01*
X46181260Y-29243192D01*
X46068247Y-29087641D01*
X46068243Y-29087636D01*
X45912363Y-28931756D01*
X45912358Y-28931752D01*
X45734025Y-28802187D01*
X45734024Y-28802186D01*
X45734022Y-28802185D01*
X45671096Y-28770122D01*
X45537606Y-28702104D01*
X45537603Y-28702103D01*
X45327952Y-28633985D01*
X45219086Y-28616742D01*
X45110222Y-28599500D01*
X44889778Y-28599500D01*
X44817201Y-28610995D01*
X44672047Y-28633985D01*
X44462396Y-28702103D01*
X44462393Y-28702104D01*
X44265974Y-28802187D01*
X44087641Y-28931752D01*
X44087636Y-28931756D01*
X43931756Y-29087636D01*
X43931752Y-29087641D01*
X43802187Y-29265974D01*
X43702104Y-29462393D01*
X43702103Y-29462396D01*
X43633985Y-29672047D01*
X43599500Y-29889778D01*
X21400500Y-29889778D01*
X21366015Y-29672049D01*
X21297895Y-29462394D01*
X21297895Y-29462393D01*
X21263237Y-29394375D01*
X21197815Y-29265978D01*
X21181260Y-29243192D01*
X21068247Y-29087641D01*
X21068243Y-29087636D01*
X20912363Y-28931756D01*
X20912358Y-28931752D01*
X20734025Y-28802187D01*
X20734024Y-28802186D01*
X20734022Y-28802185D01*
X20671096Y-28770122D01*
X20537606Y-28702104D01*
X20537603Y-28702103D01*
X20327952Y-28633985D01*
X20219086Y-28616742D01*
X20110222Y-28599500D01*
X19889778Y-28599500D01*
X19817201Y-28610995D01*
X19672047Y-28633985D01*
X19462396Y-28702103D01*
X19462393Y-28702104D01*
X19265974Y-28802187D01*
X19087641Y-28931752D01*
X19087636Y-28931756D01*
X18931756Y-29087636D01*
X18931752Y-29087641D01*
X18802187Y-29265974D01*
X18702104Y-29462393D01*
X18702103Y-29462396D01*
X18633985Y-29672047D01*
X18599500Y-29889778D01*
X400500Y-29889778D01*
X400500Y-21999998D01*
X12694532Y-21999998D01*
X12694532Y-22000001D01*
X12714364Y-22226686D01*
X12714366Y-22226697D01*
X12773258Y-22446488D01*
X12773261Y-22446497D01*
X12869431Y-22652732D01*
X12869432Y-22652734D01*
X12999954Y-22839141D01*
X13160858Y-23000045D01*
X13160861Y-23000047D01*
X13347266Y-23130568D01*
X13553504Y-23226739D01*
X13773308Y-23285635D01*
X13935230Y-23299801D01*
X13999998Y-23305468D01*
X14000000Y-23305468D01*
X14000002Y-23305468D01*
X14056673Y-23300509D01*
X14226692Y-23285635D01*
X14446496Y-23226739D01*
X14652734Y-23130568D01*
X14839139Y-23000047D01*
X15000047Y-22839139D01*
X15130568Y-22652734D01*
X15226739Y-22446496D01*
X15285635Y-22226692D01*
X15305468Y-22000000D01*
X15305468Y-21999998D01*
X22694532Y-21999998D01*
X22694532Y-22000001D01*
X22714364Y-22226686D01*
X22714366Y-22226697D01*
X22773258Y-22446488D01*
X22773261Y-22446497D01*
X22869431Y-22652732D01*
X22869432Y-22652734D01*
X22999954Y-22839141D01*
X23160858Y-23000045D01*
X23160861Y-23000047D01*
X23347266Y-23130568D01*
X23553504Y-23226739D01*
X23773308Y-23285635D01*
X23935230Y-23299801D01*
X23999998Y-23305468D01*
X24000000Y-23305468D01*
X24000002Y-23305468D01*
X24056673Y-23300509D01*
X24226692Y-23285635D01*
X24446496Y-23226739D01*
X24652734Y-23130568D01*
X24839139Y-23000047D01*
X25000047Y-22839139D01*
X25130568Y-22652734D01*
X25226739Y-22446496D01*
X25285635Y-22226692D01*
X25305468Y-22000000D01*
X25285635Y-21773308D01*
X25226739Y-21553504D01*
X25130568Y-21347266D01*
X25000047Y-21160861D01*
X25000045Y-21160858D01*
X24839141Y-20999954D01*
X24652734Y-20869432D01*
X24652732Y-20869431D01*
X24446497Y-20773261D01*
X24446488Y-20773258D01*
X24226697Y-20714366D01*
X24226693Y-20714365D01*
X24226692Y-20714365D01*
X24226691Y-20714364D01*
X24226686Y-20714364D01*
X24000002Y-20694532D01*
X23999998Y-20694532D01*
X23773313Y-20714364D01*
X23773302Y-20714366D01*
X23553511Y-20773258D01*
X23553502Y-20773261D01*
X23347267Y-20869431D01*
X23347265Y-20869432D01*
X23160858Y-20999954D01*
X22999954Y-21160858D01*
X22869432Y-21347265D01*
X22869431Y-21347267D01*
X22773261Y-21553502D01*
X22773258Y-21553511D01*
X22714366Y-21773302D01*
X22714364Y-21773313D01*
X22694532Y-21999998D01*
X15305468Y-21999998D01*
X15285635Y-21773308D01*
X15226739Y-21553504D01*
X15130568Y-21347266D01*
X15000047Y-21160861D01*
X15000045Y-21160858D01*
X14839141Y-20999954D01*
X14652734Y-20869432D01*
X14652732Y-20869431D01*
X14446497Y-20773261D01*
X14446488Y-20773258D01*
X14226697Y-20714366D01*
X14226693Y-20714365D01*
X14226692Y-20714365D01*
X14226691Y-20714364D01*
X14226686Y-20714364D01*
X14000002Y-20694532D01*
X13999998Y-20694532D01*
X13773313Y-20714364D01*
X13773302Y-20714366D01*
X13553511Y-20773258D01*
X13553502Y-20773261D01*
X13347267Y-20869431D01*
X13347265Y-20869432D01*
X13160858Y-20999954D01*
X12999954Y-21160858D01*
X12869432Y-21347265D01*
X12869431Y-21347267D01*
X12773261Y-21553502D01*
X12773258Y-21553511D01*
X12714366Y-21773302D01*
X12714364Y-21773313D01*
X12694532Y-21999998D01*
X400500Y-21999998D01*
X400500Y-20578711D01*
X36949500Y-20578711D01*
X36949500Y-21421288D01*
X36981161Y-21661785D01*
X37043947Y-21896104D01*
X37086983Y-22000001D01*
X37136776Y-22120212D01*
X37258064Y-22330289D01*
X37258066Y-22330292D01*
X37258067Y-22330293D01*
X37405733Y-22522736D01*
X37405739Y-22522743D01*
X37577256Y-22694260D01*
X37577263Y-22694266D01*
X37609935Y-22719336D01*
X37769711Y-22841936D01*
X37979788Y-22963224D01*
X38203900Y-23056054D01*
X38438211Y-23118838D01*
X38598940Y-23139998D01*
X38678711Y-23150500D01*
X38678712Y-23150500D01*
X38921289Y-23150500D01*
X39001052Y-23139999D01*
X39161789Y-23118838D01*
X39362466Y-23065066D01*
X39432314Y-23066729D01*
X39482239Y-23097160D01*
X40562215Y-24177137D01*
X40562219Y-24177140D01*
X40726079Y-24286628D01*
X40726085Y-24286631D01*
X40726086Y-24286632D01*
X40908165Y-24362052D01*
X41101455Y-24400500D01*
X41101458Y-24400501D01*
X41101460Y-24400501D01*
X41304655Y-24400501D01*
X41304675Y-24400500D01*
X44698542Y-24400500D01*
X44717870Y-24396655D01*
X44795188Y-24381275D01*
X44891836Y-24362051D01*
X44945165Y-24339961D01*
X45073914Y-24286632D01*
X45237782Y-24177139D01*
X45377139Y-24037782D01*
X45377140Y-24037779D01*
X45384206Y-24030714D01*
X45384209Y-24030710D01*
X45737778Y-23677141D01*
X45737782Y-23677139D01*
X45877139Y-23537782D01*
X45986632Y-23373914D01*
X46039961Y-23245165D01*
X46062051Y-23191836D01*
X46083339Y-23084814D01*
X46101689Y-22992566D01*
X46104375Y-22993100D01*
X46126034Y-22939276D01*
X46183020Y-22898848D01*
X46252816Y-22895646D01*
X46285370Y-22908712D01*
X46379784Y-22963222D01*
X46379785Y-22963222D01*
X46379788Y-22963224D01*
X46603900Y-23056054D01*
X46838211Y-23118838D01*
X46998940Y-23139998D01*
X47078711Y-23150500D01*
X47078712Y-23150500D01*
X47321289Y-23150500D01*
X47401052Y-23139999D01*
X47561789Y-23118838D01*
X47796100Y-23056054D01*
X48020212Y-22963224D01*
X48230289Y-22841936D01*
X48422738Y-22694265D01*
X48594265Y-22522738D01*
X48741936Y-22330289D01*
X48863224Y-22120212D01*
X48956054Y-21896100D01*
X49018838Y-21661789D01*
X49050500Y-21421288D01*
X49050500Y-20578712D01*
X49018838Y-20338211D01*
X48956054Y-20103900D01*
X48863224Y-19879788D01*
X48741936Y-19669711D01*
X48594265Y-19477262D01*
X48594260Y-19477256D01*
X48422743Y-19305739D01*
X48422736Y-19305733D01*
X48230293Y-19158067D01*
X48230292Y-19158066D01*
X48230289Y-19158064D01*
X48020212Y-19036776D01*
X48020200Y-19036770D01*
X47966581Y-19014561D01*
X47912177Y-18970721D01*
X47890112Y-18904427D01*
X47907391Y-18836727D01*
X47958528Y-18789116D01*
X47966581Y-18785439D01*
X48020200Y-18763229D01*
X48020200Y-18763228D01*
X48020212Y-18763224D01*
X48230289Y-18641936D01*
X48422738Y-18494265D01*
X48594265Y-18322738D01*
X48741936Y-18130289D01*
X48863224Y-17920212D01*
X48956054Y-17696100D01*
X49018838Y-17461789D01*
X49050500Y-17221288D01*
X49050500Y-16378712D01*
X49050500Y-16378711D01*
X49549500Y-16378711D01*
X49549500Y-17221288D01*
X49581161Y-17461785D01*
X49643947Y-17696104D01*
X49736773Y-17920205D01*
X49736777Y-17920214D01*
X49752746Y-17947873D01*
X49858064Y-18130289D01*
X49858066Y-18130292D01*
X49858067Y-18130293D01*
X50005733Y-18322736D01*
X50005739Y-18322743D01*
X50177256Y-18494260D01*
X50177262Y-18494265D01*
X50369711Y-18641936D01*
X50579788Y-18763224D01*
X50610311Y-18775867D01*
X50633419Y-18785439D01*
X50687822Y-18829280D01*
X50709887Y-18895574D01*
X50692608Y-18963274D01*
X50641471Y-19010884D01*
X50633419Y-19014561D01*
X50579794Y-19036773D01*
X50579785Y-19036777D01*
X50369706Y-19158067D01*
X50177263Y-19305733D01*
X50177256Y-19305739D01*
X50005739Y-19477256D01*
X50005733Y-19477263D01*
X49858067Y-19669706D01*
X49736777Y-19879785D01*
X49736773Y-19879794D01*
X49643947Y-20103895D01*
X49581161Y-20338214D01*
X49549500Y-20578711D01*
X49549500Y-21421288D01*
X49581161Y-21661785D01*
X49643947Y-21896104D01*
X49686983Y-22000001D01*
X49736776Y-22120212D01*
X49858064Y-22330289D01*
X49858066Y-22330292D01*
X49858067Y-22330293D01*
X50005733Y-22522736D01*
X50005739Y-22522743D01*
X50177256Y-22694260D01*
X50177263Y-22694266D01*
X50209935Y-22719336D01*
X50369711Y-22841936D01*
X50579788Y-22963224D01*
X50803900Y-23056054D01*
X51038211Y-23118838D01*
X51198940Y-23139998D01*
X51278711Y-23150500D01*
X51278712Y-23150500D01*
X51521289Y-23150500D01*
X51601052Y-23139999D01*
X51761789Y-23118838D01*
X51996100Y-23056054D01*
X52220212Y-22963224D01*
X52430289Y-22841936D01*
X52622738Y-22694265D01*
X52794265Y-22522738D01*
X52941936Y-22330289D01*
X53063224Y-22120212D01*
X53156054Y-21896100D01*
X53218838Y-21661789D01*
X53250500Y-21421288D01*
X53250500Y-20615782D01*
X53270185Y-20548743D01*
X53286819Y-20528101D01*
X53569023Y-20245896D01*
X53630344Y-20212413D01*
X53700035Y-20217397D01*
X53755969Y-20259268D01*
X53780386Y-20324733D01*
X53779641Y-20349764D01*
X53749500Y-20578711D01*
X53749500Y-21421288D01*
X53781161Y-21661785D01*
X53843947Y-21896104D01*
X53886983Y-22000001D01*
X53936776Y-22120212D01*
X54058064Y-22330289D01*
X54058066Y-22330292D01*
X54058067Y-22330293D01*
X54205733Y-22522736D01*
X54205739Y-22522743D01*
X54377256Y-22694260D01*
X54377263Y-22694266D01*
X54409935Y-22719336D01*
X54569711Y-22841936D01*
X54779788Y-22963224D01*
X55003900Y-23056054D01*
X55238211Y-23118838D01*
X55398940Y-23139998D01*
X55478711Y-23150500D01*
X55478712Y-23150500D01*
X55721289Y-23150500D01*
X55801052Y-23139999D01*
X55961789Y-23118838D01*
X56196100Y-23056054D01*
X56420212Y-22963224D01*
X56630289Y-22841936D01*
X56822738Y-22694265D01*
X56994265Y-22522738D01*
X57141936Y-22330289D01*
X57263224Y-22120212D01*
X57356054Y-21896100D01*
X57418838Y-21661789D01*
X57450500Y-21421288D01*
X57450500Y-20578712D01*
X57450500Y-20578711D01*
X62149500Y-20578711D01*
X62149500Y-21421288D01*
X62181161Y-21661785D01*
X62243947Y-21896104D01*
X62286983Y-22000001D01*
X62336776Y-22120212D01*
X62458064Y-22330289D01*
X62458066Y-22330292D01*
X62458067Y-22330293D01*
X62605733Y-22522736D01*
X62605739Y-22522743D01*
X62777256Y-22694260D01*
X62777263Y-22694266D01*
X62809935Y-22719336D01*
X62969711Y-22841936D01*
X63179788Y-22963224D01*
X63403900Y-23056054D01*
X63638211Y-23118838D01*
X63798940Y-23139998D01*
X63878711Y-23150500D01*
X63878712Y-23150500D01*
X64121289Y-23150500D01*
X64201052Y-23139999D01*
X64361789Y-23118838D01*
X64596100Y-23056054D01*
X64820212Y-22963224D01*
X65030289Y-22841936D01*
X65222738Y-22694265D01*
X65394265Y-22522738D01*
X65541936Y-22330289D01*
X65663224Y-22120212D01*
X65756054Y-21896100D01*
X65818838Y-21661789D01*
X65850500Y-21421288D01*
X65850500Y-20578712D01*
X65818838Y-20338211D01*
X65756054Y-20103900D01*
X65663224Y-19879788D01*
X65541936Y-19669711D01*
X65394265Y-19477262D01*
X65394260Y-19477256D01*
X65222743Y-19305739D01*
X65222736Y-19305733D01*
X65030293Y-19158067D01*
X65030292Y-19158066D01*
X65030289Y-19158064D01*
X64820212Y-19036776D01*
X64820198Y-19036770D01*
X64596104Y-18943947D01*
X64361785Y-18881161D01*
X64121289Y-18849500D01*
X64121288Y-18849500D01*
X63878712Y-18849500D01*
X63878711Y-18849500D01*
X63638214Y-18881161D01*
X63403895Y-18943947D01*
X63179794Y-19036773D01*
X63179785Y-19036777D01*
X62969706Y-19158067D01*
X62777263Y-19305733D01*
X62777256Y-19305739D01*
X62605739Y-19477256D01*
X62605733Y-19477263D01*
X62458067Y-19669706D01*
X62336777Y-19879785D01*
X62336773Y-19879794D01*
X62243947Y-20103895D01*
X62181161Y-20338214D01*
X62149500Y-20578711D01*
X57450500Y-20578711D01*
X57418838Y-20338211D01*
X57356054Y-20103900D01*
X57263224Y-19879788D01*
X57141936Y-19669711D01*
X56994265Y-19477262D01*
X56994260Y-19477256D01*
X56822743Y-19305739D01*
X56822736Y-19305733D01*
X56630293Y-19158067D01*
X56630292Y-19158066D01*
X56630289Y-19158064D01*
X56420212Y-19036776D01*
X56420200Y-19036770D01*
X56366581Y-19014561D01*
X56312177Y-18970721D01*
X56290112Y-18904427D01*
X56307391Y-18836727D01*
X56358528Y-18789116D01*
X56366581Y-18785439D01*
X56420200Y-18763229D01*
X56420200Y-18763228D01*
X56420212Y-18763224D01*
X56630289Y-18641936D01*
X56822738Y-18494265D01*
X56994265Y-18322738D01*
X57141936Y-18130289D01*
X57263224Y-17920212D01*
X57356054Y-17696100D01*
X57418838Y-17461789D01*
X57450500Y-17221288D01*
X57450500Y-16378712D01*
X57450500Y-16378711D01*
X70549500Y-16378711D01*
X70549500Y-17221288D01*
X70581161Y-17461785D01*
X70643947Y-17696104D01*
X70736773Y-17920205D01*
X70736777Y-17920214D01*
X70752746Y-17947873D01*
X70858064Y-18130289D01*
X70858066Y-18130292D01*
X70858067Y-18130293D01*
X71005733Y-18322736D01*
X71005739Y-18322743D01*
X71177256Y-18494260D01*
X71177262Y-18494265D01*
X71369711Y-18641936D01*
X71579788Y-18763224D01*
X71610311Y-18775867D01*
X71633419Y-18785439D01*
X71687822Y-18829280D01*
X71709887Y-18895574D01*
X71692608Y-18963274D01*
X71641471Y-19010884D01*
X71633419Y-19014561D01*
X71579794Y-19036773D01*
X71579785Y-19036777D01*
X71369706Y-19158067D01*
X71177263Y-19305733D01*
X71177256Y-19305739D01*
X71005739Y-19477256D01*
X71005733Y-19477263D01*
X70858067Y-19669706D01*
X70736777Y-19879785D01*
X70736773Y-19879794D01*
X70643947Y-20103895D01*
X70581161Y-20338214D01*
X70549500Y-20578711D01*
X70549500Y-21421288D01*
X70581161Y-21661785D01*
X70643947Y-21896104D01*
X70686983Y-22000001D01*
X70736776Y-22120212D01*
X70858064Y-22330289D01*
X70858066Y-22330292D01*
X70858067Y-22330293D01*
X71005733Y-22522736D01*
X71005739Y-22522743D01*
X71177256Y-22694260D01*
X71177263Y-22694266D01*
X71209935Y-22719336D01*
X71369711Y-22841936D01*
X71579788Y-22963224D01*
X71803900Y-23056054D01*
X72038211Y-23118838D01*
X72198940Y-23139998D01*
X72278711Y-23150500D01*
X72278712Y-23150500D01*
X72521289Y-23150500D01*
X72601052Y-23139999D01*
X72761789Y-23118838D01*
X72996100Y-23056054D01*
X73220212Y-22963224D01*
X73430289Y-22841936D01*
X73622738Y-22694265D01*
X73794265Y-22522738D01*
X73941936Y-22330289D01*
X74063224Y-22120212D01*
X74156054Y-21896100D01*
X74218838Y-21661789D01*
X74250500Y-21421288D01*
X74250500Y-20578712D01*
X74218838Y-20338211D01*
X74156054Y-20103900D01*
X74063224Y-19879788D01*
X73941936Y-19669711D01*
X73794265Y-19477262D01*
X73794260Y-19477256D01*
X73622743Y-19305739D01*
X73622736Y-19305733D01*
X73430293Y-19158067D01*
X73430292Y-19158066D01*
X73430289Y-19158064D01*
X73220212Y-19036776D01*
X73220200Y-19036770D01*
X73166581Y-19014561D01*
X73112177Y-18970721D01*
X73090112Y-18904427D01*
X73107391Y-18836727D01*
X73158528Y-18789116D01*
X73166581Y-18785439D01*
X73220200Y-18763229D01*
X73220200Y-18763228D01*
X73220212Y-18763224D01*
X73430289Y-18641936D01*
X73622738Y-18494265D01*
X73794265Y-18322738D01*
X73941936Y-18130289D01*
X74063224Y-17920212D01*
X74156054Y-17696100D01*
X74218838Y-17461789D01*
X74250500Y-17221288D01*
X74250500Y-16378712D01*
X74246554Y-16348742D01*
X74242584Y-16318586D01*
X74218838Y-16138211D01*
X74156054Y-15903900D01*
X74063224Y-15679788D01*
X73941936Y-15469711D01*
X73794265Y-15277262D01*
X73794260Y-15277256D01*
X73622743Y-15105739D01*
X73622736Y-15105733D01*
X73430293Y-14958067D01*
X73430292Y-14958066D01*
X73430289Y-14958064D01*
X73238381Y-14847266D01*
X73220214Y-14836777D01*
X73220205Y-14836773D01*
X72996104Y-14743947D01*
X72761785Y-14681161D01*
X72521289Y-14649500D01*
X72521288Y-14649500D01*
X72278712Y-14649500D01*
X72278711Y-14649500D01*
X72038214Y-14681161D01*
X71803895Y-14743947D01*
X71579794Y-14836773D01*
X71579785Y-14836777D01*
X71369706Y-14958067D01*
X71177263Y-15105733D01*
X71177256Y-15105739D01*
X71005739Y-15277256D01*
X71005733Y-15277263D01*
X70858067Y-15469706D01*
X70736777Y-15679785D01*
X70736773Y-15679794D01*
X70643947Y-15903895D01*
X70581161Y-16138214D01*
X70549500Y-16378711D01*
X57450500Y-16378711D01*
X57446554Y-16348742D01*
X57442584Y-16318586D01*
X57418838Y-16138211D01*
X57356054Y-15903900D01*
X57263224Y-15679788D01*
X57141936Y-15469711D01*
X56994265Y-15277262D01*
X56994260Y-15277256D01*
X56929185Y-15212181D01*
X56895700Y-15150858D01*
X56900684Y-15081166D01*
X56942556Y-15025233D01*
X57008020Y-15000816D01*
X57016866Y-15000500D01*
X58098542Y-15000500D01*
X58117870Y-14996655D01*
X58195188Y-14981275D01*
X58291836Y-14962051D01*
X58345165Y-14939961D01*
X58473914Y-14886632D01*
X58637782Y-14777139D01*
X58777139Y-14637782D01*
X58777139Y-14637780D01*
X58787347Y-14627573D01*
X58787348Y-14627570D01*
X67690873Y-5724046D01*
X67752194Y-5690563D01*
X67797028Y-5689114D01*
X67872565Y-5700500D01*
X67872571Y-5700500D01*
X68127435Y-5700500D01*
X68379458Y-5662513D01*
X68623004Y-5587389D01*
X68852634Y-5476805D01*
X69063217Y-5333232D01*
X69250050Y-5159877D01*
X69408959Y-4960612D01*
X69536393Y-4739888D01*
X69629508Y-4502637D01*
X69686222Y-4254157D01*
X69705268Y-4000000D01*
X69686222Y-3745843D01*
X69629508Y-3497363D01*
X69536393Y-3260112D01*
X69536388Y-3260103D01*
X69522761Y-3236499D01*
X69506288Y-3168599D01*
X69529141Y-3102572D01*
X69584062Y-3059382D01*
X69630148Y-3050500D01*
X73369852Y-3050500D01*
X73436891Y-3070185D01*
X73482646Y-3122989D01*
X73492590Y-3192147D01*
X73477239Y-3236499D01*
X73463611Y-3260103D01*
X73463606Y-3260113D01*
X73370492Y-3497362D01*
X73370490Y-3497369D01*
X73313777Y-3745845D01*
X73294732Y-3999995D01*
X73294732Y-4000004D01*
X73313777Y-4254154D01*
X73326598Y-4310328D01*
X73370492Y-4502637D01*
X73463607Y-4739888D01*
X73591041Y-4960612D01*
X73749950Y-5159877D01*
X73936783Y-5333232D01*
X74147366Y-5476805D01*
X74147369Y-5476806D01*
X74147373Y-5476809D01*
X74315022Y-5557544D01*
X74376996Y-5587389D01*
X74620542Y-5662513D01*
X74872565Y-5700500D01*
X75127435Y-5700500D01*
X75379458Y-5662513D01*
X75623004Y-5587389D01*
X75852634Y-5476805D01*
X76063217Y-5333232D01*
X76250050Y-5159877D01*
X76408959Y-4960612D01*
X76536393Y-4739888D01*
X76629508Y-4502637D01*
X76686222Y-4254157D01*
X76705268Y-4000000D01*
X76686222Y-3745843D01*
X76629508Y-3497363D01*
X76536393Y-3260112D01*
X76536388Y-3260103D01*
X76522761Y-3236499D01*
X76506288Y-3168599D01*
X76529141Y-3102572D01*
X76584062Y-3059382D01*
X76630148Y-3050500D01*
X85841935Y-3050500D01*
X85908974Y-3070185D01*
X85929616Y-3086819D01*
X86413181Y-3570384D01*
X86446666Y-3631707D01*
X86449500Y-3658065D01*
X86449500Y-9684217D01*
X86429815Y-9751256D01*
X86413181Y-9771898D01*
X81482239Y-14702839D01*
X81420916Y-14736324D01*
X81362465Y-14734933D01*
X81161787Y-14681161D01*
X80921289Y-14649500D01*
X80921288Y-14649500D01*
X80678712Y-14649500D01*
X80678711Y-14649500D01*
X80438214Y-14681161D01*
X80203895Y-14743947D01*
X79979794Y-14836773D01*
X79979785Y-14836777D01*
X79769706Y-14958067D01*
X79577263Y-15105733D01*
X79577256Y-15105739D01*
X79405739Y-15277256D01*
X79405733Y-15277263D01*
X79258067Y-15469706D01*
X79136777Y-15679785D01*
X79136773Y-15679794D01*
X79043947Y-15903895D01*
X78981161Y-16138214D01*
X78949500Y-16378711D01*
X78949500Y-17221288D01*
X78981161Y-17461785D01*
X79043947Y-17696104D01*
X79136773Y-17920205D01*
X79136777Y-17920214D01*
X79152746Y-17947873D01*
X79258064Y-18130289D01*
X79258066Y-18130292D01*
X79258067Y-18130293D01*
X79405733Y-18322736D01*
X79405739Y-18322743D01*
X79577256Y-18494260D01*
X79577262Y-18494265D01*
X79769711Y-18641936D01*
X79979788Y-18763224D01*
X80010311Y-18775867D01*
X80033419Y-18785439D01*
X80087822Y-18829280D01*
X80109887Y-18895574D01*
X80092608Y-18963274D01*
X80041471Y-19010884D01*
X80033419Y-19014561D01*
X79979794Y-19036773D01*
X79979785Y-19036777D01*
X79769706Y-19158067D01*
X79577263Y-19305733D01*
X79577256Y-19305739D01*
X79405739Y-19477256D01*
X79405733Y-19477263D01*
X79258067Y-19669706D01*
X79136777Y-19879785D01*
X79136773Y-19879794D01*
X79043947Y-20103895D01*
X78981161Y-20338214D01*
X78949500Y-20578711D01*
X78949500Y-21421288D01*
X78981161Y-21661785D01*
X79043947Y-21896104D01*
X79086983Y-22000001D01*
X79136776Y-22120212D01*
X79258064Y-22330289D01*
X79258066Y-22330292D01*
X79258067Y-22330293D01*
X79405733Y-22522736D01*
X79405739Y-22522743D01*
X79577256Y-22694260D01*
X79577263Y-22694266D01*
X79609935Y-22719336D01*
X79769711Y-22841936D01*
X79979788Y-22963224D01*
X80203900Y-23056054D01*
X80438211Y-23118838D01*
X80598940Y-23139998D01*
X80678711Y-23150500D01*
X80678712Y-23150500D01*
X80921289Y-23150500D01*
X81001052Y-23139999D01*
X81161789Y-23118838D01*
X81396100Y-23056054D01*
X81620212Y-22963224D01*
X81830289Y-22841936D01*
X82022738Y-22694265D01*
X82194265Y-22522738D01*
X82341936Y-22330289D01*
X82463224Y-22120212D01*
X82556054Y-21896100D01*
X82618838Y-21661789D01*
X82650500Y-21421288D01*
X82650500Y-20578712D01*
X82618838Y-20338211D01*
X82556054Y-20103900D01*
X82463224Y-19879788D01*
X82341936Y-19669711D01*
X82194265Y-19477262D01*
X82194260Y-19477256D01*
X82022743Y-19305739D01*
X82022736Y-19305733D01*
X81830293Y-19158067D01*
X81830292Y-19158066D01*
X81830289Y-19158064D01*
X81620212Y-19036776D01*
X81620200Y-19036770D01*
X81566581Y-19014561D01*
X81512177Y-18970721D01*
X81490112Y-18904427D01*
X81507391Y-18836727D01*
X81558528Y-18789116D01*
X81566581Y-18785439D01*
X81620200Y-18763229D01*
X81620200Y-18763228D01*
X81620212Y-18763224D01*
X81830289Y-18641936D01*
X82022738Y-18494265D01*
X82194265Y-18322738D01*
X82341936Y-18130289D01*
X82463224Y-17920212D01*
X82556054Y-17696100D01*
X82618838Y-17461789D01*
X82650500Y-17221288D01*
X82650500Y-16415781D01*
X82670185Y-16348742D01*
X82686819Y-16328100D01*
X82969023Y-16045895D01*
X83030344Y-16012412D01*
X83100035Y-16017396D01*
X83155969Y-16059267D01*
X83180386Y-16124732D01*
X83179641Y-16149763D01*
X83149500Y-16378711D01*
X83149500Y-17221288D01*
X83181161Y-17461785D01*
X83243947Y-17696104D01*
X83336773Y-17920205D01*
X83336777Y-17920214D01*
X83352746Y-17947873D01*
X83458064Y-18130289D01*
X83458066Y-18130292D01*
X83458067Y-18130293D01*
X83605733Y-18322736D01*
X83605739Y-18322743D01*
X83777256Y-18494260D01*
X83777263Y-18494266D01*
X83950408Y-18627124D01*
X83991611Y-18683552D01*
X83995766Y-18753298D01*
X83961554Y-18814218D01*
X83899837Y-18846971D01*
X83874926Y-18849500D01*
X83850001Y-18849500D01*
X83849980Y-18849501D01*
X83747203Y-18860000D01*
X83747200Y-18860001D01*
X83580668Y-18915185D01*
X83580663Y-18915187D01*
X83431342Y-19007289D01*
X83307289Y-19131342D01*
X83215187Y-19280663D01*
X83215185Y-19280668D01*
X83187349Y-19364670D01*
X83160001Y-19447203D01*
X83160001Y-19447204D01*
X83160000Y-19447204D01*
X83149500Y-19549983D01*
X83149500Y-22450001D01*
X83149501Y-22450018D01*
X83160000Y-22552796D01*
X83160001Y-22552799D01*
X83193116Y-22652732D01*
X83215186Y-22719334D01*
X83307288Y-22868656D01*
X83431344Y-22992712D01*
X83580666Y-23084814D01*
X83747203Y-23139999D01*
X83849991Y-23150500D01*
X86150008Y-23150499D01*
X86252797Y-23139999D01*
X86419334Y-23084814D01*
X86568656Y-22992712D01*
X86692712Y-22868656D01*
X86784814Y-22719334D01*
X86839999Y-22552797D01*
X86850500Y-22450009D01*
X86850499Y-19549992D01*
X86839999Y-19447203D01*
X86784814Y-19280666D01*
X86692712Y-19131344D01*
X86568656Y-19007288D01*
X86419334Y-18915186D01*
X86252797Y-18860001D01*
X86252795Y-18860000D01*
X86150016Y-18849500D01*
X86150009Y-18849500D01*
X86125079Y-18849500D01*
X86058040Y-18829815D01*
X86012285Y-18777011D01*
X86002341Y-18707853D01*
X86031366Y-18644297D01*
X86049593Y-18627124D01*
X86128619Y-18566484D01*
X86222738Y-18494265D01*
X86394265Y-18322738D01*
X86541936Y-18130289D01*
X86663224Y-17920212D01*
X86756054Y-17696100D01*
X86818838Y-17461789D01*
X86850500Y-17221288D01*
X86850500Y-16378712D01*
X86846554Y-16348742D01*
X86842584Y-16318586D01*
X86818838Y-16138211D01*
X86756054Y-15903900D01*
X86663224Y-15679788D01*
X86541936Y-15469711D01*
X86394265Y-15277262D01*
X86394260Y-15277256D01*
X86222743Y-15105739D01*
X86222736Y-15105733D01*
X86030293Y-14958067D01*
X86030292Y-14958066D01*
X86030289Y-14958064D01*
X85838381Y-14847266D01*
X85820214Y-14836777D01*
X85820205Y-14836773D01*
X85596104Y-14743947D01*
X85361785Y-14681161D01*
X85121289Y-14649500D01*
X85121288Y-14649500D01*
X84878712Y-14649500D01*
X84878711Y-14649500D01*
X84649763Y-14679641D01*
X84580728Y-14668875D01*
X84528472Y-14622495D01*
X84509587Y-14555226D01*
X84530068Y-14488426D01*
X84545892Y-14469026D01*
X88087778Y-10927141D01*
X88087782Y-10927139D01*
X88227139Y-10787782D01*
X88336632Y-10623914D01*
X88412051Y-10441835D01*
X88450500Y-10248541D01*
X88450500Y-3093742D01*
X88450500Y-3093739D01*
X88412052Y-2900454D01*
X88412051Y-2900448D01*
X88411658Y-2899500D01*
X88350615Y-2752128D01*
X88336632Y-2718369D01*
X88319358Y-2692516D01*
X88227139Y-2554500D01*
X88084686Y-2412047D01*
X88084655Y-2412018D01*
X87089196Y-1416559D01*
X87089176Y-1416537D01*
X86945502Y-1272863D01*
X86945498Y-1272860D01*
X86781633Y-1163369D01*
X86781628Y-1163366D01*
X86709032Y-1133296D01*
X86652882Y-1110038D01*
X86599553Y-1087949D01*
X86599549Y-1087948D01*
X86599545Y-1087946D01*
X86502905Y-1068724D01*
X86406261Y-1049500D01*
X86406258Y-1049500D01*
X63048540Y-1049500D01*
X62851459Y-1049500D01*
X62851456Y-1049500D01*
X62658171Y-1087946D01*
X62658167Y-1087948D01*
X62658165Y-1087948D01*
X62658164Y-1087949D01*
X62582745Y-1119188D01*
X62582743Y-1119189D01*
X62476085Y-1163368D01*
X62476085Y-1163369D01*
X62476084Y-1163369D01*
X62312222Y-1272857D01*
X62312214Y-1272863D01*
X61321897Y-2263181D01*
X61260574Y-2296666D01*
X61234216Y-2299500D01*
X59752129Y-2299500D01*
X59752123Y-2299501D01*
X59692516Y-2305908D01*
X59557671Y-2356202D01*
X59557664Y-2356206D01*
X59442455Y-2442452D01*
X59442452Y-2442455D01*
X59356206Y-2557664D01*
X59356202Y-2557671D01*
X59305908Y-2692517D01*
X59299501Y-2752116D01*
X59299500Y-2752130D01*
X59299500Y-5247870D01*
X59299501Y-5247876D01*
X59305908Y-5307483D01*
X59356202Y-5442328D01*
X59356206Y-5442335D01*
X59442452Y-5557544D01*
X59442455Y-5557547D01*
X59557664Y-5643793D01*
X59557671Y-5643797D01*
X59692517Y-5694091D01*
X59692516Y-5694091D01*
X59699444Y-5694835D01*
X59752127Y-5700500D01*
X62247872Y-5700499D01*
X62307483Y-5694091D01*
X62442331Y-5643796D01*
X62557546Y-5557546D01*
X62643796Y-5442331D01*
X62694091Y-5307483D01*
X62700500Y-5247873D01*
X62700499Y-3765782D01*
X62720184Y-3698744D01*
X62736818Y-3678102D01*
X63328102Y-3086819D01*
X63389425Y-3053334D01*
X63415783Y-3050500D01*
X66369852Y-3050500D01*
X66436891Y-3070185D01*
X66482646Y-3122989D01*
X66492590Y-3192147D01*
X66477239Y-3236499D01*
X66463611Y-3260103D01*
X66463606Y-3260113D01*
X66370492Y-3497362D01*
X66370490Y-3497369D01*
X66313777Y-3745845D01*
X66294732Y-3999995D01*
X66294732Y-4000004D01*
X66310721Y-4213381D01*
X66296101Y-4281704D01*
X66274749Y-4310328D01*
X57621899Y-12963181D01*
X57560576Y-12996666D01*
X57534218Y-12999500D01*
X54881607Y-12999500D01*
X54784964Y-13018724D01*
X54688319Y-13037947D01*
X54688313Y-13037949D01*
X54634986Y-13060037D01*
X54634986Y-13060038D01*
X54589467Y-13078892D01*
X54506241Y-13113366D01*
X54506231Y-13113371D01*
X54342371Y-13222859D01*
X54272692Y-13292538D01*
X54203013Y-13362218D01*
X54203010Y-13362221D01*
X52862221Y-14703010D01*
X52862218Y-14703013D01*
X52821285Y-14743946D01*
X52722859Y-14842371D01*
X52646148Y-14957178D01*
X52592536Y-15001983D01*
X52523211Y-15010690D01*
X52467561Y-14986664D01*
X52430289Y-14958064D01*
X52238381Y-14847266D01*
X52220214Y-14836777D01*
X52220205Y-14836773D01*
X51996104Y-14743947D01*
X51761785Y-14681161D01*
X51521289Y-14649500D01*
X51521288Y-14649500D01*
X51278712Y-14649500D01*
X51278711Y-14649500D01*
X51038214Y-14681161D01*
X50803895Y-14743947D01*
X50579794Y-14836773D01*
X50579785Y-14836777D01*
X50369706Y-14958067D01*
X50177263Y-15105733D01*
X50177256Y-15105739D01*
X50005739Y-15277256D01*
X50005733Y-15277263D01*
X49858067Y-15469706D01*
X49736777Y-15679785D01*
X49736773Y-15679794D01*
X49643947Y-15903895D01*
X49581161Y-16138214D01*
X49549500Y-16378711D01*
X49050500Y-16378711D01*
X49046554Y-16348742D01*
X49042584Y-16318586D01*
X49018838Y-16138211D01*
X48956054Y-15903900D01*
X48863224Y-15679788D01*
X48741936Y-15469711D01*
X48594265Y-15277262D01*
X48594260Y-15277256D01*
X48422743Y-15105739D01*
X48422736Y-15105733D01*
X48230293Y-14958067D01*
X48230292Y-14958066D01*
X48230289Y-14958064D01*
X48038381Y-14847266D01*
X48020214Y-14836777D01*
X48020205Y-14836773D01*
X47796104Y-14743947D01*
X47561785Y-14681161D01*
X47321289Y-14649500D01*
X47321288Y-14649500D01*
X47078712Y-14649500D01*
X47078711Y-14649500D01*
X46838214Y-14681161D01*
X46603895Y-14743947D01*
X46379794Y-14836773D01*
X46379789Y-14836775D01*
X46286499Y-14890636D01*
X46218599Y-14907108D01*
X46152572Y-14884255D01*
X46109382Y-14829333D01*
X46100500Y-14783248D01*
X46100500Y-6365782D01*
X46120185Y-6298743D01*
X46136819Y-6278101D01*
X46690873Y-5724046D01*
X46752194Y-5690563D01*
X46797028Y-5689114D01*
X46872565Y-5700500D01*
X46872571Y-5700500D01*
X47127435Y-5700500D01*
X47379458Y-5662513D01*
X47623004Y-5587389D01*
X47852634Y-5476805D01*
X48063217Y-5333232D01*
X48250050Y-5159877D01*
X48408959Y-4960612D01*
X48536393Y-4739888D01*
X48629508Y-4502637D01*
X48686222Y-4254157D01*
X48705268Y-4000000D01*
X48705268Y-3999995D01*
X52294732Y-3999995D01*
X52294732Y-4000004D01*
X52313777Y-4254154D01*
X52326598Y-4310328D01*
X52370492Y-4502637D01*
X52463607Y-4739888D01*
X52591041Y-4960612D01*
X52749950Y-5159877D01*
X52936783Y-5333232D01*
X53147366Y-5476805D01*
X53147369Y-5476806D01*
X53147373Y-5476809D01*
X53315022Y-5557544D01*
X53376996Y-5587389D01*
X53620542Y-5662513D01*
X53872565Y-5700500D01*
X54127435Y-5700500D01*
X54379458Y-5662513D01*
X54623004Y-5587389D01*
X54852634Y-5476805D01*
X55063217Y-5333232D01*
X55250050Y-5159877D01*
X55408959Y-4960612D01*
X55536393Y-4739888D01*
X55629508Y-4502637D01*
X55686222Y-4254157D01*
X55705268Y-4000000D01*
X55686222Y-3745843D01*
X55629508Y-3497363D01*
X55536393Y-3260112D01*
X55408959Y-3039388D01*
X55250050Y-2840123D01*
X55063217Y-2666768D01*
X54852634Y-2523195D01*
X54852630Y-2523193D01*
X54852627Y-2523191D01*
X54852626Y-2523190D01*
X54623006Y-2412612D01*
X54623008Y-2412612D01*
X54379466Y-2337489D01*
X54379462Y-2337488D01*
X54379458Y-2337487D01*
X54258231Y-2319214D01*
X54127440Y-2299500D01*
X54127435Y-2299500D01*
X53872565Y-2299500D01*
X53872559Y-2299500D01*
X53715609Y-2323157D01*
X53620542Y-2337487D01*
X53620539Y-2337488D01*
X53620533Y-2337489D01*
X53376992Y-2412612D01*
X53147373Y-2523190D01*
X53147372Y-2523191D01*
X52936782Y-2666768D01*
X52749952Y-2840121D01*
X52749950Y-2840123D01*
X52591041Y-3039388D01*
X52463608Y-3260109D01*
X52370492Y-3497362D01*
X52370490Y-3497369D01*
X52313777Y-3745845D01*
X52294732Y-3999995D01*
X48705268Y-3999995D01*
X48686222Y-3745843D01*
X48629508Y-3497363D01*
X48536393Y-3260112D01*
X48408959Y-3039388D01*
X48250050Y-2840123D01*
X48063217Y-2666768D01*
X47852634Y-2523195D01*
X47852630Y-2523193D01*
X47852627Y-2523191D01*
X47852626Y-2523190D01*
X47623006Y-2412612D01*
X47623008Y-2412612D01*
X47379466Y-2337489D01*
X47379462Y-2337488D01*
X47379458Y-2337487D01*
X47258231Y-2319214D01*
X47127440Y-2299500D01*
X47127435Y-2299500D01*
X46872565Y-2299500D01*
X46872559Y-2299500D01*
X46715609Y-2323157D01*
X46620542Y-2337487D01*
X46620539Y-2337488D01*
X46620533Y-2337489D01*
X46376992Y-2412612D01*
X46147373Y-2523190D01*
X46147372Y-2523191D01*
X45936782Y-2666768D01*
X45749952Y-2840121D01*
X45749950Y-2840123D01*
X45591041Y-3039388D01*
X45463608Y-3260109D01*
X45370492Y-3497362D01*
X45370490Y-3497369D01*
X45313777Y-3745845D01*
X45294732Y-3999995D01*
X45294732Y-4000004D01*
X45310721Y-4213381D01*
X45296101Y-4281704D01*
X45274749Y-4310328D01*
X44624468Y-4960611D01*
X44462220Y-5122859D01*
X44462218Y-5122861D01*
X44425203Y-5159876D01*
X44322859Y-5262219D01*
X44213371Y-5426080D01*
X44213369Y-5426084D01*
X44213368Y-5426086D01*
X44192360Y-5476805D01*
X44146556Y-5587387D01*
X44146554Y-5587392D01*
X44137950Y-5608160D01*
X44137947Y-5608169D01*
X44099500Y-5801456D01*
X44099500Y-6435891D01*
X44079815Y-6502930D01*
X44027011Y-6548685D01*
X43957853Y-6558629D01*
X43894297Y-6529604D01*
X43872398Y-6504782D01*
X43777140Y-6362219D01*
X43777137Y-6362215D01*
X41725250Y-4310329D01*
X41691765Y-4249006D01*
X41689278Y-4213382D01*
X41705268Y-4000004D01*
X41705268Y-3999995D01*
X41686222Y-3745845D01*
X41670760Y-3678102D01*
X41629508Y-3497363D01*
X41536393Y-3260112D01*
X41408959Y-3039388D01*
X41250050Y-2840123D01*
X41063217Y-2666768D01*
X40852634Y-2523195D01*
X40852630Y-2523193D01*
X40852627Y-2523191D01*
X40852626Y-2523190D01*
X40623006Y-2412612D01*
X40623008Y-2412612D01*
X40379466Y-2337489D01*
X40379462Y-2337488D01*
X40379458Y-2337487D01*
X40258231Y-2319214D01*
X40127440Y-2299500D01*
X40127435Y-2299500D01*
X39872565Y-2299500D01*
X39872559Y-2299500D01*
X39715609Y-2323157D01*
X39620542Y-2337487D01*
X39620539Y-2337488D01*
X39620533Y-2337489D01*
X39376992Y-2412612D01*
X39147373Y-2523190D01*
X39147372Y-2523191D01*
X38936782Y-2666768D01*
X38749952Y-2840121D01*
X38749950Y-2840123D01*
X38591041Y-3039388D01*
X38463608Y-3260109D01*
X38370492Y-3497362D01*
X38370490Y-3497369D01*
X38313777Y-3745845D01*
X38294732Y-3999995D01*
X38294732Y-4000004D01*
X38313777Y-4254154D01*
X38326598Y-4310328D01*
X38370492Y-4502637D01*
X38463607Y-4739888D01*
X38591041Y-4960612D01*
X38749950Y-5159877D01*
X38936783Y-5333232D01*
X39147366Y-5476805D01*
X39147369Y-5476806D01*
X39147373Y-5476809D01*
X39315022Y-5557544D01*
X39376996Y-5587389D01*
X39620542Y-5662513D01*
X39872565Y-5700500D01*
X40127429Y-5700500D01*
X40127435Y-5700500D01*
X40202968Y-5689114D01*
X40272189Y-5698586D01*
X40309128Y-5724048D01*
X41963181Y-7378101D01*
X41996666Y-7439424D01*
X41999500Y-7465782D01*
X41999500Y-14874055D01*
X41979815Y-14941094D01*
X41950987Y-14972431D01*
X41777256Y-15105739D01*
X41605739Y-15277256D01*
X41605733Y-15277263D01*
X41458067Y-15469706D01*
X41336777Y-15679785D01*
X41336773Y-15679794D01*
X41243947Y-15903895D01*
X41181161Y-16138214D01*
X41149500Y-16378711D01*
X41149500Y-17221288D01*
X41181161Y-17461785D01*
X41243947Y-17696104D01*
X41336773Y-17920205D01*
X41336777Y-17920214D01*
X41352746Y-17947873D01*
X41458064Y-18130289D01*
X41458066Y-18130292D01*
X41458067Y-18130293D01*
X41605733Y-18322736D01*
X41605739Y-18322743D01*
X41777256Y-18494260D01*
X41777262Y-18494265D01*
X41969711Y-18641936D01*
X42179788Y-18763224D01*
X42210311Y-18775867D01*
X42233419Y-18785439D01*
X42287822Y-18829280D01*
X42309887Y-18895574D01*
X42292608Y-18963274D01*
X42241471Y-19010884D01*
X42233419Y-19014561D01*
X42179794Y-19036773D01*
X42179785Y-19036777D01*
X41969706Y-19158067D01*
X41777263Y-19305733D01*
X41777256Y-19305739D01*
X41605739Y-19477256D01*
X41605733Y-19477263D01*
X41458067Y-19669706D01*
X41336777Y-19879785D01*
X41336773Y-19879794D01*
X41243947Y-20103895D01*
X41181161Y-20338214D01*
X41149500Y-20578711D01*
X41149500Y-21421288D01*
X41179640Y-21650233D01*
X41168874Y-21719269D01*
X41122494Y-21771524D01*
X41055225Y-21790409D01*
X40988424Y-21769928D01*
X40969020Y-21754099D01*
X40686819Y-21471898D01*
X40653334Y-21410575D01*
X40650500Y-21384217D01*
X40650500Y-20578711D01*
X40618838Y-20338214D01*
X40618838Y-20338211D01*
X40556054Y-20103900D01*
X40463224Y-19879788D01*
X40341936Y-19669711D01*
X40194265Y-19477262D01*
X40194260Y-19477256D01*
X40022743Y-19305739D01*
X40022736Y-19305733D01*
X39830293Y-19158067D01*
X39830292Y-19158066D01*
X39830289Y-19158064D01*
X39620212Y-19036776D01*
X39620198Y-19036770D01*
X39396104Y-18943947D01*
X39161785Y-18881161D01*
X38921289Y-18849500D01*
X38921288Y-18849500D01*
X38678712Y-18849500D01*
X38678711Y-18849500D01*
X38438214Y-18881161D01*
X38203895Y-18943947D01*
X37979794Y-19036773D01*
X37979785Y-19036777D01*
X37769706Y-19158067D01*
X37577263Y-19305733D01*
X37577256Y-19305739D01*
X37405739Y-19477256D01*
X37405733Y-19477263D01*
X37258067Y-19669706D01*
X37136777Y-19879785D01*
X37136773Y-19879794D01*
X37043947Y-20103895D01*
X36981161Y-20338214D01*
X36949500Y-20578711D01*
X400500Y-20578711D01*
X400500Y-15499998D01*
X3694532Y-15499998D01*
X3694532Y-15500001D01*
X3714364Y-15726686D01*
X3714366Y-15726697D01*
X3773258Y-15946488D01*
X3773261Y-15946497D01*
X3869431Y-16152732D01*
X3869432Y-16152734D01*
X3999954Y-16339141D01*
X4160858Y-16500045D01*
X4160861Y-16500047D01*
X4347266Y-16630568D01*
X4553504Y-16726739D01*
X4773308Y-16785635D01*
X4935230Y-16799801D01*
X4999998Y-16805468D01*
X5000000Y-16805468D01*
X5000002Y-16805468D01*
X5056673Y-16800509D01*
X5226692Y-16785635D01*
X5446496Y-16726739D01*
X5652734Y-16630568D01*
X5839139Y-16500047D01*
X6000047Y-16339139D01*
X6130568Y-16152734D01*
X6177478Y-16052135D01*
X14599500Y-16052135D01*
X14599500Y-17947870D01*
X14599501Y-17947876D01*
X14605908Y-18007483D01*
X14656202Y-18142328D01*
X14656206Y-18142335D01*
X14742452Y-18257544D01*
X14742455Y-18257547D01*
X14857664Y-18343793D01*
X14857671Y-18343797D01*
X14992517Y-18394091D01*
X14992516Y-18394091D01*
X14999444Y-18394835D01*
X15052127Y-18400500D01*
X16947872Y-18400499D01*
X17007483Y-18394091D01*
X17142331Y-18343796D01*
X17257546Y-18257546D01*
X17343796Y-18142331D01*
X17348286Y-18130293D01*
X17372455Y-18065493D01*
X17414326Y-18009559D01*
X17479790Y-17985141D01*
X17548063Y-17999992D01*
X17579866Y-18024843D01*
X17587302Y-18032920D01*
X17588215Y-18033912D01*
X17588222Y-18033918D01*
X17771365Y-18176464D01*
X17771371Y-18176468D01*
X17771374Y-18176470D01*
X17975497Y-18286936D01*
X18079779Y-18322736D01*
X18195015Y-18362297D01*
X18195017Y-18362297D01*
X18195019Y-18362298D01*
X18423951Y-18400500D01*
X18423952Y-18400500D01*
X18656048Y-18400500D01*
X18656049Y-18400500D01*
X18884981Y-18362298D01*
X19104503Y-18286936D01*
X19308626Y-18176470D01*
X19491784Y-18033913D01*
X19648979Y-17863153D01*
X19775924Y-17668849D01*
X19869157Y-17456300D01*
X19926134Y-17231305D01*
X19945300Y-17000000D01*
X19945300Y-16999993D01*
X19926135Y-16768702D01*
X19926133Y-16768691D01*
X19869157Y-16543699D01*
X19775924Y-16331151D01*
X19648983Y-16136852D01*
X19648980Y-16136849D01*
X19648979Y-16136847D01*
X19570996Y-16052135D01*
X24599500Y-16052135D01*
X24599500Y-17947870D01*
X24599501Y-17947876D01*
X24605908Y-18007483D01*
X24656202Y-18142328D01*
X24656206Y-18142335D01*
X24742452Y-18257544D01*
X24742455Y-18257547D01*
X24857664Y-18343793D01*
X24857671Y-18343797D01*
X24992517Y-18394091D01*
X24992516Y-18394091D01*
X24999444Y-18394835D01*
X25052127Y-18400500D01*
X26947872Y-18400499D01*
X27007483Y-18394091D01*
X27142331Y-18343796D01*
X27257546Y-18257546D01*
X27343796Y-18142331D01*
X27348286Y-18130293D01*
X27372455Y-18065493D01*
X27414326Y-18009559D01*
X27479790Y-17985141D01*
X27548063Y-17999992D01*
X27579866Y-18024843D01*
X27587302Y-18032920D01*
X27588215Y-18033912D01*
X27588222Y-18033918D01*
X27771365Y-18176464D01*
X27771371Y-18176468D01*
X27771374Y-18176470D01*
X27975497Y-18286936D01*
X28079779Y-18322736D01*
X28195015Y-18362297D01*
X28195017Y-18362297D01*
X28195019Y-18362298D01*
X28423951Y-18400500D01*
X28423952Y-18400500D01*
X28656048Y-18400500D01*
X28656049Y-18400500D01*
X28884981Y-18362298D01*
X29104503Y-18286936D01*
X29308626Y-18176470D01*
X29491784Y-18033913D01*
X29648979Y-17863153D01*
X29775924Y-17668849D01*
X29869157Y-17456300D01*
X29926134Y-17231305D01*
X29945300Y-17000000D01*
X29945300Y-16999993D01*
X29926135Y-16768702D01*
X29926133Y-16768691D01*
X29869157Y-16543699D01*
X29775924Y-16331151D01*
X29648983Y-16136852D01*
X29648980Y-16136849D01*
X29648979Y-16136847D01*
X29491784Y-15966087D01*
X29491779Y-15966083D01*
X29491777Y-15966081D01*
X29308634Y-15823535D01*
X29308628Y-15823531D01*
X29104504Y-15713064D01*
X29104495Y-15713061D01*
X28884984Y-15637702D01*
X28694450Y-15605908D01*
X28656049Y-15599500D01*
X28423951Y-15599500D01*
X28385550Y-15605908D01*
X28195015Y-15637702D01*
X27975504Y-15713061D01*
X27975495Y-15713064D01*
X27771371Y-15823531D01*
X27771365Y-15823535D01*
X27588222Y-15966081D01*
X27588218Y-15966085D01*
X27579866Y-15975158D01*
X27519979Y-16011148D01*
X27450141Y-16009047D01*
X27392525Y-15969522D01*
X27372455Y-15934507D01*
X27343797Y-15857671D01*
X27343793Y-15857664D01*
X27257547Y-15742455D01*
X27257544Y-15742452D01*
X27142335Y-15656206D01*
X27142328Y-15656202D01*
X27007482Y-15605908D01*
X27007483Y-15605908D01*
X26947883Y-15599501D01*
X26947881Y-15599500D01*
X26947873Y-15599500D01*
X26947864Y-15599500D01*
X25052129Y-15599500D01*
X25052123Y-15599501D01*
X24992516Y-15605908D01*
X24857671Y-15656202D01*
X24857664Y-15656206D01*
X24742455Y-15742452D01*
X24742452Y-15742455D01*
X24656206Y-15857664D01*
X24656202Y-15857671D01*
X24605908Y-15992517D01*
X24599501Y-16052116D01*
X24599500Y-16052135D01*
X19570996Y-16052135D01*
X19491784Y-15966087D01*
X19491779Y-15966083D01*
X19491777Y-15966081D01*
X19308634Y-15823535D01*
X19308628Y-15823531D01*
X19104504Y-15713064D01*
X19104495Y-15713061D01*
X18884984Y-15637702D01*
X18694450Y-15605908D01*
X18656049Y-15599500D01*
X18423951Y-15599500D01*
X18385550Y-15605908D01*
X18195015Y-15637702D01*
X17975504Y-15713061D01*
X17975495Y-15713064D01*
X17771371Y-15823531D01*
X17771365Y-15823535D01*
X17588222Y-15966081D01*
X17588218Y-15966085D01*
X17579866Y-15975158D01*
X17519979Y-16011148D01*
X17450141Y-16009047D01*
X17392525Y-15969522D01*
X17372455Y-15934507D01*
X17343797Y-15857671D01*
X17343793Y-15857664D01*
X17257547Y-15742455D01*
X17257544Y-15742452D01*
X17142335Y-15656206D01*
X17142328Y-15656202D01*
X17007482Y-15605908D01*
X17007483Y-15605908D01*
X16947883Y-15599501D01*
X16947881Y-15599500D01*
X16947873Y-15599500D01*
X16947864Y-15599500D01*
X15052129Y-15599500D01*
X15052123Y-15599501D01*
X14992516Y-15605908D01*
X14857671Y-15656202D01*
X14857664Y-15656206D01*
X14742455Y-15742452D01*
X14742452Y-15742455D01*
X14656206Y-15857664D01*
X14656202Y-15857671D01*
X14605908Y-15992517D01*
X14599501Y-16052116D01*
X14599500Y-16052135D01*
X6177478Y-16052135D01*
X6226739Y-15946496D01*
X6285635Y-15726692D01*
X6305468Y-15500000D01*
X6285635Y-15273308D01*
X6226739Y-15053504D01*
X6130568Y-14847266D01*
X6000047Y-14660861D01*
X6000045Y-14660858D01*
X5839141Y-14499954D01*
X5652734Y-14369432D01*
X5652732Y-14369431D01*
X5446497Y-14273261D01*
X5446488Y-14273258D01*
X5226697Y-14214366D01*
X5226693Y-14214365D01*
X5226692Y-14214365D01*
X5226691Y-14214364D01*
X5226686Y-14214364D01*
X5000002Y-14194532D01*
X4999998Y-14194532D01*
X4773313Y-14214364D01*
X4773302Y-14214366D01*
X4553511Y-14273258D01*
X4553502Y-14273261D01*
X4347267Y-14369431D01*
X4347265Y-14369432D01*
X4160858Y-14499954D01*
X3999954Y-14660858D01*
X3869432Y-14847265D01*
X3869431Y-14847267D01*
X3773261Y-15053502D01*
X3773258Y-15053511D01*
X3714366Y-15273302D01*
X3714364Y-15273313D01*
X3694532Y-15499998D01*
X400500Y-15499998D01*
X400500Y-2752130D01*
X3299500Y-2752130D01*
X3299500Y-5247870D01*
X3299501Y-5247876D01*
X3305908Y-5307483D01*
X3356202Y-5442328D01*
X3356206Y-5442335D01*
X3442452Y-5557544D01*
X3442455Y-5557547D01*
X3557664Y-5643793D01*
X3557671Y-5643797D01*
X3692517Y-5694091D01*
X3692516Y-5694091D01*
X3699444Y-5694835D01*
X3752127Y-5700500D01*
X6247872Y-5700499D01*
X6307483Y-5694091D01*
X6442331Y-5643796D01*
X6557546Y-5557546D01*
X6643796Y-5442331D01*
X6694091Y-5307483D01*
X6700500Y-5247873D01*
X6700499Y-3999995D01*
X10294732Y-3999995D01*
X10294732Y-4000004D01*
X10313777Y-4254154D01*
X10326598Y-4310328D01*
X10370492Y-4502637D01*
X10463607Y-4739888D01*
X10591041Y-4960612D01*
X10749950Y-5159877D01*
X10936783Y-5333232D01*
X11147366Y-5476805D01*
X11147369Y-5476806D01*
X11147373Y-5476809D01*
X11315022Y-5557544D01*
X11376996Y-5587389D01*
X11620542Y-5662513D01*
X11872565Y-5700500D01*
X12127435Y-5700500D01*
X12379458Y-5662513D01*
X12623004Y-5587389D01*
X12852634Y-5476805D01*
X13063217Y-5333232D01*
X13250050Y-5159877D01*
X13408959Y-4960612D01*
X13536393Y-4739888D01*
X13629508Y-4502637D01*
X13686222Y-4254157D01*
X13705268Y-4000000D01*
X13705268Y-3999995D01*
X17294732Y-3999995D01*
X17294732Y-4000004D01*
X17313777Y-4254154D01*
X17326598Y-4310328D01*
X17370492Y-4502637D01*
X17463607Y-4739888D01*
X17591041Y-4960612D01*
X17749950Y-5159877D01*
X17936783Y-5333232D01*
X18147366Y-5476805D01*
X18147369Y-5476806D01*
X18147373Y-5476809D01*
X18315022Y-5557544D01*
X18376996Y-5587389D01*
X18620542Y-5662513D01*
X18872565Y-5700500D01*
X19127435Y-5700500D01*
X19379458Y-5662513D01*
X19623004Y-5587389D01*
X19852634Y-5476805D01*
X20063217Y-5333232D01*
X20250050Y-5159877D01*
X20408959Y-4960612D01*
X20536393Y-4739888D01*
X20629508Y-4502637D01*
X20686222Y-4254157D01*
X20705268Y-4000000D01*
X20705268Y-3999995D01*
X24294732Y-3999995D01*
X24294732Y-4000004D01*
X24313777Y-4254154D01*
X24326598Y-4310328D01*
X24370492Y-4502637D01*
X24463607Y-4739888D01*
X24591041Y-4960612D01*
X24749950Y-5159877D01*
X24936783Y-5333232D01*
X25147366Y-5476805D01*
X25147369Y-5476806D01*
X25147373Y-5476809D01*
X25315022Y-5557544D01*
X25376996Y-5587389D01*
X25620542Y-5662513D01*
X25872565Y-5700500D01*
X26127435Y-5700500D01*
X26379458Y-5662513D01*
X26623004Y-5587389D01*
X26852634Y-5476805D01*
X27063217Y-5333232D01*
X27250050Y-5159877D01*
X27408959Y-4960612D01*
X27536393Y-4739888D01*
X27629508Y-4502637D01*
X27686222Y-4254157D01*
X27705268Y-4000000D01*
X27686222Y-3745843D01*
X27629508Y-3497363D01*
X27536393Y-3260112D01*
X27408959Y-3039388D01*
X27250050Y-2840123D01*
X27155216Y-2752130D01*
X31299500Y-2752130D01*
X31299500Y-5247870D01*
X31299501Y-5247876D01*
X31305908Y-5307483D01*
X31356202Y-5442328D01*
X31356206Y-5442335D01*
X31442452Y-5557544D01*
X31442455Y-5557547D01*
X31557664Y-5643793D01*
X31557671Y-5643797D01*
X31692517Y-5694091D01*
X31692516Y-5694091D01*
X31699444Y-5694835D01*
X31752127Y-5700500D01*
X34247872Y-5700499D01*
X34307483Y-5694091D01*
X34442331Y-5643796D01*
X34557546Y-5557546D01*
X34643796Y-5442331D01*
X34694091Y-5307483D01*
X34700500Y-5247873D01*
X34700499Y-2752128D01*
X34694091Y-2692517D01*
X34684487Y-2666768D01*
X34643797Y-2557671D01*
X34643793Y-2557664D01*
X34557547Y-2442455D01*
X34557544Y-2442452D01*
X34442335Y-2356206D01*
X34442328Y-2356202D01*
X34307482Y-2305908D01*
X34307483Y-2305908D01*
X34247883Y-2299501D01*
X34247881Y-2299500D01*
X34247873Y-2299500D01*
X34247864Y-2299500D01*
X31752129Y-2299500D01*
X31752123Y-2299501D01*
X31692516Y-2305908D01*
X31557671Y-2356202D01*
X31557664Y-2356206D01*
X31442455Y-2442452D01*
X31442452Y-2442455D01*
X31356206Y-2557664D01*
X31356202Y-2557671D01*
X31305908Y-2692517D01*
X31299501Y-2752116D01*
X31299500Y-2752130D01*
X27155216Y-2752130D01*
X27063217Y-2666768D01*
X26852634Y-2523195D01*
X26852630Y-2523193D01*
X26852627Y-2523191D01*
X26852626Y-2523190D01*
X26623006Y-2412612D01*
X26623008Y-2412612D01*
X26379466Y-2337489D01*
X26379462Y-2337488D01*
X26379458Y-2337487D01*
X26258231Y-2319214D01*
X26127440Y-2299500D01*
X26127435Y-2299500D01*
X25872565Y-2299500D01*
X25872559Y-2299500D01*
X25715609Y-2323157D01*
X25620542Y-2337487D01*
X25620539Y-2337488D01*
X25620533Y-2337489D01*
X25376992Y-2412612D01*
X25147373Y-2523190D01*
X25147372Y-2523191D01*
X24936782Y-2666768D01*
X24749952Y-2840121D01*
X24749950Y-2840123D01*
X24591041Y-3039388D01*
X24463608Y-3260109D01*
X24370492Y-3497362D01*
X24370490Y-3497369D01*
X24313777Y-3745845D01*
X24294732Y-3999995D01*
X20705268Y-3999995D01*
X20686222Y-3745843D01*
X20629508Y-3497363D01*
X20536393Y-3260112D01*
X20408959Y-3039388D01*
X20250050Y-2840123D01*
X20063217Y-2666768D01*
X19852634Y-2523195D01*
X19852630Y-2523193D01*
X19852627Y-2523191D01*
X19852626Y-2523190D01*
X19623006Y-2412612D01*
X19623008Y-2412612D01*
X19379466Y-2337489D01*
X19379462Y-2337488D01*
X19379458Y-2337487D01*
X19258231Y-2319214D01*
X19127440Y-2299500D01*
X19127435Y-2299500D01*
X18872565Y-2299500D01*
X18872559Y-2299500D01*
X18715609Y-2323157D01*
X18620542Y-2337487D01*
X18620539Y-2337488D01*
X18620533Y-2337489D01*
X18376992Y-2412612D01*
X18147373Y-2523190D01*
X18147372Y-2523191D01*
X17936782Y-2666768D01*
X17749952Y-2840121D01*
X17749950Y-2840123D01*
X17591041Y-3039388D01*
X17463608Y-3260109D01*
X17370492Y-3497362D01*
X17370490Y-3497369D01*
X17313777Y-3745845D01*
X17294732Y-3999995D01*
X13705268Y-3999995D01*
X13686222Y-3745843D01*
X13629508Y-3497363D01*
X13536393Y-3260112D01*
X13408959Y-3039388D01*
X13250050Y-2840123D01*
X13063217Y-2666768D01*
X12852634Y-2523195D01*
X12852630Y-2523193D01*
X12852627Y-2523191D01*
X12852626Y-2523190D01*
X12623006Y-2412612D01*
X12623008Y-2412612D01*
X12379466Y-2337489D01*
X12379462Y-2337488D01*
X12379458Y-2337487D01*
X12258231Y-2319214D01*
X12127440Y-2299500D01*
X12127435Y-2299500D01*
X11872565Y-2299500D01*
X11872559Y-2299500D01*
X11715609Y-2323157D01*
X11620542Y-2337487D01*
X11620539Y-2337488D01*
X11620533Y-2337489D01*
X11376992Y-2412612D01*
X11147373Y-2523190D01*
X11147372Y-2523191D01*
X10936782Y-2666768D01*
X10749952Y-2840121D01*
X10749950Y-2840123D01*
X10591041Y-3039388D01*
X10463608Y-3260109D01*
X10370492Y-3497362D01*
X10370490Y-3497369D01*
X10313777Y-3745845D01*
X10294732Y-3999995D01*
X6700499Y-3999995D01*
X6700499Y-2752128D01*
X6694091Y-2692517D01*
X6684487Y-2666768D01*
X6643797Y-2557671D01*
X6643793Y-2557664D01*
X6557547Y-2442455D01*
X6557544Y-2442452D01*
X6442335Y-2356206D01*
X6442328Y-2356202D01*
X6307482Y-2305908D01*
X6307483Y-2305908D01*
X6247883Y-2299501D01*
X6247881Y-2299500D01*
X6247873Y-2299500D01*
X6247864Y-2299500D01*
X3752129Y-2299500D01*
X3752123Y-2299501D01*
X3692516Y-2305908D01*
X3557671Y-2356202D01*
X3557664Y-2356206D01*
X3442455Y-2442452D01*
X3442452Y-2442455D01*
X3356206Y-2557664D01*
X3356202Y-2557671D01*
X3305908Y-2692517D01*
X3299501Y-2752116D01*
X3299500Y-2752130D01*
X400500Y-2752130D01*
X400500Y-524500D01*
X420185Y-457461D01*
X472989Y-411706D01*
X524500Y-400500D01*
X89475500Y-400500D01*
X89542539Y-420185D01*
G37*
%TD.AperFunction*%
%TD*%
M02*
