%TF.GenerationSoftware,KiCad,Pcbnew,8.0.7*%
%TF.CreationDate,2024-12-25T10:13:59+09:00*%
%TF.ProjectId,atx_breakout,6174785f-6272-4656-916b-6f75742e6b69,rev?*%
%TF.SameCoordinates,Original*%
%TF.FileFunction,Copper,L1,Top*%
%TF.FilePolarity,Positive*%
%FSLAX46Y46*%
G04 Gerber Fmt 4.6, Leading zero omitted, Abs format (unit mm)*
G04 Created by KiCad (PCBNEW 8.0.7) date 2024-12-25 10:13:59*
%MOMM*%
%LPD*%
G01*
G04 APERTURE LIST*
G04 Aperture macros list*
%AMRoundRect*
0 Rectangle with rounded corners*
0 $1 Rounding radius*
0 $2 $3 $4 $5 $6 $7 $8 $9 X,Y pos of 4 corners*
0 Add a 4 corners polygon primitive as box body*
4,1,4,$2,$3,$4,$5,$6,$7,$8,$9,$2,$3,0*
0 Add four circle primitives for the rounded corners*
1,1,$1+$1,$2,$3*
1,1,$1+$1,$4,$5*
1,1,$1+$1,$6,$7*
1,1,$1+$1,$8,$9*
0 Add four rect primitives between the rounded corners*
20,1,$1+$1,$2,$3,$4,$5,0*
20,1,$1+$1,$4,$5,$6,$7,0*
20,1,$1+$1,$6,$7,$8,$9,0*
20,1,$1+$1,$8,$9,$2,$3,0*%
G04 Aperture macros list end*
%TA.AperFunction,ComponentPad*%
%ADD10RoundRect,0.250000X-1.400000X1.100000X-1.400000X-1.100000X1.400000X-1.100000X1.400000X1.100000X0*%
%TD*%
%TA.AperFunction,ComponentPad*%
%ADD11O,3.300000X2.700000*%
%TD*%
%TA.AperFunction,ComponentPad*%
%ADD12R,1.800000X1.800000*%
%TD*%
%TA.AperFunction,ComponentPad*%
%ADD13C,1.800000*%
%TD*%
%TA.AperFunction,ComponentPad*%
%ADD14C,1.600000*%
%TD*%
%TA.AperFunction,ComponentPad*%
%ADD15O,1.600000X1.600000*%
%TD*%
%TA.AperFunction,ComponentPad*%
%ADD16R,2.400000X2.400000*%
%TD*%
%TA.AperFunction,ComponentPad*%
%ADD17C,2.400000*%
%TD*%
%TA.AperFunction,ComponentPad*%
%ADD18R,2.600000X2.600000*%
%TD*%
%TA.AperFunction,ComponentPad*%
%ADD19C,2.600000*%
%TD*%
%TA.AperFunction,ComponentPad*%
%ADD20RoundRect,0.250000X1.100000X1.400000X-1.100000X1.400000X-1.100000X-1.400000X1.100000X-1.400000X0*%
%TD*%
%TA.AperFunction,ComponentPad*%
%ADD21O,2.700000X3.300000*%
%TD*%
%TA.AperFunction,Conductor*%
%ADD22C,1.000000*%
%TD*%
%TA.AperFunction,Conductor*%
%ADD23C,0.400000*%
%TD*%
G04 APERTURE END LIST*
D10*
%TO.P,J4,1,Pin_1*%
%TO.N,+12V*%
X83000000Y-32000000D03*
D11*
%TO.P,J4,2,Pin_2*%
X83000000Y-36200000D03*
%TO.P,J4,3,Pin_3*%
X83000000Y-40400000D03*
%TO.P,J4,4,Pin_4*%
%TO.N,GND*%
X83000000Y-44600000D03*
%TO.P,J4,5,Pin_5*%
X78800000Y-32000000D03*
%TO.P,J4,6,Pin_6*%
X78800000Y-36200000D03*
%TO.P,J4,7,Pin_7*%
X78800000Y-40400000D03*
%TO.P,J4,8,Pin_8*%
X78800000Y-44600000D03*
%TD*%
D12*
%TO.P,D1,1,K*%
%TO.N,Net-(D1-K)*%
X26000000Y-17000000D03*
D13*
%TO.P,D1,2,A*%
%TO.N,VBUS*%
X28540000Y-17000000D03*
%TD*%
D10*
%TO.P,J2,1,Pin_1*%
%TO.N,+12V*%
X35000000Y-32000000D03*
D11*
%TO.P,J2,2,Pin_2*%
X35000000Y-36200000D03*
%TO.P,J2,3,Pin_3*%
X35000000Y-40400000D03*
%TO.P,J2,4,Pin_4*%
%TO.N,GND*%
X35000000Y-44600000D03*
%TO.P,J2,5,Pin_5*%
X30800000Y-32000000D03*
%TO.P,J2,6,Pin_6*%
X30800000Y-36200000D03*
%TO.P,J2,7,Pin_7*%
X30800000Y-40400000D03*
%TO.P,J2,8,Pin_8*%
X30800000Y-44600000D03*
%TD*%
D10*
%TO.P,J1,1,Pin_1*%
%TO.N,GND*%
X11000000Y-32000000D03*
D11*
%TO.P,J1,2,Pin_2*%
X11000000Y-36200000D03*
%TO.P,J1,3,Pin_3*%
X11000000Y-40400000D03*
%TO.P,J1,4,Pin_4*%
X11000000Y-44600000D03*
%TO.P,J1,5,Pin_5*%
%TO.N,+12V*%
X6800000Y-32000000D03*
%TO.P,J1,6,Pin_6*%
X6800000Y-36200000D03*
%TO.P,J1,7,Pin_7*%
X6800000Y-40400000D03*
%TO.P,J1,8,Pin_8*%
X6800000Y-44600000D03*
%TD*%
D14*
%TO.P,R1,1*%
%TO.N,Net-(D1-K)*%
X24000000Y-22000000D03*
D15*
%TO.P,R1,2*%
%TO.N,GND*%
X31620000Y-22000000D03*
%TD*%
D10*
%TO.P,J3,1,Pin_1*%
%TO.N,+12V*%
X59000000Y-32000000D03*
D11*
%TO.P,J3,2,Pin_2*%
X59000000Y-36200000D03*
%TO.P,J3,3,Pin_3*%
X59000000Y-40400000D03*
%TO.P,J3,4,Pin_4*%
%TO.N,GND*%
X59000000Y-44600000D03*
%TO.P,J3,5,Pin_5*%
X54800000Y-32000000D03*
%TO.P,J3,6,Pin_6*%
X54800000Y-36200000D03*
%TO.P,J3,7,Pin_7*%
X54800000Y-40400000D03*
%TO.P,J3,8,Pin_8*%
X54800000Y-44600000D03*
%TD*%
D14*
%TO.P,R2,1*%
%TO.N,Net-(D2-K)*%
X14000000Y-22000000D03*
D15*
%TO.P,R2,2*%
%TO.N,GND*%
X21620000Y-22000000D03*
%TD*%
D16*
%TO.P,J6,1,Pin_1*%
%TO.N,+12V*%
X5000000Y-4000000D03*
D17*
%TO.P,J6,2,Pin_2*%
%TO.N,GND*%
X8500000Y-4000000D03*
%TO.P,J6,3,Pin_3*%
%TO.N,+12V*%
X12000000Y-4000000D03*
%TO.P,J6,4,Pin_4*%
%TO.N,GND*%
X15500000Y-4000000D03*
%TO.P,J6,5,Pin_5*%
%TO.N,+12V*%
X19000000Y-4000000D03*
%TO.P,J6,6,Pin_6*%
%TO.N,GND*%
X22500000Y-4000000D03*
%TO.P,J6,7,Pin_7*%
%TO.N,+12V*%
X26000000Y-4000000D03*
%TO.P,J6,8,Pin_8*%
%TO.N,GND*%
X29500000Y-4000000D03*
%TD*%
D16*
%TO.P,J8,1,Pin_1*%
%TO.N,-12V*%
X61000000Y-4000000D03*
D17*
%TO.P,J8,2,Pin_2*%
%TO.N,GND*%
X64500000Y-4000000D03*
%TO.P,J8,3,Pin_3*%
%TO.N,VBUS*%
X68000000Y-4000000D03*
%TO.P,J8,4,Pin_4*%
%TO.N,GND*%
X71500000Y-4000000D03*
%TO.P,J8,5,Pin_5*%
%TO.N,/PWR_OK*%
X75000000Y-4000000D03*
%TO.P,J8,6,Pin_6*%
%TO.N,GND*%
X78500000Y-4000000D03*
%TO.P,J8,7,Pin_7*%
X82000000Y-4000000D03*
%TO.P,J8,8,Pin_8*%
X85500000Y-4000000D03*
%TD*%
D16*
%TO.P,J7,1,Pin_1*%
%TO.N,+5V*%
X33000000Y-4000000D03*
D17*
%TO.P,J7,2,Pin_2*%
%TO.N,GND*%
X36500000Y-4000000D03*
%TO.P,J7,3,Pin_3*%
%TO.N,+5V*%
X40000000Y-4000000D03*
%TO.P,J7,4,Pin_4*%
%TO.N,GND*%
X43500000Y-4000000D03*
%TO.P,J7,5,Pin_5*%
%TO.N,+3.3V*%
X47000000Y-4000000D03*
%TO.P,J7,6,Pin_6*%
%TO.N,GND*%
X50500000Y-4000000D03*
%TO.P,J7,7,Pin_7*%
%TO.N,+3.3V*%
X54000000Y-4000000D03*
%TO.P,J7,8,Pin_8*%
%TO.N,GND*%
X57500000Y-4000000D03*
%TD*%
D14*
%TO.P,U1,1*%
%TO.N,GND*%
X9000000Y-15500000D03*
%TO.P,U1,2*%
X7000000Y-15500000D03*
%TO.P,U1,3*%
%TO.N,Net-(J5-PS_ON#)*%
X5000000Y-15500000D03*
%TO.P,U1,4*%
%TO.N,GND*%
X9000000Y-20500000D03*
%TO.P,U1,5*%
X7000000Y-20500000D03*
%TO.P,U1,6*%
X5000000Y-20500000D03*
%TD*%
D18*
%TO.P,J9,1,Pin_1*%
%TO.N,+12V*%
X8000000Y-54000000D03*
D19*
%TO.P,J9,2,Pin_2*%
%TO.N,GND*%
X13000000Y-54000000D03*
%TO.P,J9,3,Pin_3*%
%TO.N,+12V*%
X18000000Y-54000000D03*
%TO.P,J9,4,Pin_4*%
%TO.N,GND*%
X23000000Y-54000000D03*
%TO.P,J9,5,Pin_5*%
%TO.N,+12V*%
X28000000Y-54000000D03*
%TO.P,J9,6,Pin_6*%
%TO.N,GND*%
X33000000Y-54000000D03*
%TO.P,J9,7,Pin_7*%
%TO.N,+12V*%
X38000000Y-54000000D03*
%TO.P,J9,8,Pin_8*%
%TO.N,GND*%
X43000000Y-54000000D03*
%TD*%
D20*
%TO.P,J5,1,+3.3V*%
%TO.N,+3.3V*%
X85000000Y-21000000D03*
D21*
%TO.P,J5,2,+3.3V*%
X80800000Y-21000000D03*
%TO.P,J5,3,GND*%
%TO.N,GND*%
X76600000Y-21000000D03*
%TO.P,J5,4,+5V*%
%TO.N,+5V*%
X72400000Y-21000000D03*
%TO.P,J5,5,GND*%
%TO.N,GND*%
X68200000Y-21000000D03*
%TO.P,J5,6,+5V*%
%TO.N,+5V*%
X64000000Y-21000000D03*
%TO.P,J5,7,GND*%
%TO.N,GND*%
X59800000Y-21000000D03*
%TO.P,J5,8,PWR_OK*%
%TO.N,/PWR_OK*%
X55600000Y-21000000D03*
%TO.P,J5,9,+5VSB*%
%TO.N,VBUS*%
X51400000Y-21000000D03*
%TO.P,J5,10,+12V*%
%TO.N,+12V*%
X47200000Y-21000000D03*
%TO.P,J5,11,+12V*%
X43000000Y-21000000D03*
%TO.P,J5,12,+3.3V*%
%TO.N,+3.3V*%
X38800000Y-21000000D03*
%TO.P,J5,13,+3.3V*%
X85000000Y-16800000D03*
%TO.P,J5,14,-12V*%
%TO.N,-12V*%
X80800000Y-16800000D03*
%TO.P,J5,15,GND*%
%TO.N,GND*%
X76600000Y-16800000D03*
%TO.P,J5,16,PS_ON#*%
%TO.N,Net-(J5-PS_ON#)*%
X72400000Y-16800000D03*
%TO.P,J5,17,GND*%
%TO.N,GND*%
X68200000Y-16800000D03*
%TO.P,J5,18,GND*%
X64000000Y-16800000D03*
%TO.P,J5,19,GND*%
X59800000Y-16800000D03*
%TO.P,J5,20,NC*%
%TO.N,unconnected-(J5-NC-Pad20)*%
X55600000Y-16800000D03*
%TO.P,J5,21,+5V*%
%TO.N,+5V*%
X51400000Y-16800000D03*
%TO.P,J5,22,+5V*%
X47200000Y-16800000D03*
%TO.P,J5,23,+5V*%
X43000000Y-16800000D03*
%TO.P,J5,24,GND*%
%TO.N,GND*%
X38800000Y-16800000D03*
%TD*%
D18*
%TO.P,J10,1,Pin_1*%
%TO.N,+12V*%
X48000000Y-54000000D03*
D19*
%TO.P,J10,2,Pin_2*%
%TO.N,GND*%
X53000000Y-54000000D03*
%TO.P,J10,3,Pin_3*%
%TO.N,+12V*%
X58000000Y-54000000D03*
%TO.P,J10,4,Pin_4*%
%TO.N,GND*%
X63000000Y-54000000D03*
%TO.P,J10,5,Pin_5*%
%TO.N,+12V*%
X68000000Y-54000000D03*
%TO.P,J10,6,Pin_6*%
%TO.N,GND*%
X73000000Y-54000000D03*
%TO.P,J10,7,Pin_7*%
%TO.N,+12V*%
X78000000Y-54000000D03*
%TO.P,J10,8,Pin_8*%
%TO.N,GND*%
X83000000Y-54000000D03*
%TD*%
D12*
%TO.P,D2,1,K*%
%TO.N,Net-(D2-K)*%
X16000000Y-17000000D03*
D13*
%TO.P,D2,2,A*%
%TO.N,+5V*%
X18540000Y-17000000D03*
%TD*%
D22*
%TO.N,+5V*%
X66700000Y-23700000D02*
X69700000Y-23700000D01*
X61900000Y-18900000D02*
X61900000Y-15630152D01*
X34950000Y-5950000D02*
X38050000Y-5950000D01*
X69700000Y-23700000D02*
X72400000Y-21000000D01*
X51400000Y-16800000D02*
X47200000Y-16800000D01*
X64000000Y-21000000D02*
X61900000Y-18900000D01*
D23*
X25000000Y-6000000D02*
X31000000Y-6000000D01*
X18540000Y-17000000D02*
X18540000Y-12460000D01*
X18540000Y-12460000D02*
X25000000Y-6000000D01*
D22*
X54200000Y-14000000D02*
X51400000Y-16800000D01*
X60269848Y-14000000D02*
X54200000Y-14000000D01*
D23*
X31000000Y-6000000D02*
X33000000Y-4000000D01*
D22*
X33000000Y-4000000D02*
X34950000Y-5950000D01*
X47200000Y-16800000D02*
X43000000Y-16800000D01*
X38050000Y-5950000D02*
X40000000Y-4000000D01*
X61900000Y-15630152D02*
X60269848Y-14000000D01*
X64000000Y-21000000D02*
X66700000Y-23700000D01*
%TO.N,+3.3V*%
X87450000Y-2450000D02*
X87050000Y-2050000D01*
X87450000Y-14350000D02*
X87450000Y-2450000D01*
X49000000Y-2000000D02*
X47000000Y-4000000D01*
X85000000Y-21000000D02*
X85000000Y-16800000D01*
X52000000Y-2000000D02*
X49000000Y-2000000D01*
X54000000Y-4000000D02*
X52000000Y-2000000D01*
X87050000Y-2050000D02*
X55950000Y-2050000D01*
X85000000Y-16800000D02*
X87450000Y-14350000D01*
X80800000Y-21000000D02*
X80000000Y-21000000D01*
X55950000Y-2050000D02*
X54000000Y-4000000D01*
X80800000Y-21000000D02*
X85000000Y-21000000D01*
D23*
%TO.N,VBUS*%
X49300000Y-18900000D02*
X30440000Y-18900000D01*
X30440000Y-18900000D02*
X28540000Y-17000000D01*
X51400000Y-21000000D02*
X49300000Y-18900000D01*
%TO.N,Net-(J5-PS_ON#)*%
X68600000Y-13000000D02*
X27300000Y-13000000D01*
X18650000Y-21650000D02*
X18650000Y-24350000D01*
X72400000Y-16800000D02*
X68600000Y-13000000D01*
X3750000Y-21017767D02*
X3750000Y-16750000D01*
X18000000Y-25000000D02*
X7732233Y-25000000D01*
X27300000Y-13000000D02*
X18650000Y-21650000D01*
X18650000Y-24350000D02*
X18000000Y-25000000D01*
X3750000Y-16750000D02*
X5000000Y-15500000D01*
X7732233Y-25000000D02*
X3750000Y-21017767D01*
%TO.N,/PWR_OK*%
X71745584Y-24650000D02*
X74550000Y-21845584D01*
X55600000Y-21000000D02*
X59250000Y-24650000D01*
X74550000Y-4450000D02*
X75000000Y-4000000D01*
X74550000Y-21845584D02*
X74550000Y-4450000D01*
X59250000Y-24650000D02*
X71745584Y-24650000D01*
%TO.N,Net-(D1-K)*%
X26000000Y-20000000D02*
X24000000Y-22000000D01*
X26000000Y-17000000D02*
X26000000Y-20000000D01*
%TO.N,Net-(D2-K)*%
X14000000Y-22000000D02*
X14000000Y-19000000D01*
X14000000Y-19000000D02*
X16000000Y-17000000D01*
%TD*%
%TA.AperFunction,Conductor*%
%TO.N,+12V*%
G36*
X89542539Y-420185D02*
G01*
X89588294Y-472989D01*
X89599500Y-524500D01*
X89599500Y-59475500D01*
X89579815Y-59542539D01*
X89527011Y-59588294D01*
X89475500Y-59599500D01*
X524500Y-59599500D01*
X457461Y-59579815D01*
X411706Y-59527011D01*
X400500Y-59475500D01*
X400500Y-53999995D01*
X11194451Y-53999995D01*
X11194451Y-54000004D01*
X11214616Y-54269101D01*
X11274664Y-54532188D01*
X11274666Y-54532195D01*
X11373257Y-54783398D01*
X11508185Y-55017102D01*
X11644080Y-55187509D01*
X11676442Y-55228089D01*
X11863183Y-55401358D01*
X11874259Y-55411635D01*
X12097226Y-55563651D01*
X12340359Y-55680738D01*
X12598228Y-55760280D01*
X12598229Y-55760280D01*
X12598232Y-55760281D01*
X12865063Y-55800499D01*
X12865068Y-55800499D01*
X12865071Y-55800500D01*
X12865072Y-55800500D01*
X13134928Y-55800500D01*
X13134929Y-55800500D01*
X13134936Y-55800499D01*
X13401767Y-55760281D01*
X13401768Y-55760280D01*
X13401772Y-55760280D01*
X13659641Y-55680738D01*
X13902775Y-55563651D01*
X14125741Y-55411635D01*
X14323561Y-55228085D01*
X14491815Y-55017102D01*
X14626743Y-54783398D01*
X14725334Y-54532195D01*
X14785383Y-54269103D01*
X14805549Y-54000000D01*
X14805549Y-53999995D01*
X21194451Y-53999995D01*
X21194451Y-54000004D01*
X21214616Y-54269101D01*
X21274664Y-54532188D01*
X21274666Y-54532195D01*
X21373257Y-54783398D01*
X21508185Y-55017102D01*
X21644080Y-55187509D01*
X21676442Y-55228089D01*
X21863183Y-55401358D01*
X21874259Y-55411635D01*
X22097226Y-55563651D01*
X22340359Y-55680738D01*
X22598228Y-55760280D01*
X22598229Y-55760280D01*
X22598232Y-55760281D01*
X22865063Y-55800499D01*
X22865068Y-55800499D01*
X22865071Y-55800500D01*
X22865072Y-55800500D01*
X23134928Y-55800500D01*
X23134929Y-55800500D01*
X23134936Y-55800499D01*
X23401767Y-55760281D01*
X23401768Y-55760280D01*
X23401772Y-55760280D01*
X23659641Y-55680738D01*
X23902775Y-55563651D01*
X24125741Y-55411635D01*
X24323561Y-55228085D01*
X24491815Y-55017102D01*
X24626743Y-54783398D01*
X24725334Y-54532195D01*
X24785383Y-54269103D01*
X24805549Y-54000000D01*
X24805549Y-53999995D01*
X31194451Y-53999995D01*
X31194451Y-54000004D01*
X31214616Y-54269101D01*
X31274664Y-54532188D01*
X31274666Y-54532195D01*
X31373257Y-54783398D01*
X31508185Y-55017102D01*
X31644080Y-55187509D01*
X31676442Y-55228089D01*
X31863183Y-55401358D01*
X31874259Y-55411635D01*
X32097226Y-55563651D01*
X32340359Y-55680738D01*
X32598228Y-55760280D01*
X32598229Y-55760280D01*
X32598232Y-55760281D01*
X32865063Y-55800499D01*
X32865068Y-55800499D01*
X32865071Y-55800500D01*
X32865072Y-55800500D01*
X33134928Y-55800500D01*
X33134929Y-55800500D01*
X33134936Y-55800499D01*
X33401767Y-55760281D01*
X33401768Y-55760280D01*
X33401772Y-55760280D01*
X33659641Y-55680738D01*
X33902775Y-55563651D01*
X34125741Y-55411635D01*
X34323561Y-55228085D01*
X34491815Y-55017102D01*
X34626743Y-54783398D01*
X34725334Y-54532195D01*
X34785383Y-54269103D01*
X34805549Y-54000000D01*
X34805549Y-53999995D01*
X41194451Y-53999995D01*
X41194451Y-54000004D01*
X41214616Y-54269101D01*
X41274664Y-54532188D01*
X41274666Y-54532195D01*
X41373257Y-54783398D01*
X41508185Y-55017102D01*
X41644080Y-55187509D01*
X41676442Y-55228089D01*
X41863183Y-55401358D01*
X41874259Y-55411635D01*
X42097226Y-55563651D01*
X42340359Y-55680738D01*
X42598228Y-55760280D01*
X42598229Y-55760280D01*
X42598232Y-55760281D01*
X42865063Y-55800499D01*
X42865068Y-55800499D01*
X42865071Y-55800500D01*
X42865072Y-55800500D01*
X43134928Y-55800500D01*
X43134929Y-55800500D01*
X43134936Y-55800499D01*
X43401767Y-55760281D01*
X43401768Y-55760280D01*
X43401772Y-55760280D01*
X43659641Y-55680738D01*
X43902775Y-55563651D01*
X44125741Y-55411635D01*
X44323561Y-55228085D01*
X44491815Y-55017102D01*
X44626743Y-54783398D01*
X44725334Y-54532195D01*
X44785383Y-54269103D01*
X44805549Y-54000000D01*
X44805549Y-53999995D01*
X51194451Y-53999995D01*
X51194451Y-54000004D01*
X51214616Y-54269101D01*
X51274664Y-54532188D01*
X51274666Y-54532195D01*
X51373257Y-54783398D01*
X51508185Y-55017102D01*
X51644080Y-55187509D01*
X51676442Y-55228089D01*
X51863183Y-55401358D01*
X51874259Y-55411635D01*
X52097226Y-55563651D01*
X52340359Y-55680738D01*
X52598228Y-55760280D01*
X52598229Y-55760280D01*
X52598232Y-55760281D01*
X52865063Y-55800499D01*
X52865068Y-55800499D01*
X52865071Y-55800500D01*
X52865072Y-55800500D01*
X53134928Y-55800500D01*
X53134929Y-55800500D01*
X53134936Y-55800499D01*
X53401767Y-55760281D01*
X53401768Y-55760280D01*
X53401772Y-55760280D01*
X53659641Y-55680738D01*
X53902775Y-55563651D01*
X54125741Y-55411635D01*
X54323561Y-55228085D01*
X54491815Y-55017102D01*
X54626743Y-54783398D01*
X54725334Y-54532195D01*
X54785383Y-54269103D01*
X54805549Y-54000000D01*
X54805549Y-53999995D01*
X61194451Y-53999995D01*
X61194451Y-54000004D01*
X61214616Y-54269101D01*
X61274664Y-54532188D01*
X61274666Y-54532195D01*
X61373257Y-54783398D01*
X61508185Y-55017102D01*
X61644080Y-55187509D01*
X61676442Y-55228089D01*
X61863183Y-55401358D01*
X61874259Y-55411635D01*
X62097226Y-55563651D01*
X62340359Y-55680738D01*
X62598228Y-55760280D01*
X62598229Y-55760280D01*
X62598232Y-55760281D01*
X62865063Y-55800499D01*
X62865068Y-55800499D01*
X62865071Y-55800500D01*
X62865072Y-55800500D01*
X63134928Y-55800500D01*
X63134929Y-55800500D01*
X63134936Y-55800499D01*
X63401767Y-55760281D01*
X63401768Y-55760280D01*
X63401772Y-55760280D01*
X63659641Y-55680738D01*
X63902775Y-55563651D01*
X64125741Y-55411635D01*
X64323561Y-55228085D01*
X64491815Y-55017102D01*
X64626743Y-54783398D01*
X64725334Y-54532195D01*
X64785383Y-54269103D01*
X64805549Y-54000000D01*
X64805549Y-53999995D01*
X71194451Y-53999995D01*
X71194451Y-54000004D01*
X71214616Y-54269101D01*
X71274664Y-54532188D01*
X71274666Y-54532195D01*
X71373257Y-54783398D01*
X71508185Y-55017102D01*
X71644080Y-55187509D01*
X71676442Y-55228089D01*
X71863183Y-55401358D01*
X71874259Y-55411635D01*
X72097226Y-55563651D01*
X72340359Y-55680738D01*
X72598228Y-55760280D01*
X72598229Y-55760280D01*
X72598232Y-55760281D01*
X72865063Y-55800499D01*
X72865068Y-55800499D01*
X72865071Y-55800500D01*
X72865072Y-55800500D01*
X73134928Y-55800500D01*
X73134929Y-55800500D01*
X73134936Y-55800499D01*
X73401767Y-55760281D01*
X73401768Y-55760280D01*
X73401772Y-55760280D01*
X73659641Y-55680738D01*
X73902775Y-55563651D01*
X74125741Y-55411635D01*
X74323561Y-55228085D01*
X74491815Y-55017102D01*
X74626743Y-54783398D01*
X74725334Y-54532195D01*
X74785383Y-54269103D01*
X74805549Y-54000000D01*
X74805549Y-53999995D01*
X81194451Y-53999995D01*
X81194451Y-54000004D01*
X81214616Y-54269101D01*
X81274664Y-54532188D01*
X81274666Y-54532195D01*
X81373257Y-54783398D01*
X81508185Y-55017102D01*
X81644080Y-55187509D01*
X81676442Y-55228089D01*
X81863183Y-55401358D01*
X81874259Y-55411635D01*
X82097226Y-55563651D01*
X82340359Y-55680738D01*
X82598228Y-55760280D01*
X82598229Y-55760280D01*
X82598232Y-55760281D01*
X82865063Y-55800499D01*
X82865068Y-55800499D01*
X82865071Y-55800500D01*
X82865072Y-55800500D01*
X83134928Y-55800500D01*
X83134929Y-55800500D01*
X83134936Y-55800499D01*
X83401767Y-55760281D01*
X83401768Y-55760280D01*
X83401772Y-55760280D01*
X83659641Y-55680738D01*
X83902775Y-55563651D01*
X84125741Y-55411635D01*
X84323561Y-55228085D01*
X84491815Y-55017102D01*
X84626743Y-54783398D01*
X84725334Y-54532195D01*
X84785383Y-54269103D01*
X84805549Y-54000000D01*
X84785383Y-53730897D01*
X84725334Y-53467805D01*
X84626743Y-53216602D01*
X84491815Y-52982898D01*
X84323561Y-52771915D01*
X84323560Y-52771914D01*
X84323557Y-52771910D01*
X84125741Y-52588365D01*
X83902775Y-52436349D01*
X83902769Y-52436346D01*
X83902768Y-52436345D01*
X83902767Y-52436344D01*
X83659643Y-52319263D01*
X83659645Y-52319263D01*
X83401773Y-52239720D01*
X83401767Y-52239718D01*
X83134936Y-52199500D01*
X83134929Y-52199500D01*
X82865071Y-52199500D01*
X82865063Y-52199500D01*
X82598232Y-52239718D01*
X82598226Y-52239720D01*
X82340358Y-52319262D01*
X82097230Y-52436346D01*
X81874258Y-52588365D01*
X81676442Y-52771910D01*
X81508185Y-52982898D01*
X81373258Y-53216599D01*
X81373256Y-53216603D01*
X81274666Y-53467804D01*
X81274664Y-53467811D01*
X81214616Y-53730898D01*
X81194451Y-53999995D01*
X74805549Y-53999995D01*
X74785383Y-53730897D01*
X74725334Y-53467805D01*
X74626743Y-53216602D01*
X74491815Y-52982898D01*
X74323561Y-52771915D01*
X74323560Y-52771914D01*
X74323557Y-52771910D01*
X74125741Y-52588365D01*
X73902775Y-52436349D01*
X73902769Y-52436346D01*
X73902768Y-52436345D01*
X73902767Y-52436344D01*
X73659643Y-52319263D01*
X73659645Y-52319263D01*
X73401773Y-52239720D01*
X73401767Y-52239718D01*
X73134936Y-52199500D01*
X73134929Y-52199500D01*
X72865071Y-52199500D01*
X72865063Y-52199500D01*
X72598232Y-52239718D01*
X72598226Y-52239720D01*
X72340358Y-52319262D01*
X72097230Y-52436346D01*
X71874258Y-52588365D01*
X71676442Y-52771910D01*
X71508185Y-52982898D01*
X71373258Y-53216599D01*
X71373256Y-53216603D01*
X71274666Y-53467804D01*
X71274664Y-53467811D01*
X71214616Y-53730898D01*
X71194451Y-53999995D01*
X64805549Y-53999995D01*
X64785383Y-53730897D01*
X64725334Y-53467805D01*
X64626743Y-53216602D01*
X64491815Y-52982898D01*
X64323561Y-52771915D01*
X64323560Y-52771914D01*
X64323557Y-52771910D01*
X64125741Y-52588365D01*
X63902775Y-52436349D01*
X63902769Y-52436346D01*
X63902768Y-52436345D01*
X63902767Y-52436344D01*
X63659643Y-52319263D01*
X63659645Y-52319263D01*
X63401773Y-52239720D01*
X63401767Y-52239718D01*
X63134936Y-52199500D01*
X63134929Y-52199500D01*
X62865071Y-52199500D01*
X62865063Y-52199500D01*
X62598232Y-52239718D01*
X62598226Y-52239720D01*
X62340358Y-52319262D01*
X62097230Y-52436346D01*
X61874258Y-52588365D01*
X61676442Y-52771910D01*
X61508185Y-52982898D01*
X61373258Y-53216599D01*
X61373256Y-53216603D01*
X61274666Y-53467804D01*
X61274664Y-53467811D01*
X61214616Y-53730898D01*
X61194451Y-53999995D01*
X54805549Y-53999995D01*
X54785383Y-53730897D01*
X54725334Y-53467805D01*
X54626743Y-53216602D01*
X54491815Y-52982898D01*
X54323561Y-52771915D01*
X54323560Y-52771914D01*
X54323557Y-52771910D01*
X54125741Y-52588365D01*
X53902775Y-52436349D01*
X53902769Y-52436346D01*
X53902768Y-52436345D01*
X53902767Y-52436344D01*
X53659643Y-52319263D01*
X53659645Y-52319263D01*
X53401773Y-52239720D01*
X53401767Y-52239718D01*
X53134936Y-52199500D01*
X53134929Y-52199500D01*
X52865071Y-52199500D01*
X52865063Y-52199500D01*
X52598232Y-52239718D01*
X52598226Y-52239720D01*
X52340358Y-52319262D01*
X52097230Y-52436346D01*
X51874258Y-52588365D01*
X51676442Y-52771910D01*
X51508185Y-52982898D01*
X51373258Y-53216599D01*
X51373256Y-53216603D01*
X51274666Y-53467804D01*
X51274664Y-53467811D01*
X51214616Y-53730898D01*
X51194451Y-53999995D01*
X44805549Y-53999995D01*
X44785383Y-53730897D01*
X44725334Y-53467805D01*
X44626743Y-53216602D01*
X44491815Y-52982898D01*
X44323561Y-52771915D01*
X44323560Y-52771914D01*
X44323557Y-52771910D01*
X44125741Y-52588365D01*
X43902775Y-52436349D01*
X43902769Y-52436346D01*
X43902768Y-52436345D01*
X43902767Y-52436344D01*
X43659643Y-52319263D01*
X43659645Y-52319263D01*
X43401773Y-52239720D01*
X43401767Y-52239718D01*
X43134936Y-52199500D01*
X43134929Y-52199500D01*
X42865071Y-52199500D01*
X42865063Y-52199500D01*
X42598232Y-52239718D01*
X42598226Y-52239720D01*
X42340358Y-52319262D01*
X42097230Y-52436346D01*
X41874258Y-52588365D01*
X41676442Y-52771910D01*
X41508185Y-52982898D01*
X41373258Y-53216599D01*
X41373256Y-53216603D01*
X41274666Y-53467804D01*
X41274664Y-53467811D01*
X41214616Y-53730898D01*
X41194451Y-53999995D01*
X34805549Y-53999995D01*
X34785383Y-53730897D01*
X34725334Y-53467805D01*
X34626743Y-53216602D01*
X34491815Y-52982898D01*
X34323561Y-52771915D01*
X34323560Y-52771914D01*
X34323557Y-52771910D01*
X34125741Y-52588365D01*
X33902775Y-52436349D01*
X33902769Y-52436346D01*
X33902768Y-52436345D01*
X33902767Y-52436344D01*
X33659643Y-52319263D01*
X33659645Y-52319263D01*
X33401773Y-52239720D01*
X33401767Y-52239718D01*
X33134936Y-52199500D01*
X33134929Y-52199500D01*
X32865071Y-52199500D01*
X32865063Y-52199500D01*
X32598232Y-52239718D01*
X32598226Y-52239720D01*
X32340358Y-52319262D01*
X32097230Y-52436346D01*
X31874258Y-52588365D01*
X31676442Y-52771910D01*
X31508185Y-52982898D01*
X31373258Y-53216599D01*
X31373256Y-53216603D01*
X31274666Y-53467804D01*
X31274664Y-53467811D01*
X31214616Y-53730898D01*
X31194451Y-53999995D01*
X24805549Y-53999995D01*
X24785383Y-53730897D01*
X24725334Y-53467805D01*
X24626743Y-53216602D01*
X24491815Y-52982898D01*
X24323561Y-52771915D01*
X24323560Y-52771914D01*
X24323557Y-52771910D01*
X24125741Y-52588365D01*
X23902775Y-52436349D01*
X23902769Y-52436346D01*
X23902768Y-52436345D01*
X23902767Y-52436344D01*
X23659643Y-52319263D01*
X23659645Y-52319263D01*
X23401773Y-52239720D01*
X23401767Y-52239718D01*
X23134936Y-52199500D01*
X23134929Y-52199500D01*
X22865071Y-52199500D01*
X22865063Y-52199500D01*
X22598232Y-52239718D01*
X22598226Y-52239720D01*
X22340358Y-52319262D01*
X22097230Y-52436346D01*
X21874258Y-52588365D01*
X21676442Y-52771910D01*
X21508185Y-52982898D01*
X21373258Y-53216599D01*
X21373256Y-53216603D01*
X21274666Y-53467804D01*
X21274664Y-53467811D01*
X21214616Y-53730898D01*
X21194451Y-53999995D01*
X14805549Y-53999995D01*
X14785383Y-53730897D01*
X14725334Y-53467805D01*
X14626743Y-53216602D01*
X14491815Y-52982898D01*
X14323561Y-52771915D01*
X14323560Y-52771914D01*
X14323557Y-52771910D01*
X14125741Y-52588365D01*
X13902775Y-52436349D01*
X13902769Y-52436346D01*
X13902768Y-52436345D01*
X13902767Y-52436344D01*
X13659643Y-52319263D01*
X13659645Y-52319263D01*
X13401773Y-52239720D01*
X13401767Y-52239718D01*
X13134936Y-52199500D01*
X13134929Y-52199500D01*
X12865071Y-52199500D01*
X12865063Y-52199500D01*
X12598232Y-52239718D01*
X12598226Y-52239720D01*
X12340358Y-52319262D01*
X12097230Y-52436346D01*
X11874258Y-52588365D01*
X11676442Y-52771910D01*
X11508185Y-52982898D01*
X11373258Y-53216599D01*
X11373256Y-53216603D01*
X11274666Y-53467804D01*
X11274664Y-53467811D01*
X11214616Y-53730898D01*
X11194451Y-53999995D01*
X400500Y-53999995D01*
X400500Y-44478711D01*
X8849500Y-44478711D01*
X8849500Y-44721288D01*
X8881161Y-44961785D01*
X8943947Y-45196104D01*
X9014561Y-45366581D01*
X9036776Y-45420212D01*
X9158064Y-45630289D01*
X9158066Y-45630292D01*
X9158067Y-45630293D01*
X9305733Y-45822736D01*
X9305739Y-45822743D01*
X9477256Y-45994260D01*
X9477262Y-45994265D01*
X9669711Y-46141936D01*
X9879788Y-46263224D01*
X10103900Y-46356054D01*
X10338211Y-46418838D01*
X10518586Y-46442584D01*
X10578711Y-46450500D01*
X10578712Y-46450500D01*
X11421289Y-46450500D01*
X11469388Y-46444167D01*
X11661789Y-46418838D01*
X11896100Y-46356054D01*
X12120212Y-46263224D01*
X12330289Y-46141936D01*
X12522738Y-45994265D01*
X12694265Y-45822738D01*
X12841936Y-45630289D01*
X12963224Y-45420212D01*
X13056054Y-45196100D01*
X13118838Y-44961789D01*
X13150500Y-44721288D01*
X13150500Y-44478712D01*
X13150500Y-44478711D01*
X28649500Y-44478711D01*
X28649500Y-44721288D01*
X28681161Y-44961785D01*
X28743947Y-45196104D01*
X28814561Y-45366581D01*
X28836776Y-45420212D01*
X28958064Y-45630289D01*
X28958066Y-45630292D01*
X28958067Y-45630293D01*
X29105733Y-45822736D01*
X29105739Y-45822743D01*
X29277256Y-45994260D01*
X29277262Y-45994265D01*
X29469711Y-46141936D01*
X29679788Y-46263224D01*
X29903900Y-46356054D01*
X30138211Y-46418838D01*
X30318586Y-46442584D01*
X30378711Y-46450500D01*
X30378712Y-46450500D01*
X31221289Y-46450500D01*
X31269388Y-46444167D01*
X31461789Y-46418838D01*
X31696100Y-46356054D01*
X31920212Y-46263224D01*
X32130289Y-46141936D01*
X32322738Y-45994265D01*
X32494265Y-45822738D01*
X32641936Y-45630289D01*
X32763224Y-45420212D01*
X32785439Y-45366581D01*
X32829279Y-45312177D01*
X32895573Y-45290112D01*
X32963273Y-45307391D01*
X33010884Y-45358528D01*
X33014561Y-45366581D01*
X33036770Y-45420200D01*
X33036773Y-45420205D01*
X33036776Y-45420212D01*
X33158064Y-45630289D01*
X33158066Y-45630292D01*
X33158067Y-45630293D01*
X33305733Y-45822736D01*
X33305739Y-45822743D01*
X33477256Y-45994260D01*
X33477262Y-45994265D01*
X33669711Y-46141936D01*
X33879788Y-46263224D01*
X34103900Y-46356054D01*
X34338211Y-46418838D01*
X34518586Y-46442584D01*
X34578711Y-46450500D01*
X34578712Y-46450500D01*
X35421289Y-46450500D01*
X35469388Y-46444167D01*
X35661789Y-46418838D01*
X35896100Y-46356054D01*
X36120212Y-46263224D01*
X36330289Y-46141936D01*
X36522738Y-45994265D01*
X36694265Y-45822738D01*
X36841936Y-45630289D01*
X36963224Y-45420212D01*
X37056054Y-45196100D01*
X37118838Y-44961789D01*
X37150500Y-44721288D01*
X37150500Y-44478712D01*
X37150500Y-44478711D01*
X52649500Y-44478711D01*
X52649500Y-44721288D01*
X52681161Y-44961785D01*
X52743947Y-45196104D01*
X52814561Y-45366581D01*
X52836776Y-45420212D01*
X52958064Y-45630289D01*
X52958066Y-45630292D01*
X52958067Y-45630293D01*
X53105733Y-45822736D01*
X53105739Y-45822743D01*
X53277256Y-45994260D01*
X53277262Y-45994265D01*
X53469711Y-46141936D01*
X53679788Y-46263224D01*
X53903900Y-46356054D01*
X54138211Y-46418838D01*
X54318586Y-46442584D01*
X54378711Y-46450500D01*
X54378712Y-46450500D01*
X55221289Y-46450500D01*
X55269388Y-46444167D01*
X55461789Y-46418838D01*
X55696100Y-46356054D01*
X55920212Y-46263224D01*
X56130289Y-46141936D01*
X56322738Y-45994265D01*
X56494265Y-45822738D01*
X56641936Y-45630289D01*
X56763224Y-45420212D01*
X56785439Y-45366581D01*
X56829279Y-45312177D01*
X56895573Y-45290112D01*
X56963273Y-45307391D01*
X57010884Y-45358528D01*
X57014561Y-45366581D01*
X57036770Y-45420200D01*
X57036773Y-45420205D01*
X57036776Y-45420212D01*
X57158064Y-45630289D01*
X57158066Y-45630292D01*
X57158067Y-45630293D01*
X57305733Y-45822736D01*
X57305739Y-45822743D01*
X57477256Y-45994260D01*
X57477262Y-45994265D01*
X57669711Y-46141936D01*
X57879788Y-46263224D01*
X58103900Y-46356054D01*
X58338211Y-46418838D01*
X58518586Y-46442584D01*
X58578711Y-46450500D01*
X58578712Y-46450500D01*
X59421289Y-46450500D01*
X59469388Y-46444167D01*
X59661789Y-46418838D01*
X59896100Y-46356054D01*
X60120212Y-46263224D01*
X60330289Y-46141936D01*
X60522738Y-45994265D01*
X60694265Y-45822738D01*
X60841936Y-45630289D01*
X60963224Y-45420212D01*
X61056054Y-45196100D01*
X61118838Y-44961789D01*
X61150500Y-44721288D01*
X61150500Y-44478712D01*
X61150500Y-44478711D01*
X76649500Y-44478711D01*
X76649500Y-44721288D01*
X76681161Y-44961785D01*
X76743947Y-45196104D01*
X76814561Y-45366581D01*
X76836776Y-45420212D01*
X76958064Y-45630289D01*
X76958066Y-45630292D01*
X76958067Y-45630293D01*
X77105733Y-45822736D01*
X77105739Y-45822743D01*
X77277256Y-45994260D01*
X77277262Y-45994265D01*
X77469711Y-46141936D01*
X77679788Y-46263224D01*
X77903900Y-46356054D01*
X78138211Y-46418838D01*
X78318586Y-46442584D01*
X78378711Y-46450500D01*
X78378712Y-46450500D01*
X79221289Y-46450500D01*
X79269388Y-46444167D01*
X79461789Y-46418838D01*
X79696100Y-46356054D01*
X79920212Y-46263224D01*
X80130289Y-46141936D01*
X80322738Y-45994265D01*
X80494265Y-45822738D01*
X80641936Y-45630289D01*
X80763224Y-45420212D01*
X80785439Y-45366581D01*
X80829279Y-45312177D01*
X80895573Y-45290112D01*
X80963273Y-45307391D01*
X81010884Y-45358528D01*
X81014561Y-45366581D01*
X81036770Y-45420200D01*
X81036773Y-45420205D01*
X81036776Y-45420212D01*
X81158064Y-45630289D01*
X81158066Y-45630292D01*
X81158067Y-45630293D01*
X81305733Y-45822736D01*
X81305739Y-45822743D01*
X81477256Y-45994260D01*
X81477262Y-45994265D01*
X81669711Y-46141936D01*
X81879788Y-46263224D01*
X82103900Y-46356054D01*
X82338211Y-46418838D01*
X82518586Y-46442584D01*
X82578711Y-46450500D01*
X82578712Y-46450500D01*
X83421289Y-46450500D01*
X83469388Y-46444167D01*
X83661789Y-46418838D01*
X83896100Y-46356054D01*
X84120212Y-46263224D01*
X84330289Y-46141936D01*
X84522738Y-45994265D01*
X84694265Y-45822738D01*
X84841936Y-45630289D01*
X84963224Y-45420212D01*
X85056054Y-45196100D01*
X85118838Y-44961789D01*
X85150500Y-44721288D01*
X85150500Y-44478712D01*
X85118838Y-44238211D01*
X85056054Y-44003900D01*
X84963224Y-43779788D01*
X84841936Y-43569711D01*
X84694265Y-43377262D01*
X84694260Y-43377256D01*
X84522743Y-43205739D01*
X84522736Y-43205733D01*
X84330293Y-43058067D01*
X84330292Y-43058066D01*
X84330289Y-43058064D01*
X84120212Y-42936776D01*
X84120205Y-42936773D01*
X83896104Y-42843947D01*
X83661785Y-42781161D01*
X83421289Y-42749500D01*
X83421288Y-42749500D01*
X82578712Y-42749500D01*
X82578711Y-42749500D01*
X82338214Y-42781161D01*
X82103895Y-42843947D01*
X81879794Y-42936773D01*
X81879785Y-42936777D01*
X81669706Y-43058067D01*
X81477263Y-43205733D01*
X81477256Y-43205739D01*
X81305739Y-43377256D01*
X81305733Y-43377263D01*
X81158067Y-43569706D01*
X81036777Y-43779785D01*
X81036773Y-43779794D01*
X81014561Y-43833419D01*
X80970720Y-43887822D01*
X80904426Y-43909887D01*
X80836726Y-43892608D01*
X80789116Y-43841471D01*
X80785439Y-43833419D01*
X80763226Y-43779794D01*
X80763224Y-43779788D01*
X80641936Y-43569711D01*
X80494265Y-43377262D01*
X80494260Y-43377256D01*
X80322743Y-43205739D01*
X80322736Y-43205733D01*
X80130293Y-43058067D01*
X80130292Y-43058066D01*
X80130289Y-43058064D01*
X79920212Y-42936776D01*
X79920205Y-42936773D01*
X79696104Y-42843947D01*
X79461785Y-42781161D01*
X79221289Y-42749500D01*
X79221288Y-42749500D01*
X78378712Y-42749500D01*
X78378711Y-42749500D01*
X78138214Y-42781161D01*
X77903895Y-42843947D01*
X77679794Y-42936773D01*
X77679785Y-42936777D01*
X77469706Y-43058067D01*
X77277263Y-43205733D01*
X77277256Y-43205739D01*
X77105739Y-43377256D01*
X77105733Y-43377263D01*
X76958067Y-43569706D01*
X76836777Y-43779785D01*
X76836773Y-43779794D01*
X76743947Y-44003895D01*
X76681161Y-44238214D01*
X76649500Y-44478711D01*
X61150500Y-44478711D01*
X61118838Y-44238211D01*
X61056054Y-44003900D01*
X60963224Y-43779788D01*
X60841936Y-43569711D01*
X60694265Y-43377262D01*
X60694260Y-43377256D01*
X60522743Y-43205739D01*
X60522736Y-43205733D01*
X60330293Y-43058067D01*
X60330292Y-43058066D01*
X60330289Y-43058064D01*
X60120212Y-42936776D01*
X60120205Y-42936773D01*
X59896104Y-42843947D01*
X59661785Y-42781161D01*
X59421289Y-42749500D01*
X59421288Y-42749500D01*
X58578712Y-42749500D01*
X58578711Y-42749500D01*
X58338214Y-42781161D01*
X58103895Y-42843947D01*
X57879794Y-42936773D01*
X57879785Y-42936777D01*
X57669706Y-43058067D01*
X57477263Y-43205733D01*
X57477256Y-43205739D01*
X57305739Y-43377256D01*
X57305733Y-43377263D01*
X57158067Y-43569706D01*
X57036777Y-43779785D01*
X57036773Y-43779794D01*
X57014561Y-43833419D01*
X56970720Y-43887822D01*
X56904426Y-43909887D01*
X56836726Y-43892608D01*
X56789116Y-43841471D01*
X56785439Y-43833419D01*
X56763226Y-43779794D01*
X56763224Y-43779788D01*
X56641936Y-43569711D01*
X56494265Y-43377262D01*
X56494260Y-43377256D01*
X56322743Y-43205739D01*
X56322736Y-43205733D01*
X56130293Y-43058067D01*
X56130292Y-43058066D01*
X56130289Y-43058064D01*
X55920212Y-42936776D01*
X55920205Y-42936773D01*
X55696104Y-42843947D01*
X55461785Y-42781161D01*
X55221289Y-42749500D01*
X55221288Y-42749500D01*
X54378712Y-42749500D01*
X54378711Y-42749500D01*
X54138214Y-42781161D01*
X53903895Y-42843947D01*
X53679794Y-42936773D01*
X53679785Y-42936777D01*
X53469706Y-43058067D01*
X53277263Y-43205733D01*
X53277256Y-43205739D01*
X53105739Y-43377256D01*
X53105733Y-43377263D01*
X52958067Y-43569706D01*
X52836777Y-43779785D01*
X52836773Y-43779794D01*
X52743947Y-44003895D01*
X52681161Y-44238214D01*
X52649500Y-44478711D01*
X37150500Y-44478711D01*
X37118838Y-44238211D01*
X37056054Y-44003900D01*
X36963224Y-43779788D01*
X36841936Y-43569711D01*
X36694265Y-43377262D01*
X36694260Y-43377256D01*
X36522743Y-43205739D01*
X36522736Y-43205733D01*
X36330293Y-43058067D01*
X36330292Y-43058066D01*
X36330289Y-43058064D01*
X36120212Y-42936776D01*
X36120205Y-42936773D01*
X35896104Y-42843947D01*
X35661785Y-42781161D01*
X35421289Y-42749500D01*
X35421288Y-42749500D01*
X34578712Y-42749500D01*
X34578711Y-42749500D01*
X34338214Y-42781161D01*
X34103895Y-42843947D01*
X33879794Y-42936773D01*
X33879785Y-42936777D01*
X33669706Y-43058067D01*
X33477263Y-43205733D01*
X33477256Y-43205739D01*
X33305739Y-43377256D01*
X33305733Y-43377263D01*
X33158067Y-43569706D01*
X33036777Y-43779785D01*
X33036773Y-43779794D01*
X33014561Y-43833419D01*
X32970720Y-43887822D01*
X32904426Y-43909887D01*
X32836726Y-43892608D01*
X32789116Y-43841471D01*
X32785439Y-43833419D01*
X32763226Y-43779794D01*
X32763224Y-43779788D01*
X32641936Y-43569711D01*
X32494265Y-43377262D01*
X32494260Y-43377256D01*
X32322743Y-43205739D01*
X32322736Y-43205733D01*
X32130293Y-43058067D01*
X32130292Y-43058066D01*
X32130289Y-43058064D01*
X31920212Y-42936776D01*
X31920205Y-42936773D01*
X31696104Y-42843947D01*
X31461785Y-42781161D01*
X31221289Y-42749500D01*
X31221288Y-42749500D01*
X30378712Y-42749500D01*
X30378711Y-42749500D01*
X30138214Y-42781161D01*
X29903895Y-42843947D01*
X29679794Y-42936773D01*
X29679785Y-42936777D01*
X29469706Y-43058067D01*
X29277263Y-43205733D01*
X29277256Y-43205739D01*
X29105739Y-43377256D01*
X29105733Y-43377263D01*
X28958067Y-43569706D01*
X28836777Y-43779785D01*
X28836773Y-43779794D01*
X28743947Y-44003895D01*
X28681161Y-44238214D01*
X28649500Y-44478711D01*
X13150500Y-44478711D01*
X13118838Y-44238211D01*
X13056054Y-44003900D01*
X12963224Y-43779788D01*
X12841936Y-43569711D01*
X12694265Y-43377262D01*
X12694260Y-43377256D01*
X12522743Y-43205739D01*
X12522736Y-43205733D01*
X12330293Y-43058067D01*
X12330292Y-43058066D01*
X12330289Y-43058064D01*
X12120212Y-42936776D01*
X12120205Y-42936773D01*
X11896104Y-42843947D01*
X11661785Y-42781161D01*
X11421289Y-42749500D01*
X11421288Y-42749500D01*
X10578712Y-42749500D01*
X10578711Y-42749500D01*
X10338214Y-42781161D01*
X10103895Y-42843947D01*
X9879794Y-42936773D01*
X9879785Y-42936777D01*
X9669706Y-43058067D01*
X9477263Y-43205733D01*
X9477256Y-43205739D01*
X9305739Y-43377256D01*
X9305733Y-43377263D01*
X9158067Y-43569706D01*
X9036777Y-43779785D01*
X9036773Y-43779794D01*
X8943947Y-44003895D01*
X8881161Y-44238214D01*
X8849500Y-44478711D01*
X400500Y-44478711D01*
X400500Y-40278711D01*
X8849500Y-40278711D01*
X8849500Y-40521288D01*
X8881161Y-40761785D01*
X8943947Y-40996104D01*
X9036773Y-41220205D01*
X9036776Y-41220212D01*
X9158064Y-41430289D01*
X9158066Y-41430292D01*
X9158067Y-41430293D01*
X9305733Y-41622736D01*
X9305739Y-41622743D01*
X9477256Y-41794260D01*
X9477262Y-41794265D01*
X9669711Y-41941936D01*
X9879788Y-42063224D01*
X10103900Y-42156054D01*
X10338211Y-42218838D01*
X10518586Y-42242584D01*
X10578711Y-42250500D01*
X10578712Y-42250500D01*
X11421289Y-42250500D01*
X11469388Y-42244167D01*
X11661789Y-42218838D01*
X11896100Y-42156054D01*
X12120212Y-42063224D01*
X12330289Y-41941936D01*
X12522738Y-41794265D01*
X12694265Y-41622738D01*
X12841936Y-41430289D01*
X12963224Y-41220212D01*
X13056054Y-40996100D01*
X13118838Y-40761789D01*
X13150500Y-40521288D01*
X13150500Y-40278712D01*
X13150500Y-40278711D01*
X28649500Y-40278711D01*
X28649500Y-40521288D01*
X28681161Y-40761785D01*
X28743947Y-40996104D01*
X28836773Y-41220205D01*
X28836776Y-41220212D01*
X28958064Y-41430289D01*
X28958066Y-41430292D01*
X28958067Y-41430293D01*
X29105733Y-41622736D01*
X29105739Y-41622743D01*
X29277256Y-41794260D01*
X29277262Y-41794265D01*
X29469711Y-41941936D01*
X29679788Y-42063224D01*
X29903900Y-42156054D01*
X30138211Y-42218838D01*
X30318586Y-42242584D01*
X30378711Y-42250500D01*
X30378712Y-42250500D01*
X31221289Y-42250500D01*
X31269388Y-42244167D01*
X31461789Y-42218838D01*
X31696100Y-42156054D01*
X31920212Y-42063224D01*
X32130289Y-41941936D01*
X32322738Y-41794265D01*
X32494265Y-41622738D01*
X32641936Y-41430289D01*
X32763224Y-41220212D01*
X32856054Y-40996100D01*
X32918838Y-40761789D01*
X32950500Y-40521288D01*
X32950500Y-40278712D01*
X32950500Y-40278711D01*
X52649500Y-40278711D01*
X52649500Y-40521288D01*
X52681161Y-40761785D01*
X52743947Y-40996104D01*
X52836773Y-41220205D01*
X52836776Y-41220212D01*
X52958064Y-41430289D01*
X52958066Y-41430292D01*
X52958067Y-41430293D01*
X53105733Y-41622736D01*
X53105739Y-41622743D01*
X53277256Y-41794260D01*
X53277262Y-41794265D01*
X53469711Y-41941936D01*
X53679788Y-42063224D01*
X53903900Y-42156054D01*
X54138211Y-42218838D01*
X54318586Y-42242584D01*
X54378711Y-42250500D01*
X54378712Y-42250500D01*
X55221289Y-42250500D01*
X55269388Y-42244167D01*
X55461789Y-42218838D01*
X55696100Y-42156054D01*
X55920212Y-42063224D01*
X56130289Y-41941936D01*
X56322738Y-41794265D01*
X56494265Y-41622738D01*
X56641936Y-41430289D01*
X56763224Y-41220212D01*
X56856054Y-40996100D01*
X56918838Y-40761789D01*
X56950500Y-40521288D01*
X56950500Y-40278712D01*
X56950500Y-40278711D01*
X76649500Y-40278711D01*
X76649500Y-40521288D01*
X76681161Y-40761785D01*
X76743947Y-40996104D01*
X76836773Y-41220205D01*
X76836776Y-41220212D01*
X76958064Y-41430289D01*
X76958066Y-41430292D01*
X76958067Y-41430293D01*
X77105733Y-41622736D01*
X77105739Y-41622743D01*
X77277256Y-41794260D01*
X77277262Y-41794265D01*
X77469711Y-41941936D01*
X77679788Y-42063224D01*
X77903900Y-42156054D01*
X78138211Y-42218838D01*
X78318586Y-42242584D01*
X78378711Y-42250500D01*
X78378712Y-42250500D01*
X79221289Y-42250500D01*
X79269388Y-42244167D01*
X79461789Y-42218838D01*
X79696100Y-42156054D01*
X79920212Y-42063224D01*
X80130289Y-41941936D01*
X80322738Y-41794265D01*
X80494265Y-41622738D01*
X80641936Y-41430289D01*
X80763224Y-41220212D01*
X80856054Y-40996100D01*
X80918838Y-40761789D01*
X80950500Y-40521288D01*
X80950500Y-40278712D01*
X80918838Y-40038211D01*
X80856054Y-39803900D01*
X80763224Y-39579788D01*
X80641936Y-39369711D01*
X80494265Y-39177262D01*
X80494260Y-39177256D01*
X80322743Y-39005739D01*
X80322736Y-39005733D01*
X80130293Y-38858067D01*
X80130292Y-38858066D01*
X80130289Y-38858064D01*
X79920212Y-38736776D01*
X79920205Y-38736773D01*
X79696104Y-38643947D01*
X79461785Y-38581161D01*
X79221289Y-38549500D01*
X79221288Y-38549500D01*
X78378712Y-38549500D01*
X78378711Y-38549500D01*
X78138214Y-38581161D01*
X77903895Y-38643947D01*
X77679794Y-38736773D01*
X77679785Y-38736777D01*
X77469706Y-38858067D01*
X77277263Y-39005733D01*
X77277256Y-39005739D01*
X77105739Y-39177256D01*
X77105733Y-39177263D01*
X76958067Y-39369706D01*
X76836777Y-39579785D01*
X76836773Y-39579794D01*
X76743947Y-39803895D01*
X76681161Y-40038214D01*
X76649500Y-40278711D01*
X56950500Y-40278711D01*
X56918838Y-40038211D01*
X56856054Y-39803900D01*
X56763224Y-39579788D01*
X56641936Y-39369711D01*
X56494265Y-39177262D01*
X56494260Y-39177256D01*
X56322743Y-39005739D01*
X56322736Y-39005733D01*
X56130293Y-38858067D01*
X56130292Y-38858066D01*
X56130289Y-38858064D01*
X55920212Y-38736776D01*
X55920205Y-38736773D01*
X55696104Y-38643947D01*
X55461785Y-38581161D01*
X55221289Y-38549500D01*
X55221288Y-38549500D01*
X54378712Y-38549500D01*
X54378711Y-38549500D01*
X54138214Y-38581161D01*
X53903895Y-38643947D01*
X53679794Y-38736773D01*
X53679785Y-38736777D01*
X53469706Y-38858067D01*
X53277263Y-39005733D01*
X53277256Y-39005739D01*
X53105739Y-39177256D01*
X53105733Y-39177263D01*
X52958067Y-39369706D01*
X52836777Y-39579785D01*
X52836773Y-39579794D01*
X52743947Y-39803895D01*
X52681161Y-40038214D01*
X52649500Y-40278711D01*
X32950500Y-40278711D01*
X32918838Y-40038211D01*
X32856054Y-39803900D01*
X32763224Y-39579788D01*
X32641936Y-39369711D01*
X32494265Y-39177262D01*
X32494260Y-39177256D01*
X32322743Y-39005739D01*
X32322736Y-39005733D01*
X32130293Y-38858067D01*
X32130292Y-38858066D01*
X32130289Y-38858064D01*
X31920212Y-38736776D01*
X31920205Y-38736773D01*
X31696104Y-38643947D01*
X31461785Y-38581161D01*
X31221289Y-38549500D01*
X31221288Y-38549500D01*
X30378712Y-38549500D01*
X30378711Y-38549500D01*
X30138214Y-38581161D01*
X29903895Y-38643947D01*
X29679794Y-38736773D01*
X29679785Y-38736777D01*
X29469706Y-38858067D01*
X29277263Y-39005733D01*
X29277256Y-39005739D01*
X29105739Y-39177256D01*
X29105733Y-39177263D01*
X28958067Y-39369706D01*
X28836777Y-39579785D01*
X28836773Y-39579794D01*
X28743947Y-39803895D01*
X28681161Y-40038214D01*
X28649500Y-40278711D01*
X13150500Y-40278711D01*
X13118838Y-40038211D01*
X13056054Y-39803900D01*
X12963224Y-39579788D01*
X12841936Y-39369711D01*
X12694265Y-39177262D01*
X12694260Y-39177256D01*
X12522743Y-39005739D01*
X12522736Y-39005733D01*
X12330293Y-38858067D01*
X12330292Y-38858066D01*
X12330289Y-38858064D01*
X12120212Y-38736776D01*
X12120205Y-38736773D01*
X11896104Y-38643947D01*
X11661785Y-38581161D01*
X11421289Y-38549500D01*
X11421288Y-38549500D01*
X10578712Y-38549500D01*
X10578711Y-38549500D01*
X10338214Y-38581161D01*
X10103895Y-38643947D01*
X9879794Y-38736773D01*
X9879785Y-38736777D01*
X9669706Y-38858067D01*
X9477263Y-39005733D01*
X9477256Y-39005739D01*
X9305739Y-39177256D01*
X9305733Y-39177263D01*
X9158067Y-39369706D01*
X9036777Y-39579785D01*
X9036773Y-39579794D01*
X8943947Y-39803895D01*
X8881161Y-40038214D01*
X8849500Y-40278711D01*
X400500Y-40278711D01*
X400500Y-36078711D01*
X8849500Y-36078711D01*
X8849500Y-36321288D01*
X8881161Y-36561785D01*
X8943947Y-36796104D01*
X9036773Y-37020205D01*
X9036776Y-37020212D01*
X9158064Y-37230289D01*
X9158066Y-37230292D01*
X9158067Y-37230293D01*
X9305733Y-37422736D01*
X9305739Y-37422743D01*
X9477256Y-37594260D01*
X9477262Y-37594265D01*
X9669711Y-37741936D01*
X9879788Y-37863224D01*
X10103900Y-37956054D01*
X10338211Y-38018838D01*
X10518586Y-38042584D01*
X10578711Y-38050500D01*
X10578712Y-38050500D01*
X11421289Y-38050500D01*
X11469388Y-38044167D01*
X11661789Y-38018838D01*
X11896100Y-37956054D01*
X12120212Y-37863224D01*
X12330289Y-37741936D01*
X12522738Y-37594265D01*
X12694265Y-37422738D01*
X12841936Y-37230289D01*
X12963224Y-37020212D01*
X13056054Y-36796100D01*
X13118838Y-36561789D01*
X13150500Y-36321288D01*
X13150500Y-36078712D01*
X13150500Y-36078711D01*
X28649500Y-36078711D01*
X28649500Y-36321288D01*
X28681161Y-36561785D01*
X28743947Y-36796104D01*
X28836773Y-37020205D01*
X28836776Y-37020212D01*
X28958064Y-37230289D01*
X28958066Y-37230292D01*
X28958067Y-37230293D01*
X29105733Y-37422736D01*
X29105739Y-37422743D01*
X29277256Y-37594260D01*
X29277262Y-37594265D01*
X29469711Y-37741936D01*
X29679788Y-37863224D01*
X29903900Y-37956054D01*
X30138211Y-38018838D01*
X30318586Y-38042584D01*
X30378711Y-38050500D01*
X30378712Y-38050500D01*
X31221289Y-38050500D01*
X31269388Y-38044167D01*
X31461789Y-38018838D01*
X31696100Y-37956054D01*
X31920212Y-37863224D01*
X32130289Y-37741936D01*
X32322738Y-37594265D01*
X32494265Y-37422738D01*
X32641936Y-37230289D01*
X32763224Y-37020212D01*
X32856054Y-36796100D01*
X32918838Y-36561789D01*
X32950500Y-36321288D01*
X32950500Y-36078712D01*
X32950500Y-36078711D01*
X52649500Y-36078711D01*
X52649500Y-36321288D01*
X52681161Y-36561785D01*
X52743947Y-36796104D01*
X52836773Y-37020205D01*
X52836776Y-37020212D01*
X52958064Y-37230289D01*
X52958066Y-37230292D01*
X52958067Y-37230293D01*
X53105733Y-37422736D01*
X53105739Y-37422743D01*
X53277256Y-37594260D01*
X53277262Y-37594265D01*
X53469711Y-37741936D01*
X53679788Y-37863224D01*
X53903900Y-37956054D01*
X54138211Y-38018838D01*
X54318586Y-38042584D01*
X54378711Y-38050500D01*
X54378712Y-38050500D01*
X55221289Y-38050500D01*
X55269388Y-38044167D01*
X55461789Y-38018838D01*
X55696100Y-37956054D01*
X55920212Y-37863224D01*
X56130289Y-37741936D01*
X56322738Y-37594265D01*
X56494265Y-37422738D01*
X56641936Y-37230289D01*
X56763224Y-37020212D01*
X56856054Y-36796100D01*
X56918838Y-36561789D01*
X56950500Y-36321288D01*
X56950500Y-36078712D01*
X56950500Y-36078711D01*
X76649500Y-36078711D01*
X76649500Y-36321288D01*
X76681161Y-36561785D01*
X76743947Y-36796104D01*
X76836773Y-37020205D01*
X76836776Y-37020212D01*
X76958064Y-37230289D01*
X76958066Y-37230292D01*
X76958067Y-37230293D01*
X77105733Y-37422736D01*
X77105739Y-37422743D01*
X77277256Y-37594260D01*
X77277262Y-37594265D01*
X77469711Y-37741936D01*
X77679788Y-37863224D01*
X77903900Y-37956054D01*
X78138211Y-38018838D01*
X78318586Y-38042584D01*
X78378711Y-38050500D01*
X78378712Y-38050500D01*
X79221289Y-38050500D01*
X79269388Y-38044167D01*
X79461789Y-38018838D01*
X79696100Y-37956054D01*
X79920212Y-37863224D01*
X80130289Y-37741936D01*
X80322738Y-37594265D01*
X80494265Y-37422738D01*
X80641936Y-37230289D01*
X80763224Y-37020212D01*
X80856054Y-36796100D01*
X80918838Y-36561789D01*
X80950500Y-36321288D01*
X80950500Y-36078712D01*
X80918838Y-35838211D01*
X80856054Y-35603900D01*
X80763224Y-35379788D01*
X80641936Y-35169711D01*
X80494265Y-34977262D01*
X80494260Y-34977256D01*
X80322743Y-34805739D01*
X80322736Y-34805733D01*
X80130293Y-34658067D01*
X80130292Y-34658066D01*
X80130289Y-34658064D01*
X79920212Y-34536776D01*
X79920205Y-34536773D01*
X79696104Y-34443947D01*
X79461785Y-34381161D01*
X79221289Y-34349500D01*
X79221288Y-34349500D01*
X78378712Y-34349500D01*
X78378711Y-34349500D01*
X78138214Y-34381161D01*
X77903895Y-34443947D01*
X77679794Y-34536773D01*
X77679785Y-34536777D01*
X77469706Y-34658067D01*
X77277263Y-34805733D01*
X77277256Y-34805739D01*
X77105739Y-34977256D01*
X77105733Y-34977263D01*
X76958067Y-35169706D01*
X76836777Y-35379785D01*
X76836773Y-35379794D01*
X76743947Y-35603895D01*
X76681161Y-35838214D01*
X76649500Y-36078711D01*
X56950500Y-36078711D01*
X56918838Y-35838211D01*
X56856054Y-35603900D01*
X56763224Y-35379788D01*
X56641936Y-35169711D01*
X56494265Y-34977262D01*
X56494260Y-34977256D01*
X56322743Y-34805739D01*
X56322736Y-34805733D01*
X56130293Y-34658067D01*
X56130292Y-34658066D01*
X56130289Y-34658064D01*
X55920212Y-34536776D01*
X55920205Y-34536773D01*
X55696104Y-34443947D01*
X55461785Y-34381161D01*
X55221289Y-34349500D01*
X55221288Y-34349500D01*
X54378712Y-34349500D01*
X54378711Y-34349500D01*
X54138214Y-34381161D01*
X53903895Y-34443947D01*
X53679794Y-34536773D01*
X53679785Y-34536777D01*
X53469706Y-34658067D01*
X53277263Y-34805733D01*
X53277256Y-34805739D01*
X53105739Y-34977256D01*
X53105733Y-34977263D01*
X52958067Y-35169706D01*
X52836777Y-35379785D01*
X52836773Y-35379794D01*
X52743947Y-35603895D01*
X52681161Y-35838214D01*
X52649500Y-36078711D01*
X32950500Y-36078711D01*
X32918838Y-35838211D01*
X32856054Y-35603900D01*
X32763224Y-35379788D01*
X32641936Y-35169711D01*
X32494265Y-34977262D01*
X32494260Y-34977256D01*
X32322743Y-34805739D01*
X32322736Y-34805733D01*
X32130293Y-34658067D01*
X32130292Y-34658066D01*
X32130289Y-34658064D01*
X31920212Y-34536776D01*
X31920205Y-34536773D01*
X31696104Y-34443947D01*
X31461785Y-34381161D01*
X31221289Y-34349500D01*
X31221288Y-34349500D01*
X30378712Y-34349500D01*
X30378711Y-34349500D01*
X30138214Y-34381161D01*
X29903895Y-34443947D01*
X29679794Y-34536773D01*
X29679785Y-34536777D01*
X29469706Y-34658067D01*
X29277263Y-34805733D01*
X29277256Y-34805739D01*
X29105739Y-34977256D01*
X29105733Y-34977263D01*
X28958067Y-35169706D01*
X28836777Y-35379785D01*
X28836773Y-35379794D01*
X28743947Y-35603895D01*
X28681161Y-35838214D01*
X28649500Y-36078711D01*
X13150500Y-36078711D01*
X13118838Y-35838211D01*
X13056054Y-35603900D01*
X12963224Y-35379788D01*
X12841936Y-35169711D01*
X12694265Y-34977262D01*
X12694260Y-34977256D01*
X12522743Y-34805739D01*
X12522736Y-34805733D01*
X12330293Y-34658067D01*
X12330292Y-34658066D01*
X12330289Y-34658064D01*
X12120212Y-34536776D01*
X12120205Y-34536773D01*
X11896104Y-34443947D01*
X11661785Y-34381161D01*
X11421289Y-34349500D01*
X11421288Y-34349500D01*
X10578712Y-34349500D01*
X10578711Y-34349500D01*
X10338214Y-34381161D01*
X10103895Y-34443947D01*
X9879794Y-34536773D01*
X9879785Y-34536777D01*
X9669706Y-34658067D01*
X9477263Y-34805733D01*
X9477256Y-34805739D01*
X9305739Y-34977256D01*
X9305733Y-34977263D01*
X9158067Y-35169706D01*
X9036777Y-35379785D01*
X9036773Y-35379794D01*
X8943947Y-35603895D01*
X8881161Y-35838214D01*
X8849500Y-36078711D01*
X400500Y-36078711D01*
X400500Y-30849983D01*
X8849500Y-30849983D01*
X8849500Y-33150001D01*
X8849501Y-33150018D01*
X8860000Y-33252796D01*
X8860001Y-33252799D01*
X8906877Y-33394260D01*
X8915186Y-33419334D01*
X9007288Y-33568656D01*
X9131344Y-33692712D01*
X9280666Y-33784814D01*
X9447203Y-33839999D01*
X9549991Y-33850500D01*
X12450008Y-33850499D01*
X12552797Y-33839999D01*
X12719334Y-33784814D01*
X12868656Y-33692712D01*
X12992712Y-33568656D01*
X13084814Y-33419334D01*
X13139999Y-33252797D01*
X13150500Y-33150009D01*
X13150499Y-31878711D01*
X28649500Y-31878711D01*
X28649500Y-32121288D01*
X28681161Y-32361785D01*
X28743947Y-32596104D01*
X28836773Y-32820205D01*
X28836776Y-32820212D01*
X28958064Y-33030289D01*
X28958066Y-33030292D01*
X28958067Y-33030293D01*
X29105733Y-33222736D01*
X29105739Y-33222743D01*
X29277256Y-33394260D01*
X29277263Y-33394266D01*
X29309935Y-33419336D01*
X29469711Y-33541936D01*
X29679788Y-33663224D01*
X29903900Y-33756054D01*
X30138211Y-33818838D01*
X30298940Y-33839998D01*
X30378711Y-33850500D01*
X30378712Y-33850500D01*
X31221289Y-33850500D01*
X31301052Y-33839999D01*
X31461789Y-33818838D01*
X31696100Y-33756054D01*
X31920212Y-33663224D01*
X32130289Y-33541936D01*
X32322738Y-33394265D01*
X32494265Y-33222738D01*
X32641936Y-33030289D01*
X32763224Y-32820212D01*
X32856054Y-32596100D01*
X32918838Y-32361789D01*
X32950500Y-32121288D01*
X32950500Y-31878712D01*
X32950500Y-31878711D01*
X52649500Y-31878711D01*
X52649500Y-32121288D01*
X52681161Y-32361785D01*
X52743947Y-32596104D01*
X52836773Y-32820205D01*
X52836776Y-32820212D01*
X52958064Y-33030289D01*
X52958066Y-33030292D01*
X52958067Y-33030293D01*
X53105733Y-33222736D01*
X53105739Y-33222743D01*
X53277256Y-33394260D01*
X53277263Y-33394266D01*
X53309935Y-33419336D01*
X53469711Y-33541936D01*
X53679788Y-33663224D01*
X53903900Y-33756054D01*
X54138211Y-33818838D01*
X54298940Y-33839998D01*
X54378711Y-33850500D01*
X54378712Y-33850500D01*
X55221289Y-33850500D01*
X55301052Y-33839999D01*
X55461789Y-33818838D01*
X55696100Y-33756054D01*
X55920212Y-33663224D01*
X56130289Y-33541936D01*
X56322738Y-33394265D01*
X56494265Y-33222738D01*
X56641936Y-33030289D01*
X56763224Y-32820212D01*
X56856054Y-32596100D01*
X56918838Y-32361789D01*
X56950500Y-32121288D01*
X56950500Y-31878712D01*
X56950500Y-31878711D01*
X76649500Y-31878711D01*
X76649500Y-32121288D01*
X76681161Y-32361785D01*
X76743947Y-32596104D01*
X76836773Y-32820205D01*
X76836776Y-32820212D01*
X76958064Y-33030289D01*
X76958066Y-33030292D01*
X76958067Y-33030293D01*
X77105733Y-33222736D01*
X77105739Y-33222743D01*
X77277256Y-33394260D01*
X77277263Y-33394266D01*
X77309935Y-33419336D01*
X77469711Y-33541936D01*
X77679788Y-33663224D01*
X77903900Y-33756054D01*
X78138211Y-33818838D01*
X78298940Y-33839998D01*
X78378711Y-33850500D01*
X78378712Y-33850500D01*
X79221289Y-33850500D01*
X79301052Y-33839999D01*
X79461789Y-33818838D01*
X79696100Y-33756054D01*
X79920212Y-33663224D01*
X80130289Y-33541936D01*
X80322738Y-33394265D01*
X80494265Y-33222738D01*
X80641936Y-33030289D01*
X80763224Y-32820212D01*
X80856054Y-32596100D01*
X80918838Y-32361789D01*
X80950500Y-32121288D01*
X80950500Y-31878712D01*
X80918838Y-31638211D01*
X80856054Y-31403900D01*
X80763224Y-31179788D01*
X80641936Y-30969711D01*
X80494265Y-30777262D01*
X80494260Y-30777256D01*
X80322743Y-30605739D01*
X80322736Y-30605733D01*
X80130293Y-30458067D01*
X80130292Y-30458066D01*
X80130289Y-30458064D01*
X79920212Y-30336776D01*
X79898907Y-30327951D01*
X79696104Y-30243947D01*
X79461785Y-30181161D01*
X79221289Y-30149500D01*
X79221288Y-30149500D01*
X78378712Y-30149500D01*
X78378711Y-30149500D01*
X78138214Y-30181161D01*
X77903895Y-30243947D01*
X77679794Y-30336773D01*
X77679785Y-30336777D01*
X77469706Y-30458067D01*
X77277263Y-30605733D01*
X77277256Y-30605739D01*
X77105739Y-30777256D01*
X77105733Y-30777263D01*
X76958067Y-30969706D01*
X76836777Y-31179785D01*
X76836773Y-31179794D01*
X76743947Y-31403895D01*
X76681161Y-31638214D01*
X76649500Y-31878711D01*
X56950500Y-31878711D01*
X56918838Y-31638211D01*
X56856054Y-31403900D01*
X56763224Y-31179788D01*
X56641936Y-30969711D01*
X56494265Y-30777262D01*
X56494260Y-30777256D01*
X56322743Y-30605739D01*
X56322736Y-30605733D01*
X56130293Y-30458067D01*
X56130292Y-30458066D01*
X56130289Y-30458064D01*
X55920212Y-30336776D01*
X55898907Y-30327951D01*
X55696104Y-30243947D01*
X55461785Y-30181161D01*
X55221289Y-30149500D01*
X55221288Y-30149500D01*
X54378712Y-30149500D01*
X54378711Y-30149500D01*
X54138214Y-30181161D01*
X53903895Y-30243947D01*
X53679794Y-30336773D01*
X53679785Y-30336777D01*
X53469706Y-30458067D01*
X53277263Y-30605733D01*
X53277256Y-30605739D01*
X53105739Y-30777256D01*
X53105733Y-30777263D01*
X52958067Y-30969706D01*
X52836777Y-31179785D01*
X52836773Y-31179794D01*
X52743947Y-31403895D01*
X52681161Y-31638214D01*
X52649500Y-31878711D01*
X32950500Y-31878711D01*
X32918838Y-31638211D01*
X32856054Y-31403900D01*
X32763224Y-31179788D01*
X32641936Y-30969711D01*
X32494265Y-30777262D01*
X32494260Y-30777256D01*
X32322743Y-30605739D01*
X32322736Y-30605733D01*
X32130293Y-30458067D01*
X32130292Y-30458066D01*
X32130289Y-30458064D01*
X31920212Y-30336776D01*
X31898907Y-30327951D01*
X31696104Y-30243947D01*
X31461785Y-30181161D01*
X31221289Y-30149500D01*
X31221288Y-30149500D01*
X30378712Y-30149500D01*
X30378711Y-30149500D01*
X30138214Y-30181161D01*
X29903895Y-30243947D01*
X29679794Y-30336773D01*
X29679785Y-30336777D01*
X29469706Y-30458067D01*
X29277263Y-30605733D01*
X29277256Y-30605739D01*
X29105739Y-30777256D01*
X29105733Y-30777263D01*
X28958067Y-30969706D01*
X28836777Y-31179785D01*
X28836773Y-31179794D01*
X28743947Y-31403895D01*
X28681161Y-31638214D01*
X28649500Y-31878711D01*
X13150499Y-31878711D01*
X13150499Y-30849992D01*
X13139999Y-30747203D01*
X13084814Y-30580666D01*
X12992712Y-30431344D01*
X12868656Y-30307288D01*
X12719334Y-30215186D01*
X12552797Y-30160001D01*
X12552795Y-30160000D01*
X12450010Y-30149500D01*
X9549998Y-30149500D01*
X9549981Y-30149501D01*
X9447203Y-30160000D01*
X9447200Y-30160001D01*
X9280668Y-30215185D01*
X9280663Y-30215187D01*
X9131342Y-30307289D01*
X9007289Y-30431342D01*
X8915187Y-30580663D01*
X8915185Y-30580668D01*
X8887349Y-30664670D01*
X8860001Y-30747203D01*
X8860001Y-30747204D01*
X8860000Y-30747204D01*
X8849500Y-30849983D01*
X400500Y-30849983D01*
X400500Y-29889778D01*
X18599500Y-29889778D01*
X18599500Y-30110221D01*
X18633985Y-30327952D01*
X18702103Y-30537603D01*
X18702104Y-30537606D01*
X18802187Y-30734025D01*
X18931752Y-30912358D01*
X18931756Y-30912363D01*
X19087636Y-31068243D01*
X19087641Y-31068247D01*
X19241162Y-31179785D01*
X19265978Y-31197815D01*
X19394375Y-31263237D01*
X19462393Y-31297895D01*
X19462396Y-31297896D01*
X19567221Y-31331955D01*
X19672049Y-31366015D01*
X19889778Y-31400500D01*
X19889779Y-31400500D01*
X20110221Y-31400500D01*
X20110222Y-31400500D01*
X20327951Y-31366015D01*
X20537606Y-31297895D01*
X20734022Y-31197815D01*
X20912365Y-31068242D01*
X21068242Y-30912365D01*
X21197815Y-30734022D01*
X21297895Y-30537606D01*
X21366015Y-30327951D01*
X21400500Y-30110222D01*
X21400500Y-29889778D01*
X43599500Y-29889778D01*
X43599500Y-30110221D01*
X43633985Y-30327952D01*
X43702103Y-30537603D01*
X43702104Y-30537606D01*
X43802187Y-30734025D01*
X43931752Y-30912358D01*
X43931756Y-30912363D01*
X44087636Y-31068243D01*
X44087641Y-31068247D01*
X44241162Y-31179785D01*
X44265978Y-31197815D01*
X44394375Y-31263237D01*
X44462393Y-31297895D01*
X44462396Y-31297896D01*
X44567221Y-31331955D01*
X44672049Y-31366015D01*
X44889778Y-31400500D01*
X44889779Y-31400500D01*
X45110221Y-31400500D01*
X45110222Y-31400500D01*
X45327951Y-31366015D01*
X45537606Y-31297895D01*
X45734022Y-31197815D01*
X45912365Y-31068242D01*
X46068242Y-30912365D01*
X46197815Y-30734022D01*
X46297895Y-30537606D01*
X46366015Y-30327951D01*
X46400500Y-30110222D01*
X46400500Y-29889778D01*
X68599500Y-29889778D01*
X68599500Y-30110221D01*
X68633985Y-30327952D01*
X68702103Y-30537603D01*
X68702104Y-30537606D01*
X68802187Y-30734025D01*
X68931752Y-30912358D01*
X68931756Y-30912363D01*
X69087636Y-31068243D01*
X69087641Y-31068247D01*
X69241162Y-31179785D01*
X69265978Y-31197815D01*
X69394375Y-31263237D01*
X69462393Y-31297895D01*
X69462396Y-31297896D01*
X69567221Y-31331955D01*
X69672049Y-31366015D01*
X69889778Y-31400500D01*
X69889779Y-31400500D01*
X70110221Y-31400500D01*
X70110222Y-31400500D01*
X70327951Y-31366015D01*
X70537606Y-31297895D01*
X70734022Y-31197815D01*
X70912365Y-31068242D01*
X71068242Y-30912365D01*
X71197815Y-30734022D01*
X71297895Y-30537606D01*
X71366015Y-30327951D01*
X71400500Y-30110222D01*
X71400500Y-29889778D01*
X71366015Y-29672049D01*
X71297895Y-29462394D01*
X71297895Y-29462393D01*
X71263237Y-29394375D01*
X71197815Y-29265978D01*
X71181260Y-29243192D01*
X71068247Y-29087641D01*
X71068243Y-29087636D01*
X70912363Y-28931756D01*
X70912358Y-28931752D01*
X70734025Y-28802187D01*
X70734024Y-28802186D01*
X70734022Y-28802185D01*
X70671096Y-28770122D01*
X70537606Y-28702104D01*
X70537603Y-28702103D01*
X70327952Y-28633985D01*
X70219086Y-28616742D01*
X70110222Y-28599500D01*
X69889778Y-28599500D01*
X69817201Y-28610995D01*
X69672047Y-28633985D01*
X69462396Y-28702103D01*
X69462393Y-28702104D01*
X69265974Y-28802187D01*
X69087641Y-28931752D01*
X69087636Y-28931756D01*
X68931756Y-29087636D01*
X68931752Y-29087641D01*
X68802187Y-29265974D01*
X68702104Y-29462393D01*
X68702103Y-29462396D01*
X68633985Y-29672047D01*
X68599500Y-29889778D01*
X46400500Y-29889778D01*
X46366015Y-29672049D01*
X46297895Y-29462394D01*
X46297895Y-29462393D01*
X46263237Y-29394375D01*
X46197815Y-29265978D01*
X46181260Y-29243192D01*
X46068247Y-29087641D01*
X46068243Y-29087636D01*
X45912363Y-28931756D01*
X45912358Y-28931752D01*
X45734025Y-28802187D01*
X45734024Y-28802186D01*
X45734022Y-28802185D01*
X45671096Y-28770122D01*
X45537606Y-28702104D01*
X45537603Y-28702103D01*
X45327952Y-28633985D01*
X45219086Y-28616742D01*
X45110222Y-28599500D01*
X44889778Y-28599500D01*
X44817201Y-28610995D01*
X44672047Y-28633985D01*
X44462396Y-28702103D01*
X44462393Y-28702104D01*
X44265974Y-28802187D01*
X44087641Y-28931752D01*
X44087636Y-28931756D01*
X43931756Y-29087636D01*
X43931752Y-29087641D01*
X43802187Y-29265974D01*
X43702104Y-29462393D01*
X43702103Y-29462396D01*
X43633985Y-29672047D01*
X43599500Y-29889778D01*
X21400500Y-29889778D01*
X21366015Y-29672049D01*
X21297895Y-29462394D01*
X21297895Y-29462393D01*
X21263237Y-29394375D01*
X21197815Y-29265978D01*
X21181260Y-29243192D01*
X21068247Y-29087641D01*
X21068243Y-29087636D01*
X20912363Y-28931756D01*
X20912358Y-28931752D01*
X20734025Y-28802187D01*
X20734024Y-28802186D01*
X20734022Y-28802185D01*
X20671096Y-28770122D01*
X20537606Y-28702104D01*
X20537603Y-28702103D01*
X20327952Y-28633985D01*
X20219086Y-28616742D01*
X20110222Y-28599500D01*
X19889778Y-28599500D01*
X19817201Y-28610995D01*
X19672047Y-28633985D01*
X19462396Y-28702103D01*
X19462393Y-28702104D01*
X19265974Y-28802187D01*
X19087641Y-28931752D01*
X19087636Y-28931756D01*
X18931756Y-29087636D01*
X18931752Y-29087641D01*
X18802187Y-29265974D01*
X18702104Y-29462393D01*
X18702103Y-29462396D01*
X18633985Y-29672047D01*
X18599500Y-29889778D01*
X400500Y-29889778D01*
X400500Y-21086763D01*
X3049499Y-21086763D01*
X3076418Y-21222089D01*
X3076421Y-21222099D01*
X3129222Y-21349574D01*
X3205887Y-21464312D01*
X7285687Y-25544112D01*
X7400425Y-25620777D01*
X7527900Y-25673578D01*
X7527905Y-25673580D01*
X7527909Y-25673580D01*
X7527910Y-25673581D01*
X7663236Y-25700500D01*
X7663239Y-25700500D01*
X18068996Y-25700500D01*
X18160040Y-25682389D01*
X18204328Y-25673580D01*
X18268069Y-25647177D01*
X18331807Y-25620777D01*
X18331808Y-25620776D01*
X18331811Y-25620775D01*
X18446543Y-25544114D01*
X19194114Y-24796543D01*
X19270775Y-24681811D01*
X19323580Y-24554328D01*
X19350500Y-24418994D01*
X19350500Y-24281006D01*
X19350500Y-21991518D01*
X19370185Y-21924479D01*
X19386819Y-21903837D01*
X21858159Y-19432497D01*
X24387821Y-16902834D01*
X24449142Y-16869351D01*
X24518834Y-16874335D01*
X24574767Y-16916207D01*
X24599184Y-16981671D01*
X24599500Y-16990517D01*
X24599500Y-17947870D01*
X24599501Y-17947876D01*
X24605908Y-18007483D01*
X24656202Y-18142328D01*
X24656206Y-18142335D01*
X24742452Y-18257544D01*
X24742455Y-18257547D01*
X24857664Y-18343793D01*
X24857671Y-18343797D01*
X24873190Y-18349585D01*
X24992517Y-18394091D01*
X25052127Y-18400500D01*
X25175500Y-18400499D01*
X25242539Y-18420183D01*
X25288294Y-18472987D01*
X25299500Y-18524499D01*
X25299500Y-19658480D01*
X25279815Y-19725519D01*
X25263181Y-19746161D01*
X24330369Y-20678972D01*
X24269046Y-20712457D01*
X24231881Y-20714819D01*
X24226680Y-20714364D01*
X24207171Y-20712657D01*
X24000002Y-20694532D01*
X23999998Y-20694532D01*
X23773313Y-20714364D01*
X23773302Y-20714366D01*
X23553511Y-20773258D01*
X23553502Y-20773261D01*
X23347267Y-20869431D01*
X23347265Y-20869432D01*
X23160858Y-20999954D01*
X22999954Y-21160858D01*
X22911575Y-21287079D01*
X22856999Y-21330704D01*
X22787500Y-21337898D01*
X22725145Y-21306376D01*
X22708425Y-21287079D01*
X22620045Y-21160858D01*
X22459141Y-20999954D01*
X22272734Y-20869432D01*
X22272732Y-20869431D01*
X22066497Y-20773261D01*
X22066488Y-20773258D01*
X21846697Y-20714366D01*
X21846693Y-20714365D01*
X21846692Y-20714365D01*
X21846691Y-20714364D01*
X21846686Y-20714364D01*
X21620002Y-20694532D01*
X21619998Y-20694532D01*
X21393313Y-20714364D01*
X21393302Y-20714366D01*
X21173511Y-20773258D01*
X21173502Y-20773261D01*
X20967267Y-20869431D01*
X20967265Y-20869432D01*
X20780858Y-20999954D01*
X20619954Y-21160858D01*
X20489432Y-21347265D01*
X20489431Y-21347267D01*
X20393261Y-21553502D01*
X20393258Y-21553511D01*
X20334366Y-21773302D01*
X20334364Y-21773313D01*
X20314532Y-21999998D01*
X20314532Y-22000001D01*
X20334364Y-22226686D01*
X20334366Y-22226697D01*
X20393258Y-22446488D01*
X20393261Y-22446497D01*
X20489431Y-22652732D01*
X20489432Y-22652734D01*
X20619954Y-22839141D01*
X20780858Y-23000045D01*
X20780861Y-23000047D01*
X20967266Y-23130568D01*
X21173504Y-23226739D01*
X21393308Y-23285635D01*
X21555230Y-23299801D01*
X21619998Y-23305468D01*
X21620000Y-23305468D01*
X21620002Y-23305468D01*
X21676673Y-23300509D01*
X21846692Y-23285635D01*
X22066496Y-23226739D01*
X22272734Y-23130568D01*
X22459139Y-23000047D01*
X22620047Y-22839139D01*
X22708426Y-22712919D01*
X22763001Y-22669295D01*
X22832499Y-22662101D01*
X22894854Y-22693623D01*
X22911570Y-22712915D01*
X22991816Y-22827518D01*
X22999955Y-22839142D01*
X23160858Y-23000045D01*
X23160861Y-23000047D01*
X23347266Y-23130568D01*
X23553504Y-23226739D01*
X23773308Y-23285635D01*
X23935230Y-23299801D01*
X23999998Y-23305468D01*
X24000000Y-23305468D01*
X24000002Y-23305468D01*
X24056673Y-23300509D01*
X24226692Y-23285635D01*
X24446496Y-23226739D01*
X24652734Y-23130568D01*
X24839139Y-23000047D01*
X25000047Y-22839139D01*
X25130568Y-22652734D01*
X25226739Y-22446496D01*
X25285635Y-22226692D01*
X25305468Y-22000000D01*
X25305468Y-21999998D01*
X30314532Y-21999998D01*
X30314532Y-22000001D01*
X30334364Y-22226686D01*
X30334366Y-22226697D01*
X30393258Y-22446488D01*
X30393261Y-22446497D01*
X30489431Y-22652732D01*
X30489432Y-22652734D01*
X30619954Y-22839141D01*
X30780858Y-23000045D01*
X30780861Y-23000047D01*
X30967266Y-23130568D01*
X31173504Y-23226739D01*
X31393308Y-23285635D01*
X31555230Y-23299801D01*
X31619998Y-23305468D01*
X31620000Y-23305468D01*
X31620002Y-23305468D01*
X31676673Y-23300509D01*
X31846692Y-23285635D01*
X32066496Y-23226739D01*
X32272734Y-23130568D01*
X32459139Y-23000047D01*
X32620047Y-22839139D01*
X32750568Y-22652734D01*
X32846739Y-22446496D01*
X32905635Y-22226692D01*
X32925468Y-22000000D01*
X32905635Y-21773308D01*
X32846739Y-21553504D01*
X32750568Y-21347266D01*
X32620047Y-21160861D01*
X32620045Y-21160858D01*
X32459141Y-20999954D01*
X32272734Y-20869432D01*
X32272732Y-20869431D01*
X32066497Y-20773261D01*
X32066488Y-20773258D01*
X31846697Y-20714366D01*
X31846693Y-20714365D01*
X31846692Y-20714365D01*
X31846691Y-20714364D01*
X31846686Y-20714364D01*
X31620002Y-20694532D01*
X31619998Y-20694532D01*
X31393313Y-20714364D01*
X31393302Y-20714366D01*
X31173511Y-20773258D01*
X31173502Y-20773261D01*
X30967267Y-20869431D01*
X30967265Y-20869432D01*
X30780858Y-20999954D01*
X30619954Y-21160858D01*
X30489432Y-21347265D01*
X30489431Y-21347267D01*
X30393261Y-21553502D01*
X30393258Y-21553511D01*
X30334366Y-21773302D01*
X30334364Y-21773313D01*
X30314532Y-21999998D01*
X25305468Y-21999998D01*
X25285635Y-21773308D01*
X25285633Y-21773303D01*
X25285180Y-21768117D01*
X25298946Y-21699617D01*
X25321024Y-21669631D01*
X26544114Y-20446543D01*
X26620775Y-20331811D01*
X26673580Y-20204328D01*
X26683833Y-20152781D01*
X26700500Y-20068993D01*
X26700500Y-18524499D01*
X26720185Y-18457460D01*
X26772989Y-18411705D01*
X26824500Y-18400499D01*
X26947871Y-18400499D01*
X26947872Y-18400499D01*
X27007483Y-18394091D01*
X27142331Y-18343796D01*
X27257546Y-18257546D01*
X27343796Y-18142331D01*
X27348286Y-18130292D01*
X27372455Y-18065493D01*
X27414326Y-18009559D01*
X27479790Y-17985141D01*
X27548063Y-17999992D01*
X27579866Y-18024843D01*
X27587302Y-18032920D01*
X27588215Y-18033912D01*
X27588222Y-18033918D01*
X27771365Y-18176464D01*
X27771371Y-18176468D01*
X27771374Y-18176470D01*
X27975497Y-18286936D01*
X28079779Y-18322736D01*
X28195015Y-18362297D01*
X28195017Y-18362297D01*
X28195019Y-18362298D01*
X28423951Y-18400500D01*
X28423952Y-18400500D01*
X28656048Y-18400500D01*
X28656049Y-18400500D01*
X28844874Y-18368990D01*
X28914235Y-18377372D01*
X28952961Y-18403618D01*
X29993453Y-19444111D01*
X29993454Y-19444112D01*
X30108192Y-19520777D01*
X30234590Y-19573132D01*
X30235672Y-19573580D01*
X30235676Y-19573580D01*
X30235677Y-19573581D01*
X30371003Y-19600500D01*
X30371006Y-19600500D01*
X30371007Y-19600500D01*
X37083249Y-19600500D01*
X37150288Y-19620185D01*
X37196043Y-19672989D01*
X37205987Y-19742147D01*
X37190636Y-19786500D01*
X37136777Y-19879785D01*
X37136773Y-19879794D01*
X37043947Y-20103895D01*
X36981161Y-20338214D01*
X36949500Y-20578711D01*
X36949500Y-21421288D01*
X36979640Y-21650234D01*
X36981162Y-21661789D01*
X36984772Y-21675263D01*
X37043947Y-21896104D01*
X37118897Y-22077049D01*
X37136776Y-22120212D01*
X37258064Y-22330289D01*
X37258066Y-22330292D01*
X37258067Y-22330293D01*
X37405733Y-22522736D01*
X37405739Y-22522743D01*
X37577256Y-22694260D01*
X37577263Y-22694266D01*
X37609935Y-22719336D01*
X37769711Y-22841936D01*
X37979788Y-22963224D01*
X38203900Y-23056054D01*
X38438211Y-23118838D01*
X38598940Y-23139998D01*
X38678711Y-23150500D01*
X38678712Y-23150500D01*
X38921289Y-23150500D01*
X39001052Y-23139999D01*
X39161789Y-23118838D01*
X39396100Y-23056054D01*
X39620212Y-22963224D01*
X39830289Y-22841936D01*
X40022738Y-22694265D01*
X40194265Y-22522738D01*
X40341936Y-22330289D01*
X40463224Y-22120212D01*
X40556054Y-21896100D01*
X40618838Y-21661789D01*
X40650500Y-21421288D01*
X40650500Y-20578712D01*
X40618838Y-20338211D01*
X40556054Y-20103900D01*
X40463224Y-19879788D01*
X40409363Y-19786499D01*
X40392891Y-19718600D01*
X40415743Y-19652573D01*
X40470665Y-19609382D01*
X40516751Y-19600500D01*
X48958481Y-19600500D01*
X49025520Y-19620185D01*
X49046162Y-19636819D01*
X49565702Y-20156358D01*
X49599187Y-20217681D01*
X49597796Y-20276131D01*
X49581164Y-20338204D01*
X49581160Y-20338221D01*
X49549500Y-20578711D01*
X49549500Y-21421288D01*
X49579640Y-21650234D01*
X49581162Y-21661789D01*
X49584772Y-21675263D01*
X49643947Y-21896104D01*
X49718897Y-22077049D01*
X49736776Y-22120212D01*
X49858064Y-22330289D01*
X49858066Y-22330292D01*
X49858067Y-22330293D01*
X50005733Y-22522736D01*
X50005739Y-22522743D01*
X50177256Y-22694260D01*
X50177263Y-22694266D01*
X50209935Y-22719336D01*
X50369711Y-22841936D01*
X50579788Y-22963224D01*
X50803900Y-23056054D01*
X51038211Y-23118838D01*
X51198940Y-23139998D01*
X51278711Y-23150500D01*
X51278712Y-23150500D01*
X51521289Y-23150500D01*
X51601052Y-23139999D01*
X51761789Y-23118838D01*
X51996100Y-23056054D01*
X52220212Y-22963224D01*
X52430289Y-22841936D01*
X52622738Y-22694265D01*
X52794265Y-22522738D01*
X52941936Y-22330289D01*
X53063224Y-22120212D01*
X53156054Y-21896100D01*
X53218838Y-21661789D01*
X53250500Y-21421288D01*
X53250500Y-20578712D01*
X53218838Y-20338211D01*
X53156054Y-20103900D01*
X53063224Y-19879788D01*
X52941936Y-19669711D01*
X52868171Y-19573578D01*
X52794266Y-19477263D01*
X52794260Y-19477256D01*
X52622743Y-19305739D01*
X52622736Y-19305733D01*
X52430293Y-19158067D01*
X52430292Y-19158066D01*
X52430289Y-19158064D01*
X52258661Y-19058974D01*
X52220214Y-19036777D01*
X52220200Y-19036770D01*
X52166581Y-19014561D01*
X52112177Y-18970721D01*
X52090112Y-18904427D01*
X52107391Y-18836727D01*
X52158528Y-18789116D01*
X52166581Y-18785439D01*
X52220200Y-18763229D01*
X52220200Y-18763228D01*
X52220212Y-18763224D01*
X52430289Y-18641936D01*
X52622738Y-18494265D01*
X52794265Y-18322738D01*
X52941936Y-18130289D01*
X53063224Y-17920212D01*
X53156054Y-17696100D01*
X53218838Y-17461789D01*
X53250500Y-17221288D01*
X53250500Y-16415781D01*
X53270185Y-16348742D01*
X53286819Y-16328100D01*
X53311465Y-16303454D01*
X53569023Y-16045895D01*
X53630344Y-16012412D01*
X53700035Y-16017396D01*
X53755969Y-16059267D01*
X53780386Y-16124732D01*
X53779641Y-16149763D01*
X53749500Y-16378711D01*
X53749500Y-17221288D01*
X53781161Y-17461785D01*
X53843947Y-17696104D01*
X53936773Y-17920205D01*
X53936777Y-17920214D01*
X53952746Y-17947873D01*
X54058064Y-18130289D01*
X54058066Y-18130292D01*
X54058067Y-18130293D01*
X54205733Y-18322736D01*
X54205739Y-18322743D01*
X54377256Y-18494260D01*
X54377262Y-18494265D01*
X54569711Y-18641936D01*
X54779788Y-18763224D01*
X54810311Y-18775867D01*
X54833419Y-18785439D01*
X54887822Y-18829280D01*
X54909887Y-18895574D01*
X54892608Y-18963274D01*
X54841471Y-19010884D01*
X54833419Y-19014561D01*
X54779794Y-19036773D01*
X54779785Y-19036777D01*
X54569706Y-19158067D01*
X54377263Y-19305733D01*
X54377256Y-19305739D01*
X54205739Y-19477256D01*
X54205733Y-19477263D01*
X54058067Y-19669706D01*
X54058064Y-19669710D01*
X54058064Y-19669711D01*
X54041817Y-19697851D01*
X53936777Y-19879785D01*
X53936773Y-19879794D01*
X53843947Y-20103895D01*
X53781161Y-20338214D01*
X53749500Y-20578711D01*
X53749500Y-21421288D01*
X53779640Y-21650234D01*
X53781162Y-21661789D01*
X53784772Y-21675263D01*
X53843947Y-21896104D01*
X53918897Y-22077049D01*
X53936776Y-22120212D01*
X54058064Y-22330289D01*
X54058066Y-22330292D01*
X54058067Y-22330293D01*
X54205733Y-22522736D01*
X54205739Y-22522743D01*
X54377256Y-22694260D01*
X54377263Y-22694266D01*
X54409935Y-22719336D01*
X54569711Y-22841936D01*
X54779788Y-22963224D01*
X55003900Y-23056054D01*
X55238211Y-23118838D01*
X55398940Y-23139998D01*
X55478711Y-23150500D01*
X55478712Y-23150500D01*
X55721289Y-23150500D01*
X55801052Y-23139999D01*
X55961789Y-23118838D01*
X56196100Y-23056054D01*
X56420212Y-22963224D01*
X56434396Y-22955034D01*
X56502294Y-22938559D01*
X56568322Y-22961408D01*
X56584081Y-22974738D01*
X58803453Y-25194111D01*
X58803454Y-25194112D01*
X58918192Y-25270777D01*
X59045667Y-25323578D01*
X59045672Y-25323580D01*
X59045676Y-25323580D01*
X59045677Y-25323581D01*
X59181004Y-25350500D01*
X59181007Y-25350500D01*
X71814580Y-25350500D01*
X71905624Y-25332389D01*
X71949912Y-25323580D01*
X72013653Y-25297177D01*
X72077391Y-25270777D01*
X72077392Y-25270776D01*
X72077395Y-25270775D01*
X72192127Y-25194114D01*
X74957167Y-22429072D01*
X75018488Y-22395589D01*
X75088179Y-22400573D01*
X75143221Y-22441268D01*
X75149928Y-22450009D01*
X75205733Y-22522736D01*
X75205739Y-22522743D01*
X75377256Y-22694260D01*
X75377263Y-22694266D01*
X75409935Y-22719336D01*
X75569711Y-22841936D01*
X75779788Y-22963224D01*
X76003900Y-23056054D01*
X76238211Y-23118838D01*
X76398940Y-23139998D01*
X76478711Y-23150500D01*
X76478712Y-23150500D01*
X76721289Y-23150500D01*
X76801052Y-23139999D01*
X76961789Y-23118838D01*
X77196100Y-23056054D01*
X77420212Y-22963224D01*
X77630289Y-22841936D01*
X77822738Y-22694265D01*
X77994265Y-22522738D01*
X78141936Y-22330289D01*
X78263224Y-22120212D01*
X78356054Y-21896100D01*
X78418838Y-21661789D01*
X78450500Y-21421288D01*
X78450500Y-20578712D01*
X78418838Y-20338211D01*
X78356054Y-20103900D01*
X78263224Y-19879788D01*
X78141936Y-19669711D01*
X78068171Y-19573578D01*
X77994266Y-19477263D01*
X77994260Y-19477256D01*
X77822743Y-19305739D01*
X77822736Y-19305733D01*
X77630293Y-19158067D01*
X77630292Y-19158066D01*
X77630289Y-19158064D01*
X77458661Y-19058974D01*
X77420214Y-19036777D01*
X77420200Y-19036770D01*
X77366581Y-19014561D01*
X77312177Y-18970721D01*
X77290112Y-18904427D01*
X77307391Y-18836727D01*
X77358528Y-18789116D01*
X77366581Y-18785439D01*
X77420200Y-18763229D01*
X77420200Y-18763228D01*
X77420212Y-18763224D01*
X77630289Y-18641936D01*
X77822738Y-18494265D01*
X77994265Y-18322738D01*
X78141936Y-18130289D01*
X78263224Y-17920212D01*
X78356054Y-17696100D01*
X78418838Y-17461789D01*
X78450500Y-17221288D01*
X78450500Y-16378712D01*
X78446554Y-16348742D01*
X78440592Y-16303454D01*
X78418838Y-16138211D01*
X78356054Y-15903900D01*
X78263224Y-15679788D01*
X78141936Y-15469711D01*
X78049499Y-15349245D01*
X77994266Y-15277263D01*
X77994260Y-15277256D01*
X77822743Y-15105739D01*
X77822736Y-15105733D01*
X77630293Y-14958067D01*
X77630292Y-14958066D01*
X77630289Y-14958064D01*
X77438381Y-14847266D01*
X77420214Y-14836777D01*
X77420205Y-14836773D01*
X77196104Y-14743947D01*
X76961785Y-14681161D01*
X76721289Y-14649500D01*
X76721288Y-14649500D01*
X76478712Y-14649500D01*
X76478711Y-14649500D01*
X76238214Y-14681161D01*
X76003895Y-14743947D01*
X75779794Y-14836773D01*
X75779785Y-14836777D01*
X75569706Y-14958067D01*
X75449986Y-15049931D01*
X75384817Y-15075125D01*
X75316372Y-15061086D01*
X75266382Y-15012272D01*
X75250500Y-14951555D01*
X75250500Y-5788661D01*
X75270185Y-5721622D01*
X75322989Y-5675867D01*
X75356020Y-5666046D01*
X75379452Y-5662514D01*
X75379452Y-5662513D01*
X75379458Y-5662513D01*
X75623004Y-5587389D01*
X75852634Y-5476805D01*
X76063217Y-5333232D01*
X76250050Y-5159877D01*
X76408959Y-4960612D01*
X76536393Y-4739888D01*
X76629508Y-4502637D01*
X76629510Y-4502624D01*
X76630878Y-4498196D01*
X76632324Y-4498642D01*
X76663213Y-4443412D01*
X76724873Y-4410552D01*
X76794510Y-4416243D01*
X76850016Y-4458680D01*
X76868192Y-4498482D01*
X76869122Y-4498196D01*
X76870490Y-4502630D01*
X76870492Y-4502637D01*
X76963607Y-4739888D01*
X77091041Y-4960612D01*
X77249950Y-5159877D01*
X77436783Y-5333232D01*
X77647366Y-5476805D01*
X77647371Y-5476807D01*
X77647372Y-5476808D01*
X77647373Y-5476809D01*
X77728300Y-5515781D01*
X77876992Y-5587387D01*
X77876993Y-5587387D01*
X77876996Y-5587389D01*
X78120542Y-5662513D01*
X78372565Y-5700500D01*
X78627435Y-5700500D01*
X78879458Y-5662513D01*
X79123004Y-5587389D01*
X79352634Y-5476805D01*
X79563217Y-5333232D01*
X79750050Y-5159877D01*
X79908959Y-4960612D01*
X80036393Y-4739888D01*
X80129508Y-4502637D01*
X80129510Y-4502624D01*
X80130878Y-4498196D01*
X80132324Y-4498642D01*
X80163213Y-4443412D01*
X80224873Y-4410552D01*
X80294510Y-4416243D01*
X80350016Y-4458680D01*
X80368192Y-4498482D01*
X80369122Y-4498196D01*
X80370490Y-4502630D01*
X80370492Y-4502637D01*
X80463607Y-4739888D01*
X80591041Y-4960612D01*
X80749950Y-5159877D01*
X80936783Y-5333232D01*
X81147366Y-5476805D01*
X81147371Y-5476807D01*
X81147372Y-5476808D01*
X81147373Y-5476809D01*
X81228300Y-5515781D01*
X81376992Y-5587387D01*
X81376993Y-5587387D01*
X81376996Y-5587389D01*
X81620542Y-5662513D01*
X81872565Y-5700500D01*
X82127435Y-5700500D01*
X82379458Y-5662513D01*
X82623004Y-5587389D01*
X82852634Y-5476805D01*
X83063217Y-5333232D01*
X83250050Y-5159877D01*
X83408959Y-4960612D01*
X83536393Y-4739888D01*
X83629508Y-4502637D01*
X83629510Y-4502624D01*
X83630878Y-4498196D01*
X83632324Y-4498642D01*
X83663213Y-4443412D01*
X83724873Y-4410552D01*
X83794510Y-4416243D01*
X83850016Y-4458680D01*
X83868192Y-4498482D01*
X83869122Y-4498196D01*
X83870490Y-4502630D01*
X83870492Y-4502637D01*
X83963607Y-4739888D01*
X84091041Y-4960612D01*
X84249950Y-5159877D01*
X84436783Y-5333232D01*
X84647366Y-5476805D01*
X84647371Y-5476807D01*
X84647372Y-5476808D01*
X84647373Y-5476809D01*
X84728300Y-5515781D01*
X84876992Y-5587387D01*
X84876993Y-5587387D01*
X84876996Y-5587389D01*
X85120542Y-5662513D01*
X85372565Y-5700500D01*
X85627435Y-5700500D01*
X85879458Y-5662513D01*
X86123004Y-5587389D01*
X86271700Y-5515780D01*
X86340640Y-5504429D01*
X86404774Y-5532151D01*
X86443740Y-5590146D01*
X86449500Y-5627501D01*
X86449500Y-13884217D01*
X86429815Y-13951256D01*
X86413181Y-13971898D01*
X85682239Y-14702839D01*
X85620916Y-14736324D01*
X85562465Y-14734933D01*
X85361787Y-14681161D01*
X85121289Y-14649500D01*
X85121288Y-14649500D01*
X84878712Y-14649500D01*
X84878711Y-14649500D01*
X84638214Y-14681161D01*
X84403895Y-14743947D01*
X84179794Y-14836773D01*
X84179785Y-14836777D01*
X83969706Y-14958067D01*
X83777263Y-15105733D01*
X83777256Y-15105739D01*
X83605739Y-15277256D01*
X83605733Y-15277263D01*
X83458067Y-15469706D01*
X83336777Y-15679785D01*
X83336773Y-15679794D01*
X83243947Y-15903895D01*
X83181161Y-16138214D01*
X83149500Y-16378711D01*
X83149500Y-17221288D01*
X83181161Y-17461785D01*
X83243947Y-17696104D01*
X83336773Y-17920205D01*
X83336777Y-17920214D01*
X83352746Y-17947873D01*
X83458064Y-18130289D01*
X83458066Y-18130292D01*
X83458067Y-18130293D01*
X83605733Y-18322736D01*
X83605739Y-18322743D01*
X83777256Y-18494260D01*
X83777262Y-18494265D01*
X83950410Y-18627126D01*
X83991612Y-18683551D01*
X83995767Y-18753297D01*
X83961555Y-18814218D01*
X83899838Y-18846971D01*
X83874927Y-18849500D01*
X83850001Y-18849500D01*
X83849980Y-18849501D01*
X83747203Y-18860000D01*
X83747200Y-18860001D01*
X83580668Y-18915185D01*
X83580663Y-18915187D01*
X83431342Y-19007289D01*
X83307289Y-19131342D01*
X83215187Y-19280663D01*
X83215185Y-19280668D01*
X83201882Y-19320815D01*
X83160001Y-19447203D01*
X83160001Y-19447204D01*
X83160000Y-19447204D01*
X83149500Y-19549983D01*
X83149500Y-19875500D01*
X83129815Y-19942539D01*
X83077011Y-19988294D01*
X83025500Y-19999500D01*
X82595664Y-19999500D01*
X82528625Y-19979815D01*
X82482870Y-19927011D01*
X82481113Y-19922978D01*
X82463224Y-19879788D01*
X82341936Y-19669711D01*
X82268171Y-19573578D01*
X82194266Y-19477263D01*
X82194260Y-19477256D01*
X82022743Y-19305739D01*
X82022736Y-19305733D01*
X81830293Y-19158067D01*
X81830292Y-19158066D01*
X81830289Y-19158064D01*
X81658661Y-19058974D01*
X81620214Y-19036777D01*
X81620200Y-19036770D01*
X81566581Y-19014561D01*
X81512177Y-18970721D01*
X81490112Y-18904427D01*
X81507391Y-18836727D01*
X81558528Y-18789116D01*
X81566581Y-18785439D01*
X81620200Y-18763229D01*
X81620200Y-18763228D01*
X81620212Y-18763224D01*
X81830289Y-18641936D01*
X82022738Y-18494265D01*
X82194265Y-18322738D01*
X82341936Y-18130289D01*
X82463224Y-17920212D01*
X82556054Y-17696100D01*
X82618838Y-17461789D01*
X82650500Y-17221288D01*
X82650500Y-16378712D01*
X82646554Y-16348742D01*
X82640592Y-16303454D01*
X82618838Y-16138211D01*
X82556054Y-15903900D01*
X82463224Y-15679788D01*
X82341936Y-15469711D01*
X82249499Y-15349245D01*
X82194266Y-15277263D01*
X82194260Y-15277256D01*
X82022743Y-15105739D01*
X82022736Y-15105733D01*
X81830293Y-14958067D01*
X81830292Y-14958066D01*
X81830289Y-14958064D01*
X81638381Y-14847266D01*
X81620214Y-14836777D01*
X81620205Y-14836773D01*
X81396104Y-14743947D01*
X81161785Y-14681161D01*
X80921289Y-14649500D01*
X80921288Y-14649500D01*
X80678712Y-14649500D01*
X80678711Y-14649500D01*
X80438214Y-14681161D01*
X80203895Y-14743947D01*
X79979794Y-14836773D01*
X79979785Y-14836777D01*
X79769706Y-14958067D01*
X79577263Y-15105733D01*
X79577256Y-15105739D01*
X79405739Y-15277256D01*
X79405733Y-15277263D01*
X79258067Y-15469706D01*
X79136777Y-15679785D01*
X79136773Y-15679794D01*
X79043947Y-15903895D01*
X78981161Y-16138214D01*
X78949500Y-16378711D01*
X78949500Y-17221288D01*
X78981161Y-17461785D01*
X79043947Y-17696104D01*
X79136773Y-17920205D01*
X79136777Y-17920214D01*
X79152746Y-17947873D01*
X79258064Y-18130289D01*
X79258066Y-18130292D01*
X79258067Y-18130293D01*
X79405733Y-18322736D01*
X79405739Y-18322743D01*
X79577256Y-18494260D01*
X79577262Y-18494265D01*
X79769711Y-18641936D01*
X79979788Y-18763224D01*
X80010311Y-18775867D01*
X80033419Y-18785439D01*
X80087822Y-18829280D01*
X80109887Y-18895574D01*
X80092608Y-18963274D01*
X80041471Y-19010884D01*
X80033419Y-19014561D01*
X79979794Y-19036773D01*
X79979785Y-19036777D01*
X79769706Y-19158067D01*
X79577263Y-19305733D01*
X79577256Y-19305739D01*
X79405739Y-19477256D01*
X79405733Y-19477263D01*
X79258067Y-19669706D01*
X79258064Y-19669710D01*
X79258064Y-19669711D01*
X79241817Y-19697851D01*
X79136777Y-19879785D01*
X79136773Y-19879794D01*
X79043947Y-20103895D01*
X78981161Y-20338214D01*
X78949500Y-20578711D01*
X78949500Y-21421288D01*
X78979640Y-21650234D01*
X78981162Y-21661789D01*
X78984772Y-21675263D01*
X79043947Y-21896104D01*
X79118897Y-22077049D01*
X79136776Y-22120212D01*
X79258064Y-22330289D01*
X79258066Y-22330292D01*
X79258067Y-22330293D01*
X79405733Y-22522736D01*
X79405739Y-22522743D01*
X79577256Y-22694260D01*
X79577263Y-22694266D01*
X79609935Y-22719336D01*
X79769711Y-22841936D01*
X79979788Y-22963224D01*
X80203900Y-23056054D01*
X80438211Y-23118838D01*
X80598940Y-23139998D01*
X80678711Y-23150500D01*
X80678712Y-23150500D01*
X80921289Y-23150500D01*
X81001052Y-23139999D01*
X81161789Y-23118838D01*
X81396100Y-23056054D01*
X81620212Y-22963224D01*
X81830289Y-22841936D01*
X82022738Y-22694265D01*
X82194265Y-22522738D01*
X82341936Y-22330289D01*
X82463224Y-22120212D01*
X82481103Y-22077047D01*
X82524942Y-22022645D01*
X82591236Y-22000579D01*
X82595664Y-22000500D01*
X83025501Y-22000500D01*
X83092540Y-22020185D01*
X83138295Y-22072989D01*
X83149501Y-22124500D01*
X83149501Y-22450018D01*
X83160000Y-22552796D01*
X83160001Y-22552799D01*
X83206666Y-22693623D01*
X83215186Y-22719334D01*
X83307288Y-22868656D01*
X83431344Y-22992712D01*
X83580666Y-23084814D01*
X83747203Y-23139999D01*
X83849991Y-23150500D01*
X86150008Y-23150499D01*
X86252797Y-23139999D01*
X86419334Y-23084814D01*
X86568656Y-22992712D01*
X86692712Y-22868656D01*
X86784814Y-22719334D01*
X86839999Y-22552797D01*
X86850500Y-22450009D01*
X86850499Y-19549992D01*
X86847514Y-19520775D01*
X86839999Y-19447203D01*
X86839998Y-19447200D01*
X86814228Y-19369431D01*
X86784814Y-19280666D01*
X86692712Y-19131344D01*
X86568656Y-19007288D01*
X86425255Y-18918838D01*
X86419336Y-18915187D01*
X86419331Y-18915185D01*
X86417862Y-18914698D01*
X86252797Y-18860001D01*
X86252795Y-18860000D01*
X86150016Y-18849500D01*
X86150009Y-18849500D01*
X86125078Y-18849500D01*
X86058039Y-18829815D01*
X86012284Y-18777011D01*
X86002340Y-18707853D01*
X86031365Y-18644297D01*
X86049592Y-18627124D01*
X86222738Y-18494265D01*
X86394265Y-18322738D01*
X86541936Y-18130289D01*
X86663224Y-17920212D01*
X86756054Y-17696100D01*
X86818838Y-17461789D01*
X86850500Y-17221288D01*
X86850500Y-16415781D01*
X86870185Y-16348742D01*
X86886819Y-16328100D01*
X87483038Y-15731881D01*
X88087778Y-15127141D01*
X88087782Y-15127139D01*
X88227139Y-14987782D01*
X88336632Y-14823914D01*
X88395761Y-14681162D01*
X88412051Y-14641836D01*
X88450500Y-14448540D01*
X88450500Y-14251460D01*
X88450500Y-2351459D01*
X88450500Y-2351456D01*
X88450499Y-2351454D01*
X88412052Y-2158171D01*
X88412051Y-2158165D01*
X88408064Y-2148540D01*
X88380811Y-2082745D01*
X88336632Y-1976086D01*
X88227139Y-1812218D01*
X88087782Y-1672861D01*
X88087781Y-1672860D01*
X87834208Y-1419288D01*
X87834206Y-1419285D01*
X87834206Y-1419286D01*
X87827139Y-1412219D01*
X87827139Y-1412218D01*
X87687782Y-1272861D01*
X87687781Y-1272860D01*
X87687780Y-1272859D01*
X87523920Y-1163371D01*
X87523911Y-1163366D01*
X87451315Y-1133296D01*
X87395165Y-1110038D01*
X87341836Y-1087949D01*
X87341832Y-1087948D01*
X87341828Y-1087946D01*
X87245188Y-1068724D01*
X87148544Y-1049500D01*
X87148541Y-1049500D01*
X56048540Y-1049500D01*
X55851459Y-1049500D01*
X55851456Y-1049500D01*
X55658171Y-1087947D01*
X55658163Y-1087949D01*
X55596795Y-1113369D01*
X55596794Y-1113369D01*
X55476092Y-1163364D01*
X55476079Y-1163371D01*
X55312218Y-1272860D01*
X55312214Y-1272863D01*
X54309127Y-2275950D01*
X54247804Y-2309435D01*
X54202965Y-2310884D01*
X54127442Y-2299500D01*
X54127435Y-2299500D01*
X53872565Y-2299500D01*
X53872557Y-2299500D01*
X53797032Y-2310884D01*
X53727807Y-2301411D01*
X53690870Y-2275950D01*
X52781479Y-1366559D01*
X52781459Y-1366537D01*
X52637785Y-1222863D01*
X52637781Y-1222860D01*
X52473916Y-1113369D01*
X52473907Y-1113364D01*
X52319723Y-1049500D01*
X52291837Y-1037949D01*
X52291829Y-1037947D01*
X52195188Y-1018724D01*
X52098544Y-999500D01*
X52098541Y-999500D01*
X48901459Y-999500D01*
X48901455Y-999500D01*
X48804812Y-1018724D01*
X48708170Y-1037947D01*
X48708162Y-1037949D01*
X48680277Y-1049500D01*
X48526088Y-1113366D01*
X48526084Y-1113369D01*
X48362219Y-1222859D01*
X48312220Y-1272859D01*
X48222861Y-1362218D01*
X48222858Y-1362221D01*
X47309128Y-2275950D01*
X47247805Y-2309435D01*
X47202966Y-2310884D01*
X47127442Y-2299500D01*
X47127435Y-2299500D01*
X46872565Y-2299500D01*
X46872559Y-2299500D01*
X46715609Y-2323157D01*
X46620542Y-2337487D01*
X46620539Y-2337488D01*
X46620533Y-2337489D01*
X46376992Y-2412612D01*
X46147373Y-2523190D01*
X46147372Y-2523191D01*
X45936782Y-2666768D01*
X45749952Y-2840121D01*
X45749950Y-2840123D01*
X45591041Y-3039388D01*
X45463608Y-3260109D01*
X45370492Y-3497362D01*
X45369122Y-3501804D01*
X45367677Y-3501358D01*
X45336780Y-3556593D01*
X45275117Y-3589449D01*
X45205480Y-3583752D01*
X45149978Y-3541311D01*
X45131805Y-3501517D01*
X45130878Y-3501804D01*
X45129509Y-3497369D01*
X45129508Y-3497363D01*
X45036393Y-3260112D01*
X44908959Y-3039388D01*
X44750050Y-2840123D01*
X44563217Y-2666768D01*
X44352634Y-2523195D01*
X44352630Y-2523193D01*
X44352627Y-2523191D01*
X44352626Y-2523190D01*
X44123006Y-2412612D01*
X44123008Y-2412612D01*
X43879466Y-2337489D01*
X43879462Y-2337488D01*
X43879458Y-2337487D01*
X43758231Y-2319214D01*
X43627440Y-2299500D01*
X43627435Y-2299500D01*
X43372565Y-2299500D01*
X43372559Y-2299500D01*
X43215609Y-2323157D01*
X43120542Y-2337487D01*
X43120539Y-2337488D01*
X43120533Y-2337489D01*
X42876992Y-2412612D01*
X42647373Y-2523190D01*
X42647372Y-2523191D01*
X42436782Y-2666768D01*
X42249952Y-2840121D01*
X42249950Y-2840123D01*
X42091041Y-3039388D01*
X41963608Y-3260109D01*
X41870492Y-3497362D01*
X41869122Y-3501804D01*
X41867677Y-3501358D01*
X41836780Y-3556593D01*
X41775117Y-3589449D01*
X41705480Y-3583752D01*
X41649978Y-3541311D01*
X41631805Y-3501517D01*
X41630878Y-3501804D01*
X41629509Y-3497369D01*
X41629508Y-3497363D01*
X41536393Y-3260112D01*
X41408959Y-3039388D01*
X41250050Y-2840123D01*
X41063217Y-2666768D01*
X40852634Y-2523195D01*
X40852630Y-2523193D01*
X40852627Y-2523191D01*
X40852626Y-2523190D01*
X40623006Y-2412612D01*
X40623008Y-2412612D01*
X40379466Y-2337489D01*
X40379462Y-2337488D01*
X40379458Y-2337487D01*
X40258231Y-2319214D01*
X40127440Y-2299500D01*
X40127435Y-2299500D01*
X39872565Y-2299500D01*
X39872559Y-2299500D01*
X39715609Y-2323157D01*
X39620542Y-2337487D01*
X39620539Y-2337488D01*
X39620533Y-2337489D01*
X39376992Y-2412612D01*
X39147373Y-2523190D01*
X39147372Y-2523191D01*
X38936782Y-2666768D01*
X38749952Y-2840121D01*
X38749950Y-2840123D01*
X38591041Y-3039388D01*
X38463608Y-3260109D01*
X38370492Y-3497362D01*
X38369122Y-3501804D01*
X38367677Y-3501358D01*
X38336780Y-3556593D01*
X38275117Y-3589449D01*
X38205480Y-3583752D01*
X38149978Y-3541311D01*
X38131805Y-3501517D01*
X38130878Y-3501804D01*
X38129509Y-3497369D01*
X38129508Y-3497363D01*
X38036393Y-3260112D01*
X37908959Y-3039388D01*
X37750050Y-2840123D01*
X37563217Y-2666768D01*
X37352634Y-2523195D01*
X37352630Y-2523193D01*
X37352627Y-2523191D01*
X37352626Y-2523190D01*
X37123006Y-2412612D01*
X37123008Y-2412612D01*
X36879466Y-2337489D01*
X36879462Y-2337488D01*
X36879458Y-2337487D01*
X36758231Y-2319214D01*
X36627440Y-2299500D01*
X36627435Y-2299500D01*
X36372565Y-2299500D01*
X36372559Y-2299500D01*
X36215609Y-2323157D01*
X36120542Y-2337487D01*
X36120539Y-2337488D01*
X36120533Y-2337489D01*
X35876992Y-2412612D01*
X35647373Y-2523190D01*
X35647372Y-2523191D01*
X35436782Y-2666768D01*
X35249952Y-2840121D01*
X35249950Y-2840123D01*
X35091041Y-3039388D01*
X34963608Y-3260109D01*
X34939927Y-3320447D01*
X34897110Y-3375661D01*
X34831240Y-3398961D01*
X34763230Y-3382950D01*
X34714672Y-3332711D01*
X34700499Y-3275144D01*
X34700499Y-2752129D01*
X34700498Y-2752123D01*
X34700497Y-2752116D01*
X34694091Y-2692517D01*
X34684487Y-2666768D01*
X34643797Y-2557671D01*
X34643793Y-2557664D01*
X34557547Y-2442455D01*
X34557544Y-2442452D01*
X34442335Y-2356206D01*
X34442328Y-2356202D01*
X34307482Y-2305908D01*
X34307483Y-2305908D01*
X34247883Y-2299501D01*
X34247881Y-2299500D01*
X34247873Y-2299500D01*
X34247864Y-2299500D01*
X31752129Y-2299500D01*
X31752123Y-2299501D01*
X31692516Y-2305908D01*
X31557671Y-2356202D01*
X31557664Y-2356206D01*
X31442455Y-2442452D01*
X31442452Y-2442455D01*
X31356206Y-2557664D01*
X31356202Y-2557671D01*
X31305908Y-2692517D01*
X31299501Y-2752116D01*
X31299501Y-2752123D01*
X31299500Y-2752135D01*
X31299500Y-3275142D01*
X31279815Y-3342181D01*
X31227011Y-3387936D01*
X31157853Y-3397880D01*
X31094297Y-3368855D01*
X31060072Y-3320445D01*
X31036393Y-3260112D01*
X30908959Y-3039388D01*
X30750050Y-2840123D01*
X30563217Y-2666768D01*
X30352634Y-2523195D01*
X30352630Y-2523193D01*
X30352627Y-2523191D01*
X30352626Y-2523190D01*
X30123006Y-2412612D01*
X30123008Y-2412612D01*
X29879466Y-2337489D01*
X29879462Y-2337488D01*
X29879458Y-2337487D01*
X29758231Y-2319214D01*
X29627440Y-2299500D01*
X29627435Y-2299500D01*
X29372565Y-2299500D01*
X29372559Y-2299500D01*
X29215609Y-2323157D01*
X29120542Y-2337487D01*
X29120539Y-2337488D01*
X29120533Y-2337489D01*
X28876992Y-2412612D01*
X28647373Y-2523190D01*
X28647372Y-2523191D01*
X28436782Y-2666768D01*
X28249952Y-2840121D01*
X28249950Y-2840123D01*
X28091041Y-3039388D01*
X27963608Y-3260109D01*
X27870492Y-3497362D01*
X27870490Y-3497369D01*
X27813777Y-3745845D01*
X27794732Y-3999995D01*
X27794732Y-4000004D01*
X27813777Y-4254154D01*
X27869543Y-4498482D01*
X27870492Y-4502637D01*
X27963607Y-4739888D01*
X28091041Y-4960612D01*
X28200754Y-5098187D01*
X28227162Y-5162874D01*
X28214407Y-5231569D01*
X28166536Y-5282463D01*
X28103807Y-5299500D01*
X24931004Y-5299500D01*
X24795677Y-5326418D01*
X24795667Y-5326421D01*
X24668192Y-5379222D01*
X24553454Y-5455887D01*
X17995887Y-12013454D01*
X17919222Y-12128192D01*
X17866421Y-12255667D01*
X17866418Y-12255679D01*
X17841844Y-12379221D01*
X17839500Y-12391005D01*
X17839500Y-15712773D01*
X17819815Y-15779812D01*
X17774527Y-15821823D01*
X17771377Y-15823527D01*
X17771365Y-15823535D01*
X17588222Y-15966081D01*
X17588218Y-15966085D01*
X17579866Y-15975158D01*
X17519979Y-16011148D01*
X17450141Y-16009047D01*
X17392525Y-15969522D01*
X17372455Y-15934507D01*
X17343797Y-15857671D01*
X17343793Y-15857664D01*
X17257547Y-15742455D01*
X17257544Y-15742452D01*
X17142335Y-15656206D01*
X17142328Y-15656202D01*
X17007482Y-15605908D01*
X17007483Y-15605908D01*
X16947883Y-15599501D01*
X16947881Y-15599500D01*
X16947873Y-15599500D01*
X16947864Y-15599500D01*
X15052129Y-15599500D01*
X15052123Y-15599501D01*
X14992516Y-15605908D01*
X14857671Y-15656202D01*
X14857664Y-15656206D01*
X14742455Y-15742452D01*
X14742452Y-15742455D01*
X14656206Y-15857664D01*
X14656202Y-15857671D01*
X14605908Y-15992517D01*
X14599501Y-16052116D01*
X14599500Y-16052135D01*
X14599500Y-17358480D01*
X14579815Y-17425519D01*
X14563181Y-17446161D01*
X13455888Y-18553453D01*
X13455887Y-18553454D01*
X13379222Y-18668192D01*
X13326421Y-18795667D01*
X13326418Y-18795679D01*
X13301921Y-18918834D01*
X13299500Y-18931005D01*
X13299500Y-20838326D01*
X13279815Y-20905365D01*
X13246624Y-20939901D01*
X13160863Y-20999951D01*
X12999951Y-21160862D01*
X12869432Y-21347265D01*
X12869431Y-21347267D01*
X12773261Y-21553502D01*
X12773258Y-21553511D01*
X12714366Y-21773302D01*
X12714364Y-21773313D01*
X12694532Y-21999998D01*
X12694532Y-22000001D01*
X12714364Y-22226686D01*
X12714366Y-22226697D01*
X12773258Y-22446488D01*
X12773261Y-22446497D01*
X12869431Y-22652732D01*
X12869432Y-22652734D01*
X12999954Y-22839141D01*
X13160858Y-23000045D01*
X13160861Y-23000047D01*
X13347266Y-23130568D01*
X13553504Y-23226739D01*
X13773308Y-23285635D01*
X13935230Y-23299801D01*
X13999998Y-23305468D01*
X14000000Y-23305468D01*
X14000002Y-23305468D01*
X14056673Y-23300509D01*
X14226692Y-23285635D01*
X14446496Y-23226739D01*
X14652734Y-23130568D01*
X14839139Y-23000047D01*
X15000047Y-22839139D01*
X15130568Y-22652734D01*
X15226739Y-22446496D01*
X15285635Y-22226692D01*
X15305468Y-22000000D01*
X15285635Y-21773308D01*
X15226739Y-21553504D01*
X15130568Y-21347266D01*
X15000047Y-21160861D01*
X14839139Y-20999953D01*
X14762796Y-20946497D01*
X14753376Y-20939901D01*
X14709751Y-20885324D01*
X14700500Y-20838326D01*
X14700500Y-19341518D01*
X14720185Y-19274479D01*
X14736815Y-19253841D01*
X15553838Y-18436817D01*
X15615161Y-18403333D01*
X15641519Y-18400499D01*
X16947871Y-18400499D01*
X16947872Y-18400499D01*
X17007483Y-18394091D01*
X17142331Y-18343796D01*
X17257546Y-18257546D01*
X17343796Y-18142331D01*
X17348286Y-18130292D01*
X17372455Y-18065493D01*
X17414326Y-18009559D01*
X17479790Y-17985141D01*
X17548063Y-17999992D01*
X17579866Y-18024843D01*
X17587302Y-18032920D01*
X17588215Y-18033912D01*
X17588222Y-18033918D01*
X17771365Y-18176464D01*
X17771371Y-18176468D01*
X17771374Y-18176470D01*
X17975497Y-18286936D01*
X18079779Y-18322736D01*
X18195015Y-18362297D01*
X18195017Y-18362297D01*
X18195019Y-18362298D01*
X18423951Y-18400500D01*
X18423952Y-18400500D01*
X18656048Y-18400500D01*
X18656049Y-18400500D01*
X18884981Y-18362298D01*
X19104503Y-18286936D01*
X19308626Y-18176470D01*
X19491784Y-18033913D01*
X19648979Y-17863153D01*
X19775924Y-17668849D01*
X19869157Y-17456300D01*
X19926134Y-17231305D01*
X19943272Y-17024479D01*
X19945300Y-17000006D01*
X19945300Y-16999993D01*
X19926135Y-16768702D01*
X19926133Y-16768691D01*
X19869157Y-16543699D01*
X19775924Y-16331151D01*
X19648983Y-16136852D01*
X19648980Y-16136849D01*
X19648979Y-16136847D01*
X19491784Y-15966087D01*
X19491779Y-15966083D01*
X19491777Y-15966081D01*
X19308634Y-15823535D01*
X19308622Y-15823527D01*
X19305473Y-15821823D01*
X19304433Y-15820790D01*
X19304334Y-15820726D01*
X19304347Y-15820705D01*
X19255887Y-15772599D01*
X19240500Y-15712773D01*
X19240500Y-12801519D01*
X19260185Y-12734480D01*
X19276819Y-12713838D01*
X25253838Y-6736819D01*
X25315161Y-6703334D01*
X25341519Y-6700500D01*
X31068996Y-6700500D01*
X31160040Y-6682389D01*
X31204328Y-6673580D01*
X31268069Y-6647177D01*
X31331807Y-6620777D01*
X31331808Y-6620776D01*
X31331811Y-6620775D01*
X31446543Y-6544114D01*
X32253838Y-5736817D01*
X32315161Y-5703333D01*
X32341519Y-5700499D01*
X33234216Y-5700499D01*
X33301255Y-5720184D01*
X33321897Y-5736818D01*
X34172860Y-6587781D01*
X34172861Y-6587782D01*
X34312218Y-6727139D01*
X34476086Y-6836632D01*
X34582745Y-6880811D01*
X34658164Y-6912051D01*
X34851454Y-6950499D01*
X34851457Y-6950500D01*
X34851459Y-6950500D01*
X38148542Y-6950500D01*
X38167870Y-6946655D01*
X38245188Y-6931275D01*
X38341836Y-6912051D01*
X38395165Y-6889961D01*
X38523914Y-6836632D01*
X38687782Y-6727139D01*
X38827139Y-6587782D01*
X38827139Y-6587780D01*
X38837347Y-6577573D01*
X38837348Y-6577570D01*
X39690873Y-5724046D01*
X39752194Y-5690563D01*
X39797028Y-5689114D01*
X39872565Y-5700500D01*
X39872571Y-5700500D01*
X40127435Y-5700500D01*
X40379458Y-5662513D01*
X40623004Y-5587389D01*
X40852634Y-5476805D01*
X41063217Y-5333232D01*
X41250050Y-5159877D01*
X41408959Y-4960612D01*
X41536393Y-4739888D01*
X41629508Y-4502637D01*
X41629510Y-4502624D01*
X41630878Y-4498196D01*
X41632324Y-4498642D01*
X41663213Y-4443412D01*
X41724873Y-4410552D01*
X41794510Y-4416243D01*
X41850016Y-4458680D01*
X41868192Y-4498482D01*
X41869122Y-4498196D01*
X41870490Y-4502630D01*
X41870492Y-4502637D01*
X41963607Y-4739888D01*
X42091041Y-4960612D01*
X42249950Y-5159877D01*
X42436783Y-5333232D01*
X42647366Y-5476805D01*
X42647371Y-5476807D01*
X42647372Y-5476808D01*
X42647373Y-5476809D01*
X42728300Y-5515781D01*
X42876992Y-5587387D01*
X42876993Y-5587387D01*
X42876996Y-5587389D01*
X43120542Y-5662513D01*
X43372565Y-5700500D01*
X43627435Y-5700500D01*
X43879458Y-5662513D01*
X44123004Y-5587389D01*
X44352634Y-5476805D01*
X44563217Y-5333232D01*
X44750050Y-5159877D01*
X44908959Y-4960612D01*
X45036393Y-4739888D01*
X45129508Y-4502637D01*
X45129510Y-4502624D01*
X45130878Y-4498196D01*
X45132324Y-4498642D01*
X45163213Y-4443412D01*
X45224873Y-4410552D01*
X45294510Y-4416243D01*
X45350016Y-4458680D01*
X45368192Y-4498482D01*
X45369122Y-4498196D01*
X45370490Y-4502630D01*
X45370492Y-4502637D01*
X45463607Y-4739888D01*
X45591041Y-4960612D01*
X45749950Y-5159877D01*
X45936783Y-5333232D01*
X46147366Y-5476805D01*
X46147371Y-5476807D01*
X46147372Y-5476808D01*
X46147373Y-5476809D01*
X46228300Y-5515781D01*
X46376992Y-5587387D01*
X46376993Y-5587387D01*
X46376996Y-5587389D01*
X46620542Y-5662513D01*
X46872565Y-5700500D01*
X47127435Y-5700500D01*
X47379458Y-5662513D01*
X47623004Y-5587389D01*
X47852634Y-5476805D01*
X48063217Y-5333232D01*
X48250050Y-5159877D01*
X48408959Y-4960612D01*
X48536393Y-4739888D01*
X48629508Y-4502637D01*
X48629510Y-4502624D01*
X48630878Y-4498196D01*
X48632324Y-4498642D01*
X48663213Y-4443412D01*
X48724873Y-4410552D01*
X48794510Y-4416243D01*
X48850016Y-4458680D01*
X48868192Y-4498482D01*
X48869122Y-4498196D01*
X48870490Y-4502630D01*
X48870492Y-4502637D01*
X48963607Y-4739888D01*
X49091041Y-4960612D01*
X49249950Y-5159877D01*
X49436783Y-5333232D01*
X49647366Y-5476805D01*
X49647371Y-5476807D01*
X49647372Y-5476808D01*
X49647373Y-5476809D01*
X49728300Y-5515781D01*
X49876992Y-5587387D01*
X49876993Y-5587387D01*
X49876996Y-5587389D01*
X50120542Y-5662513D01*
X50372565Y-5700500D01*
X50627435Y-5700500D01*
X50879458Y-5662513D01*
X51123004Y-5587389D01*
X51352634Y-5476805D01*
X51563217Y-5333232D01*
X51750050Y-5159877D01*
X51908959Y-4960612D01*
X52036393Y-4739888D01*
X52129508Y-4502637D01*
X52129510Y-4502624D01*
X52130878Y-4498196D01*
X52132324Y-4498642D01*
X52163213Y-4443412D01*
X52224873Y-4410552D01*
X52294510Y-4416243D01*
X52350016Y-4458680D01*
X52368192Y-4498482D01*
X52369122Y-4498196D01*
X52370490Y-4502630D01*
X52370492Y-4502637D01*
X52463607Y-4739888D01*
X52591041Y-4960612D01*
X52749950Y-5159877D01*
X52936783Y-5333232D01*
X53147366Y-5476805D01*
X53147371Y-5476807D01*
X53147372Y-5476808D01*
X53147373Y-5476809D01*
X53228300Y-5515781D01*
X53376992Y-5587387D01*
X53376993Y-5587387D01*
X53376996Y-5587389D01*
X53620542Y-5662513D01*
X53872565Y-5700500D01*
X54127435Y-5700500D01*
X54379458Y-5662513D01*
X54623004Y-5587389D01*
X54852634Y-5476805D01*
X55063217Y-5333232D01*
X55250050Y-5159877D01*
X55408959Y-4960612D01*
X55536393Y-4739888D01*
X55629508Y-4502637D01*
X55629510Y-4502624D01*
X55630878Y-4498196D01*
X55632324Y-4498642D01*
X55663213Y-4443412D01*
X55724873Y-4410552D01*
X55794510Y-4416243D01*
X55850016Y-4458680D01*
X55868192Y-4498482D01*
X55869122Y-4498196D01*
X55870490Y-4502630D01*
X55870492Y-4502637D01*
X55963607Y-4739888D01*
X56091041Y-4960612D01*
X56249950Y-5159877D01*
X56436783Y-5333232D01*
X56647366Y-5476805D01*
X56647371Y-5476807D01*
X56647372Y-5476808D01*
X56647373Y-5476809D01*
X56728300Y-5515781D01*
X56876992Y-5587387D01*
X56876993Y-5587387D01*
X56876996Y-5587389D01*
X57120542Y-5662513D01*
X57372565Y-5700500D01*
X57627435Y-5700500D01*
X57879458Y-5662513D01*
X58123004Y-5587389D01*
X58352634Y-5476805D01*
X58563217Y-5333232D01*
X58750050Y-5159877D01*
X58908959Y-4960612D01*
X59036393Y-4739888D01*
X59060074Y-4679549D01*
X59102887Y-4624340D01*
X59168756Y-4601039D01*
X59236767Y-4617048D01*
X59285326Y-4667286D01*
X59299500Y-4724855D01*
X59299500Y-5247870D01*
X59299501Y-5247876D01*
X59305908Y-5307483D01*
X59356202Y-5442328D01*
X59356206Y-5442335D01*
X59442452Y-5557544D01*
X59442455Y-5557547D01*
X59557664Y-5643793D01*
X59557671Y-5643797D01*
X59692517Y-5694091D01*
X59692516Y-5694091D01*
X59699444Y-5694835D01*
X59752127Y-5700500D01*
X62247872Y-5700499D01*
X62307483Y-5694091D01*
X62442331Y-5643796D01*
X62557546Y-5557546D01*
X62643796Y-5442331D01*
X62694091Y-5307483D01*
X62700500Y-5247873D01*
X62700499Y-4724854D01*
X62720183Y-4657818D01*
X62772987Y-4612063D01*
X62842146Y-4602119D01*
X62905702Y-4631144D01*
X62939927Y-4679553D01*
X62963607Y-4739888D01*
X63091041Y-4960612D01*
X63249950Y-5159877D01*
X63436783Y-5333232D01*
X63647366Y-5476805D01*
X63647371Y-5476807D01*
X63647372Y-5476808D01*
X63647373Y-5476809D01*
X63728300Y-5515781D01*
X63876992Y-5587387D01*
X63876993Y-5587387D01*
X63876996Y-5587389D01*
X64120542Y-5662513D01*
X64372565Y-5700500D01*
X64627435Y-5700500D01*
X64879458Y-5662513D01*
X65123004Y-5587389D01*
X65352634Y-5476805D01*
X65563217Y-5333232D01*
X65750050Y-5159877D01*
X65908959Y-4960612D01*
X66036393Y-4739888D01*
X66129508Y-4502637D01*
X66129510Y-4502624D01*
X66130878Y-4498196D01*
X66132324Y-4498642D01*
X66163213Y-4443412D01*
X66224873Y-4410552D01*
X66294510Y-4416243D01*
X66350016Y-4458680D01*
X66368192Y-4498482D01*
X66369122Y-4498196D01*
X66370490Y-4502630D01*
X66370492Y-4502637D01*
X66463607Y-4739888D01*
X66591041Y-4960612D01*
X66749950Y-5159877D01*
X66936783Y-5333232D01*
X67147366Y-5476805D01*
X67147371Y-5476807D01*
X67147372Y-5476808D01*
X67147373Y-5476809D01*
X67228300Y-5515781D01*
X67376992Y-5587387D01*
X67376993Y-5587387D01*
X67376996Y-5587389D01*
X67620542Y-5662513D01*
X67872565Y-5700500D01*
X68127435Y-5700500D01*
X68379458Y-5662513D01*
X68623004Y-5587389D01*
X68852634Y-5476805D01*
X69063217Y-5333232D01*
X69250050Y-5159877D01*
X69408959Y-4960612D01*
X69536393Y-4739888D01*
X69629508Y-4502637D01*
X69629510Y-4502624D01*
X69630878Y-4498196D01*
X69632324Y-4498642D01*
X69663213Y-4443412D01*
X69724873Y-4410552D01*
X69794510Y-4416243D01*
X69850016Y-4458680D01*
X69868192Y-4498482D01*
X69869122Y-4498196D01*
X69870490Y-4502630D01*
X69870492Y-4502637D01*
X69963607Y-4739888D01*
X70091041Y-4960612D01*
X70249950Y-5159877D01*
X70436783Y-5333232D01*
X70647366Y-5476805D01*
X70647371Y-5476807D01*
X70647372Y-5476808D01*
X70647373Y-5476809D01*
X70728300Y-5515781D01*
X70876992Y-5587387D01*
X70876993Y-5587387D01*
X70876996Y-5587389D01*
X71120542Y-5662513D01*
X71372565Y-5700500D01*
X71627435Y-5700500D01*
X71879458Y-5662513D01*
X72123004Y-5587389D01*
X72352634Y-5476805D01*
X72563217Y-5333232D01*
X72750050Y-5159877D01*
X72908959Y-4960612D01*
X73036393Y-4739888D01*
X73129508Y-4502637D01*
X73129510Y-4502624D01*
X73130878Y-4498196D01*
X73132324Y-4498642D01*
X73163213Y-4443412D01*
X73224873Y-4410552D01*
X73294510Y-4416243D01*
X73350016Y-4458680D01*
X73368192Y-4498482D01*
X73369122Y-4498196D01*
X73370490Y-4502630D01*
X73370492Y-4502637D01*
X73463607Y-4739888D01*
X73591041Y-4960612D01*
X73749950Y-5159877D01*
X73809841Y-5215447D01*
X73845596Y-5275475D01*
X73849500Y-5306346D01*
X73849500Y-15033134D01*
X73829815Y-15100173D01*
X73777011Y-15145928D01*
X73707853Y-15155872D01*
X73644297Y-15126847D01*
X73637819Y-15120815D01*
X73622743Y-15105739D01*
X73622736Y-15105733D01*
X73430293Y-14958067D01*
X73430292Y-14958066D01*
X73430289Y-14958064D01*
X73238381Y-14847266D01*
X73220214Y-14836777D01*
X73220205Y-14836773D01*
X72996104Y-14743947D01*
X72761785Y-14681161D01*
X72521289Y-14649500D01*
X72521288Y-14649500D01*
X72278712Y-14649500D01*
X72278711Y-14649500D01*
X72038214Y-14681161D01*
X71803895Y-14743947D01*
X71579794Y-14836773D01*
X71579790Y-14836774D01*
X71565595Y-14844970D01*
X71497694Y-14861439D01*
X71431668Y-14838584D01*
X71415918Y-14825261D01*
X69046546Y-12455888D01*
X68931807Y-12379222D01*
X68804332Y-12326421D01*
X68804322Y-12326418D01*
X68668996Y-12299500D01*
X68668994Y-12299500D01*
X68668993Y-12299500D01*
X27231007Y-12299500D01*
X27231003Y-12299500D01*
X27122590Y-12321065D01*
X27122589Y-12321065D01*
X27109131Y-12323742D01*
X27095673Y-12326419D01*
X27058330Y-12341887D01*
X26968190Y-12379224D01*
X26968186Y-12379226D01*
X26853462Y-12455882D01*
X26853459Y-12455884D01*
X26853457Y-12455887D01*
X18105888Y-21203453D01*
X18105887Y-21203454D01*
X18029222Y-21318192D01*
X17976421Y-21445667D01*
X17976418Y-21445679D01*
X17951004Y-21573446D01*
X17951003Y-21573451D01*
X17949500Y-21581005D01*
X17949500Y-24008481D01*
X17929815Y-24075520D01*
X17913181Y-24096162D01*
X17746162Y-24263181D01*
X17684839Y-24296666D01*
X17658481Y-24299500D01*
X8073752Y-24299500D01*
X8006713Y-24279815D01*
X7986071Y-24263181D01*
X5573853Y-21850963D01*
X5540368Y-21789640D01*
X5545352Y-21719948D01*
X5587224Y-21664015D01*
X5609120Y-21650905D01*
X5652734Y-21630568D01*
X5839139Y-21500047D01*
X5912320Y-21426865D01*
X5973641Y-21393382D01*
X6043333Y-21398366D01*
X6087679Y-21426865D01*
X6160861Y-21500047D01*
X6347266Y-21630568D01*
X6553504Y-21726739D01*
X6773308Y-21785635D01*
X6935230Y-21799801D01*
X6999998Y-21805468D01*
X7000000Y-21805468D01*
X7000002Y-21805468D01*
X7056673Y-21800509D01*
X7226692Y-21785635D01*
X7446496Y-21726739D01*
X7652734Y-21630568D01*
X7839139Y-21500047D01*
X7912320Y-21426865D01*
X7973641Y-21393382D01*
X8043333Y-21398366D01*
X8087679Y-21426865D01*
X8160861Y-21500047D01*
X8347266Y-21630568D01*
X8553504Y-21726739D01*
X8773308Y-21785635D01*
X8935230Y-21799801D01*
X8999998Y-21805468D01*
X9000000Y-21805468D01*
X9000002Y-21805468D01*
X9056673Y-21800509D01*
X9226692Y-21785635D01*
X9446496Y-21726739D01*
X9652734Y-21630568D01*
X9839139Y-21500047D01*
X10000047Y-21339139D01*
X10130568Y-21152734D01*
X10226739Y-20946496D01*
X10285635Y-20726692D01*
X10305468Y-20500000D01*
X10285635Y-20273308D01*
X10240916Y-20106415D01*
X10226741Y-20053511D01*
X10226738Y-20053502D01*
X10167754Y-19927011D01*
X10130568Y-19847266D01*
X10000047Y-19660861D01*
X10000045Y-19660858D01*
X9839141Y-19499954D01*
X9652734Y-19369432D01*
X9652732Y-19369431D01*
X9446497Y-19273261D01*
X9446488Y-19273258D01*
X9226697Y-19214366D01*
X9226693Y-19214365D01*
X9226692Y-19214365D01*
X9226691Y-19214364D01*
X9226686Y-19214364D01*
X9000002Y-19194532D01*
X8999998Y-19194532D01*
X8773313Y-19214364D01*
X8773302Y-19214366D01*
X8553511Y-19273258D01*
X8553502Y-19273261D01*
X8347267Y-19369431D01*
X8347265Y-19369432D01*
X8160858Y-19499954D01*
X8087681Y-19573132D01*
X8026358Y-19606617D01*
X7956666Y-19601633D01*
X7912319Y-19573132D01*
X7839141Y-19499954D01*
X7652734Y-19369432D01*
X7652732Y-19369431D01*
X7446497Y-19273261D01*
X7446488Y-19273258D01*
X7226697Y-19214366D01*
X7226693Y-19214365D01*
X7226692Y-19214365D01*
X7226691Y-19214364D01*
X7226686Y-19214364D01*
X7000002Y-19194532D01*
X6999998Y-19194532D01*
X6773313Y-19214364D01*
X6773302Y-19214366D01*
X6553511Y-19273258D01*
X6553502Y-19273261D01*
X6347267Y-19369431D01*
X6347265Y-19369432D01*
X6160858Y-19499954D01*
X6087681Y-19573132D01*
X6026358Y-19606617D01*
X5956666Y-19601633D01*
X5912319Y-19573132D01*
X5839141Y-19499954D01*
X5652734Y-19369432D01*
X5652732Y-19369431D01*
X5446497Y-19273261D01*
X5446488Y-19273258D01*
X5226697Y-19214366D01*
X5226693Y-19214365D01*
X5226692Y-19214365D01*
X5226691Y-19214364D01*
X5226686Y-19214364D01*
X5000002Y-19194532D01*
X4999998Y-19194532D01*
X4773313Y-19214364D01*
X4773302Y-19214366D01*
X4606593Y-19259035D01*
X4536743Y-19257372D01*
X4478881Y-19218209D01*
X4451377Y-19153980D01*
X4450500Y-19139260D01*
X4450500Y-17091518D01*
X4470185Y-17024479D01*
X4486815Y-17003841D01*
X4669630Y-16821025D01*
X4730951Y-16787542D01*
X4768117Y-16785180D01*
X4773303Y-16785633D01*
X4773308Y-16785635D01*
X4978263Y-16803566D01*
X4999999Y-16805468D01*
X5000000Y-16805468D01*
X5000002Y-16805468D01*
X5056673Y-16800509D01*
X5226692Y-16785635D01*
X5446496Y-16726739D01*
X5652734Y-16630568D01*
X5839139Y-16500047D01*
X5912320Y-16426865D01*
X5973641Y-16393382D01*
X6043333Y-16398366D01*
X6087679Y-16426865D01*
X6160859Y-16500045D01*
X6160862Y-16500048D01*
X6226014Y-16545667D01*
X6347266Y-16630568D01*
X6553504Y-16726739D01*
X6773308Y-16785635D01*
X6935230Y-16799801D01*
X6999998Y-16805468D01*
X7000000Y-16805468D01*
X7000002Y-16805468D01*
X7056673Y-16800509D01*
X7226692Y-16785635D01*
X7446496Y-16726739D01*
X7652734Y-16630568D01*
X7839139Y-16500047D01*
X7912320Y-16426865D01*
X7973641Y-16393382D01*
X8043333Y-16398366D01*
X8087679Y-16426865D01*
X8160859Y-16500045D01*
X8160862Y-16500048D01*
X8226014Y-16545667D01*
X8347266Y-16630568D01*
X8553504Y-16726739D01*
X8773308Y-16785635D01*
X8935230Y-16799801D01*
X8999998Y-16805468D01*
X9000000Y-16805468D01*
X9000002Y-16805468D01*
X9056673Y-16800509D01*
X9226692Y-16785635D01*
X9446496Y-16726739D01*
X9652734Y-16630568D01*
X9839139Y-16500047D01*
X10000047Y-16339139D01*
X10130568Y-16152734D01*
X10226739Y-15946496D01*
X10285635Y-15726692D01*
X10305468Y-15500000D01*
X10304397Y-15487764D01*
X10292680Y-15353837D01*
X10285635Y-15273308D01*
X10226739Y-15053504D01*
X10130568Y-14847266D01*
X10000047Y-14660861D01*
X10000045Y-14660858D01*
X9839141Y-14499954D01*
X9652734Y-14369432D01*
X9652732Y-14369431D01*
X9446497Y-14273261D01*
X9446488Y-14273258D01*
X9226697Y-14214366D01*
X9226693Y-14214365D01*
X9226692Y-14214365D01*
X9226691Y-14214364D01*
X9226686Y-14214364D01*
X9000002Y-14194532D01*
X8999998Y-14194532D01*
X8773313Y-14214364D01*
X8773302Y-14214366D01*
X8553511Y-14273258D01*
X8553502Y-14273261D01*
X8347267Y-14369431D01*
X8347265Y-14369432D01*
X8160858Y-14499954D01*
X8087681Y-14573132D01*
X8026358Y-14606617D01*
X7956666Y-14601633D01*
X7912319Y-14573132D01*
X7839141Y-14499954D01*
X7652734Y-14369432D01*
X7652732Y-14369431D01*
X7446497Y-14273261D01*
X7446488Y-14273258D01*
X7226697Y-14214366D01*
X7226693Y-14214365D01*
X7226692Y-14214365D01*
X7226691Y-14214364D01*
X7226686Y-14214364D01*
X7000002Y-14194532D01*
X6999998Y-14194532D01*
X6773313Y-14214364D01*
X6773302Y-14214366D01*
X6553511Y-14273258D01*
X6553502Y-14273261D01*
X6347267Y-14369431D01*
X6347265Y-14369432D01*
X6160858Y-14499954D01*
X6087681Y-14573132D01*
X6026358Y-14606617D01*
X5956666Y-14601633D01*
X5912319Y-14573132D01*
X5839141Y-14499954D01*
X5652734Y-14369432D01*
X5652732Y-14369431D01*
X5446497Y-14273261D01*
X5446488Y-14273258D01*
X5226697Y-14214366D01*
X5226693Y-14214365D01*
X5226692Y-14214365D01*
X5226691Y-14214364D01*
X5226686Y-14214364D01*
X5000002Y-14194532D01*
X4999998Y-14194532D01*
X4773313Y-14214364D01*
X4773302Y-14214366D01*
X4553511Y-14273258D01*
X4553502Y-14273261D01*
X4347267Y-14369431D01*
X4347265Y-14369432D01*
X4160858Y-14499954D01*
X3999954Y-14660858D01*
X3869432Y-14847265D01*
X3869431Y-14847267D01*
X3773261Y-15053502D01*
X3773258Y-15053511D01*
X3714366Y-15273302D01*
X3714364Y-15273313D01*
X3694532Y-15499998D01*
X3694532Y-15500001D01*
X3714819Y-15731881D01*
X3701052Y-15800381D01*
X3678972Y-15830369D01*
X3205887Y-16303454D01*
X3129222Y-16418192D01*
X3076421Y-16545667D01*
X3076418Y-16545679D01*
X3052050Y-16668186D01*
X3052049Y-16668191D01*
X3049500Y-16681002D01*
X3049500Y-16681007D01*
X3049500Y-20948773D01*
X3049500Y-21086761D01*
X3049500Y-21086763D01*
X3049499Y-21086763D01*
X400500Y-21086763D01*
X400500Y-3999995D01*
X6794732Y-3999995D01*
X6794732Y-4000004D01*
X6813777Y-4254154D01*
X6869543Y-4498482D01*
X6870492Y-4502637D01*
X6963607Y-4739888D01*
X7091041Y-4960612D01*
X7249950Y-5159877D01*
X7436783Y-5333232D01*
X7647366Y-5476805D01*
X7647371Y-5476807D01*
X7647372Y-5476808D01*
X7647373Y-5476809D01*
X7728300Y-5515781D01*
X7876992Y-5587387D01*
X7876993Y-5587387D01*
X7876996Y-5587389D01*
X8120542Y-5662513D01*
X8372565Y-5700500D01*
X8627435Y-5700500D01*
X8879458Y-5662513D01*
X9123004Y-5587389D01*
X9352634Y-5476805D01*
X9563217Y-5333232D01*
X9750050Y-5159877D01*
X9908959Y-4960612D01*
X10036393Y-4739888D01*
X10129508Y-4502637D01*
X10186222Y-4254157D01*
X10205268Y-4000000D01*
X10205268Y-3999995D01*
X13794732Y-3999995D01*
X13794732Y-4000004D01*
X13813777Y-4254154D01*
X13869543Y-4498482D01*
X13870492Y-4502637D01*
X13963607Y-4739888D01*
X14091041Y-4960612D01*
X14249950Y-5159877D01*
X14436783Y-5333232D01*
X14647366Y-5476805D01*
X14647371Y-5476807D01*
X14647372Y-5476808D01*
X14647373Y-5476809D01*
X14728300Y-5515781D01*
X14876992Y-5587387D01*
X14876993Y-5587387D01*
X14876996Y-5587389D01*
X15120542Y-5662513D01*
X15372565Y-5700500D01*
X15627435Y-5700500D01*
X15879458Y-5662513D01*
X16123004Y-5587389D01*
X16352634Y-5476805D01*
X16563217Y-5333232D01*
X16750050Y-5159877D01*
X16908959Y-4960612D01*
X17036393Y-4739888D01*
X17129508Y-4502637D01*
X17186222Y-4254157D01*
X17205268Y-4000000D01*
X17205268Y-3999995D01*
X20794732Y-3999995D01*
X20794732Y-4000004D01*
X20813777Y-4254154D01*
X20869543Y-4498482D01*
X20870492Y-4502637D01*
X20963607Y-4739888D01*
X21091041Y-4960612D01*
X21249950Y-5159877D01*
X21436783Y-5333232D01*
X21647366Y-5476805D01*
X21647371Y-5476807D01*
X21647372Y-5476808D01*
X21647373Y-5476809D01*
X21728300Y-5515781D01*
X21876992Y-5587387D01*
X21876993Y-5587387D01*
X21876996Y-5587389D01*
X22120542Y-5662513D01*
X22372565Y-5700500D01*
X22627435Y-5700500D01*
X22879458Y-5662513D01*
X23123004Y-5587389D01*
X23352634Y-5476805D01*
X23563217Y-5333232D01*
X23750050Y-5159877D01*
X23908959Y-4960612D01*
X24036393Y-4739888D01*
X24129508Y-4502637D01*
X24186222Y-4254157D01*
X24205268Y-4000000D01*
X24186222Y-3745843D01*
X24129508Y-3497363D01*
X24036393Y-3260112D01*
X23908959Y-3039388D01*
X23750050Y-2840123D01*
X23563217Y-2666768D01*
X23352634Y-2523195D01*
X23352630Y-2523193D01*
X23352627Y-2523191D01*
X23352626Y-2523190D01*
X23123006Y-2412612D01*
X23123008Y-2412612D01*
X22879466Y-2337489D01*
X22879462Y-2337488D01*
X22879458Y-2337487D01*
X22758231Y-2319214D01*
X22627440Y-2299500D01*
X22627435Y-2299500D01*
X22372565Y-2299500D01*
X22372559Y-2299500D01*
X22215609Y-2323157D01*
X22120542Y-2337487D01*
X22120539Y-2337488D01*
X22120533Y-2337489D01*
X21876992Y-2412612D01*
X21647373Y-2523190D01*
X21647372Y-2523191D01*
X21436782Y-2666768D01*
X21249952Y-2840121D01*
X21249950Y-2840123D01*
X21091041Y-3039388D01*
X20963608Y-3260109D01*
X20870492Y-3497362D01*
X20870490Y-3497369D01*
X20813777Y-3745845D01*
X20794732Y-3999995D01*
X17205268Y-3999995D01*
X17186222Y-3745843D01*
X17129508Y-3497363D01*
X17036393Y-3260112D01*
X16908959Y-3039388D01*
X16750050Y-2840123D01*
X16563217Y-2666768D01*
X16352634Y-2523195D01*
X16352630Y-2523193D01*
X16352627Y-2523191D01*
X16352626Y-2523190D01*
X16123006Y-2412612D01*
X16123008Y-2412612D01*
X15879466Y-2337489D01*
X15879462Y-2337488D01*
X15879458Y-2337487D01*
X15758231Y-2319214D01*
X15627440Y-2299500D01*
X15627435Y-2299500D01*
X15372565Y-2299500D01*
X15372559Y-2299500D01*
X15215609Y-2323157D01*
X15120542Y-2337487D01*
X15120539Y-2337488D01*
X15120533Y-2337489D01*
X14876992Y-2412612D01*
X14647373Y-2523190D01*
X14647372Y-2523191D01*
X14436782Y-2666768D01*
X14249952Y-2840121D01*
X14249950Y-2840123D01*
X14091041Y-3039388D01*
X13963608Y-3260109D01*
X13870492Y-3497362D01*
X13870490Y-3497369D01*
X13813777Y-3745845D01*
X13794732Y-3999995D01*
X10205268Y-3999995D01*
X10186222Y-3745843D01*
X10129508Y-3497363D01*
X10036393Y-3260112D01*
X9908959Y-3039388D01*
X9750050Y-2840123D01*
X9563217Y-2666768D01*
X9352634Y-2523195D01*
X9352630Y-2523193D01*
X9352627Y-2523191D01*
X9352626Y-2523190D01*
X9123006Y-2412612D01*
X9123008Y-2412612D01*
X8879466Y-2337489D01*
X8879462Y-2337488D01*
X8879458Y-2337487D01*
X8758231Y-2319214D01*
X8627440Y-2299500D01*
X8627435Y-2299500D01*
X8372565Y-2299500D01*
X8372559Y-2299500D01*
X8215609Y-2323157D01*
X8120542Y-2337487D01*
X8120539Y-2337488D01*
X8120533Y-2337489D01*
X7876992Y-2412612D01*
X7647373Y-2523190D01*
X7647372Y-2523191D01*
X7436782Y-2666768D01*
X7249952Y-2840121D01*
X7249950Y-2840123D01*
X7091041Y-3039388D01*
X6963608Y-3260109D01*
X6870492Y-3497362D01*
X6870490Y-3497369D01*
X6813777Y-3745845D01*
X6794732Y-3999995D01*
X400500Y-3999995D01*
X400500Y-524500D01*
X420185Y-457461D01*
X472989Y-411706D01*
X524500Y-400500D01*
X89475500Y-400500D01*
X89542539Y-420185D01*
G37*
%TD.AperFunction*%
%TD*%
M02*
