%TF.GenerationSoftware,KiCad,Pcbnew,8.0.6*%
%TF.CreationDate,2024-12-08T18:35:23+09:00*%
%TF.ProjectId,backplane,6261636b-706c-4616-9e65-2e6b69636164,rev?*%
%TF.SameCoordinates,Original*%
%TF.FileFunction,Copper,L2,Bot*%
%TF.FilePolarity,Positive*%
%FSLAX46Y46*%
G04 Gerber Fmt 4.6, Leading zero omitted, Abs format (unit mm)*
G04 Created by KiCad (PCBNEW 8.0.6) date 2024-12-08 18:35:23*
%MOMM*%
%LPD*%
G01*
G04 APERTURE LIST*
%TA.AperFunction,ComponentPad*%
%ADD10C,3.000000*%
%TD*%
%TA.AperFunction,ComponentPad*%
%ADD11R,1.600000X1.600000*%
%TD*%
%TA.AperFunction,ComponentPad*%
%ADD12O,1.600000X1.600000*%
%TD*%
%TA.AperFunction,ComponentPad*%
%ADD13C,1.600000*%
%TD*%
%TA.AperFunction,ComponentPad*%
%ADD14C,2.000000*%
%TD*%
%TA.AperFunction,ComponentPad*%
%ADD15O,2.000000X2.000000*%
%TD*%
%TA.AperFunction,ComponentPad*%
%ADD16C,1.500000*%
%TD*%
%TA.AperFunction,ViaPad*%
%ADD17C,0.600000*%
%TD*%
%TA.AperFunction,Conductor*%
%ADD18C,1.000000*%
%TD*%
G04 APERTURE END LIST*
D10*
%TO.P,TP6,1,1*%
%TO.N,+12V*%
X16000000Y-3000000D03*
%TD*%
%TO.P,TP18,1,1*%
%TO.N,GND*%
X50000000Y-3000000D03*
%TD*%
D11*
%TO.P,D3,1,K*%
%TO.N,+12V*%
X51000000Y-7000000D03*
D12*
%TO.P,D3,2,A*%
%TO.N,Net-(D3-A)*%
X51000000Y-14620000D03*
%TD*%
D11*
%TO.P,C7,1*%
%TO.N,+12V*%
X79500000Y-6000000D03*
D13*
%TO.P,C7,2*%
%TO.N,GND*%
X77000000Y-6000000D03*
%TD*%
%TO.P,C8,1*%
%TO.N,Net-(U4-CSN)*%
X88350000Y-19000000D03*
%TO.P,C8,2*%
%TO.N,Net-(C8-Pad2)*%
X88350000Y-24000000D03*
%TD*%
D14*
%TO.P,L5,1,1*%
%TO.N,Net-(C6-Pad2)*%
X60350000Y-19000000D03*
D15*
%TO.P,L5,2,2*%
%TO.N,Net-(D3-A)*%
X47650000Y-19000000D03*
%TD*%
D11*
%TO.P,D2,1,K*%
%TO.N,+12V*%
X27000000Y-7000000D03*
D12*
%TO.P,D2,2,A*%
%TO.N,Net-(D2-A)*%
X27000000Y-14620000D03*
%TD*%
D11*
%TO.P,D4,1,K*%
%TO.N,+12V*%
X73000000Y-7000000D03*
D12*
%TO.P,D4,2,A*%
%TO.N,Net-(D4-A)*%
X73000000Y-14620000D03*
%TD*%
D16*
%TO.P,TP12,1,1*%
%TO.N,GND*%
X24000000Y-7000000D03*
%TD*%
D13*
%TO.P,R7,1*%
%TO.N,+12V*%
X88000000Y-7000000D03*
D12*
%TO.P,R7,2*%
%TO.N,Net-(U4-CSN)*%
X88000000Y-14620000D03*
%TD*%
D13*
%TO.P,R4,1*%
%TO.N,+12V*%
X38000000Y-7000000D03*
D12*
%TO.P,R4,2*%
%TO.N,Net-(U2-CSN)*%
X38000000Y-14620000D03*
%TD*%
D13*
%TO.P,R6,1*%
%TO.N,+12V*%
X62000000Y-7000000D03*
D12*
%TO.P,R6,2*%
%TO.N,Net-(U3-CSN)*%
X62000000Y-14620000D03*
%TD*%
D14*
%TO.P,L3,1,1*%
%TO.N,Net-(C4-Pad2)*%
X36350000Y-19000000D03*
D15*
%TO.P,L3,2,2*%
%TO.N,Net-(D2-A)*%
X23650000Y-19000000D03*
%TD*%
D13*
%TO.P,R5,1*%
%TO.N,+12V*%
X66000000Y-7000000D03*
D12*
%TO.P,R5,2*%
%TO.N,Net-(U3-CSN)*%
X66000000Y-14620000D03*
%TD*%
D16*
%TO.P,TP13,1,1*%
%TO.N,Net-(U2-CSN)*%
X39350000Y-19000000D03*
%TD*%
%TO.P,TP21,1,1*%
%TO.N,Net-(C6-Pad2)*%
X63350000Y-24000000D03*
%TD*%
%TO.P,TP19,1,1*%
%TO.N,GND*%
X48000000Y-7000000D03*
%TD*%
D13*
%TO.P,R1,1*%
%TO.N,+12V*%
X20000000Y-7000000D03*
D12*
%TO.P,R1,2*%
%TO.N,Net-(U1-CSN)*%
X20000000Y-14620000D03*
%TD*%
D10*
%TO.P,TP11,1,1*%
%TO.N,GND*%
X26000000Y-3000000D03*
%TD*%
D16*
%TO.P,TP1,1,1*%
%TO.N,Net-(U1-CSN)*%
X17350000Y-19000000D03*
%TD*%
D11*
%TO.P,C1,1*%
%TO.N,+12V*%
X11500000Y-6000000D03*
D13*
%TO.P,C1,2*%
%TO.N,GND*%
X9000000Y-6000000D03*
%TD*%
%TO.P,R2,1*%
%TO.N,+12V*%
X16000000Y-7000000D03*
D12*
%TO.P,R2,2*%
%TO.N,Net-(U1-CSN)*%
X16000000Y-14620000D03*
%TD*%
D10*
%TO.P,TP7,1,1*%
%TO.N,GND*%
X4000000Y-3000000D03*
%TD*%
D16*
%TO.P,TP10,1,1*%
%TO.N,Net-(U2-DIM)*%
X24000000Y-14000000D03*
%TD*%
%TO.P,TP16,1,1*%
%TO.N,+12V*%
X66000000Y-4000000D03*
%TD*%
D14*
%TO.P,L2,1,1*%
%TO.N,Net-(C2-Pad2)*%
X14350000Y-24000000D03*
D15*
%TO.P,L2,2,2*%
%TO.N,Net-(D1-A)*%
X1650000Y-24000000D03*
%TD*%
D14*
%TO.P,L8,1,1*%
%TO.N,Net-(C8-Pad2)*%
X82350000Y-24000000D03*
D15*
%TO.P,L8,2,2*%
%TO.N,Net-(D4-A)*%
X69650000Y-24000000D03*
%TD*%
D16*
%TO.P,TP26,1,1*%
%TO.N,GND*%
X70000000Y-7000000D03*
%TD*%
D14*
%TO.P,L7,1,1*%
%TO.N,Net-(C8-Pad2)*%
X82350000Y-19000000D03*
D15*
%TO.P,L7,2,2*%
%TO.N,Net-(D4-A)*%
X69650000Y-19000000D03*
%TD*%
D16*
%TO.P,TP17,1,1*%
%TO.N,Net-(U3-DIM)*%
X48000000Y-14000000D03*
%TD*%
D11*
%TO.P,C3,1*%
%TO.N,+12V*%
X33500000Y-6000000D03*
D13*
%TO.P,C3,2*%
%TO.N,GND*%
X31000000Y-6000000D03*
%TD*%
D16*
%TO.P,TP2,1,1*%
%TO.N,+12V*%
X20000000Y-4000000D03*
%TD*%
D11*
%TO.P,D1,1,K*%
%TO.N,+12V*%
X5000000Y-7000000D03*
D12*
%TO.P,D1,2,A*%
%TO.N,Net-(D1-A)*%
X5000000Y-14620000D03*
%TD*%
D16*
%TO.P,TP3,1,1*%
%TO.N,GND*%
X2000000Y-7000000D03*
%TD*%
D14*
%TO.P,L1,1,1*%
%TO.N,Net-(C2-Pad2)*%
X14350000Y-19000000D03*
D15*
%TO.P,L1,2,2*%
%TO.N,Net-(D1-A)*%
X1650000Y-19000000D03*
%TD*%
D16*
%TO.P,TP14,1,1*%
%TO.N,Net-(C4-Pad2)*%
X39350000Y-24000000D03*
%TD*%
D10*
%TO.P,TP8,1,1*%
%TO.N,+12V*%
X38000000Y-3000000D03*
%TD*%
D16*
%TO.P,TP20,1,1*%
%TO.N,Net-(U3-CSN)*%
X63350000Y-19000000D03*
%TD*%
D10*
%TO.P,TP22,1,1*%
%TO.N,+12V*%
X84000000Y-3000000D03*
%TD*%
%TO.P,TP15,1,1*%
%TO.N,+12V*%
X62000000Y-3000000D03*
%TD*%
D16*
%TO.P,TP27,1,1*%
%TO.N,Net-(U4-CSN)*%
X85350000Y-19000000D03*
%TD*%
D13*
%TO.P,R3,1*%
%TO.N,+12V*%
X42000000Y-7000000D03*
D12*
%TO.P,R3,2*%
%TO.N,Net-(U2-CSN)*%
X42000000Y-14620000D03*
%TD*%
D16*
%TO.P,TP28,1,1*%
%TO.N,Net-(C8-Pad2)*%
X85350000Y-24000000D03*
%TD*%
D13*
%TO.P,C4,1*%
%TO.N,Net-(U2-CSN)*%
X42350000Y-19000000D03*
%TO.P,C4,2*%
%TO.N,Net-(C4-Pad2)*%
X42350000Y-24000000D03*
%TD*%
D11*
%TO.P,C5,1*%
%TO.N,+12V*%
X57500000Y-6000000D03*
D13*
%TO.P,C5,2*%
%TO.N,GND*%
X55000000Y-6000000D03*
%TD*%
D16*
%TO.P,TP24,1,1*%
%TO.N,Net-(U4-DIM)*%
X70000000Y-14000000D03*
%TD*%
D13*
%TO.P,C6,1*%
%TO.N,Net-(U3-CSN)*%
X66350000Y-19000000D03*
%TO.P,C6,2*%
%TO.N,Net-(C6-Pad2)*%
X66350000Y-24000000D03*
%TD*%
D14*
%TO.P,L4,1,1*%
%TO.N,Net-(C4-Pad2)*%
X36350000Y-24000000D03*
D15*
%TO.P,L4,2,2*%
%TO.N,Net-(D2-A)*%
X23650000Y-24000000D03*
%TD*%
D10*
%TO.P,TP25,1,1*%
%TO.N,GND*%
X72000000Y-3000000D03*
%TD*%
D16*
%TO.P,TP23,1,1*%
%TO.N,+12V*%
X88000000Y-4000000D03*
%TD*%
%TO.P,TP9,1,1*%
%TO.N,+12V*%
X42000000Y-4000000D03*
%TD*%
D13*
%TO.P,C2,1*%
%TO.N,Net-(U1-CSN)*%
X20350000Y-19000000D03*
%TO.P,C2,2*%
%TO.N,Net-(C2-Pad2)*%
X20350000Y-24000000D03*
%TD*%
D16*
%TO.P,TP4,1,1*%
%TO.N,Net-(C2-Pad2)*%
X17350000Y-24000000D03*
%TD*%
%TO.P,TP5,1,1*%
%TO.N,Net-(U1-DIM)*%
X2000000Y-14000000D03*
%TD*%
D14*
%TO.P,L6,1,1*%
%TO.N,Net-(C6-Pad2)*%
X60350000Y-24000000D03*
D15*
%TO.P,L6,2,2*%
%TO.N,Net-(D3-A)*%
X47650000Y-24000000D03*
%TD*%
D13*
%TO.P,R8,1*%
%TO.N,+12V*%
X84000000Y-7000000D03*
D12*
%TO.P,R8,2*%
%TO.N,Net-(U4-CSN)*%
X84000000Y-14620000D03*
%TD*%
D17*
%TO.N,GND*%
X76175000Y-9911750D03*
X27915000Y-9911750D03*
X32995000Y-2291750D03*
X10135000Y-17531750D03*
X5055000Y-9911750D03*
X55855000Y-14991750D03*
X2515000Y-9911750D03*
X58395000Y-22611750D03*
X27915000Y-17531750D03*
X58395000Y-20071750D03*
X40615000Y-12451750D03*
X53315000Y-2291750D03*
X55855000Y-22611750D03*
X78715000Y-20071750D03*
X68555000Y-9911750D03*
X32995000Y-22611750D03*
X53315000Y-9911750D03*
X30455000Y-20071750D03*
X58395000Y-2291750D03*
X71095000Y-12451750D03*
X7595000Y-20071750D03*
X88875000Y-9911750D03*
X30455000Y-2291750D03*
X68555000Y-4831750D03*
X10135000Y-25151750D03*
X78715000Y-17531750D03*
X76175000Y-2291750D03*
X7595000Y-25151750D03*
X17755000Y-9911750D03*
X45695000Y-22611750D03*
X50775000Y-20071750D03*
X45695000Y-14991750D03*
X76175000Y-25151750D03*
X10135000Y-14991750D03*
X76175000Y-20071750D03*
X53315000Y-20071750D03*
X60935000Y-12451750D03*
X78715000Y-22611750D03*
X7595000Y-22611750D03*
X55855000Y-17531750D03*
X38075000Y-12451750D03*
X40615000Y-22611750D03*
X73635000Y-20071750D03*
X15215000Y-12451750D03*
X7595000Y-9911750D03*
X78715000Y-25151750D03*
X32995000Y-17531750D03*
X55855000Y-25151750D03*
X7595000Y-17531750D03*
X66015000Y-9911750D03*
X30455000Y-17531750D03*
X50775000Y-17531750D03*
X22835000Y-12451750D03*
X58395000Y-17531750D03*
X68555000Y-2291750D03*
X25375000Y-9911750D03*
X73635000Y-17531750D03*
X48235000Y-9911750D03*
X22835000Y-2291750D03*
X5055000Y-17531750D03*
X53315000Y-17531750D03*
X63475000Y-9911750D03*
X43155000Y-9911750D03*
X71095000Y-9911750D03*
X53315000Y-22611750D03*
X76175000Y-17531750D03*
X73635000Y-25151750D03*
X88875000Y-12451750D03*
X55855000Y-20071750D03*
X58395000Y-25151750D03*
X43155000Y-2291750D03*
X25375000Y-12451750D03*
X45695000Y-20071750D03*
X68555000Y-12451750D03*
X53315000Y-25151750D03*
X27915000Y-20071750D03*
X45695000Y-25151750D03*
X63475000Y-12451750D03*
X83795000Y-12451750D03*
X45695000Y-12451750D03*
X45695000Y-17531750D03*
X30455000Y-22611750D03*
X30455000Y-9911750D03*
X50775000Y-22611750D03*
X20295000Y-12451750D03*
X55855000Y-2291750D03*
X17755000Y-12451750D03*
X12675000Y-22611750D03*
X10135000Y-2291750D03*
X43155000Y-12451750D03*
X5055000Y-25151750D03*
X27915000Y-22611750D03*
X38075000Y-22611750D03*
X38075000Y-9911750D03*
X40615000Y-9911750D03*
X27915000Y-25151750D03*
X5055000Y-22611750D03*
X50775000Y-25151750D03*
X66015000Y-12451750D03*
X78715000Y-2291750D03*
X73635000Y-22611750D03*
X25375000Y-22611750D03*
X10135000Y-20071750D03*
X86335000Y-12451750D03*
X12675000Y-17531750D03*
X20295000Y-9911750D03*
X76175000Y-22611750D03*
X30455000Y-25151750D03*
X73635000Y-9911750D03*
X22835000Y-9911750D03*
X32995000Y-25151750D03*
X7595000Y-2291750D03*
X32995000Y-20071750D03*
X86335000Y-9911750D03*
X45695000Y-4831750D03*
X5055000Y-20071750D03*
X10135000Y-22611750D03*
X50775000Y-9911750D03*
X45695000Y-2291750D03*
%TD*%
D18*
%TO.N,+12V*%
X27000000Y-7000000D02*
X27550000Y-7550000D01*
X77950000Y-7550000D02*
X79500000Y-6000000D01*
X51550000Y-7550000D02*
X55950000Y-7550000D01*
X5550000Y-7550000D02*
X9950000Y-7550000D01*
X31950000Y-7550000D02*
X33500000Y-6000000D01*
X73550000Y-7550000D02*
X77950000Y-7550000D01*
X73000000Y-7000000D02*
X73550000Y-7550000D01*
X5000000Y-7000000D02*
X5550000Y-7550000D01*
X51000000Y-7000000D02*
X51550000Y-7550000D01*
X9950000Y-7550000D02*
X11500000Y-6000000D01*
X55950000Y-7550000D02*
X57500000Y-6000000D01*
X27550000Y-7550000D02*
X31950000Y-7550000D01*
%TO.N,Net-(D1-A)*%
X1650000Y-17970000D02*
X5000000Y-14620000D01*
X1650000Y-19000000D02*
X1650000Y-17970000D01*
%TO.N,Net-(D2-A)*%
X23650000Y-17970000D02*
X27000000Y-14620000D01*
X23650000Y-19000000D02*
X23650000Y-17970000D01*
%TO.N,Net-(D3-A)*%
X47650000Y-19000000D02*
X47650000Y-17970000D01*
X47650000Y-17970000D02*
X51000000Y-14620000D01*
%TO.N,Net-(D4-A)*%
X69650000Y-17970000D02*
X73000000Y-14620000D01*
X69650000Y-19000000D02*
X69650000Y-17970000D01*
%TD*%
%TA.AperFunction,Conductor*%
%TO.N,GND*%
G36*
X89542539Y-420185D02*
G01*
X89588294Y-472989D01*
X89599500Y-524500D01*
X89599500Y-18123839D01*
X89579815Y-18190878D01*
X89527011Y-18236633D01*
X89457853Y-18246577D01*
X89394297Y-18217552D01*
X89373925Y-18194962D01*
X89350045Y-18160858D01*
X89189141Y-17999954D01*
X89002734Y-17869432D01*
X89002732Y-17869431D01*
X88796497Y-17773261D01*
X88796488Y-17773258D01*
X88576697Y-17714366D01*
X88576693Y-17714365D01*
X88576692Y-17714365D01*
X88576691Y-17714364D01*
X88576686Y-17714364D01*
X88350002Y-17694532D01*
X88349998Y-17694532D01*
X88123313Y-17714364D01*
X88123302Y-17714366D01*
X87903511Y-17773258D01*
X87903502Y-17773261D01*
X87697267Y-17869431D01*
X87697265Y-17869432D01*
X87510858Y-17999954D01*
X87349954Y-18160858D01*
X87219432Y-18347265D01*
X87219431Y-18347267D01*
X87123261Y-18553502D01*
X87123258Y-18553511D01*
X87064366Y-18773302D01*
X87064364Y-18773313D01*
X87044532Y-18999998D01*
X87044532Y-19000001D01*
X87064364Y-19226686D01*
X87064366Y-19226697D01*
X87123258Y-19446488D01*
X87123261Y-19446497D01*
X87219431Y-19652732D01*
X87219432Y-19652734D01*
X87349954Y-19839141D01*
X87510858Y-20000045D01*
X87510861Y-20000047D01*
X87697266Y-20130568D01*
X87903504Y-20226739D01*
X87903509Y-20226740D01*
X87903511Y-20226741D01*
X87938839Y-20236207D01*
X88123308Y-20285635D01*
X88285230Y-20299801D01*
X88349998Y-20305468D01*
X88350000Y-20305468D01*
X88350002Y-20305468D01*
X88406673Y-20300509D01*
X88576692Y-20285635D01*
X88796496Y-20226739D01*
X89002734Y-20130568D01*
X89189139Y-20000047D01*
X89350047Y-19839139D01*
X89373925Y-19805036D01*
X89428500Y-19761412D01*
X89497999Y-19754218D01*
X89560354Y-19785740D01*
X89595768Y-19845969D01*
X89599500Y-19876160D01*
X89599500Y-23123839D01*
X89579815Y-23190878D01*
X89527011Y-23236633D01*
X89457853Y-23246577D01*
X89394297Y-23217552D01*
X89373925Y-23194962D01*
X89350045Y-23160858D01*
X89189141Y-22999954D01*
X89002734Y-22869432D01*
X89002732Y-22869431D01*
X88796497Y-22773261D01*
X88796488Y-22773258D01*
X88576697Y-22714366D01*
X88576693Y-22714365D01*
X88576692Y-22714365D01*
X88576691Y-22714364D01*
X88576686Y-22714364D01*
X88350002Y-22694532D01*
X88349998Y-22694532D01*
X88123313Y-22714364D01*
X88123302Y-22714366D01*
X87903511Y-22773258D01*
X87903502Y-22773261D01*
X87697267Y-22869431D01*
X87697265Y-22869432D01*
X87510858Y-22999954D01*
X87349954Y-23160858D01*
X87219432Y-23347265D01*
X87219431Y-23347267D01*
X87123261Y-23553502D01*
X87123258Y-23553511D01*
X87064366Y-23773302D01*
X87064364Y-23773313D01*
X87044532Y-23999998D01*
X87044532Y-24000001D01*
X87064364Y-24226686D01*
X87064366Y-24226697D01*
X87123258Y-24446488D01*
X87123261Y-24446497D01*
X87219431Y-24652732D01*
X87219432Y-24652734D01*
X87349954Y-24839141D01*
X87510858Y-25000045D01*
X87510861Y-25000047D01*
X87697266Y-25130568D01*
X87903504Y-25226739D01*
X87903509Y-25226740D01*
X87903511Y-25226741D01*
X87938839Y-25236207D01*
X88123308Y-25285635D01*
X88285230Y-25299801D01*
X88349998Y-25305468D01*
X88350000Y-25305468D01*
X88350002Y-25305468D01*
X88406673Y-25300509D01*
X88576692Y-25285635D01*
X88796496Y-25226739D01*
X89002734Y-25130568D01*
X89189139Y-25000047D01*
X89350047Y-24839139D01*
X89373925Y-24805036D01*
X89428500Y-24761412D01*
X89497999Y-24754218D01*
X89560354Y-24785740D01*
X89595768Y-24845969D01*
X89599500Y-24876160D01*
X89599500Y-26475500D01*
X89579815Y-26542539D01*
X89527011Y-26588294D01*
X89475500Y-26599500D01*
X524500Y-26599500D01*
X457461Y-26579815D01*
X411706Y-26527011D01*
X400500Y-26475500D01*
X400500Y-25175940D01*
X420185Y-25108901D01*
X472989Y-25063146D01*
X542147Y-25053202D01*
X605703Y-25082227D01*
X615725Y-25091953D01*
X630256Y-25107738D01*
X826491Y-25260474D01*
X1045190Y-25378828D01*
X1280386Y-25459571D01*
X1525665Y-25500500D01*
X1774335Y-25500500D01*
X2019614Y-25459571D01*
X2254810Y-25378828D01*
X2473509Y-25260474D01*
X2669744Y-25107738D01*
X2838164Y-24924785D01*
X2974173Y-24716607D01*
X3074063Y-24488881D01*
X3135108Y-24247821D01*
X3135109Y-24247812D01*
X3155643Y-24000005D01*
X3155643Y-23999994D01*
X12844357Y-23999994D01*
X12844357Y-24000005D01*
X12864890Y-24247812D01*
X12864892Y-24247824D01*
X12925936Y-24488881D01*
X13025826Y-24716606D01*
X13161833Y-24924782D01*
X13161836Y-24924785D01*
X13330256Y-25107738D01*
X13526491Y-25260474D01*
X13745190Y-25378828D01*
X13980386Y-25459571D01*
X14225665Y-25500500D01*
X14474335Y-25500500D01*
X14719614Y-25459571D01*
X14954810Y-25378828D01*
X15173509Y-25260474D01*
X15369744Y-25107738D01*
X15538164Y-24924785D01*
X15674173Y-24716607D01*
X15774063Y-24488881D01*
X15835108Y-24247821D01*
X15851715Y-24047394D01*
X15869542Y-24001197D01*
X16080031Y-24001197D01*
X16096747Y-24032647D01*
X16098819Y-24046830D01*
X16113793Y-24217976D01*
X16113793Y-24217979D01*
X16170422Y-24429322D01*
X16170424Y-24429326D01*
X16170425Y-24429330D01*
X16198194Y-24488881D01*
X16262897Y-24627638D01*
X16262898Y-24627639D01*
X16388402Y-24806877D01*
X16543123Y-24961598D01*
X16722361Y-25087102D01*
X16920670Y-25179575D01*
X17132023Y-25236207D01*
X17314926Y-25252208D01*
X17349998Y-25255277D01*
X17350000Y-25255277D01*
X17350002Y-25255277D01*
X17378254Y-25252805D01*
X17567977Y-25236207D01*
X17779330Y-25179575D01*
X17977639Y-25087102D01*
X18156877Y-24961598D01*
X18311598Y-24806877D01*
X18437102Y-24627639D01*
X18529575Y-24429330D01*
X18586207Y-24217977D01*
X18605277Y-24000000D01*
X18605277Y-23999998D01*
X19044532Y-23999998D01*
X19044532Y-24000001D01*
X19064364Y-24226686D01*
X19064366Y-24226697D01*
X19123258Y-24446488D01*
X19123261Y-24446497D01*
X19219431Y-24652732D01*
X19219432Y-24652734D01*
X19349954Y-24839141D01*
X19510858Y-25000045D01*
X19510861Y-25000047D01*
X19697266Y-25130568D01*
X19903504Y-25226739D01*
X19903509Y-25226740D01*
X19903511Y-25226741D01*
X19938839Y-25236207D01*
X20123308Y-25285635D01*
X20285230Y-25299801D01*
X20349998Y-25305468D01*
X20350000Y-25305468D01*
X20350002Y-25305468D01*
X20406673Y-25300509D01*
X20576692Y-25285635D01*
X20796496Y-25226739D01*
X21002734Y-25130568D01*
X21189139Y-25000047D01*
X21350047Y-24839139D01*
X21480568Y-24652734D01*
X21576739Y-24446496D01*
X21635635Y-24226692D01*
X21655468Y-24000000D01*
X21655467Y-23999994D01*
X22144357Y-23999994D01*
X22144357Y-24000005D01*
X22164890Y-24247812D01*
X22164892Y-24247824D01*
X22225936Y-24488881D01*
X22325826Y-24716606D01*
X22461833Y-24924782D01*
X22461836Y-24924785D01*
X22630256Y-25107738D01*
X22826491Y-25260474D01*
X23045190Y-25378828D01*
X23280386Y-25459571D01*
X23525665Y-25500500D01*
X23774335Y-25500500D01*
X24019614Y-25459571D01*
X24254810Y-25378828D01*
X24473509Y-25260474D01*
X24669744Y-25107738D01*
X24838164Y-24924785D01*
X24974173Y-24716607D01*
X25074063Y-24488881D01*
X25135108Y-24247821D01*
X25135109Y-24247812D01*
X25155643Y-24000005D01*
X25155643Y-23999994D01*
X34844357Y-23999994D01*
X34844357Y-24000005D01*
X34864890Y-24247812D01*
X34864892Y-24247824D01*
X34925936Y-24488881D01*
X35025826Y-24716606D01*
X35161833Y-24924782D01*
X35161836Y-24924785D01*
X35330256Y-25107738D01*
X35526491Y-25260474D01*
X35745190Y-25378828D01*
X35980386Y-25459571D01*
X36225665Y-25500500D01*
X36474335Y-25500500D01*
X36719614Y-25459571D01*
X36954810Y-25378828D01*
X37173509Y-25260474D01*
X37369744Y-25107738D01*
X37538164Y-24924785D01*
X37674173Y-24716607D01*
X37774063Y-24488881D01*
X37835108Y-24247821D01*
X37851715Y-24047394D01*
X37869542Y-24001197D01*
X38080031Y-24001197D01*
X38096747Y-24032647D01*
X38098819Y-24046830D01*
X38113793Y-24217976D01*
X38113793Y-24217979D01*
X38170422Y-24429322D01*
X38170424Y-24429326D01*
X38170425Y-24429330D01*
X38198194Y-24488881D01*
X38262897Y-24627638D01*
X38262898Y-24627639D01*
X38388402Y-24806877D01*
X38543123Y-24961598D01*
X38722361Y-25087102D01*
X38920670Y-25179575D01*
X39132023Y-25236207D01*
X39314926Y-25252208D01*
X39349998Y-25255277D01*
X39350000Y-25255277D01*
X39350002Y-25255277D01*
X39378254Y-25252805D01*
X39567977Y-25236207D01*
X39779330Y-25179575D01*
X39977639Y-25087102D01*
X40156877Y-24961598D01*
X40311598Y-24806877D01*
X40437102Y-24627639D01*
X40529575Y-24429330D01*
X40586207Y-24217977D01*
X40605277Y-24000000D01*
X40605277Y-23999998D01*
X41044532Y-23999998D01*
X41044532Y-24000001D01*
X41064364Y-24226686D01*
X41064366Y-24226697D01*
X41123258Y-24446488D01*
X41123261Y-24446497D01*
X41219431Y-24652732D01*
X41219432Y-24652734D01*
X41349954Y-24839141D01*
X41510858Y-25000045D01*
X41510861Y-25000047D01*
X41697266Y-25130568D01*
X41903504Y-25226739D01*
X41903509Y-25226740D01*
X41903511Y-25226741D01*
X41938839Y-25236207D01*
X42123308Y-25285635D01*
X42285230Y-25299801D01*
X42349998Y-25305468D01*
X42350000Y-25305468D01*
X42350002Y-25305468D01*
X42406673Y-25300509D01*
X42576692Y-25285635D01*
X42796496Y-25226739D01*
X43002734Y-25130568D01*
X43189139Y-25000047D01*
X43350047Y-24839139D01*
X43480568Y-24652734D01*
X43576739Y-24446496D01*
X43635635Y-24226692D01*
X43655468Y-24000000D01*
X43655467Y-23999994D01*
X46144357Y-23999994D01*
X46144357Y-24000005D01*
X46164890Y-24247812D01*
X46164892Y-24247824D01*
X46225936Y-24488881D01*
X46325826Y-24716606D01*
X46461833Y-24924782D01*
X46461836Y-24924785D01*
X46630256Y-25107738D01*
X46826491Y-25260474D01*
X47045190Y-25378828D01*
X47280386Y-25459571D01*
X47525665Y-25500500D01*
X47774335Y-25500500D01*
X48019614Y-25459571D01*
X48254810Y-25378828D01*
X48473509Y-25260474D01*
X48669744Y-25107738D01*
X48838164Y-24924785D01*
X48974173Y-24716607D01*
X49074063Y-24488881D01*
X49135108Y-24247821D01*
X49135109Y-24247812D01*
X49155643Y-24000005D01*
X49155643Y-23999994D01*
X58844357Y-23999994D01*
X58844357Y-24000005D01*
X58864890Y-24247812D01*
X58864892Y-24247824D01*
X58925936Y-24488881D01*
X59025826Y-24716606D01*
X59161833Y-24924782D01*
X59161836Y-24924785D01*
X59330256Y-25107738D01*
X59526491Y-25260474D01*
X59745190Y-25378828D01*
X59980386Y-25459571D01*
X60225665Y-25500500D01*
X60474335Y-25500500D01*
X60719614Y-25459571D01*
X60954810Y-25378828D01*
X61173509Y-25260474D01*
X61369744Y-25107738D01*
X61538164Y-24924785D01*
X61674173Y-24716607D01*
X61774063Y-24488881D01*
X61835108Y-24247821D01*
X61851715Y-24047394D01*
X61869542Y-24001197D01*
X62080031Y-24001197D01*
X62096747Y-24032647D01*
X62098819Y-24046830D01*
X62113793Y-24217976D01*
X62113793Y-24217979D01*
X62170422Y-24429322D01*
X62170424Y-24429326D01*
X62170425Y-24429330D01*
X62198194Y-24488881D01*
X62262897Y-24627638D01*
X62262898Y-24627639D01*
X62388402Y-24806877D01*
X62543123Y-24961598D01*
X62722361Y-25087102D01*
X62920670Y-25179575D01*
X63132023Y-25236207D01*
X63314926Y-25252208D01*
X63349998Y-25255277D01*
X63350000Y-25255277D01*
X63350002Y-25255277D01*
X63378254Y-25252805D01*
X63567977Y-25236207D01*
X63779330Y-25179575D01*
X63977639Y-25087102D01*
X64156877Y-24961598D01*
X64311598Y-24806877D01*
X64437102Y-24627639D01*
X64529575Y-24429330D01*
X64586207Y-24217977D01*
X64605277Y-24000000D01*
X64605277Y-23999998D01*
X65044532Y-23999998D01*
X65044532Y-24000001D01*
X65064364Y-24226686D01*
X65064366Y-24226697D01*
X65123258Y-24446488D01*
X65123261Y-24446497D01*
X65219431Y-24652732D01*
X65219432Y-24652734D01*
X65349954Y-24839141D01*
X65510858Y-25000045D01*
X65510861Y-25000047D01*
X65697266Y-25130568D01*
X65903504Y-25226739D01*
X65903509Y-25226740D01*
X65903511Y-25226741D01*
X65938839Y-25236207D01*
X66123308Y-25285635D01*
X66285230Y-25299801D01*
X66349998Y-25305468D01*
X66350000Y-25305468D01*
X66350002Y-25305468D01*
X66406673Y-25300509D01*
X66576692Y-25285635D01*
X66796496Y-25226739D01*
X67002734Y-25130568D01*
X67189139Y-25000047D01*
X67350047Y-24839139D01*
X67480568Y-24652734D01*
X67576739Y-24446496D01*
X67635635Y-24226692D01*
X67655468Y-24000000D01*
X67655467Y-23999994D01*
X68144357Y-23999994D01*
X68144357Y-24000005D01*
X68164890Y-24247812D01*
X68164892Y-24247824D01*
X68225936Y-24488881D01*
X68325826Y-24716606D01*
X68461833Y-24924782D01*
X68461836Y-24924785D01*
X68630256Y-25107738D01*
X68826491Y-25260474D01*
X69045190Y-25378828D01*
X69280386Y-25459571D01*
X69525665Y-25500500D01*
X69774335Y-25500500D01*
X70019614Y-25459571D01*
X70254810Y-25378828D01*
X70473509Y-25260474D01*
X70669744Y-25107738D01*
X70838164Y-24924785D01*
X70974173Y-24716607D01*
X71074063Y-24488881D01*
X71135108Y-24247821D01*
X71135109Y-24247812D01*
X71155643Y-24000005D01*
X71155643Y-23999994D01*
X80844357Y-23999994D01*
X80844357Y-24000005D01*
X80864890Y-24247812D01*
X80864892Y-24247824D01*
X80925936Y-24488881D01*
X81025826Y-24716606D01*
X81161833Y-24924782D01*
X81161836Y-24924785D01*
X81330256Y-25107738D01*
X81526491Y-25260474D01*
X81745190Y-25378828D01*
X81980386Y-25459571D01*
X82225665Y-25500500D01*
X82474335Y-25500500D01*
X82719614Y-25459571D01*
X82954810Y-25378828D01*
X83173509Y-25260474D01*
X83369744Y-25107738D01*
X83538164Y-24924785D01*
X83674173Y-24716607D01*
X83774063Y-24488881D01*
X83835108Y-24247821D01*
X83851715Y-24047394D01*
X83869542Y-24001197D01*
X84080031Y-24001197D01*
X84096747Y-24032647D01*
X84098819Y-24046830D01*
X84113793Y-24217976D01*
X84113793Y-24217979D01*
X84170422Y-24429322D01*
X84170424Y-24429326D01*
X84170425Y-24429330D01*
X84198194Y-24488881D01*
X84262897Y-24627638D01*
X84262898Y-24627639D01*
X84388402Y-24806877D01*
X84543123Y-24961598D01*
X84722361Y-25087102D01*
X84920670Y-25179575D01*
X85132023Y-25236207D01*
X85314926Y-25252208D01*
X85349998Y-25255277D01*
X85350000Y-25255277D01*
X85350002Y-25255277D01*
X85378254Y-25252805D01*
X85567977Y-25236207D01*
X85779330Y-25179575D01*
X85977639Y-25087102D01*
X86156877Y-24961598D01*
X86311598Y-24806877D01*
X86437102Y-24627639D01*
X86529575Y-24429330D01*
X86586207Y-24217977D01*
X86605277Y-24000000D01*
X86605276Y-23999994D01*
X86601130Y-23952600D01*
X86586207Y-23782023D01*
X86529575Y-23570670D01*
X86437102Y-23372362D01*
X86437100Y-23372359D01*
X86437099Y-23372357D01*
X86311599Y-23193124D01*
X86242314Y-23123839D01*
X86156877Y-23038402D01*
X85977639Y-22912898D01*
X85977640Y-22912898D01*
X85977638Y-22912897D01*
X85878484Y-22866661D01*
X85779330Y-22820425D01*
X85779326Y-22820424D01*
X85779322Y-22820422D01*
X85567977Y-22763793D01*
X85350002Y-22744723D01*
X85349998Y-22744723D01*
X85204682Y-22757436D01*
X85132023Y-22763793D01*
X85132020Y-22763793D01*
X84920677Y-22820422D01*
X84920668Y-22820426D01*
X84722361Y-22912898D01*
X84722357Y-22912900D01*
X84543121Y-23038402D01*
X84388402Y-23193121D01*
X84262900Y-23372357D01*
X84262898Y-23372361D01*
X84170426Y-23570668D01*
X84170422Y-23570677D01*
X84113793Y-23782020D01*
X84113793Y-23782023D01*
X84098819Y-23953169D01*
X84080031Y-24001197D01*
X83869542Y-24001197D01*
X83870500Y-23998715D01*
X83853722Y-23966793D01*
X83851717Y-23952622D01*
X83835108Y-23752179D01*
X83789145Y-23570677D01*
X83774063Y-23511118D01*
X83674173Y-23283393D01*
X83538166Y-23075217D01*
X83468880Y-22999953D01*
X83369744Y-22892262D01*
X83173509Y-22739526D01*
X83173507Y-22739525D01*
X83173506Y-22739524D01*
X82954811Y-22621172D01*
X82954802Y-22621169D01*
X82719616Y-22540429D01*
X82474335Y-22499500D01*
X82225665Y-22499500D01*
X81980383Y-22540429D01*
X81745197Y-22621169D01*
X81745188Y-22621172D01*
X81526493Y-22739524D01*
X81330257Y-22892261D01*
X81161833Y-23075217D01*
X81025826Y-23283393D01*
X80925936Y-23511118D01*
X80864892Y-23752175D01*
X80864890Y-23752187D01*
X80844357Y-23999994D01*
X71155643Y-23999994D01*
X71135109Y-23752187D01*
X71135107Y-23752175D01*
X71074063Y-23511118D01*
X70974173Y-23283393D01*
X70838166Y-23075217D01*
X70768880Y-22999953D01*
X70669744Y-22892262D01*
X70473509Y-22739526D01*
X70473507Y-22739525D01*
X70473506Y-22739524D01*
X70254811Y-22621172D01*
X70254802Y-22621169D01*
X70019616Y-22540429D01*
X69774335Y-22499500D01*
X69525665Y-22499500D01*
X69280383Y-22540429D01*
X69045197Y-22621169D01*
X69045188Y-22621172D01*
X68826493Y-22739524D01*
X68630257Y-22892261D01*
X68461833Y-23075217D01*
X68325826Y-23283393D01*
X68225936Y-23511118D01*
X68164892Y-23752175D01*
X68164890Y-23752187D01*
X68144357Y-23999994D01*
X67655467Y-23999994D01*
X67649801Y-23935230D01*
X67635635Y-23773308D01*
X67590916Y-23606415D01*
X67576741Y-23553511D01*
X67576738Y-23553502D01*
X67556974Y-23511118D01*
X67480568Y-23347266D01*
X67372637Y-23193123D01*
X67350045Y-23160858D01*
X67189141Y-22999954D01*
X67002734Y-22869432D01*
X67002732Y-22869431D01*
X66796497Y-22773261D01*
X66796488Y-22773258D01*
X66576697Y-22714366D01*
X66576693Y-22714365D01*
X66576692Y-22714365D01*
X66576691Y-22714364D01*
X66576686Y-22714364D01*
X66350002Y-22694532D01*
X66349998Y-22694532D01*
X66123313Y-22714364D01*
X66123302Y-22714366D01*
X65903511Y-22773258D01*
X65903502Y-22773261D01*
X65697267Y-22869431D01*
X65697265Y-22869432D01*
X65510858Y-22999954D01*
X65349954Y-23160858D01*
X65219432Y-23347265D01*
X65219431Y-23347267D01*
X65123261Y-23553502D01*
X65123258Y-23553511D01*
X65064366Y-23773302D01*
X65064364Y-23773313D01*
X65044532Y-23999998D01*
X64605277Y-23999998D01*
X64605276Y-23999994D01*
X64601130Y-23952600D01*
X64586207Y-23782023D01*
X64529575Y-23570670D01*
X64437102Y-23372362D01*
X64437100Y-23372359D01*
X64437099Y-23372357D01*
X64311599Y-23193124D01*
X64242314Y-23123839D01*
X64156877Y-23038402D01*
X63977639Y-22912898D01*
X63977640Y-22912898D01*
X63977638Y-22912897D01*
X63878484Y-22866661D01*
X63779330Y-22820425D01*
X63779326Y-22820424D01*
X63779322Y-22820422D01*
X63567977Y-22763793D01*
X63350002Y-22744723D01*
X63349998Y-22744723D01*
X63204682Y-22757436D01*
X63132023Y-22763793D01*
X63132020Y-22763793D01*
X62920677Y-22820422D01*
X62920668Y-22820426D01*
X62722361Y-22912898D01*
X62722357Y-22912900D01*
X62543121Y-23038402D01*
X62388402Y-23193121D01*
X62262900Y-23372357D01*
X62262898Y-23372361D01*
X62170426Y-23570668D01*
X62170422Y-23570677D01*
X62113793Y-23782020D01*
X62113793Y-23782023D01*
X62098819Y-23953169D01*
X62080031Y-24001197D01*
X61869542Y-24001197D01*
X61870500Y-23998715D01*
X61853722Y-23966793D01*
X61851717Y-23952622D01*
X61835108Y-23752179D01*
X61789145Y-23570677D01*
X61774063Y-23511118D01*
X61674173Y-23283393D01*
X61538166Y-23075217D01*
X61468880Y-22999953D01*
X61369744Y-22892262D01*
X61173509Y-22739526D01*
X61173507Y-22739525D01*
X61173506Y-22739524D01*
X60954811Y-22621172D01*
X60954802Y-22621169D01*
X60719616Y-22540429D01*
X60474335Y-22499500D01*
X60225665Y-22499500D01*
X59980383Y-22540429D01*
X59745197Y-22621169D01*
X59745188Y-22621172D01*
X59526493Y-22739524D01*
X59330257Y-22892261D01*
X59161833Y-23075217D01*
X59025826Y-23283393D01*
X58925936Y-23511118D01*
X58864892Y-23752175D01*
X58864890Y-23752187D01*
X58844357Y-23999994D01*
X49155643Y-23999994D01*
X49135109Y-23752187D01*
X49135107Y-23752175D01*
X49074063Y-23511118D01*
X48974173Y-23283393D01*
X48838166Y-23075217D01*
X48768880Y-22999953D01*
X48669744Y-22892262D01*
X48473509Y-22739526D01*
X48473507Y-22739525D01*
X48473506Y-22739524D01*
X48254811Y-22621172D01*
X48254802Y-22621169D01*
X48019616Y-22540429D01*
X47774335Y-22499500D01*
X47525665Y-22499500D01*
X47280383Y-22540429D01*
X47045197Y-22621169D01*
X47045188Y-22621172D01*
X46826493Y-22739524D01*
X46630257Y-22892261D01*
X46461833Y-23075217D01*
X46325826Y-23283393D01*
X46225936Y-23511118D01*
X46164892Y-23752175D01*
X46164890Y-23752187D01*
X46144357Y-23999994D01*
X43655467Y-23999994D01*
X43649801Y-23935230D01*
X43635635Y-23773308D01*
X43590916Y-23606415D01*
X43576741Y-23553511D01*
X43576738Y-23553502D01*
X43556974Y-23511118D01*
X43480568Y-23347266D01*
X43372637Y-23193123D01*
X43350045Y-23160858D01*
X43189141Y-22999954D01*
X43002734Y-22869432D01*
X43002732Y-22869431D01*
X42796497Y-22773261D01*
X42796488Y-22773258D01*
X42576697Y-22714366D01*
X42576693Y-22714365D01*
X42576692Y-22714365D01*
X42576691Y-22714364D01*
X42576686Y-22714364D01*
X42350002Y-22694532D01*
X42349998Y-22694532D01*
X42123313Y-22714364D01*
X42123302Y-22714366D01*
X41903511Y-22773258D01*
X41903502Y-22773261D01*
X41697267Y-22869431D01*
X41697265Y-22869432D01*
X41510858Y-22999954D01*
X41349954Y-23160858D01*
X41219432Y-23347265D01*
X41219431Y-23347267D01*
X41123261Y-23553502D01*
X41123258Y-23553511D01*
X41064366Y-23773302D01*
X41064364Y-23773313D01*
X41044532Y-23999998D01*
X40605277Y-23999998D01*
X40605276Y-23999994D01*
X40601130Y-23952600D01*
X40586207Y-23782023D01*
X40529575Y-23570670D01*
X40437102Y-23372362D01*
X40437100Y-23372359D01*
X40437099Y-23372357D01*
X40311599Y-23193124D01*
X40242314Y-23123839D01*
X40156877Y-23038402D01*
X39977639Y-22912898D01*
X39977640Y-22912898D01*
X39977638Y-22912897D01*
X39878484Y-22866661D01*
X39779330Y-22820425D01*
X39779326Y-22820424D01*
X39779322Y-22820422D01*
X39567977Y-22763793D01*
X39350002Y-22744723D01*
X39349998Y-22744723D01*
X39204682Y-22757436D01*
X39132023Y-22763793D01*
X39132020Y-22763793D01*
X38920677Y-22820422D01*
X38920668Y-22820426D01*
X38722361Y-22912898D01*
X38722357Y-22912900D01*
X38543121Y-23038402D01*
X38388402Y-23193121D01*
X38262900Y-23372357D01*
X38262898Y-23372361D01*
X38170426Y-23570668D01*
X38170422Y-23570677D01*
X38113793Y-23782020D01*
X38113793Y-23782023D01*
X38098819Y-23953169D01*
X38080031Y-24001197D01*
X37869542Y-24001197D01*
X37870500Y-23998715D01*
X37853722Y-23966793D01*
X37851717Y-23952622D01*
X37835108Y-23752179D01*
X37789145Y-23570677D01*
X37774063Y-23511118D01*
X37674173Y-23283393D01*
X37538166Y-23075217D01*
X37468880Y-22999953D01*
X37369744Y-22892262D01*
X37173509Y-22739526D01*
X37173507Y-22739525D01*
X37173506Y-22739524D01*
X36954811Y-22621172D01*
X36954802Y-22621169D01*
X36719616Y-22540429D01*
X36474335Y-22499500D01*
X36225665Y-22499500D01*
X35980383Y-22540429D01*
X35745197Y-22621169D01*
X35745188Y-22621172D01*
X35526493Y-22739524D01*
X35330257Y-22892261D01*
X35161833Y-23075217D01*
X35025826Y-23283393D01*
X34925936Y-23511118D01*
X34864892Y-23752175D01*
X34864890Y-23752187D01*
X34844357Y-23999994D01*
X25155643Y-23999994D01*
X25135109Y-23752187D01*
X25135107Y-23752175D01*
X25074063Y-23511118D01*
X24974173Y-23283393D01*
X24838166Y-23075217D01*
X24768880Y-22999953D01*
X24669744Y-22892262D01*
X24473509Y-22739526D01*
X24473507Y-22739525D01*
X24473506Y-22739524D01*
X24254811Y-22621172D01*
X24254802Y-22621169D01*
X24019616Y-22540429D01*
X23774335Y-22499500D01*
X23525665Y-22499500D01*
X23280383Y-22540429D01*
X23045197Y-22621169D01*
X23045188Y-22621172D01*
X22826493Y-22739524D01*
X22630257Y-22892261D01*
X22461833Y-23075217D01*
X22325826Y-23283393D01*
X22225936Y-23511118D01*
X22164892Y-23752175D01*
X22164890Y-23752187D01*
X22144357Y-23999994D01*
X21655467Y-23999994D01*
X21649801Y-23935230D01*
X21635635Y-23773308D01*
X21590916Y-23606415D01*
X21576741Y-23553511D01*
X21576738Y-23553502D01*
X21556974Y-23511118D01*
X21480568Y-23347266D01*
X21372637Y-23193123D01*
X21350045Y-23160858D01*
X21189141Y-22999954D01*
X21002734Y-22869432D01*
X21002732Y-22869431D01*
X20796497Y-22773261D01*
X20796488Y-22773258D01*
X20576697Y-22714366D01*
X20576693Y-22714365D01*
X20576692Y-22714365D01*
X20576691Y-22714364D01*
X20576686Y-22714364D01*
X20350002Y-22694532D01*
X20349998Y-22694532D01*
X20123313Y-22714364D01*
X20123302Y-22714366D01*
X19903511Y-22773258D01*
X19903502Y-22773261D01*
X19697267Y-22869431D01*
X19697265Y-22869432D01*
X19510858Y-22999954D01*
X19349954Y-23160858D01*
X19219432Y-23347265D01*
X19219431Y-23347267D01*
X19123261Y-23553502D01*
X19123258Y-23553511D01*
X19064366Y-23773302D01*
X19064364Y-23773313D01*
X19044532Y-23999998D01*
X18605277Y-23999998D01*
X18605276Y-23999994D01*
X18601130Y-23952600D01*
X18586207Y-23782023D01*
X18529575Y-23570670D01*
X18437102Y-23372362D01*
X18437100Y-23372359D01*
X18437099Y-23372357D01*
X18311599Y-23193124D01*
X18242314Y-23123839D01*
X18156877Y-23038402D01*
X17977639Y-22912898D01*
X17977640Y-22912898D01*
X17977638Y-22912897D01*
X17878484Y-22866661D01*
X17779330Y-22820425D01*
X17779326Y-22820424D01*
X17779322Y-22820422D01*
X17567977Y-22763793D01*
X17350002Y-22744723D01*
X17349998Y-22744723D01*
X17204682Y-22757436D01*
X17132023Y-22763793D01*
X17132020Y-22763793D01*
X16920677Y-22820422D01*
X16920668Y-22820426D01*
X16722361Y-22912898D01*
X16722357Y-22912900D01*
X16543121Y-23038402D01*
X16388402Y-23193121D01*
X16262900Y-23372357D01*
X16262898Y-23372361D01*
X16170426Y-23570668D01*
X16170422Y-23570677D01*
X16113793Y-23782020D01*
X16113793Y-23782023D01*
X16098819Y-23953169D01*
X16080031Y-24001197D01*
X15869542Y-24001197D01*
X15870500Y-23998715D01*
X15853722Y-23966793D01*
X15851717Y-23952622D01*
X15835108Y-23752179D01*
X15789145Y-23570677D01*
X15774063Y-23511118D01*
X15674173Y-23283393D01*
X15538166Y-23075217D01*
X15468880Y-22999953D01*
X15369744Y-22892262D01*
X15173509Y-22739526D01*
X15173507Y-22739525D01*
X15173506Y-22739524D01*
X14954811Y-22621172D01*
X14954802Y-22621169D01*
X14719616Y-22540429D01*
X14474335Y-22499500D01*
X14225665Y-22499500D01*
X13980383Y-22540429D01*
X13745197Y-22621169D01*
X13745188Y-22621172D01*
X13526493Y-22739524D01*
X13330257Y-22892261D01*
X13161833Y-23075217D01*
X13025826Y-23283393D01*
X12925936Y-23511118D01*
X12864892Y-23752175D01*
X12864890Y-23752187D01*
X12844357Y-23999994D01*
X3155643Y-23999994D01*
X3135109Y-23752187D01*
X3135107Y-23752175D01*
X3074063Y-23511118D01*
X2974173Y-23283393D01*
X2838166Y-23075217D01*
X2768880Y-22999953D01*
X2669744Y-22892262D01*
X2473509Y-22739526D01*
X2473507Y-22739525D01*
X2473506Y-22739524D01*
X2254811Y-22621172D01*
X2254802Y-22621169D01*
X2019616Y-22540429D01*
X1774335Y-22499500D01*
X1525665Y-22499500D01*
X1280383Y-22540429D01*
X1045197Y-22621169D01*
X1045188Y-22621172D01*
X826493Y-22739524D01*
X630255Y-22892262D01*
X630252Y-22892265D01*
X615729Y-22908042D01*
X555842Y-22944033D01*
X486004Y-22941932D01*
X428388Y-22902408D01*
X401287Y-22838008D01*
X400500Y-22824059D01*
X400500Y-20175940D01*
X420185Y-20108901D01*
X472989Y-20063146D01*
X542147Y-20053202D01*
X605703Y-20082227D01*
X615725Y-20091953D01*
X630256Y-20107738D01*
X826491Y-20260474D01*
X1045190Y-20378828D01*
X1280386Y-20459571D01*
X1525665Y-20500500D01*
X1774335Y-20500500D01*
X2019614Y-20459571D01*
X2254810Y-20378828D01*
X2473509Y-20260474D01*
X2669744Y-20107738D01*
X2838164Y-19924785D01*
X2974173Y-19716607D01*
X3074063Y-19488881D01*
X3135108Y-19247821D01*
X3135109Y-19247812D01*
X3155643Y-19000005D01*
X3155643Y-18999994D01*
X12844357Y-18999994D01*
X12844357Y-19000005D01*
X12864890Y-19247812D01*
X12864892Y-19247824D01*
X12925936Y-19488881D01*
X13025826Y-19716606D01*
X13161833Y-19924782D01*
X13161836Y-19924785D01*
X13330256Y-20107738D01*
X13526491Y-20260474D01*
X13745190Y-20378828D01*
X13980386Y-20459571D01*
X14225665Y-20500500D01*
X14474335Y-20500500D01*
X14719614Y-20459571D01*
X14954810Y-20378828D01*
X15173509Y-20260474D01*
X15369744Y-20107738D01*
X15538164Y-19924785D01*
X15674173Y-19716607D01*
X15774063Y-19488881D01*
X15835108Y-19247821D01*
X15851715Y-19047394D01*
X15869542Y-19001197D01*
X16080031Y-19001197D01*
X16096747Y-19032647D01*
X16098819Y-19046830D01*
X16113793Y-19217976D01*
X16113793Y-19217979D01*
X16170422Y-19429322D01*
X16170424Y-19429326D01*
X16170425Y-19429330D01*
X16198194Y-19488881D01*
X16262897Y-19627638D01*
X16262898Y-19627639D01*
X16388402Y-19806877D01*
X16543123Y-19961598D01*
X16722361Y-20087102D01*
X16920670Y-20179575D01*
X17132023Y-20236207D01*
X17314926Y-20252208D01*
X17349998Y-20255277D01*
X17350000Y-20255277D01*
X17350002Y-20255277D01*
X17378254Y-20252805D01*
X17567977Y-20236207D01*
X17779330Y-20179575D01*
X17977639Y-20087102D01*
X18156877Y-19961598D01*
X18311598Y-19806877D01*
X18437102Y-19627639D01*
X18529575Y-19429330D01*
X18586207Y-19217977D01*
X18605277Y-19000000D01*
X18605277Y-18999998D01*
X19044532Y-18999998D01*
X19044532Y-19000001D01*
X19064364Y-19226686D01*
X19064366Y-19226697D01*
X19123258Y-19446488D01*
X19123261Y-19446497D01*
X19219431Y-19652732D01*
X19219432Y-19652734D01*
X19349954Y-19839141D01*
X19510858Y-20000045D01*
X19510861Y-20000047D01*
X19697266Y-20130568D01*
X19903504Y-20226739D01*
X19903509Y-20226740D01*
X19903511Y-20226741D01*
X19938839Y-20236207D01*
X20123308Y-20285635D01*
X20285230Y-20299801D01*
X20349998Y-20305468D01*
X20350000Y-20305468D01*
X20350002Y-20305468D01*
X20406673Y-20300509D01*
X20576692Y-20285635D01*
X20796496Y-20226739D01*
X21002734Y-20130568D01*
X21189139Y-20000047D01*
X21350047Y-19839139D01*
X21480568Y-19652734D01*
X21576739Y-19446496D01*
X21635635Y-19226692D01*
X21655468Y-19000000D01*
X21655467Y-18999994D01*
X22144357Y-18999994D01*
X22144357Y-19000005D01*
X22164890Y-19247812D01*
X22164892Y-19247824D01*
X22225936Y-19488881D01*
X22325826Y-19716606D01*
X22461833Y-19924782D01*
X22461836Y-19924785D01*
X22630256Y-20107738D01*
X22826491Y-20260474D01*
X23045190Y-20378828D01*
X23280386Y-20459571D01*
X23525665Y-20500500D01*
X23774335Y-20500500D01*
X24019614Y-20459571D01*
X24254810Y-20378828D01*
X24473509Y-20260474D01*
X24669744Y-20107738D01*
X24838164Y-19924785D01*
X24974173Y-19716607D01*
X25074063Y-19488881D01*
X25135108Y-19247821D01*
X25135109Y-19247812D01*
X25155643Y-19000005D01*
X25155643Y-18999994D01*
X34844357Y-18999994D01*
X34844357Y-19000005D01*
X34864890Y-19247812D01*
X34864892Y-19247824D01*
X34925936Y-19488881D01*
X35025826Y-19716606D01*
X35161833Y-19924782D01*
X35161836Y-19924785D01*
X35330256Y-20107738D01*
X35526491Y-20260474D01*
X35745190Y-20378828D01*
X35980386Y-20459571D01*
X36225665Y-20500500D01*
X36474335Y-20500500D01*
X36719614Y-20459571D01*
X36954810Y-20378828D01*
X37173509Y-20260474D01*
X37369744Y-20107738D01*
X37538164Y-19924785D01*
X37674173Y-19716607D01*
X37774063Y-19488881D01*
X37835108Y-19247821D01*
X37851715Y-19047394D01*
X37869542Y-19001197D01*
X38080031Y-19001197D01*
X38096747Y-19032647D01*
X38098819Y-19046830D01*
X38113793Y-19217976D01*
X38113793Y-19217979D01*
X38170422Y-19429322D01*
X38170424Y-19429326D01*
X38170425Y-19429330D01*
X38198194Y-19488881D01*
X38262897Y-19627638D01*
X38262898Y-19627639D01*
X38388402Y-19806877D01*
X38543123Y-19961598D01*
X38722361Y-20087102D01*
X38920670Y-20179575D01*
X39132023Y-20236207D01*
X39314926Y-20252208D01*
X39349998Y-20255277D01*
X39350000Y-20255277D01*
X39350002Y-20255277D01*
X39378254Y-20252805D01*
X39567977Y-20236207D01*
X39779330Y-20179575D01*
X39977639Y-20087102D01*
X40156877Y-19961598D01*
X40311598Y-19806877D01*
X40437102Y-19627639D01*
X40529575Y-19429330D01*
X40586207Y-19217977D01*
X40605277Y-19000000D01*
X40605277Y-18999998D01*
X41044532Y-18999998D01*
X41044532Y-19000001D01*
X41064364Y-19226686D01*
X41064366Y-19226697D01*
X41123258Y-19446488D01*
X41123261Y-19446497D01*
X41219431Y-19652732D01*
X41219432Y-19652734D01*
X41349954Y-19839141D01*
X41510858Y-20000045D01*
X41510861Y-20000047D01*
X41697266Y-20130568D01*
X41903504Y-20226739D01*
X41903509Y-20226740D01*
X41903511Y-20226741D01*
X41938839Y-20236207D01*
X42123308Y-20285635D01*
X42285230Y-20299801D01*
X42349998Y-20305468D01*
X42350000Y-20305468D01*
X42350002Y-20305468D01*
X42406673Y-20300509D01*
X42576692Y-20285635D01*
X42796496Y-20226739D01*
X43002734Y-20130568D01*
X43189139Y-20000047D01*
X43350047Y-19839139D01*
X43480568Y-19652734D01*
X43576739Y-19446496D01*
X43635635Y-19226692D01*
X43655468Y-19000000D01*
X43655467Y-18999994D01*
X46144357Y-18999994D01*
X46144357Y-19000005D01*
X46164890Y-19247812D01*
X46164892Y-19247824D01*
X46225936Y-19488881D01*
X46325826Y-19716606D01*
X46461833Y-19924782D01*
X46461836Y-19924785D01*
X46630256Y-20107738D01*
X46826491Y-20260474D01*
X47045190Y-20378828D01*
X47280386Y-20459571D01*
X47525665Y-20500500D01*
X47774335Y-20500500D01*
X48019614Y-20459571D01*
X48254810Y-20378828D01*
X48473509Y-20260474D01*
X48669744Y-20107738D01*
X48838164Y-19924785D01*
X48974173Y-19716607D01*
X49074063Y-19488881D01*
X49135108Y-19247821D01*
X49135109Y-19247812D01*
X49155643Y-19000005D01*
X49155643Y-18999994D01*
X58844357Y-18999994D01*
X58844357Y-19000005D01*
X58864890Y-19247812D01*
X58864892Y-19247824D01*
X58925936Y-19488881D01*
X59025826Y-19716606D01*
X59161833Y-19924782D01*
X59161836Y-19924785D01*
X59330256Y-20107738D01*
X59526491Y-20260474D01*
X59745190Y-20378828D01*
X59980386Y-20459571D01*
X60225665Y-20500500D01*
X60474335Y-20500500D01*
X60719614Y-20459571D01*
X60954810Y-20378828D01*
X61173509Y-20260474D01*
X61369744Y-20107738D01*
X61538164Y-19924785D01*
X61674173Y-19716607D01*
X61774063Y-19488881D01*
X61835108Y-19247821D01*
X61851715Y-19047394D01*
X61869542Y-19001197D01*
X62080031Y-19001197D01*
X62096747Y-19032647D01*
X62098819Y-19046830D01*
X62113793Y-19217976D01*
X62113793Y-19217979D01*
X62170422Y-19429322D01*
X62170424Y-19429326D01*
X62170425Y-19429330D01*
X62198194Y-19488881D01*
X62262897Y-19627638D01*
X62262898Y-19627639D01*
X62388402Y-19806877D01*
X62543123Y-19961598D01*
X62722361Y-20087102D01*
X62920670Y-20179575D01*
X63132023Y-20236207D01*
X63314926Y-20252208D01*
X63349998Y-20255277D01*
X63350000Y-20255277D01*
X63350002Y-20255277D01*
X63378254Y-20252805D01*
X63567977Y-20236207D01*
X63779330Y-20179575D01*
X63977639Y-20087102D01*
X64156877Y-19961598D01*
X64311598Y-19806877D01*
X64437102Y-19627639D01*
X64529575Y-19429330D01*
X64586207Y-19217977D01*
X64605277Y-19000000D01*
X64605277Y-18999998D01*
X65044532Y-18999998D01*
X65044532Y-19000001D01*
X65064364Y-19226686D01*
X65064366Y-19226697D01*
X65123258Y-19446488D01*
X65123261Y-19446497D01*
X65219431Y-19652732D01*
X65219432Y-19652734D01*
X65349954Y-19839141D01*
X65510858Y-20000045D01*
X65510861Y-20000047D01*
X65697266Y-20130568D01*
X65903504Y-20226739D01*
X65903509Y-20226740D01*
X65903511Y-20226741D01*
X65938839Y-20236207D01*
X66123308Y-20285635D01*
X66285230Y-20299801D01*
X66349998Y-20305468D01*
X66350000Y-20305468D01*
X66350002Y-20305468D01*
X66406673Y-20300509D01*
X66576692Y-20285635D01*
X66796496Y-20226739D01*
X67002734Y-20130568D01*
X67189139Y-20000047D01*
X67350047Y-19839139D01*
X67480568Y-19652734D01*
X67576739Y-19446496D01*
X67635635Y-19226692D01*
X67655468Y-19000000D01*
X67655467Y-18999994D01*
X68144357Y-18999994D01*
X68144357Y-19000005D01*
X68164890Y-19247812D01*
X68164892Y-19247824D01*
X68225936Y-19488881D01*
X68325826Y-19716606D01*
X68461833Y-19924782D01*
X68461836Y-19924785D01*
X68630256Y-20107738D01*
X68826491Y-20260474D01*
X69045190Y-20378828D01*
X69280386Y-20459571D01*
X69525665Y-20500500D01*
X69774335Y-20500500D01*
X70019614Y-20459571D01*
X70254810Y-20378828D01*
X70473509Y-20260474D01*
X70669744Y-20107738D01*
X70838164Y-19924785D01*
X70974173Y-19716607D01*
X71074063Y-19488881D01*
X71135108Y-19247821D01*
X71135109Y-19247812D01*
X71155643Y-19000005D01*
X71155643Y-18999994D01*
X80844357Y-18999994D01*
X80844357Y-19000005D01*
X80864890Y-19247812D01*
X80864892Y-19247824D01*
X80925936Y-19488881D01*
X81025826Y-19716606D01*
X81161833Y-19924782D01*
X81161836Y-19924785D01*
X81330256Y-20107738D01*
X81526491Y-20260474D01*
X81745190Y-20378828D01*
X81980386Y-20459571D01*
X82225665Y-20500500D01*
X82474335Y-20500500D01*
X82719614Y-20459571D01*
X82954810Y-20378828D01*
X83173509Y-20260474D01*
X83369744Y-20107738D01*
X83538164Y-19924785D01*
X83674173Y-19716607D01*
X83774063Y-19488881D01*
X83835108Y-19247821D01*
X83851715Y-19047394D01*
X83869542Y-19001197D01*
X84080031Y-19001197D01*
X84096747Y-19032647D01*
X84098819Y-19046830D01*
X84113793Y-19217976D01*
X84113793Y-19217979D01*
X84170422Y-19429322D01*
X84170424Y-19429326D01*
X84170425Y-19429330D01*
X84198194Y-19488881D01*
X84262897Y-19627638D01*
X84262898Y-19627639D01*
X84388402Y-19806877D01*
X84543123Y-19961598D01*
X84722361Y-20087102D01*
X84920670Y-20179575D01*
X85132023Y-20236207D01*
X85314926Y-20252208D01*
X85349998Y-20255277D01*
X85350000Y-20255277D01*
X85350002Y-20255277D01*
X85378254Y-20252805D01*
X85567977Y-20236207D01*
X85779330Y-20179575D01*
X85977639Y-20087102D01*
X86156877Y-19961598D01*
X86311598Y-19806877D01*
X86437102Y-19627639D01*
X86529575Y-19429330D01*
X86586207Y-19217977D01*
X86605277Y-19000000D01*
X86605276Y-18999994D01*
X86601130Y-18952600D01*
X86586207Y-18782023D01*
X86529575Y-18570670D01*
X86437102Y-18372362D01*
X86437100Y-18372359D01*
X86437099Y-18372357D01*
X86311599Y-18193124D01*
X86242314Y-18123839D01*
X86156877Y-18038402D01*
X85977639Y-17912898D01*
X85977640Y-17912898D01*
X85977638Y-17912897D01*
X85878484Y-17866661D01*
X85779330Y-17820425D01*
X85779326Y-17820424D01*
X85779322Y-17820422D01*
X85567977Y-17763793D01*
X85350002Y-17744723D01*
X85349998Y-17744723D01*
X85204682Y-17757436D01*
X85132023Y-17763793D01*
X85132020Y-17763793D01*
X84920677Y-17820422D01*
X84920668Y-17820426D01*
X84722361Y-17912898D01*
X84722357Y-17912900D01*
X84543121Y-18038402D01*
X84388402Y-18193121D01*
X84262900Y-18372357D01*
X84262898Y-18372361D01*
X84170426Y-18570668D01*
X84170422Y-18570677D01*
X84113793Y-18782020D01*
X84113793Y-18782023D01*
X84098819Y-18953169D01*
X84080031Y-19001197D01*
X83869542Y-19001197D01*
X83870500Y-18998715D01*
X83853722Y-18966793D01*
X83851717Y-18952622D01*
X83835108Y-18752179D01*
X83789145Y-18570677D01*
X83774063Y-18511118D01*
X83674173Y-18283393D01*
X83538166Y-18075217D01*
X83468880Y-17999953D01*
X83369744Y-17892262D01*
X83173509Y-17739526D01*
X83173507Y-17739525D01*
X83173506Y-17739524D01*
X82954811Y-17621172D01*
X82954802Y-17621169D01*
X82719616Y-17540429D01*
X82474335Y-17499500D01*
X82225665Y-17499500D01*
X81980383Y-17540429D01*
X81745197Y-17621169D01*
X81745188Y-17621172D01*
X81526493Y-17739524D01*
X81330257Y-17892261D01*
X81161833Y-18075217D01*
X81025826Y-18283393D01*
X80925936Y-18511118D01*
X80864892Y-18752175D01*
X80864890Y-18752187D01*
X80844357Y-18999994D01*
X71155643Y-18999994D01*
X71135109Y-18752187D01*
X71135107Y-18752175D01*
X71074063Y-18511118D01*
X70974173Y-18283393D01*
X70941267Y-18233026D01*
X70921080Y-18166137D01*
X70940260Y-18098951D01*
X70957395Y-18077524D01*
X71842060Y-17192859D01*
X73088034Y-15946885D01*
X73149355Y-15913402D01*
X73164900Y-15911041D01*
X73226692Y-15905635D01*
X73446496Y-15846739D01*
X73652734Y-15750568D01*
X73839139Y-15620047D01*
X74000047Y-15459139D01*
X74130568Y-15272734D01*
X74226739Y-15066496D01*
X74285635Y-14846692D01*
X74305468Y-14620000D01*
X74305468Y-14619998D01*
X82694532Y-14619998D01*
X82694532Y-14620001D01*
X82714364Y-14846686D01*
X82714366Y-14846697D01*
X82773258Y-15066488D01*
X82773261Y-15066497D01*
X82869431Y-15272732D01*
X82869432Y-15272734D01*
X82999954Y-15459141D01*
X83160858Y-15620045D01*
X83160861Y-15620047D01*
X83347266Y-15750568D01*
X83553504Y-15846739D01*
X83773308Y-15905635D01*
X83935230Y-15919801D01*
X83999998Y-15925468D01*
X84000000Y-15925468D01*
X84000002Y-15925468D01*
X84056673Y-15920509D01*
X84226692Y-15905635D01*
X84446496Y-15846739D01*
X84652734Y-15750568D01*
X84839139Y-15620047D01*
X85000047Y-15459139D01*
X85130568Y-15272734D01*
X85226739Y-15066496D01*
X85285635Y-14846692D01*
X85305468Y-14620000D01*
X85305468Y-14619998D01*
X86694532Y-14619998D01*
X86694532Y-14620001D01*
X86714364Y-14846686D01*
X86714366Y-14846697D01*
X86773258Y-15066488D01*
X86773261Y-15066497D01*
X86869431Y-15272732D01*
X86869432Y-15272734D01*
X86999954Y-15459141D01*
X87160858Y-15620045D01*
X87160861Y-15620047D01*
X87347266Y-15750568D01*
X87553504Y-15846739D01*
X87773308Y-15905635D01*
X87935230Y-15919801D01*
X87999998Y-15925468D01*
X88000000Y-15925468D01*
X88000002Y-15925468D01*
X88056673Y-15920509D01*
X88226692Y-15905635D01*
X88446496Y-15846739D01*
X88652734Y-15750568D01*
X88839139Y-15620047D01*
X89000047Y-15459139D01*
X89130568Y-15272734D01*
X89226739Y-15066496D01*
X89285635Y-14846692D01*
X89305468Y-14620000D01*
X89285635Y-14393308D01*
X89226739Y-14173504D01*
X89130568Y-13967266D01*
X89000047Y-13780861D01*
X89000045Y-13780858D01*
X88839141Y-13619954D01*
X88652734Y-13489432D01*
X88652732Y-13489431D01*
X88446497Y-13393261D01*
X88446488Y-13393258D01*
X88226697Y-13334366D01*
X88226693Y-13334365D01*
X88226692Y-13334365D01*
X88226691Y-13334364D01*
X88226686Y-13334364D01*
X88000002Y-13314532D01*
X87999998Y-13314532D01*
X87773313Y-13334364D01*
X87773302Y-13334366D01*
X87553511Y-13393258D01*
X87553502Y-13393261D01*
X87347267Y-13489431D01*
X87347265Y-13489432D01*
X87160858Y-13619954D01*
X86999954Y-13780858D01*
X86869432Y-13967265D01*
X86869431Y-13967267D01*
X86773261Y-14173502D01*
X86773258Y-14173511D01*
X86714366Y-14393302D01*
X86714364Y-14393313D01*
X86694532Y-14619998D01*
X85305468Y-14619998D01*
X85285635Y-14393308D01*
X85226739Y-14173504D01*
X85130568Y-13967266D01*
X85000047Y-13780861D01*
X85000045Y-13780858D01*
X84839141Y-13619954D01*
X84652734Y-13489432D01*
X84652732Y-13489431D01*
X84446497Y-13393261D01*
X84446488Y-13393258D01*
X84226697Y-13334366D01*
X84226693Y-13334365D01*
X84226692Y-13334365D01*
X84226691Y-13334364D01*
X84226686Y-13334364D01*
X84000002Y-13314532D01*
X83999998Y-13314532D01*
X83773313Y-13334364D01*
X83773302Y-13334366D01*
X83553511Y-13393258D01*
X83553502Y-13393261D01*
X83347267Y-13489431D01*
X83347265Y-13489432D01*
X83160858Y-13619954D01*
X82999954Y-13780858D01*
X82869432Y-13967265D01*
X82869431Y-13967267D01*
X82773261Y-14173502D01*
X82773258Y-14173511D01*
X82714366Y-14393302D01*
X82714364Y-14393313D01*
X82694532Y-14619998D01*
X74305468Y-14619998D01*
X74285635Y-14393308D01*
X74226739Y-14173504D01*
X74130568Y-13967266D01*
X74000047Y-13780861D01*
X74000045Y-13780858D01*
X73839141Y-13619954D01*
X73652734Y-13489432D01*
X73652732Y-13489431D01*
X73446497Y-13393261D01*
X73446488Y-13393258D01*
X73226697Y-13334366D01*
X73226693Y-13334365D01*
X73226692Y-13334365D01*
X73226691Y-13334364D01*
X73226686Y-13334364D01*
X73000002Y-13314532D01*
X72999998Y-13314532D01*
X72773313Y-13334364D01*
X72773302Y-13334366D01*
X72553511Y-13393258D01*
X72553502Y-13393261D01*
X72347267Y-13489431D01*
X72347265Y-13489432D01*
X72160858Y-13619954D01*
X71999954Y-13780858D01*
X71869432Y-13967265D01*
X71869431Y-13967267D01*
X71773261Y-14173502D01*
X71773258Y-14173511D01*
X71714365Y-14393307D01*
X71708958Y-14455095D01*
X71683504Y-14520163D01*
X71673111Y-14531966D01*
X69012220Y-17192859D01*
X69012218Y-17192861D01*
X68942538Y-17262540D01*
X68872859Y-17332219D01*
X68763371Y-17496079D01*
X68763364Y-17496092D01*
X68687950Y-17678160D01*
X68687947Y-17678170D01*
X68656320Y-17837165D01*
X68625933Y-17896955D01*
X68461836Y-18075213D01*
X68325826Y-18283393D01*
X68225936Y-18511118D01*
X68164892Y-18752175D01*
X68164890Y-18752187D01*
X68144357Y-18999994D01*
X67655467Y-18999994D01*
X67649801Y-18935230D01*
X67635635Y-18773308D01*
X67590916Y-18606415D01*
X67576741Y-18553511D01*
X67576738Y-18553502D01*
X67556974Y-18511118D01*
X67480568Y-18347266D01*
X67372637Y-18193123D01*
X67350045Y-18160858D01*
X67189141Y-17999954D01*
X67002734Y-17869432D01*
X67002732Y-17869431D01*
X66796497Y-17773261D01*
X66796488Y-17773258D01*
X66576697Y-17714366D01*
X66576693Y-17714365D01*
X66576692Y-17714365D01*
X66576691Y-17714364D01*
X66576686Y-17714364D01*
X66350002Y-17694532D01*
X66349998Y-17694532D01*
X66123313Y-17714364D01*
X66123302Y-17714366D01*
X65903511Y-17773258D01*
X65903502Y-17773261D01*
X65697267Y-17869431D01*
X65697265Y-17869432D01*
X65510858Y-17999954D01*
X65349954Y-18160858D01*
X65219432Y-18347265D01*
X65219431Y-18347267D01*
X65123261Y-18553502D01*
X65123258Y-18553511D01*
X65064366Y-18773302D01*
X65064364Y-18773313D01*
X65044532Y-18999998D01*
X64605277Y-18999998D01*
X64605276Y-18999994D01*
X64601130Y-18952600D01*
X64586207Y-18782023D01*
X64529575Y-18570670D01*
X64437102Y-18372362D01*
X64437100Y-18372359D01*
X64437099Y-18372357D01*
X64311599Y-18193124D01*
X64242314Y-18123839D01*
X64156877Y-18038402D01*
X63977639Y-17912898D01*
X63977640Y-17912898D01*
X63977638Y-17912897D01*
X63878484Y-17866661D01*
X63779330Y-17820425D01*
X63779326Y-17820424D01*
X63779322Y-17820422D01*
X63567977Y-17763793D01*
X63350002Y-17744723D01*
X63349998Y-17744723D01*
X63204682Y-17757436D01*
X63132023Y-17763793D01*
X63132020Y-17763793D01*
X62920677Y-17820422D01*
X62920668Y-17820426D01*
X62722361Y-17912898D01*
X62722357Y-17912900D01*
X62543121Y-18038402D01*
X62388402Y-18193121D01*
X62262900Y-18372357D01*
X62262898Y-18372361D01*
X62170426Y-18570668D01*
X62170422Y-18570677D01*
X62113793Y-18782020D01*
X62113793Y-18782023D01*
X62098819Y-18953169D01*
X62080031Y-19001197D01*
X61869542Y-19001197D01*
X61870500Y-18998715D01*
X61853722Y-18966793D01*
X61851717Y-18952622D01*
X61835108Y-18752179D01*
X61789145Y-18570677D01*
X61774063Y-18511118D01*
X61674173Y-18283393D01*
X61538166Y-18075217D01*
X61468880Y-17999953D01*
X61369744Y-17892262D01*
X61173509Y-17739526D01*
X61173507Y-17739525D01*
X61173506Y-17739524D01*
X60954811Y-17621172D01*
X60954802Y-17621169D01*
X60719616Y-17540429D01*
X60474335Y-17499500D01*
X60225665Y-17499500D01*
X59980383Y-17540429D01*
X59745197Y-17621169D01*
X59745188Y-17621172D01*
X59526493Y-17739524D01*
X59330257Y-17892261D01*
X59161833Y-18075217D01*
X59025826Y-18283393D01*
X58925936Y-18511118D01*
X58864892Y-18752175D01*
X58864890Y-18752187D01*
X58844357Y-18999994D01*
X49155643Y-18999994D01*
X49135109Y-18752187D01*
X49135107Y-18752175D01*
X49074063Y-18511118D01*
X48974173Y-18283393D01*
X48941267Y-18233026D01*
X48921080Y-18166137D01*
X48940260Y-18098951D01*
X48957395Y-18077524D01*
X49842060Y-17192859D01*
X51088034Y-15946885D01*
X51149355Y-15913402D01*
X51164900Y-15911041D01*
X51226692Y-15905635D01*
X51446496Y-15846739D01*
X51652734Y-15750568D01*
X51839139Y-15620047D01*
X52000047Y-15459139D01*
X52130568Y-15272734D01*
X52226739Y-15066496D01*
X52285635Y-14846692D01*
X52305468Y-14620000D01*
X52305468Y-14619998D01*
X60694532Y-14619998D01*
X60694532Y-14620001D01*
X60714364Y-14846686D01*
X60714366Y-14846697D01*
X60773258Y-15066488D01*
X60773261Y-15066497D01*
X60869431Y-15272732D01*
X60869432Y-15272734D01*
X60999954Y-15459141D01*
X61160858Y-15620045D01*
X61160861Y-15620047D01*
X61347266Y-15750568D01*
X61553504Y-15846739D01*
X61773308Y-15905635D01*
X61935230Y-15919801D01*
X61999998Y-15925468D01*
X62000000Y-15925468D01*
X62000002Y-15925468D01*
X62056673Y-15920509D01*
X62226692Y-15905635D01*
X62446496Y-15846739D01*
X62652734Y-15750568D01*
X62839139Y-15620047D01*
X63000047Y-15459139D01*
X63130568Y-15272734D01*
X63226739Y-15066496D01*
X63285635Y-14846692D01*
X63305468Y-14620000D01*
X63305468Y-14619998D01*
X64694532Y-14619998D01*
X64694532Y-14620001D01*
X64714364Y-14846686D01*
X64714366Y-14846697D01*
X64773258Y-15066488D01*
X64773261Y-15066497D01*
X64869431Y-15272732D01*
X64869432Y-15272734D01*
X64999954Y-15459141D01*
X65160858Y-15620045D01*
X65160861Y-15620047D01*
X65347266Y-15750568D01*
X65553504Y-15846739D01*
X65773308Y-15905635D01*
X65935230Y-15919801D01*
X65999998Y-15925468D01*
X66000000Y-15925468D01*
X66000002Y-15925468D01*
X66056673Y-15920509D01*
X66226692Y-15905635D01*
X66446496Y-15846739D01*
X66652734Y-15750568D01*
X66839139Y-15620047D01*
X67000047Y-15459139D01*
X67130568Y-15272734D01*
X67226739Y-15066496D01*
X67285635Y-14846692D01*
X67305468Y-14620000D01*
X67285635Y-14393308D01*
X67226739Y-14173504D01*
X67145831Y-13999997D01*
X68744723Y-13999997D01*
X68744723Y-14000002D01*
X68763793Y-14217975D01*
X68763793Y-14217979D01*
X68820422Y-14429322D01*
X68820424Y-14429326D01*
X68820425Y-14429330D01*
X68853404Y-14500053D01*
X68912897Y-14627638D01*
X68912898Y-14627639D01*
X69038402Y-14806877D01*
X69193123Y-14961598D01*
X69372361Y-15087102D01*
X69570670Y-15179575D01*
X69782023Y-15236207D01*
X69964926Y-15252208D01*
X69999998Y-15255277D01*
X70000000Y-15255277D01*
X70000002Y-15255277D01*
X70028254Y-15252805D01*
X70217977Y-15236207D01*
X70429330Y-15179575D01*
X70627639Y-15087102D01*
X70806877Y-14961598D01*
X70961598Y-14806877D01*
X71087102Y-14627639D01*
X71179575Y-14429330D01*
X71236207Y-14217977D01*
X71255277Y-14000000D01*
X71236207Y-13782023D01*
X71179575Y-13570670D01*
X71087102Y-13372362D01*
X71087100Y-13372359D01*
X71087099Y-13372357D01*
X70961599Y-13193124D01*
X70961596Y-13193121D01*
X70806877Y-13038402D01*
X70627639Y-12912898D01*
X70627640Y-12912898D01*
X70627638Y-12912897D01*
X70528484Y-12866661D01*
X70429330Y-12820425D01*
X70429326Y-12820424D01*
X70429322Y-12820422D01*
X70217977Y-12763793D01*
X70000002Y-12744723D01*
X69999998Y-12744723D01*
X69854682Y-12757436D01*
X69782023Y-12763793D01*
X69782020Y-12763793D01*
X69570677Y-12820422D01*
X69570668Y-12820426D01*
X69372361Y-12912898D01*
X69372357Y-12912900D01*
X69193121Y-13038402D01*
X69038402Y-13193121D01*
X68912900Y-13372357D01*
X68912898Y-13372361D01*
X68820426Y-13570668D01*
X68820422Y-13570677D01*
X68763793Y-13782020D01*
X68763793Y-13782024D01*
X68744723Y-13999997D01*
X67145831Y-13999997D01*
X67130568Y-13967266D01*
X67000047Y-13780861D01*
X67000045Y-13780858D01*
X66839141Y-13619954D01*
X66652734Y-13489432D01*
X66652732Y-13489431D01*
X66446497Y-13393261D01*
X66446488Y-13393258D01*
X66226697Y-13334366D01*
X66226693Y-13334365D01*
X66226692Y-13334365D01*
X66226691Y-13334364D01*
X66226686Y-13334364D01*
X66000002Y-13314532D01*
X65999998Y-13314532D01*
X65773313Y-13334364D01*
X65773302Y-13334366D01*
X65553511Y-13393258D01*
X65553502Y-13393261D01*
X65347267Y-13489431D01*
X65347265Y-13489432D01*
X65160858Y-13619954D01*
X64999954Y-13780858D01*
X64869432Y-13967265D01*
X64869431Y-13967267D01*
X64773261Y-14173502D01*
X64773258Y-14173511D01*
X64714366Y-14393302D01*
X64714364Y-14393313D01*
X64694532Y-14619998D01*
X63305468Y-14619998D01*
X63285635Y-14393308D01*
X63226739Y-14173504D01*
X63130568Y-13967266D01*
X63000047Y-13780861D01*
X63000045Y-13780858D01*
X62839141Y-13619954D01*
X62652734Y-13489432D01*
X62652732Y-13489431D01*
X62446497Y-13393261D01*
X62446488Y-13393258D01*
X62226697Y-13334366D01*
X62226693Y-13334365D01*
X62226692Y-13334365D01*
X62226691Y-13334364D01*
X62226686Y-13334364D01*
X62000002Y-13314532D01*
X61999998Y-13314532D01*
X61773313Y-13334364D01*
X61773302Y-13334366D01*
X61553511Y-13393258D01*
X61553502Y-13393261D01*
X61347267Y-13489431D01*
X61347265Y-13489432D01*
X61160858Y-13619954D01*
X60999954Y-13780858D01*
X60869432Y-13967265D01*
X60869431Y-13967267D01*
X60773261Y-14173502D01*
X60773258Y-14173511D01*
X60714366Y-14393302D01*
X60714364Y-14393313D01*
X60694532Y-14619998D01*
X52305468Y-14619998D01*
X52285635Y-14393308D01*
X52226739Y-14173504D01*
X52130568Y-13967266D01*
X52000047Y-13780861D01*
X52000045Y-13780858D01*
X51839141Y-13619954D01*
X51652734Y-13489432D01*
X51652732Y-13489431D01*
X51446497Y-13393261D01*
X51446488Y-13393258D01*
X51226697Y-13334366D01*
X51226693Y-13334365D01*
X51226692Y-13334365D01*
X51226691Y-13334364D01*
X51226686Y-13334364D01*
X51000002Y-13314532D01*
X50999998Y-13314532D01*
X50773313Y-13334364D01*
X50773302Y-13334366D01*
X50553511Y-13393258D01*
X50553502Y-13393261D01*
X50347267Y-13489431D01*
X50347265Y-13489432D01*
X50160858Y-13619954D01*
X49999954Y-13780858D01*
X49869432Y-13967265D01*
X49869431Y-13967267D01*
X49773261Y-14173502D01*
X49773258Y-14173511D01*
X49714365Y-14393307D01*
X49708958Y-14455095D01*
X49683504Y-14520163D01*
X49673111Y-14531966D01*
X47012220Y-17192859D01*
X47012218Y-17192861D01*
X46942538Y-17262540D01*
X46872859Y-17332219D01*
X46763371Y-17496079D01*
X46763364Y-17496092D01*
X46687950Y-17678160D01*
X46687947Y-17678170D01*
X46656320Y-17837165D01*
X46625933Y-17896955D01*
X46461836Y-18075213D01*
X46325826Y-18283393D01*
X46225936Y-18511118D01*
X46164892Y-18752175D01*
X46164890Y-18752187D01*
X46144357Y-18999994D01*
X43655467Y-18999994D01*
X43649801Y-18935230D01*
X43635635Y-18773308D01*
X43590916Y-18606415D01*
X43576741Y-18553511D01*
X43576738Y-18553502D01*
X43556974Y-18511118D01*
X43480568Y-18347266D01*
X43372637Y-18193123D01*
X43350045Y-18160858D01*
X43189141Y-17999954D01*
X43002734Y-17869432D01*
X43002732Y-17869431D01*
X42796497Y-17773261D01*
X42796488Y-17773258D01*
X42576697Y-17714366D01*
X42576693Y-17714365D01*
X42576692Y-17714365D01*
X42576691Y-17714364D01*
X42576686Y-17714364D01*
X42350002Y-17694532D01*
X42349998Y-17694532D01*
X42123313Y-17714364D01*
X42123302Y-17714366D01*
X41903511Y-17773258D01*
X41903502Y-17773261D01*
X41697267Y-17869431D01*
X41697265Y-17869432D01*
X41510858Y-17999954D01*
X41349954Y-18160858D01*
X41219432Y-18347265D01*
X41219431Y-18347267D01*
X41123261Y-18553502D01*
X41123258Y-18553511D01*
X41064366Y-18773302D01*
X41064364Y-18773313D01*
X41044532Y-18999998D01*
X40605277Y-18999998D01*
X40605276Y-18999994D01*
X40601130Y-18952600D01*
X40586207Y-18782023D01*
X40529575Y-18570670D01*
X40437102Y-18372362D01*
X40437100Y-18372359D01*
X40437099Y-18372357D01*
X40311599Y-18193124D01*
X40242314Y-18123839D01*
X40156877Y-18038402D01*
X39977639Y-17912898D01*
X39977640Y-17912898D01*
X39977638Y-17912897D01*
X39878484Y-17866661D01*
X39779330Y-17820425D01*
X39779326Y-17820424D01*
X39779322Y-17820422D01*
X39567977Y-17763793D01*
X39350002Y-17744723D01*
X39349998Y-17744723D01*
X39204682Y-17757436D01*
X39132023Y-17763793D01*
X39132020Y-17763793D01*
X38920677Y-17820422D01*
X38920668Y-17820426D01*
X38722361Y-17912898D01*
X38722357Y-17912900D01*
X38543121Y-18038402D01*
X38388402Y-18193121D01*
X38262900Y-18372357D01*
X38262898Y-18372361D01*
X38170426Y-18570668D01*
X38170422Y-18570677D01*
X38113793Y-18782020D01*
X38113793Y-18782023D01*
X38098819Y-18953169D01*
X38080031Y-19001197D01*
X37869542Y-19001197D01*
X37870500Y-18998715D01*
X37853722Y-18966793D01*
X37851717Y-18952622D01*
X37835108Y-18752179D01*
X37789145Y-18570677D01*
X37774063Y-18511118D01*
X37674173Y-18283393D01*
X37538166Y-18075217D01*
X37468880Y-17999953D01*
X37369744Y-17892262D01*
X37173509Y-17739526D01*
X37173507Y-17739525D01*
X37173506Y-17739524D01*
X36954811Y-17621172D01*
X36954802Y-17621169D01*
X36719616Y-17540429D01*
X36474335Y-17499500D01*
X36225665Y-17499500D01*
X35980383Y-17540429D01*
X35745197Y-17621169D01*
X35745188Y-17621172D01*
X35526493Y-17739524D01*
X35330257Y-17892261D01*
X35161833Y-18075217D01*
X35025826Y-18283393D01*
X34925936Y-18511118D01*
X34864892Y-18752175D01*
X34864890Y-18752187D01*
X34844357Y-18999994D01*
X25155643Y-18999994D01*
X25135109Y-18752187D01*
X25135107Y-18752175D01*
X25074063Y-18511118D01*
X24974173Y-18283393D01*
X24941267Y-18233026D01*
X24921080Y-18166137D01*
X24940260Y-18098951D01*
X24957395Y-18077524D01*
X25842060Y-17192859D01*
X27088034Y-15946885D01*
X27149355Y-15913402D01*
X27164900Y-15911041D01*
X27226692Y-15905635D01*
X27446496Y-15846739D01*
X27652734Y-15750568D01*
X27839139Y-15620047D01*
X28000047Y-15459139D01*
X28130568Y-15272734D01*
X28226739Y-15066496D01*
X28285635Y-14846692D01*
X28305468Y-14620000D01*
X28305468Y-14619998D01*
X36694532Y-14619998D01*
X36694532Y-14620001D01*
X36714364Y-14846686D01*
X36714366Y-14846697D01*
X36773258Y-15066488D01*
X36773261Y-15066497D01*
X36869431Y-15272732D01*
X36869432Y-15272734D01*
X36999954Y-15459141D01*
X37160858Y-15620045D01*
X37160861Y-15620047D01*
X37347266Y-15750568D01*
X37553504Y-15846739D01*
X37773308Y-15905635D01*
X37935230Y-15919801D01*
X37999998Y-15925468D01*
X38000000Y-15925468D01*
X38000002Y-15925468D01*
X38056673Y-15920509D01*
X38226692Y-15905635D01*
X38446496Y-15846739D01*
X38652734Y-15750568D01*
X38839139Y-15620047D01*
X39000047Y-15459139D01*
X39130568Y-15272734D01*
X39226739Y-15066496D01*
X39285635Y-14846692D01*
X39305468Y-14620000D01*
X39305468Y-14619998D01*
X40694532Y-14619998D01*
X40694532Y-14620001D01*
X40714364Y-14846686D01*
X40714366Y-14846697D01*
X40773258Y-15066488D01*
X40773261Y-15066497D01*
X40869431Y-15272732D01*
X40869432Y-15272734D01*
X40999954Y-15459141D01*
X41160858Y-15620045D01*
X41160861Y-15620047D01*
X41347266Y-15750568D01*
X41553504Y-15846739D01*
X41773308Y-15905635D01*
X41935230Y-15919801D01*
X41999998Y-15925468D01*
X42000000Y-15925468D01*
X42000002Y-15925468D01*
X42056673Y-15920509D01*
X42226692Y-15905635D01*
X42446496Y-15846739D01*
X42652734Y-15750568D01*
X42839139Y-15620047D01*
X43000047Y-15459139D01*
X43130568Y-15272734D01*
X43226739Y-15066496D01*
X43285635Y-14846692D01*
X43305468Y-14620000D01*
X43285635Y-14393308D01*
X43226739Y-14173504D01*
X43145831Y-13999997D01*
X46744723Y-13999997D01*
X46744723Y-14000002D01*
X46763793Y-14217975D01*
X46763793Y-14217979D01*
X46820422Y-14429322D01*
X46820424Y-14429326D01*
X46820425Y-14429330D01*
X46853404Y-14500053D01*
X46912897Y-14627638D01*
X46912898Y-14627639D01*
X47038402Y-14806877D01*
X47193123Y-14961598D01*
X47372361Y-15087102D01*
X47570670Y-15179575D01*
X47782023Y-15236207D01*
X47964926Y-15252208D01*
X47999998Y-15255277D01*
X48000000Y-15255277D01*
X48000002Y-15255277D01*
X48028254Y-15252805D01*
X48217977Y-15236207D01*
X48429330Y-15179575D01*
X48627639Y-15087102D01*
X48806877Y-14961598D01*
X48961598Y-14806877D01*
X49087102Y-14627639D01*
X49179575Y-14429330D01*
X49236207Y-14217977D01*
X49255277Y-14000000D01*
X49236207Y-13782023D01*
X49179575Y-13570670D01*
X49087102Y-13372362D01*
X49087100Y-13372359D01*
X49087099Y-13372357D01*
X48961599Y-13193124D01*
X48961596Y-13193121D01*
X48806877Y-13038402D01*
X48627639Y-12912898D01*
X48627640Y-12912898D01*
X48627638Y-12912897D01*
X48528484Y-12866661D01*
X48429330Y-12820425D01*
X48429326Y-12820424D01*
X48429322Y-12820422D01*
X48217977Y-12763793D01*
X48000002Y-12744723D01*
X47999998Y-12744723D01*
X47854682Y-12757436D01*
X47782023Y-12763793D01*
X47782020Y-12763793D01*
X47570677Y-12820422D01*
X47570668Y-12820426D01*
X47372361Y-12912898D01*
X47372357Y-12912900D01*
X47193121Y-13038402D01*
X47038402Y-13193121D01*
X46912900Y-13372357D01*
X46912898Y-13372361D01*
X46820426Y-13570668D01*
X46820422Y-13570677D01*
X46763793Y-13782020D01*
X46763793Y-13782024D01*
X46744723Y-13999997D01*
X43145831Y-13999997D01*
X43130568Y-13967266D01*
X43000047Y-13780861D01*
X43000045Y-13780858D01*
X42839141Y-13619954D01*
X42652734Y-13489432D01*
X42652732Y-13489431D01*
X42446497Y-13393261D01*
X42446488Y-13393258D01*
X42226697Y-13334366D01*
X42226693Y-13334365D01*
X42226692Y-13334365D01*
X42226691Y-13334364D01*
X42226686Y-13334364D01*
X42000002Y-13314532D01*
X41999998Y-13314532D01*
X41773313Y-13334364D01*
X41773302Y-13334366D01*
X41553511Y-13393258D01*
X41553502Y-13393261D01*
X41347267Y-13489431D01*
X41347265Y-13489432D01*
X41160858Y-13619954D01*
X40999954Y-13780858D01*
X40869432Y-13967265D01*
X40869431Y-13967267D01*
X40773261Y-14173502D01*
X40773258Y-14173511D01*
X40714366Y-14393302D01*
X40714364Y-14393313D01*
X40694532Y-14619998D01*
X39305468Y-14619998D01*
X39285635Y-14393308D01*
X39226739Y-14173504D01*
X39130568Y-13967266D01*
X39000047Y-13780861D01*
X39000045Y-13780858D01*
X38839141Y-13619954D01*
X38652734Y-13489432D01*
X38652732Y-13489431D01*
X38446497Y-13393261D01*
X38446488Y-13393258D01*
X38226697Y-13334366D01*
X38226693Y-13334365D01*
X38226692Y-13334365D01*
X38226691Y-13334364D01*
X38226686Y-13334364D01*
X38000002Y-13314532D01*
X37999998Y-13314532D01*
X37773313Y-13334364D01*
X37773302Y-13334366D01*
X37553511Y-13393258D01*
X37553502Y-13393261D01*
X37347267Y-13489431D01*
X37347265Y-13489432D01*
X37160858Y-13619954D01*
X36999954Y-13780858D01*
X36869432Y-13967265D01*
X36869431Y-13967267D01*
X36773261Y-14173502D01*
X36773258Y-14173511D01*
X36714366Y-14393302D01*
X36714364Y-14393313D01*
X36694532Y-14619998D01*
X28305468Y-14619998D01*
X28285635Y-14393308D01*
X28226739Y-14173504D01*
X28130568Y-13967266D01*
X28000047Y-13780861D01*
X28000045Y-13780858D01*
X27839141Y-13619954D01*
X27652734Y-13489432D01*
X27652732Y-13489431D01*
X27446497Y-13393261D01*
X27446488Y-13393258D01*
X27226697Y-13334366D01*
X27226693Y-13334365D01*
X27226692Y-13334365D01*
X27226691Y-13334364D01*
X27226686Y-13334364D01*
X27000002Y-13314532D01*
X26999998Y-13314532D01*
X26773313Y-13334364D01*
X26773302Y-13334366D01*
X26553511Y-13393258D01*
X26553502Y-13393261D01*
X26347267Y-13489431D01*
X26347265Y-13489432D01*
X26160858Y-13619954D01*
X25999954Y-13780858D01*
X25869432Y-13967265D01*
X25869431Y-13967267D01*
X25773261Y-14173502D01*
X25773258Y-14173511D01*
X25714365Y-14393307D01*
X25708958Y-14455095D01*
X25683504Y-14520163D01*
X25673111Y-14531966D01*
X23012220Y-17192859D01*
X23012218Y-17192861D01*
X22942538Y-17262540D01*
X22872859Y-17332219D01*
X22763371Y-17496079D01*
X22763364Y-17496092D01*
X22687950Y-17678160D01*
X22687947Y-17678170D01*
X22656320Y-17837165D01*
X22625933Y-17896955D01*
X22461836Y-18075213D01*
X22325826Y-18283393D01*
X22225936Y-18511118D01*
X22164892Y-18752175D01*
X22164890Y-18752187D01*
X22144357Y-18999994D01*
X21655467Y-18999994D01*
X21649801Y-18935230D01*
X21635635Y-18773308D01*
X21590916Y-18606415D01*
X21576741Y-18553511D01*
X21576738Y-18553502D01*
X21556974Y-18511118D01*
X21480568Y-18347266D01*
X21372637Y-18193123D01*
X21350045Y-18160858D01*
X21189141Y-17999954D01*
X21002734Y-17869432D01*
X21002732Y-17869431D01*
X20796497Y-17773261D01*
X20796488Y-17773258D01*
X20576697Y-17714366D01*
X20576693Y-17714365D01*
X20576692Y-17714365D01*
X20576691Y-17714364D01*
X20576686Y-17714364D01*
X20350002Y-17694532D01*
X20349998Y-17694532D01*
X20123313Y-17714364D01*
X20123302Y-17714366D01*
X19903511Y-17773258D01*
X19903502Y-17773261D01*
X19697267Y-17869431D01*
X19697265Y-17869432D01*
X19510858Y-17999954D01*
X19349954Y-18160858D01*
X19219432Y-18347265D01*
X19219431Y-18347267D01*
X19123261Y-18553502D01*
X19123258Y-18553511D01*
X19064366Y-18773302D01*
X19064364Y-18773313D01*
X19044532Y-18999998D01*
X18605277Y-18999998D01*
X18605276Y-18999994D01*
X18601130Y-18952600D01*
X18586207Y-18782023D01*
X18529575Y-18570670D01*
X18437102Y-18372362D01*
X18437100Y-18372359D01*
X18437099Y-18372357D01*
X18311599Y-18193124D01*
X18242314Y-18123839D01*
X18156877Y-18038402D01*
X17977639Y-17912898D01*
X17977640Y-17912898D01*
X17977638Y-17912897D01*
X17878484Y-17866661D01*
X17779330Y-17820425D01*
X17779326Y-17820424D01*
X17779322Y-17820422D01*
X17567977Y-17763793D01*
X17350002Y-17744723D01*
X17349998Y-17744723D01*
X17204682Y-17757436D01*
X17132023Y-17763793D01*
X17132020Y-17763793D01*
X16920677Y-17820422D01*
X16920668Y-17820426D01*
X16722361Y-17912898D01*
X16722357Y-17912900D01*
X16543121Y-18038402D01*
X16388402Y-18193121D01*
X16262900Y-18372357D01*
X16262898Y-18372361D01*
X16170426Y-18570668D01*
X16170422Y-18570677D01*
X16113793Y-18782020D01*
X16113793Y-18782023D01*
X16098819Y-18953169D01*
X16080031Y-19001197D01*
X15869542Y-19001197D01*
X15870500Y-18998715D01*
X15853722Y-18966793D01*
X15851717Y-18952622D01*
X15835108Y-18752179D01*
X15789145Y-18570677D01*
X15774063Y-18511118D01*
X15674173Y-18283393D01*
X15538166Y-18075217D01*
X15468880Y-17999953D01*
X15369744Y-17892262D01*
X15173509Y-17739526D01*
X15173507Y-17739525D01*
X15173506Y-17739524D01*
X14954811Y-17621172D01*
X14954802Y-17621169D01*
X14719616Y-17540429D01*
X14474335Y-17499500D01*
X14225665Y-17499500D01*
X13980383Y-17540429D01*
X13745197Y-17621169D01*
X13745188Y-17621172D01*
X13526493Y-17739524D01*
X13330257Y-17892261D01*
X13161833Y-18075217D01*
X13025826Y-18283393D01*
X12925936Y-18511118D01*
X12864892Y-18752175D01*
X12864890Y-18752187D01*
X12844357Y-18999994D01*
X3155643Y-18999994D01*
X3135109Y-18752187D01*
X3135107Y-18752175D01*
X3074063Y-18511118D01*
X2974173Y-18283393D01*
X2941267Y-18233026D01*
X2921080Y-18166137D01*
X2940260Y-18098951D01*
X2957395Y-18077524D01*
X3842060Y-17192859D01*
X5088034Y-15946885D01*
X5149355Y-15913402D01*
X5164900Y-15911041D01*
X5226692Y-15905635D01*
X5446496Y-15846739D01*
X5652734Y-15750568D01*
X5839139Y-15620047D01*
X6000047Y-15459139D01*
X6130568Y-15272734D01*
X6226739Y-15066496D01*
X6285635Y-14846692D01*
X6305468Y-14620000D01*
X6305468Y-14619998D01*
X14694532Y-14619998D01*
X14694532Y-14620001D01*
X14714364Y-14846686D01*
X14714366Y-14846697D01*
X14773258Y-15066488D01*
X14773261Y-15066497D01*
X14869431Y-15272732D01*
X14869432Y-15272734D01*
X14999954Y-15459141D01*
X15160858Y-15620045D01*
X15160861Y-15620047D01*
X15347266Y-15750568D01*
X15553504Y-15846739D01*
X15773308Y-15905635D01*
X15935230Y-15919801D01*
X15999998Y-15925468D01*
X16000000Y-15925468D01*
X16000002Y-15925468D01*
X16056673Y-15920509D01*
X16226692Y-15905635D01*
X16446496Y-15846739D01*
X16652734Y-15750568D01*
X16839139Y-15620047D01*
X17000047Y-15459139D01*
X17130568Y-15272734D01*
X17226739Y-15066496D01*
X17285635Y-14846692D01*
X17305468Y-14620000D01*
X17305468Y-14619998D01*
X18694532Y-14619998D01*
X18694532Y-14620001D01*
X18714364Y-14846686D01*
X18714366Y-14846697D01*
X18773258Y-15066488D01*
X18773261Y-15066497D01*
X18869431Y-15272732D01*
X18869432Y-15272734D01*
X18999954Y-15459141D01*
X19160858Y-15620045D01*
X19160861Y-15620047D01*
X19347266Y-15750568D01*
X19553504Y-15846739D01*
X19773308Y-15905635D01*
X19935230Y-15919801D01*
X19999998Y-15925468D01*
X20000000Y-15925468D01*
X20000002Y-15925468D01*
X20056673Y-15920509D01*
X20226692Y-15905635D01*
X20446496Y-15846739D01*
X20652734Y-15750568D01*
X20839139Y-15620047D01*
X21000047Y-15459139D01*
X21130568Y-15272734D01*
X21226739Y-15066496D01*
X21285635Y-14846692D01*
X21305468Y-14620000D01*
X21285635Y-14393308D01*
X21226739Y-14173504D01*
X21145831Y-13999997D01*
X22744723Y-13999997D01*
X22744723Y-14000002D01*
X22763793Y-14217975D01*
X22763793Y-14217979D01*
X22820422Y-14429322D01*
X22820424Y-14429326D01*
X22820425Y-14429330D01*
X22853404Y-14500053D01*
X22912897Y-14627638D01*
X22912898Y-14627639D01*
X23038402Y-14806877D01*
X23193123Y-14961598D01*
X23372361Y-15087102D01*
X23570670Y-15179575D01*
X23782023Y-15236207D01*
X23964926Y-15252208D01*
X23999998Y-15255277D01*
X24000000Y-15255277D01*
X24000002Y-15255277D01*
X24028254Y-15252805D01*
X24217977Y-15236207D01*
X24429330Y-15179575D01*
X24627639Y-15087102D01*
X24806877Y-14961598D01*
X24961598Y-14806877D01*
X25087102Y-14627639D01*
X25179575Y-14429330D01*
X25236207Y-14217977D01*
X25255277Y-14000000D01*
X25236207Y-13782023D01*
X25179575Y-13570670D01*
X25087102Y-13372362D01*
X25087100Y-13372359D01*
X25087099Y-13372357D01*
X24961599Y-13193124D01*
X24961596Y-13193121D01*
X24806877Y-13038402D01*
X24627639Y-12912898D01*
X24627640Y-12912898D01*
X24627638Y-12912897D01*
X24528484Y-12866661D01*
X24429330Y-12820425D01*
X24429326Y-12820424D01*
X24429322Y-12820422D01*
X24217977Y-12763793D01*
X24000002Y-12744723D01*
X23999998Y-12744723D01*
X23854682Y-12757436D01*
X23782023Y-12763793D01*
X23782020Y-12763793D01*
X23570677Y-12820422D01*
X23570668Y-12820426D01*
X23372361Y-12912898D01*
X23372357Y-12912900D01*
X23193121Y-13038402D01*
X23038402Y-13193121D01*
X22912900Y-13372357D01*
X22912898Y-13372361D01*
X22820426Y-13570668D01*
X22820422Y-13570677D01*
X22763793Y-13782020D01*
X22763793Y-13782024D01*
X22744723Y-13999997D01*
X21145831Y-13999997D01*
X21130568Y-13967266D01*
X21000047Y-13780861D01*
X21000045Y-13780858D01*
X20839141Y-13619954D01*
X20652734Y-13489432D01*
X20652732Y-13489431D01*
X20446497Y-13393261D01*
X20446488Y-13393258D01*
X20226697Y-13334366D01*
X20226693Y-13334365D01*
X20226692Y-13334365D01*
X20226691Y-13334364D01*
X20226686Y-13334364D01*
X20000002Y-13314532D01*
X19999998Y-13314532D01*
X19773313Y-13334364D01*
X19773302Y-13334366D01*
X19553511Y-13393258D01*
X19553502Y-13393261D01*
X19347267Y-13489431D01*
X19347265Y-13489432D01*
X19160858Y-13619954D01*
X18999954Y-13780858D01*
X18869432Y-13967265D01*
X18869431Y-13967267D01*
X18773261Y-14173502D01*
X18773258Y-14173511D01*
X18714366Y-14393302D01*
X18714364Y-14393313D01*
X18694532Y-14619998D01*
X17305468Y-14619998D01*
X17285635Y-14393308D01*
X17226739Y-14173504D01*
X17130568Y-13967266D01*
X17000047Y-13780861D01*
X17000045Y-13780858D01*
X16839141Y-13619954D01*
X16652734Y-13489432D01*
X16652732Y-13489431D01*
X16446497Y-13393261D01*
X16446488Y-13393258D01*
X16226697Y-13334366D01*
X16226693Y-13334365D01*
X16226692Y-13334365D01*
X16226691Y-13334364D01*
X16226686Y-13334364D01*
X16000002Y-13314532D01*
X15999998Y-13314532D01*
X15773313Y-13334364D01*
X15773302Y-13334366D01*
X15553511Y-13393258D01*
X15553502Y-13393261D01*
X15347267Y-13489431D01*
X15347265Y-13489432D01*
X15160858Y-13619954D01*
X14999954Y-13780858D01*
X14869432Y-13967265D01*
X14869431Y-13967267D01*
X14773261Y-14173502D01*
X14773258Y-14173511D01*
X14714366Y-14393302D01*
X14714364Y-14393313D01*
X14694532Y-14619998D01*
X6305468Y-14619998D01*
X6285635Y-14393308D01*
X6226739Y-14173504D01*
X6130568Y-13967266D01*
X6000047Y-13780861D01*
X6000045Y-13780858D01*
X5839141Y-13619954D01*
X5652734Y-13489432D01*
X5652732Y-13489431D01*
X5446497Y-13393261D01*
X5446488Y-13393258D01*
X5226697Y-13334366D01*
X5226693Y-13334365D01*
X5226692Y-13334365D01*
X5226691Y-13334364D01*
X5226686Y-13334364D01*
X5000002Y-13314532D01*
X4999998Y-13314532D01*
X4773313Y-13334364D01*
X4773302Y-13334366D01*
X4553511Y-13393258D01*
X4553502Y-13393261D01*
X4347267Y-13489431D01*
X4347265Y-13489432D01*
X4160858Y-13619954D01*
X3999954Y-13780858D01*
X3869432Y-13967265D01*
X3869431Y-13967267D01*
X3773261Y-14173502D01*
X3773258Y-14173511D01*
X3714365Y-14393307D01*
X3708958Y-14455095D01*
X3683504Y-14520163D01*
X3673111Y-14531966D01*
X1012220Y-17192859D01*
X1012218Y-17192861D01*
X942538Y-17262540D01*
X872859Y-17332219D01*
X763371Y-17496079D01*
X763364Y-17496092D01*
X687950Y-17678160D01*
X687947Y-17678170D01*
X656320Y-17837165D01*
X625939Y-17896949D01*
X615736Y-17908034D01*
X555851Y-17944029D01*
X486013Y-17941934D01*
X428394Y-17902414D01*
X401288Y-17838017D01*
X400500Y-17824058D01*
X400500Y-13999997D01*
X744723Y-13999997D01*
X744723Y-14000002D01*
X763793Y-14217975D01*
X763793Y-14217979D01*
X820422Y-14429322D01*
X820424Y-14429326D01*
X820425Y-14429330D01*
X853404Y-14500053D01*
X912897Y-14627638D01*
X912898Y-14627639D01*
X1038402Y-14806877D01*
X1193123Y-14961598D01*
X1372361Y-15087102D01*
X1570670Y-15179575D01*
X1782023Y-15236207D01*
X1964926Y-15252208D01*
X1999998Y-15255277D01*
X2000000Y-15255277D01*
X2000002Y-15255277D01*
X2028254Y-15252805D01*
X2217977Y-15236207D01*
X2429330Y-15179575D01*
X2627639Y-15087102D01*
X2806877Y-14961598D01*
X2961598Y-14806877D01*
X3087102Y-14627639D01*
X3179575Y-14429330D01*
X3236207Y-14217977D01*
X3255277Y-14000000D01*
X3236207Y-13782023D01*
X3179575Y-13570670D01*
X3087102Y-13372362D01*
X3087100Y-13372359D01*
X3087099Y-13372357D01*
X2961599Y-13193124D01*
X2961596Y-13193121D01*
X2806877Y-13038402D01*
X2627639Y-12912898D01*
X2627640Y-12912898D01*
X2627638Y-12912897D01*
X2528484Y-12866661D01*
X2429330Y-12820425D01*
X2429326Y-12820424D01*
X2429322Y-12820422D01*
X2217977Y-12763793D01*
X2000002Y-12744723D01*
X1999998Y-12744723D01*
X1854682Y-12757436D01*
X1782023Y-12763793D01*
X1782020Y-12763793D01*
X1570677Y-12820422D01*
X1570668Y-12820426D01*
X1372361Y-12912898D01*
X1372357Y-12912900D01*
X1193121Y-13038402D01*
X1038402Y-13193121D01*
X912900Y-13372357D01*
X912898Y-13372361D01*
X820426Y-13570668D01*
X820422Y-13570677D01*
X763793Y-13782020D01*
X763793Y-13782024D01*
X744723Y-13999997D01*
X400500Y-13999997D01*
X400500Y-10193730D01*
X44695899Y-10193730D01*
X44695899Y-10414173D01*
X44730384Y-10631904D01*
X44798502Y-10841555D01*
X44798503Y-10841558D01*
X44898586Y-11037977D01*
X45028151Y-11216310D01*
X45028155Y-11216315D01*
X45184035Y-11372195D01*
X45184040Y-11372199D01*
X45339591Y-11485212D01*
X45362377Y-11501767D01*
X45490774Y-11567189D01*
X45558792Y-11601847D01*
X45558795Y-11601848D01*
X45663620Y-11635907D01*
X45768448Y-11669967D01*
X45986177Y-11704452D01*
X45986178Y-11704452D01*
X46206620Y-11704452D01*
X46206621Y-11704452D01*
X46424350Y-11669967D01*
X46634005Y-11601847D01*
X46830421Y-11501767D01*
X47008764Y-11372194D01*
X47164641Y-11216317D01*
X47294214Y-11037974D01*
X47394294Y-10841558D01*
X47462414Y-10631903D01*
X47496899Y-10414174D01*
X47496899Y-10193730D01*
X47462414Y-9976001D01*
X47394294Y-9766346D01*
X47394294Y-9766345D01*
X47359636Y-9698327D01*
X47294214Y-9569930D01*
X47277659Y-9547144D01*
X47164646Y-9391593D01*
X47164642Y-9391588D01*
X47008762Y-9235708D01*
X47008757Y-9235704D01*
X46830424Y-9106139D01*
X46830423Y-9106138D01*
X46830421Y-9106137D01*
X46767495Y-9074074D01*
X46634005Y-9006056D01*
X46634002Y-9006055D01*
X46424351Y-8937937D01*
X46315485Y-8920694D01*
X46206621Y-8903452D01*
X45986177Y-8903452D01*
X45913600Y-8914947D01*
X45768446Y-8937937D01*
X45558795Y-9006055D01*
X45558792Y-9006056D01*
X45362373Y-9106139D01*
X45184040Y-9235704D01*
X45184035Y-9235708D01*
X45028155Y-9391588D01*
X45028151Y-9391593D01*
X44898586Y-9569926D01*
X44798503Y-9766345D01*
X44798502Y-9766348D01*
X44730384Y-9975999D01*
X44695899Y-10193730D01*
X400500Y-10193730D01*
X400500Y-8043124D01*
X1310427Y-8043124D01*
X1372612Y-8086666D01*
X1570840Y-8179101D01*
X1570849Y-8179105D01*
X1782105Y-8235710D01*
X1782115Y-8235712D01*
X1999999Y-8254775D01*
X2000001Y-8254775D01*
X2217884Y-8235712D01*
X2217894Y-8235710D01*
X2429150Y-8179105D01*
X2429164Y-8179100D01*
X2627383Y-8086669D01*
X2627385Y-8086668D01*
X2689571Y-8043124D01*
X2000001Y-7353553D01*
X2000000Y-7353553D01*
X1310427Y-8043124D01*
X400500Y-8043124D01*
X400500Y-6999999D01*
X745225Y-6999999D01*
X745225Y-7000000D01*
X764287Y-7217884D01*
X764289Y-7217894D01*
X820894Y-7429150D01*
X820898Y-7429159D01*
X913333Y-7627387D01*
X956874Y-7689571D01*
X1646446Y-7000000D01*
X1600368Y-6953922D01*
X1650000Y-6953922D01*
X1650000Y-7046078D01*
X1673852Y-7135095D01*
X1719930Y-7214905D01*
X1785095Y-7280070D01*
X1864905Y-7326148D01*
X1953922Y-7350000D01*
X2046078Y-7350000D01*
X2135095Y-7326148D01*
X2214905Y-7280070D01*
X2280070Y-7214905D01*
X2326148Y-7135095D01*
X2350000Y-7046078D01*
X2350000Y-6999999D01*
X2353553Y-6999999D01*
X2353553Y-7000000D01*
X3043124Y-7689570D01*
X3086668Y-7627385D01*
X3086669Y-7627383D01*
X3179100Y-7429164D01*
X3179105Y-7429150D01*
X3235710Y-7217894D01*
X3235712Y-7217884D01*
X3254775Y-7000000D01*
X3254775Y-6999999D01*
X3235712Y-6782115D01*
X3235710Y-6782105D01*
X3179105Y-6570849D01*
X3179101Y-6570840D01*
X3086667Y-6372614D01*
X3086666Y-6372612D01*
X3043124Y-6310428D01*
X3043124Y-6310427D01*
X2353553Y-6999999D01*
X2350000Y-6999999D01*
X2350000Y-6953922D01*
X2326148Y-6864905D01*
X2280070Y-6785095D01*
X2214905Y-6719930D01*
X2135095Y-6673852D01*
X2046078Y-6650000D01*
X1953922Y-6650000D01*
X1864905Y-6673852D01*
X1785095Y-6719930D01*
X1719930Y-6785095D01*
X1673852Y-6864905D01*
X1650000Y-6953922D01*
X1600368Y-6953922D01*
X956874Y-6310428D01*
X913333Y-6372613D01*
X820898Y-6570840D01*
X820894Y-6570849D01*
X764289Y-6782105D01*
X764287Y-6782115D01*
X745225Y-6999999D01*
X400500Y-6999999D01*
X400500Y-5956874D01*
X1310428Y-5956874D01*
X2000000Y-6646446D01*
X2000001Y-6646446D01*
X2494311Y-6152135D01*
X3699500Y-6152135D01*
X3699500Y-7847870D01*
X3699501Y-7847876D01*
X3705908Y-7907483D01*
X3756202Y-8042328D01*
X3756206Y-8042335D01*
X3842452Y-8157544D01*
X3842455Y-8157547D01*
X3957664Y-8243793D01*
X3957671Y-8243797D01*
X3987105Y-8254775D01*
X4092517Y-8294091D01*
X4152127Y-8300500D01*
X4835388Y-8300499D01*
X4902427Y-8320183D01*
X4909373Y-8325238D01*
X4912217Y-8327138D01*
X4912218Y-8327139D01*
X5076086Y-8436632D01*
X5182745Y-8480811D01*
X5258164Y-8512051D01*
X5451454Y-8550499D01*
X5451457Y-8550500D01*
X5451459Y-8550500D01*
X10048542Y-8550500D01*
X10067870Y-8546655D01*
X10145188Y-8531275D01*
X10241836Y-8512051D01*
X10295165Y-8489961D01*
X10423914Y-8436632D01*
X10587782Y-8327139D01*
X10727139Y-8187782D01*
X10727140Y-8187779D01*
X10734206Y-8180714D01*
X10734209Y-8180710D01*
X11578101Y-7336818D01*
X11639424Y-7303333D01*
X11665782Y-7300499D01*
X12347871Y-7300499D01*
X12347872Y-7300499D01*
X12407483Y-7294091D01*
X12542331Y-7243796D01*
X12657546Y-7157546D01*
X12743796Y-7042331D01*
X12759585Y-6999998D01*
X14694532Y-6999998D01*
X14694532Y-7000001D01*
X14714364Y-7226686D01*
X14714366Y-7226697D01*
X14773258Y-7446488D01*
X14773261Y-7446497D01*
X14869431Y-7652732D01*
X14869432Y-7652734D01*
X14999954Y-7839141D01*
X15160858Y-8000045D01*
X15160861Y-8000047D01*
X15347266Y-8130568D01*
X15553504Y-8226739D01*
X15773308Y-8285635D01*
X15935230Y-8299801D01*
X15999998Y-8305468D01*
X16000000Y-8305468D01*
X16000002Y-8305468D01*
X16056796Y-8300499D01*
X16226692Y-8285635D01*
X16446496Y-8226739D01*
X16652734Y-8130568D01*
X16839139Y-8000047D01*
X17000047Y-7839139D01*
X17130568Y-7652734D01*
X17226739Y-7446496D01*
X17285635Y-7226692D01*
X17305468Y-7000000D01*
X17305468Y-6999998D01*
X18694532Y-6999998D01*
X18694532Y-7000001D01*
X18714364Y-7226686D01*
X18714366Y-7226697D01*
X18773258Y-7446488D01*
X18773261Y-7446497D01*
X18869431Y-7652732D01*
X18869432Y-7652734D01*
X18999954Y-7839141D01*
X19160858Y-8000045D01*
X19160861Y-8000047D01*
X19347266Y-8130568D01*
X19553504Y-8226739D01*
X19773308Y-8285635D01*
X19935230Y-8299801D01*
X19999998Y-8305468D01*
X20000000Y-8305468D01*
X20000002Y-8305468D01*
X20056796Y-8300499D01*
X20226692Y-8285635D01*
X20446496Y-8226739D01*
X20652734Y-8130568D01*
X20777618Y-8043124D01*
X23310427Y-8043124D01*
X23372612Y-8086666D01*
X23570840Y-8179101D01*
X23570849Y-8179105D01*
X23782105Y-8235710D01*
X23782115Y-8235712D01*
X23999999Y-8254775D01*
X24000001Y-8254775D01*
X24217884Y-8235712D01*
X24217894Y-8235710D01*
X24429150Y-8179105D01*
X24429164Y-8179100D01*
X24627383Y-8086669D01*
X24627385Y-8086668D01*
X24689570Y-8043124D01*
X24000001Y-7353553D01*
X24000000Y-7353553D01*
X23310427Y-8043124D01*
X20777618Y-8043124D01*
X20839139Y-8000047D01*
X21000047Y-7839139D01*
X21130568Y-7652734D01*
X21226739Y-7446496D01*
X21285635Y-7226692D01*
X21305468Y-7000000D01*
X21305468Y-6999999D01*
X22745225Y-6999999D01*
X22745225Y-7000000D01*
X22764287Y-7217884D01*
X22764289Y-7217894D01*
X22820894Y-7429150D01*
X22820898Y-7429159D01*
X22913333Y-7627387D01*
X22956874Y-7689571D01*
X23646446Y-7000000D01*
X23600368Y-6953922D01*
X23650000Y-6953922D01*
X23650000Y-7046078D01*
X23673852Y-7135095D01*
X23719930Y-7214905D01*
X23785095Y-7280070D01*
X23864905Y-7326148D01*
X23953922Y-7350000D01*
X24046078Y-7350000D01*
X24135095Y-7326148D01*
X24214905Y-7280070D01*
X24280070Y-7214905D01*
X24326148Y-7135095D01*
X24350000Y-7046078D01*
X24350000Y-6999999D01*
X24353553Y-6999999D01*
X24353553Y-7000000D01*
X25043124Y-7689570D01*
X25086668Y-7627385D01*
X25086669Y-7627383D01*
X25179100Y-7429164D01*
X25179105Y-7429150D01*
X25235710Y-7217894D01*
X25235712Y-7217884D01*
X25254775Y-7000000D01*
X25254775Y-6999999D01*
X25235712Y-6782115D01*
X25235710Y-6782105D01*
X25179105Y-6570849D01*
X25179101Y-6570840D01*
X25086667Y-6372614D01*
X25086666Y-6372612D01*
X25043124Y-6310428D01*
X25043124Y-6310427D01*
X24353553Y-6999999D01*
X24350000Y-6999999D01*
X24350000Y-6953922D01*
X24326148Y-6864905D01*
X24280070Y-6785095D01*
X24214905Y-6719930D01*
X24135095Y-6673852D01*
X24046078Y-6650000D01*
X23953922Y-6650000D01*
X23864905Y-6673852D01*
X23785095Y-6719930D01*
X23719930Y-6785095D01*
X23673852Y-6864905D01*
X23650000Y-6953922D01*
X23600368Y-6953922D01*
X22956874Y-6310428D01*
X22913333Y-6372613D01*
X22820898Y-6570840D01*
X22820894Y-6570849D01*
X22764289Y-6782105D01*
X22764287Y-6782115D01*
X22745225Y-6999999D01*
X21305468Y-6999999D01*
X21285635Y-6773308D01*
X21226739Y-6553504D01*
X21130568Y-6347266D01*
X21000047Y-6160861D01*
X21000045Y-6160858D01*
X20839141Y-5999954D01*
X20777616Y-5956874D01*
X23310428Y-5956874D01*
X24000000Y-6646446D01*
X24000001Y-6646446D01*
X24494311Y-6152135D01*
X25699500Y-6152135D01*
X25699500Y-7847870D01*
X25699501Y-7847876D01*
X25705908Y-7907483D01*
X25756202Y-8042328D01*
X25756206Y-8042335D01*
X25842452Y-8157544D01*
X25842455Y-8157547D01*
X25957664Y-8243793D01*
X25957671Y-8243797D01*
X25987105Y-8254775D01*
X26092517Y-8294091D01*
X26152127Y-8300500D01*
X26835388Y-8300499D01*
X26902427Y-8320183D01*
X26909373Y-8325238D01*
X26912217Y-8327138D01*
X26912218Y-8327139D01*
X27076086Y-8436632D01*
X27182745Y-8480811D01*
X27258164Y-8512051D01*
X27451454Y-8550499D01*
X27451457Y-8550500D01*
X27451459Y-8550500D01*
X32048542Y-8550500D01*
X32067870Y-8546655D01*
X32145188Y-8531275D01*
X32241836Y-8512051D01*
X32295165Y-8489961D01*
X32423914Y-8436632D01*
X32587782Y-8327139D01*
X32727139Y-8187782D01*
X32727140Y-8187779D01*
X32734206Y-8180714D01*
X32734209Y-8180710D01*
X33578101Y-7336818D01*
X33639424Y-7303333D01*
X33665782Y-7300499D01*
X34347871Y-7300499D01*
X34347872Y-7300499D01*
X34407483Y-7294091D01*
X34542331Y-7243796D01*
X34657546Y-7157546D01*
X34743796Y-7042331D01*
X34759585Y-6999998D01*
X36694532Y-6999998D01*
X36694532Y-7000001D01*
X36714364Y-7226686D01*
X36714366Y-7226697D01*
X36773258Y-7446488D01*
X36773261Y-7446497D01*
X36869431Y-7652732D01*
X36869432Y-7652734D01*
X36999954Y-7839141D01*
X37160858Y-8000045D01*
X37160861Y-8000047D01*
X37347266Y-8130568D01*
X37553504Y-8226739D01*
X37773308Y-8285635D01*
X37935230Y-8299801D01*
X37999998Y-8305468D01*
X38000000Y-8305468D01*
X38000002Y-8305468D01*
X38056796Y-8300499D01*
X38226692Y-8285635D01*
X38446496Y-8226739D01*
X38652734Y-8130568D01*
X38839139Y-8000047D01*
X39000047Y-7839139D01*
X39130568Y-7652734D01*
X39226739Y-7446496D01*
X39285635Y-7226692D01*
X39305468Y-7000000D01*
X39305468Y-6999998D01*
X40694532Y-6999998D01*
X40694532Y-7000001D01*
X40714364Y-7226686D01*
X40714366Y-7226697D01*
X40773258Y-7446488D01*
X40773261Y-7446497D01*
X40869431Y-7652732D01*
X40869432Y-7652734D01*
X40999954Y-7839141D01*
X41160858Y-8000045D01*
X41160861Y-8000047D01*
X41347266Y-8130568D01*
X41553504Y-8226739D01*
X41773308Y-8285635D01*
X41935230Y-8299801D01*
X41999998Y-8305468D01*
X42000000Y-8305468D01*
X42000002Y-8305468D01*
X42056796Y-8300499D01*
X42226692Y-8285635D01*
X42446496Y-8226739D01*
X42652734Y-8130568D01*
X42777618Y-8043124D01*
X47310427Y-8043124D01*
X47372612Y-8086666D01*
X47570840Y-8179101D01*
X47570849Y-8179105D01*
X47782105Y-8235710D01*
X47782115Y-8235712D01*
X47999999Y-8254775D01*
X48000001Y-8254775D01*
X48217884Y-8235712D01*
X48217894Y-8235710D01*
X48429150Y-8179105D01*
X48429164Y-8179100D01*
X48627383Y-8086669D01*
X48627385Y-8086668D01*
X48689570Y-8043124D01*
X48000001Y-7353553D01*
X48000000Y-7353553D01*
X47310427Y-8043124D01*
X42777618Y-8043124D01*
X42839139Y-8000047D01*
X43000047Y-7839139D01*
X43130568Y-7652734D01*
X43226739Y-7446496D01*
X43285635Y-7226692D01*
X43305468Y-7000000D01*
X43305468Y-6999999D01*
X46745225Y-6999999D01*
X46745225Y-7000000D01*
X46764287Y-7217884D01*
X46764289Y-7217894D01*
X46820894Y-7429150D01*
X46820898Y-7429159D01*
X46913333Y-7627387D01*
X46956874Y-7689571D01*
X47646446Y-7000000D01*
X47600368Y-6953922D01*
X47650000Y-6953922D01*
X47650000Y-7046078D01*
X47673852Y-7135095D01*
X47719930Y-7214905D01*
X47785095Y-7280070D01*
X47864905Y-7326148D01*
X47953922Y-7350000D01*
X48046078Y-7350000D01*
X48135095Y-7326148D01*
X48214905Y-7280070D01*
X48280070Y-7214905D01*
X48326148Y-7135095D01*
X48350000Y-7046078D01*
X48350000Y-6999999D01*
X48353553Y-6999999D01*
X48353553Y-7000000D01*
X49043124Y-7689570D01*
X49086668Y-7627385D01*
X49086669Y-7627383D01*
X49179100Y-7429164D01*
X49179105Y-7429150D01*
X49235710Y-7217894D01*
X49235712Y-7217884D01*
X49254775Y-7000000D01*
X49254775Y-6999999D01*
X49235712Y-6782115D01*
X49235710Y-6782105D01*
X49179105Y-6570849D01*
X49179101Y-6570840D01*
X49086667Y-6372614D01*
X49086666Y-6372612D01*
X49043124Y-6310428D01*
X49043124Y-6310427D01*
X48353553Y-6999999D01*
X48350000Y-6999999D01*
X48350000Y-6953922D01*
X48326148Y-6864905D01*
X48280070Y-6785095D01*
X48214905Y-6719930D01*
X48135095Y-6673852D01*
X48046078Y-6650000D01*
X47953922Y-6650000D01*
X47864905Y-6673852D01*
X47785095Y-6719930D01*
X47719930Y-6785095D01*
X47673852Y-6864905D01*
X47650000Y-6953922D01*
X47600368Y-6953922D01*
X46956874Y-6310428D01*
X46913333Y-6372613D01*
X46820898Y-6570840D01*
X46820894Y-6570849D01*
X46764289Y-6782105D01*
X46764287Y-6782115D01*
X46745225Y-6999999D01*
X43305468Y-6999999D01*
X43285635Y-6773308D01*
X43226739Y-6553504D01*
X43130568Y-6347266D01*
X43000047Y-6160861D01*
X43000045Y-6160858D01*
X42839141Y-5999954D01*
X42777616Y-5956874D01*
X47310428Y-5956874D01*
X48000000Y-6646446D01*
X48000001Y-6646446D01*
X48494311Y-6152135D01*
X49699500Y-6152135D01*
X49699500Y-7847870D01*
X49699501Y-7847876D01*
X49705908Y-7907483D01*
X49756202Y-8042328D01*
X49756206Y-8042335D01*
X49842452Y-8157544D01*
X49842455Y-8157547D01*
X49957664Y-8243793D01*
X49957671Y-8243797D01*
X49987105Y-8254775D01*
X50092517Y-8294091D01*
X50152127Y-8300500D01*
X50835388Y-8300499D01*
X50902427Y-8320183D01*
X50909373Y-8325238D01*
X50912217Y-8327138D01*
X50912218Y-8327139D01*
X51076086Y-8436632D01*
X51182745Y-8480811D01*
X51258164Y-8512051D01*
X51451454Y-8550499D01*
X51451457Y-8550500D01*
X51451459Y-8550500D01*
X56048542Y-8550500D01*
X56067870Y-8546655D01*
X56145188Y-8531275D01*
X56241836Y-8512051D01*
X56295165Y-8489961D01*
X56423914Y-8436632D01*
X56587782Y-8327139D01*
X56727139Y-8187782D01*
X56727140Y-8187779D01*
X56734206Y-8180714D01*
X56734209Y-8180710D01*
X57578101Y-7336818D01*
X57639424Y-7303333D01*
X57665782Y-7300499D01*
X58347871Y-7300499D01*
X58347872Y-7300499D01*
X58407483Y-7294091D01*
X58542331Y-7243796D01*
X58657546Y-7157546D01*
X58743796Y-7042331D01*
X58759585Y-6999998D01*
X60694532Y-6999998D01*
X60694532Y-7000001D01*
X60714364Y-7226686D01*
X60714366Y-7226697D01*
X60773258Y-7446488D01*
X60773261Y-7446497D01*
X60869431Y-7652732D01*
X60869432Y-7652734D01*
X60999954Y-7839141D01*
X61160858Y-8000045D01*
X61160861Y-8000047D01*
X61347266Y-8130568D01*
X61553504Y-8226739D01*
X61773308Y-8285635D01*
X61935230Y-8299801D01*
X61999998Y-8305468D01*
X62000000Y-8305468D01*
X62000002Y-8305468D01*
X62056796Y-8300499D01*
X62226692Y-8285635D01*
X62446496Y-8226739D01*
X62652734Y-8130568D01*
X62839139Y-8000047D01*
X63000047Y-7839139D01*
X63130568Y-7652734D01*
X63226739Y-7446496D01*
X63285635Y-7226692D01*
X63305468Y-7000000D01*
X63305468Y-6999998D01*
X64694532Y-6999998D01*
X64694532Y-7000001D01*
X64714364Y-7226686D01*
X64714366Y-7226697D01*
X64773258Y-7446488D01*
X64773261Y-7446497D01*
X64869431Y-7652732D01*
X64869432Y-7652734D01*
X64999954Y-7839141D01*
X65160858Y-8000045D01*
X65160861Y-8000047D01*
X65347266Y-8130568D01*
X65553504Y-8226739D01*
X65773308Y-8285635D01*
X65935230Y-8299801D01*
X65999998Y-8305468D01*
X66000000Y-8305468D01*
X66000002Y-8305468D01*
X66056796Y-8300499D01*
X66226692Y-8285635D01*
X66446496Y-8226739D01*
X66652734Y-8130568D01*
X66777618Y-8043124D01*
X69310427Y-8043124D01*
X69372612Y-8086666D01*
X69570840Y-8179101D01*
X69570849Y-8179105D01*
X69782105Y-8235710D01*
X69782115Y-8235712D01*
X69999999Y-8254775D01*
X70000001Y-8254775D01*
X70217884Y-8235712D01*
X70217894Y-8235710D01*
X70429150Y-8179105D01*
X70429164Y-8179100D01*
X70627383Y-8086669D01*
X70627385Y-8086668D01*
X70689570Y-8043124D01*
X70000001Y-7353553D01*
X70000000Y-7353553D01*
X69310427Y-8043124D01*
X66777618Y-8043124D01*
X66839139Y-8000047D01*
X67000047Y-7839139D01*
X67130568Y-7652734D01*
X67226739Y-7446496D01*
X67285635Y-7226692D01*
X67305468Y-7000000D01*
X67305468Y-6999999D01*
X68745225Y-6999999D01*
X68745225Y-7000000D01*
X68764287Y-7217884D01*
X68764289Y-7217894D01*
X68820894Y-7429150D01*
X68820898Y-7429159D01*
X68913333Y-7627387D01*
X68956874Y-7689571D01*
X69646446Y-7000000D01*
X69600368Y-6953922D01*
X69650000Y-6953922D01*
X69650000Y-7046078D01*
X69673852Y-7135095D01*
X69719930Y-7214905D01*
X69785095Y-7280070D01*
X69864905Y-7326148D01*
X69953922Y-7350000D01*
X70046078Y-7350000D01*
X70135095Y-7326148D01*
X70214905Y-7280070D01*
X70280070Y-7214905D01*
X70326148Y-7135095D01*
X70350000Y-7046078D01*
X70350000Y-6999999D01*
X70353553Y-6999999D01*
X70353553Y-7000000D01*
X71043124Y-7689570D01*
X71086668Y-7627385D01*
X71086669Y-7627383D01*
X71179100Y-7429164D01*
X71179105Y-7429150D01*
X71235710Y-7217894D01*
X71235712Y-7217884D01*
X71254775Y-7000000D01*
X71254775Y-6999999D01*
X71235712Y-6782115D01*
X71235710Y-6782105D01*
X71179105Y-6570849D01*
X71179101Y-6570840D01*
X71086667Y-6372614D01*
X71086666Y-6372612D01*
X71043124Y-6310428D01*
X71043124Y-6310427D01*
X70353553Y-6999999D01*
X70350000Y-6999999D01*
X70350000Y-6953922D01*
X70326148Y-6864905D01*
X70280070Y-6785095D01*
X70214905Y-6719930D01*
X70135095Y-6673852D01*
X70046078Y-6650000D01*
X69953922Y-6650000D01*
X69864905Y-6673852D01*
X69785095Y-6719930D01*
X69719930Y-6785095D01*
X69673852Y-6864905D01*
X69650000Y-6953922D01*
X69600368Y-6953922D01*
X68956874Y-6310428D01*
X68913333Y-6372613D01*
X68820898Y-6570840D01*
X68820894Y-6570849D01*
X68764289Y-6782105D01*
X68764287Y-6782115D01*
X68745225Y-6999999D01*
X67305468Y-6999999D01*
X67285635Y-6773308D01*
X67226739Y-6553504D01*
X67130568Y-6347266D01*
X67000047Y-6160861D01*
X67000045Y-6160858D01*
X66839141Y-5999954D01*
X66777616Y-5956874D01*
X69310428Y-5956874D01*
X70000000Y-6646446D01*
X70000001Y-6646446D01*
X70494311Y-6152135D01*
X71699500Y-6152135D01*
X71699500Y-7847870D01*
X71699501Y-7847876D01*
X71705908Y-7907483D01*
X71756202Y-8042328D01*
X71756206Y-8042335D01*
X71842452Y-8157544D01*
X71842455Y-8157547D01*
X71957664Y-8243793D01*
X71957671Y-8243797D01*
X71987105Y-8254775D01*
X72092517Y-8294091D01*
X72152127Y-8300500D01*
X72835388Y-8300499D01*
X72902427Y-8320183D01*
X72909373Y-8325238D01*
X72912217Y-8327138D01*
X72912218Y-8327139D01*
X73076086Y-8436632D01*
X73182745Y-8480811D01*
X73258164Y-8512051D01*
X73451454Y-8550499D01*
X73451457Y-8550500D01*
X73451459Y-8550500D01*
X78048542Y-8550500D01*
X78067870Y-8546655D01*
X78145188Y-8531275D01*
X78241836Y-8512051D01*
X78295165Y-8489961D01*
X78423914Y-8436632D01*
X78587782Y-8327139D01*
X78727139Y-8187782D01*
X78727140Y-8187779D01*
X78734206Y-8180714D01*
X78734209Y-8180710D01*
X79578101Y-7336818D01*
X79639424Y-7303333D01*
X79665782Y-7300499D01*
X80347871Y-7300499D01*
X80347872Y-7300499D01*
X80407483Y-7294091D01*
X80542331Y-7243796D01*
X80657546Y-7157546D01*
X80743796Y-7042331D01*
X80759585Y-6999998D01*
X82694532Y-6999998D01*
X82694532Y-7000001D01*
X82714364Y-7226686D01*
X82714366Y-7226697D01*
X82773258Y-7446488D01*
X82773261Y-7446497D01*
X82869431Y-7652732D01*
X82869432Y-7652734D01*
X82999954Y-7839141D01*
X83160858Y-8000045D01*
X83160861Y-8000047D01*
X83347266Y-8130568D01*
X83553504Y-8226739D01*
X83773308Y-8285635D01*
X83935230Y-8299801D01*
X83999998Y-8305468D01*
X84000000Y-8305468D01*
X84000002Y-8305468D01*
X84056796Y-8300499D01*
X84226692Y-8285635D01*
X84446496Y-8226739D01*
X84652734Y-8130568D01*
X84839139Y-8000047D01*
X85000047Y-7839139D01*
X85130568Y-7652734D01*
X85226739Y-7446496D01*
X85285635Y-7226692D01*
X85305468Y-7000000D01*
X85305468Y-6999998D01*
X86694532Y-6999998D01*
X86694532Y-7000001D01*
X86714364Y-7226686D01*
X86714366Y-7226697D01*
X86773258Y-7446488D01*
X86773261Y-7446497D01*
X86869431Y-7652732D01*
X86869432Y-7652734D01*
X86999954Y-7839141D01*
X87160858Y-8000045D01*
X87160861Y-8000047D01*
X87347266Y-8130568D01*
X87553504Y-8226739D01*
X87773308Y-8285635D01*
X87935230Y-8299801D01*
X87999998Y-8305468D01*
X88000000Y-8305468D01*
X88000002Y-8305468D01*
X88056796Y-8300499D01*
X88226692Y-8285635D01*
X88446496Y-8226739D01*
X88652734Y-8130568D01*
X88839139Y-8000047D01*
X89000047Y-7839139D01*
X89130568Y-7652734D01*
X89226739Y-7446496D01*
X89285635Y-7226692D01*
X89305468Y-7000000D01*
X89285635Y-6773308D01*
X89226739Y-6553504D01*
X89130568Y-6347266D01*
X89000047Y-6160861D01*
X89000045Y-6160858D01*
X88839141Y-5999954D01*
X88652734Y-5869432D01*
X88652732Y-5869431D01*
X88446497Y-5773261D01*
X88446488Y-5773258D01*
X88226697Y-5714366D01*
X88226693Y-5714365D01*
X88226692Y-5714365D01*
X88226691Y-5714364D01*
X88226686Y-5714364D01*
X88000002Y-5694532D01*
X87999998Y-5694532D01*
X87773313Y-5714364D01*
X87773302Y-5714366D01*
X87553511Y-5773258D01*
X87553502Y-5773261D01*
X87347267Y-5869431D01*
X87347265Y-5869432D01*
X87160858Y-5999954D01*
X86999954Y-6160858D01*
X86869432Y-6347265D01*
X86869431Y-6347267D01*
X86773261Y-6553502D01*
X86773258Y-6553511D01*
X86714366Y-6773302D01*
X86714364Y-6773313D01*
X86694532Y-6999998D01*
X85305468Y-6999998D01*
X85285635Y-6773308D01*
X85226739Y-6553504D01*
X85130568Y-6347266D01*
X85000047Y-6160861D01*
X85000045Y-6160858D01*
X84839141Y-5999954D01*
X84652734Y-5869432D01*
X84652732Y-5869431D01*
X84446497Y-5773261D01*
X84446488Y-5773258D01*
X84226697Y-5714366D01*
X84226693Y-5714365D01*
X84226692Y-5714365D01*
X84226691Y-5714364D01*
X84226686Y-5714364D01*
X84000002Y-5694532D01*
X83999998Y-5694532D01*
X83773313Y-5714364D01*
X83773302Y-5714366D01*
X83553511Y-5773258D01*
X83553502Y-5773261D01*
X83347267Y-5869431D01*
X83347265Y-5869432D01*
X83160858Y-5999954D01*
X82999954Y-6160858D01*
X82869432Y-6347265D01*
X82869431Y-6347267D01*
X82773261Y-6553502D01*
X82773258Y-6553511D01*
X82714366Y-6773302D01*
X82714364Y-6773313D01*
X82694532Y-6999998D01*
X80759585Y-6999998D01*
X80794091Y-6907483D01*
X80800500Y-6847873D01*
X80800499Y-5152128D01*
X80794091Y-5092517D01*
X80792071Y-5087102D01*
X80743797Y-4957671D01*
X80743793Y-4957664D01*
X80657547Y-4842455D01*
X80657544Y-4842452D01*
X80542335Y-4756206D01*
X80542328Y-4756202D01*
X80407482Y-4705908D01*
X80407483Y-4705908D01*
X80347883Y-4699501D01*
X80347881Y-4699500D01*
X80347873Y-4699500D01*
X80347864Y-4699500D01*
X78652129Y-4699500D01*
X78652123Y-4699501D01*
X78592516Y-4705908D01*
X78457671Y-4756202D01*
X78457664Y-4756206D01*
X78342455Y-4842452D01*
X78342452Y-4842455D01*
X78256206Y-4957664D01*
X78256202Y-4957671D01*
X78205908Y-5092517D01*
X78199501Y-5152116D01*
X78199501Y-5152123D01*
X78199322Y-5155452D01*
X78197847Y-5155372D01*
X78179815Y-5216784D01*
X78127011Y-5262539D01*
X78083522Y-5270029D01*
X77400000Y-5953551D01*
X77400000Y-5947339D01*
X77372741Y-5845606D01*
X77320080Y-5754394D01*
X77245606Y-5679920D01*
X77154394Y-5627259D01*
X77052661Y-5600000D01*
X77046448Y-5600000D01*
X77725472Y-4920974D01*
X77652478Y-4869863D01*
X77446331Y-4773735D01*
X77446317Y-4773730D01*
X77226610Y-4714860D01*
X77226599Y-4714858D01*
X77000002Y-4695034D01*
X76999998Y-4695034D01*
X76773400Y-4714858D01*
X76773389Y-4714860D01*
X76553682Y-4773730D01*
X76553673Y-4773734D01*
X76347516Y-4869866D01*
X76347512Y-4869868D01*
X76274526Y-4920973D01*
X76274526Y-4920974D01*
X76953553Y-5600000D01*
X76947339Y-5600000D01*
X76845606Y-5627259D01*
X76754394Y-5679920D01*
X76679920Y-5754394D01*
X76627259Y-5845606D01*
X76600000Y-5947339D01*
X76600000Y-5953552D01*
X75920974Y-5274526D01*
X75920973Y-5274526D01*
X75869868Y-5347512D01*
X75869866Y-5347516D01*
X75773734Y-5553673D01*
X75773730Y-5553682D01*
X75714860Y-5773389D01*
X75714858Y-5773400D01*
X75695034Y-5999997D01*
X75695034Y-6000002D01*
X75714858Y-6226599D01*
X75714860Y-6226610D01*
X75759553Y-6393407D01*
X75757890Y-6463257D01*
X75718727Y-6521119D01*
X75654499Y-6548623D01*
X75639778Y-6549500D01*
X74424499Y-6549500D01*
X74357460Y-6529815D01*
X74311705Y-6477011D01*
X74300499Y-6425500D01*
X74300499Y-6152129D01*
X74300498Y-6152123D01*
X74300497Y-6152116D01*
X74294091Y-6092517D01*
X74259583Y-5999997D01*
X74243797Y-5957671D01*
X74243793Y-5957664D01*
X74157547Y-5842455D01*
X74157544Y-5842452D01*
X74042335Y-5756206D01*
X74042328Y-5756202D01*
X73907482Y-5705908D01*
X73907483Y-5705908D01*
X73847883Y-5699501D01*
X73847881Y-5699500D01*
X73847873Y-5699500D01*
X73847864Y-5699500D01*
X72152129Y-5699500D01*
X72152123Y-5699501D01*
X72092516Y-5705908D01*
X71957671Y-5756202D01*
X71957664Y-5756206D01*
X71842455Y-5842452D01*
X71842452Y-5842455D01*
X71756206Y-5957664D01*
X71756202Y-5957671D01*
X71705908Y-6092517D01*
X71699501Y-6152116D01*
X71699501Y-6152123D01*
X71699500Y-6152135D01*
X70494311Y-6152135D01*
X70689571Y-5956874D01*
X70627387Y-5913333D01*
X70429159Y-5820898D01*
X70429150Y-5820894D01*
X70217894Y-5764289D01*
X70217884Y-5764287D01*
X70000001Y-5745225D01*
X69999999Y-5745225D01*
X69782115Y-5764287D01*
X69782105Y-5764289D01*
X69570849Y-5820894D01*
X69570840Y-5820898D01*
X69372613Y-5913333D01*
X69310428Y-5956874D01*
X66777616Y-5956874D01*
X66652734Y-5869432D01*
X66652732Y-5869431D01*
X66446497Y-5773261D01*
X66446488Y-5773258D01*
X66226697Y-5714366D01*
X66226693Y-5714365D01*
X66226692Y-5714365D01*
X66226691Y-5714364D01*
X66226686Y-5714364D01*
X66000002Y-5694532D01*
X65999998Y-5694532D01*
X65773313Y-5714364D01*
X65773302Y-5714366D01*
X65553511Y-5773258D01*
X65553502Y-5773261D01*
X65347267Y-5869431D01*
X65347265Y-5869432D01*
X65160858Y-5999954D01*
X64999954Y-6160858D01*
X64869432Y-6347265D01*
X64869431Y-6347267D01*
X64773261Y-6553502D01*
X64773258Y-6553511D01*
X64714366Y-6773302D01*
X64714364Y-6773313D01*
X64694532Y-6999998D01*
X63305468Y-6999998D01*
X63285635Y-6773308D01*
X63226739Y-6553504D01*
X63130568Y-6347266D01*
X63000047Y-6160861D01*
X63000045Y-6160858D01*
X62839141Y-5999954D01*
X62652734Y-5869432D01*
X62652732Y-5869431D01*
X62446497Y-5773261D01*
X62446488Y-5773258D01*
X62226697Y-5714366D01*
X62226693Y-5714365D01*
X62226692Y-5714365D01*
X62226691Y-5714364D01*
X62226686Y-5714364D01*
X62000002Y-5694532D01*
X61999998Y-5694532D01*
X61773313Y-5714364D01*
X61773302Y-5714366D01*
X61553511Y-5773258D01*
X61553502Y-5773261D01*
X61347267Y-5869431D01*
X61347265Y-5869432D01*
X61160858Y-5999954D01*
X60999954Y-6160858D01*
X60869432Y-6347265D01*
X60869431Y-6347267D01*
X60773261Y-6553502D01*
X60773258Y-6553511D01*
X60714366Y-6773302D01*
X60714364Y-6773313D01*
X60694532Y-6999998D01*
X58759585Y-6999998D01*
X58794091Y-6907483D01*
X58800500Y-6847873D01*
X58800499Y-5152128D01*
X58794091Y-5092517D01*
X58792071Y-5087102D01*
X58743797Y-4957671D01*
X58743793Y-4957664D01*
X58657547Y-4842455D01*
X58657544Y-4842452D01*
X58542335Y-4756206D01*
X58542328Y-4756202D01*
X58407482Y-4705908D01*
X58407483Y-4705908D01*
X58347883Y-4699501D01*
X58347881Y-4699500D01*
X58347873Y-4699500D01*
X58347864Y-4699500D01*
X56652129Y-4699500D01*
X56652123Y-4699501D01*
X56592516Y-4705908D01*
X56457671Y-4756202D01*
X56457664Y-4756206D01*
X56342455Y-4842452D01*
X56342452Y-4842455D01*
X56256206Y-4957664D01*
X56256202Y-4957671D01*
X56205908Y-5092517D01*
X56199501Y-5152116D01*
X56199501Y-5152123D01*
X56199322Y-5155452D01*
X56197847Y-5155372D01*
X56179815Y-5216784D01*
X56127011Y-5262539D01*
X56083522Y-5270029D01*
X55400000Y-5953551D01*
X55400000Y-5947339D01*
X55372741Y-5845606D01*
X55320080Y-5754394D01*
X55245606Y-5679920D01*
X55154394Y-5627259D01*
X55052661Y-5600000D01*
X55046448Y-5600000D01*
X55725472Y-4920974D01*
X55652478Y-4869863D01*
X55446331Y-4773735D01*
X55446317Y-4773730D01*
X55226610Y-4714860D01*
X55226599Y-4714858D01*
X55000002Y-4695034D01*
X54999998Y-4695034D01*
X54773400Y-4714858D01*
X54773389Y-4714860D01*
X54553682Y-4773730D01*
X54553673Y-4773734D01*
X54347516Y-4869866D01*
X54347512Y-4869868D01*
X54274526Y-4920973D01*
X54274526Y-4920974D01*
X54953553Y-5600000D01*
X54947339Y-5600000D01*
X54845606Y-5627259D01*
X54754394Y-5679920D01*
X54679920Y-5754394D01*
X54627259Y-5845606D01*
X54600000Y-5947339D01*
X54600000Y-5953552D01*
X53920974Y-5274526D01*
X53920973Y-5274526D01*
X53869868Y-5347512D01*
X53869866Y-5347516D01*
X53773734Y-5553673D01*
X53773730Y-5553682D01*
X53714860Y-5773389D01*
X53714858Y-5773400D01*
X53695034Y-5999997D01*
X53695034Y-6000002D01*
X53714858Y-6226599D01*
X53714860Y-6226610D01*
X53759553Y-6393407D01*
X53757890Y-6463257D01*
X53718727Y-6521119D01*
X53654499Y-6548623D01*
X53639778Y-6549500D01*
X52424499Y-6549500D01*
X52357460Y-6529815D01*
X52311705Y-6477011D01*
X52300499Y-6425500D01*
X52300499Y-6152129D01*
X52300498Y-6152123D01*
X52300497Y-6152116D01*
X52294091Y-6092517D01*
X52259583Y-5999997D01*
X52243797Y-5957671D01*
X52243793Y-5957664D01*
X52157547Y-5842455D01*
X52157544Y-5842452D01*
X52042335Y-5756206D01*
X52042328Y-5756202D01*
X51907482Y-5705908D01*
X51907483Y-5705908D01*
X51847883Y-5699501D01*
X51847881Y-5699500D01*
X51847873Y-5699500D01*
X51847864Y-5699500D01*
X50152129Y-5699500D01*
X50152123Y-5699501D01*
X50092516Y-5705908D01*
X49957671Y-5756202D01*
X49957664Y-5756206D01*
X49842455Y-5842452D01*
X49842452Y-5842455D01*
X49756206Y-5957664D01*
X49756202Y-5957671D01*
X49705908Y-6092517D01*
X49699501Y-6152116D01*
X49699501Y-6152123D01*
X49699500Y-6152135D01*
X48494311Y-6152135D01*
X48689571Y-5956874D01*
X48627387Y-5913333D01*
X48429159Y-5820898D01*
X48429150Y-5820894D01*
X48217894Y-5764289D01*
X48217884Y-5764287D01*
X48000001Y-5745225D01*
X47999999Y-5745225D01*
X47782115Y-5764287D01*
X47782105Y-5764289D01*
X47570849Y-5820894D01*
X47570840Y-5820898D01*
X47372613Y-5913333D01*
X47310428Y-5956874D01*
X42777616Y-5956874D01*
X42652734Y-5869432D01*
X42652732Y-5869431D01*
X42446497Y-5773261D01*
X42446488Y-5773258D01*
X42226697Y-5714366D01*
X42226693Y-5714365D01*
X42226692Y-5714365D01*
X42226691Y-5714364D01*
X42226686Y-5714364D01*
X42000002Y-5694532D01*
X41999998Y-5694532D01*
X41773313Y-5714364D01*
X41773302Y-5714366D01*
X41553511Y-5773258D01*
X41553502Y-5773261D01*
X41347267Y-5869431D01*
X41347265Y-5869432D01*
X41160858Y-5999954D01*
X40999954Y-6160858D01*
X40869432Y-6347265D01*
X40869431Y-6347267D01*
X40773261Y-6553502D01*
X40773258Y-6553511D01*
X40714366Y-6773302D01*
X40714364Y-6773313D01*
X40694532Y-6999998D01*
X39305468Y-6999998D01*
X39285635Y-6773308D01*
X39226739Y-6553504D01*
X39130568Y-6347266D01*
X39000047Y-6160861D01*
X39000045Y-6160858D01*
X38839141Y-5999954D01*
X38652734Y-5869432D01*
X38652732Y-5869431D01*
X38446497Y-5773261D01*
X38446488Y-5773258D01*
X38226697Y-5714366D01*
X38226693Y-5714365D01*
X38226692Y-5714365D01*
X38226691Y-5714364D01*
X38226686Y-5714364D01*
X38000002Y-5694532D01*
X37999998Y-5694532D01*
X37773313Y-5714364D01*
X37773302Y-5714366D01*
X37553511Y-5773258D01*
X37553502Y-5773261D01*
X37347267Y-5869431D01*
X37347265Y-5869432D01*
X37160858Y-5999954D01*
X36999954Y-6160858D01*
X36869432Y-6347265D01*
X36869431Y-6347267D01*
X36773261Y-6553502D01*
X36773258Y-6553511D01*
X36714366Y-6773302D01*
X36714364Y-6773313D01*
X36694532Y-6999998D01*
X34759585Y-6999998D01*
X34794091Y-6907483D01*
X34800500Y-6847873D01*
X34800499Y-5152128D01*
X34794091Y-5092517D01*
X34792071Y-5087102D01*
X34743797Y-4957671D01*
X34743793Y-4957664D01*
X34657547Y-4842455D01*
X34657544Y-4842452D01*
X34542335Y-4756206D01*
X34542328Y-4756202D01*
X34407482Y-4705908D01*
X34407483Y-4705908D01*
X34347883Y-4699501D01*
X34347881Y-4699500D01*
X34347873Y-4699500D01*
X34347864Y-4699500D01*
X32652129Y-4699500D01*
X32652123Y-4699501D01*
X32592516Y-4705908D01*
X32457671Y-4756202D01*
X32457664Y-4756206D01*
X32342455Y-4842452D01*
X32342452Y-4842455D01*
X32256206Y-4957664D01*
X32256202Y-4957671D01*
X32205908Y-5092517D01*
X32199501Y-5152116D01*
X32199501Y-5152123D01*
X32199322Y-5155452D01*
X32197847Y-5155372D01*
X32179815Y-5216784D01*
X32127011Y-5262539D01*
X32083522Y-5270029D01*
X31400000Y-5953551D01*
X31400000Y-5947339D01*
X31372741Y-5845606D01*
X31320080Y-5754394D01*
X31245606Y-5679920D01*
X31154394Y-5627259D01*
X31052661Y-5600000D01*
X31046448Y-5600000D01*
X31725472Y-4920974D01*
X31652478Y-4869863D01*
X31446331Y-4773735D01*
X31446317Y-4773730D01*
X31226610Y-4714860D01*
X31226599Y-4714858D01*
X31000002Y-4695034D01*
X30999998Y-4695034D01*
X30773400Y-4714858D01*
X30773389Y-4714860D01*
X30553682Y-4773730D01*
X30553673Y-4773734D01*
X30347516Y-4869866D01*
X30347512Y-4869868D01*
X30274526Y-4920973D01*
X30274526Y-4920974D01*
X30953553Y-5600000D01*
X30947339Y-5600000D01*
X30845606Y-5627259D01*
X30754394Y-5679920D01*
X30679920Y-5754394D01*
X30627259Y-5845606D01*
X30600000Y-5947339D01*
X30600000Y-5953552D01*
X29920974Y-5274526D01*
X29920973Y-5274526D01*
X29869868Y-5347512D01*
X29869866Y-5347516D01*
X29773734Y-5553673D01*
X29773730Y-5553682D01*
X29714860Y-5773389D01*
X29714858Y-5773400D01*
X29695034Y-5999997D01*
X29695034Y-6000002D01*
X29714858Y-6226599D01*
X29714860Y-6226610D01*
X29759553Y-6393407D01*
X29757890Y-6463257D01*
X29718727Y-6521119D01*
X29654499Y-6548623D01*
X29639778Y-6549500D01*
X28424499Y-6549500D01*
X28357460Y-6529815D01*
X28311705Y-6477011D01*
X28300499Y-6425500D01*
X28300499Y-6152129D01*
X28300498Y-6152123D01*
X28300497Y-6152116D01*
X28294091Y-6092517D01*
X28259583Y-5999997D01*
X28243797Y-5957671D01*
X28243793Y-5957664D01*
X28157547Y-5842455D01*
X28157544Y-5842452D01*
X28042335Y-5756206D01*
X28042328Y-5756202D01*
X27907482Y-5705908D01*
X27907483Y-5705908D01*
X27847883Y-5699501D01*
X27847881Y-5699500D01*
X27847873Y-5699500D01*
X27847864Y-5699500D01*
X26152129Y-5699500D01*
X26152123Y-5699501D01*
X26092516Y-5705908D01*
X25957671Y-5756202D01*
X25957664Y-5756206D01*
X25842455Y-5842452D01*
X25842452Y-5842455D01*
X25756206Y-5957664D01*
X25756202Y-5957671D01*
X25705908Y-6092517D01*
X25699501Y-6152116D01*
X25699501Y-6152123D01*
X25699500Y-6152135D01*
X24494311Y-6152135D01*
X24689571Y-5956874D01*
X24627387Y-5913333D01*
X24429159Y-5820898D01*
X24429150Y-5820894D01*
X24217894Y-5764289D01*
X24217884Y-5764287D01*
X24000001Y-5745225D01*
X23999999Y-5745225D01*
X23782115Y-5764287D01*
X23782105Y-5764289D01*
X23570849Y-5820894D01*
X23570840Y-5820898D01*
X23372613Y-5913333D01*
X23310428Y-5956874D01*
X20777616Y-5956874D01*
X20652734Y-5869432D01*
X20652732Y-5869431D01*
X20446497Y-5773261D01*
X20446488Y-5773258D01*
X20226697Y-5714366D01*
X20226693Y-5714365D01*
X20226692Y-5714365D01*
X20226691Y-5714364D01*
X20226686Y-5714364D01*
X20000002Y-5694532D01*
X19999998Y-5694532D01*
X19773313Y-5714364D01*
X19773302Y-5714366D01*
X19553511Y-5773258D01*
X19553502Y-5773261D01*
X19347267Y-5869431D01*
X19347265Y-5869432D01*
X19160858Y-5999954D01*
X18999954Y-6160858D01*
X18869432Y-6347265D01*
X18869431Y-6347267D01*
X18773261Y-6553502D01*
X18773258Y-6553511D01*
X18714366Y-6773302D01*
X18714364Y-6773313D01*
X18694532Y-6999998D01*
X17305468Y-6999998D01*
X17285635Y-6773308D01*
X17226739Y-6553504D01*
X17130568Y-6347266D01*
X17000047Y-6160861D01*
X17000045Y-6160858D01*
X16839141Y-5999954D01*
X16652734Y-5869432D01*
X16652732Y-5869431D01*
X16446497Y-5773261D01*
X16446488Y-5773258D01*
X16226697Y-5714366D01*
X16226693Y-5714365D01*
X16226692Y-5714365D01*
X16226691Y-5714364D01*
X16226686Y-5714364D01*
X16000002Y-5694532D01*
X15999998Y-5694532D01*
X15773313Y-5714364D01*
X15773302Y-5714366D01*
X15553511Y-5773258D01*
X15553502Y-5773261D01*
X15347267Y-5869431D01*
X15347265Y-5869432D01*
X15160858Y-5999954D01*
X14999954Y-6160858D01*
X14869432Y-6347265D01*
X14869431Y-6347267D01*
X14773261Y-6553502D01*
X14773258Y-6553511D01*
X14714366Y-6773302D01*
X14714364Y-6773313D01*
X14694532Y-6999998D01*
X12759585Y-6999998D01*
X12794091Y-6907483D01*
X12800500Y-6847873D01*
X12800499Y-5152128D01*
X12794091Y-5092517D01*
X12792071Y-5087102D01*
X12743797Y-4957671D01*
X12743793Y-4957664D01*
X12657547Y-4842455D01*
X12657544Y-4842452D01*
X12542335Y-4756206D01*
X12542328Y-4756202D01*
X12407482Y-4705908D01*
X12407483Y-4705908D01*
X12347883Y-4699501D01*
X12347881Y-4699500D01*
X12347873Y-4699500D01*
X12347864Y-4699500D01*
X10652129Y-4699500D01*
X10652123Y-4699501D01*
X10592516Y-4705908D01*
X10457671Y-4756202D01*
X10457664Y-4756206D01*
X10342455Y-4842452D01*
X10342452Y-4842455D01*
X10256206Y-4957664D01*
X10256202Y-4957671D01*
X10205908Y-5092517D01*
X10199501Y-5152116D01*
X10199501Y-5152123D01*
X10199322Y-5155452D01*
X10197847Y-5155372D01*
X10179815Y-5216784D01*
X10127011Y-5262539D01*
X10083522Y-5270029D01*
X9400000Y-5953551D01*
X9400000Y-5947339D01*
X9372741Y-5845606D01*
X9320080Y-5754394D01*
X9245606Y-5679920D01*
X9154394Y-5627259D01*
X9052661Y-5600000D01*
X9046448Y-5600000D01*
X9725472Y-4920974D01*
X9652478Y-4869863D01*
X9446331Y-4773735D01*
X9446317Y-4773730D01*
X9226610Y-4714860D01*
X9226599Y-4714858D01*
X9000002Y-4695034D01*
X8999998Y-4695034D01*
X8773400Y-4714858D01*
X8773389Y-4714860D01*
X8553682Y-4773730D01*
X8553673Y-4773734D01*
X8347516Y-4869866D01*
X8347512Y-4869868D01*
X8274526Y-4920973D01*
X8274526Y-4920974D01*
X8953553Y-5600000D01*
X8947339Y-5600000D01*
X8845606Y-5627259D01*
X8754394Y-5679920D01*
X8679920Y-5754394D01*
X8627259Y-5845606D01*
X8600000Y-5947339D01*
X8600000Y-5953552D01*
X7920974Y-5274526D01*
X7920973Y-5274526D01*
X7869868Y-5347512D01*
X7869866Y-5347516D01*
X7773734Y-5553673D01*
X7773730Y-5553682D01*
X7714860Y-5773389D01*
X7714858Y-5773400D01*
X7695034Y-5999997D01*
X7695034Y-6000002D01*
X7714858Y-6226599D01*
X7714860Y-6226610D01*
X7759553Y-6393407D01*
X7757890Y-6463257D01*
X7718727Y-6521119D01*
X7654499Y-6548623D01*
X7639778Y-6549500D01*
X6424499Y-6549500D01*
X6357460Y-6529815D01*
X6311705Y-6477011D01*
X6300499Y-6425500D01*
X6300499Y-6152129D01*
X6300498Y-6152123D01*
X6300497Y-6152116D01*
X6294091Y-6092517D01*
X6259583Y-5999997D01*
X6243797Y-5957671D01*
X6243793Y-5957664D01*
X6157547Y-5842455D01*
X6157544Y-5842452D01*
X6042335Y-5756206D01*
X6042328Y-5756202D01*
X5907482Y-5705908D01*
X5907483Y-5705908D01*
X5847883Y-5699501D01*
X5847881Y-5699500D01*
X5847873Y-5699500D01*
X5847864Y-5699500D01*
X4152129Y-5699500D01*
X4152123Y-5699501D01*
X4092516Y-5705908D01*
X3957671Y-5756202D01*
X3957664Y-5756206D01*
X3842455Y-5842452D01*
X3842452Y-5842455D01*
X3756206Y-5957664D01*
X3756202Y-5957671D01*
X3705908Y-6092517D01*
X3699501Y-6152116D01*
X3699501Y-6152123D01*
X3699500Y-6152135D01*
X2494311Y-6152135D01*
X2689571Y-5956874D01*
X2627387Y-5913333D01*
X2429159Y-5820898D01*
X2429150Y-5820894D01*
X2217894Y-5764289D01*
X2217884Y-5764287D01*
X2000001Y-5745225D01*
X1999999Y-5745225D01*
X1782115Y-5764287D01*
X1782105Y-5764289D01*
X1570849Y-5820894D01*
X1570840Y-5820898D01*
X1372613Y-5913333D01*
X1310428Y-5956874D01*
X400500Y-5956874D01*
X400500Y-2999998D01*
X1994891Y-2999998D01*
X1994891Y-3000001D01*
X2015300Y-3285362D01*
X2076109Y-3564895D01*
X2176091Y-3832958D01*
X2313191Y-4084038D01*
X2313196Y-4084046D01*
X2419882Y-4226561D01*
X2419883Y-4226562D01*
X3322421Y-3324024D01*
X3335359Y-3355258D01*
X3417437Y-3478097D01*
X3521903Y-3582563D01*
X3644742Y-3664641D01*
X3675974Y-3677578D01*
X2773436Y-4580115D01*
X2915960Y-4686807D01*
X2915961Y-4686808D01*
X3167042Y-4823908D01*
X3167041Y-4823908D01*
X3435104Y-4923890D01*
X3714637Y-4984699D01*
X3999999Y-5005109D01*
X4000001Y-5005109D01*
X4285362Y-4984699D01*
X4564895Y-4923890D01*
X4832958Y-4823908D01*
X5084047Y-4686803D01*
X5226561Y-4580116D01*
X5226562Y-4580115D01*
X4324025Y-3677577D01*
X4355258Y-3664641D01*
X4478097Y-3582563D01*
X4582563Y-3478097D01*
X4664641Y-3355258D01*
X4677578Y-3324025D01*
X5580115Y-4226562D01*
X5580116Y-4226561D01*
X5686803Y-4084047D01*
X5823908Y-3832958D01*
X5923890Y-3564895D01*
X5984699Y-3285362D01*
X6005109Y-3000001D01*
X6005109Y-2999998D01*
X13994390Y-2999998D01*
X13994390Y-3000001D01*
X14014804Y-3285433D01*
X14075628Y-3565037D01*
X14075630Y-3565043D01*
X14075631Y-3565046D01*
X14156560Y-3782024D01*
X14175635Y-3833166D01*
X14312770Y-4084309D01*
X14312775Y-4084317D01*
X14484254Y-4313387D01*
X14484270Y-4313405D01*
X14686594Y-4515729D01*
X14686612Y-4515745D01*
X14915682Y-4687224D01*
X14915690Y-4687229D01*
X15166833Y-4824364D01*
X15166832Y-4824364D01*
X15166836Y-4824365D01*
X15166839Y-4824367D01*
X15434954Y-4924369D01*
X15434960Y-4924370D01*
X15434962Y-4924371D01*
X15714566Y-4985195D01*
X15714568Y-4985195D01*
X15714572Y-4985196D01*
X15968220Y-5003337D01*
X15999999Y-5005610D01*
X16000000Y-5005610D01*
X16000001Y-5005610D01*
X16028595Y-5003564D01*
X16285428Y-4985196D01*
X16565046Y-4924369D01*
X16833161Y-4824367D01*
X17084315Y-4687226D01*
X17313395Y-4515739D01*
X17515739Y-4313395D01*
X17687226Y-4084315D01*
X17733267Y-3999997D01*
X18744723Y-3999997D01*
X18744723Y-4000002D01*
X18763793Y-4217975D01*
X18763793Y-4217979D01*
X18820422Y-4429322D01*
X18820424Y-4429326D01*
X18820425Y-4429330D01*
X18860714Y-4515729D01*
X18912897Y-4627638D01*
X18912898Y-4627639D01*
X19038402Y-4806877D01*
X19193123Y-4961598D01*
X19372361Y-5087102D01*
X19570670Y-5179575D01*
X19782023Y-5236207D01*
X19964926Y-5252208D01*
X19999998Y-5255277D01*
X20000000Y-5255277D01*
X20000002Y-5255277D01*
X20028254Y-5252805D01*
X20217977Y-5236207D01*
X20429330Y-5179575D01*
X20627639Y-5087102D01*
X20806877Y-4961598D01*
X20961598Y-4806877D01*
X21087102Y-4627639D01*
X21179575Y-4429330D01*
X21236207Y-4217977D01*
X21255277Y-4000000D01*
X21236207Y-3782023D01*
X21179575Y-3570670D01*
X21087102Y-3372362D01*
X21087100Y-3372359D01*
X21087099Y-3372357D01*
X20961599Y-3193124D01*
X20961596Y-3193121D01*
X20806877Y-3038402D01*
X20752030Y-2999998D01*
X23994891Y-2999998D01*
X23994891Y-3000001D01*
X24015300Y-3285362D01*
X24076109Y-3564895D01*
X24176091Y-3832958D01*
X24313191Y-4084038D01*
X24313196Y-4084046D01*
X24419882Y-4226561D01*
X24419883Y-4226562D01*
X25322421Y-3324024D01*
X25335359Y-3355258D01*
X25417437Y-3478097D01*
X25521903Y-3582563D01*
X25644742Y-3664641D01*
X25675974Y-3677578D01*
X24773436Y-4580115D01*
X24915960Y-4686807D01*
X24915961Y-4686808D01*
X25167042Y-4823908D01*
X25167041Y-4823908D01*
X25435104Y-4923890D01*
X25714637Y-4984699D01*
X25999999Y-5005109D01*
X26000001Y-5005109D01*
X26285362Y-4984699D01*
X26564895Y-4923890D01*
X26832958Y-4823908D01*
X27084047Y-4686803D01*
X27226561Y-4580116D01*
X27226562Y-4580115D01*
X26324025Y-3677577D01*
X26355258Y-3664641D01*
X26478097Y-3582563D01*
X26582563Y-3478097D01*
X26664641Y-3355258D01*
X26677578Y-3324025D01*
X27580115Y-4226562D01*
X27580116Y-4226561D01*
X27686803Y-4084047D01*
X27823908Y-3832958D01*
X27923890Y-3564895D01*
X27984699Y-3285362D01*
X28005109Y-3000001D01*
X28005109Y-2999998D01*
X35994390Y-2999998D01*
X35994390Y-3000001D01*
X36014804Y-3285433D01*
X36075628Y-3565037D01*
X36075630Y-3565043D01*
X36075631Y-3565046D01*
X36156560Y-3782024D01*
X36175635Y-3833166D01*
X36312770Y-4084309D01*
X36312775Y-4084317D01*
X36484254Y-4313387D01*
X36484270Y-4313405D01*
X36686594Y-4515729D01*
X36686612Y-4515745D01*
X36915682Y-4687224D01*
X36915690Y-4687229D01*
X37166833Y-4824364D01*
X37166832Y-4824364D01*
X37166836Y-4824365D01*
X37166839Y-4824367D01*
X37434954Y-4924369D01*
X37434960Y-4924370D01*
X37434962Y-4924371D01*
X37714566Y-4985195D01*
X37714568Y-4985195D01*
X37714572Y-4985196D01*
X37968220Y-5003337D01*
X37999999Y-5005610D01*
X38000000Y-5005610D01*
X38000001Y-5005610D01*
X38028595Y-5003564D01*
X38285428Y-4985196D01*
X38565046Y-4924369D01*
X38833161Y-4824367D01*
X39084315Y-4687226D01*
X39313395Y-4515739D01*
X39515739Y-4313395D01*
X39687226Y-4084315D01*
X39733267Y-3999997D01*
X40744723Y-3999997D01*
X40744723Y-4000002D01*
X40763793Y-4217975D01*
X40763793Y-4217979D01*
X40820422Y-4429322D01*
X40820424Y-4429326D01*
X40820425Y-4429330D01*
X40860714Y-4515729D01*
X40912897Y-4627638D01*
X40912898Y-4627639D01*
X41038402Y-4806877D01*
X41193123Y-4961598D01*
X41372361Y-5087102D01*
X41570670Y-5179575D01*
X41782023Y-5236207D01*
X41964926Y-5252208D01*
X41999998Y-5255277D01*
X42000000Y-5255277D01*
X42000002Y-5255277D01*
X42028254Y-5252805D01*
X42217977Y-5236207D01*
X42429330Y-5179575D01*
X42627639Y-5087102D01*
X42806877Y-4961598D01*
X42961598Y-4806877D01*
X43087102Y-4627639D01*
X43179575Y-4429330D01*
X43236207Y-4217977D01*
X43255277Y-4000000D01*
X43236207Y-3782023D01*
X43179575Y-3570670D01*
X43087102Y-3372362D01*
X43087100Y-3372359D01*
X43087099Y-3372357D01*
X42961599Y-3193124D01*
X42961596Y-3193121D01*
X42806877Y-3038402D01*
X42752030Y-2999998D01*
X47994891Y-2999998D01*
X47994891Y-3000001D01*
X48015300Y-3285362D01*
X48076109Y-3564895D01*
X48176091Y-3832958D01*
X48313191Y-4084038D01*
X48313196Y-4084046D01*
X48419882Y-4226561D01*
X48419883Y-4226562D01*
X49322421Y-3324024D01*
X49335359Y-3355258D01*
X49417437Y-3478097D01*
X49521903Y-3582563D01*
X49644742Y-3664641D01*
X49675974Y-3677578D01*
X48773436Y-4580115D01*
X48915960Y-4686807D01*
X48915961Y-4686808D01*
X49167042Y-4823908D01*
X49167041Y-4823908D01*
X49435104Y-4923890D01*
X49714637Y-4984699D01*
X49999999Y-5005109D01*
X50000001Y-5005109D01*
X50285362Y-4984699D01*
X50564895Y-4923890D01*
X50832958Y-4823908D01*
X51084047Y-4686803D01*
X51226561Y-4580116D01*
X51226562Y-4580115D01*
X50324025Y-3677577D01*
X50355258Y-3664641D01*
X50478097Y-3582563D01*
X50582563Y-3478097D01*
X50664641Y-3355258D01*
X50677578Y-3324025D01*
X51580115Y-4226562D01*
X51580116Y-4226561D01*
X51686803Y-4084047D01*
X51823908Y-3832958D01*
X51923890Y-3564895D01*
X51984699Y-3285362D01*
X52005109Y-3000001D01*
X52005109Y-2999998D01*
X59994390Y-2999998D01*
X59994390Y-3000001D01*
X60014804Y-3285433D01*
X60075628Y-3565037D01*
X60075630Y-3565043D01*
X60075631Y-3565046D01*
X60156560Y-3782024D01*
X60175635Y-3833166D01*
X60312770Y-4084309D01*
X60312775Y-4084317D01*
X60484254Y-4313387D01*
X60484270Y-4313405D01*
X60686594Y-4515729D01*
X60686612Y-4515745D01*
X60915682Y-4687224D01*
X60915690Y-4687229D01*
X61166833Y-4824364D01*
X61166832Y-4824364D01*
X61166836Y-4824365D01*
X61166839Y-4824367D01*
X61434954Y-4924369D01*
X61434960Y-4924370D01*
X61434962Y-4924371D01*
X61714566Y-4985195D01*
X61714568Y-4985195D01*
X61714572Y-4985196D01*
X61968220Y-5003337D01*
X61999999Y-5005610D01*
X62000000Y-5005610D01*
X62000001Y-5005610D01*
X62028595Y-5003564D01*
X62285428Y-4985196D01*
X62565046Y-4924369D01*
X62833161Y-4824367D01*
X63084315Y-4687226D01*
X63313395Y-4515739D01*
X63515739Y-4313395D01*
X63687226Y-4084315D01*
X63733267Y-3999997D01*
X64744723Y-3999997D01*
X64744723Y-4000002D01*
X64763793Y-4217975D01*
X64763793Y-4217979D01*
X64820422Y-4429322D01*
X64820424Y-4429326D01*
X64820425Y-4429330D01*
X64860714Y-4515729D01*
X64912897Y-4627638D01*
X64912898Y-4627639D01*
X65038402Y-4806877D01*
X65193123Y-4961598D01*
X65372361Y-5087102D01*
X65570670Y-5179575D01*
X65782023Y-5236207D01*
X65964926Y-5252208D01*
X65999998Y-5255277D01*
X66000000Y-5255277D01*
X66000002Y-5255277D01*
X66028254Y-5252805D01*
X66217977Y-5236207D01*
X66429330Y-5179575D01*
X66627639Y-5087102D01*
X66806877Y-4961598D01*
X66961598Y-4806877D01*
X67087102Y-4627639D01*
X67179575Y-4429330D01*
X67236207Y-4217977D01*
X67255277Y-4000000D01*
X67236207Y-3782023D01*
X67179575Y-3570670D01*
X67087102Y-3372362D01*
X67087100Y-3372359D01*
X67087099Y-3372357D01*
X66961599Y-3193124D01*
X66961596Y-3193121D01*
X66806877Y-3038402D01*
X66752030Y-2999998D01*
X69994891Y-2999998D01*
X69994891Y-3000001D01*
X70015300Y-3285362D01*
X70076109Y-3564895D01*
X70176091Y-3832958D01*
X70313191Y-4084038D01*
X70313196Y-4084046D01*
X70419882Y-4226561D01*
X70419883Y-4226562D01*
X71322421Y-3324024D01*
X71335359Y-3355258D01*
X71417437Y-3478097D01*
X71521903Y-3582563D01*
X71644742Y-3664641D01*
X71675974Y-3677578D01*
X70773436Y-4580115D01*
X70915960Y-4686807D01*
X70915961Y-4686808D01*
X71167042Y-4823908D01*
X71167041Y-4823908D01*
X71435104Y-4923890D01*
X71714637Y-4984699D01*
X71999999Y-5005109D01*
X72000001Y-5005109D01*
X72285362Y-4984699D01*
X72564895Y-4923890D01*
X72832958Y-4823908D01*
X73084047Y-4686803D01*
X73226561Y-4580116D01*
X73226562Y-4580115D01*
X72324025Y-3677577D01*
X72355258Y-3664641D01*
X72478097Y-3582563D01*
X72582563Y-3478097D01*
X72664641Y-3355258D01*
X72677578Y-3324025D01*
X73580115Y-4226562D01*
X73580116Y-4226561D01*
X73686803Y-4084047D01*
X73823908Y-3832958D01*
X73923890Y-3564895D01*
X73984699Y-3285362D01*
X74005109Y-3000001D01*
X74005109Y-2999998D01*
X81994390Y-2999998D01*
X81994390Y-3000001D01*
X82014804Y-3285433D01*
X82075628Y-3565037D01*
X82075630Y-3565043D01*
X82075631Y-3565046D01*
X82156560Y-3782024D01*
X82175635Y-3833166D01*
X82312770Y-4084309D01*
X82312775Y-4084317D01*
X82484254Y-4313387D01*
X82484270Y-4313405D01*
X82686594Y-4515729D01*
X82686612Y-4515745D01*
X82915682Y-4687224D01*
X82915690Y-4687229D01*
X83166833Y-4824364D01*
X83166832Y-4824364D01*
X83166836Y-4824365D01*
X83166839Y-4824367D01*
X83434954Y-4924369D01*
X83434960Y-4924370D01*
X83434962Y-4924371D01*
X83714566Y-4985195D01*
X83714568Y-4985195D01*
X83714572Y-4985196D01*
X83968220Y-5003337D01*
X83999999Y-5005610D01*
X84000000Y-5005610D01*
X84000001Y-5005610D01*
X84028595Y-5003564D01*
X84285428Y-4985196D01*
X84565046Y-4924369D01*
X84833161Y-4824367D01*
X85084315Y-4687226D01*
X85313395Y-4515739D01*
X85515739Y-4313395D01*
X85687226Y-4084315D01*
X85733267Y-3999997D01*
X86744723Y-3999997D01*
X86744723Y-4000002D01*
X86763793Y-4217975D01*
X86763793Y-4217979D01*
X86820422Y-4429322D01*
X86820424Y-4429326D01*
X86820425Y-4429330D01*
X86860714Y-4515729D01*
X86912897Y-4627638D01*
X86912898Y-4627639D01*
X87038402Y-4806877D01*
X87193123Y-4961598D01*
X87372361Y-5087102D01*
X87570670Y-5179575D01*
X87782023Y-5236207D01*
X87964926Y-5252208D01*
X87999998Y-5255277D01*
X88000000Y-5255277D01*
X88000002Y-5255277D01*
X88028254Y-5252805D01*
X88217977Y-5236207D01*
X88429330Y-5179575D01*
X88627639Y-5087102D01*
X88806877Y-4961598D01*
X88961598Y-4806877D01*
X89087102Y-4627639D01*
X89179575Y-4429330D01*
X89236207Y-4217977D01*
X89255277Y-4000000D01*
X89236207Y-3782023D01*
X89179575Y-3570670D01*
X89087102Y-3372362D01*
X89087100Y-3372359D01*
X89087099Y-3372357D01*
X88961599Y-3193124D01*
X88961596Y-3193121D01*
X88806877Y-3038402D01*
X88627639Y-2912898D01*
X88627640Y-2912898D01*
X88627638Y-2912897D01*
X88528484Y-2866661D01*
X88429330Y-2820425D01*
X88429326Y-2820424D01*
X88429322Y-2820422D01*
X88217977Y-2763793D01*
X88000002Y-2744723D01*
X87999998Y-2744723D01*
X87854682Y-2757436D01*
X87782023Y-2763793D01*
X87782020Y-2763793D01*
X87570677Y-2820422D01*
X87570668Y-2820426D01*
X87372361Y-2912898D01*
X87372357Y-2912900D01*
X87193121Y-3038402D01*
X87038402Y-3193121D01*
X86912900Y-3372357D01*
X86912898Y-3372361D01*
X86820426Y-3570668D01*
X86820422Y-3570677D01*
X86763793Y-3782020D01*
X86763793Y-3782024D01*
X86744723Y-3999997D01*
X85733267Y-3999997D01*
X85824367Y-3833161D01*
X85924369Y-3565046D01*
X85966286Y-3372357D01*
X85985195Y-3285433D01*
X85985195Y-3285432D01*
X85985196Y-3285428D01*
X86005610Y-3000000D01*
X85985196Y-2714572D01*
X85970005Y-2644742D01*
X85924371Y-2434962D01*
X85924370Y-2434960D01*
X85924369Y-2434954D01*
X85824367Y-2166839D01*
X85687372Y-1915953D01*
X85687229Y-1915690D01*
X85687224Y-1915682D01*
X85515745Y-1686612D01*
X85515729Y-1686594D01*
X85313405Y-1484270D01*
X85313387Y-1484254D01*
X85084317Y-1312775D01*
X85084309Y-1312770D01*
X84833166Y-1175635D01*
X84833167Y-1175635D01*
X84725915Y-1135632D01*
X84565046Y-1075631D01*
X84565043Y-1075630D01*
X84565037Y-1075628D01*
X84285433Y-1014804D01*
X84000001Y-994390D01*
X83999999Y-994390D01*
X83714566Y-1014804D01*
X83434962Y-1075628D01*
X83166833Y-1175635D01*
X82915690Y-1312770D01*
X82915682Y-1312775D01*
X82686612Y-1484254D01*
X82686594Y-1484270D01*
X82484270Y-1686594D01*
X82484254Y-1686612D01*
X82312775Y-1915682D01*
X82312770Y-1915690D01*
X82175635Y-2166833D01*
X82075628Y-2434962D01*
X82014804Y-2714566D01*
X81994390Y-2999998D01*
X74005109Y-2999998D01*
X73984699Y-2714637D01*
X73923890Y-2435104D01*
X73823908Y-2167041D01*
X73686808Y-1915961D01*
X73686807Y-1915960D01*
X73580115Y-1773436D01*
X72677577Y-2675973D01*
X72664641Y-2644742D01*
X72582563Y-2521903D01*
X72478097Y-2417437D01*
X72355258Y-2335359D01*
X72324024Y-2322421D01*
X73226562Y-1419883D01*
X73226561Y-1419882D01*
X73084046Y-1313196D01*
X73084038Y-1313191D01*
X72832957Y-1176091D01*
X72832958Y-1176091D01*
X72564895Y-1076109D01*
X72285362Y-1015300D01*
X72000001Y-994891D01*
X71999999Y-994891D01*
X71714637Y-1015300D01*
X71435104Y-1076109D01*
X71167041Y-1176091D01*
X70915961Y-1313191D01*
X70915953Y-1313196D01*
X70773437Y-1419882D01*
X70773436Y-1419883D01*
X71675975Y-2322421D01*
X71644742Y-2335359D01*
X71521903Y-2417437D01*
X71417437Y-2521903D01*
X71335359Y-2644742D01*
X71322421Y-2675974D01*
X70419883Y-1773436D01*
X70419882Y-1773437D01*
X70313196Y-1915953D01*
X70313191Y-1915961D01*
X70176091Y-2167041D01*
X70076109Y-2435104D01*
X70015300Y-2714637D01*
X69994891Y-2999998D01*
X66752030Y-2999998D01*
X66627639Y-2912898D01*
X66627640Y-2912898D01*
X66627638Y-2912897D01*
X66528484Y-2866661D01*
X66429330Y-2820425D01*
X66429326Y-2820424D01*
X66429322Y-2820422D01*
X66217977Y-2763793D01*
X66000002Y-2744723D01*
X65999998Y-2744723D01*
X65854682Y-2757436D01*
X65782023Y-2763793D01*
X65782020Y-2763793D01*
X65570677Y-2820422D01*
X65570668Y-2820426D01*
X65372361Y-2912898D01*
X65372357Y-2912900D01*
X65193121Y-3038402D01*
X65038402Y-3193121D01*
X64912900Y-3372357D01*
X64912898Y-3372361D01*
X64820426Y-3570668D01*
X64820422Y-3570677D01*
X64763793Y-3782020D01*
X64763793Y-3782024D01*
X64744723Y-3999997D01*
X63733267Y-3999997D01*
X63824367Y-3833161D01*
X63924369Y-3565046D01*
X63966286Y-3372357D01*
X63985195Y-3285433D01*
X63985195Y-3285432D01*
X63985196Y-3285428D01*
X64005610Y-3000000D01*
X63985196Y-2714572D01*
X63970005Y-2644742D01*
X63924371Y-2434962D01*
X63924370Y-2434960D01*
X63924369Y-2434954D01*
X63824367Y-2166839D01*
X63687372Y-1915953D01*
X63687229Y-1915690D01*
X63687224Y-1915682D01*
X63515745Y-1686612D01*
X63515729Y-1686594D01*
X63313405Y-1484270D01*
X63313387Y-1484254D01*
X63084317Y-1312775D01*
X63084309Y-1312770D01*
X62833166Y-1175635D01*
X62833167Y-1175635D01*
X62725915Y-1135632D01*
X62565046Y-1075631D01*
X62565043Y-1075630D01*
X62565037Y-1075628D01*
X62285433Y-1014804D01*
X62000001Y-994390D01*
X61999999Y-994390D01*
X61714566Y-1014804D01*
X61434962Y-1075628D01*
X61166833Y-1175635D01*
X60915690Y-1312770D01*
X60915682Y-1312775D01*
X60686612Y-1484254D01*
X60686594Y-1484270D01*
X60484270Y-1686594D01*
X60484254Y-1686612D01*
X60312775Y-1915682D01*
X60312770Y-1915690D01*
X60175635Y-2166833D01*
X60075628Y-2434962D01*
X60014804Y-2714566D01*
X59994390Y-2999998D01*
X52005109Y-2999998D01*
X51984699Y-2714637D01*
X51923890Y-2435104D01*
X51823908Y-2167041D01*
X51686808Y-1915961D01*
X51686807Y-1915960D01*
X51580115Y-1773436D01*
X50677577Y-2675973D01*
X50664641Y-2644742D01*
X50582563Y-2521903D01*
X50478097Y-2417437D01*
X50355258Y-2335359D01*
X50324024Y-2322421D01*
X51226562Y-1419883D01*
X51226561Y-1419882D01*
X51084046Y-1313196D01*
X51084038Y-1313191D01*
X50832957Y-1176091D01*
X50832958Y-1176091D01*
X50564895Y-1076109D01*
X50285362Y-1015300D01*
X50000001Y-994891D01*
X49999999Y-994891D01*
X49714637Y-1015300D01*
X49435104Y-1076109D01*
X49167041Y-1176091D01*
X48915961Y-1313191D01*
X48915953Y-1313196D01*
X48773437Y-1419882D01*
X48773436Y-1419883D01*
X49675975Y-2322421D01*
X49644742Y-2335359D01*
X49521903Y-2417437D01*
X49417437Y-2521903D01*
X49335359Y-2644742D01*
X49322421Y-2675974D01*
X48419883Y-1773436D01*
X48419882Y-1773437D01*
X48313196Y-1915953D01*
X48313191Y-1915961D01*
X48176091Y-2167041D01*
X48076109Y-2435104D01*
X48015300Y-2714637D01*
X47994891Y-2999998D01*
X42752030Y-2999998D01*
X42627639Y-2912898D01*
X42627640Y-2912898D01*
X42627638Y-2912897D01*
X42528484Y-2866661D01*
X42429330Y-2820425D01*
X42429326Y-2820424D01*
X42429322Y-2820422D01*
X42217977Y-2763793D01*
X42000002Y-2744723D01*
X41999998Y-2744723D01*
X41854682Y-2757436D01*
X41782023Y-2763793D01*
X41782020Y-2763793D01*
X41570677Y-2820422D01*
X41570668Y-2820426D01*
X41372361Y-2912898D01*
X41372357Y-2912900D01*
X41193121Y-3038402D01*
X41038402Y-3193121D01*
X40912900Y-3372357D01*
X40912898Y-3372361D01*
X40820426Y-3570668D01*
X40820422Y-3570677D01*
X40763793Y-3782020D01*
X40763793Y-3782024D01*
X40744723Y-3999997D01*
X39733267Y-3999997D01*
X39824367Y-3833161D01*
X39924369Y-3565046D01*
X39966286Y-3372357D01*
X39985195Y-3285433D01*
X39985195Y-3285432D01*
X39985196Y-3285428D01*
X40005610Y-3000000D01*
X39985196Y-2714572D01*
X39970005Y-2644742D01*
X39924371Y-2434962D01*
X39924370Y-2434960D01*
X39924369Y-2434954D01*
X39824367Y-2166839D01*
X39687372Y-1915953D01*
X39687229Y-1915690D01*
X39687224Y-1915682D01*
X39515745Y-1686612D01*
X39515729Y-1686594D01*
X39313405Y-1484270D01*
X39313387Y-1484254D01*
X39084317Y-1312775D01*
X39084309Y-1312770D01*
X38833166Y-1175635D01*
X38833167Y-1175635D01*
X38725915Y-1135632D01*
X38565046Y-1075631D01*
X38565043Y-1075630D01*
X38565037Y-1075628D01*
X38285433Y-1014804D01*
X38000001Y-994390D01*
X37999999Y-994390D01*
X37714566Y-1014804D01*
X37434962Y-1075628D01*
X37166833Y-1175635D01*
X36915690Y-1312770D01*
X36915682Y-1312775D01*
X36686612Y-1484254D01*
X36686594Y-1484270D01*
X36484270Y-1686594D01*
X36484254Y-1686612D01*
X36312775Y-1915682D01*
X36312770Y-1915690D01*
X36175635Y-2166833D01*
X36075628Y-2434962D01*
X36014804Y-2714566D01*
X35994390Y-2999998D01*
X28005109Y-2999998D01*
X27984699Y-2714637D01*
X27923890Y-2435104D01*
X27823908Y-2167041D01*
X27686808Y-1915961D01*
X27686807Y-1915960D01*
X27580115Y-1773436D01*
X26677577Y-2675973D01*
X26664641Y-2644742D01*
X26582563Y-2521903D01*
X26478097Y-2417437D01*
X26355258Y-2335359D01*
X26324024Y-2322421D01*
X27226562Y-1419883D01*
X27226561Y-1419882D01*
X27084046Y-1313196D01*
X27084038Y-1313191D01*
X26832957Y-1176091D01*
X26832958Y-1176091D01*
X26564895Y-1076109D01*
X26285362Y-1015300D01*
X26000001Y-994891D01*
X25999999Y-994891D01*
X25714637Y-1015300D01*
X25435104Y-1076109D01*
X25167041Y-1176091D01*
X24915961Y-1313191D01*
X24915953Y-1313196D01*
X24773437Y-1419882D01*
X24773436Y-1419883D01*
X25675975Y-2322421D01*
X25644742Y-2335359D01*
X25521903Y-2417437D01*
X25417437Y-2521903D01*
X25335359Y-2644742D01*
X25322421Y-2675974D01*
X24419883Y-1773436D01*
X24419882Y-1773437D01*
X24313196Y-1915953D01*
X24313191Y-1915961D01*
X24176091Y-2167041D01*
X24076109Y-2435104D01*
X24015300Y-2714637D01*
X23994891Y-2999998D01*
X20752030Y-2999998D01*
X20627639Y-2912898D01*
X20627640Y-2912898D01*
X20627638Y-2912897D01*
X20528484Y-2866661D01*
X20429330Y-2820425D01*
X20429326Y-2820424D01*
X20429322Y-2820422D01*
X20217977Y-2763793D01*
X20000002Y-2744723D01*
X19999998Y-2744723D01*
X19854682Y-2757436D01*
X19782023Y-2763793D01*
X19782020Y-2763793D01*
X19570677Y-2820422D01*
X19570668Y-2820426D01*
X19372361Y-2912898D01*
X19372357Y-2912900D01*
X19193121Y-3038402D01*
X19038402Y-3193121D01*
X18912900Y-3372357D01*
X18912898Y-3372361D01*
X18820426Y-3570668D01*
X18820422Y-3570677D01*
X18763793Y-3782020D01*
X18763793Y-3782024D01*
X18744723Y-3999997D01*
X17733267Y-3999997D01*
X17824367Y-3833161D01*
X17924369Y-3565046D01*
X17966286Y-3372357D01*
X17985195Y-3285433D01*
X17985195Y-3285432D01*
X17985196Y-3285428D01*
X18005610Y-3000000D01*
X17985196Y-2714572D01*
X17970005Y-2644742D01*
X17924371Y-2434962D01*
X17924370Y-2434960D01*
X17924369Y-2434954D01*
X17824367Y-2166839D01*
X17687372Y-1915953D01*
X17687229Y-1915690D01*
X17687224Y-1915682D01*
X17515745Y-1686612D01*
X17515729Y-1686594D01*
X17313405Y-1484270D01*
X17313387Y-1484254D01*
X17084317Y-1312775D01*
X17084309Y-1312770D01*
X16833166Y-1175635D01*
X16833167Y-1175635D01*
X16725915Y-1135632D01*
X16565046Y-1075631D01*
X16565043Y-1075630D01*
X16565037Y-1075628D01*
X16285433Y-1014804D01*
X16000001Y-994390D01*
X15999999Y-994390D01*
X15714566Y-1014804D01*
X15434962Y-1075628D01*
X15166833Y-1175635D01*
X14915690Y-1312770D01*
X14915682Y-1312775D01*
X14686612Y-1484254D01*
X14686594Y-1484270D01*
X14484270Y-1686594D01*
X14484254Y-1686612D01*
X14312775Y-1915682D01*
X14312770Y-1915690D01*
X14175635Y-2166833D01*
X14075628Y-2434962D01*
X14014804Y-2714566D01*
X13994390Y-2999998D01*
X6005109Y-2999998D01*
X5984699Y-2714637D01*
X5923890Y-2435104D01*
X5823908Y-2167041D01*
X5686808Y-1915961D01*
X5686807Y-1915960D01*
X5580115Y-1773436D01*
X4677577Y-2675973D01*
X4664641Y-2644742D01*
X4582563Y-2521903D01*
X4478097Y-2417437D01*
X4355258Y-2335359D01*
X4324024Y-2322421D01*
X5226562Y-1419883D01*
X5226561Y-1419882D01*
X5084046Y-1313196D01*
X5084038Y-1313191D01*
X4832957Y-1176091D01*
X4832958Y-1176091D01*
X4564895Y-1076109D01*
X4285362Y-1015300D01*
X4000001Y-994891D01*
X3999999Y-994891D01*
X3714637Y-1015300D01*
X3435104Y-1076109D01*
X3167041Y-1176091D01*
X2915961Y-1313191D01*
X2915953Y-1313196D01*
X2773437Y-1419882D01*
X2773436Y-1419883D01*
X3675975Y-2322421D01*
X3644742Y-2335359D01*
X3521903Y-2417437D01*
X3417437Y-2521903D01*
X3335359Y-2644742D01*
X3322421Y-2675974D01*
X2419883Y-1773436D01*
X2419882Y-1773437D01*
X2313196Y-1915953D01*
X2313191Y-1915961D01*
X2176091Y-2167041D01*
X2076109Y-2435104D01*
X2015300Y-2714637D01*
X1994891Y-2999998D01*
X400500Y-2999998D01*
X400500Y-524500D01*
X420185Y-457461D01*
X472989Y-411706D01*
X524500Y-400500D01*
X89475500Y-400500D01*
X89542539Y-420185D01*
G37*
%TD.AperFunction*%
%TD*%
M02*
