%TF.GenerationSoftware,KiCad,Pcbnew,8.0.6*%
%TF.CreationDate,2024-12-08T18:35:23+09:00*%
%TF.ProjectId,backplane,6261636b-706c-4616-9e65-2e6b69636164,rev?*%
%TF.SameCoordinates,Original*%
%TF.FileFunction,Copper,L1,Top*%
%TF.FilePolarity,Positive*%
%FSLAX46Y46*%
G04 Gerber Fmt 4.6, Leading zero omitted, Abs format (unit mm)*
G04 Created by KiCad (PCBNEW 8.0.6) date 2024-12-08 18:35:23*
%MOMM*%
%LPD*%
G01*
G04 APERTURE LIST*
G04 Aperture macros list*
%AMRoundRect*
0 Rectangle with rounded corners*
0 $1 Rounding radius*
0 $2 $3 $4 $5 $6 $7 $8 $9 X,Y pos of 4 corners*
0 Add a 4 corners polygon primitive as box body*
4,1,4,$2,$3,$4,$5,$6,$7,$8,$9,$2,$3,0*
0 Add four circle primitives for the rounded corners*
1,1,$1+$1,$2,$3*
1,1,$1+$1,$4,$5*
1,1,$1+$1,$6,$7*
1,1,$1+$1,$8,$9*
0 Add four rect primitives between the rounded corners*
20,1,$1+$1,$2,$3,$4,$5,0*
20,1,$1+$1,$4,$5,$6,$7,0*
20,1,$1+$1,$6,$7,$8,$9,0*
20,1,$1+$1,$8,$9,$2,$3,0*%
%AMFreePoly0*
4,1,13,0.900000,0.500000,2.600000,0.500000,2.600000,-0.500000,0.900000,-0.500000,0.400000,-1.000000,-0.400000,-1.000000,-0.900000,-0.500000,-2.600000,-0.500000,-2.600000,0.500000,-0.900000,0.500000,-0.400000,1.000000,0.400000,1.000000,0.900000,0.500000,0.900000,0.500000,$1*%
G04 Aperture macros list end*
%TA.AperFunction,ComponentPad*%
%ADD10C,3.000000*%
%TD*%
%TA.AperFunction,ComponentPad*%
%ADD11R,1.600000X1.600000*%
%TD*%
%TA.AperFunction,ComponentPad*%
%ADD12O,1.600000X1.600000*%
%TD*%
%TA.AperFunction,ComponentPad*%
%ADD13C,1.600000*%
%TD*%
%TA.AperFunction,ComponentPad*%
%ADD14C,2.000000*%
%TD*%
%TA.AperFunction,ComponentPad*%
%ADD15O,2.000000X2.000000*%
%TD*%
%TA.AperFunction,ComponentPad*%
%ADD16C,1.500000*%
%TD*%
%TA.AperFunction,SMDPad,CuDef*%
%ADD17RoundRect,0.175000X-0.575000X-0.175000X0.575000X-0.175000X0.575000X0.175000X-0.575000X0.175000X0*%
%TD*%
%TA.AperFunction,SMDPad,CuDef*%
%ADD18FreePoly0,0.000000*%
%TD*%
%TA.AperFunction,ViaPad*%
%ADD19C,0.600000*%
%TD*%
%TA.AperFunction,Conductor*%
%ADD20C,1.000000*%
%TD*%
G04 APERTURE END LIST*
D10*
%TO.P,TP6,1,1*%
%TO.N,+12V*%
X16000000Y-3000000D03*
%TD*%
%TO.P,TP18,1,1*%
%TO.N,GND*%
X50000000Y-3000000D03*
%TD*%
D11*
%TO.P,D3,1,K*%
%TO.N,+12V*%
X51000000Y-7000000D03*
D12*
%TO.P,D3,2,A*%
%TO.N,Net-(D3-A)*%
X51000000Y-14620000D03*
%TD*%
D11*
%TO.P,C7,1*%
%TO.N,+12V*%
X79500000Y-6000000D03*
D13*
%TO.P,C7,2*%
%TO.N,GND*%
X77000000Y-6000000D03*
%TD*%
%TO.P,C8,1*%
%TO.N,Net-(U4-CSN)*%
X88350000Y-19000000D03*
%TO.P,C8,2*%
%TO.N,Net-(C8-Pad2)*%
X88350000Y-24000000D03*
%TD*%
D14*
%TO.P,L5,1,1*%
%TO.N,Net-(C6-Pad2)*%
X60350000Y-19000000D03*
D15*
%TO.P,L5,2,2*%
%TO.N,Net-(D3-A)*%
X47650000Y-19000000D03*
%TD*%
D11*
%TO.P,D2,1,K*%
%TO.N,+12V*%
X27000000Y-7000000D03*
D12*
%TO.P,D2,2,A*%
%TO.N,Net-(D2-A)*%
X27000000Y-14620000D03*
%TD*%
D11*
%TO.P,D4,1,K*%
%TO.N,+12V*%
X73000000Y-7000000D03*
D12*
%TO.P,D4,2,A*%
%TO.N,Net-(D4-A)*%
X73000000Y-14620000D03*
%TD*%
D16*
%TO.P,TP12,1,1*%
%TO.N,GND*%
X24000000Y-7000000D03*
%TD*%
D13*
%TO.P,R7,1*%
%TO.N,+12V*%
X88000000Y-7000000D03*
D12*
%TO.P,R7,2*%
%TO.N,Net-(U4-CSN)*%
X88000000Y-14620000D03*
%TD*%
D13*
%TO.P,R4,1*%
%TO.N,+12V*%
X38000000Y-7000000D03*
D12*
%TO.P,R4,2*%
%TO.N,Net-(U2-CSN)*%
X38000000Y-14620000D03*
%TD*%
D13*
%TO.P,R6,1*%
%TO.N,+12V*%
X62000000Y-7000000D03*
D12*
%TO.P,R6,2*%
%TO.N,Net-(U3-CSN)*%
X62000000Y-14620000D03*
%TD*%
D14*
%TO.P,L3,1,1*%
%TO.N,Net-(C4-Pad2)*%
X36350000Y-19000000D03*
D15*
%TO.P,L3,2,2*%
%TO.N,Net-(D2-A)*%
X23650000Y-19000000D03*
%TD*%
D13*
%TO.P,R5,1*%
%TO.N,+12V*%
X66000000Y-7000000D03*
D12*
%TO.P,R5,2*%
%TO.N,Net-(U3-CSN)*%
X66000000Y-14620000D03*
%TD*%
D16*
%TO.P,TP13,1,1*%
%TO.N,Net-(U2-CSN)*%
X39350000Y-19000000D03*
%TD*%
%TO.P,TP21,1,1*%
%TO.N,Net-(C6-Pad2)*%
X63350000Y-24000000D03*
%TD*%
%TO.P,TP19,1,1*%
%TO.N,GND*%
X48000000Y-7000000D03*
%TD*%
D17*
%TO.P,U2,1,SW*%
%TO.N,Net-(D2-A)*%
X30150000Y-11500000D03*
D18*
%TO.P,U2,2,GND*%
%TO.N,GND*%
X32000000Y-13000000D03*
D17*
%TO.P,U2,3,DIM*%
%TO.N,Net-(U2-DIM)*%
X30150000Y-14500000D03*
%TO.P,U2,4,CSN*%
%TO.N,Net-(U2-CSN)*%
X33850000Y-14500000D03*
%TO.P,U2,5,VIN*%
%TO.N,+12V*%
X33850000Y-11500000D03*
%TD*%
D13*
%TO.P,R1,1*%
%TO.N,+12V*%
X20000000Y-7000000D03*
D12*
%TO.P,R1,2*%
%TO.N,Net-(U1-CSN)*%
X20000000Y-14620000D03*
%TD*%
D17*
%TO.P,U1,1,SW*%
%TO.N,Net-(D1-A)*%
X8150000Y-11500000D03*
D18*
%TO.P,U1,2,GND*%
%TO.N,GND*%
X10000000Y-13000000D03*
D17*
%TO.P,U1,3,DIM*%
%TO.N,Net-(U1-DIM)*%
X8150000Y-14500000D03*
%TO.P,U1,4,CSN*%
%TO.N,Net-(U1-CSN)*%
X11850000Y-14500000D03*
%TO.P,U1,5,VIN*%
%TO.N,+12V*%
X11850000Y-11500000D03*
%TD*%
D10*
%TO.P,TP11,1,1*%
%TO.N,GND*%
X26000000Y-3000000D03*
%TD*%
D16*
%TO.P,TP1,1,1*%
%TO.N,Net-(U1-CSN)*%
X17350000Y-19000000D03*
%TD*%
D11*
%TO.P,C1,1*%
%TO.N,+12V*%
X11500000Y-6000000D03*
D13*
%TO.P,C1,2*%
%TO.N,GND*%
X9000000Y-6000000D03*
%TD*%
%TO.P,R2,1*%
%TO.N,+12V*%
X16000000Y-7000000D03*
D12*
%TO.P,R2,2*%
%TO.N,Net-(U1-CSN)*%
X16000000Y-14620000D03*
%TD*%
D10*
%TO.P,TP7,1,1*%
%TO.N,GND*%
X4000000Y-3000000D03*
%TD*%
D16*
%TO.P,TP10,1,1*%
%TO.N,Net-(U2-DIM)*%
X24000000Y-14000000D03*
%TD*%
%TO.P,TP16,1,1*%
%TO.N,+12V*%
X66000000Y-4000000D03*
%TD*%
D14*
%TO.P,L2,1,1*%
%TO.N,Net-(C2-Pad2)*%
X14350000Y-24000000D03*
D15*
%TO.P,L2,2,2*%
%TO.N,Net-(D1-A)*%
X1650000Y-24000000D03*
%TD*%
D14*
%TO.P,L8,1,1*%
%TO.N,Net-(C8-Pad2)*%
X82350000Y-24000000D03*
D15*
%TO.P,L8,2,2*%
%TO.N,Net-(D4-A)*%
X69650000Y-24000000D03*
%TD*%
D16*
%TO.P,TP26,1,1*%
%TO.N,GND*%
X70000000Y-7000000D03*
%TD*%
D14*
%TO.P,L7,1,1*%
%TO.N,Net-(C8-Pad2)*%
X82350000Y-19000000D03*
D15*
%TO.P,L7,2,2*%
%TO.N,Net-(D4-A)*%
X69650000Y-19000000D03*
%TD*%
D16*
%TO.P,TP17,1,1*%
%TO.N,Net-(U3-DIM)*%
X48000000Y-14000000D03*
%TD*%
D11*
%TO.P,C3,1*%
%TO.N,+12V*%
X33500000Y-6000000D03*
D13*
%TO.P,C3,2*%
%TO.N,GND*%
X31000000Y-6000000D03*
%TD*%
D16*
%TO.P,TP2,1,1*%
%TO.N,+12V*%
X20000000Y-4000000D03*
%TD*%
D11*
%TO.P,D1,1,K*%
%TO.N,+12V*%
X5000000Y-7000000D03*
D12*
%TO.P,D1,2,A*%
%TO.N,Net-(D1-A)*%
X5000000Y-14620000D03*
%TD*%
D16*
%TO.P,TP3,1,1*%
%TO.N,GND*%
X2000000Y-7000000D03*
%TD*%
D14*
%TO.P,L1,1,1*%
%TO.N,Net-(C2-Pad2)*%
X14350000Y-19000000D03*
D15*
%TO.P,L1,2,2*%
%TO.N,Net-(D1-A)*%
X1650000Y-19000000D03*
%TD*%
D16*
%TO.P,TP14,1,1*%
%TO.N,Net-(C4-Pad2)*%
X39350000Y-24000000D03*
%TD*%
D10*
%TO.P,TP8,1,1*%
%TO.N,+12V*%
X38000000Y-3000000D03*
%TD*%
D16*
%TO.P,TP20,1,1*%
%TO.N,Net-(U3-CSN)*%
X63350000Y-19000000D03*
%TD*%
D10*
%TO.P,TP22,1,1*%
%TO.N,+12V*%
X84000000Y-3000000D03*
%TD*%
%TO.P,TP15,1,1*%
%TO.N,+12V*%
X62000000Y-3000000D03*
%TD*%
D16*
%TO.P,TP27,1,1*%
%TO.N,Net-(U4-CSN)*%
X85350000Y-19000000D03*
%TD*%
D17*
%TO.P,U3,1,SW*%
%TO.N,Net-(D3-A)*%
X54150000Y-11500000D03*
D18*
%TO.P,U3,2,GND*%
%TO.N,GND*%
X56000000Y-13000000D03*
D17*
%TO.P,U3,3,DIM*%
%TO.N,Net-(U3-DIM)*%
X54150000Y-14500000D03*
%TO.P,U3,4,CSN*%
%TO.N,Net-(U3-CSN)*%
X57850000Y-14500000D03*
%TO.P,U3,5,VIN*%
%TO.N,+12V*%
X57850000Y-11500000D03*
%TD*%
D13*
%TO.P,R3,1*%
%TO.N,+12V*%
X42000000Y-7000000D03*
D12*
%TO.P,R3,2*%
%TO.N,Net-(U2-CSN)*%
X42000000Y-14620000D03*
%TD*%
D16*
%TO.P,TP28,1,1*%
%TO.N,Net-(C8-Pad2)*%
X85350000Y-24000000D03*
%TD*%
D13*
%TO.P,C4,1*%
%TO.N,Net-(U2-CSN)*%
X42350000Y-19000000D03*
%TO.P,C4,2*%
%TO.N,Net-(C4-Pad2)*%
X42350000Y-24000000D03*
%TD*%
D11*
%TO.P,C5,1*%
%TO.N,+12V*%
X57500000Y-6000000D03*
D13*
%TO.P,C5,2*%
%TO.N,GND*%
X55000000Y-6000000D03*
%TD*%
D16*
%TO.P,TP24,1,1*%
%TO.N,Net-(U4-DIM)*%
X70000000Y-14000000D03*
%TD*%
D13*
%TO.P,C6,1*%
%TO.N,Net-(U3-CSN)*%
X66350000Y-19000000D03*
%TO.P,C6,2*%
%TO.N,Net-(C6-Pad2)*%
X66350000Y-24000000D03*
%TD*%
D14*
%TO.P,L4,1,1*%
%TO.N,Net-(C4-Pad2)*%
X36350000Y-24000000D03*
D15*
%TO.P,L4,2,2*%
%TO.N,Net-(D2-A)*%
X23650000Y-24000000D03*
%TD*%
D10*
%TO.P,TP25,1,1*%
%TO.N,GND*%
X72000000Y-3000000D03*
%TD*%
D16*
%TO.P,TP23,1,1*%
%TO.N,+12V*%
X88000000Y-4000000D03*
%TD*%
%TO.P,TP9,1,1*%
%TO.N,+12V*%
X42000000Y-4000000D03*
%TD*%
D13*
%TO.P,C2,1*%
%TO.N,Net-(U1-CSN)*%
X20350000Y-19000000D03*
%TO.P,C2,2*%
%TO.N,Net-(C2-Pad2)*%
X20350000Y-24000000D03*
%TD*%
D16*
%TO.P,TP4,1,1*%
%TO.N,Net-(C2-Pad2)*%
X17350000Y-24000000D03*
%TD*%
%TO.P,TP5,1,1*%
%TO.N,Net-(U1-DIM)*%
X2000000Y-14000000D03*
%TD*%
D14*
%TO.P,L6,1,1*%
%TO.N,Net-(C6-Pad2)*%
X60350000Y-24000000D03*
D15*
%TO.P,L6,2,2*%
%TO.N,Net-(D3-A)*%
X47650000Y-24000000D03*
%TD*%
D17*
%TO.P,U4,1,SW*%
%TO.N,Net-(D4-A)*%
X76150000Y-11500000D03*
D18*
%TO.P,U4,2,GND*%
%TO.N,GND*%
X78000000Y-13000000D03*
D17*
%TO.P,U4,3,DIM*%
%TO.N,Net-(U4-DIM)*%
X76150000Y-14500000D03*
%TO.P,U4,4,CSN*%
%TO.N,Net-(U4-CSN)*%
X79850000Y-14500000D03*
%TO.P,U4,5,VIN*%
%TO.N,+12V*%
X79850000Y-11500000D03*
%TD*%
D13*
%TO.P,R8,1*%
%TO.N,+12V*%
X84000000Y-7000000D03*
D12*
%TO.P,R8,2*%
%TO.N,Net-(U4-CSN)*%
X84000000Y-14620000D03*
%TD*%
D19*
%TO.N,GND*%
X76175000Y-9911750D03*
X27915000Y-9911750D03*
X32995000Y-2291750D03*
X10135000Y-17531750D03*
X5055000Y-9911750D03*
X55855000Y-14991750D03*
X2515000Y-9911750D03*
X58395000Y-22611750D03*
X27915000Y-17531750D03*
X58395000Y-20071750D03*
X40615000Y-12451750D03*
X53315000Y-2291750D03*
X55855000Y-22611750D03*
X78715000Y-20071750D03*
X68555000Y-9911750D03*
X32995000Y-22611750D03*
X53315000Y-9911750D03*
X30455000Y-20071750D03*
X58395000Y-2291750D03*
X71095000Y-12451750D03*
X7595000Y-20071750D03*
X88875000Y-9911750D03*
X30455000Y-2291750D03*
X68555000Y-4831750D03*
X10135000Y-25151750D03*
X78715000Y-17531750D03*
X76175000Y-2291750D03*
X7595000Y-25151750D03*
X17755000Y-9911750D03*
X45695000Y-22611750D03*
X50775000Y-20071750D03*
X45695000Y-14991750D03*
X76175000Y-25151750D03*
X10135000Y-14991750D03*
X76175000Y-20071750D03*
X53315000Y-20071750D03*
X60935000Y-12451750D03*
X78715000Y-22611750D03*
X7595000Y-22611750D03*
X55855000Y-17531750D03*
X38075000Y-12451750D03*
X40615000Y-22611750D03*
X73635000Y-20071750D03*
X15215000Y-12451750D03*
X7595000Y-9911750D03*
X78715000Y-25151750D03*
X32995000Y-17531750D03*
X55855000Y-25151750D03*
X7595000Y-17531750D03*
X66015000Y-9911750D03*
X30455000Y-17531750D03*
X50775000Y-17531750D03*
X22835000Y-12451750D03*
X58395000Y-17531750D03*
X68555000Y-2291750D03*
X25375000Y-9911750D03*
X73635000Y-17531750D03*
X48235000Y-9911750D03*
X22835000Y-2291750D03*
X5055000Y-17531750D03*
X53315000Y-17531750D03*
X63475000Y-9911750D03*
X43155000Y-9911750D03*
X71095000Y-9911750D03*
X53315000Y-22611750D03*
X76175000Y-17531750D03*
X73635000Y-25151750D03*
X88875000Y-12451750D03*
X55855000Y-20071750D03*
X58395000Y-25151750D03*
X43155000Y-2291750D03*
X25375000Y-12451750D03*
X45695000Y-20071750D03*
X68555000Y-12451750D03*
X53315000Y-25151750D03*
X27915000Y-20071750D03*
X45695000Y-25151750D03*
X63475000Y-12451750D03*
X83795000Y-12451750D03*
X45695000Y-12451750D03*
X45695000Y-17531750D03*
X30455000Y-22611750D03*
X30455000Y-9911750D03*
X50775000Y-22611750D03*
X20295000Y-12451750D03*
X55855000Y-2291750D03*
X17755000Y-12451750D03*
X12675000Y-22611750D03*
X10135000Y-2291750D03*
X43155000Y-12451750D03*
X5055000Y-25151750D03*
X27915000Y-22611750D03*
X38075000Y-22611750D03*
X38075000Y-9911750D03*
X40615000Y-9911750D03*
X27915000Y-25151750D03*
X5055000Y-22611750D03*
X50775000Y-25151750D03*
X66015000Y-12451750D03*
X78715000Y-2291750D03*
X73635000Y-22611750D03*
X25375000Y-22611750D03*
X10135000Y-20071750D03*
X86335000Y-12451750D03*
X12675000Y-17531750D03*
X20295000Y-9911750D03*
X76175000Y-22611750D03*
X30455000Y-25151750D03*
X73635000Y-9911750D03*
X22835000Y-9911750D03*
X32995000Y-25151750D03*
X7595000Y-2291750D03*
X32995000Y-20071750D03*
X86335000Y-9911750D03*
X45695000Y-4831750D03*
X5055000Y-20071750D03*
X10135000Y-22611750D03*
X50775000Y-9911750D03*
X45695000Y-2291750D03*
%TD*%
D20*
%TO.N,GND*%
X2000000Y-7000000D02*
X2000000Y-5000000D01*
X75000000Y-6000000D02*
X72000000Y-3000000D01*
X55000000Y-6000000D02*
X53000000Y-6000000D01*
X24000000Y-5000000D02*
X26000000Y-3000000D01*
X29000000Y-6000000D02*
X26000000Y-3000000D01*
X9000000Y-7131370D02*
X9000000Y-6000000D01*
X24000000Y-7000000D02*
X24000000Y-5000000D01*
X53000000Y-6000000D02*
X50000000Y-3000000D01*
X32000000Y-13000000D02*
X32000000Y-8131370D01*
X78000000Y-13000000D02*
X78000000Y-8131370D01*
X48000000Y-5000000D02*
X50000000Y-3000000D01*
X10000000Y-8131370D02*
X9000000Y-7131370D01*
X56000000Y-8131370D02*
X55000000Y-7131370D01*
X55000000Y-7131370D02*
X55000000Y-6000000D01*
X7000000Y-6000000D02*
X4000000Y-3000000D01*
X56000000Y-13000000D02*
X56000000Y-8131370D01*
X70000000Y-5000000D02*
X72000000Y-3000000D01*
X48000000Y-7000000D02*
X48000000Y-5000000D01*
X77000000Y-7131370D02*
X77000000Y-6000000D01*
X77000000Y-6000000D02*
X75000000Y-6000000D01*
X9000000Y-6000000D02*
X7000000Y-6000000D01*
X31000000Y-6000000D02*
X29000000Y-6000000D01*
X31000000Y-7131370D02*
X31000000Y-6000000D01*
X32000000Y-8131370D02*
X31000000Y-7131370D01*
X78000000Y-8131370D02*
X77000000Y-7131370D01*
X2000000Y-5000000D02*
X4000000Y-3000000D01*
X70000000Y-7000000D02*
X70000000Y-5000000D01*
X10000000Y-13000000D02*
X10000000Y-8131370D01*
%TO.N,+12V*%
X66000000Y-7000000D02*
X62000000Y-7000000D01*
X20000000Y-4000000D02*
X20000000Y-7000000D01*
X79850000Y-6350000D02*
X79500000Y-6000000D01*
X62000000Y-7000000D02*
X62000000Y-7350000D01*
X87000000Y-3000000D02*
X88000000Y-4000000D01*
X79500000Y-6000000D02*
X81000000Y-6000000D01*
X59000000Y-6000000D02*
X62000000Y-3000000D01*
X33850000Y-6350000D02*
X33500000Y-6000000D01*
X81000000Y-6000000D02*
X84000000Y-3000000D01*
X42000000Y-7000000D02*
X45878679Y-7000000D01*
X47378679Y-8500000D02*
X49500000Y-8500000D01*
X62000000Y-3000000D02*
X65000000Y-3000000D01*
X35000000Y-6000000D02*
X38000000Y-3000000D01*
X16000000Y-3000000D02*
X19000000Y-3000000D01*
X11500000Y-6000000D02*
X13000000Y-6000000D01*
X38000000Y-3000000D02*
X41000000Y-3000000D01*
X84000000Y-7350000D02*
X79850000Y-11500000D01*
X41000000Y-3000000D02*
X42000000Y-4000000D01*
X20000000Y-7000000D02*
X16000000Y-7000000D01*
X11850000Y-6350000D02*
X11500000Y-6000000D01*
X33500000Y-6000000D02*
X35000000Y-6000000D01*
X38000000Y-7000000D02*
X38000000Y-7350000D01*
X11850000Y-11500000D02*
X11850000Y-6350000D01*
X20000000Y-7000000D02*
X21500000Y-8500000D01*
X57850000Y-11500000D02*
X57850000Y-6350000D01*
X79850000Y-11500000D02*
X79850000Y-6350000D01*
X33850000Y-11500000D02*
X33850000Y-6350000D01*
X62000000Y-7350000D02*
X57850000Y-11500000D01*
X16000000Y-7350000D02*
X11850000Y-11500000D01*
X42000000Y-7000000D02*
X38000000Y-7000000D01*
X49500000Y-8500000D02*
X51000000Y-7000000D01*
X13000000Y-6000000D02*
X16000000Y-3000000D01*
X65000000Y-3000000D02*
X66000000Y-4000000D01*
X25500000Y-8500000D02*
X27000000Y-7000000D01*
X84000000Y-7000000D02*
X84000000Y-7350000D01*
X16000000Y-7000000D02*
X16000000Y-7350000D01*
X57500000Y-6000000D02*
X59000000Y-6000000D01*
X21500000Y-8500000D02*
X25500000Y-8500000D01*
X67500000Y-8500000D02*
X71500000Y-8500000D01*
X66000000Y-4000000D02*
X66000000Y-7000000D01*
X57850000Y-6350000D02*
X57500000Y-6000000D01*
X45878679Y-7000000D02*
X47378679Y-8500000D01*
X66000000Y-7000000D02*
X67500000Y-8500000D01*
X84000000Y-3000000D02*
X87000000Y-3000000D01*
X71500000Y-8500000D02*
X73000000Y-7000000D01*
X88000000Y-7000000D02*
X84000000Y-7000000D01*
X42000000Y-4000000D02*
X42000000Y-7000000D01*
X88000000Y-4000000D02*
X88000000Y-7000000D01*
X38000000Y-7350000D02*
X33850000Y-11500000D01*
X19000000Y-3000000D02*
X20000000Y-4000000D01*
%TO.N,Net-(C2-Pad2)*%
X17350000Y-24000000D02*
X20350000Y-24000000D01*
X14350000Y-24000000D02*
X17350000Y-24000000D01*
X14350000Y-19000000D02*
X14350000Y-24000000D01*
%TO.N,Net-(U1-CSN)*%
X15880000Y-14500000D02*
X16000000Y-14620000D01*
X17350000Y-15970000D02*
X16000000Y-14620000D01*
X17350000Y-19000000D02*
X17350000Y-15970000D01*
X11850000Y-14500000D02*
X15880000Y-14500000D01*
X20000000Y-18650000D02*
X20350000Y-19000000D01*
X16000000Y-14620000D02*
X20000000Y-14620000D01*
X20350000Y-19000000D02*
X17350000Y-19000000D01*
X20000000Y-14620000D02*
X20000000Y-18650000D01*
%TO.N,Net-(D1-A)*%
X1650000Y-24000000D02*
X1650000Y-19000000D01*
X6988630Y-11500000D02*
X8150000Y-11500000D01*
X5000000Y-13488630D02*
X6988630Y-11500000D01*
X5000000Y-14620000D02*
X5000000Y-13488630D01*
%TO.N,Net-(U1-DIM)*%
X4170000Y-16170000D02*
X6480000Y-16170000D01*
X2000000Y-14000000D02*
X4170000Y-16170000D01*
X6480000Y-16170000D02*
X8150000Y-14500000D01*
%TO.N,Net-(U2-CSN)*%
X42000000Y-18650000D02*
X42350000Y-19000000D01*
X33850000Y-14500000D02*
X37880000Y-14500000D01*
X39350000Y-15970000D02*
X38000000Y-14620000D01*
X42000000Y-14620000D02*
X42000000Y-18650000D01*
X37880000Y-14500000D02*
X38000000Y-14620000D01*
X38000000Y-14620000D02*
X42000000Y-14620000D01*
X39350000Y-19000000D02*
X39350000Y-15970000D01*
X42350000Y-19000000D02*
X39350000Y-19000000D01*
%TO.N,Net-(C4-Pad2)*%
X39350000Y-24000000D02*
X42350000Y-24000000D01*
X36350000Y-24000000D02*
X39350000Y-24000000D01*
X36350000Y-19000000D02*
X36350000Y-24000000D01*
%TO.N,Net-(U3-CSN)*%
X66000000Y-14620000D02*
X66000000Y-18650000D01*
X57850000Y-14500000D02*
X61880000Y-14500000D01*
X63350000Y-15970000D02*
X62000000Y-14620000D01*
X66000000Y-18650000D02*
X66350000Y-19000000D01*
X63350000Y-19000000D02*
X63350000Y-15970000D01*
X66350000Y-19000000D02*
X63350000Y-19000000D01*
X61880000Y-14500000D02*
X62000000Y-14620000D01*
X62000000Y-14620000D02*
X66000000Y-14620000D01*
%TO.N,Net-(C6-Pad2)*%
X63350000Y-24000000D02*
X66350000Y-24000000D01*
X60350000Y-24000000D02*
X63350000Y-24000000D01*
X60350000Y-19000000D02*
X60350000Y-24000000D01*
%TO.N,Net-(U4-CSN)*%
X85350000Y-19000000D02*
X85350000Y-15970000D01*
X85350000Y-15970000D02*
X84000000Y-14620000D01*
X84000000Y-14620000D02*
X88000000Y-14620000D01*
X83880000Y-14500000D02*
X84000000Y-14620000D01*
X88000000Y-14620000D02*
X88000000Y-18650000D01*
X88000000Y-18650000D02*
X88350000Y-19000000D01*
X88350000Y-19000000D02*
X85350000Y-19000000D01*
X79850000Y-14500000D02*
X83880000Y-14500000D01*
%TO.N,Net-(C8-Pad2)*%
X82350000Y-24000000D02*
X85350000Y-24000000D01*
X82350000Y-19000000D02*
X82350000Y-24000000D01*
X85350000Y-24000000D02*
X88350000Y-24000000D01*
%TO.N,Net-(D2-A)*%
X27000000Y-13488630D02*
X28988630Y-11500000D01*
X27000000Y-14620000D02*
X27000000Y-13488630D01*
X28988630Y-11500000D02*
X30150000Y-11500000D01*
X23650000Y-24000000D02*
X23650000Y-19000000D01*
%TO.N,Net-(D3-A)*%
X52988630Y-11500000D02*
X54150000Y-11500000D01*
X51000000Y-13488630D02*
X52988630Y-11500000D01*
X51000000Y-14620000D02*
X51000000Y-13488630D01*
X47650000Y-24000000D02*
X47650000Y-19000000D01*
%TO.N,Net-(D4-A)*%
X69650000Y-24000000D02*
X69650000Y-19000000D01*
X73000000Y-14620000D02*
X73000000Y-13488630D01*
X74988630Y-11500000D02*
X76150000Y-11500000D01*
X73000000Y-13488630D02*
X74988630Y-11500000D01*
%TO.N,Net-(U2-DIM)*%
X26170000Y-16170000D02*
X28480000Y-16170000D01*
X24000000Y-14000000D02*
X26170000Y-16170000D01*
X28480000Y-16170000D02*
X30150000Y-14500000D01*
%TO.N,Net-(U3-DIM)*%
X48000000Y-14000000D02*
X50170000Y-16170000D01*
X52480000Y-16170000D02*
X54150000Y-14500000D01*
X50170000Y-16170000D02*
X52480000Y-16170000D01*
%TO.N,Net-(U4-DIM)*%
X72170000Y-16170000D02*
X74480000Y-16170000D01*
X70000000Y-14000000D02*
X72170000Y-16170000D01*
X74480000Y-16170000D02*
X76150000Y-14500000D01*
%TD*%
%TA.AperFunction,Conductor*%
%TO.N,+12V*%
G36*
X84969798Y-1817381D02*
G01*
X87160666Y-2511607D01*
X88630260Y-3584501D01*
X88762982Y-6165982D01*
X88762982Y-6165984D01*
X88808534Y-7051946D01*
X88792318Y-7119908D01*
X88789110Y-7125202D01*
X88465706Y-7630029D01*
X88412968Y-7675860D01*
X88396925Y-7681911D01*
X88008274Y-7798505D01*
X87971181Y-7803725D01*
X84167382Y-7758869D01*
X84167381Y-7758869D01*
X80591219Y-11816609D01*
X80532125Y-11853888D01*
X80492737Y-11858502D01*
X79229044Y-11802868D01*
X79162935Y-11780254D01*
X79119547Y-11725489D01*
X79110797Y-11687588D01*
X79000798Y-10104494D01*
X79000500Y-10095899D01*
X79000500Y-8236045D01*
X79000501Y-8236024D01*
X79000501Y-8032827D01*
X79000500Y-8032825D01*
X78962053Y-7839542D01*
X78962052Y-7839535D01*
X78886632Y-7657456D01*
X78886631Y-7657455D01*
X78886627Y-7657447D01*
X78851772Y-7605284D01*
X78842599Y-7591556D01*
X78822000Y-7531265D01*
X78662011Y-5228719D01*
X78677002Y-5160478D01*
X78710230Y-5121747D01*
X83040392Y-1799349D01*
X84969798Y-1817381D01*
G37*
%TD.AperFunction*%
%TD*%
%TA.AperFunction,Conductor*%
%TO.N,+12V*%
G36*
X62951220Y-1817207D02*
G01*
X62987513Y-1822994D01*
X64295765Y-2237543D01*
X65141361Y-2505490D01*
X65177020Y-2523547D01*
X66582571Y-3549685D01*
X66625109Y-3605113D01*
X66633291Y-3643468D01*
X66808534Y-7051946D01*
X66792318Y-7119908D01*
X66789110Y-7125202D01*
X66465706Y-7630029D01*
X66412968Y-7675860D01*
X66396925Y-7681911D01*
X66008274Y-7798505D01*
X65971181Y-7803725D01*
X62167382Y-7758869D01*
X62167381Y-7758869D01*
X58591219Y-11816609D01*
X58532125Y-11853888D01*
X58492737Y-11858502D01*
X57229044Y-11802868D01*
X57162935Y-11780254D01*
X57119547Y-11725489D01*
X57110797Y-11687588D01*
X57000798Y-10104494D01*
X57000500Y-10095899D01*
X57000500Y-8236045D01*
X57000501Y-8236024D01*
X57000501Y-8032827D01*
X57000500Y-8032825D01*
X56962053Y-7839542D01*
X56962052Y-7839535D01*
X56886632Y-7657456D01*
X56886631Y-7657455D01*
X56886627Y-7657447D01*
X56851772Y-7605284D01*
X56842599Y-7591556D01*
X56822000Y-7531265D01*
X56662011Y-5228720D01*
X56677002Y-5160479D01*
X56710230Y-5121747D01*
X61006487Y-1825363D01*
X61071655Y-1800173D01*
X61083118Y-1799748D01*
X62951220Y-1817207D01*
G37*
%TD.AperFunction*%
%TD*%
%TA.AperFunction,Conductor*%
%TO.N,Net-(U4-CSN)*%
G36*
X88035714Y-13800542D02*
G01*
X88062127Y-13823329D01*
X88774641Y-14639273D01*
X88803909Y-14702717D01*
X88804808Y-14710492D01*
X89158950Y-18941876D01*
X89144925Y-19010324D01*
X89111511Y-19050098D01*
X88184565Y-19771055D01*
X88119562Y-19796675D01*
X88106812Y-19797164D01*
X85352545Y-19761082D01*
X85285769Y-19740521D01*
X85247289Y-19699964D01*
X84865014Y-19050098D01*
X84656597Y-18695789D01*
X84656594Y-18695787D01*
X84656594Y-18695786D01*
X79247877Y-14875047D01*
X79204479Y-14820290D01*
X79195670Y-14781625D01*
X79188578Y-14669932D01*
X79163898Y-14281208D01*
X79179295Y-14213058D01*
X79229094Y-14164049D01*
X79278016Y-14149728D01*
X83984050Y-13783221D01*
X83993584Y-13782848D01*
X87968667Y-13780890D01*
X88035714Y-13800542D01*
G37*
%TD.AperFunction*%
%TD*%
%TA.AperFunction,Conductor*%
%TO.N,Net-(U2-CSN)*%
G36*
X42035714Y-13800542D02*
G01*
X42062127Y-13823329D01*
X42774641Y-14639273D01*
X42803909Y-14702717D01*
X42804808Y-14710492D01*
X43158950Y-18941876D01*
X43144925Y-19010324D01*
X43111511Y-19050098D01*
X42184565Y-19771055D01*
X42119562Y-19796675D01*
X42106812Y-19797164D01*
X39352545Y-19761082D01*
X39285769Y-19740521D01*
X39247289Y-19699964D01*
X38865014Y-19050098D01*
X38656597Y-18695789D01*
X38656594Y-18695787D01*
X38656594Y-18695786D01*
X33247877Y-14875047D01*
X33204479Y-14820290D01*
X33195670Y-14781625D01*
X33188578Y-14669932D01*
X33163898Y-14281208D01*
X33179295Y-14213058D01*
X33229094Y-14164049D01*
X33278016Y-14149728D01*
X37984050Y-13783221D01*
X37993584Y-13782848D01*
X41968667Y-13780890D01*
X42035714Y-13800542D01*
G37*
%TD.AperFunction*%
%TD*%
%TA.AperFunction,Conductor*%
%TO.N,Net-(U1-CSN)*%
G36*
X20035714Y-13800542D02*
G01*
X20062127Y-13823329D01*
X20774641Y-14639273D01*
X20803909Y-14702717D01*
X20804808Y-14710492D01*
X21158950Y-18941876D01*
X21144925Y-19010324D01*
X21111511Y-19050098D01*
X20184565Y-19771055D01*
X20119562Y-19796675D01*
X20106812Y-19797164D01*
X17352545Y-19761082D01*
X17285769Y-19740521D01*
X17247289Y-19699964D01*
X16865014Y-19050098D01*
X16656597Y-18695789D01*
X16656594Y-18695787D01*
X16656594Y-18695786D01*
X11247877Y-14875047D01*
X11204479Y-14820290D01*
X11195670Y-14781625D01*
X11188578Y-14669932D01*
X11163898Y-14281208D01*
X11179295Y-14213058D01*
X11229094Y-14164049D01*
X11278016Y-14149728D01*
X15984050Y-13783221D01*
X15993584Y-13782848D01*
X19968667Y-13780890D01*
X20035714Y-13800542D01*
G37*
%TD.AperFunction*%
%TD*%
%TA.AperFunction,Conductor*%
%TO.N,+12V*%
G36*
X84951220Y-817207D02*
G01*
X84987513Y-822994D01*
X86295765Y-1237543D01*
X87141361Y-1505490D01*
X87177020Y-1523547D01*
X88582571Y-2549685D01*
X88625109Y-2605113D01*
X88633291Y-2643468D01*
X88808534Y-6051945D01*
X88792318Y-6119907D01*
X88789110Y-6125201D01*
X88762982Y-6165984D01*
X88762982Y-6165987D01*
X88440926Y-6668711D01*
X87990130Y-6803949D01*
X84167382Y-6758870D01*
X80551999Y-10861112D01*
X79118469Y-10798000D01*
X79000500Y-9100206D01*
X79000500Y-8236045D01*
X79000501Y-8236024D01*
X79000501Y-8032827D01*
X79000500Y-8032825D01*
X78962053Y-7839542D01*
X78962052Y-7839535D01*
X78902996Y-7696964D01*
X78662011Y-4228720D01*
X78677002Y-4160479D01*
X78710230Y-4121747D01*
X83006487Y-825363D01*
X83071655Y-800173D01*
X83083118Y-799748D01*
X84951220Y-817207D01*
G37*
%TD.AperFunction*%
%TD*%
%TA.AperFunction,Conductor*%
%TO.N,Net-(U3-CSN)*%
G36*
X66035714Y-13800542D02*
G01*
X66062127Y-13823329D01*
X66774641Y-14639273D01*
X66803909Y-14702717D01*
X66804808Y-14710492D01*
X67158950Y-18941876D01*
X67144925Y-19010324D01*
X67111511Y-19050098D01*
X66184565Y-19771055D01*
X66119562Y-19796675D01*
X66106812Y-19797164D01*
X63352545Y-19761082D01*
X63285769Y-19740521D01*
X63247289Y-19699964D01*
X62865014Y-19050098D01*
X62656597Y-18695789D01*
X62656594Y-18695787D01*
X62656594Y-18695786D01*
X57247877Y-14875047D01*
X57204479Y-14820290D01*
X57195670Y-14781625D01*
X57188578Y-14669932D01*
X57163898Y-14281208D01*
X57179295Y-14213058D01*
X57229094Y-14164049D01*
X57278016Y-14149728D01*
X61984050Y-13783221D01*
X61993584Y-13782848D01*
X65968667Y-13780890D01*
X66035714Y-13800542D01*
G37*
%TD.AperFunction*%
%TD*%
%TA.AperFunction,Conductor*%
%TO.N,GND*%
G36*
X82431533Y-420185D02*
G01*
X82477288Y-472989D01*
X82487232Y-542147D01*
X82458207Y-605703D01*
X82439982Y-622874D01*
X79943928Y-2538019D01*
X78402514Y-3720697D01*
X78326565Y-3792609D01*
X78293344Y-3831332D01*
X78293343Y-3831333D01*
X78233829Y-3917316D01*
X78183275Y-4052017D01*
X78168666Y-4118517D01*
X78168338Y-4119914D01*
X78168281Y-4120265D01*
X78157727Y-4263756D01*
X78157727Y-4263759D01*
X78206062Y-4959408D01*
X78198454Y-5011571D01*
X78183274Y-5052017D01*
X78168666Y-5118516D01*
X78168338Y-5119913D01*
X78168281Y-5120263D01*
X78165659Y-5155913D01*
X78141108Y-5221327D01*
X78106216Y-5247335D01*
X77400000Y-5953551D01*
X77400000Y-5947339D01*
X77372741Y-5845606D01*
X77320080Y-5754394D01*
X77245606Y-5679920D01*
X77154394Y-5627259D01*
X77052661Y-5600000D01*
X77046448Y-5600000D01*
X77725472Y-4920974D01*
X77652478Y-4869863D01*
X77446331Y-4773735D01*
X77446317Y-4773730D01*
X77226610Y-4714860D01*
X77226599Y-4714858D01*
X77000002Y-4695034D01*
X76999998Y-4695034D01*
X76773400Y-4714858D01*
X76773389Y-4714860D01*
X76553682Y-4773730D01*
X76553673Y-4773734D01*
X76347516Y-4869866D01*
X76347512Y-4869868D01*
X76274526Y-4920973D01*
X76274526Y-4920974D01*
X76953553Y-5600000D01*
X76947339Y-5600000D01*
X76845606Y-5627259D01*
X76754394Y-5679920D01*
X76679920Y-5754394D01*
X76627259Y-5845606D01*
X76600000Y-5947339D01*
X76600000Y-5953552D01*
X75920974Y-5274526D01*
X75920973Y-5274526D01*
X75869868Y-5347512D01*
X75869866Y-5347516D01*
X75773734Y-5553673D01*
X75773730Y-5553682D01*
X75714860Y-5773389D01*
X75714858Y-5773400D01*
X75695034Y-5999997D01*
X75695034Y-6000002D01*
X75714858Y-6226599D01*
X75714860Y-6226610D01*
X75773730Y-6446317D01*
X75773735Y-6446331D01*
X75869863Y-6652478D01*
X75920974Y-6725472D01*
X76600000Y-6046446D01*
X76600000Y-6052661D01*
X76627259Y-6154394D01*
X76679920Y-6245606D01*
X76754394Y-6320080D01*
X76845606Y-6372741D01*
X76947339Y-6400000D01*
X76953553Y-6400000D01*
X76274526Y-7079025D01*
X76347513Y-7130132D01*
X76347521Y-7130136D01*
X76553668Y-7226264D01*
X76553682Y-7226269D01*
X76773389Y-7285139D01*
X76773400Y-7285141D01*
X76999998Y-7304966D01*
X77000002Y-7304966D01*
X77226599Y-7285141D01*
X77226610Y-7285139D01*
X77446317Y-7226269D01*
X77446331Y-7226264D01*
X77652478Y-7130136D01*
X77725471Y-7079024D01*
X77046447Y-6400000D01*
X77052661Y-6400000D01*
X77154394Y-6372741D01*
X77245606Y-6320080D01*
X77320080Y-6245606D01*
X77372741Y-6154394D01*
X77400000Y-6052661D01*
X77400000Y-6046447D01*
X78084197Y-6730644D01*
X78133192Y-6740491D01*
X78183375Y-6789106D01*
X78198049Y-6844632D01*
X78199099Y-6844576D01*
X78199146Y-6844571D01*
X78199146Y-6844573D01*
X78199324Y-6844564D01*
X78199501Y-6847876D01*
X78205908Y-6907483D01*
X78256202Y-7042327D01*
X78256202Y-7042328D01*
X78256203Y-7042330D01*
X78256204Y-7042331D01*
X78261973Y-7050038D01*
X78286392Y-7115500D01*
X78286410Y-7115754D01*
X78299557Y-7304966D01*
X78317716Y-7566304D01*
X78342613Y-7689571D01*
X78343650Y-7694702D01*
X78343650Y-7694705D01*
X78364243Y-7754976D01*
X78364247Y-7754988D01*
X78405850Y-7839139D01*
X78422295Y-7872402D01*
X78431467Y-7886128D01*
X78431467Y-7886129D01*
X78431883Y-7886752D01*
X78431918Y-7886804D01*
X78443330Y-7908172D01*
X78471303Y-7975702D01*
X78478359Y-7998962D01*
X78486987Y-8042331D01*
X78492618Y-8070643D01*
X78495001Y-8094830D01*
X78495001Y-8234560D01*
X78495000Y-8234603D01*
X78495000Y-10095920D01*
X78495303Y-10113409D01*
X78495601Y-10122007D01*
X78496512Y-10139499D01*
X78496514Y-10139533D01*
X78541666Y-10789351D01*
X78599202Y-11617407D01*
X78599500Y-11626002D01*
X78599500Y-11729594D01*
X78605685Y-11797657D01*
X78605686Y-11797662D01*
X78605687Y-11797664D01*
X78654485Y-11954263D01*
X78654488Y-11954272D01*
X78739348Y-12094648D01*
X78739351Y-12094652D01*
X78855347Y-12210648D01*
X78855351Y-12210651D01*
X78995727Y-12295511D01*
X78995730Y-12295512D01*
X79152343Y-12344315D01*
X79220406Y-12350500D01*
X79284396Y-12350500D01*
X79351435Y-12370185D01*
X79353286Y-12371398D01*
X79376083Y-12386630D01*
X79376090Y-12386634D01*
X79504833Y-12439961D01*
X79547744Y-12457735D01*
X79558164Y-12462051D01*
X79654812Y-12481275D01*
X79703135Y-12490887D01*
X79751458Y-12500500D01*
X79751459Y-12500500D01*
X79948542Y-12500500D01*
X79967870Y-12496655D01*
X80045188Y-12481275D01*
X80141836Y-12462051D01*
X80195165Y-12439961D01*
X80323914Y-12386632D01*
X80331660Y-12381456D01*
X80398333Y-12360573D01*
X80405995Y-12360672D01*
X80470504Y-12363513D01*
X80551550Y-12360569D01*
X80590938Y-12355955D01*
X80670457Y-12340092D01*
X80801833Y-12281425D01*
X80859868Y-12244813D01*
X80860772Y-12244257D01*
X80860927Y-12244146D01*
X80860932Y-12244143D01*
X80970457Y-12150838D01*
X83614296Y-9150968D01*
X83619613Y-9145306D01*
X84459710Y-8305209D01*
X84521031Y-8271726D01*
X84548844Y-8268901D01*
X87965220Y-8309190D01*
X88041625Y-8304293D01*
X88078718Y-8299073D01*
X88078724Y-8299071D01*
X88081052Y-8298744D01*
X88081055Y-8298770D01*
X88089644Y-8297624D01*
X88226692Y-8285635D01*
X88446496Y-8226739D01*
X88652734Y-8130568D01*
X88839139Y-8000047D01*
X89000047Y-7839139D01*
X89130568Y-7652734D01*
X89226739Y-7446496D01*
X89231385Y-7429159D01*
X89269973Y-7285141D01*
X89278439Y-7253541D01*
X89282931Y-7239966D01*
X89284015Y-7237228D01*
X89288628Y-7217894D01*
X89300231Y-7169267D01*
X89313367Y-7025990D01*
X89313366Y-7025982D01*
X89313367Y-7025979D01*
X89275485Y-6289207D01*
X89283299Y-6241647D01*
X89282682Y-6241453D01*
X89284010Y-6237240D01*
X89284015Y-6237228D01*
X89300231Y-6169266D01*
X89313367Y-6025990D01*
X89313366Y-6025982D01*
X89313367Y-6025979D01*
X89248984Y-4773735D01*
X89223958Y-4286991D01*
X89228020Y-4248532D01*
X89236205Y-4217984D01*
X89236204Y-4217984D01*
X89236207Y-4217977D01*
X89255277Y-4000000D01*
X89236207Y-3782023D01*
X89192310Y-3618199D01*
X89188250Y-3592475D01*
X89187740Y-3582563D01*
X89138124Y-2617513D01*
X89127667Y-2538006D01*
X89119485Y-2499651D01*
X89096588Y-2422800D01*
X89026126Y-2297354D01*
X88983588Y-2241926D01*
X88983586Y-2241924D01*
X88880636Y-2141411D01*
X88880634Y-2141409D01*
X87475090Y-1115276D01*
X87475069Y-1115263D01*
X87405404Y-1072582D01*
X87405392Y-1072575D01*
X87405385Y-1072571D01*
X87405375Y-1072566D01*
X87405359Y-1072557D01*
X87369746Y-1054523D01*
X87369720Y-1054511D01*
X87294071Y-1023609D01*
X87294064Y-1023606D01*
X87294058Y-1023604D01*
X87294050Y-1023601D01*
X87294046Y-1023600D01*
X86439405Y-752786D01*
X86439369Y-752776D01*
X86092006Y-642706D01*
X86034047Y-603692D01*
X86006380Y-539534D01*
X86017791Y-470602D01*
X86064658Y-418783D01*
X86129465Y-400500D01*
X89475500Y-400500D01*
X89542539Y-420185D01*
X89588294Y-472989D01*
X89599500Y-524500D01*
X89599500Y-15176366D01*
X89579815Y-15243405D01*
X89527011Y-15289160D01*
X89457853Y-15299104D01*
X89394297Y-15270079D01*
X89356523Y-15211301D01*
X89351932Y-15186708D01*
X89351066Y-15176366D01*
X89308547Y-14668332D01*
X89306962Y-14652429D01*
X89306960Y-14652406D01*
X89305952Y-14643694D01*
X89306173Y-14643668D01*
X89305752Y-14625415D01*
X89305468Y-14625415D01*
X89305468Y-14619998D01*
X89299801Y-14555230D01*
X89285635Y-14393308D01*
X89231276Y-14190437D01*
X89226741Y-14173511D01*
X89226738Y-14173502D01*
X89167159Y-14045736D01*
X89130568Y-13967266D01*
X89000047Y-13780861D01*
X89000045Y-13780858D01*
X88839141Y-13619954D01*
X88652734Y-13489432D01*
X88652732Y-13489431D01*
X88446497Y-13393261D01*
X88446488Y-13393258D01*
X88221464Y-13332964D01*
X88221639Y-13332309D01*
X88200383Y-13325705D01*
X88177898Y-13315450D01*
X88110843Y-13295795D01*
X87968425Y-13275390D01*
X87968418Y-13275390D01*
X83993335Y-13277348D01*
X83986017Y-13277492D01*
X83973807Y-13277734D01*
X83964310Y-13278106D01*
X83964302Y-13278106D01*
X83964288Y-13278107D01*
X83952202Y-13278813D01*
X83944797Y-13279247D01*
X81121503Y-13499126D01*
X81111875Y-13499500D01*
X79751457Y-13499500D01*
X79558170Y-13537947D01*
X79558160Y-13537950D01*
X79376093Y-13613364D01*
X79376076Y-13613374D01*
X79366279Y-13619919D01*
X79307028Y-13640436D01*
X79238779Y-13645752D01*
X79238766Y-13645754D01*
X79221797Y-13648863D01*
X79210679Y-13650383D01*
X79158287Y-13655144D01*
X79152343Y-13655685D01*
X79152340Y-13655685D01*
X79152335Y-13655687D01*
X78995736Y-13704485D01*
X78995727Y-13704488D01*
X78855351Y-13789348D01*
X78855347Y-13789351D01*
X78739351Y-13905347D01*
X78739348Y-13905351D01*
X78654488Y-14045727D01*
X78654485Y-14045736D01*
X78605687Y-14202335D01*
X78605685Y-14202343D01*
X78599500Y-14270406D01*
X78599500Y-14729594D01*
X78605685Y-14797657D01*
X78605686Y-14797662D01*
X78605687Y-14797664D01*
X78654485Y-14954263D01*
X78654488Y-14954272D01*
X78739348Y-15094648D01*
X78739350Y-15094650D01*
X78739352Y-15094653D01*
X78855347Y-15210648D01*
X78889836Y-15231497D01*
X78897140Y-15235913D01*
X78918216Y-15251961D01*
X78956220Y-15287923D01*
X78956221Y-15287924D01*
X81893125Y-17362564D01*
X81936523Y-17417321D01*
X81943428Y-17486849D01*
X81911647Y-17549072D01*
X81861844Y-17581124D01*
X81745197Y-17621169D01*
X81745188Y-17621172D01*
X81526493Y-17739524D01*
X81330257Y-17892261D01*
X81161833Y-18075217D01*
X81025826Y-18283393D01*
X80925936Y-18511118D01*
X80864892Y-18752175D01*
X80864890Y-18752187D01*
X80844357Y-18999994D01*
X80844357Y-19000005D01*
X80864890Y-19247812D01*
X80864892Y-19247824D01*
X80925936Y-19488881D01*
X81025826Y-19716606D01*
X81161833Y-19924782D01*
X81161836Y-19924785D01*
X81316730Y-20093045D01*
X81347652Y-20155698D01*
X81349500Y-20177027D01*
X81349500Y-22822971D01*
X81329815Y-22890010D01*
X81316730Y-22906953D01*
X81161836Y-23075214D01*
X81025826Y-23283393D01*
X80925936Y-23511118D01*
X80864892Y-23752175D01*
X80864890Y-23752187D01*
X80844357Y-23999994D01*
X80844357Y-24000005D01*
X80864890Y-24247812D01*
X80864892Y-24247824D01*
X80925936Y-24488881D01*
X81025826Y-24716606D01*
X81161833Y-24924782D01*
X81161836Y-24924785D01*
X81330256Y-25107738D01*
X81526491Y-25260474D01*
X81745190Y-25378828D01*
X81980386Y-25459571D01*
X82225665Y-25500500D01*
X82474335Y-25500500D01*
X82719614Y-25459571D01*
X82954810Y-25378828D01*
X83173509Y-25260474D01*
X83369744Y-25107738D01*
X83419948Y-25053202D01*
X83431626Y-25040517D01*
X83491513Y-25004526D01*
X83522855Y-25000500D01*
X84559583Y-25000500D01*
X84626622Y-25020185D01*
X84630706Y-25022925D01*
X84722356Y-25087099D01*
X84722358Y-25087100D01*
X84722361Y-25087102D01*
X84920670Y-25179575D01*
X85132023Y-25236207D01*
X85314926Y-25252208D01*
X85349998Y-25255277D01*
X85350000Y-25255277D01*
X85350002Y-25255277D01*
X85378254Y-25252805D01*
X85567977Y-25236207D01*
X85779330Y-25179575D01*
X85977639Y-25087102D01*
X86026053Y-25053202D01*
X86069294Y-25022925D01*
X86135500Y-25000598D01*
X86140417Y-25000500D01*
X87472412Y-25000500D01*
X87539451Y-25020185D01*
X87543523Y-25022917D01*
X87697266Y-25130568D01*
X87903504Y-25226739D01*
X87903509Y-25226740D01*
X87903511Y-25226741D01*
X87938839Y-25236207D01*
X88123308Y-25285635D01*
X88285230Y-25299801D01*
X88349998Y-25305468D01*
X88350000Y-25305468D01*
X88350002Y-25305468D01*
X88406673Y-25300509D01*
X88576692Y-25285635D01*
X88796496Y-25226739D01*
X89002734Y-25130568D01*
X89189139Y-25000047D01*
X89350047Y-24839139D01*
X89373925Y-24805036D01*
X89428500Y-24761412D01*
X89497999Y-24754218D01*
X89560354Y-24785740D01*
X89595768Y-24845969D01*
X89599500Y-24876160D01*
X89599500Y-26475500D01*
X89579815Y-26542539D01*
X89527011Y-26588294D01*
X89475500Y-26599500D01*
X524500Y-26599500D01*
X457461Y-26579815D01*
X411706Y-26527011D01*
X400500Y-26475500D01*
X400500Y-25175940D01*
X420185Y-25108901D01*
X472989Y-25063146D01*
X542147Y-25053202D01*
X605703Y-25082227D01*
X615725Y-25091953D01*
X630256Y-25107738D01*
X826491Y-25260474D01*
X1045190Y-25378828D01*
X1280386Y-25459571D01*
X1525665Y-25500500D01*
X1774335Y-25500500D01*
X2019614Y-25459571D01*
X2254810Y-25378828D01*
X2473509Y-25260474D01*
X2669744Y-25107738D01*
X2838164Y-24924785D01*
X2974173Y-24716607D01*
X3074063Y-24488881D01*
X3135108Y-24247821D01*
X3135109Y-24247812D01*
X3155643Y-24000005D01*
X3155643Y-23999994D01*
X3135109Y-23752187D01*
X3135107Y-23752175D01*
X3074063Y-23511118D01*
X2974173Y-23283393D01*
X2894117Y-23160858D01*
X2838164Y-23075215D01*
X2832217Y-23068754D01*
X2683270Y-22906953D01*
X2652348Y-22844299D01*
X2650500Y-22822971D01*
X2650500Y-20177027D01*
X2670185Y-20109988D01*
X2683265Y-20093049D01*
X2838164Y-19924785D01*
X2974173Y-19716607D01*
X3074063Y-19488881D01*
X3135108Y-19247821D01*
X3149709Y-19071616D01*
X3155643Y-19000005D01*
X3155643Y-18999994D01*
X3135109Y-18752187D01*
X3135107Y-18752175D01*
X3074063Y-18511118D01*
X2974173Y-18283393D01*
X2838166Y-18075217D01*
X2816557Y-18051744D01*
X2669744Y-17892262D01*
X2473509Y-17739526D01*
X2473507Y-17739525D01*
X2473506Y-17739524D01*
X2254811Y-17621172D01*
X2254802Y-17621169D01*
X2019616Y-17540429D01*
X1774335Y-17499500D01*
X1525665Y-17499500D01*
X1280383Y-17540429D01*
X1045197Y-17621169D01*
X1045188Y-17621172D01*
X826493Y-17739524D01*
X630255Y-17892262D01*
X630252Y-17892265D01*
X615729Y-17908042D01*
X555842Y-17944033D01*
X486004Y-17941932D01*
X428388Y-17902408D01*
X401287Y-17838008D01*
X400500Y-17824059D01*
X400500Y-14000000D01*
X744723Y-14000000D01*
X762425Y-14202345D01*
X763793Y-14217975D01*
X763793Y-14217979D01*
X820422Y-14429322D01*
X820424Y-14429326D01*
X820425Y-14429330D01*
X866661Y-14528484D01*
X912897Y-14627638D01*
X924140Y-14643694D01*
X1038402Y-14806877D01*
X1193123Y-14961598D01*
X1372361Y-15087102D01*
X1570670Y-15179575D01*
X1570676Y-15179576D01*
X1570677Y-15179577D01*
X1652675Y-15201548D01*
X1782023Y-15236207D01*
X1782028Y-15236207D01*
X1787351Y-15237146D01*
X1787064Y-15238771D01*
X1845139Y-15261474D01*
X1856963Y-15271883D01*
X3392860Y-16807781D01*
X3392861Y-16807782D01*
X3532218Y-16947139D01*
X3696086Y-17056632D01*
X3802745Y-17100811D01*
X3878164Y-17132051D01*
X4071454Y-17170499D01*
X4071457Y-17170500D01*
X4071459Y-17170500D01*
X6578542Y-17170500D01*
X6597870Y-17166655D01*
X6675188Y-17151275D01*
X6771836Y-17132051D01*
X6825165Y-17109961D01*
X6953914Y-17056632D01*
X7117782Y-16947139D01*
X7257139Y-16807782D01*
X7257139Y-16807780D01*
X7267347Y-16797573D01*
X7267348Y-16797570D01*
X8678102Y-15386819D01*
X8739425Y-15353334D01*
X8765783Y-15350500D01*
X8779591Y-15350500D01*
X8779594Y-15350500D01*
X8847657Y-15344315D01*
X9004270Y-15295512D01*
X9144653Y-15210648D01*
X9260648Y-15094653D01*
X9268926Y-15080958D01*
X9345511Y-14954272D01*
X9345514Y-14954263D01*
X9394315Y-14797657D01*
X9400500Y-14729594D01*
X9400500Y-14270406D01*
X10599500Y-14270406D01*
X10599500Y-14729594D01*
X10605685Y-14797657D01*
X10605686Y-14797662D01*
X10605687Y-14797664D01*
X10654485Y-14954263D01*
X10654488Y-14954272D01*
X10739348Y-15094648D01*
X10739350Y-15094650D01*
X10739352Y-15094653D01*
X10855347Y-15210648D01*
X10889836Y-15231497D01*
X10897140Y-15235913D01*
X10918216Y-15251961D01*
X10956220Y-15287923D01*
X10956221Y-15287924D01*
X13893125Y-17362564D01*
X13936523Y-17417321D01*
X13943428Y-17486849D01*
X13911647Y-17549072D01*
X13861844Y-17581124D01*
X13745197Y-17621169D01*
X13745188Y-17621172D01*
X13526493Y-17739524D01*
X13330257Y-17892261D01*
X13161833Y-18075217D01*
X13025826Y-18283393D01*
X12925936Y-18511118D01*
X12864892Y-18752175D01*
X12864890Y-18752187D01*
X12844357Y-18999994D01*
X12844357Y-19000005D01*
X12864890Y-19247812D01*
X12864892Y-19247824D01*
X12925936Y-19488881D01*
X13025826Y-19716606D01*
X13161833Y-19924782D01*
X13161836Y-19924785D01*
X13316730Y-20093045D01*
X13347652Y-20155698D01*
X13349500Y-20177027D01*
X13349500Y-22822971D01*
X13329815Y-22890010D01*
X13316730Y-22906953D01*
X13161836Y-23075214D01*
X13025826Y-23283393D01*
X12925936Y-23511118D01*
X12864892Y-23752175D01*
X12864890Y-23752187D01*
X12844357Y-23999994D01*
X12844357Y-24000005D01*
X12864890Y-24247812D01*
X12864892Y-24247824D01*
X12925936Y-24488881D01*
X13025826Y-24716606D01*
X13161833Y-24924782D01*
X13161836Y-24924785D01*
X13330256Y-25107738D01*
X13526491Y-25260474D01*
X13745190Y-25378828D01*
X13980386Y-25459571D01*
X14225665Y-25500500D01*
X14474335Y-25500500D01*
X14719614Y-25459571D01*
X14954810Y-25378828D01*
X15173509Y-25260474D01*
X15369744Y-25107738D01*
X15419948Y-25053202D01*
X15431626Y-25040517D01*
X15491513Y-25004526D01*
X15522855Y-25000500D01*
X16559583Y-25000500D01*
X16626622Y-25020185D01*
X16630706Y-25022925D01*
X16722356Y-25087099D01*
X16722358Y-25087100D01*
X16722361Y-25087102D01*
X16920670Y-25179575D01*
X17132023Y-25236207D01*
X17314926Y-25252208D01*
X17349998Y-25255277D01*
X17350000Y-25255277D01*
X17350002Y-25255277D01*
X17378254Y-25252805D01*
X17567977Y-25236207D01*
X17779330Y-25179575D01*
X17977639Y-25087102D01*
X18026053Y-25053202D01*
X18069294Y-25022925D01*
X18135500Y-25000598D01*
X18140417Y-25000500D01*
X19472412Y-25000500D01*
X19539451Y-25020185D01*
X19543523Y-25022917D01*
X19697266Y-25130568D01*
X19903504Y-25226739D01*
X19903509Y-25226740D01*
X19903511Y-25226741D01*
X19938839Y-25236207D01*
X20123308Y-25285635D01*
X20285230Y-25299801D01*
X20349998Y-25305468D01*
X20350000Y-25305468D01*
X20350002Y-25305468D01*
X20406673Y-25300509D01*
X20576692Y-25285635D01*
X20796496Y-25226739D01*
X21002734Y-25130568D01*
X21189139Y-25000047D01*
X21350047Y-24839139D01*
X21480568Y-24652734D01*
X21576739Y-24446496D01*
X21635635Y-24226692D01*
X21655468Y-24000000D01*
X21655467Y-23999994D01*
X21635635Y-23773313D01*
X21635635Y-23773308D01*
X21576739Y-23553504D01*
X21480568Y-23347266D01*
X21350047Y-23160861D01*
X21350045Y-23160858D01*
X21189141Y-22999954D01*
X21002734Y-22869432D01*
X21002732Y-22869431D01*
X20796497Y-22773261D01*
X20796488Y-22773258D01*
X20576697Y-22714366D01*
X20576693Y-22714365D01*
X20576692Y-22714365D01*
X20576691Y-22714364D01*
X20576686Y-22714364D01*
X20350002Y-22694532D01*
X20349998Y-22694532D01*
X20123313Y-22714364D01*
X20123302Y-22714366D01*
X19903511Y-22773258D01*
X19903502Y-22773261D01*
X19697267Y-22869431D01*
X19697265Y-22869432D01*
X19543535Y-22977075D01*
X19477329Y-22999402D01*
X19472412Y-22999500D01*
X18140417Y-22999500D01*
X18073378Y-22979815D01*
X18069294Y-22977075D01*
X17977643Y-22912900D01*
X17977639Y-22912898D01*
X17933385Y-22892262D01*
X17779330Y-22820425D01*
X17779326Y-22820424D01*
X17779322Y-22820422D01*
X17567977Y-22763793D01*
X17350002Y-22744723D01*
X17349998Y-22744723D01*
X17204682Y-22757436D01*
X17132023Y-22763793D01*
X17132020Y-22763793D01*
X16920677Y-22820422D01*
X16920668Y-22820426D01*
X16722361Y-22912898D01*
X16722357Y-22912900D01*
X16630707Y-22977075D01*
X16564501Y-22999402D01*
X16559584Y-22999500D01*
X15522855Y-22999500D01*
X15455816Y-22979815D01*
X15431625Y-22959483D01*
X15383270Y-22906955D01*
X15352348Y-22844300D01*
X15350500Y-22822972D01*
X15350500Y-20177027D01*
X15370185Y-20109988D01*
X15383265Y-20093049D01*
X15538164Y-19924785D01*
X15674173Y-19716607D01*
X15774063Y-19488881D01*
X15835108Y-19247821D01*
X15851715Y-19047394D01*
X15876868Y-18982214D01*
X15933269Y-18940975D01*
X16003013Y-18936776D01*
X16063955Y-18970950D01*
X16096747Y-19032647D01*
X16098819Y-19046830D01*
X16113793Y-19217976D01*
X16113793Y-19217979D01*
X16170422Y-19429322D01*
X16170424Y-19429326D01*
X16170425Y-19429330D01*
X16198194Y-19488881D01*
X16262897Y-19627638D01*
X16262898Y-19627639D01*
X16388402Y-19806877D01*
X16543123Y-19961598D01*
X16722361Y-20087102D01*
X16920670Y-20179575D01*
X17132023Y-20236207D01*
X17183208Y-20240684D01*
X17200336Y-20243400D01*
X17203772Y-20244194D01*
X17203789Y-20244199D01*
X17345921Y-20266538D01*
X17345922Y-20266539D01*
X20100182Y-20302621D01*
X20100186Y-20302620D01*
X20100190Y-20302621D01*
X20126185Y-20302293D01*
X20134153Y-20301987D01*
X20138938Y-20301804D01*
X20142918Y-20301548D01*
X20164916Y-20300136D01*
X20178925Y-20296816D01*
X20218318Y-20293947D01*
X20334649Y-20304124D01*
X20349999Y-20305468D01*
X20350000Y-20305468D01*
X20350002Y-20305468D01*
X20410956Y-20300135D01*
X20576692Y-20285635D01*
X20796496Y-20226739D01*
X21002734Y-20130568D01*
X21189139Y-20000047D01*
X21350047Y-19839139D01*
X21480568Y-19652734D01*
X21576739Y-19446496D01*
X21635635Y-19226692D01*
X21649202Y-19071608D01*
X21651250Y-19057545D01*
X21653427Y-19046922D01*
X21654125Y-19043968D01*
X21656735Y-18999994D01*
X22144357Y-18999994D01*
X22144357Y-19000005D01*
X22164890Y-19247812D01*
X22164892Y-19247824D01*
X22225936Y-19488881D01*
X22325826Y-19716606D01*
X22461833Y-19924782D01*
X22461836Y-19924785D01*
X22616730Y-20093045D01*
X22647652Y-20155698D01*
X22649500Y-20177027D01*
X22649500Y-22822971D01*
X22629815Y-22890010D01*
X22616730Y-22906953D01*
X22461836Y-23075214D01*
X22325826Y-23283393D01*
X22225936Y-23511118D01*
X22164892Y-23752175D01*
X22164890Y-23752187D01*
X22144357Y-23999994D01*
X22144357Y-24000005D01*
X22164890Y-24247812D01*
X22164892Y-24247824D01*
X22225936Y-24488881D01*
X22325826Y-24716606D01*
X22461833Y-24924782D01*
X22461836Y-24924785D01*
X22630256Y-25107738D01*
X22826491Y-25260474D01*
X23045190Y-25378828D01*
X23280386Y-25459571D01*
X23525665Y-25500500D01*
X23774335Y-25500500D01*
X24019614Y-25459571D01*
X24254810Y-25378828D01*
X24473509Y-25260474D01*
X24669744Y-25107738D01*
X24838164Y-24924785D01*
X24974173Y-24716607D01*
X25074063Y-24488881D01*
X25135108Y-24247821D01*
X25135109Y-24247812D01*
X25155643Y-24000005D01*
X25155643Y-23999994D01*
X25135109Y-23752187D01*
X25135107Y-23752175D01*
X25074063Y-23511118D01*
X24974173Y-23283393D01*
X24894117Y-23160858D01*
X24838164Y-23075215D01*
X24832217Y-23068754D01*
X24683270Y-22906953D01*
X24652348Y-22844299D01*
X24650500Y-22822971D01*
X24650500Y-20177027D01*
X24670185Y-20109988D01*
X24683265Y-20093049D01*
X24838164Y-19924785D01*
X24974173Y-19716607D01*
X25074063Y-19488881D01*
X25135108Y-19247821D01*
X25149709Y-19071616D01*
X25155643Y-19000005D01*
X25155643Y-18999994D01*
X25135109Y-18752187D01*
X25135107Y-18752175D01*
X25074063Y-18511118D01*
X24974173Y-18283393D01*
X24838166Y-18075217D01*
X24816557Y-18051744D01*
X24669744Y-17892262D01*
X24473509Y-17739526D01*
X24473507Y-17739525D01*
X24473506Y-17739524D01*
X24254811Y-17621172D01*
X24254802Y-17621169D01*
X24019616Y-17540429D01*
X23774335Y-17499500D01*
X23525665Y-17499500D01*
X23280383Y-17540429D01*
X23045197Y-17621169D01*
X23045188Y-17621172D01*
X22826493Y-17739524D01*
X22630257Y-17892261D01*
X22461833Y-18075217D01*
X22325826Y-18283393D01*
X22225936Y-18511118D01*
X22164892Y-18752175D01*
X22164890Y-18752187D01*
X22144357Y-18999994D01*
X21656735Y-18999994D01*
X21660239Y-18940975D01*
X21662689Y-18899716D01*
X21308547Y-14668332D01*
X21306962Y-14652429D01*
X21306960Y-14652406D01*
X21305952Y-14643694D01*
X21306173Y-14643668D01*
X21305752Y-14625415D01*
X21305468Y-14625415D01*
X21305468Y-14619998D01*
X21299801Y-14555230D01*
X21285635Y-14393308D01*
X21231276Y-14190437D01*
X21226741Y-14173511D01*
X21226738Y-14173502D01*
X21167159Y-14045736D01*
X21145832Y-14000000D01*
X22744723Y-14000000D01*
X22762425Y-14202345D01*
X22763793Y-14217975D01*
X22763793Y-14217979D01*
X22820422Y-14429322D01*
X22820424Y-14429326D01*
X22820425Y-14429330D01*
X22866661Y-14528484D01*
X22912897Y-14627638D01*
X22924140Y-14643694D01*
X23038402Y-14806877D01*
X23193123Y-14961598D01*
X23372361Y-15087102D01*
X23570670Y-15179575D01*
X23570676Y-15179576D01*
X23570677Y-15179577D01*
X23652675Y-15201548D01*
X23782023Y-15236207D01*
X23782028Y-15236207D01*
X23787351Y-15237146D01*
X23787064Y-15238771D01*
X23845139Y-15261474D01*
X23856963Y-15271883D01*
X25392860Y-16807781D01*
X25392861Y-16807782D01*
X25532218Y-16947139D01*
X25696086Y-17056632D01*
X25802745Y-17100811D01*
X25878164Y-17132051D01*
X26071454Y-17170499D01*
X26071457Y-17170500D01*
X26071459Y-17170500D01*
X28578542Y-17170500D01*
X28597870Y-17166655D01*
X28675188Y-17151275D01*
X28771836Y-17132051D01*
X28825165Y-17109961D01*
X28953914Y-17056632D01*
X29117782Y-16947139D01*
X29257139Y-16807782D01*
X29257139Y-16807780D01*
X29267347Y-16797573D01*
X29267348Y-16797570D01*
X30678102Y-15386819D01*
X30739425Y-15353334D01*
X30765783Y-15350500D01*
X30779591Y-15350500D01*
X30779594Y-15350500D01*
X30847657Y-15344315D01*
X31004270Y-15295512D01*
X31144653Y-15210648D01*
X31260648Y-15094653D01*
X31268926Y-15080958D01*
X31345511Y-14954272D01*
X31345514Y-14954263D01*
X31394315Y-14797657D01*
X31400500Y-14729594D01*
X31400500Y-14270406D01*
X32599500Y-14270406D01*
X32599500Y-14729594D01*
X32605685Y-14797657D01*
X32605686Y-14797662D01*
X32605687Y-14797664D01*
X32654485Y-14954263D01*
X32654488Y-14954272D01*
X32739348Y-15094648D01*
X32739350Y-15094650D01*
X32739352Y-15094653D01*
X32855347Y-15210648D01*
X32889836Y-15231497D01*
X32897140Y-15235913D01*
X32918216Y-15251961D01*
X32956220Y-15287923D01*
X32956221Y-15287924D01*
X35893125Y-17362564D01*
X35936523Y-17417321D01*
X35943428Y-17486849D01*
X35911647Y-17549072D01*
X35861844Y-17581124D01*
X35745197Y-17621169D01*
X35745188Y-17621172D01*
X35526493Y-17739524D01*
X35330257Y-17892261D01*
X35161833Y-18075217D01*
X35025826Y-18283393D01*
X34925936Y-18511118D01*
X34864892Y-18752175D01*
X34864890Y-18752187D01*
X34844357Y-18999994D01*
X34844357Y-19000005D01*
X34864890Y-19247812D01*
X34864892Y-19247824D01*
X34925936Y-19488881D01*
X35025826Y-19716606D01*
X35161833Y-19924782D01*
X35161836Y-19924785D01*
X35316730Y-20093045D01*
X35347652Y-20155698D01*
X35349500Y-20177027D01*
X35349500Y-22822971D01*
X35329815Y-22890010D01*
X35316730Y-22906953D01*
X35161836Y-23075214D01*
X35025826Y-23283393D01*
X34925936Y-23511118D01*
X34864892Y-23752175D01*
X34864890Y-23752187D01*
X34844357Y-23999994D01*
X34844357Y-24000005D01*
X34864890Y-24247812D01*
X34864892Y-24247824D01*
X34925936Y-24488881D01*
X35025826Y-24716606D01*
X35161833Y-24924782D01*
X35161836Y-24924785D01*
X35330256Y-25107738D01*
X35526491Y-25260474D01*
X35745190Y-25378828D01*
X35980386Y-25459571D01*
X36225665Y-25500500D01*
X36474335Y-25500500D01*
X36719614Y-25459571D01*
X36954810Y-25378828D01*
X37173509Y-25260474D01*
X37369744Y-25107738D01*
X37419948Y-25053202D01*
X37431626Y-25040517D01*
X37491513Y-25004526D01*
X37522855Y-25000500D01*
X38559583Y-25000500D01*
X38626622Y-25020185D01*
X38630706Y-25022925D01*
X38722356Y-25087099D01*
X38722358Y-25087100D01*
X38722361Y-25087102D01*
X38920670Y-25179575D01*
X39132023Y-25236207D01*
X39314926Y-25252208D01*
X39349998Y-25255277D01*
X39350000Y-25255277D01*
X39350002Y-25255277D01*
X39378254Y-25252805D01*
X39567977Y-25236207D01*
X39779330Y-25179575D01*
X39977639Y-25087102D01*
X40026053Y-25053202D01*
X40069294Y-25022925D01*
X40135500Y-25000598D01*
X40140417Y-25000500D01*
X41472412Y-25000500D01*
X41539451Y-25020185D01*
X41543523Y-25022917D01*
X41697266Y-25130568D01*
X41903504Y-25226739D01*
X41903509Y-25226740D01*
X41903511Y-25226741D01*
X41938839Y-25236207D01*
X42123308Y-25285635D01*
X42285230Y-25299801D01*
X42349998Y-25305468D01*
X42350000Y-25305468D01*
X42350002Y-25305468D01*
X42406673Y-25300509D01*
X42576692Y-25285635D01*
X42796496Y-25226739D01*
X43002734Y-25130568D01*
X43189139Y-25000047D01*
X43350047Y-24839139D01*
X43480568Y-24652734D01*
X43576739Y-24446496D01*
X43635635Y-24226692D01*
X43655468Y-24000000D01*
X43655467Y-23999994D01*
X43635635Y-23773313D01*
X43635635Y-23773308D01*
X43576739Y-23553504D01*
X43480568Y-23347266D01*
X43350047Y-23160861D01*
X43350045Y-23160858D01*
X43189141Y-22999954D01*
X43002734Y-22869432D01*
X43002732Y-22869431D01*
X42796497Y-22773261D01*
X42796488Y-22773258D01*
X42576697Y-22714366D01*
X42576693Y-22714365D01*
X42576692Y-22714365D01*
X42576691Y-22714364D01*
X42576686Y-22714364D01*
X42350002Y-22694532D01*
X42349998Y-22694532D01*
X42123313Y-22714364D01*
X42123302Y-22714366D01*
X41903511Y-22773258D01*
X41903502Y-22773261D01*
X41697267Y-22869431D01*
X41697265Y-22869432D01*
X41543535Y-22977075D01*
X41477329Y-22999402D01*
X41472412Y-22999500D01*
X40140417Y-22999500D01*
X40073378Y-22979815D01*
X40069294Y-22977075D01*
X39977643Y-22912900D01*
X39977639Y-22912898D01*
X39933385Y-22892262D01*
X39779330Y-22820425D01*
X39779326Y-22820424D01*
X39779322Y-22820422D01*
X39567977Y-22763793D01*
X39350002Y-22744723D01*
X39349998Y-22744723D01*
X39204682Y-22757436D01*
X39132023Y-22763793D01*
X39132020Y-22763793D01*
X38920677Y-22820422D01*
X38920668Y-22820426D01*
X38722361Y-22912898D01*
X38722357Y-22912900D01*
X38630707Y-22977075D01*
X38564501Y-22999402D01*
X38559584Y-22999500D01*
X37522855Y-22999500D01*
X37455816Y-22979815D01*
X37431625Y-22959483D01*
X37383270Y-22906955D01*
X37352348Y-22844300D01*
X37350500Y-22822972D01*
X37350500Y-20177027D01*
X37370185Y-20109988D01*
X37383265Y-20093049D01*
X37538164Y-19924785D01*
X37674173Y-19716607D01*
X37774063Y-19488881D01*
X37835108Y-19247821D01*
X37851715Y-19047394D01*
X37876868Y-18982214D01*
X37933269Y-18940975D01*
X38003013Y-18936776D01*
X38063955Y-18970950D01*
X38096747Y-19032647D01*
X38098819Y-19046830D01*
X38113793Y-19217976D01*
X38113793Y-19217979D01*
X38170422Y-19429322D01*
X38170424Y-19429326D01*
X38170425Y-19429330D01*
X38198194Y-19488881D01*
X38262897Y-19627638D01*
X38262898Y-19627639D01*
X38388402Y-19806877D01*
X38543123Y-19961598D01*
X38722361Y-20087102D01*
X38920670Y-20179575D01*
X39132023Y-20236207D01*
X39183208Y-20240684D01*
X39200336Y-20243400D01*
X39203772Y-20244194D01*
X39203789Y-20244199D01*
X39345921Y-20266538D01*
X39345922Y-20266539D01*
X42100182Y-20302621D01*
X42100186Y-20302620D01*
X42100190Y-20302621D01*
X42126185Y-20302293D01*
X42134153Y-20301987D01*
X42138938Y-20301804D01*
X42142918Y-20301548D01*
X42164916Y-20300136D01*
X42178925Y-20296816D01*
X42218318Y-20293947D01*
X42334649Y-20304124D01*
X42349999Y-20305468D01*
X42350000Y-20305468D01*
X42350002Y-20305468D01*
X42410956Y-20300135D01*
X42576692Y-20285635D01*
X42796496Y-20226739D01*
X43002734Y-20130568D01*
X43189139Y-20000047D01*
X43350047Y-19839139D01*
X43480568Y-19652734D01*
X43576739Y-19446496D01*
X43635635Y-19226692D01*
X43649202Y-19071608D01*
X43651250Y-19057545D01*
X43653427Y-19046922D01*
X43654125Y-19043968D01*
X43656735Y-18999994D01*
X46144357Y-18999994D01*
X46144357Y-19000005D01*
X46164890Y-19247812D01*
X46164892Y-19247824D01*
X46225936Y-19488881D01*
X46325826Y-19716606D01*
X46461833Y-19924782D01*
X46461836Y-19924785D01*
X46616730Y-20093045D01*
X46647652Y-20155698D01*
X46649500Y-20177027D01*
X46649500Y-22822971D01*
X46629815Y-22890010D01*
X46616730Y-22906953D01*
X46461836Y-23075214D01*
X46325826Y-23283393D01*
X46225936Y-23511118D01*
X46164892Y-23752175D01*
X46164890Y-23752187D01*
X46144357Y-23999994D01*
X46144357Y-24000005D01*
X46164890Y-24247812D01*
X46164892Y-24247824D01*
X46225936Y-24488881D01*
X46325826Y-24716606D01*
X46461833Y-24924782D01*
X46461836Y-24924785D01*
X46630256Y-25107738D01*
X46826491Y-25260474D01*
X47045190Y-25378828D01*
X47280386Y-25459571D01*
X47525665Y-25500500D01*
X47774335Y-25500500D01*
X48019614Y-25459571D01*
X48254810Y-25378828D01*
X48473509Y-25260474D01*
X48669744Y-25107738D01*
X48838164Y-24924785D01*
X48974173Y-24716607D01*
X49074063Y-24488881D01*
X49135108Y-24247821D01*
X49135109Y-24247812D01*
X49155643Y-24000005D01*
X49155643Y-23999994D01*
X49135109Y-23752187D01*
X49135107Y-23752175D01*
X49074063Y-23511118D01*
X48974173Y-23283393D01*
X48894117Y-23160858D01*
X48838164Y-23075215D01*
X48832217Y-23068754D01*
X48683270Y-22906953D01*
X48652348Y-22844299D01*
X48650500Y-22822971D01*
X48650500Y-20177027D01*
X48670185Y-20109988D01*
X48683265Y-20093049D01*
X48838164Y-19924785D01*
X48974173Y-19716607D01*
X49074063Y-19488881D01*
X49135108Y-19247821D01*
X49149709Y-19071616D01*
X49155643Y-19000005D01*
X49155643Y-18999994D01*
X49135109Y-18752187D01*
X49135107Y-18752175D01*
X49074063Y-18511118D01*
X48974173Y-18283393D01*
X48838166Y-18075217D01*
X48816557Y-18051744D01*
X48669744Y-17892262D01*
X48473509Y-17739526D01*
X48473507Y-17739525D01*
X48473506Y-17739524D01*
X48254811Y-17621172D01*
X48254802Y-17621169D01*
X48019616Y-17540429D01*
X47774335Y-17499500D01*
X47525665Y-17499500D01*
X47280383Y-17540429D01*
X47045197Y-17621169D01*
X47045188Y-17621172D01*
X46826493Y-17739524D01*
X46630257Y-17892261D01*
X46461833Y-18075217D01*
X46325826Y-18283393D01*
X46225936Y-18511118D01*
X46164892Y-18752175D01*
X46164890Y-18752187D01*
X46144357Y-18999994D01*
X43656735Y-18999994D01*
X43660239Y-18940975D01*
X43662689Y-18899716D01*
X43308547Y-14668332D01*
X43306962Y-14652429D01*
X43306960Y-14652406D01*
X43305952Y-14643694D01*
X43306173Y-14643668D01*
X43305752Y-14625415D01*
X43305468Y-14625415D01*
X43305468Y-14619998D01*
X43299801Y-14555230D01*
X43285635Y-14393308D01*
X43231276Y-14190437D01*
X43226741Y-14173511D01*
X43226738Y-14173502D01*
X43167159Y-14045736D01*
X43145832Y-14000000D01*
X46744723Y-14000000D01*
X46762425Y-14202345D01*
X46763793Y-14217975D01*
X46763793Y-14217979D01*
X46820422Y-14429322D01*
X46820424Y-14429326D01*
X46820425Y-14429330D01*
X46866661Y-14528484D01*
X46912897Y-14627638D01*
X46924140Y-14643694D01*
X47038402Y-14806877D01*
X47193123Y-14961598D01*
X47372361Y-15087102D01*
X47570670Y-15179575D01*
X47570676Y-15179576D01*
X47570677Y-15179577D01*
X47652675Y-15201548D01*
X47782023Y-15236207D01*
X47782028Y-15236207D01*
X47787351Y-15237146D01*
X47787064Y-15238771D01*
X47845139Y-15261474D01*
X47856963Y-15271883D01*
X49392860Y-16807781D01*
X49392861Y-16807782D01*
X49532218Y-16947139D01*
X49696086Y-17056632D01*
X49802745Y-17100811D01*
X49878164Y-17132051D01*
X50071454Y-17170499D01*
X50071457Y-17170500D01*
X50071459Y-17170500D01*
X52578542Y-17170500D01*
X52597870Y-17166655D01*
X52675188Y-17151275D01*
X52771836Y-17132051D01*
X52825165Y-17109961D01*
X52953914Y-17056632D01*
X53117782Y-16947139D01*
X53257139Y-16807782D01*
X53257139Y-16807780D01*
X53267347Y-16797573D01*
X53267348Y-16797570D01*
X54678102Y-15386819D01*
X54739425Y-15353334D01*
X54765783Y-15350500D01*
X54779591Y-15350500D01*
X54779594Y-15350500D01*
X54847657Y-15344315D01*
X55004270Y-15295512D01*
X55144653Y-15210648D01*
X55260648Y-15094653D01*
X55268926Y-15080958D01*
X55345511Y-14954272D01*
X55345514Y-14954263D01*
X55394315Y-14797657D01*
X55400500Y-14729594D01*
X55400500Y-14270406D01*
X56599500Y-14270406D01*
X56599500Y-14729594D01*
X56605685Y-14797657D01*
X56605686Y-14797662D01*
X56605687Y-14797664D01*
X56654485Y-14954263D01*
X56654488Y-14954272D01*
X56739348Y-15094648D01*
X56739350Y-15094650D01*
X56739352Y-15094653D01*
X56855347Y-15210648D01*
X56889836Y-15231497D01*
X56897140Y-15235913D01*
X56918216Y-15251961D01*
X56956220Y-15287923D01*
X56956221Y-15287924D01*
X59893125Y-17362564D01*
X59936523Y-17417321D01*
X59943428Y-17486849D01*
X59911647Y-17549072D01*
X59861844Y-17581124D01*
X59745197Y-17621169D01*
X59745188Y-17621172D01*
X59526493Y-17739524D01*
X59330257Y-17892261D01*
X59161833Y-18075217D01*
X59025826Y-18283393D01*
X58925936Y-18511118D01*
X58864892Y-18752175D01*
X58864890Y-18752187D01*
X58844357Y-18999994D01*
X58844357Y-19000005D01*
X58864890Y-19247812D01*
X58864892Y-19247824D01*
X58925936Y-19488881D01*
X59025826Y-19716606D01*
X59161833Y-19924782D01*
X59161836Y-19924785D01*
X59316730Y-20093045D01*
X59347652Y-20155698D01*
X59349500Y-20177027D01*
X59349500Y-22822971D01*
X59329815Y-22890010D01*
X59316730Y-22906953D01*
X59161836Y-23075214D01*
X59025826Y-23283393D01*
X58925936Y-23511118D01*
X58864892Y-23752175D01*
X58864890Y-23752187D01*
X58844357Y-23999994D01*
X58844357Y-24000005D01*
X58864890Y-24247812D01*
X58864892Y-24247824D01*
X58925936Y-24488881D01*
X59025826Y-24716606D01*
X59161833Y-24924782D01*
X59161836Y-24924785D01*
X59330256Y-25107738D01*
X59526491Y-25260474D01*
X59745190Y-25378828D01*
X59980386Y-25459571D01*
X60225665Y-25500500D01*
X60474335Y-25500500D01*
X60719614Y-25459571D01*
X60954810Y-25378828D01*
X61173509Y-25260474D01*
X61369744Y-25107738D01*
X61419948Y-25053202D01*
X61431626Y-25040517D01*
X61491513Y-25004526D01*
X61522855Y-25000500D01*
X62559583Y-25000500D01*
X62626622Y-25020185D01*
X62630706Y-25022925D01*
X62722356Y-25087099D01*
X62722358Y-25087100D01*
X62722361Y-25087102D01*
X62920670Y-25179575D01*
X63132023Y-25236207D01*
X63314926Y-25252208D01*
X63349998Y-25255277D01*
X63350000Y-25255277D01*
X63350002Y-25255277D01*
X63378254Y-25252805D01*
X63567977Y-25236207D01*
X63779330Y-25179575D01*
X63977639Y-25087102D01*
X64026053Y-25053202D01*
X64069294Y-25022925D01*
X64135500Y-25000598D01*
X64140417Y-25000500D01*
X65472412Y-25000500D01*
X65539451Y-25020185D01*
X65543523Y-25022917D01*
X65697266Y-25130568D01*
X65903504Y-25226739D01*
X65903509Y-25226740D01*
X65903511Y-25226741D01*
X65938839Y-25236207D01*
X66123308Y-25285635D01*
X66285230Y-25299801D01*
X66349998Y-25305468D01*
X66350000Y-25305468D01*
X66350002Y-25305468D01*
X66406673Y-25300509D01*
X66576692Y-25285635D01*
X66796496Y-25226739D01*
X67002734Y-25130568D01*
X67189139Y-25000047D01*
X67350047Y-24839139D01*
X67480568Y-24652734D01*
X67576739Y-24446496D01*
X67635635Y-24226692D01*
X67655468Y-24000000D01*
X67655467Y-23999994D01*
X67635635Y-23773313D01*
X67635635Y-23773308D01*
X67576739Y-23553504D01*
X67480568Y-23347266D01*
X67350047Y-23160861D01*
X67350045Y-23160858D01*
X67189141Y-22999954D01*
X67002734Y-22869432D01*
X67002732Y-22869431D01*
X66796497Y-22773261D01*
X66796488Y-22773258D01*
X66576697Y-22714366D01*
X66576693Y-22714365D01*
X66576692Y-22714365D01*
X66576691Y-22714364D01*
X66576686Y-22714364D01*
X66350002Y-22694532D01*
X66349998Y-22694532D01*
X66123313Y-22714364D01*
X66123302Y-22714366D01*
X65903511Y-22773258D01*
X65903502Y-22773261D01*
X65697267Y-22869431D01*
X65697265Y-22869432D01*
X65543535Y-22977075D01*
X65477329Y-22999402D01*
X65472412Y-22999500D01*
X64140417Y-22999500D01*
X64073378Y-22979815D01*
X64069294Y-22977075D01*
X63977643Y-22912900D01*
X63977639Y-22912898D01*
X63933385Y-22892262D01*
X63779330Y-22820425D01*
X63779326Y-22820424D01*
X63779322Y-22820422D01*
X63567977Y-22763793D01*
X63350002Y-22744723D01*
X63349998Y-22744723D01*
X63204682Y-22757436D01*
X63132023Y-22763793D01*
X63132020Y-22763793D01*
X62920677Y-22820422D01*
X62920668Y-22820426D01*
X62722361Y-22912898D01*
X62722357Y-22912900D01*
X62630707Y-22977075D01*
X62564501Y-22999402D01*
X62559584Y-22999500D01*
X61522855Y-22999500D01*
X61455816Y-22979815D01*
X61431625Y-22959483D01*
X61383270Y-22906955D01*
X61352348Y-22844300D01*
X61350500Y-22822972D01*
X61350500Y-20177027D01*
X61370185Y-20109988D01*
X61383265Y-20093049D01*
X61538164Y-19924785D01*
X61674173Y-19716607D01*
X61774063Y-19488881D01*
X61835108Y-19247821D01*
X61851715Y-19047394D01*
X61876868Y-18982214D01*
X61933269Y-18940975D01*
X62003013Y-18936776D01*
X62063955Y-18970950D01*
X62096747Y-19032647D01*
X62098819Y-19046830D01*
X62113793Y-19217976D01*
X62113793Y-19217979D01*
X62170422Y-19429322D01*
X62170424Y-19429326D01*
X62170425Y-19429330D01*
X62198194Y-19488881D01*
X62262897Y-19627638D01*
X62262898Y-19627639D01*
X62388402Y-19806877D01*
X62543123Y-19961598D01*
X62722361Y-20087102D01*
X62920670Y-20179575D01*
X63132023Y-20236207D01*
X63183208Y-20240684D01*
X63200336Y-20243400D01*
X63203772Y-20244194D01*
X63203789Y-20244199D01*
X63345921Y-20266538D01*
X63345922Y-20266539D01*
X66100182Y-20302621D01*
X66100186Y-20302620D01*
X66100190Y-20302621D01*
X66126185Y-20302293D01*
X66134153Y-20301987D01*
X66138938Y-20301804D01*
X66142918Y-20301548D01*
X66164916Y-20300136D01*
X66178925Y-20296816D01*
X66218318Y-20293947D01*
X66334649Y-20304124D01*
X66349999Y-20305468D01*
X66350000Y-20305468D01*
X66350002Y-20305468D01*
X66410956Y-20300135D01*
X66576692Y-20285635D01*
X66796496Y-20226739D01*
X67002734Y-20130568D01*
X67189139Y-20000047D01*
X67350047Y-19839139D01*
X67480568Y-19652734D01*
X67576739Y-19446496D01*
X67635635Y-19226692D01*
X67649202Y-19071608D01*
X67651250Y-19057545D01*
X67653427Y-19046922D01*
X67654125Y-19043968D01*
X67656735Y-18999994D01*
X68144357Y-18999994D01*
X68144357Y-19000005D01*
X68164890Y-19247812D01*
X68164892Y-19247824D01*
X68225936Y-19488881D01*
X68325826Y-19716606D01*
X68461833Y-19924782D01*
X68461836Y-19924785D01*
X68616730Y-20093045D01*
X68647652Y-20155698D01*
X68649500Y-20177027D01*
X68649500Y-22822971D01*
X68629815Y-22890010D01*
X68616730Y-22906953D01*
X68461836Y-23075214D01*
X68325826Y-23283393D01*
X68225936Y-23511118D01*
X68164892Y-23752175D01*
X68164890Y-23752187D01*
X68144357Y-23999994D01*
X68144357Y-24000005D01*
X68164890Y-24247812D01*
X68164892Y-24247824D01*
X68225936Y-24488881D01*
X68325826Y-24716606D01*
X68461833Y-24924782D01*
X68461836Y-24924785D01*
X68630256Y-25107738D01*
X68826491Y-25260474D01*
X69045190Y-25378828D01*
X69280386Y-25459571D01*
X69525665Y-25500500D01*
X69774335Y-25500500D01*
X70019614Y-25459571D01*
X70254810Y-25378828D01*
X70473509Y-25260474D01*
X70669744Y-25107738D01*
X70838164Y-24924785D01*
X70974173Y-24716607D01*
X71074063Y-24488881D01*
X71135108Y-24247821D01*
X71135109Y-24247812D01*
X71155643Y-24000005D01*
X71155643Y-23999994D01*
X71135109Y-23752187D01*
X71135107Y-23752175D01*
X71074063Y-23511118D01*
X70974173Y-23283393D01*
X70894117Y-23160858D01*
X70838164Y-23075215D01*
X70832217Y-23068754D01*
X70683270Y-22906953D01*
X70652348Y-22844299D01*
X70650500Y-22822971D01*
X70650500Y-20177027D01*
X70670185Y-20109988D01*
X70683265Y-20093049D01*
X70838164Y-19924785D01*
X70974173Y-19716607D01*
X71074063Y-19488881D01*
X71135108Y-19247821D01*
X71149709Y-19071616D01*
X71155643Y-19000005D01*
X71155643Y-18999994D01*
X71135109Y-18752187D01*
X71135107Y-18752175D01*
X71074063Y-18511118D01*
X70974173Y-18283393D01*
X70838166Y-18075217D01*
X70816557Y-18051744D01*
X70669744Y-17892262D01*
X70473509Y-17739526D01*
X70473507Y-17739525D01*
X70473506Y-17739524D01*
X70254811Y-17621172D01*
X70254802Y-17621169D01*
X70019616Y-17540429D01*
X69774335Y-17499500D01*
X69525665Y-17499500D01*
X69280383Y-17540429D01*
X69045197Y-17621169D01*
X69045188Y-17621172D01*
X68826493Y-17739524D01*
X68630257Y-17892261D01*
X68461833Y-18075217D01*
X68325826Y-18283393D01*
X68225936Y-18511118D01*
X68164892Y-18752175D01*
X68164890Y-18752187D01*
X68144357Y-18999994D01*
X67656735Y-18999994D01*
X67660239Y-18940975D01*
X67662689Y-18899716D01*
X67308547Y-14668332D01*
X67306962Y-14652429D01*
X67306960Y-14652406D01*
X67305952Y-14643694D01*
X67306173Y-14643668D01*
X67305752Y-14625415D01*
X67305468Y-14625415D01*
X67305468Y-14619998D01*
X67299801Y-14555230D01*
X67285635Y-14393308D01*
X67231276Y-14190437D01*
X67226741Y-14173511D01*
X67226738Y-14173502D01*
X67167159Y-14045736D01*
X67145832Y-14000000D01*
X68744723Y-14000000D01*
X68762425Y-14202345D01*
X68763793Y-14217975D01*
X68763793Y-14217979D01*
X68820422Y-14429322D01*
X68820424Y-14429326D01*
X68820425Y-14429330D01*
X68866661Y-14528484D01*
X68912897Y-14627638D01*
X68924140Y-14643694D01*
X69038402Y-14806877D01*
X69193123Y-14961598D01*
X69372361Y-15087102D01*
X69570670Y-15179575D01*
X69570676Y-15179576D01*
X69570677Y-15179577D01*
X69652675Y-15201548D01*
X69782023Y-15236207D01*
X69782028Y-15236207D01*
X69787351Y-15237146D01*
X69787064Y-15238771D01*
X69845139Y-15261474D01*
X69856963Y-15271883D01*
X71392860Y-16807781D01*
X71392861Y-16807782D01*
X71532218Y-16947139D01*
X71696086Y-17056632D01*
X71802745Y-17100811D01*
X71878164Y-17132051D01*
X72071454Y-17170499D01*
X72071457Y-17170500D01*
X72071459Y-17170500D01*
X74578542Y-17170500D01*
X74597870Y-17166655D01*
X74675188Y-17151275D01*
X74771836Y-17132051D01*
X74825165Y-17109961D01*
X74953914Y-17056632D01*
X75117782Y-16947139D01*
X75257139Y-16807782D01*
X75257139Y-16807780D01*
X75267347Y-16797573D01*
X75267348Y-16797570D01*
X76678102Y-15386819D01*
X76739425Y-15353334D01*
X76765783Y-15350500D01*
X76779591Y-15350500D01*
X76779594Y-15350500D01*
X76847657Y-15344315D01*
X77004270Y-15295512D01*
X77144653Y-15210648D01*
X77260648Y-15094653D01*
X77268926Y-15080958D01*
X77345511Y-14954272D01*
X77345514Y-14954263D01*
X77394315Y-14797657D01*
X77400500Y-14729594D01*
X77400500Y-14270406D01*
X77394315Y-14202343D01*
X77345512Y-14045730D01*
X77345511Y-14045727D01*
X77260651Y-13905351D01*
X77260648Y-13905347D01*
X77144652Y-13789351D01*
X77144648Y-13789348D01*
X77004272Y-13704488D01*
X77004263Y-13704485D01*
X76847664Y-13655687D01*
X76847662Y-13655686D01*
X76847657Y-13655685D01*
X76779594Y-13649500D01*
X76779591Y-13649500D01*
X76715606Y-13649500D01*
X76648567Y-13629815D01*
X76646716Y-13628603D01*
X76623915Y-13613368D01*
X76623905Y-13613364D01*
X76441836Y-13537948D01*
X76441828Y-13537946D01*
X76248545Y-13499500D01*
X76248541Y-13499500D01*
X76051460Y-13499500D01*
X76051455Y-13499500D01*
X75858172Y-13537946D01*
X75858164Y-13537948D01*
X75676087Y-13613367D01*
X75653285Y-13628603D01*
X75586607Y-13649480D01*
X75584395Y-13649500D01*
X75520406Y-13649500D01*
X75452343Y-13655685D01*
X75452339Y-13655686D01*
X75452335Y-13655687D01*
X75295736Y-13704485D01*
X75295727Y-13704488D01*
X75155351Y-13789348D01*
X75155347Y-13789351D01*
X75039351Y-13905347D01*
X75039348Y-13905351D01*
X74954488Y-14045727D01*
X74954485Y-14045736D01*
X74905687Y-14202335D01*
X74905685Y-14202343D01*
X74904265Y-14217975D01*
X74899500Y-14270408D01*
X74899500Y-14284217D01*
X74879815Y-14351256D01*
X74863181Y-14371898D01*
X74516685Y-14718393D01*
X74455362Y-14751878D01*
X74385670Y-14746894D01*
X74329737Y-14705022D01*
X74305320Y-14639558D01*
X74305468Y-14621020D01*
X74305468Y-14619998D01*
X74299801Y-14555230D01*
X74285635Y-14393308D01*
X74231276Y-14190437D01*
X74226741Y-14173511D01*
X74226738Y-14173502D01*
X74167159Y-14045736D01*
X74130568Y-13967266D01*
X74110232Y-13938223D01*
X74087906Y-13872019D01*
X74104916Y-13804252D01*
X74124123Y-13779425D01*
X75366732Y-12536819D01*
X75428055Y-12503334D01*
X75454413Y-12500500D01*
X76248543Y-12500500D01*
X76378582Y-12474632D01*
X76441835Y-12462051D01*
X76623914Y-12386632D01*
X76631659Y-12381457D01*
X76646714Y-12371398D01*
X76713391Y-12350520D01*
X76715605Y-12350500D01*
X76779591Y-12350500D01*
X76779594Y-12350500D01*
X76847657Y-12344315D01*
X77004270Y-12295512D01*
X77027572Y-12281426D01*
X77144648Y-12210651D01*
X77144647Y-12210651D01*
X77144653Y-12210648D01*
X77260648Y-12094653D01*
X77345512Y-11954270D01*
X77394315Y-11797657D01*
X77400500Y-11729594D01*
X77400500Y-11270406D01*
X77394315Y-11202343D01*
X77345512Y-11045730D01*
X77345511Y-11045727D01*
X77260651Y-10905351D01*
X77260648Y-10905347D01*
X77144652Y-10789351D01*
X77144648Y-10789348D01*
X77004272Y-10704488D01*
X77004263Y-10704485D01*
X76847664Y-10655687D01*
X76847662Y-10655686D01*
X76847657Y-10655685D01*
X76779594Y-10649500D01*
X76779591Y-10649500D01*
X76715605Y-10649500D01*
X76648566Y-10629815D01*
X76646714Y-10628602D01*
X76623920Y-10613371D01*
X76623907Y-10613364D01*
X76441839Y-10537950D01*
X76441829Y-10537947D01*
X76248543Y-10499500D01*
X76248541Y-10499500D01*
X75093305Y-10499500D01*
X75093285Y-10499499D01*
X75087171Y-10499499D01*
X74890090Y-10499499D01*
X74890087Y-10499499D01*
X74696802Y-10537946D01*
X74696794Y-10537948D01*
X74514718Y-10613366D01*
X74514709Y-10613371D01*
X74350849Y-10722859D01*
X74350845Y-10722862D01*
X72829566Y-12244143D01*
X72362220Y-12711489D01*
X72362218Y-12711491D01*
X72309916Y-12763793D01*
X72222859Y-12850849D01*
X72113371Y-13014709D01*
X72113364Y-13014722D01*
X72037950Y-13196790D01*
X72037947Y-13196800D01*
X71999500Y-13390086D01*
X71999500Y-13742410D01*
X71979815Y-13809449D01*
X71977076Y-13813532D01*
X71869431Y-13967267D01*
X71789321Y-14139062D01*
X71743148Y-14191501D01*
X71675954Y-14210653D01*
X71609073Y-14190437D01*
X71589258Y-14174338D01*
X71271884Y-13856964D01*
X71238399Y-13795641D01*
X71237108Y-13787139D01*
X71236206Y-13782020D01*
X71235895Y-13780861D01*
X71179575Y-13570670D01*
X71087102Y-13372362D01*
X71087100Y-13372359D01*
X71087099Y-13372357D01*
X70961599Y-13193124D01*
X70961596Y-13193121D01*
X70806877Y-13038402D01*
X70627639Y-12912898D01*
X70627640Y-12912898D01*
X70627638Y-12912897D01*
X70494572Y-12850848D01*
X70429330Y-12820425D01*
X70429326Y-12820424D01*
X70429322Y-12820422D01*
X70217977Y-12763793D01*
X70000002Y-12744723D01*
X69999998Y-12744723D01*
X69854682Y-12757436D01*
X69782023Y-12763793D01*
X69782020Y-12763793D01*
X69570677Y-12820422D01*
X69570668Y-12820426D01*
X69372361Y-12912898D01*
X69372357Y-12912900D01*
X69193121Y-13038402D01*
X69038402Y-13193121D01*
X68912900Y-13372357D01*
X68912898Y-13372361D01*
X68820426Y-13570668D01*
X68820422Y-13570677D01*
X68763793Y-13782020D01*
X68763793Y-13782024D01*
X68747587Y-13967267D01*
X68744723Y-14000000D01*
X67145832Y-14000000D01*
X67130568Y-13967266D01*
X67000047Y-13780861D01*
X67000045Y-13780858D01*
X66839141Y-13619954D01*
X66652734Y-13489432D01*
X66652732Y-13489431D01*
X66446497Y-13393261D01*
X66446488Y-13393258D01*
X66221464Y-13332964D01*
X66221639Y-13332309D01*
X66200383Y-13325705D01*
X66177898Y-13315450D01*
X66110843Y-13295795D01*
X65968425Y-13275390D01*
X65968418Y-13275390D01*
X61993335Y-13277348D01*
X61986017Y-13277492D01*
X61973807Y-13277734D01*
X61964310Y-13278106D01*
X61964302Y-13278106D01*
X61964288Y-13278107D01*
X61952202Y-13278813D01*
X61944797Y-13279247D01*
X59121503Y-13499126D01*
X59111875Y-13499500D01*
X57751457Y-13499500D01*
X57558170Y-13537947D01*
X57558160Y-13537950D01*
X57376093Y-13613364D01*
X57376076Y-13613374D01*
X57366279Y-13619919D01*
X57307028Y-13640436D01*
X57238779Y-13645752D01*
X57238766Y-13645754D01*
X57221797Y-13648863D01*
X57210679Y-13650383D01*
X57158287Y-13655144D01*
X57152343Y-13655685D01*
X57152340Y-13655685D01*
X57152335Y-13655687D01*
X56995736Y-13704485D01*
X56995727Y-13704488D01*
X56855351Y-13789348D01*
X56855347Y-13789351D01*
X56739351Y-13905347D01*
X56739348Y-13905351D01*
X56654488Y-14045727D01*
X56654485Y-14045736D01*
X56605687Y-14202335D01*
X56605685Y-14202343D01*
X56599500Y-14270406D01*
X55400500Y-14270406D01*
X55394315Y-14202343D01*
X55345512Y-14045730D01*
X55345511Y-14045727D01*
X55260651Y-13905351D01*
X55260648Y-13905347D01*
X55144652Y-13789351D01*
X55144648Y-13789348D01*
X55004272Y-13704488D01*
X55004263Y-13704485D01*
X54847664Y-13655687D01*
X54847662Y-13655686D01*
X54847657Y-13655685D01*
X54779594Y-13649500D01*
X54779591Y-13649500D01*
X54715606Y-13649500D01*
X54648567Y-13629815D01*
X54646716Y-13628603D01*
X54623915Y-13613368D01*
X54623905Y-13613364D01*
X54441836Y-13537948D01*
X54441828Y-13537946D01*
X54248545Y-13499500D01*
X54248541Y-13499500D01*
X54051460Y-13499500D01*
X54051455Y-13499500D01*
X53858172Y-13537946D01*
X53858164Y-13537948D01*
X53676087Y-13613367D01*
X53653285Y-13628603D01*
X53586607Y-13649480D01*
X53584395Y-13649500D01*
X53520406Y-13649500D01*
X53452343Y-13655685D01*
X53452339Y-13655686D01*
X53452335Y-13655687D01*
X53295736Y-13704485D01*
X53295727Y-13704488D01*
X53155351Y-13789348D01*
X53155347Y-13789351D01*
X53039351Y-13905347D01*
X53039348Y-13905351D01*
X52954488Y-14045727D01*
X52954485Y-14045736D01*
X52905687Y-14202335D01*
X52905685Y-14202343D01*
X52904265Y-14217975D01*
X52899500Y-14270408D01*
X52899500Y-14284217D01*
X52879815Y-14351256D01*
X52863181Y-14371898D01*
X52516685Y-14718393D01*
X52455362Y-14751878D01*
X52385670Y-14746894D01*
X52329737Y-14705022D01*
X52305320Y-14639558D01*
X52305468Y-14621020D01*
X52305468Y-14619998D01*
X52299801Y-14555230D01*
X52285635Y-14393308D01*
X52231276Y-14190437D01*
X52226741Y-14173511D01*
X52226738Y-14173502D01*
X52167159Y-14045736D01*
X52130568Y-13967266D01*
X52110232Y-13938223D01*
X52087906Y-13872019D01*
X52104916Y-13804252D01*
X52124123Y-13779425D01*
X53366732Y-12536819D01*
X53428055Y-12503334D01*
X53454413Y-12500500D01*
X54248543Y-12500500D01*
X54378582Y-12474632D01*
X54441835Y-12462051D01*
X54623914Y-12386632D01*
X54631659Y-12381457D01*
X54646714Y-12371398D01*
X54713391Y-12350520D01*
X54715605Y-12350500D01*
X54779591Y-12350500D01*
X54779594Y-12350500D01*
X54847657Y-12344315D01*
X55004270Y-12295512D01*
X55027572Y-12281426D01*
X55144648Y-12210651D01*
X55144647Y-12210651D01*
X55144653Y-12210648D01*
X55260648Y-12094653D01*
X55345512Y-11954270D01*
X55394315Y-11797657D01*
X55400500Y-11729594D01*
X55400500Y-11270406D01*
X55394315Y-11202343D01*
X55345512Y-11045730D01*
X55345511Y-11045727D01*
X55260651Y-10905351D01*
X55260648Y-10905347D01*
X55144652Y-10789351D01*
X55144648Y-10789348D01*
X55004272Y-10704488D01*
X55004263Y-10704485D01*
X54847664Y-10655687D01*
X54847662Y-10655686D01*
X54847657Y-10655685D01*
X54779594Y-10649500D01*
X54779591Y-10649500D01*
X54715605Y-10649500D01*
X54648566Y-10629815D01*
X54646714Y-10628602D01*
X54623920Y-10613371D01*
X54623907Y-10613364D01*
X54441839Y-10537950D01*
X54441829Y-10537947D01*
X54248543Y-10499500D01*
X54248541Y-10499500D01*
X53093305Y-10499500D01*
X53093285Y-10499499D01*
X53087171Y-10499499D01*
X52890090Y-10499499D01*
X52890087Y-10499499D01*
X52696802Y-10537946D01*
X52696794Y-10537948D01*
X52514718Y-10613366D01*
X52514709Y-10613371D01*
X52350849Y-10722859D01*
X52350845Y-10722862D01*
X50829566Y-12244143D01*
X50362220Y-12711489D01*
X50362218Y-12711491D01*
X50309916Y-12763793D01*
X50222859Y-12850849D01*
X50113371Y-13014709D01*
X50113364Y-13014722D01*
X50037950Y-13196790D01*
X50037947Y-13196800D01*
X49999500Y-13390086D01*
X49999500Y-13742410D01*
X49979815Y-13809449D01*
X49977076Y-13813532D01*
X49869431Y-13967267D01*
X49789321Y-14139062D01*
X49743148Y-14191501D01*
X49675954Y-14210653D01*
X49609073Y-14190437D01*
X49589258Y-14174338D01*
X49271884Y-13856964D01*
X49238399Y-13795641D01*
X49237108Y-13787139D01*
X49236206Y-13782020D01*
X49235895Y-13780861D01*
X49179575Y-13570670D01*
X49087102Y-13372362D01*
X49087100Y-13372359D01*
X49087099Y-13372357D01*
X48961599Y-13193124D01*
X48961596Y-13193121D01*
X48806877Y-13038402D01*
X48627639Y-12912898D01*
X48627640Y-12912898D01*
X48627638Y-12912897D01*
X48494572Y-12850848D01*
X48429330Y-12820425D01*
X48429326Y-12820424D01*
X48429322Y-12820422D01*
X48217977Y-12763793D01*
X48000002Y-12744723D01*
X47999998Y-12744723D01*
X47854682Y-12757436D01*
X47782023Y-12763793D01*
X47782020Y-12763793D01*
X47570677Y-12820422D01*
X47570668Y-12820426D01*
X47372361Y-12912898D01*
X47372357Y-12912900D01*
X47193121Y-13038402D01*
X47038402Y-13193121D01*
X46912900Y-13372357D01*
X46912898Y-13372361D01*
X46820426Y-13570668D01*
X46820422Y-13570677D01*
X46763793Y-13782020D01*
X46763793Y-13782024D01*
X46747587Y-13967267D01*
X46744723Y-14000000D01*
X43145832Y-14000000D01*
X43130568Y-13967266D01*
X43000047Y-13780861D01*
X43000045Y-13780858D01*
X42839141Y-13619954D01*
X42652734Y-13489432D01*
X42652732Y-13489431D01*
X42446497Y-13393261D01*
X42446488Y-13393258D01*
X42221464Y-13332964D01*
X42221639Y-13332309D01*
X42200383Y-13325705D01*
X42177898Y-13315450D01*
X42110843Y-13295795D01*
X41968425Y-13275390D01*
X41968418Y-13275390D01*
X37993335Y-13277348D01*
X37986017Y-13277492D01*
X37973807Y-13277734D01*
X37964310Y-13278106D01*
X37964302Y-13278106D01*
X37964288Y-13278107D01*
X37952202Y-13278813D01*
X37944797Y-13279247D01*
X35121503Y-13499126D01*
X35111875Y-13499500D01*
X33751457Y-13499500D01*
X33558170Y-13537947D01*
X33558160Y-13537950D01*
X33376093Y-13613364D01*
X33376076Y-13613374D01*
X33366279Y-13619919D01*
X33307028Y-13640436D01*
X33238779Y-13645752D01*
X33238766Y-13645754D01*
X33221797Y-13648863D01*
X33210679Y-13650383D01*
X33158287Y-13655144D01*
X33152343Y-13655685D01*
X33152340Y-13655685D01*
X33152335Y-13655687D01*
X32995736Y-13704485D01*
X32995727Y-13704488D01*
X32855351Y-13789348D01*
X32855347Y-13789351D01*
X32739351Y-13905347D01*
X32739348Y-13905351D01*
X32654488Y-14045727D01*
X32654485Y-14045736D01*
X32605687Y-14202335D01*
X32605685Y-14202343D01*
X32599500Y-14270406D01*
X31400500Y-14270406D01*
X31394315Y-14202343D01*
X31345512Y-14045730D01*
X31345511Y-14045727D01*
X31260651Y-13905351D01*
X31260648Y-13905347D01*
X31144652Y-13789351D01*
X31144648Y-13789348D01*
X31004272Y-13704488D01*
X31004263Y-13704485D01*
X30847664Y-13655687D01*
X30847662Y-13655686D01*
X30847657Y-13655685D01*
X30779594Y-13649500D01*
X30779591Y-13649500D01*
X30715606Y-13649500D01*
X30648567Y-13629815D01*
X30646716Y-13628603D01*
X30623915Y-13613368D01*
X30623905Y-13613364D01*
X30441836Y-13537948D01*
X30441828Y-13537946D01*
X30248545Y-13499500D01*
X30248541Y-13499500D01*
X30051460Y-13499500D01*
X30051455Y-13499500D01*
X29858172Y-13537946D01*
X29858164Y-13537948D01*
X29676087Y-13613367D01*
X29653285Y-13628603D01*
X29586607Y-13649480D01*
X29584395Y-13649500D01*
X29520406Y-13649500D01*
X29452343Y-13655685D01*
X29452339Y-13655686D01*
X29452335Y-13655687D01*
X29295736Y-13704485D01*
X29295727Y-13704488D01*
X29155351Y-13789348D01*
X29155347Y-13789351D01*
X29039351Y-13905347D01*
X29039348Y-13905351D01*
X28954488Y-14045727D01*
X28954485Y-14045736D01*
X28905687Y-14202335D01*
X28905685Y-14202343D01*
X28904265Y-14217975D01*
X28899500Y-14270408D01*
X28899500Y-14284217D01*
X28879815Y-14351256D01*
X28863181Y-14371898D01*
X28516685Y-14718393D01*
X28455362Y-14751878D01*
X28385670Y-14746894D01*
X28329737Y-14705022D01*
X28305320Y-14639558D01*
X28305468Y-14621020D01*
X28305468Y-14619998D01*
X28299801Y-14555230D01*
X28285635Y-14393308D01*
X28231276Y-14190437D01*
X28226741Y-14173511D01*
X28226738Y-14173502D01*
X28167159Y-14045736D01*
X28130568Y-13967266D01*
X28110232Y-13938223D01*
X28087906Y-13872019D01*
X28104916Y-13804252D01*
X28124123Y-13779425D01*
X29366732Y-12536819D01*
X29428055Y-12503334D01*
X29454413Y-12500500D01*
X30248543Y-12500500D01*
X30378582Y-12474632D01*
X30441835Y-12462051D01*
X30623914Y-12386632D01*
X30631659Y-12381457D01*
X30646714Y-12371398D01*
X30713391Y-12350520D01*
X30715605Y-12350500D01*
X30779591Y-12350500D01*
X30779594Y-12350500D01*
X30847657Y-12344315D01*
X31004270Y-12295512D01*
X31027572Y-12281426D01*
X31144648Y-12210651D01*
X31144647Y-12210651D01*
X31144653Y-12210648D01*
X31260648Y-12094653D01*
X31345512Y-11954270D01*
X31394315Y-11797657D01*
X31400500Y-11729594D01*
X31400500Y-11270406D01*
X31394315Y-11202343D01*
X31345512Y-11045730D01*
X31345511Y-11045727D01*
X31260651Y-10905351D01*
X31260648Y-10905347D01*
X31144652Y-10789351D01*
X31144648Y-10789348D01*
X31004272Y-10704488D01*
X31004263Y-10704485D01*
X30847664Y-10655687D01*
X30847662Y-10655686D01*
X30847657Y-10655685D01*
X30779594Y-10649500D01*
X30779591Y-10649500D01*
X30715605Y-10649500D01*
X30648566Y-10629815D01*
X30646714Y-10628602D01*
X30623920Y-10613371D01*
X30623907Y-10613364D01*
X30441839Y-10537950D01*
X30441829Y-10537947D01*
X30248543Y-10499500D01*
X30248541Y-10499500D01*
X29093305Y-10499500D01*
X29093285Y-10499499D01*
X29087171Y-10499499D01*
X28890090Y-10499499D01*
X28890087Y-10499499D01*
X28696802Y-10537946D01*
X28696794Y-10537948D01*
X28514718Y-10613366D01*
X28514709Y-10613371D01*
X28350849Y-10722859D01*
X28350845Y-10722862D01*
X26829566Y-12244143D01*
X26362220Y-12711489D01*
X26362218Y-12711491D01*
X26309916Y-12763793D01*
X26222859Y-12850849D01*
X26113371Y-13014709D01*
X26113364Y-13014722D01*
X26037950Y-13196790D01*
X26037947Y-13196800D01*
X25999500Y-13390086D01*
X25999500Y-13742410D01*
X25979815Y-13809449D01*
X25977076Y-13813532D01*
X25869431Y-13967267D01*
X25789321Y-14139062D01*
X25743148Y-14191501D01*
X25675954Y-14210653D01*
X25609073Y-14190437D01*
X25589258Y-14174338D01*
X25271884Y-13856964D01*
X25238399Y-13795641D01*
X25237108Y-13787139D01*
X25236206Y-13782020D01*
X25235895Y-13780861D01*
X25179575Y-13570670D01*
X25087102Y-13372362D01*
X25087100Y-13372359D01*
X25087099Y-13372357D01*
X24961599Y-13193124D01*
X24961596Y-13193121D01*
X24806877Y-13038402D01*
X24627639Y-12912898D01*
X24627640Y-12912898D01*
X24627638Y-12912897D01*
X24494572Y-12850848D01*
X24429330Y-12820425D01*
X24429326Y-12820424D01*
X24429322Y-12820422D01*
X24217977Y-12763793D01*
X24000002Y-12744723D01*
X23999998Y-12744723D01*
X23854682Y-12757436D01*
X23782023Y-12763793D01*
X23782020Y-12763793D01*
X23570677Y-12820422D01*
X23570668Y-12820426D01*
X23372361Y-12912898D01*
X23372357Y-12912900D01*
X23193121Y-13038402D01*
X23038402Y-13193121D01*
X22912900Y-13372357D01*
X22912898Y-13372361D01*
X22820426Y-13570668D01*
X22820422Y-13570677D01*
X22763793Y-13782020D01*
X22763793Y-13782024D01*
X22747587Y-13967267D01*
X22744723Y-14000000D01*
X21145832Y-14000000D01*
X21130568Y-13967266D01*
X21000047Y-13780861D01*
X21000045Y-13780858D01*
X20839141Y-13619954D01*
X20652734Y-13489432D01*
X20652732Y-13489431D01*
X20446497Y-13393261D01*
X20446488Y-13393258D01*
X20221464Y-13332964D01*
X20221639Y-13332309D01*
X20200383Y-13325705D01*
X20177898Y-13315450D01*
X20110843Y-13295795D01*
X19968425Y-13275390D01*
X19968418Y-13275390D01*
X15993335Y-13277348D01*
X15986017Y-13277492D01*
X15973807Y-13277734D01*
X15964310Y-13278106D01*
X15964302Y-13278106D01*
X15964288Y-13278107D01*
X15952202Y-13278813D01*
X15944797Y-13279247D01*
X13121503Y-13499126D01*
X13111875Y-13499500D01*
X11751457Y-13499500D01*
X11558170Y-13537947D01*
X11558160Y-13537950D01*
X11376093Y-13613364D01*
X11376076Y-13613374D01*
X11366279Y-13619919D01*
X11307028Y-13640436D01*
X11238779Y-13645752D01*
X11238766Y-13645754D01*
X11221797Y-13648863D01*
X11210679Y-13650383D01*
X11158287Y-13655144D01*
X11152343Y-13655685D01*
X11152340Y-13655685D01*
X11152335Y-13655687D01*
X10995736Y-13704485D01*
X10995727Y-13704488D01*
X10855351Y-13789348D01*
X10855347Y-13789351D01*
X10739351Y-13905347D01*
X10739348Y-13905351D01*
X10654488Y-14045727D01*
X10654485Y-14045736D01*
X10605687Y-14202335D01*
X10605685Y-14202343D01*
X10599500Y-14270406D01*
X9400500Y-14270406D01*
X9394315Y-14202343D01*
X9345512Y-14045730D01*
X9345511Y-14045727D01*
X9260651Y-13905351D01*
X9260648Y-13905347D01*
X9144652Y-13789351D01*
X9144648Y-13789348D01*
X9004272Y-13704488D01*
X9004263Y-13704485D01*
X8847664Y-13655687D01*
X8847662Y-13655686D01*
X8847657Y-13655685D01*
X8779594Y-13649500D01*
X8779591Y-13649500D01*
X8715606Y-13649500D01*
X8648567Y-13629815D01*
X8646716Y-13628603D01*
X8623915Y-13613368D01*
X8623905Y-13613364D01*
X8441836Y-13537948D01*
X8441828Y-13537946D01*
X8248545Y-13499500D01*
X8248541Y-13499500D01*
X8051460Y-13499500D01*
X8051455Y-13499500D01*
X7858172Y-13537946D01*
X7858164Y-13537948D01*
X7676087Y-13613367D01*
X7653285Y-13628603D01*
X7586607Y-13649480D01*
X7584395Y-13649500D01*
X7520406Y-13649500D01*
X7452343Y-13655685D01*
X7452339Y-13655686D01*
X7452335Y-13655687D01*
X7295736Y-13704485D01*
X7295727Y-13704488D01*
X7155351Y-13789348D01*
X7155347Y-13789351D01*
X7039351Y-13905347D01*
X7039348Y-13905351D01*
X6954488Y-14045727D01*
X6954485Y-14045736D01*
X6905687Y-14202335D01*
X6905685Y-14202343D01*
X6904265Y-14217975D01*
X6899500Y-14270408D01*
X6899500Y-14284217D01*
X6879815Y-14351256D01*
X6863181Y-14371898D01*
X6516685Y-14718393D01*
X6455362Y-14751878D01*
X6385670Y-14746894D01*
X6329737Y-14705022D01*
X6305320Y-14639558D01*
X6305468Y-14621020D01*
X6305468Y-14619998D01*
X6299801Y-14555230D01*
X6285635Y-14393308D01*
X6231276Y-14190437D01*
X6226741Y-14173511D01*
X6226738Y-14173502D01*
X6167159Y-14045736D01*
X6130568Y-13967266D01*
X6110232Y-13938223D01*
X6087906Y-13872019D01*
X6104916Y-13804252D01*
X6124123Y-13779425D01*
X7366732Y-12536819D01*
X7428055Y-12503334D01*
X7454413Y-12500500D01*
X8248543Y-12500500D01*
X8378582Y-12474632D01*
X8441835Y-12462051D01*
X8623914Y-12386632D01*
X8631659Y-12381457D01*
X8646714Y-12371398D01*
X8713391Y-12350520D01*
X8715605Y-12350500D01*
X8779591Y-12350500D01*
X8779594Y-12350500D01*
X8847657Y-12344315D01*
X9004270Y-12295512D01*
X9027572Y-12281426D01*
X9144648Y-12210651D01*
X9144647Y-12210651D01*
X9144653Y-12210648D01*
X9260648Y-12094653D01*
X9345512Y-11954270D01*
X9394315Y-11797657D01*
X9400500Y-11729594D01*
X9400500Y-11270406D01*
X9394315Y-11202343D01*
X9345512Y-11045730D01*
X9345511Y-11045727D01*
X9260651Y-10905351D01*
X9260648Y-10905347D01*
X9144652Y-10789351D01*
X9144648Y-10789348D01*
X9004272Y-10704488D01*
X9004263Y-10704485D01*
X8847664Y-10655687D01*
X8847662Y-10655686D01*
X8847657Y-10655685D01*
X8779594Y-10649500D01*
X8779591Y-10649500D01*
X8715605Y-10649500D01*
X8648566Y-10629815D01*
X8646714Y-10628602D01*
X8623920Y-10613371D01*
X8623907Y-10613364D01*
X8441839Y-10537950D01*
X8441829Y-10537947D01*
X8248543Y-10499500D01*
X8248541Y-10499500D01*
X7093305Y-10499500D01*
X7093285Y-10499499D01*
X7087171Y-10499499D01*
X6890090Y-10499499D01*
X6890087Y-10499499D01*
X6696802Y-10537946D01*
X6696794Y-10537948D01*
X6514718Y-10613366D01*
X6514709Y-10613371D01*
X6350849Y-10722859D01*
X6350845Y-10722862D01*
X4829566Y-12244143D01*
X4362220Y-12711489D01*
X4362218Y-12711491D01*
X4309916Y-12763793D01*
X4222859Y-12850849D01*
X4113371Y-13014709D01*
X4113364Y-13014722D01*
X4037950Y-13196790D01*
X4037947Y-13196800D01*
X3999500Y-13390086D01*
X3999500Y-13742410D01*
X3979815Y-13809449D01*
X3977076Y-13813532D01*
X3869431Y-13967267D01*
X3789321Y-14139062D01*
X3743148Y-14191501D01*
X3675954Y-14210653D01*
X3609073Y-14190437D01*
X3589258Y-14174338D01*
X3271884Y-13856964D01*
X3238399Y-13795641D01*
X3237108Y-13787139D01*
X3236206Y-13782020D01*
X3235895Y-13780861D01*
X3179575Y-13570670D01*
X3087102Y-13372362D01*
X3087100Y-13372359D01*
X3087099Y-13372357D01*
X2961599Y-13193124D01*
X2961596Y-13193121D01*
X2806877Y-13038402D01*
X2627639Y-12912898D01*
X2627640Y-12912898D01*
X2627638Y-12912897D01*
X2494572Y-12850848D01*
X2429330Y-12820425D01*
X2429326Y-12820424D01*
X2429322Y-12820422D01*
X2217977Y-12763793D01*
X2000002Y-12744723D01*
X1999998Y-12744723D01*
X1854682Y-12757436D01*
X1782023Y-12763793D01*
X1782020Y-12763793D01*
X1570677Y-12820422D01*
X1570668Y-12820426D01*
X1372361Y-12912898D01*
X1372357Y-12912900D01*
X1193121Y-13038402D01*
X1038402Y-13193121D01*
X912900Y-13372357D01*
X912898Y-13372361D01*
X820426Y-13570668D01*
X820422Y-13570677D01*
X763793Y-13782020D01*
X763793Y-13782024D01*
X747587Y-13967267D01*
X744723Y-14000000D01*
X400500Y-14000000D01*
X400500Y-8043124D01*
X1310427Y-8043124D01*
X1372612Y-8086666D01*
X1570840Y-8179101D01*
X1570849Y-8179105D01*
X1782105Y-8235710D01*
X1782115Y-8235712D01*
X1999999Y-8254775D01*
X2000001Y-8254775D01*
X2217884Y-8235712D01*
X2217894Y-8235710D01*
X2429150Y-8179105D01*
X2429164Y-8179100D01*
X2627383Y-8086669D01*
X2627385Y-8086668D01*
X2689571Y-8043124D01*
X2000001Y-7353553D01*
X2000000Y-7353553D01*
X1310427Y-8043124D01*
X400500Y-8043124D01*
X400500Y-6999999D01*
X745225Y-6999999D01*
X745225Y-7000000D01*
X764287Y-7217884D01*
X764289Y-7217894D01*
X820894Y-7429150D01*
X820898Y-7429159D01*
X913333Y-7627387D01*
X956874Y-7689571D01*
X1646446Y-7000000D01*
X1600368Y-6953922D01*
X1650000Y-6953922D01*
X1650000Y-7046078D01*
X1673852Y-7135095D01*
X1719930Y-7214905D01*
X1785095Y-7280070D01*
X1864905Y-7326148D01*
X1953922Y-7350000D01*
X2046078Y-7350000D01*
X2135095Y-7326148D01*
X2214905Y-7280070D01*
X2280070Y-7214905D01*
X2326148Y-7135095D01*
X2350000Y-7046078D01*
X2350000Y-6999999D01*
X2353553Y-6999999D01*
X2353553Y-7000000D01*
X3043124Y-7689570D01*
X3086668Y-7627385D01*
X3086669Y-7627383D01*
X3179100Y-7429164D01*
X3179105Y-7429150D01*
X3235710Y-7217894D01*
X3235712Y-7217884D01*
X3254775Y-7000000D01*
X3254775Y-6999999D01*
X3235712Y-6782115D01*
X3235710Y-6782105D01*
X3179105Y-6570849D01*
X3179101Y-6570840D01*
X3086667Y-6372614D01*
X3086666Y-6372612D01*
X3043124Y-6310428D01*
X3043124Y-6310427D01*
X2353553Y-6999999D01*
X2350000Y-6999999D01*
X2350000Y-6953922D01*
X2326148Y-6864905D01*
X2280070Y-6785095D01*
X2214905Y-6719930D01*
X2135095Y-6673852D01*
X2046078Y-6650000D01*
X1953922Y-6650000D01*
X1864905Y-6673852D01*
X1785095Y-6719930D01*
X1719930Y-6785095D01*
X1673852Y-6864905D01*
X1650000Y-6953922D01*
X1600368Y-6953922D01*
X956874Y-6310428D01*
X913333Y-6372613D01*
X820898Y-6570840D01*
X820894Y-6570849D01*
X764289Y-6782105D01*
X764287Y-6782115D01*
X745225Y-6999999D01*
X400500Y-6999999D01*
X400500Y-5956874D01*
X1310428Y-5956874D01*
X2000000Y-6646446D01*
X2000001Y-6646446D01*
X2494311Y-6152135D01*
X3699500Y-6152135D01*
X3699500Y-7847870D01*
X3699501Y-7847876D01*
X3705908Y-7907483D01*
X3756202Y-8042328D01*
X3756206Y-8042335D01*
X3842452Y-8157544D01*
X3842455Y-8157547D01*
X3957664Y-8243793D01*
X3957671Y-8243797D01*
X4092517Y-8294091D01*
X4092516Y-8294091D01*
X4099444Y-8294835D01*
X4152127Y-8300500D01*
X5847872Y-8300499D01*
X5907483Y-8294091D01*
X6042331Y-8243796D01*
X6157546Y-8157546D01*
X6243796Y-8042331D01*
X6294091Y-7907483D01*
X6300500Y-7847873D01*
X6300499Y-6152128D01*
X6294091Y-6092517D01*
X6281278Y-6058164D01*
X6259583Y-5999997D01*
X7695034Y-5999997D01*
X7695034Y-6000002D01*
X7714858Y-6226599D01*
X7714860Y-6226610D01*
X7773730Y-6446317D01*
X7773735Y-6446331D01*
X7869863Y-6652478D01*
X7920974Y-6725472D01*
X8600000Y-6046446D01*
X8600000Y-6052661D01*
X8627259Y-6154394D01*
X8679920Y-6245606D01*
X8754394Y-6320080D01*
X8845606Y-6372741D01*
X8947339Y-6400000D01*
X8953553Y-6400000D01*
X8274526Y-7079025D01*
X8347513Y-7130132D01*
X8347521Y-7130136D01*
X8553668Y-7226264D01*
X8553682Y-7226269D01*
X8773389Y-7285139D01*
X8773400Y-7285141D01*
X8999998Y-7304966D01*
X9000002Y-7304966D01*
X9226599Y-7285141D01*
X9226610Y-7285139D01*
X9446317Y-7226269D01*
X9446331Y-7226264D01*
X9652478Y-7130136D01*
X9725471Y-7079024D01*
X9046447Y-6400000D01*
X9052661Y-6400000D01*
X9154394Y-6372741D01*
X9245606Y-6320080D01*
X9320080Y-6245606D01*
X9372741Y-6154394D01*
X9400000Y-6052661D01*
X9400000Y-6046447D01*
X10084197Y-6730644D01*
X10133192Y-6740491D01*
X10183375Y-6789106D01*
X10198049Y-6844632D01*
X10199099Y-6844576D01*
X10199146Y-6844571D01*
X10199146Y-6844573D01*
X10199324Y-6844564D01*
X10199501Y-6847876D01*
X10205908Y-6907483D01*
X10256202Y-7042327D01*
X10256202Y-7042328D01*
X10256203Y-7042330D01*
X10256204Y-7042331D01*
X10261973Y-7050038D01*
X10286392Y-7115500D01*
X10286410Y-7115754D01*
X10299557Y-7304966D01*
X10317716Y-7566304D01*
X10342613Y-7689571D01*
X10343650Y-7694702D01*
X10343650Y-7694705D01*
X10364243Y-7754976D01*
X10364247Y-7754988D01*
X10422294Y-7872400D01*
X10423801Y-7874655D01*
X10423807Y-7874665D01*
X10431882Y-7886752D01*
X10443335Y-7908180D01*
X10471302Y-7975695D01*
X10478359Y-7998957D01*
X10481976Y-8017141D01*
X10492618Y-8070642D01*
X10495001Y-8094830D01*
X10495001Y-8234560D01*
X10495000Y-8234603D01*
X10495000Y-10095920D01*
X10495303Y-10113409D01*
X10495601Y-10122007D01*
X10496512Y-10139499D01*
X10496514Y-10139533D01*
X10541666Y-10789351D01*
X10599202Y-11617407D01*
X10599500Y-11626002D01*
X10599500Y-11729594D01*
X10605685Y-11797657D01*
X10605686Y-11797662D01*
X10605687Y-11797664D01*
X10654485Y-11954263D01*
X10654488Y-11954272D01*
X10739348Y-12094648D01*
X10739351Y-12094652D01*
X10855347Y-12210648D01*
X10855351Y-12210651D01*
X10995727Y-12295511D01*
X10995730Y-12295512D01*
X11152343Y-12344315D01*
X11220406Y-12350500D01*
X11284396Y-12350500D01*
X11351435Y-12370185D01*
X11353286Y-12371398D01*
X11376083Y-12386630D01*
X11376090Y-12386634D01*
X11504833Y-12439961D01*
X11547744Y-12457735D01*
X11558164Y-12462051D01*
X11654812Y-12481275D01*
X11703135Y-12490887D01*
X11751458Y-12500500D01*
X11751459Y-12500500D01*
X11948542Y-12500500D01*
X11967870Y-12496655D01*
X12045188Y-12481275D01*
X12141836Y-12462051D01*
X12195165Y-12439961D01*
X12323914Y-12386632D01*
X12331660Y-12381456D01*
X12398333Y-12360573D01*
X12405995Y-12360672D01*
X12470504Y-12363513D01*
X12551550Y-12360569D01*
X12590938Y-12355955D01*
X12670457Y-12340092D01*
X12801833Y-12281425D01*
X12859868Y-12244813D01*
X12860772Y-12244257D01*
X12860927Y-12244146D01*
X12860932Y-12244143D01*
X12970457Y-12150838D01*
X15614296Y-9150968D01*
X15619613Y-9145306D01*
X16459710Y-8305209D01*
X16521031Y-8271726D01*
X16548844Y-8268901D01*
X19842918Y-8307747D01*
X19909720Y-8328220D01*
X19929136Y-8344057D01*
X20722860Y-9137781D01*
X20722861Y-9137782D01*
X20862218Y-9277139D01*
X21026086Y-9386632D01*
X21132745Y-9430811D01*
X21208164Y-9462051D01*
X21401454Y-9500499D01*
X21401457Y-9500500D01*
X21401459Y-9500500D01*
X25598542Y-9500500D01*
X25617870Y-9496655D01*
X25695188Y-9481275D01*
X25791836Y-9462051D01*
X25845165Y-9439961D01*
X25973914Y-9386632D01*
X26137782Y-9277139D01*
X26277139Y-9137782D01*
X26277139Y-9137780D01*
X26287347Y-9127573D01*
X26287348Y-9127570D01*
X27078102Y-8336818D01*
X27139425Y-8303333D01*
X27165783Y-8300499D01*
X27847871Y-8300499D01*
X27847872Y-8300499D01*
X27907483Y-8294091D01*
X28042331Y-8243796D01*
X28157546Y-8157546D01*
X28243796Y-8042331D01*
X28294091Y-7907483D01*
X28300500Y-7847873D01*
X28300499Y-6152128D01*
X28294091Y-6092517D01*
X28281278Y-6058164D01*
X28259583Y-5999997D01*
X29695034Y-5999997D01*
X29695034Y-6000002D01*
X29714858Y-6226599D01*
X29714860Y-6226610D01*
X29773730Y-6446317D01*
X29773735Y-6446331D01*
X29869863Y-6652478D01*
X29920974Y-6725472D01*
X30600000Y-6046446D01*
X30600000Y-6052661D01*
X30627259Y-6154394D01*
X30679920Y-6245606D01*
X30754394Y-6320080D01*
X30845606Y-6372741D01*
X30947339Y-6400000D01*
X30953553Y-6400000D01*
X30274526Y-7079025D01*
X30347513Y-7130132D01*
X30347521Y-7130136D01*
X30553668Y-7226264D01*
X30553682Y-7226269D01*
X30773389Y-7285139D01*
X30773400Y-7285141D01*
X30999998Y-7304966D01*
X31000002Y-7304966D01*
X31226599Y-7285141D01*
X31226610Y-7285139D01*
X31446317Y-7226269D01*
X31446331Y-7226264D01*
X31652478Y-7130136D01*
X31725471Y-7079024D01*
X31046447Y-6400000D01*
X31052661Y-6400000D01*
X31154394Y-6372741D01*
X31245606Y-6320080D01*
X31320080Y-6245606D01*
X31372741Y-6154394D01*
X31400000Y-6052661D01*
X31400000Y-6046447D01*
X32084197Y-6730644D01*
X32133192Y-6740491D01*
X32183375Y-6789106D01*
X32198049Y-6844632D01*
X32199099Y-6844576D01*
X32199146Y-6844571D01*
X32199146Y-6844573D01*
X32199324Y-6844564D01*
X32199501Y-6847876D01*
X32205908Y-6907483D01*
X32256202Y-7042327D01*
X32256202Y-7042328D01*
X32256203Y-7042330D01*
X32256204Y-7042331D01*
X32261973Y-7050038D01*
X32286392Y-7115500D01*
X32286410Y-7115754D01*
X32299557Y-7304966D01*
X32317716Y-7566304D01*
X32342613Y-7689571D01*
X32343650Y-7694702D01*
X32343650Y-7694705D01*
X32364243Y-7754976D01*
X32364247Y-7754988D01*
X32422294Y-7872400D01*
X32423801Y-7874655D01*
X32423807Y-7874665D01*
X32431882Y-7886752D01*
X32443335Y-7908180D01*
X32471302Y-7975695D01*
X32478359Y-7998957D01*
X32481976Y-8017141D01*
X32492618Y-8070642D01*
X32495001Y-8094830D01*
X32495001Y-8234560D01*
X32495000Y-8234603D01*
X32495000Y-10095920D01*
X32495303Y-10113409D01*
X32495601Y-10122007D01*
X32496512Y-10139499D01*
X32496514Y-10139533D01*
X32541666Y-10789351D01*
X32599202Y-11617407D01*
X32599500Y-11626002D01*
X32599500Y-11729594D01*
X32605685Y-11797657D01*
X32605686Y-11797662D01*
X32605687Y-11797664D01*
X32654485Y-11954263D01*
X32654488Y-11954272D01*
X32739348Y-12094648D01*
X32739351Y-12094652D01*
X32855347Y-12210648D01*
X32855351Y-12210651D01*
X32995727Y-12295511D01*
X32995730Y-12295512D01*
X33152343Y-12344315D01*
X33220406Y-12350500D01*
X33284396Y-12350500D01*
X33351435Y-12370185D01*
X33353286Y-12371398D01*
X33376083Y-12386630D01*
X33376090Y-12386634D01*
X33504833Y-12439961D01*
X33547744Y-12457735D01*
X33558164Y-12462051D01*
X33654812Y-12481275D01*
X33703135Y-12490887D01*
X33751458Y-12500500D01*
X33751459Y-12500500D01*
X33948542Y-12500500D01*
X33967870Y-12496655D01*
X34045188Y-12481275D01*
X34141836Y-12462051D01*
X34195165Y-12439961D01*
X34323914Y-12386632D01*
X34331660Y-12381456D01*
X34398333Y-12360573D01*
X34405995Y-12360672D01*
X34470504Y-12363513D01*
X34551550Y-12360569D01*
X34590938Y-12355955D01*
X34670457Y-12340092D01*
X34801833Y-12281425D01*
X34859868Y-12244813D01*
X34860772Y-12244257D01*
X34860927Y-12244146D01*
X34860932Y-12244143D01*
X34970457Y-12150838D01*
X37614296Y-9150968D01*
X37619613Y-9145306D01*
X38459710Y-8305209D01*
X38521031Y-8271726D01*
X38548844Y-8268901D01*
X41965220Y-8309190D01*
X42041625Y-8304293D01*
X42078718Y-8299073D01*
X42078724Y-8299071D01*
X42081052Y-8298744D01*
X42081055Y-8298770D01*
X42089644Y-8297624D01*
X42226692Y-8285635D01*
X42446496Y-8226739D01*
X42652734Y-8130568D01*
X42806465Y-8022924D01*
X42872671Y-8000598D01*
X42877588Y-8000500D01*
X45412897Y-8000500D01*
X45479936Y-8020185D01*
X45500578Y-8036819D01*
X46155529Y-8691771D01*
X46189014Y-8753094D01*
X46184030Y-8822786D01*
X46142158Y-8878719D01*
X46076694Y-8903136D01*
X46067848Y-8903452D01*
X45986177Y-8903452D01*
X45913600Y-8914947D01*
X45768446Y-8937937D01*
X45558795Y-9006055D01*
X45558792Y-9006056D01*
X45362373Y-9106139D01*
X45184040Y-9235704D01*
X45184035Y-9235708D01*
X45028155Y-9391588D01*
X45028151Y-9391593D01*
X44898586Y-9569926D01*
X44798503Y-9766345D01*
X44798502Y-9766348D01*
X44730384Y-9975999D01*
X44695899Y-10193730D01*
X44695899Y-10414173D01*
X44730384Y-10631904D01*
X44798502Y-10841555D01*
X44798503Y-10841558D01*
X44898586Y-11037977D01*
X45028151Y-11216310D01*
X45028155Y-11216315D01*
X45184035Y-11372195D01*
X45184040Y-11372199D01*
X45339591Y-11485212D01*
X45362377Y-11501767D01*
X45490774Y-11567189D01*
X45558792Y-11601847D01*
X45558795Y-11601848D01*
X45663620Y-11635907D01*
X45768448Y-11669967D01*
X45986177Y-11704452D01*
X45986178Y-11704452D01*
X46206620Y-11704452D01*
X46206621Y-11704452D01*
X46424350Y-11669967D01*
X46634005Y-11601847D01*
X46830421Y-11501767D01*
X47008764Y-11372194D01*
X47164641Y-11216317D01*
X47294214Y-11037974D01*
X47394294Y-10841558D01*
X47462414Y-10631903D01*
X47496899Y-10414174D01*
X47496899Y-10193730D01*
X47462414Y-9976001D01*
X47394294Y-9766346D01*
X47394292Y-9766340D01*
X47350704Y-9680796D01*
X47337807Y-9612126D01*
X47364083Y-9547386D01*
X47421189Y-9507128D01*
X47461188Y-9500500D01*
X49598542Y-9500500D01*
X49617870Y-9496655D01*
X49695188Y-9481275D01*
X49791836Y-9462051D01*
X49845165Y-9439961D01*
X49973914Y-9386632D01*
X50137782Y-9277139D01*
X50277139Y-9137782D01*
X50277139Y-9137780D01*
X50287347Y-9127573D01*
X50287348Y-9127570D01*
X51078102Y-8336818D01*
X51139425Y-8303333D01*
X51165783Y-8300499D01*
X51847871Y-8300499D01*
X51847872Y-8300499D01*
X51907483Y-8294091D01*
X52042331Y-8243796D01*
X52157546Y-8157546D01*
X52243796Y-8042331D01*
X52294091Y-7907483D01*
X52300500Y-7847873D01*
X52300499Y-6152128D01*
X52294091Y-6092517D01*
X52281278Y-6058164D01*
X52259583Y-5999997D01*
X53695034Y-5999997D01*
X53695034Y-6000002D01*
X53714858Y-6226599D01*
X53714860Y-6226610D01*
X53773730Y-6446317D01*
X53773735Y-6446331D01*
X53869863Y-6652478D01*
X53920974Y-6725472D01*
X54600000Y-6046446D01*
X54600000Y-6052661D01*
X54627259Y-6154394D01*
X54679920Y-6245606D01*
X54754394Y-6320080D01*
X54845606Y-6372741D01*
X54947339Y-6400000D01*
X54953553Y-6400000D01*
X54274526Y-7079025D01*
X54347513Y-7130132D01*
X54347521Y-7130136D01*
X54553668Y-7226264D01*
X54553682Y-7226269D01*
X54773389Y-7285139D01*
X54773400Y-7285141D01*
X54999998Y-7304966D01*
X55000002Y-7304966D01*
X55226599Y-7285141D01*
X55226610Y-7285139D01*
X55446317Y-7226269D01*
X55446331Y-7226264D01*
X55652478Y-7130136D01*
X55725471Y-7079024D01*
X55046447Y-6400000D01*
X55052661Y-6400000D01*
X55154394Y-6372741D01*
X55245606Y-6320080D01*
X55320080Y-6245606D01*
X55372741Y-6154394D01*
X55400000Y-6052661D01*
X55400000Y-6046447D01*
X56084197Y-6730644D01*
X56133192Y-6740491D01*
X56183375Y-6789106D01*
X56198049Y-6844632D01*
X56199099Y-6844576D01*
X56199146Y-6844571D01*
X56199146Y-6844573D01*
X56199324Y-6844564D01*
X56199501Y-6847876D01*
X56205908Y-6907483D01*
X56256202Y-7042327D01*
X56256202Y-7042328D01*
X56256203Y-7042330D01*
X56256204Y-7042331D01*
X56261973Y-7050038D01*
X56286392Y-7115500D01*
X56286410Y-7115754D01*
X56299557Y-7304966D01*
X56317716Y-7566304D01*
X56342613Y-7689571D01*
X56343650Y-7694702D01*
X56343650Y-7694705D01*
X56364243Y-7754976D01*
X56364247Y-7754988D01*
X56422294Y-7872400D01*
X56423801Y-7874655D01*
X56423807Y-7874665D01*
X56431882Y-7886752D01*
X56443335Y-7908180D01*
X56471302Y-7975695D01*
X56478359Y-7998957D01*
X56481976Y-8017141D01*
X56492618Y-8070642D01*
X56495001Y-8094830D01*
X56495001Y-8234560D01*
X56495000Y-8234603D01*
X56495000Y-10095920D01*
X56495303Y-10113409D01*
X56495601Y-10122007D01*
X56496512Y-10139499D01*
X56496514Y-10139533D01*
X56541666Y-10789351D01*
X56599202Y-11617407D01*
X56599500Y-11626002D01*
X56599500Y-11729594D01*
X56605685Y-11797657D01*
X56605686Y-11797662D01*
X56605687Y-11797664D01*
X56654485Y-11954263D01*
X56654488Y-11954272D01*
X56739348Y-12094648D01*
X56739351Y-12094652D01*
X56855347Y-12210648D01*
X56855351Y-12210651D01*
X56995727Y-12295511D01*
X56995730Y-12295512D01*
X57152343Y-12344315D01*
X57220406Y-12350500D01*
X57284396Y-12350500D01*
X57351435Y-12370185D01*
X57353286Y-12371398D01*
X57376083Y-12386630D01*
X57376090Y-12386634D01*
X57504833Y-12439961D01*
X57547744Y-12457735D01*
X57558164Y-12462051D01*
X57654812Y-12481275D01*
X57703135Y-12490887D01*
X57751458Y-12500500D01*
X57751459Y-12500500D01*
X57948542Y-12500500D01*
X57967870Y-12496655D01*
X58045188Y-12481275D01*
X58141836Y-12462051D01*
X58195165Y-12439961D01*
X58323914Y-12386632D01*
X58331660Y-12381456D01*
X58398333Y-12360573D01*
X58405995Y-12360672D01*
X58470504Y-12363513D01*
X58551550Y-12360569D01*
X58590938Y-12355955D01*
X58670457Y-12340092D01*
X58801833Y-12281425D01*
X58859868Y-12244813D01*
X58860772Y-12244257D01*
X58860927Y-12244146D01*
X58860932Y-12244143D01*
X58970457Y-12150838D01*
X61614296Y-9150968D01*
X61619613Y-9145306D01*
X62459710Y-8305209D01*
X62521031Y-8271726D01*
X62548844Y-8268901D01*
X65842918Y-8307747D01*
X65909720Y-8328220D01*
X65929136Y-8344057D01*
X66722860Y-9137781D01*
X66722861Y-9137782D01*
X66862218Y-9277139D01*
X67026086Y-9386632D01*
X67132745Y-9430811D01*
X67208164Y-9462051D01*
X67401454Y-9500499D01*
X67401457Y-9500500D01*
X67401459Y-9500500D01*
X71598542Y-9500500D01*
X71617870Y-9496655D01*
X71695188Y-9481275D01*
X71791836Y-9462051D01*
X71845165Y-9439961D01*
X71973914Y-9386632D01*
X72137782Y-9277139D01*
X72277139Y-9137782D01*
X72277139Y-9137780D01*
X72287347Y-9127573D01*
X72287348Y-9127570D01*
X73078102Y-8336818D01*
X73139425Y-8303333D01*
X73165783Y-8300499D01*
X73847871Y-8300499D01*
X73847872Y-8300499D01*
X73907483Y-8294091D01*
X74042331Y-8243796D01*
X74157546Y-8157546D01*
X74243796Y-8042331D01*
X74294091Y-7907483D01*
X74300500Y-7847873D01*
X74300499Y-6152128D01*
X74294091Y-6092517D01*
X74281278Y-6058164D01*
X74243797Y-5957671D01*
X74243793Y-5957664D01*
X74157547Y-5842455D01*
X74157544Y-5842452D01*
X74042335Y-5756206D01*
X74042328Y-5756202D01*
X73907482Y-5705908D01*
X73907483Y-5705908D01*
X73847883Y-5699501D01*
X73847881Y-5699500D01*
X73847873Y-5699500D01*
X73847864Y-5699500D01*
X72152129Y-5699500D01*
X72152123Y-5699501D01*
X72092516Y-5705908D01*
X71957671Y-5756202D01*
X71957664Y-5756206D01*
X71842455Y-5842452D01*
X71842452Y-5842455D01*
X71756206Y-5957664D01*
X71756202Y-5957671D01*
X71705908Y-6092517D01*
X71699501Y-6152116D01*
X71699501Y-6152123D01*
X71699500Y-6152135D01*
X71699500Y-6834216D01*
X71679815Y-6901255D01*
X71663181Y-6921897D01*
X71464008Y-7121069D01*
X71402685Y-7154554D01*
X71332993Y-7149570D01*
X71277060Y-7107698D01*
X71252643Y-7042234D01*
X71252799Y-7022578D01*
X71254774Y-6999998D01*
X71235712Y-6782115D01*
X71235710Y-6782105D01*
X71179105Y-6570849D01*
X71179101Y-6570840D01*
X71086667Y-6372614D01*
X71086666Y-6372612D01*
X71043124Y-6310428D01*
X71043124Y-6310427D01*
X70350000Y-7003551D01*
X70350000Y-6953922D01*
X70326148Y-6864905D01*
X70280070Y-6785095D01*
X70214905Y-6719930D01*
X70135095Y-6673852D01*
X70046078Y-6650000D01*
X69953922Y-6650000D01*
X69864905Y-6673852D01*
X69785095Y-6719930D01*
X69719930Y-6785095D01*
X69673852Y-6864905D01*
X69650000Y-6953922D01*
X69650000Y-7003554D01*
X68956874Y-6310428D01*
X68913333Y-6372613D01*
X68820898Y-6570840D01*
X68820894Y-6570849D01*
X68764289Y-6782105D01*
X68764287Y-6782115D01*
X68745225Y-6999999D01*
X68745225Y-7000000D01*
X68764287Y-7217884D01*
X68764289Y-7217894D01*
X68797920Y-7343407D01*
X68796257Y-7413257D01*
X68757094Y-7471119D01*
X68692866Y-7498623D01*
X68678145Y-7499500D01*
X67965783Y-7499500D01*
X67898744Y-7479815D01*
X67878102Y-7463181D01*
X67340161Y-6925240D01*
X67306676Y-6863917D01*
X67304006Y-6843926D01*
X67301187Y-6789106D01*
X67258399Y-5956874D01*
X69310428Y-5956874D01*
X70000000Y-6646446D01*
X70000001Y-6646446D01*
X70689571Y-5956874D01*
X70627387Y-5913333D01*
X70429159Y-5820898D01*
X70429150Y-5820894D01*
X70217894Y-5764289D01*
X70217884Y-5764287D01*
X70000001Y-5745225D01*
X69999999Y-5745225D01*
X69782115Y-5764287D01*
X69782105Y-5764289D01*
X69570849Y-5820894D01*
X69570840Y-5820898D01*
X69372613Y-5913333D01*
X69310428Y-5956874D01*
X67258399Y-5956874D01*
X67180821Y-4447980D01*
X67184882Y-4409521D01*
X67236207Y-4217977D01*
X67255277Y-4000000D01*
X67236207Y-3782023D01*
X67179575Y-3570670D01*
X67087102Y-3372362D01*
X67087100Y-3372359D01*
X67087099Y-3372357D01*
X66961599Y-3193124D01*
X66961598Y-3193123D01*
X66806877Y-3038402D01*
X66752030Y-2999998D01*
X69994891Y-2999998D01*
X69994891Y-3000001D01*
X70015300Y-3285362D01*
X70076109Y-3564895D01*
X70176091Y-3832958D01*
X70313191Y-4084038D01*
X70313196Y-4084046D01*
X70419882Y-4226561D01*
X70419883Y-4226562D01*
X71322421Y-3324024D01*
X71335359Y-3355258D01*
X71417437Y-3478097D01*
X71521903Y-3582563D01*
X71644742Y-3664641D01*
X71675974Y-3677578D01*
X70773436Y-4580115D01*
X70915960Y-4686807D01*
X70915961Y-4686808D01*
X71167042Y-4823908D01*
X71167041Y-4823908D01*
X71435104Y-4923890D01*
X71714637Y-4984699D01*
X71999999Y-5005109D01*
X72000001Y-5005109D01*
X72285362Y-4984699D01*
X72564895Y-4923890D01*
X72832958Y-4823908D01*
X73084047Y-4686803D01*
X73226561Y-4580116D01*
X73226562Y-4580115D01*
X72324025Y-3677577D01*
X72355258Y-3664641D01*
X72478097Y-3582563D01*
X72582563Y-3478097D01*
X72664641Y-3355258D01*
X72677578Y-3324025D01*
X73580115Y-4226562D01*
X73580116Y-4226561D01*
X73686803Y-4084047D01*
X73823908Y-3832958D01*
X73923890Y-3564895D01*
X73984699Y-3285362D01*
X74005109Y-3000001D01*
X74005109Y-2999998D01*
X73984699Y-2714637D01*
X73923890Y-2435104D01*
X73823908Y-2167041D01*
X73686808Y-1915961D01*
X73686807Y-1915960D01*
X73580115Y-1773436D01*
X72677577Y-2675973D01*
X72664641Y-2644742D01*
X72582563Y-2521903D01*
X72478097Y-2417437D01*
X72355258Y-2335359D01*
X72324024Y-2322421D01*
X73226562Y-1419883D01*
X73226561Y-1419882D01*
X73084046Y-1313196D01*
X73084038Y-1313191D01*
X72832957Y-1176091D01*
X72832958Y-1176091D01*
X72564895Y-1076109D01*
X72285362Y-1015300D01*
X72000001Y-994891D01*
X71999999Y-994891D01*
X71714637Y-1015300D01*
X71435104Y-1076109D01*
X71167041Y-1176091D01*
X70915961Y-1313191D01*
X70915953Y-1313196D01*
X70773437Y-1419882D01*
X70773436Y-1419883D01*
X71675975Y-2322421D01*
X71644742Y-2335359D01*
X71521903Y-2417437D01*
X71417437Y-2521903D01*
X71335359Y-2644742D01*
X71322421Y-2675974D01*
X70419883Y-1773436D01*
X70419882Y-1773437D01*
X70313196Y-1915953D01*
X70313191Y-1915961D01*
X70176091Y-2167041D01*
X70076109Y-2435104D01*
X70015300Y-2714637D01*
X69994891Y-2999998D01*
X66752030Y-2999998D01*
X66627639Y-2912898D01*
X66627638Y-2912897D01*
X66627636Y-2912896D01*
X66472487Y-2840549D01*
X66451776Y-2828317D01*
X66202658Y-2646446D01*
X65687002Y-2269985D01*
X65672437Y-2257516D01*
X65637785Y-2222863D01*
X65637782Y-2222860D01*
X65473919Y-2113371D01*
X65473916Y-2113369D01*
X65473914Y-2113368D01*
X65473911Y-2113366D01*
X65468543Y-2110498D01*
X65468607Y-2110377D01*
X65459613Y-2105794D01*
X65444697Y-2096655D01*
X65405385Y-2072571D01*
X65405375Y-2072566D01*
X65405359Y-2072557D01*
X65369746Y-2054523D01*
X65369720Y-2054511D01*
X65294071Y-2023609D01*
X65294064Y-2023606D01*
X65294058Y-2023604D01*
X65294050Y-2023601D01*
X65294046Y-2023600D01*
X64439383Y-1752779D01*
X64439368Y-1752775D01*
X63140223Y-1341111D01*
X63140191Y-1341102D01*
X63138884Y-1340793D01*
X63138615Y-1340667D01*
X63137992Y-1340495D01*
X63138014Y-1340411D01*
X63138012Y-1340411D01*
X63138019Y-1340388D01*
X63093176Y-1319406D01*
X63084319Y-1312776D01*
X63084318Y-1312775D01*
X62833166Y-1175635D01*
X62833167Y-1175635D01*
X62671303Y-1115263D01*
X62565046Y-1075631D01*
X62565043Y-1075630D01*
X62565037Y-1075628D01*
X62285433Y-1014804D01*
X62000001Y-994390D01*
X61999999Y-994390D01*
X61714566Y-1014804D01*
X61434962Y-1075628D01*
X61166833Y-1175635D01*
X60915687Y-1312772D01*
X60915682Y-1312776D01*
X60913501Y-1314408D01*
X60883909Y-1330794D01*
X60824235Y-1353860D01*
X60824234Y-1353860D01*
X60824233Y-1353861D01*
X60824227Y-1353864D01*
X60824218Y-1353868D01*
X60824214Y-1353871D01*
X60698779Y-1424308D01*
X60698775Y-1424310D01*
X60698773Y-1424312D01*
X58420274Y-3172532D01*
X56402514Y-4720697D01*
X56326565Y-4792609D01*
X56293344Y-4831332D01*
X56293343Y-4831333D01*
X56233829Y-4917316D01*
X56183275Y-5052017D01*
X56168666Y-5118517D01*
X56168338Y-5119914D01*
X56168281Y-5120264D01*
X56165659Y-5155913D01*
X56141108Y-5221327D01*
X56106216Y-5247335D01*
X55400000Y-5953551D01*
X55400000Y-5947339D01*
X55372741Y-5845606D01*
X55320080Y-5754394D01*
X55245606Y-5679920D01*
X55154394Y-5627259D01*
X55052661Y-5600000D01*
X55046448Y-5600000D01*
X55725472Y-4920974D01*
X55652478Y-4869863D01*
X55446331Y-4773735D01*
X55446317Y-4773730D01*
X55226610Y-4714860D01*
X55226599Y-4714858D01*
X55000002Y-4695034D01*
X54999998Y-4695034D01*
X54773400Y-4714858D01*
X54773389Y-4714860D01*
X54553682Y-4773730D01*
X54553673Y-4773734D01*
X54347516Y-4869866D01*
X54347512Y-4869868D01*
X54274526Y-4920973D01*
X54274526Y-4920974D01*
X54953553Y-5600000D01*
X54947339Y-5600000D01*
X54845606Y-5627259D01*
X54754394Y-5679920D01*
X54679920Y-5754394D01*
X54627259Y-5845606D01*
X54600000Y-5947339D01*
X54600000Y-5953552D01*
X53920974Y-5274526D01*
X53920973Y-5274526D01*
X53869868Y-5347512D01*
X53869866Y-5347516D01*
X53773734Y-5553673D01*
X53773730Y-5553682D01*
X53714860Y-5773389D01*
X53714858Y-5773400D01*
X53695034Y-5999997D01*
X52259583Y-5999997D01*
X52243797Y-5957671D01*
X52243793Y-5957664D01*
X52157547Y-5842455D01*
X52157544Y-5842452D01*
X52042335Y-5756206D01*
X52042328Y-5756202D01*
X51907482Y-5705908D01*
X51907483Y-5705908D01*
X51847883Y-5699501D01*
X51847881Y-5699500D01*
X51847873Y-5699500D01*
X51847864Y-5699500D01*
X50152129Y-5699500D01*
X50152123Y-5699501D01*
X50092516Y-5705908D01*
X49957671Y-5756202D01*
X49957664Y-5756206D01*
X49842455Y-5842452D01*
X49842452Y-5842455D01*
X49756206Y-5957664D01*
X49756202Y-5957671D01*
X49705908Y-6092517D01*
X49699501Y-6152116D01*
X49699501Y-6152123D01*
X49699500Y-6152135D01*
X49699500Y-6834216D01*
X49679815Y-6901255D01*
X49663181Y-6921897D01*
X49464008Y-7121069D01*
X49402685Y-7154554D01*
X49332993Y-7149570D01*
X49277060Y-7107698D01*
X49252643Y-7042234D01*
X49252799Y-7022578D01*
X49254774Y-6999998D01*
X49235712Y-6782115D01*
X49235710Y-6782105D01*
X49179105Y-6570849D01*
X49179101Y-6570840D01*
X49086667Y-6372614D01*
X49086666Y-6372612D01*
X49043124Y-6310428D01*
X49043124Y-6310427D01*
X48350000Y-7003551D01*
X48350000Y-6953922D01*
X48326148Y-6864905D01*
X48280070Y-6785095D01*
X48214905Y-6719930D01*
X48135095Y-6673852D01*
X48046078Y-6650000D01*
X47953922Y-6650000D01*
X47864905Y-6673852D01*
X47785095Y-6719930D01*
X47719930Y-6785095D01*
X47673852Y-6864905D01*
X47650000Y-6953922D01*
X47650000Y-7003554D01*
X46956873Y-6310427D01*
X46913333Y-6372612D01*
X46913331Y-6372615D01*
X46909584Y-6380651D01*
X46863410Y-6433089D01*
X46796216Y-6452239D01*
X46729336Y-6432021D01*
X46709523Y-6415924D01*
X46662888Y-6369289D01*
X46662885Y-6369285D01*
X46662885Y-6369286D01*
X46655818Y-6362219D01*
X46655818Y-6362218D01*
X46516461Y-6222861D01*
X46516460Y-6222860D01*
X46516459Y-6222859D01*
X46352599Y-6113371D01*
X46352586Y-6113364D01*
X46219319Y-6058164D01*
X46219318Y-6058164D01*
X46170515Y-6037949D01*
X46170507Y-6037947D01*
X46073867Y-6018724D01*
X45977223Y-5999500D01*
X45977220Y-5999500D01*
X43378379Y-5999500D01*
X43311340Y-5979815D01*
X43291461Y-5956874D01*
X47310428Y-5956874D01*
X48000000Y-6646446D01*
X48000001Y-6646446D01*
X48689571Y-5956874D01*
X48627387Y-5913333D01*
X48429159Y-5820898D01*
X48429150Y-5820894D01*
X48217894Y-5764289D01*
X48217884Y-5764287D01*
X48000001Y-5745225D01*
X47999999Y-5745225D01*
X47782115Y-5764287D01*
X47782105Y-5764289D01*
X47570849Y-5820894D01*
X47570840Y-5820898D01*
X47372613Y-5913333D01*
X47310428Y-5956874D01*
X43291461Y-5956874D01*
X43265585Y-5927011D01*
X43254543Y-5881867D01*
X43223317Y-5274526D01*
X43180821Y-4447980D01*
X43184882Y-4409521D01*
X43236207Y-4217977D01*
X43255277Y-4000000D01*
X43236207Y-3782023D01*
X43179575Y-3570670D01*
X43087102Y-3372362D01*
X43087100Y-3372359D01*
X43087099Y-3372357D01*
X42961599Y-3193124D01*
X42961598Y-3193123D01*
X42806877Y-3038402D01*
X42752030Y-2999998D01*
X47994891Y-2999998D01*
X47994891Y-3000001D01*
X48015300Y-3285362D01*
X48076109Y-3564895D01*
X48176091Y-3832958D01*
X48313191Y-4084038D01*
X48313196Y-4084046D01*
X48419882Y-4226561D01*
X48419883Y-4226562D01*
X49322421Y-3324024D01*
X49335359Y-3355258D01*
X49417437Y-3478097D01*
X49521903Y-3582563D01*
X49644742Y-3664641D01*
X49675974Y-3677578D01*
X48773436Y-4580115D01*
X48915960Y-4686807D01*
X48915961Y-4686808D01*
X49167042Y-4823908D01*
X49167041Y-4823908D01*
X49435104Y-4923890D01*
X49714637Y-4984699D01*
X49999999Y-5005109D01*
X50000001Y-5005109D01*
X50285362Y-4984699D01*
X50564895Y-4923890D01*
X50832958Y-4823908D01*
X51084047Y-4686803D01*
X51226561Y-4580116D01*
X51226562Y-4580115D01*
X50324025Y-3677577D01*
X50355258Y-3664641D01*
X50478097Y-3582563D01*
X50582563Y-3478097D01*
X50664641Y-3355258D01*
X50677578Y-3324025D01*
X51580115Y-4226562D01*
X51580116Y-4226561D01*
X51686803Y-4084047D01*
X51823908Y-3832958D01*
X51923890Y-3564895D01*
X51984699Y-3285362D01*
X52005109Y-3000001D01*
X52005109Y-2999998D01*
X51984699Y-2714637D01*
X51923890Y-2435104D01*
X51823908Y-2167041D01*
X51686808Y-1915961D01*
X51686807Y-1915960D01*
X51580115Y-1773436D01*
X50677577Y-2675973D01*
X50664641Y-2644742D01*
X50582563Y-2521903D01*
X50478097Y-2417437D01*
X50355258Y-2335359D01*
X50324024Y-2322421D01*
X51226562Y-1419883D01*
X51226561Y-1419882D01*
X51084046Y-1313196D01*
X51084038Y-1313191D01*
X50832957Y-1176091D01*
X50832958Y-1176091D01*
X50564895Y-1076109D01*
X50285362Y-1015300D01*
X50000001Y-994891D01*
X49999999Y-994891D01*
X49714637Y-1015300D01*
X49435104Y-1076109D01*
X49167041Y-1176091D01*
X48915961Y-1313191D01*
X48915953Y-1313196D01*
X48773437Y-1419882D01*
X48773436Y-1419883D01*
X49675975Y-2322421D01*
X49644742Y-2335359D01*
X49521903Y-2417437D01*
X49417437Y-2521903D01*
X49335359Y-2644742D01*
X49322421Y-2675974D01*
X48419883Y-1773436D01*
X48419882Y-1773437D01*
X48313196Y-1915953D01*
X48313191Y-1915961D01*
X48176091Y-2167041D01*
X48076109Y-2435104D01*
X48015300Y-2714637D01*
X47994891Y-2999998D01*
X42752030Y-2999998D01*
X42627639Y-2912898D01*
X42627638Y-2912897D01*
X42627636Y-2912896D01*
X42472487Y-2840549D01*
X42451776Y-2828317D01*
X42202658Y-2646446D01*
X41687002Y-2269985D01*
X41672437Y-2257516D01*
X41637785Y-2222863D01*
X41637782Y-2222860D01*
X41473919Y-2113371D01*
X41473916Y-2113369D01*
X41473914Y-2113368D01*
X41473911Y-2113366D01*
X41468543Y-2110498D01*
X41468607Y-2110377D01*
X41459613Y-2105794D01*
X41444697Y-2096655D01*
X41405385Y-2072571D01*
X41405375Y-2072566D01*
X41405359Y-2072557D01*
X41369746Y-2054523D01*
X41369720Y-2054511D01*
X41294071Y-2023609D01*
X41294064Y-2023606D01*
X41294058Y-2023604D01*
X41294050Y-2023601D01*
X41294046Y-2023600D01*
X40439383Y-1752779D01*
X40439368Y-1752775D01*
X39140223Y-1341111D01*
X39140191Y-1341102D01*
X39138884Y-1340793D01*
X39138615Y-1340667D01*
X39137992Y-1340495D01*
X39138014Y-1340411D01*
X39138012Y-1340411D01*
X39138019Y-1340388D01*
X39093176Y-1319406D01*
X39084319Y-1312776D01*
X39084318Y-1312775D01*
X38833166Y-1175635D01*
X38833167Y-1175635D01*
X38671303Y-1115263D01*
X38565046Y-1075631D01*
X38565043Y-1075630D01*
X38565037Y-1075628D01*
X38285433Y-1014804D01*
X38000001Y-994390D01*
X37999999Y-994390D01*
X37714566Y-1014804D01*
X37434962Y-1075628D01*
X37166833Y-1175635D01*
X36915687Y-1312772D01*
X36915682Y-1312776D01*
X36913501Y-1314408D01*
X36883909Y-1330794D01*
X36824235Y-1353860D01*
X36824234Y-1353860D01*
X36824233Y-1353861D01*
X36824227Y-1353864D01*
X36824218Y-1353868D01*
X36824214Y-1353871D01*
X36698779Y-1424308D01*
X36698775Y-1424310D01*
X36698773Y-1424312D01*
X34420274Y-3172532D01*
X32402514Y-4720697D01*
X32326565Y-4792609D01*
X32293344Y-4831332D01*
X32293343Y-4831333D01*
X32233829Y-4917316D01*
X32183275Y-5052017D01*
X32168666Y-5118517D01*
X32168338Y-5119914D01*
X32168281Y-5120264D01*
X32165659Y-5155913D01*
X32141108Y-5221327D01*
X32106216Y-5247335D01*
X31400000Y-5953551D01*
X31400000Y-5947339D01*
X31372741Y-5845606D01*
X31320080Y-5754394D01*
X31245606Y-5679920D01*
X31154394Y-5627259D01*
X31052661Y-5600000D01*
X31046448Y-5600000D01*
X31725472Y-4920974D01*
X31652478Y-4869863D01*
X31446331Y-4773735D01*
X31446317Y-4773730D01*
X31226610Y-4714860D01*
X31226599Y-4714858D01*
X31000002Y-4695034D01*
X30999998Y-4695034D01*
X30773400Y-4714858D01*
X30773389Y-4714860D01*
X30553682Y-4773730D01*
X30553673Y-4773734D01*
X30347516Y-4869866D01*
X30347512Y-4869868D01*
X30274526Y-4920973D01*
X30274526Y-4920974D01*
X30953553Y-5600000D01*
X30947339Y-5600000D01*
X30845606Y-5627259D01*
X30754394Y-5679920D01*
X30679920Y-5754394D01*
X30627259Y-5845606D01*
X30600000Y-5947339D01*
X30600000Y-5953552D01*
X29920974Y-5274526D01*
X29920973Y-5274526D01*
X29869868Y-5347512D01*
X29869866Y-5347516D01*
X29773734Y-5553673D01*
X29773730Y-5553682D01*
X29714860Y-5773389D01*
X29714858Y-5773400D01*
X29695034Y-5999997D01*
X28259583Y-5999997D01*
X28243797Y-5957671D01*
X28243793Y-5957664D01*
X28157547Y-5842455D01*
X28157544Y-5842452D01*
X28042335Y-5756206D01*
X28042328Y-5756202D01*
X27907482Y-5705908D01*
X27907483Y-5705908D01*
X27847883Y-5699501D01*
X27847881Y-5699500D01*
X27847873Y-5699500D01*
X27847864Y-5699500D01*
X26152129Y-5699500D01*
X26152123Y-5699501D01*
X26092516Y-5705908D01*
X25957671Y-5756202D01*
X25957664Y-5756206D01*
X25842455Y-5842452D01*
X25842452Y-5842455D01*
X25756206Y-5957664D01*
X25756202Y-5957671D01*
X25705908Y-6092517D01*
X25699501Y-6152116D01*
X25699501Y-6152123D01*
X25699500Y-6152135D01*
X25699500Y-6834216D01*
X25679815Y-6901255D01*
X25663181Y-6921897D01*
X25464008Y-7121069D01*
X25402685Y-7154554D01*
X25332993Y-7149570D01*
X25277060Y-7107698D01*
X25252643Y-7042234D01*
X25252799Y-7022578D01*
X25254774Y-6999998D01*
X25235712Y-6782115D01*
X25235710Y-6782105D01*
X25179105Y-6570849D01*
X25179101Y-6570840D01*
X25086667Y-6372614D01*
X25086666Y-6372612D01*
X25043124Y-6310428D01*
X25043124Y-6310427D01*
X24350000Y-7003551D01*
X24350000Y-6953922D01*
X24326148Y-6864905D01*
X24280070Y-6785095D01*
X24214905Y-6719930D01*
X24135095Y-6673852D01*
X24046078Y-6650000D01*
X23953922Y-6650000D01*
X23864905Y-6673852D01*
X23785095Y-6719930D01*
X23719930Y-6785095D01*
X23673852Y-6864905D01*
X23650000Y-6953922D01*
X23650000Y-7003554D01*
X22956874Y-6310428D01*
X22913333Y-6372613D01*
X22820898Y-6570840D01*
X22820894Y-6570849D01*
X22764289Y-6782105D01*
X22764287Y-6782115D01*
X22745225Y-6999999D01*
X22745225Y-7000000D01*
X22764287Y-7217884D01*
X22764289Y-7217894D01*
X22797920Y-7343407D01*
X22796257Y-7413257D01*
X22757094Y-7471119D01*
X22692866Y-7498623D01*
X22678145Y-7499500D01*
X21965783Y-7499500D01*
X21898744Y-7479815D01*
X21878102Y-7463181D01*
X21340161Y-6925240D01*
X21306676Y-6863917D01*
X21304006Y-6843926D01*
X21301187Y-6789106D01*
X21258399Y-5956874D01*
X23310428Y-5956874D01*
X24000000Y-6646446D01*
X24000001Y-6646446D01*
X24689571Y-5956874D01*
X24627387Y-5913333D01*
X24429159Y-5820898D01*
X24429150Y-5820894D01*
X24217894Y-5764289D01*
X24217884Y-5764287D01*
X24000001Y-5745225D01*
X23999999Y-5745225D01*
X23782115Y-5764287D01*
X23782105Y-5764289D01*
X23570849Y-5820894D01*
X23570840Y-5820898D01*
X23372613Y-5913333D01*
X23310428Y-5956874D01*
X21258399Y-5956874D01*
X21180821Y-4447980D01*
X21184882Y-4409521D01*
X21236207Y-4217977D01*
X21255277Y-4000000D01*
X21236207Y-3782023D01*
X21179575Y-3570670D01*
X21087102Y-3372362D01*
X21087100Y-3372359D01*
X21087099Y-3372357D01*
X20961599Y-3193124D01*
X20961598Y-3193123D01*
X20806877Y-3038402D01*
X20752030Y-2999998D01*
X23994891Y-2999998D01*
X23994891Y-3000001D01*
X24015300Y-3285362D01*
X24076109Y-3564895D01*
X24176091Y-3832958D01*
X24313191Y-4084038D01*
X24313196Y-4084046D01*
X24419882Y-4226561D01*
X24419883Y-4226562D01*
X25322421Y-3324024D01*
X25335359Y-3355258D01*
X25417437Y-3478097D01*
X25521903Y-3582563D01*
X25644742Y-3664641D01*
X25675974Y-3677578D01*
X24773436Y-4580115D01*
X24915960Y-4686807D01*
X24915961Y-4686808D01*
X25167042Y-4823908D01*
X25167041Y-4823908D01*
X25435104Y-4923890D01*
X25714637Y-4984699D01*
X25999999Y-5005109D01*
X26000001Y-5005109D01*
X26285362Y-4984699D01*
X26564895Y-4923890D01*
X26832958Y-4823908D01*
X27084047Y-4686803D01*
X27226561Y-4580116D01*
X27226562Y-4580115D01*
X26324025Y-3677577D01*
X26355258Y-3664641D01*
X26478097Y-3582563D01*
X26582563Y-3478097D01*
X26664641Y-3355258D01*
X26677578Y-3324025D01*
X27580115Y-4226562D01*
X27580116Y-4226561D01*
X27686803Y-4084047D01*
X27823908Y-3832958D01*
X27923890Y-3564895D01*
X27984699Y-3285362D01*
X28005109Y-3000001D01*
X28005109Y-2999998D01*
X27984699Y-2714637D01*
X27923890Y-2435104D01*
X27823908Y-2167041D01*
X27686808Y-1915961D01*
X27686807Y-1915960D01*
X27580115Y-1773436D01*
X26677577Y-2675973D01*
X26664641Y-2644742D01*
X26582563Y-2521903D01*
X26478097Y-2417437D01*
X26355258Y-2335359D01*
X26324024Y-2322421D01*
X27226562Y-1419883D01*
X27226561Y-1419882D01*
X27084046Y-1313196D01*
X27084038Y-1313191D01*
X26832957Y-1176091D01*
X26832958Y-1176091D01*
X26564895Y-1076109D01*
X26285362Y-1015300D01*
X26000001Y-994891D01*
X25999999Y-994891D01*
X25714637Y-1015300D01*
X25435104Y-1076109D01*
X25167041Y-1176091D01*
X24915961Y-1313191D01*
X24915953Y-1313196D01*
X24773437Y-1419882D01*
X24773436Y-1419883D01*
X25675975Y-2322421D01*
X25644742Y-2335359D01*
X25521903Y-2417437D01*
X25417437Y-2521903D01*
X25335359Y-2644742D01*
X25322421Y-2675974D01*
X24419883Y-1773436D01*
X24419882Y-1773437D01*
X24313196Y-1915953D01*
X24313191Y-1915961D01*
X24176091Y-2167041D01*
X24076109Y-2435104D01*
X24015300Y-2714637D01*
X23994891Y-2999998D01*
X20752030Y-2999998D01*
X20627639Y-2912898D01*
X20627638Y-2912897D01*
X20627636Y-2912896D01*
X20472487Y-2840549D01*
X20451776Y-2828317D01*
X20202658Y-2646446D01*
X19687002Y-2269985D01*
X19672437Y-2257516D01*
X19637785Y-2222863D01*
X19637782Y-2222860D01*
X19473919Y-2113371D01*
X19473916Y-2113369D01*
X19473914Y-2113368D01*
X19473911Y-2113366D01*
X19468543Y-2110498D01*
X19468607Y-2110377D01*
X19459613Y-2105794D01*
X19444697Y-2096655D01*
X19405385Y-2072571D01*
X19405375Y-2072566D01*
X19405359Y-2072557D01*
X19369746Y-2054523D01*
X19369720Y-2054511D01*
X19294071Y-2023609D01*
X19294064Y-2023606D01*
X19294058Y-2023604D01*
X19294050Y-2023601D01*
X19294046Y-2023600D01*
X18439383Y-1752779D01*
X18439368Y-1752775D01*
X17140223Y-1341111D01*
X17140191Y-1341102D01*
X17138884Y-1340793D01*
X17138615Y-1340667D01*
X17137992Y-1340495D01*
X17138014Y-1340411D01*
X17138012Y-1340411D01*
X17138019Y-1340388D01*
X17093176Y-1319406D01*
X17084319Y-1312776D01*
X17084318Y-1312775D01*
X16833166Y-1175635D01*
X16833167Y-1175635D01*
X16671303Y-1115263D01*
X16565046Y-1075631D01*
X16565043Y-1075630D01*
X16565037Y-1075628D01*
X16285433Y-1014804D01*
X16000001Y-994390D01*
X15999999Y-994390D01*
X15714566Y-1014804D01*
X15434962Y-1075628D01*
X15166833Y-1175635D01*
X14915687Y-1312772D01*
X14915682Y-1312776D01*
X14913501Y-1314408D01*
X14883909Y-1330794D01*
X14824235Y-1353860D01*
X14824234Y-1353860D01*
X14824233Y-1353861D01*
X14824227Y-1353864D01*
X14824218Y-1353868D01*
X14824214Y-1353871D01*
X14698779Y-1424308D01*
X14698775Y-1424310D01*
X14698773Y-1424312D01*
X12420274Y-3172532D01*
X10402514Y-4720697D01*
X10326565Y-4792609D01*
X10293344Y-4831332D01*
X10293343Y-4831333D01*
X10233829Y-4917316D01*
X10183275Y-5052017D01*
X10168666Y-5118517D01*
X10168338Y-5119914D01*
X10168281Y-5120264D01*
X10165659Y-5155913D01*
X10141108Y-5221327D01*
X10106216Y-5247335D01*
X9400000Y-5953551D01*
X9400000Y-5947339D01*
X9372741Y-5845606D01*
X9320080Y-5754394D01*
X9245606Y-5679920D01*
X9154394Y-5627259D01*
X9052661Y-5600000D01*
X9046448Y-5600000D01*
X9725472Y-4920974D01*
X9652478Y-4869863D01*
X9446331Y-4773735D01*
X9446317Y-4773730D01*
X9226610Y-4714860D01*
X9226599Y-4714858D01*
X9000002Y-4695034D01*
X8999998Y-4695034D01*
X8773400Y-4714858D01*
X8773389Y-4714860D01*
X8553682Y-4773730D01*
X8553673Y-4773734D01*
X8347516Y-4869866D01*
X8347512Y-4869868D01*
X8274526Y-4920973D01*
X8274526Y-4920974D01*
X8953553Y-5600000D01*
X8947339Y-5600000D01*
X8845606Y-5627259D01*
X8754394Y-5679920D01*
X8679920Y-5754394D01*
X8627259Y-5845606D01*
X8600000Y-5947339D01*
X8600000Y-5953552D01*
X7920974Y-5274526D01*
X7920973Y-5274526D01*
X7869868Y-5347512D01*
X7869866Y-5347516D01*
X7773734Y-5553673D01*
X7773730Y-5553682D01*
X7714860Y-5773389D01*
X7714858Y-5773400D01*
X7695034Y-5999997D01*
X6259583Y-5999997D01*
X6243797Y-5957671D01*
X6243793Y-5957664D01*
X6157547Y-5842455D01*
X6157544Y-5842452D01*
X6042335Y-5756206D01*
X6042328Y-5756202D01*
X5907482Y-5705908D01*
X5907483Y-5705908D01*
X5847883Y-5699501D01*
X5847881Y-5699500D01*
X5847873Y-5699500D01*
X5847864Y-5699500D01*
X4152129Y-5699500D01*
X4152123Y-5699501D01*
X4092516Y-5705908D01*
X3957671Y-5756202D01*
X3957664Y-5756206D01*
X3842455Y-5842452D01*
X3842452Y-5842455D01*
X3756206Y-5957664D01*
X3756202Y-5957671D01*
X3705908Y-6092517D01*
X3699501Y-6152116D01*
X3699501Y-6152123D01*
X3699500Y-6152135D01*
X2494311Y-6152135D01*
X2689571Y-5956874D01*
X2627387Y-5913333D01*
X2429159Y-5820898D01*
X2429150Y-5820894D01*
X2217894Y-5764289D01*
X2217884Y-5764287D01*
X2000001Y-5745225D01*
X1999999Y-5745225D01*
X1782115Y-5764287D01*
X1782105Y-5764289D01*
X1570849Y-5820894D01*
X1570840Y-5820898D01*
X1372613Y-5913333D01*
X1310428Y-5956874D01*
X400500Y-5956874D01*
X400500Y-2999998D01*
X1994891Y-2999998D01*
X1994891Y-3000001D01*
X2015300Y-3285362D01*
X2076109Y-3564895D01*
X2176091Y-3832958D01*
X2313191Y-4084038D01*
X2313196Y-4084046D01*
X2419882Y-4226561D01*
X2419883Y-4226562D01*
X3322421Y-3324024D01*
X3335359Y-3355258D01*
X3417437Y-3478097D01*
X3521903Y-3582563D01*
X3644742Y-3664641D01*
X3675974Y-3677578D01*
X2773436Y-4580115D01*
X2915960Y-4686807D01*
X2915961Y-4686808D01*
X3167042Y-4823908D01*
X3167041Y-4823908D01*
X3435104Y-4923890D01*
X3714637Y-4984699D01*
X3999999Y-5005109D01*
X4000001Y-5005109D01*
X4285362Y-4984699D01*
X4564895Y-4923890D01*
X4832958Y-4823908D01*
X5084047Y-4686803D01*
X5226561Y-4580116D01*
X5226562Y-4580115D01*
X4324025Y-3677577D01*
X4355258Y-3664641D01*
X4478097Y-3582563D01*
X4582563Y-3478097D01*
X4664641Y-3355258D01*
X4677578Y-3324025D01*
X5580115Y-4226562D01*
X5580116Y-4226561D01*
X5686803Y-4084047D01*
X5823908Y-3832958D01*
X5923890Y-3564895D01*
X5984699Y-3285362D01*
X6005109Y-3000001D01*
X6005109Y-2999998D01*
X5984699Y-2714637D01*
X5923890Y-2435104D01*
X5823908Y-2167041D01*
X5686808Y-1915961D01*
X5686807Y-1915960D01*
X5580115Y-1773436D01*
X4677577Y-2675973D01*
X4664641Y-2644742D01*
X4582563Y-2521903D01*
X4478097Y-2417437D01*
X4355258Y-2335359D01*
X4324024Y-2322421D01*
X5226562Y-1419883D01*
X5226561Y-1419882D01*
X5084046Y-1313196D01*
X5084038Y-1313191D01*
X4832957Y-1176091D01*
X4832958Y-1176091D01*
X4564895Y-1076109D01*
X4285362Y-1015300D01*
X4000001Y-994891D01*
X3999999Y-994891D01*
X3714637Y-1015300D01*
X3435104Y-1076109D01*
X3167041Y-1176091D01*
X2915961Y-1313191D01*
X2915953Y-1313196D01*
X2773437Y-1419882D01*
X2773436Y-1419883D01*
X3675975Y-2322421D01*
X3644742Y-2335359D01*
X3521903Y-2417437D01*
X3417437Y-2521903D01*
X3335359Y-2644742D01*
X3322421Y-2675974D01*
X2419883Y-1773436D01*
X2419882Y-1773437D01*
X2313196Y-1915953D01*
X2313191Y-1915961D01*
X2176091Y-2167041D01*
X2076109Y-2435104D01*
X2015300Y-2714637D01*
X1994891Y-2999998D01*
X400500Y-2999998D01*
X400500Y-524500D01*
X420185Y-457461D01*
X472989Y-411706D01*
X524500Y-400500D01*
X82364494Y-400500D01*
X82431533Y-420185D01*
G37*
%TD.AperFunction*%
%TD*%
%TA.AperFunction,Conductor*%
%TO.N,+12V*%
G36*
X16951220Y-1817207D02*
G01*
X16987513Y-1822994D01*
X18295765Y-2237543D01*
X19141361Y-2505490D01*
X19177020Y-2523547D01*
X20582571Y-3549685D01*
X20625109Y-3605113D01*
X20633291Y-3643468D01*
X20808534Y-7051946D01*
X20792318Y-7119908D01*
X20789110Y-7125202D01*
X20465706Y-7630029D01*
X20412968Y-7675860D01*
X20396925Y-7681911D01*
X20008274Y-7798505D01*
X19971181Y-7803725D01*
X16167382Y-7758869D01*
X16167381Y-7758869D01*
X12591219Y-11816609D01*
X12532125Y-11853888D01*
X12492737Y-11858502D01*
X11229044Y-11802868D01*
X11162935Y-11780254D01*
X11119547Y-11725489D01*
X11110797Y-11687588D01*
X11000798Y-10104494D01*
X11000500Y-10095899D01*
X11000500Y-8236045D01*
X11000501Y-8236024D01*
X11000501Y-8032827D01*
X11000500Y-8032825D01*
X10962053Y-7839542D01*
X10962052Y-7839535D01*
X10886632Y-7657456D01*
X10886631Y-7657455D01*
X10886627Y-7657447D01*
X10851772Y-7605284D01*
X10842599Y-7591556D01*
X10822000Y-7531265D01*
X10662011Y-5228720D01*
X10677002Y-5160479D01*
X10710230Y-5121747D01*
X15006487Y-1825363D01*
X15071655Y-1800173D01*
X15083118Y-1799748D01*
X16951220Y-1817207D01*
G37*
%TD.AperFunction*%
%TD*%
%TA.AperFunction,Conductor*%
%TO.N,+12V*%
G36*
X38951220Y-1817207D02*
G01*
X38987513Y-1822994D01*
X40295765Y-2237543D01*
X41141361Y-2505490D01*
X41177020Y-2523547D01*
X42582571Y-3549685D01*
X42625109Y-3605113D01*
X42633291Y-3643468D01*
X42808534Y-7051946D01*
X42792318Y-7119908D01*
X42789110Y-7125202D01*
X42465706Y-7630029D01*
X42412968Y-7675860D01*
X42396925Y-7681911D01*
X42008274Y-7798505D01*
X41971181Y-7803725D01*
X38167382Y-7758869D01*
X38167381Y-7758869D01*
X34591219Y-11816609D01*
X34532125Y-11853888D01*
X34492737Y-11858502D01*
X33229044Y-11802868D01*
X33162935Y-11780254D01*
X33119547Y-11725489D01*
X33110797Y-11687588D01*
X33000798Y-10104494D01*
X33000500Y-10095899D01*
X33000500Y-8236045D01*
X33000501Y-8236024D01*
X33000501Y-8032827D01*
X33000500Y-8032825D01*
X32962053Y-7839542D01*
X32962052Y-7839535D01*
X32886632Y-7657456D01*
X32886631Y-7657455D01*
X32886627Y-7657447D01*
X32851772Y-7605284D01*
X32842599Y-7591556D01*
X32822000Y-7531265D01*
X32662011Y-5228720D01*
X32677002Y-5160479D01*
X32710230Y-5121747D01*
X37006487Y-1825363D01*
X37071655Y-1800173D01*
X37083118Y-1799748D01*
X38951220Y-1817207D01*
G37*
%TD.AperFunction*%
%TD*%
M02*
