M48
; DRILL file {KiCad 8.0.6} date 2024-12-08T18:36:01+0900
; FORMAT={-:-/ absolute / metric / decimal}
; #@! TF.CreationDate,2024-12-08T18:36:01+09:00
; #@! TF.GenerationSoftware,Kicad,Pcbnew,8.0.6
; #@! TF.FileFunction,Plated,1,2,PTH
FMAT,2
METRIC
; #@! TA.AperFunction,Plated,PTH,ViaDrill
T1C0.300
; #@! TA.AperFunction,Plated,PTH,ComponentDrill
T2C0.700
; #@! TA.AperFunction,Plated,PTH,ComponentDrill
T3C0.800
; #@! TA.AperFunction,Plated,PTH,ComponentDrill
T4C1.000
; #@! TA.AperFunction,Plated,PTH,ComponentDrill
T5C1.500
%
G90
G05
T1
X2.515Y-9.912
X5.055Y-9.912
X5.055Y-17.532
X5.055Y-20.072
X5.055Y-22.612
X5.055Y-25.152
X7.595Y-2.292
X7.595Y-9.912
X7.595Y-17.532
X7.595Y-20.072
X7.595Y-22.612
X7.595Y-25.152
X10.135Y-2.292
X10.135Y-14.992
X10.135Y-17.532
X10.135Y-20.072
X10.135Y-22.612
X10.135Y-25.152
X12.675Y-17.532
X12.675Y-22.612
X15.215Y-12.452
X17.755Y-9.912
X17.755Y-12.452
X20.295Y-9.912
X20.295Y-12.452
X22.835Y-2.292
X22.835Y-9.912
X22.835Y-12.452
X25.375Y-9.912
X25.375Y-12.452
X25.375Y-22.612
X27.915Y-9.912
X27.915Y-17.532
X27.915Y-20.072
X27.915Y-22.612
X27.915Y-25.152
X30.455Y-2.292
X30.455Y-9.912
X30.455Y-17.532
X30.455Y-20.072
X30.455Y-22.612
X30.455Y-25.152
X32.995Y-2.292
X32.995Y-17.532
X32.995Y-20.072
X32.995Y-22.612
X32.995Y-25.152
X38.075Y-9.912
X38.075Y-12.452
X38.075Y-22.612
X40.615Y-9.912
X40.615Y-12.452
X40.615Y-22.612
X43.155Y-2.292
X43.155Y-9.912
X43.155Y-12.452
X45.695Y-2.292
X45.695Y-4.832
X45.695Y-12.452
X45.695Y-14.992
X45.695Y-17.532
X45.695Y-20.072
X45.695Y-22.612
X45.695Y-25.152
X48.235Y-9.912
X50.775Y-9.912
X50.775Y-17.532
X50.775Y-20.072
X50.775Y-22.612
X50.775Y-25.152
X53.315Y-2.292
X53.315Y-9.912
X53.315Y-17.532
X53.315Y-20.072
X53.315Y-22.612
X53.315Y-25.152
X55.855Y-2.292
X55.855Y-14.992
X55.855Y-17.532
X55.855Y-20.072
X55.855Y-22.612
X55.855Y-25.152
X58.395Y-2.292
X58.395Y-17.532
X58.395Y-20.072
X58.395Y-22.612
X58.395Y-25.152
X60.935Y-12.452
X63.475Y-9.912
X63.475Y-12.452
X66.015Y-9.912
X66.015Y-12.452
X68.555Y-2.292
X68.555Y-4.832
X68.555Y-9.912
X68.555Y-12.452
X71.095Y-9.912
X71.095Y-12.452
X73.635Y-9.912
X73.635Y-17.532
X73.635Y-20.072
X73.635Y-22.612
X73.635Y-25.152
X76.175Y-2.292
X76.175Y-9.912
X76.175Y-17.532
X76.175Y-20.072
X76.175Y-22.612
X76.175Y-25.152
X78.715Y-2.292
X78.715Y-17.532
X78.715Y-20.072
X78.715Y-22.612
X78.715Y-25.152
X83.795Y-12.452
X86.335Y-9.912
X86.335Y-12.452
X88.875Y-9.912
X88.875Y-12.452
T2
X2.0Y-7.0
X2.0Y-14.0
X17.35Y-19.0
X17.35Y-24.0
X20.0Y-4.0
X24.0Y-7.0
X24.0Y-14.0
X39.35Y-19.0
X39.35Y-24.0
X42.0Y-4.0
X48.0Y-7.0
X48.0Y-14.0
X63.35Y-19.0
X63.35Y-24.0
X66.0Y-4.0
X70.0Y-7.0
X70.0Y-14.0
X85.35Y-19.0
X85.35Y-24.0
X88.0Y-4.0
T3
X5.0Y-7.0
X5.0Y-14.62
X9.0Y-6.0
X11.5Y-6.0
X16.0Y-7.0
X16.0Y-14.62
X20.0Y-7.0
X20.0Y-14.62
X20.35Y-19.0
X20.35Y-24.0
X27.0Y-7.0
X27.0Y-14.62
X31.0Y-6.0
X33.5Y-6.0
X38.0Y-7.0
X38.0Y-14.62
X42.0Y-7.0
X42.0Y-14.62
X42.35Y-19.0
X42.35Y-24.0
X51.0Y-7.0
X51.0Y-14.62
X55.0Y-6.0
X57.5Y-6.0
X62.0Y-7.0
X62.0Y-14.62
X66.0Y-7.0
X66.0Y-14.62
X66.35Y-19.0
X66.35Y-24.0
X73.0Y-7.0
X73.0Y-14.62
X77.0Y-6.0
X79.5Y-6.0
X84.0Y-7.0
X84.0Y-14.62
X88.0Y-7.0
X88.0Y-14.62
X88.35Y-19.0
X88.35Y-24.0
T4
X1.65Y-19.0
X1.65Y-24.0
X14.35Y-19.0
X14.35Y-24.0
X23.65Y-19.0
X23.65Y-24.0
X36.35Y-19.0
X36.35Y-24.0
X47.65Y-19.0
X47.65Y-24.0
X60.35Y-19.0
X60.35Y-24.0
X69.65Y-19.0
X69.65Y-24.0
X82.35Y-19.0
X82.35Y-24.0
T5
X4.0Y-3.0
X16.0Y-3.0
X26.0Y-3.0
X38.0Y-3.0
X50.0Y-3.0
X62.0Y-3.0
X72.0Y-3.0
X84.0Y-3.0
M30
