%TF.GenerationSoftware,KiCad,Pcbnew,8.0.6*%
%TF.CreationDate,2024-12-08T18:35:23+09:00*%
%TF.ProjectId,backplane,6261636b-706c-4616-9e65-2e6b69636164,rev?*%
%TF.SameCoordinates,Original*%
%TF.FileFunction,Legend,Top*%
%TF.FilePolarity,Positive*%
%FSLAX46Y46*%
G04 Gerber Fmt 4.6, Leading zero omitted, Abs format (unit mm)*
G04 Created by KiCad (PCBNEW 8.0.6) date 2024-12-08 18:35:23*
%MOMM*%
%LPD*%
G01*
G04 APERTURE LIST*
G04 Aperture macros list*
%AMRoundRect*
0 Rectangle with rounded corners*
0 $1 Rounding radius*
0 $2 $3 $4 $5 $6 $7 $8 $9 X,Y pos of 4 corners*
0 Add a 4 corners polygon primitive as box body*
4,1,4,$2,$3,$4,$5,$6,$7,$8,$9,$2,$3,0*
0 Add four circle primitives for the rounded corners*
1,1,$1+$1,$2,$3*
1,1,$1+$1,$4,$5*
1,1,$1+$1,$6,$7*
1,1,$1+$1,$8,$9*
0 Add four rect primitives between the rounded corners*
20,1,$1+$1,$2,$3,$4,$5,0*
20,1,$1+$1,$4,$5,$6,$7,0*
20,1,$1+$1,$6,$7,$8,$9,0*
20,1,$1+$1,$8,$9,$2,$3,0*%
%AMFreePoly0*
4,1,25,0.426870,1.026870,0.915740,0.538000,2.600000,0.538000,2.626870,0.526870,2.638000,0.500000,2.638000,-0.500000,2.626870,-0.526870,2.600000,-0.538000,0.915740,-0.538000,0.426870,-1.026870,0.400000,-1.038000,-0.400000,-1.038000,-0.426870,-1.026870,-0.915740,-0.538000,-2.600000,-0.538000,-2.626870,-0.526870,-2.638000,-0.500000,-2.638000,0.500000,-2.626870,0.526870,-2.600000,0.538000,
-0.915740,0.538000,-0.426870,1.026870,-0.400000,1.038000,0.400000,1.038000,0.426870,1.026870,0.426870,1.026870,$1*%
G04 Aperture macros list end*
%ADD10C,0.150000*%
%ADD11C,0.120000*%
%ADD12C,3.076000*%
%ADD13RoundRect,0.038000X-0.800000X0.800000X-0.800000X-0.800000X0.800000X-0.800000X0.800000X0.800000X0*%
%ADD14O,1.676000X1.676000*%
%ADD15RoundRect,0.038000X0.800000X0.800000X-0.800000X0.800000X-0.800000X-0.800000X0.800000X-0.800000X0*%
%ADD16C,1.676000*%
%ADD17C,2.076000*%
%ADD18O,2.076000X2.076000*%
%ADD19C,1.576000*%
%ADD20RoundRect,0.194000X-0.594000X-0.194000X0.594000X-0.194000X0.594000X0.194000X-0.594000X0.194000X0*%
%ADD21FreePoly0,0.000000*%
%ADD22C,2.276000*%
G04 APERTURE END LIST*
D10*
X10738095Y-966697D02*
X11309523Y-966697D01*
X11023809Y-1966697D02*
X11023809Y-966697D01*
X11642857Y-1966697D02*
X11642857Y-966697D01*
X11642857Y-966697D02*
X12023809Y-966697D01*
X12023809Y-966697D02*
X12119047Y-1014316D01*
X12119047Y-1014316D02*
X12166666Y-1061935D01*
X12166666Y-1061935D02*
X12214285Y-1157173D01*
X12214285Y-1157173D02*
X12214285Y-1300030D01*
X12214285Y-1300030D02*
X12166666Y-1395268D01*
X12166666Y-1395268D02*
X12119047Y-1442887D01*
X12119047Y-1442887D02*
X12023809Y-1490506D01*
X12023809Y-1490506D02*
X11642857Y-1490506D01*
X13071428Y-966697D02*
X12880952Y-966697D01*
X12880952Y-966697D02*
X12785714Y-1014316D01*
X12785714Y-1014316D02*
X12738095Y-1061935D01*
X12738095Y-1061935D02*
X12642857Y-1204792D01*
X12642857Y-1204792D02*
X12595238Y-1395268D01*
X12595238Y-1395268D02*
X12595238Y-1776220D01*
X12595238Y-1776220D02*
X12642857Y-1871458D01*
X12642857Y-1871458D02*
X12690476Y-1919078D01*
X12690476Y-1919078D02*
X12785714Y-1966697D01*
X12785714Y-1966697D02*
X12976190Y-1966697D01*
X12976190Y-1966697D02*
X13071428Y-1919078D01*
X13071428Y-1919078D02*
X13119047Y-1871458D01*
X13119047Y-1871458D02*
X13166666Y-1776220D01*
X13166666Y-1776220D02*
X13166666Y-1538125D01*
X13166666Y-1538125D02*
X13119047Y-1442887D01*
X13119047Y-1442887D02*
X13071428Y-1395268D01*
X13071428Y-1395268D02*
X12976190Y-1347649D01*
X12976190Y-1347649D02*
X12785714Y-1347649D01*
X12785714Y-1347649D02*
X12690476Y-1395268D01*
X12690476Y-1395268D02*
X12642857Y-1442887D01*
X12642857Y-1442887D02*
X12595238Y-1538125D01*
X52261905Y-873220D02*
X52833333Y-873220D01*
X52547619Y-1873220D02*
X52547619Y-873220D01*
X53166667Y-1873220D02*
X53166667Y-873220D01*
X53166667Y-873220D02*
X53547619Y-873220D01*
X53547619Y-873220D02*
X53642857Y-920839D01*
X53642857Y-920839D02*
X53690476Y-968458D01*
X53690476Y-968458D02*
X53738095Y-1063696D01*
X53738095Y-1063696D02*
X53738095Y-1206553D01*
X53738095Y-1206553D02*
X53690476Y-1301791D01*
X53690476Y-1301791D02*
X53642857Y-1349410D01*
X53642857Y-1349410D02*
X53547619Y-1397029D01*
X53547619Y-1397029D02*
X53166667Y-1397029D01*
X54690476Y-1873220D02*
X54119048Y-1873220D01*
X54404762Y-1873220D02*
X54404762Y-873220D01*
X54404762Y-873220D02*
X54309524Y-1016077D01*
X54309524Y-1016077D02*
X54214286Y-1111315D01*
X54214286Y-1111315D02*
X54119048Y-1158934D01*
X55261905Y-1301791D02*
X55166667Y-1254172D01*
X55166667Y-1254172D02*
X55119048Y-1206553D01*
X55119048Y-1206553D02*
X55071429Y-1111315D01*
X55071429Y-1111315D02*
X55071429Y-1063696D01*
X55071429Y-1063696D02*
X55119048Y-968458D01*
X55119048Y-968458D02*
X55166667Y-920839D01*
X55166667Y-920839D02*
X55261905Y-873220D01*
X55261905Y-873220D02*
X55452381Y-873220D01*
X55452381Y-873220D02*
X55547619Y-920839D01*
X55547619Y-920839D02*
X55595238Y-968458D01*
X55595238Y-968458D02*
X55642857Y-1063696D01*
X55642857Y-1063696D02*
X55642857Y-1111315D01*
X55642857Y-1111315D02*
X55595238Y-1206553D01*
X55595238Y-1206553D02*
X55547619Y-1254172D01*
X55547619Y-1254172D02*
X55452381Y-1301791D01*
X55452381Y-1301791D02*
X55261905Y-1301791D01*
X55261905Y-1301791D02*
X55166667Y-1349410D01*
X55166667Y-1349410D02*
X55119048Y-1397029D01*
X55119048Y-1397029D02*
X55071429Y-1492267D01*
X55071429Y-1492267D02*
X55071429Y-1682743D01*
X55071429Y-1682743D02*
X55119048Y-1777981D01*
X55119048Y-1777981D02*
X55166667Y-1825601D01*
X55166667Y-1825601D02*
X55261905Y-1873220D01*
X55261905Y-1873220D02*
X55452381Y-1873220D01*
X55452381Y-1873220D02*
X55547619Y-1825601D01*
X55547619Y-1825601D02*
X55595238Y-1777981D01*
X55595238Y-1777981D02*
X55642857Y-1682743D01*
X55642857Y-1682743D02*
X55642857Y-1492267D01*
X55642857Y-1492267D02*
X55595238Y-1397029D01*
X55595238Y-1397029D02*
X55547619Y-1349410D01*
X55547619Y-1349410D02*
X55452381Y-1301791D01*
X53454819Y-9738094D02*
X52454819Y-9738094D01*
X52454819Y-9738094D02*
X52454819Y-9499999D01*
X52454819Y-9499999D02*
X52502438Y-9357142D01*
X52502438Y-9357142D02*
X52597676Y-9261904D01*
X52597676Y-9261904D02*
X52692914Y-9214285D01*
X52692914Y-9214285D02*
X52883390Y-9166666D01*
X52883390Y-9166666D02*
X53026247Y-9166666D01*
X53026247Y-9166666D02*
X53216723Y-9214285D01*
X53216723Y-9214285D02*
X53311961Y-9261904D01*
X53311961Y-9261904D02*
X53407200Y-9357142D01*
X53407200Y-9357142D02*
X53454819Y-9499999D01*
X53454819Y-9499999D02*
X53454819Y-9738094D01*
X52454819Y-8833332D02*
X52454819Y-8214285D01*
X52454819Y-8214285D02*
X52835771Y-8547618D01*
X52835771Y-8547618D02*
X52835771Y-8404761D01*
X52835771Y-8404761D02*
X52883390Y-8309523D01*
X52883390Y-8309523D02*
X52931009Y-8261904D01*
X52931009Y-8261904D02*
X53026247Y-8214285D01*
X53026247Y-8214285D02*
X53264342Y-8214285D01*
X53264342Y-8214285D02*
X53359580Y-8261904D01*
X53359580Y-8261904D02*
X53407200Y-8309523D01*
X53407200Y-8309523D02*
X53454819Y-8404761D01*
X53454819Y-8404761D02*
X53454819Y-8690475D01*
X53454819Y-8690475D02*
X53407200Y-8785713D01*
X53407200Y-8785713D02*
X53359580Y-8833332D01*
X51454819Y-11738094D02*
X50454819Y-11738094D01*
X50454819Y-11738094D02*
X50454819Y-11499999D01*
X50454819Y-11499999D02*
X50502438Y-11357142D01*
X50502438Y-11357142D02*
X50597676Y-11261904D01*
X50597676Y-11261904D02*
X50692914Y-11214285D01*
X50692914Y-11214285D02*
X50883390Y-11166666D01*
X50883390Y-11166666D02*
X51026247Y-11166666D01*
X51026247Y-11166666D02*
X51216723Y-11214285D01*
X51216723Y-11214285D02*
X51311961Y-11261904D01*
X51311961Y-11261904D02*
X51407200Y-11357142D01*
X51407200Y-11357142D02*
X51454819Y-11499999D01*
X51454819Y-11499999D02*
X51454819Y-11738094D01*
X50454819Y-10833332D02*
X50454819Y-10214285D01*
X50454819Y-10214285D02*
X50835771Y-10547618D01*
X50835771Y-10547618D02*
X50835771Y-10404761D01*
X50835771Y-10404761D02*
X50883390Y-10309523D01*
X50883390Y-10309523D02*
X50931009Y-10261904D01*
X50931009Y-10261904D02*
X51026247Y-10214285D01*
X51026247Y-10214285D02*
X51264342Y-10214285D01*
X51264342Y-10214285D02*
X51359580Y-10261904D01*
X51359580Y-10261904D02*
X51407200Y-10309523D01*
X51407200Y-10309523D02*
X51454819Y-10404761D01*
X51454819Y-10404761D02*
X51454819Y-10690475D01*
X51454819Y-10690475D02*
X51407200Y-10785713D01*
X51407200Y-10785713D02*
X51359580Y-10833332D01*
X79302632Y-8109426D02*
X79255013Y-8157046D01*
X79255013Y-8157046D02*
X79112156Y-8204665D01*
X79112156Y-8204665D02*
X79016918Y-8204665D01*
X79016918Y-8204665D02*
X78874061Y-8157046D01*
X78874061Y-8157046D02*
X78778823Y-8061807D01*
X78778823Y-8061807D02*
X78731204Y-7966569D01*
X78731204Y-7966569D02*
X78683585Y-7776093D01*
X78683585Y-7776093D02*
X78683585Y-7633236D01*
X78683585Y-7633236D02*
X78731204Y-7442760D01*
X78731204Y-7442760D02*
X78778823Y-7347522D01*
X78778823Y-7347522D02*
X78874061Y-7252284D01*
X78874061Y-7252284D02*
X79016918Y-7204665D01*
X79016918Y-7204665D02*
X79112156Y-7204665D01*
X79112156Y-7204665D02*
X79255013Y-7252284D01*
X79255013Y-7252284D02*
X79302632Y-7299903D01*
X79635966Y-7204665D02*
X80302632Y-7204665D01*
X80302632Y-7204665D02*
X79874061Y-8204665D01*
X88359580Y-21666666D02*
X88407200Y-21714285D01*
X88407200Y-21714285D02*
X88454819Y-21857142D01*
X88454819Y-21857142D02*
X88454819Y-21952380D01*
X88454819Y-21952380D02*
X88407200Y-22095237D01*
X88407200Y-22095237D02*
X88311961Y-22190475D01*
X88311961Y-22190475D02*
X88216723Y-22238094D01*
X88216723Y-22238094D02*
X88026247Y-22285713D01*
X88026247Y-22285713D02*
X87883390Y-22285713D01*
X87883390Y-22285713D02*
X87692914Y-22238094D01*
X87692914Y-22238094D02*
X87597676Y-22190475D01*
X87597676Y-22190475D02*
X87502438Y-22095237D01*
X87502438Y-22095237D02*
X87454819Y-21952380D01*
X87454819Y-21952380D02*
X87454819Y-21857142D01*
X87454819Y-21857142D02*
X87502438Y-21714285D01*
X87502438Y-21714285D02*
X87550057Y-21666666D01*
X87883390Y-21095237D02*
X87835771Y-21190475D01*
X87835771Y-21190475D02*
X87788152Y-21238094D01*
X87788152Y-21238094D02*
X87692914Y-21285713D01*
X87692914Y-21285713D02*
X87645295Y-21285713D01*
X87645295Y-21285713D02*
X87550057Y-21238094D01*
X87550057Y-21238094D02*
X87502438Y-21190475D01*
X87502438Y-21190475D02*
X87454819Y-21095237D01*
X87454819Y-21095237D02*
X87454819Y-20904761D01*
X87454819Y-20904761D02*
X87502438Y-20809523D01*
X87502438Y-20809523D02*
X87550057Y-20761904D01*
X87550057Y-20761904D02*
X87645295Y-20714285D01*
X87645295Y-20714285D02*
X87692914Y-20714285D01*
X87692914Y-20714285D02*
X87788152Y-20761904D01*
X87788152Y-20761904D02*
X87835771Y-20809523D01*
X87835771Y-20809523D02*
X87883390Y-20904761D01*
X87883390Y-20904761D02*
X87883390Y-21095237D01*
X87883390Y-21095237D02*
X87931009Y-21190475D01*
X87931009Y-21190475D02*
X87978628Y-21238094D01*
X87978628Y-21238094D02*
X88073866Y-21285713D01*
X88073866Y-21285713D02*
X88264342Y-21285713D01*
X88264342Y-21285713D02*
X88359580Y-21238094D01*
X88359580Y-21238094D02*
X88407200Y-21190475D01*
X88407200Y-21190475D02*
X88454819Y-21095237D01*
X88454819Y-21095237D02*
X88454819Y-20904761D01*
X88454819Y-20904761D02*
X88407200Y-20809523D01*
X88407200Y-20809523D02*
X88359580Y-20761904D01*
X88359580Y-20761904D02*
X88264342Y-20714285D01*
X88264342Y-20714285D02*
X88073866Y-20714285D01*
X88073866Y-20714285D02*
X87978628Y-20761904D01*
X87978628Y-20761904D02*
X87931009Y-20809523D01*
X87931009Y-20809523D02*
X87883390Y-20904761D01*
X53833333Y-19454819D02*
X53357143Y-19454819D01*
X53357143Y-19454819D02*
X53357143Y-18454819D01*
X54642857Y-18454819D02*
X54166667Y-18454819D01*
X54166667Y-18454819D02*
X54119048Y-18931009D01*
X54119048Y-18931009D02*
X54166667Y-18883390D01*
X54166667Y-18883390D02*
X54261905Y-18835771D01*
X54261905Y-18835771D02*
X54500000Y-18835771D01*
X54500000Y-18835771D02*
X54595238Y-18883390D01*
X54595238Y-18883390D02*
X54642857Y-18931009D01*
X54642857Y-18931009D02*
X54690476Y-19026247D01*
X54690476Y-19026247D02*
X54690476Y-19264342D01*
X54690476Y-19264342D02*
X54642857Y-19359580D01*
X54642857Y-19359580D02*
X54595238Y-19407200D01*
X54595238Y-19407200D02*
X54500000Y-19454819D01*
X54500000Y-19454819D02*
X54261905Y-19454819D01*
X54261905Y-19454819D02*
X54166667Y-19407200D01*
X54166667Y-19407200D02*
X54119048Y-19359580D01*
X29454819Y-9738094D02*
X28454819Y-9738094D01*
X28454819Y-9738094D02*
X28454819Y-9499999D01*
X28454819Y-9499999D02*
X28502438Y-9357142D01*
X28502438Y-9357142D02*
X28597676Y-9261904D01*
X28597676Y-9261904D02*
X28692914Y-9214285D01*
X28692914Y-9214285D02*
X28883390Y-9166666D01*
X28883390Y-9166666D02*
X29026247Y-9166666D01*
X29026247Y-9166666D02*
X29216723Y-9214285D01*
X29216723Y-9214285D02*
X29311961Y-9261904D01*
X29311961Y-9261904D02*
X29407200Y-9357142D01*
X29407200Y-9357142D02*
X29454819Y-9499999D01*
X29454819Y-9499999D02*
X29454819Y-9738094D01*
X28550057Y-8785713D02*
X28502438Y-8738094D01*
X28502438Y-8738094D02*
X28454819Y-8642856D01*
X28454819Y-8642856D02*
X28454819Y-8404761D01*
X28454819Y-8404761D02*
X28502438Y-8309523D01*
X28502438Y-8309523D02*
X28550057Y-8261904D01*
X28550057Y-8261904D02*
X28645295Y-8214285D01*
X28645295Y-8214285D02*
X28740533Y-8214285D01*
X28740533Y-8214285D02*
X28883390Y-8261904D01*
X28883390Y-8261904D02*
X29454819Y-8833332D01*
X29454819Y-8833332D02*
X29454819Y-8214285D01*
X27454819Y-11738094D02*
X26454819Y-11738094D01*
X26454819Y-11738094D02*
X26454819Y-11499999D01*
X26454819Y-11499999D02*
X26502438Y-11357142D01*
X26502438Y-11357142D02*
X26597676Y-11261904D01*
X26597676Y-11261904D02*
X26692914Y-11214285D01*
X26692914Y-11214285D02*
X26883390Y-11166666D01*
X26883390Y-11166666D02*
X27026247Y-11166666D01*
X27026247Y-11166666D02*
X27216723Y-11214285D01*
X27216723Y-11214285D02*
X27311961Y-11261904D01*
X27311961Y-11261904D02*
X27407200Y-11357142D01*
X27407200Y-11357142D02*
X27454819Y-11499999D01*
X27454819Y-11499999D02*
X27454819Y-11738094D01*
X26550057Y-10785713D02*
X26502438Y-10738094D01*
X26502438Y-10738094D02*
X26454819Y-10642856D01*
X26454819Y-10642856D02*
X26454819Y-10404761D01*
X26454819Y-10404761D02*
X26502438Y-10309523D01*
X26502438Y-10309523D02*
X26550057Y-10261904D01*
X26550057Y-10261904D02*
X26645295Y-10214285D01*
X26645295Y-10214285D02*
X26740533Y-10214285D01*
X26740533Y-10214285D02*
X26883390Y-10261904D01*
X26883390Y-10261904D02*
X27454819Y-10833332D01*
X27454819Y-10833332D02*
X27454819Y-10214285D01*
X75454819Y-9738094D02*
X74454819Y-9738094D01*
X74454819Y-9738094D02*
X74454819Y-9499999D01*
X74454819Y-9499999D02*
X74502438Y-9357142D01*
X74502438Y-9357142D02*
X74597676Y-9261904D01*
X74597676Y-9261904D02*
X74692914Y-9214285D01*
X74692914Y-9214285D02*
X74883390Y-9166666D01*
X74883390Y-9166666D02*
X75026247Y-9166666D01*
X75026247Y-9166666D02*
X75216723Y-9214285D01*
X75216723Y-9214285D02*
X75311961Y-9261904D01*
X75311961Y-9261904D02*
X75407200Y-9357142D01*
X75407200Y-9357142D02*
X75454819Y-9499999D01*
X75454819Y-9499999D02*
X75454819Y-9738094D01*
X74788152Y-8309523D02*
X75454819Y-8309523D01*
X74407200Y-8547618D02*
X75121485Y-8785713D01*
X75121485Y-8785713D02*
X75121485Y-8166666D01*
X73454819Y-11738094D02*
X72454819Y-11738094D01*
X72454819Y-11738094D02*
X72454819Y-11499999D01*
X72454819Y-11499999D02*
X72502438Y-11357142D01*
X72502438Y-11357142D02*
X72597676Y-11261904D01*
X72597676Y-11261904D02*
X72692914Y-11214285D01*
X72692914Y-11214285D02*
X72883390Y-11166666D01*
X72883390Y-11166666D02*
X73026247Y-11166666D01*
X73026247Y-11166666D02*
X73216723Y-11214285D01*
X73216723Y-11214285D02*
X73311961Y-11261904D01*
X73311961Y-11261904D02*
X73407200Y-11357142D01*
X73407200Y-11357142D02*
X73454819Y-11499999D01*
X73454819Y-11499999D02*
X73454819Y-11738094D01*
X72788152Y-10309523D02*
X73454819Y-10309523D01*
X72407200Y-10547618D02*
X73121485Y-10785713D01*
X73121485Y-10785713D02*
X73121485Y-10166666D01*
X21924349Y-8597315D02*
X22495777Y-8597315D01*
X22210063Y-9597315D02*
X22210063Y-8597315D01*
X22829111Y-9597315D02*
X22829111Y-8597315D01*
X22829111Y-8597315D02*
X23210063Y-8597315D01*
X23210063Y-8597315D02*
X23305301Y-8644934D01*
X23305301Y-8644934D02*
X23352920Y-8692553D01*
X23352920Y-8692553D02*
X23400539Y-8787791D01*
X23400539Y-8787791D02*
X23400539Y-8930648D01*
X23400539Y-8930648D02*
X23352920Y-9025886D01*
X23352920Y-9025886D02*
X23305301Y-9073505D01*
X23305301Y-9073505D02*
X23210063Y-9121124D01*
X23210063Y-9121124D02*
X22829111Y-9121124D01*
X24352920Y-9597315D02*
X23781492Y-9597315D01*
X24067206Y-9597315D02*
X24067206Y-8597315D01*
X24067206Y-8597315D02*
X23971968Y-8740172D01*
X23971968Y-8740172D02*
X23876730Y-8835410D01*
X23876730Y-8835410D02*
X23781492Y-8883029D01*
X24733873Y-8692553D02*
X24781492Y-8644934D01*
X24781492Y-8644934D02*
X24876730Y-8597315D01*
X24876730Y-8597315D02*
X25114825Y-8597315D01*
X25114825Y-8597315D02*
X25210063Y-8644934D01*
X25210063Y-8644934D02*
X25257682Y-8692553D01*
X25257682Y-8692553D02*
X25305301Y-8787791D01*
X25305301Y-8787791D02*
X25305301Y-8883029D01*
X25305301Y-8883029D02*
X25257682Y-9025886D01*
X25257682Y-9025886D02*
X24686254Y-9597315D01*
X24686254Y-9597315D02*
X25305301Y-9597315D01*
X88454819Y-10976666D02*
X87978628Y-11309999D01*
X88454819Y-11548094D02*
X87454819Y-11548094D01*
X87454819Y-11548094D02*
X87454819Y-11167142D01*
X87454819Y-11167142D02*
X87502438Y-11071904D01*
X87502438Y-11071904D02*
X87550057Y-11024285D01*
X87550057Y-11024285D02*
X87645295Y-10976666D01*
X87645295Y-10976666D02*
X87788152Y-10976666D01*
X87788152Y-10976666D02*
X87883390Y-11024285D01*
X87883390Y-11024285D02*
X87931009Y-11071904D01*
X87931009Y-11071904D02*
X87978628Y-11167142D01*
X87978628Y-11167142D02*
X87978628Y-11548094D01*
X87454819Y-10643332D02*
X87454819Y-9976666D01*
X87454819Y-9976666D02*
X88454819Y-10405237D01*
X38454819Y-10976666D02*
X37978628Y-11309999D01*
X38454819Y-11548094D02*
X37454819Y-11548094D01*
X37454819Y-11548094D02*
X37454819Y-11167142D01*
X37454819Y-11167142D02*
X37502438Y-11071904D01*
X37502438Y-11071904D02*
X37550057Y-11024285D01*
X37550057Y-11024285D02*
X37645295Y-10976666D01*
X37645295Y-10976666D02*
X37788152Y-10976666D01*
X37788152Y-10976666D02*
X37883390Y-11024285D01*
X37883390Y-11024285D02*
X37931009Y-11071904D01*
X37931009Y-11071904D02*
X37978628Y-11167142D01*
X37978628Y-11167142D02*
X37978628Y-11548094D01*
X37788152Y-10119523D02*
X38454819Y-10119523D01*
X37407200Y-10357618D02*
X38121485Y-10595713D01*
X38121485Y-10595713D02*
X38121485Y-9976666D01*
X62454819Y-10976666D02*
X61978628Y-11309999D01*
X62454819Y-11548094D02*
X61454819Y-11548094D01*
X61454819Y-11548094D02*
X61454819Y-11167142D01*
X61454819Y-11167142D02*
X61502438Y-11071904D01*
X61502438Y-11071904D02*
X61550057Y-11024285D01*
X61550057Y-11024285D02*
X61645295Y-10976666D01*
X61645295Y-10976666D02*
X61788152Y-10976666D01*
X61788152Y-10976666D02*
X61883390Y-11024285D01*
X61883390Y-11024285D02*
X61931009Y-11071904D01*
X61931009Y-11071904D02*
X61978628Y-11167142D01*
X61978628Y-11167142D02*
X61978628Y-11548094D01*
X61454819Y-10119523D02*
X61454819Y-10309999D01*
X61454819Y-10309999D02*
X61502438Y-10405237D01*
X61502438Y-10405237D02*
X61550057Y-10452856D01*
X61550057Y-10452856D02*
X61692914Y-10548094D01*
X61692914Y-10548094D02*
X61883390Y-10595713D01*
X61883390Y-10595713D02*
X62264342Y-10595713D01*
X62264342Y-10595713D02*
X62359580Y-10548094D01*
X62359580Y-10548094D02*
X62407200Y-10500475D01*
X62407200Y-10500475D02*
X62454819Y-10405237D01*
X62454819Y-10405237D02*
X62454819Y-10214761D01*
X62454819Y-10214761D02*
X62407200Y-10119523D01*
X62407200Y-10119523D02*
X62359580Y-10071904D01*
X62359580Y-10071904D02*
X62264342Y-10024285D01*
X62264342Y-10024285D02*
X62026247Y-10024285D01*
X62026247Y-10024285D02*
X61931009Y-10071904D01*
X61931009Y-10071904D02*
X61883390Y-10119523D01*
X61883390Y-10119523D02*
X61835771Y-10214761D01*
X61835771Y-10214761D02*
X61835771Y-10405237D01*
X61835771Y-10405237D02*
X61883390Y-10500475D01*
X61883390Y-10500475D02*
X61931009Y-10548094D01*
X61931009Y-10548094D02*
X62026247Y-10595713D01*
X29833333Y-19454819D02*
X29357143Y-19454819D01*
X29357143Y-19454819D02*
X29357143Y-18454819D01*
X30071429Y-18454819D02*
X30690476Y-18454819D01*
X30690476Y-18454819D02*
X30357143Y-18835771D01*
X30357143Y-18835771D02*
X30500000Y-18835771D01*
X30500000Y-18835771D02*
X30595238Y-18883390D01*
X30595238Y-18883390D02*
X30642857Y-18931009D01*
X30642857Y-18931009D02*
X30690476Y-19026247D01*
X30690476Y-19026247D02*
X30690476Y-19264342D01*
X30690476Y-19264342D02*
X30642857Y-19359580D01*
X30642857Y-19359580D02*
X30595238Y-19407200D01*
X30595238Y-19407200D02*
X30500000Y-19454819D01*
X30500000Y-19454819D02*
X30214286Y-19454819D01*
X30214286Y-19454819D02*
X30119048Y-19407200D01*
X30119048Y-19407200D02*
X30071429Y-19359580D01*
X66454819Y-10976666D02*
X65978628Y-11309999D01*
X66454819Y-11548094D02*
X65454819Y-11548094D01*
X65454819Y-11548094D02*
X65454819Y-11167142D01*
X65454819Y-11167142D02*
X65502438Y-11071904D01*
X65502438Y-11071904D02*
X65550057Y-11024285D01*
X65550057Y-11024285D02*
X65645295Y-10976666D01*
X65645295Y-10976666D02*
X65788152Y-10976666D01*
X65788152Y-10976666D02*
X65883390Y-11024285D01*
X65883390Y-11024285D02*
X65931009Y-11071904D01*
X65931009Y-11071904D02*
X65978628Y-11167142D01*
X65978628Y-11167142D02*
X65978628Y-11548094D01*
X65454819Y-10071904D02*
X65454819Y-10548094D01*
X65454819Y-10548094D02*
X65931009Y-10595713D01*
X65931009Y-10595713D02*
X65883390Y-10548094D01*
X65883390Y-10548094D02*
X65835771Y-10452856D01*
X65835771Y-10452856D02*
X65835771Y-10214761D01*
X65835771Y-10214761D02*
X65883390Y-10119523D01*
X65883390Y-10119523D02*
X65931009Y-10071904D01*
X65931009Y-10071904D02*
X66026247Y-10024285D01*
X66026247Y-10024285D02*
X66264342Y-10024285D01*
X66264342Y-10024285D02*
X66359580Y-10071904D01*
X66359580Y-10071904D02*
X66407200Y-10119523D01*
X66407200Y-10119523D02*
X66454819Y-10214761D01*
X66454819Y-10214761D02*
X66454819Y-10452856D01*
X66454819Y-10452856D02*
X66407200Y-10548094D01*
X66407200Y-10548094D02*
X66359580Y-10595713D01*
X37611905Y-16454819D02*
X38183333Y-16454819D01*
X37897619Y-17454819D02*
X37897619Y-16454819D01*
X38516667Y-17454819D02*
X38516667Y-16454819D01*
X38516667Y-16454819D02*
X38897619Y-16454819D01*
X38897619Y-16454819D02*
X38992857Y-16502438D01*
X38992857Y-16502438D02*
X39040476Y-16550057D01*
X39040476Y-16550057D02*
X39088095Y-16645295D01*
X39088095Y-16645295D02*
X39088095Y-16788152D01*
X39088095Y-16788152D02*
X39040476Y-16883390D01*
X39040476Y-16883390D02*
X38992857Y-16931009D01*
X38992857Y-16931009D02*
X38897619Y-16978628D01*
X38897619Y-16978628D02*
X38516667Y-16978628D01*
X40040476Y-17454819D02*
X39469048Y-17454819D01*
X39754762Y-17454819D02*
X39754762Y-16454819D01*
X39754762Y-16454819D02*
X39659524Y-16597676D01*
X39659524Y-16597676D02*
X39564286Y-16692914D01*
X39564286Y-16692914D02*
X39469048Y-16740533D01*
X40373810Y-16454819D02*
X40992857Y-16454819D01*
X40992857Y-16454819D02*
X40659524Y-16835771D01*
X40659524Y-16835771D02*
X40802381Y-16835771D01*
X40802381Y-16835771D02*
X40897619Y-16883390D01*
X40897619Y-16883390D02*
X40945238Y-16931009D01*
X40945238Y-16931009D02*
X40992857Y-17026247D01*
X40992857Y-17026247D02*
X40992857Y-17264342D01*
X40992857Y-17264342D02*
X40945238Y-17359580D01*
X40945238Y-17359580D02*
X40897619Y-17407200D01*
X40897619Y-17407200D02*
X40802381Y-17454819D01*
X40802381Y-17454819D02*
X40516667Y-17454819D01*
X40516667Y-17454819D02*
X40421429Y-17407200D01*
X40421429Y-17407200D02*
X40373810Y-17359580D01*
X61611905Y-21454819D02*
X62183333Y-21454819D01*
X61897619Y-22454819D02*
X61897619Y-21454819D01*
X62516667Y-22454819D02*
X62516667Y-21454819D01*
X62516667Y-21454819D02*
X62897619Y-21454819D01*
X62897619Y-21454819D02*
X62992857Y-21502438D01*
X62992857Y-21502438D02*
X63040476Y-21550057D01*
X63040476Y-21550057D02*
X63088095Y-21645295D01*
X63088095Y-21645295D02*
X63088095Y-21788152D01*
X63088095Y-21788152D02*
X63040476Y-21883390D01*
X63040476Y-21883390D02*
X62992857Y-21931009D01*
X62992857Y-21931009D02*
X62897619Y-21978628D01*
X62897619Y-21978628D02*
X62516667Y-21978628D01*
X63469048Y-21550057D02*
X63516667Y-21502438D01*
X63516667Y-21502438D02*
X63611905Y-21454819D01*
X63611905Y-21454819D02*
X63850000Y-21454819D01*
X63850000Y-21454819D02*
X63945238Y-21502438D01*
X63945238Y-21502438D02*
X63992857Y-21550057D01*
X63992857Y-21550057D02*
X64040476Y-21645295D01*
X64040476Y-21645295D02*
X64040476Y-21740533D01*
X64040476Y-21740533D02*
X63992857Y-21883390D01*
X63992857Y-21883390D02*
X63421429Y-22454819D01*
X63421429Y-22454819D02*
X64040476Y-22454819D01*
X64992857Y-22454819D02*
X64421429Y-22454819D01*
X64707143Y-22454819D02*
X64707143Y-21454819D01*
X64707143Y-21454819D02*
X64611905Y-21597676D01*
X64611905Y-21597676D02*
X64516667Y-21692914D01*
X64516667Y-21692914D02*
X64421429Y-21740533D01*
X45924349Y-8597315D02*
X46495777Y-8597315D01*
X46210063Y-9597315D02*
X46210063Y-8597315D01*
X46829111Y-9597315D02*
X46829111Y-8597315D01*
X46829111Y-8597315D02*
X47210063Y-8597315D01*
X47210063Y-8597315D02*
X47305301Y-8644934D01*
X47305301Y-8644934D02*
X47352920Y-8692553D01*
X47352920Y-8692553D02*
X47400539Y-8787791D01*
X47400539Y-8787791D02*
X47400539Y-8930648D01*
X47400539Y-8930648D02*
X47352920Y-9025886D01*
X47352920Y-9025886D02*
X47305301Y-9073505D01*
X47305301Y-9073505D02*
X47210063Y-9121124D01*
X47210063Y-9121124D02*
X46829111Y-9121124D01*
X48352920Y-9597315D02*
X47781492Y-9597315D01*
X48067206Y-9597315D02*
X48067206Y-8597315D01*
X48067206Y-8597315D02*
X47971968Y-8740172D01*
X47971968Y-8740172D02*
X47876730Y-8835410D01*
X47876730Y-8835410D02*
X47781492Y-8883029D01*
X48829111Y-9597315D02*
X49019587Y-9597315D01*
X49019587Y-9597315D02*
X49114825Y-9549696D01*
X49114825Y-9549696D02*
X49162444Y-9502076D01*
X49162444Y-9502076D02*
X49257682Y-9359219D01*
X49257682Y-9359219D02*
X49305301Y-9168743D01*
X49305301Y-9168743D02*
X49305301Y-8787791D01*
X49305301Y-8787791D02*
X49257682Y-8692553D01*
X49257682Y-8692553D02*
X49210063Y-8644934D01*
X49210063Y-8644934D02*
X49114825Y-8597315D01*
X49114825Y-8597315D02*
X48924349Y-8597315D01*
X48924349Y-8597315D02*
X48829111Y-8644934D01*
X48829111Y-8644934D02*
X48781492Y-8692553D01*
X48781492Y-8692553D02*
X48733873Y-8787791D01*
X48733873Y-8787791D02*
X48733873Y-9025886D01*
X48733873Y-9025886D02*
X48781492Y-9121124D01*
X48781492Y-9121124D02*
X48829111Y-9168743D01*
X48829111Y-9168743D02*
X48924349Y-9216362D01*
X48924349Y-9216362D02*
X49114825Y-9216362D01*
X49114825Y-9216362D02*
X49210063Y-9168743D01*
X49210063Y-9168743D02*
X49257682Y-9121124D01*
X49257682Y-9121124D02*
X49305301Y-9025886D01*
X28942348Y-15163195D02*
X28942348Y-15972718D01*
X28942348Y-15972718D02*
X28989967Y-16067956D01*
X28989967Y-16067956D02*
X29037586Y-16115576D01*
X29037586Y-16115576D02*
X29132824Y-16163195D01*
X29132824Y-16163195D02*
X29323300Y-16163195D01*
X29323300Y-16163195D02*
X29418538Y-16115576D01*
X29418538Y-16115576D02*
X29466157Y-16067956D01*
X29466157Y-16067956D02*
X29513776Y-15972718D01*
X29513776Y-15972718D02*
X29513776Y-15163195D01*
X29942348Y-15258433D02*
X29989967Y-15210814D01*
X29989967Y-15210814D02*
X30085205Y-15163195D01*
X30085205Y-15163195D02*
X30323300Y-15163195D01*
X30323300Y-15163195D02*
X30418538Y-15210814D01*
X30418538Y-15210814D02*
X30466157Y-15258433D01*
X30466157Y-15258433D02*
X30513776Y-15353671D01*
X30513776Y-15353671D02*
X30513776Y-15448909D01*
X30513776Y-15448909D02*
X30466157Y-15591766D01*
X30466157Y-15591766D02*
X29894729Y-16163195D01*
X29894729Y-16163195D02*
X30513776Y-16163195D01*
X20454819Y-10976666D02*
X19978628Y-11309999D01*
X20454819Y-11548094D02*
X19454819Y-11548094D01*
X19454819Y-11548094D02*
X19454819Y-11167142D01*
X19454819Y-11167142D02*
X19502438Y-11071904D01*
X19502438Y-11071904D02*
X19550057Y-11024285D01*
X19550057Y-11024285D02*
X19645295Y-10976666D01*
X19645295Y-10976666D02*
X19788152Y-10976666D01*
X19788152Y-10976666D02*
X19883390Y-11024285D01*
X19883390Y-11024285D02*
X19931009Y-11071904D01*
X19931009Y-11071904D02*
X19978628Y-11167142D01*
X19978628Y-11167142D02*
X19978628Y-11548094D01*
X20454819Y-10024285D02*
X20454819Y-10595713D01*
X20454819Y-10309999D02*
X19454819Y-10309999D01*
X19454819Y-10309999D02*
X19597676Y-10405237D01*
X19597676Y-10405237D02*
X19692914Y-10500475D01*
X19692914Y-10500475D02*
X19740533Y-10595713D01*
X6942348Y-15163195D02*
X6942348Y-15972718D01*
X6942348Y-15972718D02*
X6989967Y-16067956D01*
X6989967Y-16067956D02*
X7037586Y-16115576D01*
X7037586Y-16115576D02*
X7132824Y-16163195D01*
X7132824Y-16163195D02*
X7323300Y-16163195D01*
X7323300Y-16163195D02*
X7418538Y-16115576D01*
X7418538Y-16115576D02*
X7466157Y-16067956D01*
X7466157Y-16067956D02*
X7513776Y-15972718D01*
X7513776Y-15972718D02*
X7513776Y-15163195D01*
X8513776Y-16163195D02*
X7942348Y-16163195D01*
X8228062Y-16163195D02*
X8228062Y-15163195D01*
X8228062Y-15163195D02*
X8132824Y-15306052D01*
X8132824Y-15306052D02*
X8037586Y-15401290D01*
X8037586Y-15401290D02*
X7942348Y-15448909D01*
X28261905Y-873220D02*
X28833333Y-873220D01*
X28547619Y-1873220D02*
X28547619Y-873220D01*
X29166667Y-1873220D02*
X29166667Y-873220D01*
X29166667Y-873220D02*
X29547619Y-873220D01*
X29547619Y-873220D02*
X29642857Y-920839D01*
X29642857Y-920839D02*
X29690476Y-968458D01*
X29690476Y-968458D02*
X29738095Y-1063696D01*
X29738095Y-1063696D02*
X29738095Y-1206553D01*
X29738095Y-1206553D02*
X29690476Y-1301791D01*
X29690476Y-1301791D02*
X29642857Y-1349410D01*
X29642857Y-1349410D02*
X29547619Y-1397029D01*
X29547619Y-1397029D02*
X29166667Y-1397029D01*
X30690476Y-1873220D02*
X30119048Y-1873220D01*
X30404762Y-1873220D02*
X30404762Y-873220D01*
X30404762Y-873220D02*
X30309524Y-1016077D01*
X30309524Y-1016077D02*
X30214286Y-1111315D01*
X30214286Y-1111315D02*
X30119048Y-1158934D01*
X31642857Y-1873220D02*
X31071429Y-1873220D01*
X31357143Y-1873220D02*
X31357143Y-873220D01*
X31357143Y-873220D02*
X31261905Y-1016077D01*
X31261905Y-1016077D02*
X31166667Y-1111315D01*
X31166667Y-1111315D02*
X31071429Y-1158934D01*
X16088095Y-16454819D02*
X16659523Y-16454819D01*
X16373809Y-17454819D02*
X16373809Y-16454819D01*
X16992857Y-17454819D02*
X16992857Y-16454819D01*
X16992857Y-16454819D02*
X17373809Y-16454819D01*
X17373809Y-16454819D02*
X17469047Y-16502438D01*
X17469047Y-16502438D02*
X17516666Y-16550057D01*
X17516666Y-16550057D02*
X17564285Y-16645295D01*
X17564285Y-16645295D02*
X17564285Y-16788152D01*
X17564285Y-16788152D02*
X17516666Y-16883390D01*
X17516666Y-16883390D02*
X17469047Y-16931009D01*
X17469047Y-16931009D02*
X17373809Y-16978628D01*
X17373809Y-16978628D02*
X16992857Y-16978628D01*
X18516666Y-17454819D02*
X17945238Y-17454819D01*
X18230952Y-17454819D02*
X18230952Y-16454819D01*
X18230952Y-16454819D02*
X18135714Y-16597676D01*
X18135714Y-16597676D02*
X18040476Y-16692914D01*
X18040476Y-16692914D02*
X17945238Y-16740533D01*
X11302632Y-8109426D02*
X11255013Y-8157046D01*
X11255013Y-8157046D02*
X11112156Y-8204665D01*
X11112156Y-8204665D02*
X11016918Y-8204665D01*
X11016918Y-8204665D02*
X10874061Y-8157046D01*
X10874061Y-8157046D02*
X10778823Y-8061807D01*
X10778823Y-8061807D02*
X10731204Y-7966569D01*
X10731204Y-7966569D02*
X10683585Y-7776093D01*
X10683585Y-7776093D02*
X10683585Y-7633236D01*
X10683585Y-7633236D02*
X10731204Y-7442760D01*
X10731204Y-7442760D02*
X10778823Y-7347522D01*
X10778823Y-7347522D02*
X10874061Y-7252284D01*
X10874061Y-7252284D02*
X11016918Y-7204665D01*
X11016918Y-7204665D02*
X11112156Y-7204665D01*
X11112156Y-7204665D02*
X11255013Y-7252284D01*
X11255013Y-7252284D02*
X11302632Y-7299903D01*
X12255013Y-8204665D02*
X11683585Y-8204665D01*
X11969299Y-8204665D02*
X11969299Y-7204665D01*
X11969299Y-7204665D02*
X11874061Y-7347522D01*
X11874061Y-7347522D02*
X11778823Y-7442760D01*
X11778823Y-7442760D02*
X11683585Y-7490379D01*
X16454819Y-10976666D02*
X15978628Y-11309999D01*
X16454819Y-11548094D02*
X15454819Y-11548094D01*
X15454819Y-11548094D02*
X15454819Y-11167142D01*
X15454819Y-11167142D02*
X15502438Y-11071904D01*
X15502438Y-11071904D02*
X15550057Y-11024285D01*
X15550057Y-11024285D02*
X15645295Y-10976666D01*
X15645295Y-10976666D02*
X15788152Y-10976666D01*
X15788152Y-10976666D02*
X15883390Y-11024285D01*
X15883390Y-11024285D02*
X15931009Y-11071904D01*
X15931009Y-11071904D02*
X15978628Y-11167142D01*
X15978628Y-11167142D02*
X15978628Y-11548094D01*
X15550057Y-10595713D02*
X15502438Y-10548094D01*
X15502438Y-10548094D02*
X15454819Y-10452856D01*
X15454819Y-10452856D02*
X15454819Y-10214761D01*
X15454819Y-10214761D02*
X15502438Y-10119523D01*
X15502438Y-10119523D02*
X15550057Y-10071904D01*
X15550057Y-10071904D02*
X15645295Y-10024285D01*
X15645295Y-10024285D02*
X15740533Y-10024285D01*
X15740533Y-10024285D02*
X15883390Y-10071904D01*
X15883390Y-10071904D02*
X16454819Y-10643332D01*
X16454819Y-10643332D02*
X16454819Y-10024285D01*
X6738095Y-873220D02*
X7309523Y-873220D01*
X7023809Y-1873220D02*
X7023809Y-873220D01*
X7642857Y-1873220D02*
X7642857Y-873220D01*
X7642857Y-873220D02*
X8023809Y-873220D01*
X8023809Y-873220D02*
X8119047Y-920839D01*
X8119047Y-920839D02*
X8166666Y-968458D01*
X8166666Y-968458D02*
X8214285Y-1063696D01*
X8214285Y-1063696D02*
X8214285Y-1206553D01*
X8214285Y-1206553D02*
X8166666Y-1301791D01*
X8166666Y-1301791D02*
X8119047Y-1349410D01*
X8119047Y-1349410D02*
X8023809Y-1397029D01*
X8023809Y-1397029D02*
X7642857Y-1397029D01*
X8547619Y-873220D02*
X9214285Y-873220D01*
X9214285Y-873220D02*
X8785714Y-1873220D01*
X21885400Y-11245831D02*
X22456828Y-11245831D01*
X22171114Y-12245831D02*
X22171114Y-11245831D01*
X22790162Y-12245831D02*
X22790162Y-11245831D01*
X22790162Y-11245831D02*
X23171114Y-11245831D01*
X23171114Y-11245831D02*
X23266352Y-11293450D01*
X23266352Y-11293450D02*
X23313971Y-11341069D01*
X23313971Y-11341069D02*
X23361590Y-11436307D01*
X23361590Y-11436307D02*
X23361590Y-11579164D01*
X23361590Y-11579164D02*
X23313971Y-11674402D01*
X23313971Y-11674402D02*
X23266352Y-11722021D01*
X23266352Y-11722021D02*
X23171114Y-11769640D01*
X23171114Y-11769640D02*
X22790162Y-11769640D01*
X24313971Y-12245831D02*
X23742543Y-12245831D01*
X24028257Y-12245831D02*
X24028257Y-11245831D01*
X24028257Y-11245831D02*
X23933019Y-11388688D01*
X23933019Y-11388688D02*
X23837781Y-11483926D01*
X23837781Y-11483926D02*
X23742543Y-11531545D01*
X24933019Y-11245831D02*
X25028257Y-11245831D01*
X25028257Y-11245831D02*
X25123495Y-11293450D01*
X25123495Y-11293450D02*
X25171114Y-11341069D01*
X25171114Y-11341069D02*
X25218733Y-11436307D01*
X25218733Y-11436307D02*
X25266352Y-11626783D01*
X25266352Y-11626783D02*
X25266352Y-11864878D01*
X25266352Y-11864878D02*
X25218733Y-12055354D01*
X25218733Y-12055354D02*
X25171114Y-12150592D01*
X25171114Y-12150592D02*
X25123495Y-12198212D01*
X25123495Y-12198212D02*
X25028257Y-12245831D01*
X25028257Y-12245831D02*
X24933019Y-12245831D01*
X24933019Y-12245831D02*
X24837781Y-12198212D01*
X24837781Y-12198212D02*
X24790162Y-12150592D01*
X24790162Y-12150592D02*
X24742543Y-12055354D01*
X24742543Y-12055354D02*
X24694924Y-11864878D01*
X24694924Y-11864878D02*
X24694924Y-11626783D01*
X24694924Y-11626783D02*
X24742543Y-11436307D01*
X24742543Y-11436307D02*
X24790162Y-11341069D01*
X24790162Y-11341069D02*
X24837781Y-11293450D01*
X24837781Y-11293450D02*
X24933019Y-11245831D01*
X64228187Y-1303214D02*
X64799615Y-1303214D01*
X64513901Y-2303214D02*
X64513901Y-1303214D01*
X65132949Y-2303214D02*
X65132949Y-1303214D01*
X65132949Y-1303214D02*
X65513901Y-1303214D01*
X65513901Y-1303214D02*
X65609139Y-1350833D01*
X65609139Y-1350833D02*
X65656758Y-1398452D01*
X65656758Y-1398452D02*
X65704377Y-1493690D01*
X65704377Y-1493690D02*
X65704377Y-1636547D01*
X65704377Y-1636547D02*
X65656758Y-1731785D01*
X65656758Y-1731785D02*
X65609139Y-1779404D01*
X65609139Y-1779404D02*
X65513901Y-1827023D01*
X65513901Y-1827023D02*
X65132949Y-1827023D01*
X66656758Y-2303214D02*
X66085330Y-2303214D01*
X66371044Y-2303214D02*
X66371044Y-1303214D01*
X66371044Y-1303214D02*
X66275806Y-1446071D01*
X66275806Y-1446071D02*
X66180568Y-1541309D01*
X66180568Y-1541309D02*
X66085330Y-1588928D01*
X67513901Y-1303214D02*
X67323425Y-1303214D01*
X67323425Y-1303214D02*
X67228187Y-1350833D01*
X67228187Y-1350833D02*
X67180568Y-1398452D01*
X67180568Y-1398452D02*
X67085330Y-1541309D01*
X67085330Y-1541309D02*
X67037711Y-1731785D01*
X67037711Y-1731785D02*
X67037711Y-2112737D01*
X67037711Y-2112737D02*
X67085330Y-2207975D01*
X67085330Y-2207975D02*
X67132949Y-2255595D01*
X67132949Y-2255595D02*
X67228187Y-2303214D01*
X67228187Y-2303214D02*
X67418663Y-2303214D01*
X67418663Y-2303214D02*
X67513901Y-2255595D01*
X67513901Y-2255595D02*
X67561520Y-2207975D01*
X67561520Y-2207975D02*
X67609139Y-2112737D01*
X67609139Y-2112737D02*
X67609139Y-1874642D01*
X67609139Y-1874642D02*
X67561520Y-1779404D01*
X67561520Y-1779404D02*
X67513901Y-1731785D01*
X67513901Y-1731785D02*
X67418663Y-1684166D01*
X67418663Y-1684166D02*
X67228187Y-1684166D01*
X67228187Y-1684166D02*
X67132949Y-1731785D01*
X67132949Y-1731785D02*
X67085330Y-1779404D01*
X67085330Y-1779404D02*
X67037711Y-1874642D01*
X7833333Y-24454819D02*
X7357143Y-24454819D01*
X7357143Y-24454819D02*
X7357143Y-23454819D01*
X8119048Y-23550057D02*
X8166667Y-23502438D01*
X8166667Y-23502438D02*
X8261905Y-23454819D01*
X8261905Y-23454819D02*
X8500000Y-23454819D01*
X8500000Y-23454819D02*
X8595238Y-23502438D01*
X8595238Y-23502438D02*
X8642857Y-23550057D01*
X8642857Y-23550057D02*
X8690476Y-23645295D01*
X8690476Y-23645295D02*
X8690476Y-23740533D01*
X8690476Y-23740533D02*
X8642857Y-23883390D01*
X8642857Y-23883390D02*
X8071429Y-24454819D01*
X8071429Y-24454819D02*
X8690476Y-24454819D01*
X75833333Y-24454819D02*
X75357143Y-24454819D01*
X75357143Y-24454819D02*
X75357143Y-23454819D01*
X76309524Y-23883390D02*
X76214286Y-23835771D01*
X76214286Y-23835771D02*
X76166667Y-23788152D01*
X76166667Y-23788152D02*
X76119048Y-23692914D01*
X76119048Y-23692914D02*
X76119048Y-23645295D01*
X76119048Y-23645295D02*
X76166667Y-23550057D01*
X76166667Y-23550057D02*
X76214286Y-23502438D01*
X76214286Y-23502438D02*
X76309524Y-23454819D01*
X76309524Y-23454819D02*
X76500000Y-23454819D01*
X76500000Y-23454819D02*
X76595238Y-23502438D01*
X76595238Y-23502438D02*
X76642857Y-23550057D01*
X76642857Y-23550057D02*
X76690476Y-23645295D01*
X76690476Y-23645295D02*
X76690476Y-23692914D01*
X76690476Y-23692914D02*
X76642857Y-23788152D01*
X76642857Y-23788152D02*
X76595238Y-23835771D01*
X76595238Y-23835771D02*
X76500000Y-23883390D01*
X76500000Y-23883390D02*
X76309524Y-23883390D01*
X76309524Y-23883390D02*
X76214286Y-23931009D01*
X76214286Y-23931009D02*
X76166667Y-23978628D01*
X76166667Y-23978628D02*
X76119048Y-24073866D01*
X76119048Y-24073866D02*
X76119048Y-24264342D01*
X76119048Y-24264342D02*
X76166667Y-24359580D01*
X76166667Y-24359580D02*
X76214286Y-24407200D01*
X76214286Y-24407200D02*
X76309524Y-24454819D01*
X76309524Y-24454819D02*
X76500000Y-24454819D01*
X76500000Y-24454819D02*
X76595238Y-24407200D01*
X76595238Y-24407200D02*
X76642857Y-24359580D01*
X76642857Y-24359580D02*
X76690476Y-24264342D01*
X76690476Y-24264342D02*
X76690476Y-24073866D01*
X76690476Y-24073866D02*
X76642857Y-23978628D01*
X76642857Y-23978628D02*
X76595238Y-23931009D01*
X76595238Y-23931009D02*
X76500000Y-23883390D01*
X67924349Y-8597315D02*
X68495777Y-8597315D01*
X68210063Y-9597315D02*
X68210063Y-8597315D01*
X68829111Y-9597315D02*
X68829111Y-8597315D01*
X68829111Y-8597315D02*
X69210063Y-8597315D01*
X69210063Y-8597315D02*
X69305301Y-8644934D01*
X69305301Y-8644934D02*
X69352920Y-8692553D01*
X69352920Y-8692553D02*
X69400539Y-8787791D01*
X69400539Y-8787791D02*
X69400539Y-8930648D01*
X69400539Y-8930648D02*
X69352920Y-9025886D01*
X69352920Y-9025886D02*
X69305301Y-9073505D01*
X69305301Y-9073505D02*
X69210063Y-9121124D01*
X69210063Y-9121124D02*
X68829111Y-9121124D01*
X69781492Y-8692553D02*
X69829111Y-8644934D01*
X69829111Y-8644934D02*
X69924349Y-8597315D01*
X69924349Y-8597315D02*
X70162444Y-8597315D01*
X70162444Y-8597315D02*
X70257682Y-8644934D01*
X70257682Y-8644934D02*
X70305301Y-8692553D01*
X70305301Y-8692553D02*
X70352920Y-8787791D01*
X70352920Y-8787791D02*
X70352920Y-8883029D01*
X70352920Y-8883029D02*
X70305301Y-9025886D01*
X70305301Y-9025886D02*
X69733873Y-9597315D01*
X69733873Y-9597315D02*
X70352920Y-9597315D01*
X71210063Y-8597315D02*
X71019587Y-8597315D01*
X71019587Y-8597315D02*
X70924349Y-8644934D01*
X70924349Y-8644934D02*
X70876730Y-8692553D01*
X70876730Y-8692553D02*
X70781492Y-8835410D01*
X70781492Y-8835410D02*
X70733873Y-9025886D01*
X70733873Y-9025886D02*
X70733873Y-9406838D01*
X70733873Y-9406838D02*
X70781492Y-9502076D01*
X70781492Y-9502076D02*
X70829111Y-9549696D01*
X70829111Y-9549696D02*
X70924349Y-9597315D01*
X70924349Y-9597315D02*
X71114825Y-9597315D01*
X71114825Y-9597315D02*
X71210063Y-9549696D01*
X71210063Y-9549696D02*
X71257682Y-9502076D01*
X71257682Y-9502076D02*
X71305301Y-9406838D01*
X71305301Y-9406838D02*
X71305301Y-9168743D01*
X71305301Y-9168743D02*
X71257682Y-9073505D01*
X71257682Y-9073505D02*
X71210063Y-9025886D01*
X71210063Y-9025886D02*
X71114825Y-8978267D01*
X71114825Y-8978267D02*
X70924349Y-8978267D01*
X70924349Y-8978267D02*
X70829111Y-9025886D01*
X70829111Y-9025886D02*
X70781492Y-9073505D01*
X70781492Y-9073505D02*
X70733873Y-9168743D01*
X75833333Y-19454819D02*
X75357143Y-19454819D01*
X75357143Y-19454819D02*
X75357143Y-18454819D01*
X76071429Y-18454819D02*
X76738095Y-18454819D01*
X76738095Y-18454819D02*
X76309524Y-19454819D01*
X45885400Y-11245831D02*
X46456828Y-11245831D01*
X46171114Y-12245831D02*
X46171114Y-11245831D01*
X46790162Y-12245831D02*
X46790162Y-11245831D01*
X46790162Y-11245831D02*
X47171114Y-11245831D01*
X47171114Y-11245831D02*
X47266352Y-11293450D01*
X47266352Y-11293450D02*
X47313971Y-11341069D01*
X47313971Y-11341069D02*
X47361590Y-11436307D01*
X47361590Y-11436307D02*
X47361590Y-11579164D01*
X47361590Y-11579164D02*
X47313971Y-11674402D01*
X47313971Y-11674402D02*
X47266352Y-11722021D01*
X47266352Y-11722021D02*
X47171114Y-11769640D01*
X47171114Y-11769640D02*
X46790162Y-11769640D01*
X48313971Y-12245831D02*
X47742543Y-12245831D01*
X48028257Y-12245831D02*
X48028257Y-11245831D01*
X48028257Y-11245831D02*
X47933019Y-11388688D01*
X47933019Y-11388688D02*
X47837781Y-11483926D01*
X47837781Y-11483926D02*
X47742543Y-11531545D01*
X48647305Y-11245831D02*
X49313971Y-11245831D01*
X49313971Y-11245831D02*
X48885400Y-12245831D01*
X33302632Y-8109426D02*
X33255013Y-8157046D01*
X33255013Y-8157046D02*
X33112156Y-8204665D01*
X33112156Y-8204665D02*
X33016918Y-8204665D01*
X33016918Y-8204665D02*
X32874061Y-8157046D01*
X32874061Y-8157046D02*
X32778823Y-8061807D01*
X32778823Y-8061807D02*
X32731204Y-7966569D01*
X32731204Y-7966569D02*
X32683585Y-7776093D01*
X32683585Y-7776093D02*
X32683585Y-7633236D01*
X32683585Y-7633236D02*
X32731204Y-7442760D01*
X32731204Y-7442760D02*
X32778823Y-7347522D01*
X32778823Y-7347522D02*
X32874061Y-7252284D01*
X32874061Y-7252284D02*
X33016918Y-7204665D01*
X33016918Y-7204665D02*
X33112156Y-7204665D01*
X33112156Y-7204665D02*
X33255013Y-7252284D01*
X33255013Y-7252284D02*
X33302632Y-7299903D01*
X33635966Y-7204665D02*
X34255013Y-7204665D01*
X34255013Y-7204665D02*
X33921680Y-7585617D01*
X33921680Y-7585617D02*
X34064537Y-7585617D01*
X34064537Y-7585617D02*
X34159775Y-7633236D01*
X34159775Y-7633236D02*
X34207394Y-7680855D01*
X34207394Y-7680855D02*
X34255013Y-7776093D01*
X34255013Y-7776093D02*
X34255013Y-8014188D01*
X34255013Y-8014188D02*
X34207394Y-8109426D01*
X34207394Y-8109426D02*
X34159775Y-8157046D01*
X34159775Y-8157046D02*
X34064537Y-8204665D01*
X34064537Y-8204665D02*
X33778823Y-8204665D01*
X33778823Y-8204665D02*
X33683585Y-8157046D01*
X33683585Y-8157046D02*
X33635966Y-8109426D01*
X18704377Y-1303214D02*
X19275805Y-1303214D01*
X18990091Y-2303214D02*
X18990091Y-1303214D01*
X19609139Y-2303214D02*
X19609139Y-1303214D01*
X19609139Y-1303214D02*
X19990091Y-1303214D01*
X19990091Y-1303214D02*
X20085329Y-1350833D01*
X20085329Y-1350833D02*
X20132948Y-1398452D01*
X20132948Y-1398452D02*
X20180567Y-1493690D01*
X20180567Y-1493690D02*
X20180567Y-1636547D01*
X20180567Y-1636547D02*
X20132948Y-1731785D01*
X20132948Y-1731785D02*
X20085329Y-1779404D01*
X20085329Y-1779404D02*
X19990091Y-1827023D01*
X19990091Y-1827023D02*
X19609139Y-1827023D01*
X20561520Y-1398452D02*
X20609139Y-1350833D01*
X20609139Y-1350833D02*
X20704377Y-1303214D01*
X20704377Y-1303214D02*
X20942472Y-1303214D01*
X20942472Y-1303214D02*
X21037710Y-1350833D01*
X21037710Y-1350833D02*
X21085329Y-1398452D01*
X21085329Y-1398452D02*
X21132948Y-1493690D01*
X21132948Y-1493690D02*
X21132948Y-1588928D01*
X21132948Y-1588928D02*
X21085329Y-1731785D01*
X21085329Y-1731785D02*
X20513901Y-2303214D01*
X20513901Y-2303214D02*
X21132948Y-2303214D01*
X5454819Y-11738094D02*
X4454819Y-11738094D01*
X4454819Y-11738094D02*
X4454819Y-11499999D01*
X4454819Y-11499999D02*
X4502438Y-11357142D01*
X4502438Y-11357142D02*
X4597676Y-11261904D01*
X4597676Y-11261904D02*
X4692914Y-11214285D01*
X4692914Y-11214285D02*
X4883390Y-11166666D01*
X4883390Y-11166666D02*
X5026247Y-11166666D01*
X5026247Y-11166666D02*
X5216723Y-11214285D01*
X5216723Y-11214285D02*
X5311961Y-11261904D01*
X5311961Y-11261904D02*
X5407200Y-11357142D01*
X5407200Y-11357142D02*
X5454819Y-11499999D01*
X5454819Y-11499999D02*
X5454819Y-11738094D01*
X5454819Y-10214285D02*
X5454819Y-10785713D01*
X5454819Y-10499999D02*
X4454819Y-10499999D01*
X4454819Y-10499999D02*
X4597676Y-10595237D01*
X4597676Y-10595237D02*
X4692914Y-10690475D01*
X4692914Y-10690475D02*
X4740533Y-10785713D01*
X7454819Y-9261904D02*
X6454819Y-9261904D01*
X7454819Y-8690476D02*
X6883390Y-9119047D01*
X6454819Y-8690476D02*
X7026247Y-9261904D01*
X400539Y-8597315D02*
X971967Y-8597315D01*
X686253Y-9597315D02*
X686253Y-8597315D01*
X1305301Y-9597315D02*
X1305301Y-8597315D01*
X1305301Y-8597315D02*
X1686253Y-8597315D01*
X1686253Y-8597315D02*
X1781491Y-8644934D01*
X1781491Y-8644934D02*
X1829110Y-8692553D01*
X1829110Y-8692553D02*
X1876729Y-8787791D01*
X1876729Y-8787791D02*
X1876729Y-8930648D01*
X1876729Y-8930648D02*
X1829110Y-9025886D01*
X1829110Y-9025886D02*
X1781491Y-9073505D01*
X1781491Y-9073505D02*
X1686253Y-9121124D01*
X1686253Y-9121124D02*
X1305301Y-9121124D01*
X2210063Y-8597315D02*
X2829110Y-8597315D01*
X2829110Y-8597315D02*
X2495777Y-8978267D01*
X2495777Y-8978267D02*
X2638634Y-8978267D01*
X2638634Y-8978267D02*
X2733872Y-9025886D01*
X2733872Y-9025886D02*
X2781491Y-9073505D01*
X2781491Y-9073505D02*
X2829110Y-9168743D01*
X2829110Y-9168743D02*
X2829110Y-9406838D01*
X2829110Y-9406838D02*
X2781491Y-9502076D01*
X2781491Y-9502076D02*
X2733872Y-9549696D01*
X2733872Y-9549696D02*
X2638634Y-9597315D01*
X2638634Y-9597315D02*
X2352920Y-9597315D01*
X2352920Y-9597315D02*
X2257682Y-9549696D01*
X2257682Y-9549696D02*
X2210063Y-9502076D01*
X7833333Y-19454819D02*
X7357143Y-19454819D01*
X7357143Y-19454819D02*
X7357143Y-18454819D01*
X8690476Y-19454819D02*
X8119048Y-19454819D01*
X8404762Y-19454819D02*
X8404762Y-18454819D01*
X8404762Y-18454819D02*
X8309524Y-18597676D01*
X8309524Y-18597676D02*
X8214286Y-18692914D01*
X8214286Y-18692914D02*
X8119048Y-18740533D01*
X37611905Y-21454819D02*
X38183333Y-21454819D01*
X37897619Y-22454819D02*
X37897619Y-21454819D01*
X38516667Y-22454819D02*
X38516667Y-21454819D01*
X38516667Y-21454819D02*
X38897619Y-21454819D01*
X38897619Y-21454819D02*
X38992857Y-21502438D01*
X38992857Y-21502438D02*
X39040476Y-21550057D01*
X39040476Y-21550057D02*
X39088095Y-21645295D01*
X39088095Y-21645295D02*
X39088095Y-21788152D01*
X39088095Y-21788152D02*
X39040476Y-21883390D01*
X39040476Y-21883390D02*
X38992857Y-21931009D01*
X38992857Y-21931009D02*
X38897619Y-21978628D01*
X38897619Y-21978628D02*
X38516667Y-21978628D01*
X40040476Y-22454819D02*
X39469048Y-22454819D01*
X39754762Y-22454819D02*
X39754762Y-21454819D01*
X39754762Y-21454819D02*
X39659524Y-21597676D01*
X39659524Y-21597676D02*
X39564286Y-21692914D01*
X39564286Y-21692914D02*
X39469048Y-21740533D01*
X40897619Y-21788152D02*
X40897619Y-22454819D01*
X40659524Y-21407200D02*
X40421429Y-22121485D01*
X40421429Y-22121485D02*
X41040476Y-22121485D01*
X32738095Y-966697D02*
X33309523Y-966697D01*
X33023809Y-1966697D02*
X33023809Y-966697D01*
X33642857Y-1966697D02*
X33642857Y-966697D01*
X33642857Y-966697D02*
X34023809Y-966697D01*
X34023809Y-966697D02*
X34119047Y-1014316D01*
X34119047Y-1014316D02*
X34166666Y-1061935D01*
X34166666Y-1061935D02*
X34214285Y-1157173D01*
X34214285Y-1157173D02*
X34214285Y-1300030D01*
X34214285Y-1300030D02*
X34166666Y-1395268D01*
X34166666Y-1395268D02*
X34119047Y-1442887D01*
X34119047Y-1442887D02*
X34023809Y-1490506D01*
X34023809Y-1490506D02*
X33642857Y-1490506D01*
X34785714Y-1395268D02*
X34690476Y-1347649D01*
X34690476Y-1347649D02*
X34642857Y-1300030D01*
X34642857Y-1300030D02*
X34595238Y-1204792D01*
X34595238Y-1204792D02*
X34595238Y-1157173D01*
X34595238Y-1157173D02*
X34642857Y-1061935D01*
X34642857Y-1061935D02*
X34690476Y-1014316D01*
X34690476Y-1014316D02*
X34785714Y-966697D01*
X34785714Y-966697D02*
X34976190Y-966697D01*
X34976190Y-966697D02*
X35071428Y-1014316D01*
X35071428Y-1014316D02*
X35119047Y-1061935D01*
X35119047Y-1061935D02*
X35166666Y-1157173D01*
X35166666Y-1157173D02*
X35166666Y-1204792D01*
X35166666Y-1204792D02*
X35119047Y-1300030D01*
X35119047Y-1300030D02*
X35071428Y-1347649D01*
X35071428Y-1347649D02*
X34976190Y-1395268D01*
X34976190Y-1395268D02*
X34785714Y-1395268D01*
X34785714Y-1395268D02*
X34690476Y-1442887D01*
X34690476Y-1442887D02*
X34642857Y-1490506D01*
X34642857Y-1490506D02*
X34595238Y-1585744D01*
X34595238Y-1585744D02*
X34595238Y-1776220D01*
X34595238Y-1776220D02*
X34642857Y-1871458D01*
X34642857Y-1871458D02*
X34690476Y-1919078D01*
X34690476Y-1919078D02*
X34785714Y-1966697D01*
X34785714Y-1966697D02*
X34976190Y-1966697D01*
X34976190Y-1966697D02*
X35071428Y-1919078D01*
X35071428Y-1919078D02*
X35119047Y-1871458D01*
X35119047Y-1871458D02*
X35166666Y-1776220D01*
X35166666Y-1776220D02*
X35166666Y-1585744D01*
X35166666Y-1585744D02*
X35119047Y-1490506D01*
X35119047Y-1490506D02*
X35071428Y-1442887D01*
X35071428Y-1442887D02*
X34976190Y-1395268D01*
X61611905Y-16454819D02*
X62183333Y-16454819D01*
X61897619Y-17454819D02*
X61897619Y-16454819D01*
X62516667Y-17454819D02*
X62516667Y-16454819D01*
X62516667Y-16454819D02*
X62897619Y-16454819D01*
X62897619Y-16454819D02*
X62992857Y-16502438D01*
X62992857Y-16502438D02*
X63040476Y-16550057D01*
X63040476Y-16550057D02*
X63088095Y-16645295D01*
X63088095Y-16645295D02*
X63088095Y-16788152D01*
X63088095Y-16788152D02*
X63040476Y-16883390D01*
X63040476Y-16883390D02*
X62992857Y-16931009D01*
X62992857Y-16931009D02*
X62897619Y-16978628D01*
X62897619Y-16978628D02*
X62516667Y-16978628D01*
X63469048Y-16550057D02*
X63516667Y-16502438D01*
X63516667Y-16502438D02*
X63611905Y-16454819D01*
X63611905Y-16454819D02*
X63850000Y-16454819D01*
X63850000Y-16454819D02*
X63945238Y-16502438D01*
X63945238Y-16502438D02*
X63992857Y-16550057D01*
X63992857Y-16550057D02*
X64040476Y-16645295D01*
X64040476Y-16645295D02*
X64040476Y-16740533D01*
X64040476Y-16740533D02*
X63992857Y-16883390D01*
X63992857Y-16883390D02*
X63421429Y-17454819D01*
X63421429Y-17454819D02*
X64040476Y-17454819D01*
X64659524Y-16454819D02*
X64754762Y-16454819D01*
X64754762Y-16454819D02*
X64850000Y-16502438D01*
X64850000Y-16502438D02*
X64897619Y-16550057D01*
X64897619Y-16550057D02*
X64945238Y-16645295D01*
X64945238Y-16645295D02*
X64992857Y-16835771D01*
X64992857Y-16835771D02*
X64992857Y-17073866D01*
X64992857Y-17073866D02*
X64945238Y-17264342D01*
X64945238Y-17264342D02*
X64897619Y-17359580D01*
X64897619Y-17359580D02*
X64850000Y-17407200D01*
X64850000Y-17407200D02*
X64754762Y-17454819D01*
X64754762Y-17454819D02*
X64659524Y-17454819D01*
X64659524Y-17454819D02*
X64564286Y-17407200D01*
X64564286Y-17407200D02*
X64516667Y-17359580D01*
X64516667Y-17359580D02*
X64469048Y-17264342D01*
X64469048Y-17264342D02*
X64421429Y-17073866D01*
X64421429Y-17073866D02*
X64421429Y-16835771D01*
X64421429Y-16835771D02*
X64469048Y-16645295D01*
X64469048Y-16645295D02*
X64516667Y-16550057D01*
X64516667Y-16550057D02*
X64564286Y-16502438D01*
X64564286Y-16502438D02*
X64659524Y-16454819D01*
X78261905Y-966697D02*
X78833333Y-966697D01*
X78547619Y-1966697D02*
X78547619Y-966697D01*
X79166667Y-1966697D02*
X79166667Y-966697D01*
X79166667Y-966697D02*
X79547619Y-966697D01*
X79547619Y-966697D02*
X79642857Y-1014316D01*
X79642857Y-1014316D02*
X79690476Y-1061935D01*
X79690476Y-1061935D02*
X79738095Y-1157173D01*
X79738095Y-1157173D02*
X79738095Y-1300030D01*
X79738095Y-1300030D02*
X79690476Y-1395268D01*
X79690476Y-1395268D02*
X79642857Y-1442887D01*
X79642857Y-1442887D02*
X79547619Y-1490506D01*
X79547619Y-1490506D02*
X79166667Y-1490506D01*
X80119048Y-1061935D02*
X80166667Y-1014316D01*
X80166667Y-1014316D02*
X80261905Y-966697D01*
X80261905Y-966697D02*
X80500000Y-966697D01*
X80500000Y-966697D02*
X80595238Y-1014316D01*
X80595238Y-1014316D02*
X80642857Y-1061935D01*
X80642857Y-1061935D02*
X80690476Y-1157173D01*
X80690476Y-1157173D02*
X80690476Y-1252411D01*
X80690476Y-1252411D02*
X80642857Y-1395268D01*
X80642857Y-1395268D02*
X80071429Y-1966697D01*
X80071429Y-1966697D02*
X80690476Y-1966697D01*
X81071429Y-1061935D02*
X81119048Y-1014316D01*
X81119048Y-1014316D02*
X81214286Y-966697D01*
X81214286Y-966697D02*
X81452381Y-966697D01*
X81452381Y-966697D02*
X81547619Y-1014316D01*
X81547619Y-1014316D02*
X81595238Y-1061935D01*
X81595238Y-1061935D02*
X81642857Y-1157173D01*
X81642857Y-1157173D02*
X81642857Y-1252411D01*
X81642857Y-1252411D02*
X81595238Y-1395268D01*
X81595238Y-1395268D02*
X81023810Y-1966697D01*
X81023810Y-1966697D02*
X81642857Y-1966697D01*
X56261905Y-966697D02*
X56833333Y-966697D01*
X56547619Y-1966697D02*
X56547619Y-966697D01*
X57166667Y-1966697D02*
X57166667Y-966697D01*
X57166667Y-966697D02*
X57547619Y-966697D01*
X57547619Y-966697D02*
X57642857Y-1014316D01*
X57642857Y-1014316D02*
X57690476Y-1061935D01*
X57690476Y-1061935D02*
X57738095Y-1157173D01*
X57738095Y-1157173D02*
X57738095Y-1300030D01*
X57738095Y-1300030D02*
X57690476Y-1395268D01*
X57690476Y-1395268D02*
X57642857Y-1442887D01*
X57642857Y-1442887D02*
X57547619Y-1490506D01*
X57547619Y-1490506D02*
X57166667Y-1490506D01*
X58690476Y-1966697D02*
X58119048Y-1966697D01*
X58404762Y-1966697D02*
X58404762Y-966697D01*
X58404762Y-966697D02*
X58309524Y-1109554D01*
X58309524Y-1109554D02*
X58214286Y-1204792D01*
X58214286Y-1204792D02*
X58119048Y-1252411D01*
X59595238Y-966697D02*
X59119048Y-966697D01*
X59119048Y-966697D02*
X59071429Y-1442887D01*
X59071429Y-1442887D02*
X59119048Y-1395268D01*
X59119048Y-1395268D02*
X59214286Y-1347649D01*
X59214286Y-1347649D02*
X59452381Y-1347649D01*
X59452381Y-1347649D02*
X59547619Y-1395268D01*
X59547619Y-1395268D02*
X59595238Y-1442887D01*
X59595238Y-1442887D02*
X59642857Y-1538125D01*
X59642857Y-1538125D02*
X59642857Y-1776220D01*
X59642857Y-1776220D02*
X59595238Y-1871458D01*
X59595238Y-1871458D02*
X59547619Y-1919078D01*
X59547619Y-1919078D02*
X59452381Y-1966697D01*
X59452381Y-1966697D02*
X59214286Y-1966697D01*
X59214286Y-1966697D02*
X59119048Y-1919078D01*
X59119048Y-1919078D02*
X59071429Y-1871458D01*
X83611905Y-16454819D02*
X84183333Y-16454819D01*
X83897619Y-17454819D02*
X83897619Y-16454819D01*
X84516667Y-17454819D02*
X84516667Y-16454819D01*
X84516667Y-16454819D02*
X84897619Y-16454819D01*
X84897619Y-16454819D02*
X84992857Y-16502438D01*
X84992857Y-16502438D02*
X85040476Y-16550057D01*
X85040476Y-16550057D02*
X85088095Y-16645295D01*
X85088095Y-16645295D02*
X85088095Y-16788152D01*
X85088095Y-16788152D02*
X85040476Y-16883390D01*
X85040476Y-16883390D02*
X84992857Y-16931009D01*
X84992857Y-16931009D02*
X84897619Y-16978628D01*
X84897619Y-16978628D02*
X84516667Y-16978628D01*
X85469048Y-16550057D02*
X85516667Y-16502438D01*
X85516667Y-16502438D02*
X85611905Y-16454819D01*
X85611905Y-16454819D02*
X85850000Y-16454819D01*
X85850000Y-16454819D02*
X85945238Y-16502438D01*
X85945238Y-16502438D02*
X85992857Y-16550057D01*
X85992857Y-16550057D02*
X86040476Y-16645295D01*
X86040476Y-16645295D02*
X86040476Y-16740533D01*
X86040476Y-16740533D02*
X85992857Y-16883390D01*
X85992857Y-16883390D02*
X85421429Y-17454819D01*
X85421429Y-17454819D02*
X86040476Y-17454819D01*
X86373810Y-16454819D02*
X87040476Y-16454819D01*
X87040476Y-16454819D02*
X86611905Y-17454819D01*
X52942348Y-15163195D02*
X52942348Y-15972718D01*
X52942348Y-15972718D02*
X52989967Y-16067956D01*
X52989967Y-16067956D02*
X53037586Y-16115576D01*
X53037586Y-16115576D02*
X53132824Y-16163195D01*
X53132824Y-16163195D02*
X53323300Y-16163195D01*
X53323300Y-16163195D02*
X53418538Y-16115576D01*
X53418538Y-16115576D02*
X53466157Y-16067956D01*
X53466157Y-16067956D02*
X53513776Y-15972718D01*
X53513776Y-15972718D02*
X53513776Y-15163195D01*
X53894729Y-15163195D02*
X54513776Y-15163195D01*
X54513776Y-15163195D02*
X54180443Y-15544147D01*
X54180443Y-15544147D02*
X54323300Y-15544147D01*
X54323300Y-15544147D02*
X54418538Y-15591766D01*
X54418538Y-15591766D02*
X54466157Y-15639385D01*
X54466157Y-15639385D02*
X54513776Y-15734623D01*
X54513776Y-15734623D02*
X54513776Y-15972718D01*
X54513776Y-15972718D02*
X54466157Y-16067956D01*
X54466157Y-16067956D02*
X54418538Y-16115576D01*
X54418538Y-16115576D02*
X54323300Y-16163195D01*
X54323300Y-16163195D02*
X54037586Y-16163195D01*
X54037586Y-16163195D02*
X53942348Y-16115576D01*
X53942348Y-16115576D02*
X53894729Y-16067956D01*
X42454819Y-10976666D02*
X41978628Y-11309999D01*
X42454819Y-11548094D02*
X41454819Y-11548094D01*
X41454819Y-11548094D02*
X41454819Y-11167142D01*
X41454819Y-11167142D02*
X41502438Y-11071904D01*
X41502438Y-11071904D02*
X41550057Y-11024285D01*
X41550057Y-11024285D02*
X41645295Y-10976666D01*
X41645295Y-10976666D02*
X41788152Y-10976666D01*
X41788152Y-10976666D02*
X41883390Y-11024285D01*
X41883390Y-11024285D02*
X41931009Y-11071904D01*
X41931009Y-11071904D02*
X41978628Y-11167142D01*
X41978628Y-11167142D02*
X41978628Y-11548094D01*
X41454819Y-10643332D02*
X41454819Y-10024285D01*
X41454819Y-10024285D02*
X41835771Y-10357618D01*
X41835771Y-10357618D02*
X41835771Y-10214761D01*
X41835771Y-10214761D02*
X41883390Y-10119523D01*
X41883390Y-10119523D02*
X41931009Y-10071904D01*
X41931009Y-10071904D02*
X42026247Y-10024285D01*
X42026247Y-10024285D02*
X42264342Y-10024285D01*
X42264342Y-10024285D02*
X42359580Y-10071904D01*
X42359580Y-10071904D02*
X42407200Y-10119523D01*
X42407200Y-10119523D02*
X42454819Y-10214761D01*
X42454819Y-10214761D02*
X42454819Y-10500475D01*
X42454819Y-10500475D02*
X42407200Y-10595713D01*
X42407200Y-10595713D02*
X42359580Y-10643332D01*
X83611905Y-21454819D02*
X84183333Y-21454819D01*
X83897619Y-22454819D02*
X83897619Y-21454819D01*
X84516667Y-22454819D02*
X84516667Y-21454819D01*
X84516667Y-21454819D02*
X84897619Y-21454819D01*
X84897619Y-21454819D02*
X84992857Y-21502438D01*
X84992857Y-21502438D02*
X85040476Y-21550057D01*
X85040476Y-21550057D02*
X85088095Y-21645295D01*
X85088095Y-21645295D02*
X85088095Y-21788152D01*
X85088095Y-21788152D02*
X85040476Y-21883390D01*
X85040476Y-21883390D02*
X84992857Y-21931009D01*
X84992857Y-21931009D02*
X84897619Y-21978628D01*
X84897619Y-21978628D02*
X84516667Y-21978628D01*
X85469048Y-21550057D02*
X85516667Y-21502438D01*
X85516667Y-21502438D02*
X85611905Y-21454819D01*
X85611905Y-21454819D02*
X85850000Y-21454819D01*
X85850000Y-21454819D02*
X85945238Y-21502438D01*
X85945238Y-21502438D02*
X85992857Y-21550057D01*
X85992857Y-21550057D02*
X86040476Y-21645295D01*
X86040476Y-21645295D02*
X86040476Y-21740533D01*
X86040476Y-21740533D02*
X85992857Y-21883390D01*
X85992857Y-21883390D02*
X85421429Y-22454819D01*
X85421429Y-22454819D02*
X86040476Y-22454819D01*
X86611905Y-21883390D02*
X86516667Y-21835771D01*
X86516667Y-21835771D02*
X86469048Y-21788152D01*
X86469048Y-21788152D02*
X86421429Y-21692914D01*
X86421429Y-21692914D02*
X86421429Y-21645295D01*
X86421429Y-21645295D02*
X86469048Y-21550057D01*
X86469048Y-21550057D02*
X86516667Y-21502438D01*
X86516667Y-21502438D02*
X86611905Y-21454819D01*
X86611905Y-21454819D02*
X86802381Y-21454819D01*
X86802381Y-21454819D02*
X86897619Y-21502438D01*
X86897619Y-21502438D02*
X86945238Y-21550057D01*
X86945238Y-21550057D02*
X86992857Y-21645295D01*
X86992857Y-21645295D02*
X86992857Y-21692914D01*
X86992857Y-21692914D02*
X86945238Y-21788152D01*
X86945238Y-21788152D02*
X86897619Y-21835771D01*
X86897619Y-21835771D02*
X86802381Y-21883390D01*
X86802381Y-21883390D02*
X86611905Y-21883390D01*
X86611905Y-21883390D02*
X86516667Y-21931009D01*
X86516667Y-21931009D02*
X86469048Y-21978628D01*
X86469048Y-21978628D02*
X86421429Y-22073866D01*
X86421429Y-22073866D02*
X86421429Y-22264342D01*
X86421429Y-22264342D02*
X86469048Y-22359580D01*
X86469048Y-22359580D02*
X86516667Y-22407200D01*
X86516667Y-22407200D02*
X86611905Y-22454819D01*
X86611905Y-22454819D02*
X86802381Y-22454819D01*
X86802381Y-22454819D02*
X86897619Y-22407200D01*
X86897619Y-22407200D02*
X86945238Y-22359580D01*
X86945238Y-22359580D02*
X86992857Y-22264342D01*
X86992857Y-22264342D02*
X86992857Y-22073866D01*
X86992857Y-22073866D02*
X86945238Y-21978628D01*
X86945238Y-21978628D02*
X86897619Y-21931009D01*
X86897619Y-21931009D02*
X86802381Y-21883390D01*
X42359580Y-21666666D02*
X42407200Y-21714285D01*
X42407200Y-21714285D02*
X42454819Y-21857142D01*
X42454819Y-21857142D02*
X42454819Y-21952380D01*
X42454819Y-21952380D02*
X42407200Y-22095237D01*
X42407200Y-22095237D02*
X42311961Y-22190475D01*
X42311961Y-22190475D02*
X42216723Y-22238094D01*
X42216723Y-22238094D02*
X42026247Y-22285713D01*
X42026247Y-22285713D02*
X41883390Y-22285713D01*
X41883390Y-22285713D02*
X41692914Y-22238094D01*
X41692914Y-22238094D02*
X41597676Y-22190475D01*
X41597676Y-22190475D02*
X41502438Y-22095237D01*
X41502438Y-22095237D02*
X41454819Y-21952380D01*
X41454819Y-21952380D02*
X41454819Y-21857142D01*
X41454819Y-21857142D02*
X41502438Y-21714285D01*
X41502438Y-21714285D02*
X41550057Y-21666666D01*
X41788152Y-20809523D02*
X42454819Y-20809523D01*
X41407200Y-21047618D02*
X42121485Y-21285713D01*
X42121485Y-21285713D02*
X42121485Y-20666666D01*
X57302632Y-8109426D02*
X57255013Y-8157046D01*
X57255013Y-8157046D02*
X57112156Y-8204665D01*
X57112156Y-8204665D02*
X57016918Y-8204665D01*
X57016918Y-8204665D02*
X56874061Y-8157046D01*
X56874061Y-8157046D02*
X56778823Y-8061807D01*
X56778823Y-8061807D02*
X56731204Y-7966569D01*
X56731204Y-7966569D02*
X56683585Y-7776093D01*
X56683585Y-7776093D02*
X56683585Y-7633236D01*
X56683585Y-7633236D02*
X56731204Y-7442760D01*
X56731204Y-7442760D02*
X56778823Y-7347522D01*
X56778823Y-7347522D02*
X56874061Y-7252284D01*
X56874061Y-7252284D02*
X57016918Y-7204665D01*
X57016918Y-7204665D02*
X57112156Y-7204665D01*
X57112156Y-7204665D02*
X57255013Y-7252284D01*
X57255013Y-7252284D02*
X57302632Y-7299903D01*
X58207394Y-7204665D02*
X57731204Y-7204665D01*
X57731204Y-7204665D02*
X57683585Y-7680855D01*
X57683585Y-7680855D02*
X57731204Y-7633236D01*
X57731204Y-7633236D02*
X57826442Y-7585617D01*
X57826442Y-7585617D02*
X58064537Y-7585617D01*
X58064537Y-7585617D02*
X58159775Y-7633236D01*
X58159775Y-7633236D02*
X58207394Y-7680855D01*
X58207394Y-7680855D02*
X58255013Y-7776093D01*
X58255013Y-7776093D02*
X58255013Y-8014188D01*
X58255013Y-8014188D02*
X58207394Y-8109426D01*
X58207394Y-8109426D02*
X58159775Y-8157046D01*
X58159775Y-8157046D02*
X58064537Y-8204665D01*
X58064537Y-8204665D02*
X57826442Y-8204665D01*
X57826442Y-8204665D02*
X57731204Y-8157046D01*
X57731204Y-8157046D02*
X57683585Y-8109426D01*
X67885400Y-11245831D02*
X68456828Y-11245831D01*
X68171114Y-12245831D02*
X68171114Y-11245831D01*
X68790162Y-12245831D02*
X68790162Y-11245831D01*
X68790162Y-11245831D02*
X69171114Y-11245831D01*
X69171114Y-11245831D02*
X69266352Y-11293450D01*
X69266352Y-11293450D02*
X69313971Y-11341069D01*
X69313971Y-11341069D02*
X69361590Y-11436307D01*
X69361590Y-11436307D02*
X69361590Y-11579164D01*
X69361590Y-11579164D02*
X69313971Y-11674402D01*
X69313971Y-11674402D02*
X69266352Y-11722021D01*
X69266352Y-11722021D02*
X69171114Y-11769640D01*
X69171114Y-11769640D02*
X68790162Y-11769640D01*
X69742543Y-11341069D02*
X69790162Y-11293450D01*
X69790162Y-11293450D02*
X69885400Y-11245831D01*
X69885400Y-11245831D02*
X70123495Y-11245831D01*
X70123495Y-11245831D02*
X70218733Y-11293450D01*
X70218733Y-11293450D02*
X70266352Y-11341069D01*
X70266352Y-11341069D02*
X70313971Y-11436307D01*
X70313971Y-11436307D02*
X70313971Y-11531545D01*
X70313971Y-11531545D02*
X70266352Y-11674402D01*
X70266352Y-11674402D02*
X69694924Y-12245831D01*
X69694924Y-12245831D02*
X70313971Y-12245831D01*
X71171114Y-11579164D02*
X71171114Y-12245831D01*
X70933019Y-11198212D02*
X70694924Y-11912497D01*
X70694924Y-11912497D02*
X71313971Y-11912497D01*
X66359580Y-21666666D02*
X66407200Y-21714285D01*
X66407200Y-21714285D02*
X66454819Y-21857142D01*
X66454819Y-21857142D02*
X66454819Y-21952380D01*
X66454819Y-21952380D02*
X66407200Y-22095237D01*
X66407200Y-22095237D02*
X66311961Y-22190475D01*
X66311961Y-22190475D02*
X66216723Y-22238094D01*
X66216723Y-22238094D02*
X66026247Y-22285713D01*
X66026247Y-22285713D02*
X65883390Y-22285713D01*
X65883390Y-22285713D02*
X65692914Y-22238094D01*
X65692914Y-22238094D02*
X65597676Y-22190475D01*
X65597676Y-22190475D02*
X65502438Y-22095237D01*
X65502438Y-22095237D02*
X65454819Y-21952380D01*
X65454819Y-21952380D02*
X65454819Y-21857142D01*
X65454819Y-21857142D02*
X65502438Y-21714285D01*
X65502438Y-21714285D02*
X65550057Y-21666666D01*
X65454819Y-20809523D02*
X65454819Y-20999999D01*
X65454819Y-20999999D02*
X65502438Y-21095237D01*
X65502438Y-21095237D02*
X65550057Y-21142856D01*
X65550057Y-21142856D02*
X65692914Y-21238094D01*
X65692914Y-21238094D02*
X65883390Y-21285713D01*
X65883390Y-21285713D02*
X66264342Y-21285713D01*
X66264342Y-21285713D02*
X66359580Y-21238094D01*
X66359580Y-21238094D02*
X66407200Y-21190475D01*
X66407200Y-21190475D02*
X66454819Y-21095237D01*
X66454819Y-21095237D02*
X66454819Y-20904761D01*
X66454819Y-20904761D02*
X66407200Y-20809523D01*
X66407200Y-20809523D02*
X66359580Y-20761904D01*
X66359580Y-20761904D02*
X66264342Y-20714285D01*
X66264342Y-20714285D02*
X66026247Y-20714285D01*
X66026247Y-20714285D02*
X65931009Y-20761904D01*
X65931009Y-20761904D02*
X65883390Y-20809523D01*
X65883390Y-20809523D02*
X65835771Y-20904761D01*
X65835771Y-20904761D02*
X65835771Y-21095237D01*
X65835771Y-21095237D02*
X65883390Y-21190475D01*
X65883390Y-21190475D02*
X65931009Y-21238094D01*
X65931009Y-21238094D02*
X66026247Y-21285713D01*
X29833333Y-24454819D02*
X29357143Y-24454819D01*
X29357143Y-24454819D02*
X29357143Y-23454819D01*
X30595238Y-23788152D02*
X30595238Y-24454819D01*
X30357143Y-23407200D02*
X30119048Y-24121485D01*
X30119048Y-24121485D02*
X30738095Y-24121485D01*
X74261905Y-873220D02*
X74833333Y-873220D01*
X74547619Y-1873220D02*
X74547619Y-873220D01*
X75166667Y-1873220D02*
X75166667Y-873220D01*
X75166667Y-873220D02*
X75547619Y-873220D01*
X75547619Y-873220D02*
X75642857Y-920839D01*
X75642857Y-920839D02*
X75690476Y-968458D01*
X75690476Y-968458D02*
X75738095Y-1063696D01*
X75738095Y-1063696D02*
X75738095Y-1206553D01*
X75738095Y-1206553D02*
X75690476Y-1301791D01*
X75690476Y-1301791D02*
X75642857Y-1349410D01*
X75642857Y-1349410D02*
X75547619Y-1397029D01*
X75547619Y-1397029D02*
X75166667Y-1397029D01*
X76119048Y-968458D02*
X76166667Y-920839D01*
X76166667Y-920839D02*
X76261905Y-873220D01*
X76261905Y-873220D02*
X76500000Y-873220D01*
X76500000Y-873220D02*
X76595238Y-920839D01*
X76595238Y-920839D02*
X76642857Y-968458D01*
X76642857Y-968458D02*
X76690476Y-1063696D01*
X76690476Y-1063696D02*
X76690476Y-1158934D01*
X76690476Y-1158934D02*
X76642857Y-1301791D01*
X76642857Y-1301791D02*
X76071429Y-1873220D01*
X76071429Y-1873220D02*
X76690476Y-1873220D01*
X77595238Y-873220D02*
X77119048Y-873220D01*
X77119048Y-873220D02*
X77071429Y-1349410D01*
X77071429Y-1349410D02*
X77119048Y-1301791D01*
X77119048Y-1301791D02*
X77214286Y-1254172D01*
X77214286Y-1254172D02*
X77452381Y-1254172D01*
X77452381Y-1254172D02*
X77547619Y-1301791D01*
X77547619Y-1301791D02*
X77595238Y-1349410D01*
X77595238Y-1349410D02*
X77642857Y-1444648D01*
X77642857Y-1444648D02*
X77642857Y-1682743D01*
X77642857Y-1682743D02*
X77595238Y-1777981D01*
X77595238Y-1777981D02*
X77547619Y-1825601D01*
X77547619Y-1825601D02*
X77452381Y-1873220D01*
X77452381Y-1873220D02*
X77214286Y-1873220D01*
X77214286Y-1873220D02*
X77119048Y-1825601D01*
X77119048Y-1825601D02*
X77071429Y-1777981D01*
X86228187Y-1303214D02*
X86799615Y-1303214D01*
X86513901Y-2303214D02*
X86513901Y-1303214D01*
X87132949Y-2303214D02*
X87132949Y-1303214D01*
X87132949Y-1303214D02*
X87513901Y-1303214D01*
X87513901Y-1303214D02*
X87609139Y-1350833D01*
X87609139Y-1350833D02*
X87656758Y-1398452D01*
X87656758Y-1398452D02*
X87704377Y-1493690D01*
X87704377Y-1493690D02*
X87704377Y-1636547D01*
X87704377Y-1636547D02*
X87656758Y-1731785D01*
X87656758Y-1731785D02*
X87609139Y-1779404D01*
X87609139Y-1779404D02*
X87513901Y-1827023D01*
X87513901Y-1827023D02*
X87132949Y-1827023D01*
X88085330Y-1398452D02*
X88132949Y-1350833D01*
X88132949Y-1350833D02*
X88228187Y-1303214D01*
X88228187Y-1303214D02*
X88466282Y-1303214D01*
X88466282Y-1303214D02*
X88561520Y-1350833D01*
X88561520Y-1350833D02*
X88609139Y-1398452D01*
X88609139Y-1398452D02*
X88656758Y-1493690D01*
X88656758Y-1493690D02*
X88656758Y-1588928D01*
X88656758Y-1588928D02*
X88609139Y-1731785D01*
X88609139Y-1731785D02*
X88037711Y-2303214D01*
X88037711Y-2303214D02*
X88656758Y-2303214D01*
X88990092Y-1303214D02*
X89609139Y-1303214D01*
X89609139Y-1303214D02*
X89275806Y-1684166D01*
X89275806Y-1684166D02*
X89418663Y-1684166D01*
X89418663Y-1684166D02*
X89513901Y-1731785D01*
X89513901Y-1731785D02*
X89561520Y-1779404D01*
X89561520Y-1779404D02*
X89609139Y-1874642D01*
X89609139Y-1874642D02*
X89609139Y-2112737D01*
X89609139Y-2112737D02*
X89561520Y-2207975D01*
X89561520Y-2207975D02*
X89513901Y-2255595D01*
X89513901Y-2255595D02*
X89418663Y-2303214D01*
X89418663Y-2303214D02*
X89132949Y-2303214D01*
X89132949Y-2303214D02*
X89037711Y-2255595D01*
X89037711Y-2255595D02*
X88990092Y-2207975D01*
X40704377Y-1303214D02*
X41275805Y-1303214D01*
X40990091Y-2303214D02*
X40990091Y-1303214D01*
X41609139Y-2303214D02*
X41609139Y-1303214D01*
X41609139Y-1303214D02*
X41990091Y-1303214D01*
X41990091Y-1303214D02*
X42085329Y-1350833D01*
X42085329Y-1350833D02*
X42132948Y-1398452D01*
X42132948Y-1398452D02*
X42180567Y-1493690D01*
X42180567Y-1493690D02*
X42180567Y-1636547D01*
X42180567Y-1636547D02*
X42132948Y-1731785D01*
X42132948Y-1731785D02*
X42085329Y-1779404D01*
X42085329Y-1779404D02*
X41990091Y-1827023D01*
X41990091Y-1827023D02*
X41609139Y-1827023D01*
X42656758Y-2303214D02*
X42847234Y-2303214D01*
X42847234Y-2303214D02*
X42942472Y-2255595D01*
X42942472Y-2255595D02*
X42990091Y-2207975D01*
X42990091Y-2207975D02*
X43085329Y-2065118D01*
X43085329Y-2065118D02*
X43132948Y-1874642D01*
X43132948Y-1874642D02*
X43132948Y-1493690D01*
X43132948Y-1493690D02*
X43085329Y-1398452D01*
X43085329Y-1398452D02*
X43037710Y-1350833D01*
X43037710Y-1350833D02*
X42942472Y-1303214D01*
X42942472Y-1303214D02*
X42751996Y-1303214D01*
X42751996Y-1303214D02*
X42656758Y-1350833D01*
X42656758Y-1350833D02*
X42609139Y-1398452D01*
X42609139Y-1398452D02*
X42561520Y-1493690D01*
X42561520Y-1493690D02*
X42561520Y-1731785D01*
X42561520Y-1731785D02*
X42609139Y-1827023D01*
X42609139Y-1827023D02*
X42656758Y-1874642D01*
X42656758Y-1874642D02*
X42751996Y-1922261D01*
X42751996Y-1922261D02*
X42942472Y-1922261D01*
X42942472Y-1922261D02*
X43037710Y-1874642D01*
X43037710Y-1874642D02*
X43085329Y-1827023D01*
X43085329Y-1827023D02*
X43132948Y-1731785D01*
X20359580Y-21666666D02*
X20407200Y-21714285D01*
X20407200Y-21714285D02*
X20454819Y-21857142D01*
X20454819Y-21857142D02*
X20454819Y-21952380D01*
X20454819Y-21952380D02*
X20407200Y-22095237D01*
X20407200Y-22095237D02*
X20311961Y-22190475D01*
X20311961Y-22190475D02*
X20216723Y-22238094D01*
X20216723Y-22238094D02*
X20026247Y-22285713D01*
X20026247Y-22285713D02*
X19883390Y-22285713D01*
X19883390Y-22285713D02*
X19692914Y-22238094D01*
X19692914Y-22238094D02*
X19597676Y-22190475D01*
X19597676Y-22190475D02*
X19502438Y-22095237D01*
X19502438Y-22095237D02*
X19454819Y-21952380D01*
X19454819Y-21952380D02*
X19454819Y-21857142D01*
X19454819Y-21857142D02*
X19502438Y-21714285D01*
X19502438Y-21714285D02*
X19550057Y-21666666D01*
X19550057Y-21285713D02*
X19502438Y-21238094D01*
X19502438Y-21238094D02*
X19454819Y-21142856D01*
X19454819Y-21142856D02*
X19454819Y-20904761D01*
X19454819Y-20904761D02*
X19502438Y-20809523D01*
X19502438Y-20809523D02*
X19550057Y-20761904D01*
X19550057Y-20761904D02*
X19645295Y-20714285D01*
X19645295Y-20714285D02*
X19740533Y-20714285D01*
X19740533Y-20714285D02*
X19883390Y-20761904D01*
X19883390Y-20761904D02*
X20454819Y-21333332D01*
X20454819Y-21333332D02*
X20454819Y-20714285D01*
X16088095Y-21454819D02*
X16659523Y-21454819D01*
X16373809Y-22454819D02*
X16373809Y-21454819D01*
X16992857Y-22454819D02*
X16992857Y-21454819D01*
X16992857Y-21454819D02*
X17373809Y-21454819D01*
X17373809Y-21454819D02*
X17469047Y-21502438D01*
X17469047Y-21502438D02*
X17516666Y-21550057D01*
X17516666Y-21550057D02*
X17564285Y-21645295D01*
X17564285Y-21645295D02*
X17564285Y-21788152D01*
X17564285Y-21788152D02*
X17516666Y-21883390D01*
X17516666Y-21883390D02*
X17469047Y-21931009D01*
X17469047Y-21931009D02*
X17373809Y-21978628D01*
X17373809Y-21978628D02*
X16992857Y-21978628D01*
X18421428Y-21788152D02*
X18421428Y-22454819D01*
X18183333Y-21407200D02*
X17945238Y-22121485D01*
X17945238Y-22121485D02*
X18564285Y-22121485D01*
X361590Y-11245831D02*
X933018Y-11245831D01*
X647304Y-12245831D02*
X647304Y-11245831D01*
X1266352Y-12245831D02*
X1266352Y-11245831D01*
X1266352Y-11245831D02*
X1647304Y-11245831D01*
X1647304Y-11245831D02*
X1742542Y-11293450D01*
X1742542Y-11293450D02*
X1790161Y-11341069D01*
X1790161Y-11341069D02*
X1837780Y-11436307D01*
X1837780Y-11436307D02*
X1837780Y-11579164D01*
X1837780Y-11579164D02*
X1790161Y-11674402D01*
X1790161Y-11674402D02*
X1742542Y-11722021D01*
X1742542Y-11722021D02*
X1647304Y-11769640D01*
X1647304Y-11769640D02*
X1266352Y-11769640D01*
X2742542Y-11245831D02*
X2266352Y-11245831D01*
X2266352Y-11245831D02*
X2218733Y-11722021D01*
X2218733Y-11722021D02*
X2266352Y-11674402D01*
X2266352Y-11674402D02*
X2361590Y-11626783D01*
X2361590Y-11626783D02*
X2599685Y-11626783D01*
X2599685Y-11626783D02*
X2694923Y-11674402D01*
X2694923Y-11674402D02*
X2742542Y-11722021D01*
X2742542Y-11722021D02*
X2790161Y-11817259D01*
X2790161Y-11817259D02*
X2790161Y-12055354D01*
X2790161Y-12055354D02*
X2742542Y-12150592D01*
X2742542Y-12150592D02*
X2694923Y-12198212D01*
X2694923Y-12198212D02*
X2599685Y-12245831D01*
X2599685Y-12245831D02*
X2361590Y-12245831D01*
X2361590Y-12245831D02*
X2266352Y-12198212D01*
X2266352Y-12198212D02*
X2218733Y-12150592D01*
X53833333Y-24454819D02*
X53357143Y-24454819D01*
X53357143Y-24454819D02*
X53357143Y-23454819D01*
X54595238Y-23454819D02*
X54404762Y-23454819D01*
X54404762Y-23454819D02*
X54309524Y-23502438D01*
X54309524Y-23502438D02*
X54261905Y-23550057D01*
X54261905Y-23550057D02*
X54166667Y-23692914D01*
X54166667Y-23692914D02*
X54119048Y-23883390D01*
X54119048Y-23883390D02*
X54119048Y-24264342D01*
X54119048Y-24264342D02*
X54166667Y-24359580D01*
X54166667Y-24359580D02*
X54214286Y-24407200D01*
X54214286Y-24407200D02*
X54309524Y-24454819D01*
X54309524Y-24454819D02*
X54500000Y-24454819D01*
X54500000Y-24454819D02*
X54595238Y-24407200D01*
X54595238Y-24407200D02*
X54642857Y-24359580D01*
X54642857Y-24359580D02*
X54690476Y-24264342D01*
X54690476Y-24264342D02*
X54690476Y-24026247D01*
X54690476Y-24026247D02*
X54642857Y-23931009D01*
X54642857Y-23931009D02*
X54595238Y-23883390D01*
X54595238Y-23883390D02*
X54500000Y-23835771D01*
X54500000Y-23835771D02*
X54309524Y-23835771D01*
X54309524Y-23835771D02*
X54214286Y-23883390D01*
X54214286Y-23883390D02*
X54166667Y-23931009D01*
X54166667Y-23931009D02*
X54119048Y-24026247D01*
X74942348Y-15163195D02*
X74942348Y-15972718D01*
X74942348Y-15972718D02*
X74989967Y-16067956D01*
X74989967Y-16067956D02*
X75037586Y-16115576D01*
X75037586Y-16115576D02*
X75132824Y-16163195D01*
X75132824Y-16163195D02*
X75323300Y-16163195D01*
X75323300Y-16163195D02*
X75418538Y-16115576D01*
X75418538Y-16115576D02*
X75466157Y-16067956D01*
X75466157Y-16067956D02*
X75513776Y-15972718D01*
X75513776Y-15972718D02*
X75513776Y-15163195D01*
X76418538Y-15496528D02*
X76418538Y-16163195D01*
X76180443Y-15115576D02*
X75942348Y-15829861D01*
X75942348Y-15829861D02*
X76561395Y-15829861D01*
X84454819Y-10976666D02*
X83978628Y-11309999D01*
X84454819Y-11548094D02*
X83454819Y-11548094D01*
X83454819Y-11548094D02*
X83454819Y-11167142D01*
X83454819Y-11167142D02*
X83502438Y-11071904D01*
X83502438Y-11071904D02*
X83550057Y-11024285D01*
X83550057Y-11024285D02*
X83645295Y-10976666D01*
X83645295Y-10976666D02*
X83788152Y-10976666D01*
X83788152Y-10976666D02*
X83883390Y-11024285D01*
X83883390Y-11024285D02*
X83931009Y-11071904D01*
X83931009Y-11071904D02*
X83978628Y-11167142D01*
X83978628Y-11167142D02*
X83978628Y-11548094D01*
X83883390Y-10405237D02*
X83835771Y-10500475D01*
X83835771Y-10500475D02*
X83788152Y-10548094D01*
X83788152Y-10548094D02*
X83692914Y-10595713D01*
X83692914Y-10595713D02*
X83645295Y-10595713D01*
X83645295Y-10595713D02*
X83550057Y-10548094D01*
X83550057Y-10548094D02*
X83502438Y-10500475D01*
X83502438Y-10500475D02*
X83454819Y-10405237D01*
X83454819Y-10405237D02*
X83454819Y-10214761D01*
X83454819Y-10214761D02*
X83502438Y-10119523D01*
X83502438Y-10119523D02*
X83550057Y-10071904D01*
X83550057Y-10071904D02*
X83645295Y-10024285D01*
X83645295Y-10024285D02*
X83692914Y-10024285D01*
X83692914Y-10024285D02*
X83788152Y-10071904D01*
X83788152Y-10071904D02*
X83835771Y-10119523D01*
X83835771Y-10119523D02*
X83883390Y-10214761D01*
X83883390Y-10214761D02*
X83883390Y-10405237D01*
X83883390Y-10405237D02*
X83931009Y-10500475D01*
X83931009Y-10500475D02*
X83978628Y-10548094D01*
X83978628Y-10548094D02*
X84073866Y-10595713D01*
X84073866Y-10595713D02*
X84264342Y-10595713D01*
X84264342Y-10595713D02*
X84359580Y-10548094D01*
X84359580Y-10548094D02*
X84407200Y-10500475D01*
X84407200Y-10500475D02*
X84454819Y-10405237D01*
X84454819Y-10405237D02*
X84454819Y-10214761D01*
X84454819Y-10214761D02*
X84407200Y-10119523D01*
X84407200Y-10119523D02*
X84359580Y-10071904D01*
X84359580Y-10071904D02*
X84264342Y-10024285D01*
X84264342Y-10024285D02*
X84073866Y-10024285D01*
X84073866Y-10024285D02*
X83978628Y-10071904D01*
X83978628Y-10071904D02*
X83931009Y-10119523D01*
X83931009Y-10119523D02*
X83883390Y-10214761D01*
X43169500Y-9378576D02*
X43169500Y-8378576D01*
X43169500Y-8854766D02*
X43740928Y-8854766D01*
X43740928Y-9378576D02*
X43740928Y-8378576D01*
X44740928Y-9378576D02*
X44169500Y-9378576D01*
X44455214Y-9378576D02*
X44455214Y-8378576D01*
X44455214Y-8378576D02*
X44359976Y-8521433D01*
X44359976Y-8521433D02*
X44264738Y-8616671D01*
X44264738Y-8616671D02*
X44169500Y-8664290D01*
D11*
%TO.C,TP6*%
X17750000Y-3000000D02*
G75*
G02*
X14250000Y-3000000I-1750000J0D01*
G01*
X14250000Y-3000000D02*
G75*
G02*
X17750000Y-3000000I1750000J0D01*
G01*
%TO.C,TP18*%
X51750000Y-3000000D02*
G75*
G02*
X48250000Y-3000000I-1750000J0D01*
G01*
X48250000Y-3000000D02*
G75*
G02*
X51750000Y-3000000I1750000J0D01*
G01*
%TO.C,D3*%
X49880000Y-8690000D02*
X49880000Y-12930000D01*
X49880000Y-12930000D02*
X52120000Y-12930000D01*
X51000000Y-8040000D02*
X51000000Y-8690000D01*
X51000000Y-13580000D02*
X51000000Y-12930000D01*
X52120000Y-8690000D02*
X49880000Y-8690000D01*
X52120000Y-9290000D02*
X49880000Y-9290000D01*
X52120000Y-9410000D02*
X49880000Y-9410000D01*
X52120000Y-9530000D02*
X49880000Y-9530000D01*
X52120000Y-12930000D02*
X52120000Y-8690000D01*
%TO.C,C7*%
X75009000Y-6402000D02*
X75009000Y-5598000D01*
X75049000Y-6633000D02*
X75049000Y-5367000D01*
X75089000Y-6802000D02*
X75089000Y-5198000D01*
X75129000Y-6940000D02*
X75129000Y-5060000D01*
X75169000Y-7059000D02*
X75169000Y-4941000D01*
X75209000Y-7165000D02*
X75209000Y-4835000D01*
X75249000Y-7262000D02*
X75249000Y-4738000D01*
X75289000Y-7350000D02*
X75289000Y-4650000D01*
X75329000Y-7432000D02*
X75329000Y-4568000D01*
X75369000Y-7509000D02*
X75369000Y-4491000D01*
X75409000Y-7581000D02*
X75409000Y-4419000D01*
X75449000Y-7650000D02*
X75449000Y-4350000D01*
X75489000Y-7714000D02*
X75489000Y-4286000D01*
X75529000Y-7776000D02*
X75529000Y-4224000D01*
X75569000Y-7834000D02*
X75569000Y-4166000D01*
X75609000Y-7890000D02*
X75609000Y-4110000D01*
X75649000Y-7944000D02*
X75649000Y-4056000D01*
X75689000Y-7995000D02*
X75689000Y-4005000D01*
X75729000Y-8044000D02*
X75729000Y-3956000D01*
X75769000Y-8092000D02*
X75769000Y-3908000D01*
X75809000Y-8137000D02*
X75809000Y-3863000D01*
X75849000Y-8182000D02*
X75849000Y-3818000D01*
X75889000Y-8224000D02*
X75889000Y-3776000D01*
X75929000Y-8265000D02*
X75929000Y-3735000D01*
X75969000Y-4960000D02*
X75969000Y-3695000D01*
X75969000Y-8305000D02*
X75969000Y-7040000D01*
X76009000Y-4960000D02*
X76009000Y-3657000D01*
X76009000Y-8343000D02*
X76009000Y-7040000D01*
X76049000Y-4960000D02*
X76049000Y-3620000D01*
X76049000Y-8380000D02*
X76049000Y-7040000D01*
X76089000Y-4960000D02*
X76089000Y-3584000D01*
X76089000Y-8416000D02*
X76089000Y-7040000D01*
X76129000Y-4960000D02*
X76129000Y-3550000D01*
X76129000Y-8450000D02*
X76129000Y-7040000D01*
X76169000Y-4960000D02*
X76169000Y-3516000D01*
X76169000Y-8484000D02*
X76169000Y-7040000D01*
X76209000Y-4960000D02*
X76209000Y-3484000D01*
X76209000Y-8516000D02*
X76209000Y-7040000D01*
X76249000Y-4960000D02*
X76249000Y-3452000D01*
X76249000Y-8548000D02*
X76249000Y-7040000D01*
X76289000Y-4960000D02*
X76289000Y-3422000D01*
X76289000Y-8578000D02*
X76289000Y-7040000D01*
X76329000Y-4960000D02*
X76329000Y-3393000D01*
X76329000Y-8607000D02*
X76329000Y-7040000D01*
X76369000Y-4960000D02*
X76369000Y-3364000D01*
X76369000Y-8636000D02*
X76369000Y-7040000D01*
X76409000Y-4960000D02*
X76409000Y-3336000D01*
X76409000Y-8664000D02*
X76409000Y-7040000D01*
X76449000Y-4960000D02*
X76449000Y-3310000D01*
X76449000Y-8690000D02*
X76449000Y-7040000D01*
X76489000Y-4960000D02*
X76489000Y-3284000D01*
X76489000Y-8716000D02*
X76489000Y-7040000D01*
X76529000Y-4960000D02*
X76529000Y-3258000D01*
X76529000Y-8742000D02*
X76529000Y-7040000D01*
X76569000Y-4960000D02*
X76569000Y-3234000D01*
X76569000Y-8766000D02*
X76569000Y-7040000D01*
X76609000Y-4960000D02*
X76609000Y-3210000D01*
X76609000Y-8790000D02*
X76609000Y-7040000D01*
X76649000Y-4960000D02*
X76649000Y-3188000D01*
X76649000Y-8812000D02*
X76649000Y-7040000D01*
X76689000Y-4960000D02*
X76689000Y-3166000D01*
X76689000Y-8834000D02*
X76689000Y-7040000D01*
X76729000Y-4960000D02*
X76729000Y-3144000D01*
X76729000Y-8856000D02*
X76729000Y-7040000D01*
X76769000Y-4960000D02*
X76769000Y-3124000D01*
X76769000Y-8876000D02*
X76769000Y-7040000D01*
X76809000Y-4960000D02*
X76809000Y-3104000D01*
X76809000Y-8896000D02*
X76809000Y-7040000D01*
X76849000Y-4960000D02*
X76849000Y-3084000D01*
X76849000Y-8916000D02*
X76849000Y-7040000D01*
X76889000Y-4960000D02*
X76889000Y-3066000D01*
X76889000Y-8934000D02*
X76889000Y-7040000D01*
X76929000Y-4960000D02*
X76929000Y-3048000D01*
X76929000Y-8952000D02*
X76929000Y-7040000D01*
X76969000Y-4960000D02*
X76969000Y-3030000D01*
X76969000Y-8970000D02*
X76969000Y-7040000D01*
X77009000Y-4960000D02*
X77009000Y-3014000D01*
X77009000Y-8986000D02*
X77009000Y-7040000D01*
X77049000Y-4960000D02*
X77049000Y-2998000D01*
X77049000Y-9002000D02*
X77049000Y-7040000D01*
X77089000Y-4960000D02*
X77089000Y-2982000D01*
X77089000Y-9018000D02*
X77089000Y-7040000D01*
X77129000Y-4960000D02*
X77129000Y-2967000D01*
X77129000Y-9033000D02*
X77129000Y-7040000D01*
X77169000Y-4960000D02*
X77169000Y-2953000D01*
X77169000Y-9047000D02*
X77169000Y-7040000D01*
X77209000Y-4960000D02*
X77209000Y-2939000D01*
X77209000Y-9061000D02*
X77209000Y-7040000D01*
X77249000Y-4960000D02*
X77249000Y-2926000D01*
X77249000Y-9074000D02*
X77249000Y-7040000D01*
X77289000Y-4960000D02*
X77289000Y-2914000D01*
X77289000Y-9086000D02*
X77289000Y-7040000D01*
X77329000Y-4960000D02*
X77329000Y-2902000D01*
X77329000Y-9098000D02*
X77329000Y-7040000D01*
X77369000Y-4960000D02*
X77369000Y-2890000D01*
X77369000Y-9110000D02*
X77369000Y-7040000D01*
X77409000Y-4960000D02*
X77409000Y-2879000D01*
X77409000Y-9121000D02*
X77409000Y-7040000D01*
X77449000Y-4960000D02*
X77449000Y-2869000D01*
X77449000Y-9131000D02*
X77449000Y-7040000D01*
X77489000Y-4960000D02*
X77489000Y-2859000D01*
X77489000Y-9141000D02*
X77489000Y-7040000D01*
X77529000Y-4960000D02*
X77529000Y-2850000D01*
X77529000Y-9150000D02*
X77529000Y-7040000D01*
X77570000Y-4960000D02*
X77570000Y-2841000D01*
X77570000Y-9159000D02*
X77570000Y-7040000D01*
X77610000Y-4960000D02*
X77610000Y-2833000D01*
X77610000Y-9167000D02*
X77610000Y-7040000D01*
X77650000Y-4960000D02*
X77650000Y-2825000D01*
X77650000Y-9175000D02*
X77650000Y-7040000D01*
X77690000Y-4960000D02*
X77690000Y-2818000D01*
X77690000Y-9182000D02*
X77690000Y-7040000D01*
X77730000Y-4960000D02*
X77730000Y-2811000D01*
X77730000Y-9189000D02*
X77730000Y-7040000D01*
X77770000Y-4960000D02*
X77770000Y-2805000D01*
X77770000Y-9195000D02*
X77770000Y-7040000D01*
X77810000Y-4960000D02*
X77810000Y-2799000D01*
X77810000Y-9201000D02*
X77810000Y-7040000D01*
X77850000Y-4960000D02*
X77850000Y-2794000D01*
X77850000Y-9206000D02*
X77850000Y-7040000D01*
X77890000Y-4960000D02*
X77890000Y-2789000D01*
X77890000Y-9211000D02*
X77890000Y-7040000D01*
X77930000Y-4960000D02*
X77930000Y-2785000D01*
X77930000Y-9215000D02*
X77930000Y-7040000D01*
X77970000Y-4960000D02*
X77970000Y-2782000D01*
X77970000Y-9218000D02*
X77970000Y-7040000D01*
X78010000Y-4960000D02*
X78010000Y-2778000D01*
X78010000Y-9222000D02*
X78010000Y-7040000D01*
X78050000Y-9224000D02*
X78050000Y-2776000D01*
X78090000Y-9227000D02*
X78090000Y-2773000D01*
X78130000Y-9228000D02*
X78130000Y-2772000D01*
X78170000Y-9230000D02*
X78170000Y-2770000D01*
X78210000Y-9230000D02*
X78210000Y-2770000D01*
X78250000Y-9230000D02*
X78250000Y-2770000D01*
X81435241Y-8154000D02*
X81435241Y-7524000D01*
X81750241Y-7839000D02*
X81120241Y-7839000D01*
X81520000Y-6000000D02*
G75*
G02*
X74980000Y-6000000I-3270000J0D01*
G01*
X74980000Y-6000000D02*
G75*
G02*
X81520000Y-6000000I3270000J0D01*
G01*
%TO.C,C8*%
X86980000Y-18380000D02*
X86980000Y-24620000D01*
X87425000Y-18380000D02*
X86980000Y-18380000D01*
X87425000Y-24620000D02*
X86980000Y-24620000D01*
X89720000Y-18380000D02*
X89275000Y-18380000D01*
X89720000Y-18380000D02*
X89720000Y-24620000D01*
X89720000Y-24620000D02*
X89275000Y-24620000D01*
%TO.C,L5*%
X48890000Y-19000000D02*
X49130000Y-19000000D01*
X49130000Y-16880000D02*
X49130000Y-21120000D01*
X49130000Y-21120000D02*
X58870000Y-21120000D01*
X58870000Y-16880000D02*
X49130000Y-16880000D01*
X58870000Y-21120000D02*
X58870000Y-16880000D01*
X59110000Y-19000000D02*
X58870000Y-19000000D01*
%TO.C,D2*%
X25880000Y-8690000D02*
X25880000Y-12930000D01*
X25880000Y-12930000D02*
X28120000Y-12930000D01*
X27000000Y-8040000D02*
X27000000Y-8690000D01*
X27000000Y-13580000D02*
X27000000Y-12930000D01*
X28120000Y-8690000D02*
X25880000Y-8690000D01*
X28120000Y-9290000D02*
X25880000Y-9290000D01*
X28120000Y-9410000D02*
X25880000Y-9410000D01*
X28120000Y-9530000D02*
X25880000Y-9530000D01*
X28120000Y-12930000D02*
X28120000Y-8690000D01*
%TO.C,D4*%
X71880000Y-8690000D02*
X71880000Y-12930000D01*
X71880000Y-12930000D02*
X74120000Y-12930000D01*
X73000000Y-8040000D02*
X73000000Y-8690000D01*
X73000000Y-13580000D02*
X73000000Y-12930000D01*
X74120000Y-8690000D02*
X71880000Y-8690000D01*
X74120000Y-9290000D02*
X71880000Y-9290000D01*
X74120000Y-9410000D02*
X71880000Y-9410000D01*
X74120000Y-9530000D02*
X71880000Y-9530000D01*
X74120000Y-12930000D02*
X74120000Y-8690000D01*
%TO.C,TP12*%
X24950000Y-7000000D02*
G75*
G02*
X23050000Y-7000000I-950000J0D01*
G01*
X23050000Y-7000000D02*
G75*
G02*
X24950000Y-7000000I950000J0D01*
G01*
%TO.C,R7*%
X86630000Y-7540000D02*
X86630000Y-14080000D01*
X86630000Y-14080000D02*
X86960000Y-14080000D01*
X86960000Y-7540000D02*
X86630000Y-7540000D01*
X89040000Y-7540000D02*
X89370000Y-7540000D01*
X89370000Y-7540000D02*
X89370000Y-14080000D01*
X89370000Y-14080000D02*
X89040000Y-14080000D01*
%TO.C,R4*%
X36630000Y-7540000D02*
X36630000Y-14080000D01*
X36630000Y-14080000D02*
X36960000Y-14080000D01*
X36960000Y-7540000D02*
X36630000Y-7540000D01*
X39040000Y-7540000D02*
X39370000Y-7540000D01*
X39370000Y-7540000D02*
X39370000Y-14080000D01*
X39370000Y-14080000D02*
X39040000Y-14080000D01*
%TO.C,R6*%
X60630000Y-7540000D02*
X60630000Y-14080000D01*
X60630000Y-14080000D02*
X60960000Y-14080000D01*
X60960000Y-7540000D02*
X60630000Y-7540000D01*
X63040000Y-7540000D02*
X63370000Y-7540000D01*
X63370000Y-7540000D02*
X63370000Y-14080000D01*
X63370000Y-14080000D02*
X63040000Y-14080000D01*
%TO.C,L3*%
X24890000Y-19000000D02*
X25130000Y-19000000D01*
X25130000Y-16880000D02*
X25130000Y-21120000D01*
X25130000Y-21120000D02*
X34870000Y-21120000D01*
X34870000Y-16880000D02*
X25130000Y-16880000D01*
X34870000Y-21120000D02*
X34870000Y-16880000D01*
X35110000Y-19000000D02*
X34870000Y-19000000D01*
%TO.C,R5*%
X64630000Y-7540000D02*
X64630000Y-14080000D01*
X64630000Y-14080000D02*
X64960000Y-14080000D01*
X64960000Y-7540000D02*
X64630000Y-7540000D01*
X67040000Y-7540000D02*
X67370000Y-7540000D01*
X67370000Y-7540000D02*
X67370000Y-14080000D01*
X67370000Y-14080000D02*
X67040000Y-14080000D01*
%TO.C,TP13*%
X40300000Y-19000000D02*
G75*
G02*
X38400000Y-19000000I-950000J0D01*
G01*
X38400000Y-19000000D02*
G75*
G02*
X40300000Y-19000000I950000J0D01*
G01*
%TO.C,TP21*%
X64300000Y-24000000D02*
G75*
G02*
X62400000Y-24000000I-950000J0D01*
G01*
X62400000Y-24000000D02*
G75*
G02*
X64300000Y-24000000I950000J0D01*
G01*
%TO.C,TP19*%
X48950000Y-7000000D02*
G75*
G02*
X47050000Y-7000000I-950000J0D01*
G01*
X47050000Y-7000000D02*
G75*
G02*
X48950000Y-7000000I950000J0D01*
G01*
%TO.C,U2*%
X30750000Y-10640000D02*
X33250000Y-10640000D01*
X33250000Y-15360000D02*
X30750000Y-15360000D01*
X30230000Y-10790000D02*
X29990000Y-10460000D01*
X30470000Y-10460000D01*
X30230000Y-10790000D01*
G36*
X30230000Y-10790000D02*
G01*
X29990000Y-10460000D01*
X30470000Y-10460000D01*
X30230000Y-10790000D01*
G37*
%TO.C,R1*%
X18630000Y-7540000D02*
X18630000Y-14080000D01*
X18630000Y-14080000D02*
X18960000Y-14080000D01*
X18960000Y-7540000D02*
X18630000Y-7540000D01*
X21040000Y-7540000D02*
X21370000Y-7540000D01*
X21370000Y-7540000D02*
X21370000Y-14080000D01*
X21370000Y-14080000D02*
X21040000Y-14080000D01*
%TO.C,U1*%
X8750000Y-10640000D02*
X11250000Y-10640000D01*
X11250000Y-15360000D02*
X8750000Y-15360000D01*
X8230000Y-10790000D02*
X7990000Y-10460000D01*
X8470000Y-10460000D01*
X8230000Y-10790000D01*
G36*
X8230000Y-10790000D02*
G01*
X7990000Y-10460000D01*
X8470000Y-10460000D01*
X8230000Y-10790000D01*
G37*
%TO.C,TP11*%
X27750000Y-3000000D02*
G75*
G02*
X24250000Y-3000000I-1750000J0D01*
G01*
X24250000Y-3000000D02*
G75*
G02*
X27750000Y-3000000I1750000J0D01*
G01*
%TO.C,TP1*%
X18300000Y-19000000D02*
G75*
G02*
X16400000Y-19000000I-950000J0D01*
G01*
X16400000Y-19000000D02*
G75*
G02*
X18300000Y-19000000I950000J0D01*
G01*
%TO.C,C1*%
X7009000Y-6402000D02*
X7009000Y-5598000D01*
X7049000Y-6633000D02*
X7049000Y-5367000D01*
X7089000Y-6802000D02*
X7089000Y-5198000D01*
X7129000Y-6940000D02*
X7129000Y-5060000D01*
X7169000Y-7059000D02*
X7169000Y-4941000D01*
X7209000Y-7165000D02*
X7209000Y-4835000D01*
X7249000Y-7262000D02*
X7249000Y-4738000D01*
X7289000Y-7350000D02*
X7289000Y-4650000D01*
X7329000Y-7432000D02*
X7329000Y-4568000D01*
X7369000Y-7509000D02*
X7369000Y-4491000D01*
X7409000Y-7581000D02*
X7409000Y-4419000D01*
X7449000Y-7650000D02*
X7449000Y-4350000D01*
X7489000Y-7714000D02*
X7489000Y-4286000D01*
X7529000Y-7776000D02*
X7529000Y-4224000D01*
X7569000Y-7834000D02*
X7569000Y-4166000D01*
X7609000Y-7890000D02*
X7609000Y-4110000D01*
X7649000Y-7944000D02*
X7649000Y-4056000D01*
X7689000Y-7995000D02*
X7689000Y-4005000D01*
X7729000Y-8044000D02*
X7729000Y-3956000D01*
X7769000Y-8092000D02*
X7769000Y-3908000D01*
X7809000Y-8137000D02*
X7809000Y-3863000D01*
X7849000Y-8182000D02*
X7849000Y-3818000D01*
X7889000Y-8224000D02*
X7889000Y-3776000D01*
X7929000Y-8265000D02*
X7929000Y-3735000D01*
X7969000Y-4960000D02*
X7969000Y-3695000D01*
X7969000Y-8305000D02*
X7969000Y-7040000D01*
X8009000Y-4960000D02*
X8009000Y-3657000D01*
X8009000Y-8343000D02*
X8009000Y-7040000D01*
X8049000Y-4960000D02*
X8049000Y-3620000D01*
X8049000Y-8380000D02*
X8049000Y-7040000D01*
X8089000Y-4960000D02*
X8089000Y-3584000D01*
X8089000Y-8416000D02*
X8089000Y-7040000D01*
X8129000Y-4960000D02*
X8129000Y-3550000D01*
X8129000Y-8450000D02*
X8129000Y-7040000D01*
X8169000Y-4960000D02*
X8169000Y-3516000D01*
X8169000Y-8484000D02*
X8169000Y-7040000D01*
X8209000Y-4960000D02*
X8209000Y-3484000D01*
X8209000Y-8516000D02*
X8209000Y-7040000D01*
X8249000Y-4960000D02*
X8249000Y-3452000D01*
X8249000Y-8548000D02*
X8249000Y-7040000D01*
X8289000Y-4960000D02*
X8289000Y-3422000D01*
X8289000Y-8578000D02*
X8289000Y-7040000D01*
X8329000Y-4960000D02*
X8329000Y-3393000D01*
X8329000Y-8607000D02*
X8329000Y-7040000D01*
X8369000Y-4960000D02*
X8369000Y-3364000D01*
X8369000Y-8636000D02*
X8369000Y-7040000D01*
X8409000Y-4960000D02*
X8409000Y-3336000D01*
X8409000Y-8664000D02*
X8409000Y-7040000D01*
X8449000Y-4960000D02*
X8449000Y-3310000D01*
X8449000Y-8690000D02*
X8449000Y-7040000D01*
X8489000Y-4960000D02*
X8489000Y-3284000D01*
X8489000Y-8716000D02*
X8489000Y-7040000D01*
X8529000Y-4960000D02*
X8529000Y-3258000D01*
X8529000Y-8742000D02*
X8529000Y-7040000D01*
X8569000Y-4960000D02*
X8569000Y-3234000D01*
X8569000Y-8766000D02*
X8569000Y-7040000D01*
X8609000Y-4960000D02*
X8609000Y-3210000D01*
X8609000Y-8790000D02*
X8609000Y-7040000D01*
X8649000Y-4960000D02*
X8649000Y-3188000D01*
X8649000Y-8812000D02*
X8649000Y-7040000D01*
X8689000Y-4960000D02*
X8689000Y-3166000D01*
X8689000Y-8834000D02*
X8689000Y-7040000D01*
X8729000Y-4960000D02*
X8729000Y-3144000D01*
X8729000Y-8856000D02*
X8729000Y-7040000D01*
X8769000Y-4960000D02*
X8769000Y-3124000D01*
X8769000Y-8876000D02*
X8769000Y-7040000D01*
X8809000Y-4960000D02*
X8809000Y-3104000D01*
X8809000Y-8896000D02*
X8809000Y-7040000D01*
X8849000Y-4960000D02*
X8849000Y-3084000D01*
X8849000Y-8916000D02*
X8849000Y-7040000D01*
X8889000Y-4960000D02*
X8889000Y-3066000D01*
X8889000Y-8934000D02*
X8889000Y-7040000D01*
X8929000Y-4960000D02*
X8929000Y-3048000D01*
X8929000Y-8952000D02*
X8929000Y-7040000D01*
X8969000Y-4960000D02*
X8969000Y-3030000D01*
X8969000Y-8970000D02*
X8969000Y-7040000D01*
X9009000Y-4960000D02*
X9009000Y-3014000D01*
X9009000Y-8986000D02*
X9009000Y-7040000D01*
X9049000Y-4960000D02*
X9049000Y-2998000D01*
X9049000Y-9002000D02*
X9049000Y-7040000D01*
X9089000Y-4960000D02*
X9089000Y-2982000D01*
X9089000Y-9018000D02*
X9089000Y-7040000D01*
X9129000Y-4960000D02*
X9129000Y-2967000D01*
X9129000Y-9033000D02*
X9129000Y-7040000D01*
X9169000Y-4960000D02*
X9169000Y-2953000D01*
X9169000Y-9047000D02*
X9169000Y-7040000D01*
X9209000Y-4960000D02*
X9209000Y-2939000D01*
X9209000Y-9061000D02*
X9209000Y-7040000D01*
X9249000Y-4960000D02*
X9249000Y-2926000D01*
X9249000Y-9074000D02*
X9249000Y-7040000D01*
X9289000Y-4960000D02*
X9289000Y-2914000D01*
X9289000Y-9086000D02*
X9289000Y-7040000D01*
X9329000Y-4960000D02*
X9329000Y-2902000D01*
X9329000Y-9098000D02*
X9329000Y-7040000D01*
X9369000Y-4960000D02*
X9369000Y-2890000D01*
X9369000Y-9110000D02*
X9369000Y-7040000D01*
X9409000Y-4960000D02*
X9409000Y-2879000D01*
X9409000Y-9121000D02*
X9409000Y-7040000D01*
X9449000Y-4960000D02*
X9449000Y-2869000D01*
X9449000Y-9131000D02*
X9449000Y-7040000D01*
X9489000Y-4960000D02*
X9489000Y-2859000D01*
X9489000Y-9141000D02*
X9489000Y-7040000D01*
X9529000Y-4960000D02*
X9529000Y-2850000D01*
X9529000Y-9150000D02*
X9529000Y-7040000D01*
X9570000Y-4960000D02*
X9570000Y-2841000D01*
X9570000Y-9159000D02*
X9570000Y-7040000D01*
X9610000Y-4960000D02*
X9610000Y-2833000D01*
X9610000Y-9167000D02*
X9610000Y-7040000D01*
X9650000Y-4960000D02*
X9650000Y-2825000D01*
X9650000Y-9175000D02*
X9650000Y-7040000D01*
X9690000Y-4960000D02*
X9690000Y-2818000D01*
X9690000Y-9182000D02*
X9690000Y-7040000D01*
X9730000Y-4960000D02*
X9730000Y-2811000D01*
X9730000Y-9189000D02*
X9730000Y-7040000D01*
X9770000Y-4960000D02*
X9770000Y-2805000D01*
X9770000Y-9195000D02*
X9770000Y-7040000D01*
X9810000Y-4960000D02*
X9810000Y-2799000D01*
X9810000Y-9201000D02*
X9810000Y-7040000D01*
X9850000Y-4960000D02*
X9850000Y-2794000D01*
X9850000Y-9206000D02*
X9850000Y-7040000D01*
X9890000Y-4960000D02*
X9890000Y-2789000D01*
X9890000Y-9211000D02*
X9890000Y-7040000D01*
X9930000Y-4960000D02*
X9930000Y-2785000D01*
X9930000Y-9215000D02*
X9930000Y-7040000D01*
X9970000Y-4960000D02*
X9970000Y-2782000D01*
X9970000Y-9218000D02*
X9970000Y-7040000D01*
X10010000Y-4960000D02*
X10010000Y-2778000D01*
X10010000Y-9222000D02*
X10010000Y-7040000D01*
X10050000Y-9224000D02*
X10050000Y-2776000D01*
X10090000Y-9227000D02*
X10090000Y-2773000D01*
X10130000Y-9228000D02*
X10130000Y-2772000D01*
X10170000Y-9230000D02*
X10170000Y-2770000D01*
X10210000Y-9230000D02*
X10210000Y-2770000D01*
X10250000Y-9230000D02*
X10250000Y-2770000D01*
X13435241Y-8154000D02*
X13435241Y-7524000D01*
X13750241Y-7839000D02*
X13120241Y-7839000D01*
X13520000Y-6000000D02*
G75*
G02*
X6980000Y-6000000I-3270000J0D01*
G01*
X6980000Y-6000000D02*
G75*
G02*
X13520000Y-6000000I3270000J0D01*
G01*
%TO.C,R2*%
X14630000Y-7540000D02*
X14630000Y-14080000D01*
X14630000Y-14080000D02*
X14960000Y-14080000D01*
X14960000Y-7540000D02*
X14630000Y-7540000D01*
X17040000Y-7540000D02*
X17370000Y-7540000D01*
X17370000Y-7540000D02*
X17370000Y-14080000D01*
X17370000Y-14080000D02*
X17040000Y-14080000D01*
%TO.C,TP7*%
X5750000Y-3000000D02*
G75*
G02*
X2250000Y-3000000I-1750000J0D01*
G01*
X2250000Y-3000000D02*
G75*
G02*
X5750000Y-3000000I1750000J0D01*
G01*
%TO.C,TP10*%
X24950000Y-14000000D02*
G75*
G02*
X23050000Y-14000000I-950000J0D01*
G01*
X23050000Y-14000000D02*
G75*
G02*
X24950000Y-14000000I950000J0D01*
G01*
%TO.C,TP16*%
X66950000Y-4000000D02*
G75*
G02*
X65050000Y-4000000I-950000J0D01*
G01*
X65050000Y-4000000D02*
G75*
G02*
X66950000Y-4000000I950000J0D01*
G01*
%TO.C,L2*%
X2890000Y-24000000D02*
X3130000Y-24000000D01*
X3130000Y-21880000D02*
X3130000Y-26120000D01*
X3130000Y-26120000D02*
X12870000Y-26120000D01*
X12870000Y-21880000D02*
X3130000Y-21880000D01*
X12870000Y-26120000D02*
X12870000Y-21880000D01*
X13110000Y-24000000D02*
X12870000Y-24000000D01*
%TO.C,L8*%
X70890000Y-24000000D02*
X71130000Y-24000000D01*
X71130000Y-21880000D02*
X71130000Y-26120000D01*
X71130000Y-26120000D02*
X80870000Y-26120000D01*
X80870000Y-21880000D02*
X71130000Y-21880000D01*
X80870000Y-26120000D02*
X80870000Y-21880000D01*
X81110000Y-24000000D02*
X80870000Y-24000000D01*
%TO.C,TP26*%
X70950000Y-7000000D02*
G75*
G02*
X69050000Y-7000000I-950000J0D01*
G01*
X69050000Y-7000000D02*
G75*
G02*
X70950000Y-7000000I950000J0D01*
G01*
%TO.C,L7*%
X70890000Y-19000000D02*
X71130000Y-19000000D01*
X71130000Y-16880000D02*
X71130000Y-21120000D01*
X71130000Y-21120000D02*
X80870000Y-21120000D01*
X80870000Y-16880000D02*
X71130000Y-16880000D01*
X80870000Y-21120000D02*
X80870000Y-16880000D01*
X81110000Y-19000000D02*
X80870000Y-19000000D01*
%TO.C,TP17*%
X48950000Y-14000000D02*
G75*
G02*
X47050000Y-14000000I-950000J0D01*
G01*
X47050000Y-14000000D02*
G75*
G02*
X48950000Y-14000000I950000J0D01*
G01*
%TO.C,C3*%
X29009000Y-6402000D02*
X29009000Y-5598000D01*
X29049000Y-6633000D02*
X29049000Y-5367000D01*
X29089000Y-6802000D02*
X29089000Y-5198000D01*
X29129000Y-6940000D02*
X29129000Y-5060000D01*
X29169000Y-7059000D02*
X29169000Y-4941000D01*
X29209000Y-7165000D02*
X29209000Y-4835000D01*
X29249000Y-7262000D02*
X29249000Y-4738000D01*
X29289000Y-7350000D02*
X29289000Y-4650000D01*
X29329000Y-7432000D02*
X29329000Y-4568000D01*
X29369000Y-7509000D02*
X29369000Y-4491000D01*
X29409000Y-7581000D02*
X29409000Y-4419000D01*
X29449000Y-7650000D02*
X29449000Y-4350000D01*
X29489000Y-7714000D02*
X29489000Y-4286000D01*
X29529000Y-7776000D02*
X29529000Y-4224000D01*
X29569000Y-7834000D02*
X29569000Y-4166000D01*
X29609000Y-7890000D02*
X29609000Y-4110000D01*
X29649000Y-7944000D02*
X29649000Y-4056000D01*
X29689000Y-7995000D02*
X29689000Y-4005000D01*
X29729000Y-8044000D02*
X29729000Y-3956000D01*
X29769000Y-8092000D02*
X29769000Y-3908000D01*
X29809000Y-8137000D02*
X29809000Y-3863000D01*
X29849000Y-8182000D02*
X29849000Y-3818000D01*
X29889000Y-8224000D02*
X29889000Y-3776000D01*
X29929000Y-8265000D02*
X29929000Y-3735000D01*
X29969000Y-4960000D02*
X29969000Y-3695000D01*
X29969000Y-8305000D02*
X29969000Y-7040000D01*
X30009000Y-4960000D02*
X30009000Y-3657000D01*
X30009000Y-8343000D02*
X30009000Y-7040000D01*
X30049000Y-4960000D02*
X30049000Y-3620000D01*
X30049000Y-8380000D02*
X30049000Y-7040000D01*
X30089000Y-4960000D02*
X30089000Y-3584000D01*
X30089000Y-8416000D02*
X30089000Y-7040000D01*
X30129000Y-4960000D02*
X30129000Y-3550000D01*
X30129000Y-8450000D02*
X30129000Y-7040000D01*
X30169000Y-4960000D02*
X30169000Y-3516000D01*
X30169000Y-8484000D02*
X30169000Y-7040000D01*
X30209000Y-4960000D02*
X30209000Y-3484000D01*
X30209000Y-8516000D02*
X30209000Y-7040000D01*
X30249000Y-4960000D02*
X30249000Y-3452000D01*
X30249000Y-8548000D02*
X30249000Y-7040000D01*
X30289000Y-4960000D02*
X30289000Y-3422000D01*
X30289000Y-8578000D02*
X30289000Y-7040000D01*
X30329000Y-4960000D02*
X30329000Y-3393000D01*
X30329000Y-8607000D02*
X30329000Y-7040000D01*
X30369000Y-4960000D02*
X30369000Y-3364000D01*
X30369000Y-8636000D02*
X30369000Y-7040000D01*
X30409000Y-4960000D02*
X30409000Y-3336000D01*
X30409000Y-8664000D02*
X30409000Y-7040000D01*
X30449000Y-4960000D02*
X30449000Y-3310000D01*
X30449000Y-8690000D02*
X30449000Y-7040000D01*
X30489000Y-4960000D02*
X30489000Y-3284000D01*
X30489000Y-8716000D02*
X30489000Y-7040000D01*
X30529000Y-4960000D02*
X30529000Y-3258000D01*
X30529000Y-8742000D02*
X30529000Y-7040000D01*
X30569000Y-4960000D02*
X30569000Y-3234000D01*
X30569000Y-8766000D02*
X30569000Y-7040000D01*
X30609000Y-4960000D02*
X30609000Y-3210000D01*
X30609000Y-8790000D02*
X30609000Y-7040000D01*
X30649000Y-4960000D02*
X30649000Y-3188000D01*
X30649000Y-8812000D02*
X30649000Y-7040000D01*
X30689000Y-4960000D02*
X30689000Y-3166000D01*
X30689000Y-8834000D02*
X30689000Y-7040000D01*
X30729000Y-4960000D02*
X30729000Y-3144000D01*
X30729000Y-8856000D02*
X30729000Y-7040000D01*
X30769000Y-4960000D02*
X30769000Y-3124000D01*
X30769000Y-8876000D02*
X30769000Y-7040000D01*
X30809000Y-4960000D02*
X30809000Y-3104000D01*
X30809000Y-8896000D02*
X30809000Y-7040000D01*
X30849000Y-4960000D02*
X30849000Y-3084000D01*
X30849000Y-8916000D02*
X30849000Y-7040000D01*
X30889000Y-4960000D02*
X30889000Y-3066000D01*
X30889000Y-8934000D02*
X30889000Y-7040000D01*
X30929000Y-4960000D02*
X30929000Y-3048000D01*
X30929000Y-8952000D02*
X30929000Y-7040000D01*
X30969000Y-4960000D02*
X30969000Y-3030000D01*
X30969000Y-8970000D02*
X30969000Y-7040000D01*
X31009000Y-4960000D02*
X31009000Y-3014000D01*
X31009000Y-8986000D02*
X31009000Y-7040000D01*
X31049000Y-4960000D02*
X31049000Y-2998000D01*
X31049000Y-9002000D02*
X31049000Y-7040000D01*
X31089000Y-4960000D02*
X31089000Y-2982000D01*
X31089000Y-9018000D02*
X31089000Y-7040000D01*
X31129000Y-4960000D02*
X31129000Y-2967000D01*
X31129000Y-9033000D02*
X31129000Y-7040000D01*
X31169000Y-4960000D02*
X31169000Y-2953000D01*
X31169000Y-9047000D02*
X31169000Y-7040000D01*
X31209000Y-4960000D02*
X31209000Y-2939000D01*
X31209000Y-9061000D02*
X31209000Y-7040000D01*
X31249000Y-4960000D02*
X31249000Y-2926000D01*
X31249000Y-9074000D02*
X31249000Y-7040000D01*
X31289000Y-4960000D02*
X31289000Y-2914000D01*
X31289000Y-9086000D02*
X31289000Y-7040000D01*
X31329000Y-4960000D02*
X31329000Y-2902000D01*
X31329000Y-9098000D02*
X31329000Y-7040000D01*
X31369000Y-4960000D02*
X31369000Y-2890000D01*
X31369000Y-9110000D02*
X31369000Y-7040000D01*
X31409000Y-4960000D02*
X31409000Y-2879000D01*
X31409000Y-9121000D02*
X31409000Y-7040000D01*
X31449000Y-4960000D02*
X31449000Y-2869000D01*
X31449000Y-9131000D02*
X31449000Y-7040000D01*
X31489000Y-4960000D02*
X31489000Y-2859000D01*
X31489000Y-9141000D02*
X31489000Y-7040000D01*
X31529000Y-4960000D02*
X31529000Y-2850000D01*
X31529000Y-9150000D02*
X31529000Y-7040000D01*
X31570000Y-4960000D02*
X31570000Y-2841000D01*
X31570000Y-9159000D02*
X31570000Y-7040000D01*
X31610000Y-4960000D02*
X31610000Y-2833000D01*
X31610000Y-9167000D02*
X31610000Y-7040000D01*
X31650000Y-4960000D02*
X31650000Y-2825000D01*
X31650000Y-9175000D02*
X31650000Y-7040000D01*
X31690000Y-4960000D02*
X31690000Y-2818000D01*
X31690000Y-9182000D02*
X31690000Y-7040000D01*
X31730000Y-4960000D02*
X31730000Y-2811000D01*
X31730000Y-9189000D02*
X31730000Y-7040000D01*
X31770000Y-4960000D02*
X31770000Y-2805000D01*
X31770000Y-9195000D02*
X31770000Y-7040000D01*
X31810000Y-4960000D02*
X31810000Y-2799000D01*
X31810000Y-9201000D02*
X31810000Y-7040000D01*
X31850000Y-4960000D02*
X31850000Y-2794000D01*
X31850000Y-9206000D02*
X31850000Y-7040000D01*
X31890000Y-4960000D02*
X31890000Y-2789000D01*
X31890000Y-9211000D02*
X31890000Y-7040000D01*
X31930000Y-4960000D02*
X31930000Y-2785000D01*
X31930000Y-9215000D02*
X31930000Y-7040000D01*
X31970000Y-4960000D02*
X31970000Y-2782000D01*
X31970000Y-9218000D02*
X31970000Y-7040000D01*
X32010000Y-4960000D02*
X32010000Y-2778000D01*
X32010000Y-9222000D02*
X32010000Y-7040000D01*
X32050000Y-9224000D02*
X32050000Y-2776000D01*
X32090000Y-9227000D02*
X32090000Y-2773000D01*
X32130000Y-9228000D02*
X32130000Y-2772000D01*
X32170000Y-9230000D02*
X32170000Y-2770000D01*
X32210000Y-9230000D02*
X32210000Y-2770000D01*
X32250000Y-9230000D02*
X32250000Y-2770000D01*
X35435241Y-8154000D02*
X35435241Y-7524000D01*
X35750241Y-7839000D02*
X35120241Y-7839000D01*
X35520000Y-6000000D02*
G75*
G02*
X28980000Y-6000000I-3270000J0D01*
G01*
X28980000Y-6000000D02*
G75*
G02*
X35520000Y-6000000I3270000J0D01*
G01*
%TO.C,TP2*%
X20950000Y-4000000D02*
G75*
G02*
X19050000Y-4000000I-950000J0D01*
G01*
X19050000Y-4000000D02*
G75*
G02*
X20950000Y-4000000I950000J0D01*
G01*
%TO.C,D1*%
X3880000Y-8690000D02*
X3880000Y-12930000D01*
X3880000Y-12930000D02*
X6120000Y-12930000D01*
X5000000Y-8040000D02*
X5000000Y-8690000D01*
X5000000Y-13580000D02*
X5000000Y-12930000D01*
X6120000Y-8690000D02*
X3880000Y-8690000D01*
X6120000Y-9290000D02*
X3880000Y-9290000D01*
X6120000Y-9410000D02*
X3880000Y-9410000D01*
X6120000Y-9530000D02*
X3880000Y-9530000D01*
X6120000Y-12930000D02*
X6120000Y-8690000D01*
%TO.C,TP3*%
X2950000Y-7000000D02*
G75*
G02*
X1050000Y-7000000I-950000J0D01*
G01*
X1050000Y-7000000D02*
G75*
G02*
X2950000Y-7000000I950000J0D01*
G01*
%TO.C,L1*%
X2890000Y-19000000D02*
X3130000Y-19000000D01*
X3130000Y-16880000D02*
X3130000Y-21120000D01*
X3130000Y-21120000D02*
X12870000Y-21120000D01*
X12870000Y-16880000D02*
X3130000Y-16880000D01*
X12870000Y-21120000D02*
X12870000Y-16880000D01*
X13110000Y-19000000D02*
X12870000Y-19000000D01*
%TO.C,TP14*%
X40300000Y-24000000D02*
G75*
G02*
X38400000Y-24000000I-950000J0D01*
G01*
X38400000Y-24000000D02*
G75*
G02*
X40300000Y-24000000I950000J0D01*
G01*
%TO.C,TP8*%
X39750000Y-3000000D02*
G75*
G02*
X36250000Y-3000000I-1750000J0D01*
G01*
X36250000Y-3000000D02*
G75*
G02*
X39750000Y-3000000I1750000J0D01*
G01*
%TO.C,TP20*%
X64300000Y-19000000D02*
G75*
G02*
X62400000Y-19000000I-950000J0D01*
G01*
X62400000Y-19000000D02*
G75*
G02*
X64300000Y-19000000I950000J0D01*
G01*
%TO.C,TP22*%
X85750000Y-3000000D02*
G75*
G02*
X82250000Y-3000000I-1750000J0D01*
G01*
X82250000Y-3000000D02*
G75*
G02*
X85750000Y-3000000I1750000J0D01*
G01*
%TO.C,TP15*%
X63750000Y-3000000D02*
G75*
G02*
X60250000Y-3000000I-1750000J0D01*
G01*
X60250000Y-3000000D02*
G75*
G02*
X63750000Y-3000000I1750000J0D01*
G01*
%TO.C,TP27*%
X86300000Y-19000000D02*
G75*
G02*
X84400000Y-19000000I-950000J0D01*
G01*
X84400000Y-19000000D02*
G75*
G02*
X86300000Y-19000000I950000J0D01*
G01*
%TO.C,U3*%
X54750000Y-10640000D02*
X57250000Y-10640000D01*
X57250000Y-15360000D02*
X54750000Y-15360000D01*
X54230000Y-10790000D02*
X53990000Y-10460000D01*
X54470000Y-10460000D01*
X54230000Y-10790000D01*
G36*
X54230000Y-10790000D02*
G01*
X53990000Y-10460000D01*
X54470000Y-10460000D01*
X54230000Y-10790000D01*
G37*
%TO.C,R3*%
X40630000Y-7540000D02*
X40630000Y-14080000D01*
X40630000Y-14080000D02*
X40960000Y-14080000D01*
X40960000Y-7540000D02*
X40630000Y-7540000D01*
X43040000Y-7540000D02*
X43370000Y-7540000D01*
X43370000Y-7540000D02*
X43370000Y-14080000D01*
X43370000Y-14080000D02*
X43040000Y-14080000D01*
%TO.C,TP28*%
X86300000Y-24000000D02*
G75*
G02*
X84400000Y-24000000I-950000J0D01*
G01*
X84400000Y-24000000D02*
G75*
G02*
X86300000Y-24000000I950000J0D01*
G01*
%TO.C,C4*%
X40980000Y-18380000D02*
X40980000Y-24620000D01*
X41425000Y-18380000D02*
X40980000Y-18380000D01*
X41425000Y-24620000D02*
X40980000Y-24620000D01*
X43720000Y-18380000D02*
X43275000Y-18380000D01*
X43720000Y-18380000D02*
X43720000Y-24620000D01*
X43720000Y-24620000D02*
X43275000Y-24620000D01*
%TO.C,C5*%
X53009000Y-6402000D02*
X53009000Y-5598000D01*
X53049000Y-6633000D02*
X53049000Y-5367000D01*
X53089000Y-6802000D02*
X53089000Y-5198000D01*
X53129000Y-6940000D02*
X53129000Y-5060000D01*
X53169000Y-7059000D02*
X53169000Y-4941000D01*
X53209000Y-7165000D02*
X53209000Y-4835000D01*
X53249000Y-7262000D02*
X53249000Y-4738000D01*
X53289000Y-7350000D02*
X53289000Y-4650000D01*
X53329000Y-7432000D02*
X53329000Y-4568000D01*
X53369000Y-7509000D02*
X53369000Y-4491000D01*
X53409000Y-7581000D02*
X53409000Y-4419000D01*
X53449000Y-7650000D02*
X53449000Y-4350000D01*
X53489000Y-7714000D02*
X53489000Y-4286000D01*
X53529000Y-7776000D02*
X53529000Y-4224000D01*
X53569000Y-7834000D02*
X53569000Y-4166000D01*
X53609000Y-7890000D02*
X53609000Y-4110000D01*
X53649000Y-7944000D02*
X53649000Y-4056000D01*
X53689000Y-7995000D02*
X53689000Y-4005000D01*
X53729000Y-8044000D02*
X53729000Y-3956000D01*
X53769000Y-8092000D02*
X53769000Y-3908000D01*
X53809000Y-8137000D02*
X53809000Y-3863000D01*
X53849000Y-8182000D02*
X53849000Y-3818000D01*
X53889000Y-8224000D02*
X53889000Y-3776000D01*
X53929000Y-8265000D02*
X53929000Y-3735000D01*
X53969000Y-4960000D02*
X53969000Y-3695000D01*
X53969000Y-8305000D02*
X53969000Y-7040000D01*
X54009000Y-4960000D02*
X54009000Y-3657000D01*
X54009000Y-8343000D02*
X54009000Y-7040000D01*
X54049000Y-4960000D02*
X54049000Y-3620000D01*
X54049000Y-8380000D02*
X54049000Y-7040000D01*
X54089000Y-4960000D02*
X54089000Y-3584000D01*
X54089000Y-8416000D02*
X54089000Y-7040000D01*
X54129000Y-4960000D02*
X54129000Y-3550000D01*
X54129000Y-8450000D02*
X54129000Y-7040000D01*
X54169000Y-4960000D02*
X54169000Y-3516000D01*
X54169000Y-8484000D02*
X54169000Y-7040000D01*
X54209000Y-4960000D02*
X54209000Y-3484000D01*
X54209000Y-8516000D02*
X54209000Y-7040000D01*
X54249000Y-4960000D02*
X54249000Y-3452000D01*
X54249000Y-8548000D02*
X54249000Y-7040000D01*
X54289000Y-4960000D02*
X54289000Y-3422000D01*
X54289000Y-8578000D02*
X54289000Y-7040000D01*
X54329000Y-4960000D02*
X54329000Y-3393000D01*
X54329000Y-8607000D02*
X54329000Y-7040000D01*
X54369000Y-4960000D02*
X54369000Y-3364000D01*
X54369000Y-8636000D02*
X54369000Y-7040000D01*
X54409000Y-4960000D02*
X54409000Y-3336000D01*
X54409000Y-8664000D02*
X54409000Y-7040000D01*
X54449000Y-4960000D02*
X54449000Y-3310000D01*
X54449000Y-8690000D02*
X54449000Y-7040000D01*
X54489000Y-4960000D02*
X54489000Y-3284000D01*
X54489000Y-8716000D02*
X54489000Y-7040000D01*
X54529000Y-4960000D02*
X54529000Y-3258000D01*
X54529000Y-8742000D02*
X54529000Y-7040000D01*
X54569000Y-4960000D02*
X54569000Y-3234000D01*
X54569000Y-8766000D02*
X54569000Y-7040000D01*
X54609000Y-4960000D02*
X54609000Y-3210000D01*
X54609000Y-8790000D02*
X54609000Y-7040000D01*
X54649000Y-4960000D02*
X54649000Y-3188000D01*
X54649000Y-8812000D02*
X54649000Y-7040000D01*
X54689000Y-4960000D02*
X54689000Y-3166000D01*
X54689000Y-8834000D02*
X54689000Y-7040000D01*
X54729000Y-4960000D02*
X54729000Y-3144000D01*
X54729000Y-8856000D02*
X54729000Y-7040000D01*
X54769000Y-4960000D02*
X54769000Y-3124000D01*
X54769000Y-8876000D02*
X54769000Y-7040000D01*
X54809000Y-4960000D02*
X54809000Y-3104000D01*
X54809000Y-8896000D02*
X54809000Y-7040000D01*
X54849000Y-4960000D02*
X54849000Y-3084000D01*
X54849000Y-8916000D02*
X54849000Y-7040000D01*
X54889000Y-4960000D02*
X54889000Y-3066000D01*
X54889000Y-8934000D02*
X54889000Y-7040000D01*
X54929000Y-4960000D02*
X54929000Y-3048000D01*
X54929000Y-8952000D02*
X54929000Y-7040000D01*
X54969000Y-4960000D02*
X54969000Y-3030000D01*
X54969000Y-8970000D02*
X54969000Y-7040000D01*
X55009000Y-4960000D02*
X55009000Y-3014000D01*
X55009000Y-8986000D02*
X55009000Y-7040000D01*
X55049000Y-4960000D02*
X55049000Y-2998000D01*
X55049000Y-9002000D02*
X55049000Y-7040000D01*
X55089000Y-4960000D02*
X55089000Y-2982000D01*
X55089000Y-9018000D02*
X55089000Y-7040000D01*
X55129000Y-4960000D02*
X55129000Y-2967000D01*
X55129000Y-9033000D02*
X55129000Y-7040000D01*
X55169000Y-4960000D02*
X55169000Y-2953000D01*
X55169000Y-9047000D02*
X55169000Y-7040000D01*
X55209000Y-4960000D02*
X55209000Y-2939000D01*
X55209000Y-9061000D02*
X55209000Y-7040000D01*
X55249000Y-4960000D02*
X55249000Y-2926000D01*
X55249000Y-9074000D02*
X55249000Y-7040000D01*
X55289000Y-4960000D02*
X55289000Y-2914000D01*
X55289000Y-9086000D02*
X55289000Y-7040000D01*
X55329000Y-4960000D02*
X55329000Y-2902000D01*
X55329000Y-9098000D02*
X55329000Y-7040000D01*
X55369000Y-4960000D02*
X55369000Y-2890000D01*
X55369000Y-9110000D02*
X55369000Y-7040000D01*
X55409000Y-4960000D02*
X55409000Y-2879000D01*
X55409000Y-9121000D02*
X55409000Y-7040000D01*
X55449000Y-4960000D02*
X55449000Y-2869000D01*
X55449000Y-9131000D02*
X55449000Y-7040000D01*
X55489000Y-4960000D02*
X55489000Y-2859000D01*
X55489000Y-9141000D02*
X55489000Y-7040000D01*
X55529000Y-4960000D02*
X55529000Y-2850000D01*
X55529000Y-9150000D02*
X55529000Y-7040000D01*
X55570000Y-4960000D02*
X55570000Y-2841000D01*
X55570000Y-9159000D02*
X55570000Y-7040000D01*
X55610000Y-4960000D02*
X55610000Y-2833000D01*
X55610000Y-9167000D02*
X55610000Y-7040000D01*
X55650000Y-4960000D02*
X55650000Y-2825000D01*
X55650000Y-9175000D02*
X55650000Y-7040000D01*
X55690000Y-4960000D02*
X55690000Y-2818000D01*
X55690000Y-9182000D02*
X55690000Y-7040000D01*
X55730000Y-4960000D02*
X55730000Y-2811000D01*
X55730000Y-9189000D02*
X55730000Y-7040000D01*
X55770000Y-4960000D02*
X55770000Y-2805000D01*
X55770000Y-9195000D02*
X55770000Y-7040000D01*
X55810000Y-4960000D02*
X55810000Y-2799000D01*
X55810000Y-9201000D02*
X55810000Y-7040000D01*
X55850000Y-4960000D02*
X55850000Y-2794000D01*
X55850000Y-9206000D02*
X55850000Y-7040000D01*
X55890000Y-4960000D02*
X55890000Y-2789000D01*
X55890000Y-9211000D02*
X55890000Y-7040000D01*
X55930000Y-4960000D02*
X55930000Y-2785000D01*
X55930000Y-9215000D02*
X55930000Y-7040000D01*
X55970000Y-4960000D02*
X55970000Y-2782000D01*
X55970000Y-9218000D02*
X55970000Y-7040000D01*
X56010000Y-4960000D02*
X56010000Y-2778000D01*
X56010000Y-9222000D02*
X56010000Y-7040000D01*
X56050000Y-9224000D02*
X56050000Y-2776000D01*
X56090000Y-9227000D02*
X56090000Y-2773000D01*
X56130000Y-9228000D02*
X56130000Y-2772000D01*
X56170000Y-9230000D02*
X56170000Y-2770000D01*
X56210000Y-9230000D02*
X56210000Y-2770000D01*
X56250000Y-9230000D02*
X56250000Y-2770000D01*
X59435241Y-8154000D02*
X59435241Y-7524000D01*
X59750241Y-7839000D02*
X59120241Y-7839000D01*
X59520000Y-6000000D02*
G75*
G02*
X52980000Y-6000000I-3270000J0D01*
G01*
X52980000Y-6000000D02*
G75*
G02*
X59520000Y-6000000I3270000J0D01*
G01*
%TO.C,TP24*%
X70950000Y-14000000D02*
G75*
G02*
X69050000Y-14000000I-950000J0D01*
G01*
X69050000Y-14000000D02*
G75*
G02*
X70950000Y-14000000I950000J0D01*
G01*
%TO.C,C6*%
X64980000Y-18380000D02*
X64980000Y-24620000D01*
X65425000Y-18380000D02*
X64980000Y-18380000D01*
X65425000Y-24620000D02*
X64980000Y-24620000D01*
X67720000Y-18380000D02*
X67275000Y-18380000D01*
X67720000Y-18380000D02*
X67720000Y-24620000D01*
X67720000Y-24620000D02*
X67275000Y-24620000D01*
%TO.C,L4*%
X24890000Y-24000000D02*
X25130000Y-24000000D01*
X25130000Y-21880000D02*
X25130000Y-26120000D01*
X25130000Y-26120000D02*
X34870000Y-26120000D01*
X34870000Y-21880000D02*
X25130000Y-21880000D01*
X34870000Y-26120000D02*
X34870000Y-21880000D01*
X35110000Y-24000000D02*
X34870000Y-24000000D01*
%TO.C,TP25*%
X73750000Y-3000000D02*
G75*
G02*
X70250000Y-3000000I-1750000J0D01*
G01*
X70250000Y-3000000D02*
G75*
G02*
X73750000Y-3000000I1750000J0D01*
G01*
%TO.C,TP23*%
X88950000Y-4000000D02*
G75*
G02*
X87050000Y-4000000I-950000J0D01*
G01*
X87050000Y-4000000D02*
G75*
G02*
X88950000Y-4000000I950000J0D01*
G01*
%TO.C,TP9*%
X42950000Y-4000000D02*
G75*
G02*
X41050000Y-4000000I-950000J0D01*
G01*
X41050000Y-4000000D02*
G75*
G02*
X42950000Y-4000000I950000J0D01*
G01*
%TO.C,C2*%
X18980000Y-18380000D02*
X18980000Y-24620000D01*
X19425000Y-18380000D02*
X18980000Y-18380000D01*
X19425000Y-24620000D02*
X18980000Y-24620000D01*
X21720000Y-18380000D02*
X21275000Y-18380000D01*
X21720000Y-18380000D02*
X21720000Y-24620000D01*
X21720000Y-24620000D02*
X21275000Y-24620000D01*
%TO.C,TP4*%
X18300000Y-24000000D02*
G75*
G02*
X16400000Y-24000000I-950000J0D01*
G01*
X16400000Y-24000000D02*
G75*
G02*
X18300000Y-24000000I950000J0D01*
G01*
%TO.C,TP5*%
X2950000Y-14000000D02*
G75*
G02*
X1050000Y-14000000I-950000J0D01*
G01*
X1050000Y-14000000D02*
G75*
G02*
X2950000Y-14000000I950000J0D01*
G01*
%TO.C,L6*%
X48890000Y-24000000D02*
X49130000Y-24000000D01*
X49130000Y-21880000D02*
X49130000Y-26120000D01*
X49130000Y-26120000D02*
X58870000Y-26120000D01*
X58870000Y-21880000D02*
X49130000Y-21880000D01*
X58870000Y-26120000D02*
X58870000Y-21880000D01*
X59110000Y-24000000D02*
X58870000Y-24000000D01*
%TO.C,U4*%
X76750000Y-10640000D02*
X79250000Y-10640000D01*
X79250000Y-15360000D02*
X76750000Y-15360000D01*
X76230000Y-10790000D02*
X75990000Y-10460000D01*
X76470000Y-10460000D01*
X76230000Y-10790000D01*
G36*
X76230000Y-10790000D02*
G01*
X75990000Y-10460000D01*
X76470000Y-10460000D01*
X76230000Y-10790000D01*
G37*
%TO.C,R8*%
X82630000Y-7540000D02*
X82630000Y-14080000D01*
X82630000Y-14080000D02*
X82960000Y-14080000D01*
X82960000Y-7540000D02*
X82630000Y-7540000D01*
X85040000Y-7540000D02*
X85370000Y-7540000D01*
X85370000Y-7540000D02*
X85370000Y-14080000D01*
X85370000Y-14080000D02*
X85040000Y-14080000D01*
%TD*%
%LPC*%
D12*
%TO.C,TP6*%
X16000000Y-3000000D03*
%TD*%
%TO.C,TP18*%
X50000000Y-3000000D03*
%TD*%
D13*
%TO.C,D3*%
X51000000Y-7000000D03*
D14*
X51000000Y-14620000D03*
%TD*%
D15*
%TO.C,C7*%
X79500000Y-6000000D03*
D16*
X77000000Y-6000000D03*
%TD*%
%TO.C,C8*%
X88350000Y-19000000D03*
X88350000Y-24000000D03*
%TD*%
D17*
%TO.C,L5*%
X60350000Y-19000000D03*
D18*
X47650000Y-19000000D03*
%TD*%
D13*
%TO.C,D2*%
X27000000Y-7000000D03*
D14*
X27000000Y-14620000D03*
%TD*%
D13*
%TO.C,D4*%
X73000000Y-7000000D03*
D14*
X73000000Y-14620000D03*
%TD*%
D19*
%TO.C,TP12*%
X24000000Y-7000000D03*
%TD*%
D16*
%TO.C,R7*%
X88000000Y-7000000D03*
D14*
X88000000Y-14620000D03*
%TD*%
D16*
%TO.C,R4*%
X38000000Y-7000000D03*
D14*
X38000000Y-14620000D03*
%TD*%
D16*
%TO.C,R6*%
X62000000Y-7000000D03*
D14*
X62000000Y-14620000D03*
%TD*%
D17*
%TO.C,L3*%
X36350000Y-19000000D03*
D18*
X23650000Y-19000000D03*
%TD*%
D16*
%TO.C,R5*%
X66000000Y-7000000D03*
D14*
X66000000Y-14620000D03*
%TD*%
D19*
%TO.C,TP13*%
X39350000Y-19000000D03*
%TD*%
%TO.C,TP21*%
X63350000Y-24000000D03*
%TD*%
%TO.C,TP19*%
X48000000Y-7000000D03*
%TD*%
D20*
%TO.C,U2*%
X30150000Y-11500000D03*
D21*
X32000000Y-13000000D03*
D20*
X30150000Y-14500000D03*
X33850000Y-14500000D03*
X33850000Y-11500000D03*
%TD*%
D16*
%TO.C,R1*%
X20000000Y-7000000D03*
D14*
X20000000Y-14620000D03*
%TD*%
D20*
%TO.C,U1*%
X8150000Y-11500000D03*
D21*
X10000000Y-13000000D03*
D20*
X8150000Y-14500000D03*
X11850000Y-14500000D03*
X11850000Y-11500000D03*
%TD*%
D12*
%TO.C,TP11*%
X26000000Y-3000000D03*
%TD*%
D19*
%TO.C,TP1*%
X17350000Y-19000000D03*
%TD*%
D15*
%TO.C,C1*%
X11500000Y-6000000D03*
D16*
X9000000Y-6000000D03*
%TD*%
%TO.C,R2*%
X16000000Y-7000000D03*
D14*
X16000000Y-14620000D03*
%TD*%
D12*
%TO.C,TP7*%
X4000000Y-3000000D03*
%TD*%
D19*
%TO.C,TP10*%
X24000000Y-14000000D03*
%TD*%
%TO.C,TP16*%
X66000000Y-4000000D03*
%TD*%
D17*
%TO.C,L2*%
X14350000Y-24000000D03*
D18*
X1650000Y-24000000D03*
%TD*%
D17*
%TO.C,L8*%
X82350000Y-24000000D03*
D18*
X69650000Y-24000000D03*
%TD*%
D19*
%TO.C,TP26*%
X70000000Y-7000000D03*
%TD*%
D17*
%TO.C,L7*%
X82350000Y-19000000D03*
D18*
X69650000Y-19000000D03*
%TD*%
D19*
%TO.C,TP17*%
X48000000Y-14000000D03*
%TD*%
D15*
%TO.C,C3*%
X33500000Y-6000000D03*
D16*
X31000000Y-6000000D03*
%TD*%
D19*
%TO.C,TP2*%
X20000000Y-4000000D03*
%TD*%
D13*
%TO.C,D1*%
X5000000Y-7000000D03*
D14*
X5000000Y-14620000D03*
%TD*%
D19*
%TO.C,TP3*%
X2000000Y-7000000D03*
%TD*%
D17*
%TO.C,L1*%
X14350000Y-19000000D03*
D18*
X1650000Y-19000000D03*
%TD*%
D19*
%TO.C,TP14*%
X39350000Y-24000000D03*
%TD*%
D12*
%TO.C,TP8*%
X38000000Y-3000000D03*
%TD*%
D19*
%TO.C,TP20*%
X63350000Y-19000000D03*
%TD*%
D12*
%TO.C,TP22*%
X84000000Y-3000000D03*
%TD*%
%TO.C,TP15*%
X62000000Y-3000000D03*
%TD*%
D19*
%TO.C,TP27*%
X85350000Y-19000000D03*
%TD*%
D20*
%TO.C,U3*%
X54150000Y-11500000D03*
D21*
X56000000Y-13000000D03*
D20*
X54150000Y-14500000D03*
X57850000Y-14500000D03*
X57850000Y-11500000D03*
%TD*%
D16*
%TO.C,R3*%
X42000000Y-7000000D03*
D14*
X42000000Y-14620000D03*
%TD*%
D19*
%TO.C,TP28*%
X85350000Y-24000000D03*
%TD*%
D16*
%TO.C,C4*%
X42350000Y-19000000D03*
X42350000Y-24000000D03*
%TD*%
D15*
%TO.C,C5*%
X57500000Y-6000000D03*
D16*
X55000000Y-6000000D03*
%TD*%
D19*
%TO.C,TP24*%
X70000000Y-14000000D03*
%TD*%
D16*
%TO.C,C6*%
X66350000Y-19000000D03*
X66350000Y-24000000D03*
%TD*%
D17*
%TO.C,L4*%
X36350000Y-24000000D03*
D18*
X23650000Y-24000000D03*
%TD*%
D12*
%TO.C,TP25*%
X72000000Y-3000000D03*
%TD*%
D19*
%TO.C,TP23*%
X88000000Y-4000000D03*
%TD*%
%TO.C,TP9*%
X42000000Y-4000000D03*
%TD*%
D16*
%TO.C,C2*%
X20350000Y-19000000D03*
X20350000Y-24000000D03*
%TD*%
D19*
%TO.C,TP4*%
X17350000Y-24000000D03*
%TD*%
%TO.C,TP5*%
X2000000Y-14000000D03*
%TD*%
D17*
%TO.C,L6*%
X60350000Y-24000000D03*
D18*
X47650000Y-24000000D03*
%TD*%
D20*
%TO.C,U4*%
X76150000Y-11500000D03*
D21*
X78000000Y-13000000D03*
D20*
X76150000Y-14500000D03*
X79850000Y-14500000D03*
X79850000Y-11500000D03*
%TD*%
D16*
%TO.C,R8*%
X84000000Y-7000000D03*
D14*
X84000000Y-14620000D03*
%TD*%
D22*
%TO.C,H1*%
X46096399Y-10303952D03*
%TD*%
%LPD*%
M02*
