  0
SECTION
  2
HEADER
  9
$ANGBASE
  50
0.0
  9
$ANGDIR
  70
1
  9
$MEASUREMENT
  70
1
  0
ENDSEC
  0
SECTION
  2
TABLES
  0
TABLE
  2
LTYPE
  70
4
  0
LTYPE
  5
40F
  2
CONTINUOUS
  70
0
  3
Solid line
  72
65
  73
0
  40
0.0
  0
LTYPE
  5
410
  2
DASHDOT
 70
0
  3
Dash Dot ____ _ ____ _
 72
65
 73
4
 40
2.0
 49
1.25
 49
-0.25
 49
0.25
 49
-0.25
  0
LTYPE
  5
411
  2
DASHED
 70
0
  3
Dashed __ __ __ __ __
 72
65
 73
2
 40
0.75
 49
0.5
 49
-0.25
  0
LTYPE
  5
43B
  2
DOTTED
 70
0
  3
Dotted .  .  .  .
 72
65
 73
2
 40
0.2
 49
0.0
 49
-0.2
  0
ENDTAB
  0
TABLE
  2
STYLE
  70
4
  0
STYLE
  2
KICAD
  70
0
  40
0
  41
1
  42
1
  50
0
  71
0
  3
isocp.shx
  0
STYLE
  2
KICADB
  70
0
  40
0
  41
1
  42
1
  50
0
  71
0
  3
isocp.shx
  0
STYLE
  2
KICADI
  70
0
  40
0
  41
1
  42
1
  50
15
  71
0
  3
isocp.shx
  0
STYLE
  2
KICADBI
  70
0
  40
0
  41
1
  42
1
  50
15
  71
0
  3
isocp.shx
  0
ENDTAB
  0
TABLE
  2
LAYER
  70
1
  0
LAYER
  2
BLACK
  70
0
  62
7
  6
CONTINUOUS
  0
ENDTAB
  0
ENDSEC
  0
SECTION
  2
ENTITIES
0
LINE
8
BLACK
6
CONTINUOUS
10
0.
20
0.
11
100.
21
0.
0
LINE
8
BLACK
6
CONTINUOUS
10
100.
20
0.
11
100.
21
-100.
0
LINE
8
BLACK
6
CONTINUOUS
10
100.
20
-100.
11
0.
21
-100.
0
LINE
8
BLACK
6
CONTINUOUS
10
0.
20
-100.
11
0.
21
0.
0
LINE
8
BLACK
6
CONTINUOUS
10
2.8999999999999999
20
-23.8999999999999986
11
5.0999999999999996
21
-26.0999999999999979
0
LINE
8
BLACK
6
CONTINUOUS
10
5.0999999999999996
20
-23.8999999999999986
11
2.8999999999999999
21
-26.0999999999999979
0
LINE
8
BLACK
6
CONTINUOUS
10
2.8999999999999999
20
-73.8999999999999915
11
5.0999999999999996
21
-76.0999999999999943
0
LINE
8
BLACK
6
CONTINUOUS
10
5.0999999999999996
20
-73.8999999999999915
11
2.8999999999999999
21
-76.0999999999999943
0
LINE
8
BLACK
6
CONTINUOUS
10
16.8999999999999986
20
-23.8999999999999986
11
19.0999999999999979
21
-26.0999999999999979
0
LINE
8
BLACK
6
CONTINUOUS
10
19.0999999999999979
20
-23.8999999999999986
11
16.8999999999999986
21
-26.0999999999999979
0
LINE
8
BLACK
6
CONTINUOUS
10
16.8999999999999986
20
-73.8999999999999915
11
19.0999999999999979
21
-76.0999999999999943
0
LINE
8
BLACK
6
CONTINUOUS
10
19.0999999999999979
20
-73.8999999999999915
11
16.8999999999999986
21
-76.0999999999999943
0
LINE
8
BLACK
6
CONTINUOUS
10
23.8999999999999986
20
-11.4000000000000004
11
26.0999999999999979
21
-13.5999999999999996
0
LINE
8
BLACK
6
CONTINUOUS
10
26.0999999999999979
20
-11.4000000000000004
11
23.8999999999999986
21
-13.5999999999999996
0
LINE
8
BLACK
6
CONTINUOUS
10
23.8999999999999986
20
-86.3999999999999915
11
26.0999999999999979
21
-88.5999999999999943
0
LINE
8
BLACK
6
CONTINUOUS
10
26.0999999999999979
20
-86.3999999999999915
11
23.8999999999999986
21
-88.5999999999999943
0
LINE
8
BLACK
6
CONTINUOUS
10
45.3999999999999986
20
-11.4000000000000004
11
47.5999999999999943
21
-13.5999999999999996
0
LINE
8
BLACK
6
CONTINUOUS
10
47.5999999999999943
20
-11.4000000000000004
11
45.3999999999999986
21
-13.5999999999999996
0
LINE
8
BLACK
6
CONTINUOUS
10
45.3999999999999986
20
-86.3999999999999915
11
47.5999999999999943
21
-88.5999999999999943
0
LINE
8
BLACK
6
CONTINUOUS
10
47.5999999999999943
20
-86.3999999999999915
11
45.3999999999999986
21
-88.5999999999999943
0
LINE
8
BLACK
6
CONTINUOUS
10
48.8999999999999986
20
-48.8999999999999986
11
51.0999999999999943
21
-51.0999999999999943
0
LINE
8
BLACK
6
CONTINUOUS
10
51.0999999999999943
20
-48.8999999999999986
11
48.8999999999999986
21
-51.0999999999999943
0
LINE
8
BLACK
6
CONTINUOUS
10
52.3999999999999986
20
-11.4000000000000004
11
54.5999999999999943
21
-13.5999999999999996
0
LINE
8
BLACK
6
CONTINUOUS
10
54.5999999999999943
20
-11.4000000000000004
11
52.3999999999999986
21
-13.5999999999999996
0
LINE
8
BLACK
6
CONTINUOUS
10
52.3999999999999986
20
-86.3999999999999915
11
54.5999999999999943
21
-88.5999999999999943
0
LINE
8
BLACK
6
CONTINUOUS
10
54.5999999999999943
20
-86.3999999999999915
11
52.3999999999999986
21
-88.5999999999999943
0
LINE
8
BLACK
6
CONTINUOUS
10
73.8999999999999915
20
-11.4000000000000004
11
76.0999999999999943
21
-13.5999999999999996
0
LINE
8
BLACK
6
CONTINUOUS
10
76.0999999999999943
20
-11.4000000000000004
11
73.8999999999999915
21
-13.5999999999999996
0
LINE
8
BLACK
6
CONTINUOUS
10
73.8999999999999915
20
-86.3999999999999915
11
76.0999999999999943
21
-88.5999999999999943
0
LINE
8
BLACK
6
CONTINUOUS
10
76.0999999999999943
20
-86.3999999999999915
11
73.8999999999999915
21
-88.5999999999999943
0
LINE
8
BLACK
6
CONTINUOUS
10
80.8999999999999915
20
-23.8999999999999986
11
83.0999999999999943
21
-26.0999999999999979
0
LINE
8
BLACK
6
CONTINUOUS
10
83.0999999999999943
20
-23.8999999999999986
11
80.8999999999999915
21
-26.0999999999999979
0
LINE
8
BLACK
6
CONTINUOUS
10
80.8999999999999915
20
-73.8999999999999915
11
83.0999999999999943
21
-76.0999999999999943
0
LINE
8
BLACK
6
CONTINUOUS
10
83.0999999999999943
20
-73.8999999999999915
11
80.8999999999999915
21
-76.0999999999999943
0
LINE
8
BLACK
6
CONTINUOUS
10
94.8999999999999915
20
-23.8999999999999986
11
97.0999999999999943
21
-26.0999999999999979
0
LINE
8
BLACK
6
CONTINUOUS
10
97.0999999999999943
20
-23.8999999999999986
11
94.8999999999999915
21
-26.0999999999999979
0
LINE
8
BLACK
6
CONTINUOUS
10
94.8999999999999915
20
-73.8999999999999915
11
97.0999999999999943
21
-76.0999999999999943
0
LINE
8
BLACK
6
CONTINUOUS
10
97.0999999999999943
20
-73.8999999999999915
11
94.8999999999999915
21
-76.0999999999999943
0
LINE
8
BLACK
6
CONTINUOUS
10
2.5827679999999997
20
-103.1398379999999975
11
2.5827679999999997
21
-101.1398379999999975
0
LINE
8
BLACK
6
CONTINUOUS
10
2.5827679999999997
20
-101.1398379999999975
11
3.0589580000000001
21
-101.1398379999999975
0
LINE
8
BLACK
6
CONTINUOUS
10
3.0589580000000001
20
-101.1398379999999975
11
3.3446729999999998
21
-101.2350759999999923
0
LINE
8
BLACK
6
CONTINUOUS
10
3.3446729999999998
20
-101.2350759999999923
11
3.5351489999999997
21
-101.4255519999999962
0
LINE
8
BLACK
6
CONTINUOUS
10
3.5351489999999997
20
-101.4255519999999962
11
3.6303869999999998
21
-101.616028
0
LINE
8
BLACK
6
CONTINUOUS
10
3.6303869999999998
20
-101.616028
11
3.725625
21
-101.9969799999999935
0
LINE
8
BLACK
6
CONTINUOUS
10
3.725625
20
-101.9969799999999935
11
3.725625
21
-102.2826949999999897
0
LINE
8
BLACK
6
CONTINUOUS
10
3.725625
20
-102.2826949999999897
11
3.6303869999999998
21
-102.6636469999999974
0
LINE
8
BLACK
6
CONTINUOUS
10
3.6303869999999998
20
-102.6636469999999974
11
3.5351489999999997
21
-102.8541230000000013
0
LINE
8
BLACK
6
CONTINUOUS
10
3.5351489999999997
20
-102.8541230000000013
11
3.3446729999999998
21
-103.0445999999999884
0
LINE
8
BLACK
6
CONTINUOUS
10
3.3446729999999998
20
-103.0445999999999884
11
3.0589580000000001
21
-103.1398379999999975
0
LINE
8
BLACK
6
CONTINUOUS
10
3.0589580000000001
20
-103.1398379999999975
11
2.5827679999999997
21
-103.1398379999999975
0
LINE
8
BLACK
6
CONTINUOUS
10
4.5827679999999997
20
-103.1398379999999975
11
4.5827679999999997
21
-101.8065039999999897
0
LINE
8
BLACK
6
CONTINUOUS
10
4.5827679999999997
20
-102.1874569999999949
11
4.6780059999999999
21
-101.9969799999999935
0
LINE
8
BLACK
6
CONTINUOUS
10
4.6780059999999999
20
-101.9969799999999935
11
4.773244
21
-101.9017419999999987
0
LINE
8
BLACK
6
CONTINUOUS
10
4.773244
20
-101.9017419999999987
11
4.9637199999999995
21
-101.8065039999999897
0
LINE
8
BLACK
6
CONTINUOUS
10
4.9637199999999995
20
-101.8065039999999897
11
5.1541969999999999
21
-101.8065039999999897
0
LINE
8
BLACK
6
CONTINUOUS
10
5.8208630000000001
20
-103.1398379999999975
11
5.8208630000000001
21
-101.8065039999999897
0
LINE
8
BLACK
6
CONTINUOUS
10
5.8208630000000001
20
-101.1398379999999975
11
5.725625
21
-101.2350759999999923
0
LINE
8
BLACK
6
CONTINUOUS
10
5.725625
20
-101.2350759999999923
11
5.8208630000000001
21
-101.3303140000000013
0
LINE
8
BLACK
6
CONTINUOUS
10
5.8208630000000001
20
-101.3303140000000013
11
5.9161009999999994
21
-101.2350759999999923
0
LINE
8
BLACK
6
CONTINUOUS
10
5.9161009999999994
20
-101.2350759999999923
11
5.8208630000000001
21
-101.1398379999999975
0
LINE
8
BLACK
6
CONTINUOUS
10
5.8208630000000001
20
-101.1398379999999975
11
5.8208630000000001
21
-101.3303140000000013
0
LINE
8
BLACK
6
CONTINUOUS
10
7.0589579999999996
20
-103.1398379999999975
11
6.8684819999999993
21
-103.0445999999999884
0
LINE
8
BLACK
6
CONTINUOUS
10
6.8684819999999993
20
-103.0445999999999884
11
6.773244
21
-102.8541230000000013
0
LINE
8
BLACK
6
CONTINUOUS
10
6.773244
20
-102.8541230000000013
11
6.773244
21
-101.1398379999999975
0
LINE
8
BLACK
6
CONTINUOUS
10
8.1065769999999997
20
-103.1398379999999975
11
7.9161009999999994
21
-103.0445999999999884
0
LINE
8
BLACK
6
CONTINUOUS
10
7.9161009999999994
20
-103.0445999999999884
11
7.8208629999999992
21
-102.8541230000000013
0
LINE
8
BLACK
6
CONTINUOUS
10
7.8208629999999992
20
-102.8541230000000013
11
7.8208629999999992
21
-101.1398379999999975
0
LINE
8
BLACK
6
CONTINUOUS
10
10.3922919999999994
20
-103.1398379999999975
11
10.3922919999999994
21
-101.1398379999999975
0
LINE
8
BLACK
6
CONTINUOUS
10
10.3922919999999994
20
-101.1398379999999975
11
11.0589589999999998
21
-102.5684089999999884
0
LINE
8
BLACK
6
CONTINUOUS
10
11.0589589999999998
20
-102.5684089999999884
11
11.7256249999999991
21
-101.1398379999999975
0
LINE
8
BLACK
6
CONTINUOUS
10
11.7256249999999991
20
-101.1398379999999975
11
11.7256249999999991
21
-103.1398379999999975
0
LINE
8
BLACK
6
CONTINUOUS
10
13.5351489999999988
20
-103.1398379999999975
11
13.5351489999999988
21
-102.0922190000000001
0
LINE
8
BLACK
6
CONTINUOUS
10
13.5351489999999988
20
-102.0922190000000001
11
13.4399109999999986
21
-101.9017419999999987
0
LINE
8
BLACK
6
CONTINUOUS
10
13.4399109999999986
20
-101.9017419999999987
11
13.2494350000000001
21
-101.8065039999999897
0
LINE
8
BLACK
6
CONTINUOUS
10
13.2494350000000001
20
-101.8065039999999897
11
12.8684820000000002
21
-101.8065039999999897
0
LINE
8
BLACK
6
CONTINUOUS
10
12.8684820000000002
20
-101.8065039999999897
11
12.6780059999999999
21
-101.9017419999999987
0
LINE
8
BLACK
6
CONTINUOUS
10
13.5351489999999988
20
-103.0445999999999884
11
13.3446730000000002
21
-103.1398379999999975
0
LINE
8
BLACK
6
CONTINUOUS
10
13.3446730000000002
20
-103.1398379999999975
11
12.8684820000000002
21
-103.1398379999999975
0
LINE
8
BLACK
6
CONTINUOUS
10
12.8684820000000002
20
-103.1398379999999975
11
12.6780059999999999
21
-103.0445999999999884
0
LINE
8
BLACK
6
CONTINUOUS
10
12.6780059999999999
20
-103.0445999999999884
11
12.5827679999999997
21
-102.8541230000000013
0
LINE
8
BLACK
6
CONTINUOUS
10
12.5827679999999997
20
-102.8541230000000013
11
12.5827679999999997
21
-102.6636469999999974
0
LINE
8
BLACK
6
CONTINUOUS
10
12.5827679999999997
20
-102.6636469999999974
11
12.6780059999999999
21
-102.4731709999999936
0
LINE
8
BLACK
6
CONTINUOUS
10
12.6780059999999999
20
-102.4731709999999936
11
12.8684820000000002
21
-102.3779329999999987
0
LINE
8
BLACK
6
CONTINUOUS
10
12.8684820000000002
20
-102.3779329999999987
11
13.3446730000000002
21
-102.3779329999999987
0
LINE
8
BLACK
6
CONTINUOUS
10
13.3446730000000002
20
-102.3779329999999987
11
13.5351489999999988
21
-102.2826949999999897
0
LINE
8
BLACK
6
CONTINUOUS
10
14.4875299999999996
20
-101.8065039999999897
11
14.4875299999999996
21
-103.8065039999999897
0
LINE
8
BLACK
6
CONTINUOUS
10
14.4875299999999996
20
-101.9017419999999987
11
14.6780059999999999
21
-101.8065039999999897
0
LINE
8
BLACK
6
CONTINUOUS
10
14.6780059999999999
20
-101.8065039999999897
11
15.0589589999999998
21
-101.8065039999999897
0
LINE
8
BLACK
6
CONTINUOUS
10
15.0589589999999998
20
-101.8065039999999897
11
15.2494350000000001
21
-101.9017419999999987
0
LINE
8
BLACK
6
CONTINUOUS
10
15.2494350000000001
20
-101.9017419999999987
11
15.3446729999999985
21
-101.9969799999999935
0
LINE
8
BLACK
6
CONTINUOUS
10
15.3446729999999985
20
-101.9969799999999935
11
15.4399109999999986
21
-102.1874569999999949
0
LINE
8
BLACK
6
CONTINUOUS
10
15.4399109999999986
20
-102.1874569999999949
11
15.4399109999999986
21
-102.7588849999999923
0
LINE
8
BLACK
6
CONTINUOUS
10
15.4399109999999986
20
-102.7588849999999923
11
15.3446729999999985
21
-102.9493609999999961
0
LINE
8
BLACK
6
CONTINUOUS
10
15.3446729999999985
20
-102.9493609999999961
11
15.2494350000000001
21
-103.0445999999999884
0
LINE
8
BLACK
6
CONTINUOUS
10
15.2494350000000001
20
-103.0445999999999884
11
15.0589589999999998
21
-103.1398379999999975
0
LINE
8
BLACK
6
CONTINUOUS
10
15.0589589999999998
20
-103.1398379999999975
11
14.6780059999999999
21
-103.1398379999999975
0
LINE
8
BLACK
6
CONTINUOUS
10
14.6780059999999999
20
-103.1398379999999975
11
14.4875299999999996
21
-103.0445999999999884
0
LINE
8
BLACK
6
CONTINUOUS
10
16.2970539999999993
20
-102.9493609999999961
11
16.3922919999999976
21
-103.0445999999999884
0
LINE
8
BLACK
6
CONTINUOUS
10
16.3922919999999976
20
-103.0445999999999884
11
16.2970539999999993
21
-103.1398379999999975
0
LINE
8
BLACK
6
CONTINUOUS
10
16.2970539999999993
20
-103.1398379999999975
11
16.2018160000000009
21
-103.0445999999999884
0
LINE
8
BLACK
6
CONTINUOUS
10
16.2018160000000009
20
-103.0445999999999884
11
16.2970539999999993
21
-102.9493609999999961
0
LINE
8
BLACK
6
CONTINUOUS
10
16.2970539999999993
20
-102.9493609999999961
11
16.2970539999999993
21
-103.1398379999999975
0
LINE
8
BLACK
6
CONTINUOUS
10
16.2970539999999993
20
-101.9017419999999987
11
16.3922919999999976
21
-101.9969799999999935
0
LINE
8
BLACK
6
CONTINUOUS
10
16.3922919999999976
20
-101.9969799999999935
11
16.2970539999999993
21
-102.0922190000000001
0
LINE
8
BLACK
6
CONTINUOUS
10
16.2970539999999993
20
-102.0922190000000001
11
16.2018160000000009
21
-101.9969799999999935
0
LINE
8
BLACK
6
CONTINUOUS
10
16.2018160000000009
20
-101.9969799999999935
11
16.2970539999999993
21
-101.9017419999999987
0
LINE
8
BLACK
6
CONTINUOUS
10
16.2970539999999993
20
-101.9017419999999987
11
16.2970539999999993
21
-102.0922190000000001
0
LINE
8
BLACK
6
CONTINUOUS
10
-2.0249999999999999
20
-105.4249999999999972
11
-0.025
21
-107.4249999999999972
0
LINE
8
BLACK
6
CONTINUOUS
10
-0.025
20
-105.4249999999999972
11
-2.0249999999999999
21
-107.4249999999999972
0
LINE
8
BLACK
6
CONTINUOUS
10
2.48753
20
-105.53031399999999
11
2.5827679999999997
21
-105.4350759999999951
0
LINE
8
BLACK
6
CONTINUOUS
10
2.5827679999999997
20
-105.4350759999999951
11
2.773244
21
-105.3398380000000003
0
LINE
8
BLACK
6
CONTINUOUS
10
2.773244
20
-105.3398380000000003
11
3.2494350000000001
21
-105.3398380000000003
0
LINE
8
BLACK
6
CONTINUOUS
10
3.2494350000000001
20
-105.3398380000000003
11
3.4399109999999999
21
-105.4350759999999951
0
LINE
8
BLACK
6
CONTINUOUS
10
3.4399109999999999
20
-105.4350759999999951
11
3.5351489999999997
21
-105.53031399999999
0
LINE
8
BLACK
6
CONTINUOUS
10
3.5351489999999997
20
-105.53031399999999
11
3.6303869999999998
21
-105.7207899999999938
0
LINE
8
BLACK
6
CONTINUOUS
10
3.6303869999999998
20
-105.7207899999999938
11
3.6303869999999998
21
-105.9112659999999977
0
LINE
8
BLACK
6
CONTINUOUS
10
3.6303869999999998
20
-105.9112659999999977
11
3.5351489999999997
21
-106.1969799999999964
0
LINE
8
BLACK
6
CONTINUOUS
10
3.5351489999999997
20
-106.1969799999999964
11
2.3922919999999999
21
-107.3398380000000003
0
LINE
8
BLACK
6
CONTINUOUS
10
2.3922919999999999
20
-107.3398380000000003
11
3.6303869999999998
21
-107.3398380000000003
0
LINE
8
BLACK
6
CONTINUOUS
10
4.4875299999999996
20
-107.149360999999999
11
4.5827679999999997
21
-107.2445999999999913
0
LINE
8
BLACK
6
CONTINUOUS
10
4.5827679999999997
20
-107.2445999999999913
11
4.4875299999999996
21
-107.3398380000000003
0
LINE
8
BLACK
6
CONTINUOUS
10
4.4875299999999996
20
-107.3398380000000003
11
4.3922919999999994
21
-107.2445999999999913
0
LINE
8
BLACK
6
CONTINUOUS
10
4.3922919999999994
20
-107.2445999999999913
11
4.4875299999999996
21
-107.149360999999999
0
LINE
8
BLACK
6
CONTINUOUS
10
4.4875299999999996
20
-107.149360999999999
11
4.4875299999999996
21
-107.3398380000000003
0
LINE
8
BLACK
6
CONTINUOUS
10
5.3446729999999993
20
-105.53031399999999
11
5.4399109999999995
21
-105.4350759999999951
0
LINE
8
BLACK
6
CONTINUOUS
10
5.4399109999999995
20
-105.4350759999999951
11
5.6303869999999998
21
-105.3398380000000003
0
LINE
8
BLACK
6
CONTINUOUS
10
5.6303869999999998
20
-105.3398380000000003
11
6.1065779999999998
21
-105.3398380000000003
0
LINE
8
BLACK
6
CONTINUOUS
10
6.1065779999999998
20
-105.3398380000000003
11
6.2970540000000002
21
-105.4350759999999951
0
LINE
8
BLACK
6
CONTINUOUS
10
6.2970540000000002
20
-105.4350759999999951
11
6.3922919999999994
21
-105.53031399999999
0
LINE
8
BLACK
6
CONTINUOUS
10
6.3922919999999994
20
-105.53031399999999
11
6.4875299999999996
21
-105.7207899999999938
0
LINE
8
BLACK
6
CONTINUOUS
10
6.4875299999999996
20
-105.7207899999999938
11
6.4875299999999996
21
-105.9112659999999977
0
LINE
8
BLACK
6
CONTINUOUS
10
6.4875299999999996
20
-105.9112659999999977
11
6.3922919999999994
21
-106.1969799999999964
0
LINE
8
BLACK
6
CONTINUOUS
10
6.3922919999999994
20
-106.1969799999999964
11
5.2494350000000001
21
-107.3398380000000003
0
LINE
8
BLACK
6
CONTINUOUS
10
5.2494350000000001
20
-107.3398380000000003
11
6.4875299999999996
21
-107.3398380000000003
0
LINE
8
BLACK
6
CONTINUOUS
10
7.725625
20
-105.3398380000000003
11
7.9161019999999995
21
-105.3398380000000003
0
LINE
8
BLACK
6
CONTINUOUS
10
7.9161019999999995
20
-105.3398380000000003
11
8.106577999999999
21
-105.4350759999999951
0
LINE
8
BLACK
6
CONTINUOUS
10
8.106577999999999
20
-105.4350759999999951
11
8.2018159999999991
21
-105.53031399999999
0
LINE
8
BLACK
6
CONTINUOUS
10
8.2018159999999991
20
-105.53031399999999
11
8.2970539999999993
21
-105.7207899999999938
0
LINE
8
BLACK
6
CONTINUOUS
10
8.2970539999999993
20
-105.7207899999999938
11
8.3922919999999994
21
-106.1017420000000016
0
LINE
8
BLACK
6
CONTINUOUS
10
8.3922919999999994
20
-106.1017420000000016
11
8.3922919999999994
21
-106.5779330000000016
0
LINE
8
BLACK
6
CONTINUOUS
10
8.3922919999999994
20
-106.5779330000000016
11
8.2970539999999993
21
-106.9588849999999951
0
LINE
8
BLACK
6
CONTINUOUS
10
8.2970539999999993
20
-106.9588849999999951
11
8.2018159999999991
21
-107.149360999999999
0
LINE
8
BLACK
6
CONTINUOUS
10
8.2018159999999991
20
-107.149360999999999
11
8.106577999999999
21
-107.2445999999999913
0
LINE
8
BLACK
6
CONTINUOUS
10
8.106577999999999
20
-107.2445999999999913
11
7.9161019999999995
21
-107.3398380000000003
0
LINE
8
BLACK
6
CONTINUOUS
10
7.9161019999999995
20
-107.3398380000000003
11
7.725625
21
-107.3398380000000003
0
LINE
8
BLACK
6
CONTINUOUS
10
7.725625
20
-107.3398380000000003
11
7.5351489999999997
21
-107.2445999999999913
0
LINE
8
BLACK
6
CONTINUOUS
10
7.5351489999999997
20
-107.2445999999999913
11
7.4399109999999995
21
-107.149360999999999
0
LINE
8
BLACK
6
CONTINUOUS
10
7.4399109999999995
20
-107.149360999999999
11
7.3446729999999993
21
-106.9588849999999951
0
LINE
8
BLACK
6
CONTINUOUS
10
7.3446729999999993
20
-106.9588849999999951
11
7.2494350000000001
21
-106.5779330000000016
0
LINE
8
BLACK
6
CONTINUOUS
10
7.2494350000000001
20
-106.5779330000000016
11
7.2494350000000001
21
-106.1017420000000016
0
LINE
8
BLACK
6
CONTINUOUS
10
7.2494350000000001
20
-106.1017420000000016
11
7.3446729999999993
21
-105.7207899999999938
0
LINE
8
BLACK
6
CONTINUOUS
10
7.3446729999999993
20
-105.7207899999999938
11
7.4399109999999995
21
-105.53031399999999
0
LINE
8
BLACK
6
CONTINUOUS
10
7.4399109999999995
20
-105.53031399999999
11
7.5351489999999997
21
-105.4350759999999951
0
LINE
8
BLACK
6
CONTINUOUS
10
7.5351489999999997
20
-105.4350759999999951
11
7.725625
21
-105.3398380000000003
0
LINE
8
BLACK
6
CONTINUOUS
10
9.6303869999999989
20
-105.3398380000000003
11
9.8208640000000003
21
-105.3398380000000003
0
LINE
8
BLACK
6
CONTINUOUS
10
9.8208640000000003
20
-105.3398380000000003
11
10.0113399999999988
21
-105.4350759999999951
0
LINE
8
BLACK
6
CONTINUOUS
10
10.0113399999999988
20
-105.4350759999999951
11
10.106577999999999
21
-105.53031399999999
0
LINE
8
BLACK
6
CONTINUOUS
10
10.106577999999999
20
-105.53031399999999
11
10.2018159999999991
21
-105.7207899999999938
0
LINE
8
BLACK
6
CONTINUOUS
10
10.2018159999999991
20
-105.7207899999999938
11
10.2970539999999993
21
-106.1017420000000016
0
LINE
8
BLACK
6
CONTINUOUS
10
10.2970539999999993
20
-106.1017420000000016
11
10.2970539999999993
21
-106.5779330000000016
0
LINE
8
BLACK
6
CONTINUOUS
10
10.2970539999999993
20
-106.5779330000000016
11
10.2018159999999991
21
-106.9588849999999951
0
LINE
8
BLACK
6
CONTINUOUS
10
10.2018159999999991
20
-106.9588849999999951
11
10.106577999999999
21
-107.149360999999999
0
LINE
8
BLACK
6
CONTINUOUS
10
10.106577999999999
20
-107.149360999999999
11
10.0113399999999988
21
-107.2445999999999913
0
LINE
8
BLACK
6
CONTINUOUS
10
10.0113399999999988
20
-107.2445999999999913
11
9.8208640000000003
21
-107.3398380000000003
0
LINE
8
BLACK
6
CONTINUOUS
10
9.8208640000000003
20
-107.3398380000000003
11
9.6303869999999989
21
-107.3398380000000003
0
LINE
8
BLACK
6
CONTINUOUS
10
9.6303869999999989
20
-107.3398380000000003
11
9.4399110000000004
21
-107.2445999999999913
0
LINE
8
BLACK
6
CONTINUOUS
10
9.4399110000000004
20
-107.2445999999999913
11
9.3446730000000002
21
-107.149360999999999
0
LINE
8
BLACK
6
CONTINUOUS
10
9.3446730000000002
20
-107.149360999999999
11
9.2494350000000001
21
-106.9588849999999951
0
LINE
8
BLACK
6
CONTINUOUS
10
9.2494350000000001
20
-106.9588849999999951
11
9.1541969999999999
21
-106.5779330000000016
0
LINE
8
BLACK
6
CONTINUOUS
10
9.1541969999999999
20
-106.5779330000000016
11
9.1541969999999999
21
-106.1017420000000016
0
LINE
8
BLACK
6
CONTINUOUS
10
9.1541969999999999
20
-106.1017420000000016
11
9.2494350000000001
21
-105.7207899999999938
0
LINE
8
BLACK
6
CONTINUOUS
10
9.2494350000000001
20
-105.7207899999999938
11
9.3446730000000002
21
-105.53031399999999
0
LINE
8
BLACK
6
CONTINUOUS
10
9.3446730000000002
20
-105.53031399999999
11
9.4399110000000004
21
-105.4350759999999951
0
LINE
8
BLACK
6
CONTINUOUS
10
9.4399110000000004
20
-105.4350759999999951
11
9.6303869999999989
21
-105.3398380000000003
0
LINE
8
BLACK
6
CONTINUOUS
10
11.1541969999999999
20
-107.3398380000000003
11
11.1541969999999999
21
-106.0065039999999925
0
LINE
8
BLACK
6
CONTINUOUS
10
11.1541969999999999
20
-106.1969799999999964
11
11.2494350000000001
21
-106.1017420000000016
0
LINE
8
BLACK
6
CONTINUOUS
10
11.2494350000000001
20
-106.1017420000000016
11
11.4399109999999986
21
-106.0065039999999925
0
LINE
8
BLACK
6
CONTINUOUS
10
11.4399109999999986
20
-106.0065039999999925
11
11.7256260000000001
21
-106.0065039999999925
0
LINE
8
BLACK
6
CONTINUOUS
10
11.7256260000000001
20
-106.0065039999999925
11
11.9161019999999986
21
-106.1017420000000016
0
LINE
8
BLACK
6
CONTINUOUS
10
11.9161019999999986
20
-106.1017420000000016
11
12.0113399999999988
21
-106.2922189999999887
0
LINE
8
BLACK
6
CONTINUOUS
10
12.0113399999999988
20
-106.2922189999999887
11
12.0113399999999988
21
-107.3398380000000003
0
LINE
8
BLACK
6
CONTINUOUS
10
12.0113399999999988
20
-106.2922189999999887
11
12.106577999999999
21
-106.1017420000000016
0
LINE
8
BLACK
6
CONTINUOUS
10
12.106577999999999
20
-106.1017420000000016
11
12.2970539999999993
21
-106.0065039999999925
0
LINE
8
BLACK
6
CONTINUOUS
10
12.2970539999999993
20
-106.0065039999999925
11
12.5827679999999997
21
-106.0065039999999925
0
LINE
8
BLACK
6
CONTINUOUS
10
12.5827679999999997
20
-106.0065039999999925
11
12.7732449999999993
21
-106.1017420000000016
0
LINE
8
BLACK
6
CONTINUOUS
10
12.7732449999999993
20
-106.1017420000000016
11
12.8684829999999994
21
-106.2922189999999887
0
LINE
8
BLACK
6
CONTINUOUS
10
12.8684829999999994
20
-106.2922189999999887
11
12.8684829999999994
21
-107.3398380000000003
0
LINE
8
BLACK
6
CONTINUOUS
10
13.8208640000000003
20
-107.3398380000000003
11
13.8208640000000003
21
-106.0065039999999925
0
LINE
8
BLACK
6
CONTINUOUS
10
13.8208640000000003
20
-106.1969799999999964
11
13.9161019999999986
21
-106.1017420000000016
0
LINE
8
BLACK
6
CONTINUOUS
10
13.9161019999999986
20
-106.1017420000000016
11
14.106577999999999
21
-106.0065039999999925
0
LINE
8
BLACK
6
CONTINUOUS
10
14.106577999999999
20
-106.0065039999999925
11
14.3922929999999987
21
-106.0065039999999925
0
LINE
8
BLACK
6
CONTINUOUS
10
14.3922929999999987
20
-106.0065039999999925
11
14.582768999999999
21
-106.1017420000000016
0
LINE
8
BLACK
6
CONTINUOUS
10
14.582768999999999
20
-106.1017420000000016
11
14.6780069999999991
21
-106.2922189999999887
0
LINE
8
BLACK
6
CONTINUOUS
10
14.6780069999999991
20
-106.2922189999999887
11
14.6780069999999991
21
-107.3398380000000003
0
LINE
8
BLACK
6
CONTINUOUS
10
14.6780069999999991
20
-106.2922189999999887
11
14.7732449999999993
21
-106.1017420000000016
0
LINE
8
BLACK
6
CONTINUOUS
10
14.7732449999999993
20
-106.1017420000000016
11
14.9637209999999996
21
-106.0065039999999925
0
LINE
8
BLACK
6
CONTINUOUS
10
14.9637209999999996
20
-106.0065039999999925
11
15.2494350000000001
21
-106.0065039999999925
0
LINE
8
BLACK
6
CONTINUOUS
10
15.2494350000000001
20
-106.0065039999999925
11
15.4399119999999996
21
-106.1017420000000016
0
LINE
8
BLACK
6
CONTINUOUS
10
15.4399119999999996
20
-106.1017420000000016
11
15.5351499999999998
21
-106.2922189999999887
0
LINE
8
BLACK
6
CONTINUOUS
10
15.5351499999999998
20
-106.2922189999999887
11
15.5351499999999998
21
-107.3398380000000003
0
LINE
8
BLACK
6
CONTINUOUS
10
19.4399119999999996
20
-105.2445999999999913
11
17.7256269999999994
21
-107.8160279999999887
0
LINE
8
BLACK
6
CONTINUOUS
10
22.011340999999998
20
-105.3398380000000003
11
22.2018179999999994
21
-105.3398380000000003
0
LINE
8
BLACK
6
CONTINUOUS
10
22.2018179999999994
20
-105.3398380000000003
11
22.3922939999999997
21
-105.4350759999999951
0
LINE
8
BLACK
6
CONTINUOUS
10
22.3922939999999997
20
-105.4350759999999951
11
22.4875319999999981
21
-105.53031399999999
0
LINE
8
BLACK
6
CONTINUOUS
10
22.4875319999999981
20
-105.53031399999999
11
22.58277
21
-105.7207899999999938
0
LINE
8
BLACK
6
CONTINUOUS
10
22.58277
20
-105.7207899999999938
11
22.6780079999999984
21
-106.1017420000000016
0
LINE
8
BLACK
6
CONTINUOUS
10
22.6780079999999984
20
-106.1017420000000016
11
22.6780079999999984
21
-106.5779330000000016
0
LINE
8
BLACK
6
CONTINUOUS
10
22.6780079999999984
20
-106.5779330000000016
11
22.58277
21
-106.9588849999999951
0
LINE
8
BLACK
6
CONTINUOUS
10
22.58277
20
-106.9588849999999951
11
22.4875319999999981
21
-107.149360999999999
0
LINE
8
BLACK
6
CONTINUOUS
10
22.4875319999999981
20
-107.149360999999999
11
22.3922939999999997
21
-107.2445999999999913
0
LINE
8
BLACK
6
CONTINUOUS
10
22.3922939999999997
20
-107.2445999999999913
11
22.2018179999999994
21
-107.3398380000000003
0
LINE
8
BLACK
6
CONTINUOUS
10
22.2018179999999994
20
-107.3398380000000003
11
22.011340999999998
21
-107.3398380000000003
0
LINE
8
BLACK
6
CONTINUOUS
10
22.011340999999998
20
-107.3398380000000003
11
21.8208649999999977
21
-107.2445999999999913
0
LINE
8
BLACK
6
CONTINUOUS
10
21.8208649999999977
20
-107.2445999999999913
11
21.7256269999999994
21
-107.149360999999999
0
LINE
8
BLACK
6
CONTINUOUS
10
21.7256269999999994
20
-107.149360999999999
11
21.6303889999999974
21
-106.9588849999999951
0
LINE
8
BLACK
6
CONTINUOUS
10
21.6303889999999974
20
-106.9588849999999951
11
21.535150999999999
21
-106.5779330000000016
0
LINE
8
BLACK
6
CONTINUOUS
10
21.535150999999999
20
-106.5779330000000016
11
21.535150999999999
21
-106.1017420000000016
0
LINE
8
BLACK
6
CONTINUOUS
10
21.535150999999999
20
-106.1017420000000016
11
21.6303889999999974
21
-105.7207899999999938
0
LINE
8
BLACK
6
CONTINUOUS
10
21.6303889999999974
20
-105.7207899999999938
11
21.7256269999999994
21
-105.53031399999999
0
LINE
8
BLACK
6
CONTINUOUS
10
21.7256269999999994
20
-105.53031399999999
11
21.8208649999999977
21
-105.4350759999999951
0
LINE
8
BLACK
6
CONTINUOUS
10
21.8208649999999977
20
-105.4350759999999951
11
22.011340999999998
21
-105.3398380000000003
0
LINE
8
BLACK
6
CONTINUOUS
10
23.535150999999999
20
-107.149360999999999
11
23.6303889999999974
21
-107.2445999999999913
0
LINE
8
BLACK
6
CONTINUOUS
10
23.6303889999999974
20
-107.2445999999999913
11
23.535150999999999
21
-107.3398380000000003
0
LINE
8
BLACK
6
CONTINUOUS
10
23.535150999999999
20
-107.3398380000000003
11
23.4399130000000007
21
-107.2445999999999913
0
LINE
8
BLACK
6
CONTINUOUS
10
23.4399130000000007
20
-107.2445999999999913
11
23.535150999999999
21
-107.149360999999999
0
LINE
8
BLACK
6
CONTINUOUS
10
23.535150999999999
20
-107.149360999999999
11
23.535150999999999
21
-107.3398380000000003
0
LINE
8
BLACK
6
CONTINUOUS
10
24.8684839999999987
20
-105.3398380000000003
11
25.058961
21
-105.3398380000000003
0
LINE
8
BLACK
6
CONTINUOUS
10
25.058961
20
-105.3398380000000003
11
25.2494370000000004
21
-105.4350759999999951
0
LINE
8
BLACK
6
CONTINUOUS
10
25.2494370000000004
20
-105.4350759999999951
11
25.3446749999999987
21
-105.53031399999999
0
LINE
8
BLACK
6
CONTINUOUS
10
25.3446749999999987
20
-105.53031399999999
11
25.4399129999999971
21
-105.7207899999999938
0
LINE
8
BLACK
6
CONTINUOUS
10
25.4399129999999971
20
-105.7207899999999938
11
25.535150999999999
21
-106.1017420000000016
0
LINE
8
BLACK
6
CONTINUOUS
10
25.535150999999999
20
-106.1017420000000016
11
25.535150999999999
21
-106.5779330000000016
0
LINE
8
BLACK
6
CONTINUOUS
10
25.535150999999999
20
-106.5779330000000016
11
25.4399129999999971
21
-106.9588849999999951
0
LINE
8
BLACK
6
CONTINUOUS
10
25.4399129999999971
20
-106.9588849999999951
11
25.3446749999999987
21
-107.149360999999999
0
LINE
8
BLACK
6
CONTINUOUS
10
25.3446749999999987
20
-107.149360999999999
11
25.2494370000000004
21
-107.2445999999999913
0
LINE
8
BLACK
6
CONTINUOUS
10
25.2494370000000004
20
-107.2445999999999913
11
25.058961
21
-107.3398380000000003
0
LINE
8
BLACK
6
CONTINUOUS
10
25.058961
20
-107.3398380000000003
11
24.8684839999999987
21
-107.3398380000000003
0
LINE
8
BLACK
6
CONTINUOUS
10
24.8684839999999987
20
-107.3398380000000003
11
24.6780079999999984
21
-107.2445999999999913
0
LINE
8
BLACK
6
CONTINUOUS
10
24.6780079999999984
20
-107.2445999999999913
11
24.58277
21
-107.149360999999999
0
LINE
8
BLACK
6
CONTINUOUS
10
24.58277
20
-107.149360999999999
11
24.4875319999999981
21
-106.9588849999999951
0
LINE
8
BLACK
6
CONTINUOUS
10
24.4875319999999981
20
-106.9588849999999951
11
24.3922939999999997
21
-106.5779330000000016
0
LINE
8
BLACK
6
CONTINUOUS
10
24.3922939999999997
20
-106.5779330000000016
11
24.3922939999999997
21
-106.1017420000000016
0
LINE
8
BLACK
6
CONTINUOUS
10
24.3922939999999997
20
-106.1017420000000016
11
24.4875319999999981
21
-105.7207899999999938
0
LINE
8
BLACK
6
CONTINUOUS
10
24.4875319999999981
20
-105.7207899999999938
11
24.58277
21
-105.53031399999999
0
LINE
8
BLACK
6
CONTINUOUS
10
24.58277
20
-105.53031399999999
11
24.6780079999999984
21
-105.4350759999999951
0
LINE
8
BLACK
6
CONTINUOUS
10
24.6780079999999984
20
-105.4350759999999951
11
24.8684839999999987
21
-105.3398380000000003
0
LINE
8
BLACK
6
CONTINUOUS
10
26.6780079999999984
20
-106.1969799999999964
11
26.4875319999999981
21
-106.1017420000000016
0
LINE
8
BLACK
6
CONTINUOUS
10
26.4875319999999981
20
-106.1017420000000016
11
26.3922939999999997
21
-106.0065039999999925
0
LINE
8
BLACK
6
CONTINUOUS
10
26.3922939999999997
20
-106.0065039999999925
11
26.2970559999999978
21
-105.8160279999999887
0
LINE
8
BLACK
6
CONTINUOUS
10
26.2970559999999978
20
-105.8160279999999887
11
26.2970559999999978
21
-105.7207899999999938
0
LINE
8
BLACK
6
CONTINUOUS
10
26.2970559999999978
20
-105.7207899999999938
11
26.3922939999999997
21
-105.53031399999999
0
LINE
8
BLACK
6
CONTINUOUS
10
26.3922939999999997
20
-105.53031399999999
11
26.4875319999999981
21
-105.4350759999999951
0
LINE
8
BLACK
6
CONTINUOUS
10
26.4875319999999981
20
-105.4350759999999951
11
26.6780079999999984
21
-105.3398380000000003
0
LINE
8
BLACK
6
CONTINUOUS
10
26.6780079999999984
20
-105.3398380000000003
11
27.058961
21
-105.3398380000000003
0
LINE
8
BLACK
6
CONTINUOUS
10
27.058961
20
-105.3398380000000003
11
27.2494370000000004
21
-105.4350759999999951
0
LINE
8
BLACK
6
CONTINUOUS
10
27.2494370000000004
20
-105.4350759999999951
11
27.3446749999999987
21
-105.53031399999999
0
LINE
8
BLACK
6
CONTINUOUS
10
27.3446749999999987
20
-105.53031399999999
11
27.4399129999999971
21
-105.7207899999999938
0
LINE
8
BLACK
6
CONTINUOUS
10
27.4399129999999971
20
-105.7207899999999938
11
27.4399129999999971
21
-105.8160279999999887
0
LINE
8
BLACK
6
CONTINUOUS
10
27.4399129999999971
20
-105.8160279999999887
11
27.3446749999999987
21
-106.0065039999999925
0
LINE
8
BLACK
6
CONTINUOUS
10
27.3446749999999987
20
-106.0065039999999925
11
27.2494370000000004
21
-106.1017420000000016
0
LINE
8
BLACK
6
CONTINUOUS
10
27.2494370000000004
20
-106.1017420000000016
11
27.058961
21
-106.1969799999999964
0
LINE
8
BLACK
6
CONTINUOUS
10
27.058961
20
-106.1969799999999964
11
26.6780079999999984
21
-106.1969799999999964
0
LINE
8
BLACK
6
CONTINUOUS
10
26.6780079999999984
20
-106.1969799999999964
11
26.4875319999999981
21
-106.2922189999999887
0
LINE
8
BLACK
6
CONTINUOUS
10
26.4875319999999981
20
-106.2922189999999887
11
26.3922939999999997
21
-106.3874569999999977
0
LINE
8
BLACK
6
CONTINUOUS
10
26.3922939999999997
20
-106.3874569999999977
11
26.2970559999999978
21
-106.5779330000000016
0
LINE
8
BLACK
6
CONTINUOUS
10
26.2970559999999978
20
-106.5779330000000016
11
26.2970559999999978
21
-106.9588849999999951
0
LINE
8
BLACK
6
CONTINUOUS
10
26.2970559999999978
20
-106.9588849999999951
11
26.3922939999999997
21
-107.149360999999999
0
LINE
8
BLACK
6
CONTINUOUS
10
26.3922939999999997
20
-107.149360999999999
11
26.4875319999999981
21
-107.2445999999999913
0
LINE
8
BLACK
6
CONTINUOUS
10
26.4875319999999981
20
-107.2445999999999913
11
26.6780079999999984
21
-107.3398380000000003
0
LINE
8
BLACK
6
CONTINUOUS
10
26.6780079999999984
20
-107.3398380000000003
11
27.058961
21
-107.3398380000000003
0
LINE
8
BLACK
6
CONTINUOUS
10
27.058961
20
-107.3398380000000003
11
27.2494370000000004
21
-107.2445999999999913
0
LINE
8
BLACK
6
CONTINUOUS
10
27.2494370000000004
20
-107.2445999999999913
11
27.3446749999999987
21
-107.149360999999999
0
LINE
8
BLACK
6
CONTINUOUS
10
27.3446749999999987
20
-107.149360999999999
11
27.4399129999999971
21
-106.9588849999999951
0
LINE
8
BLACK
6
CONTINUOUS
10
27.4399129999999971
20
-106.9588849999999951
11
27.4399129999999971
21
-106.5779330000000016
0
LINE
8
BLACK
6
CONTINUOUS
10
27.4399129999999971
20
-106.5779330000000016
11
27.3446749999999987
21
-106.3874569999999977
0
LINE
8
BLACK
6
CONTINUOUS
10
27.3446749999999987
20
-106.3874569999999977
11
27.2494370000000004
21
-106.2922189999999887
0
LINE
8
BLACK
6
CONTINUOUS
10
27.2494370000000004
20
-106.2922189999999887
11
27.058961
21
-106.1969799999999964
0
LINE
8
BLACK
6
CONTINUOUS
10
29.1541989999999984
20
-105.3398380000000003
11
28.7732460000000003
21
-105.3398380000000003
0
LINE
8
BLACK
6
CONTINUOUS
10
28.7732460000000003
20
-105.3398380000000003
11
28.58277
21
-105.4350759999999951
0
LINE
8
BLACK
6
CONTINUOUS
10
28.58277
20
-105.4350759999999951
11
28.4875319999999981
21
-105.53031399999999
0
LINE
8
BLACK
6
CONTINUOUS
10
28.4875319999999981
20
-105.53031399999999
11
28.2970559999999978
21
-105.8160279999999887
0
LINE
8
BLACK
6
CONTINUOUS
10
28.2970559999999978
20
-105.8160279999999887
11
28.2018179999999994
21
-106.1969799999999964
0
LINE
8
BLACK
6
CONTINUOUS
10
28.2018179999999994
20
-106.1969799999999964
11
28.2018179999999994
21
-106.9588849999999951
0
LINE
8
BLACK
6
CONTINUOUS
10
28.2018179999999994
20
-106.9588849999999951
11
28.2970559999999978
21
-107.149360999999999
0
LINE
8
BLACK
6
CONTINUOUS
10
28.2970559999999978
20
-107.149360999999999
11
28.3922939999999997
21
-107.2445999999999913
0
LINE
8
BLACK
6
CONTINUOUS
10
28.3922939999999997
20
-107.2445999999999913
11
28.58277
21
-107.3398380000000003
0
LINE
8
BLACK
6
CONTINUOUS
10
28.58277
20
-107.3398380000000003
11
28.9637229999999981
21
-107.3398380000000003
0
LINE
8
BLACK
6
CONTINUOUS
10
28.9637229999999981
20
-107.3398380000000003
11
29.1541989999999984
21
-107.2445999999999913
0
LINE
8
BLACK
6
CONTINUOUS
10
29.1541989999999984
20
-107.2445999999999913
11
29.2494370000000004
21
-107.149360999999999
0
LINE
8
BLACK
6
CONTINUOUS
10
29.2494370000000004
20
-107.149360999999999
11
29.3446749999999987
21
-106.9588849999999951
0
LINE
8
BLACK
6
CONTINUOUS
10
29.3446749999999987
20
-106.9588849999999951
11
29.3446749999999987
21
-106.4826949999999925
0
LINE
8
BLACK
6
CONTINUOUS
10
29.3446749999999987
20
-106.4826949999999925
11
29.2494370000000004
21
-106.2922189999999887
0
LINE
8
BLACK
6
CONTINUOUS
10
29.2494370000000004
20
-106.2922189999999887
11
29.1541989999999984
21
-106.1969799999999964
0
LINE
8
BLACK
6
CONTINUOUS
10
29.1541989999999984
20
-106.1969799999999964
11
28.9637229999999981
21
-106.1017420000000016
0
LINE
8
BLACK
6
CONTINUOUS
10
28.9637229999999981
20
-106.1017420000000016
11
28.58277
21
-106.1017420000000016
0
LINE
8
BLACK
6
CONTINUOUS
10
28.58277
20
-106.1017420000000016
11
28.3922939999999997
21
-106.1969799999999964
0
LINE
8
BLACK
6
CONTINUOUS
10
28.3922939999999997
20
-106.1969799999999964
11
28.2970559999999978
21
-106.2922189999999887
0
LINE
8
BLACK
6
CONTINUOUS
10
28.2970559999999978
20
-106.2922189999999887
11
28.2018179999999994
21
-106.4826949999999925
0
LINE
8
BLACK
6
CONTINUOUS
10
31.058961
20
-105.3398380000000003
11
30.6780079999999984
21
-105.3398380000000003
0
LINE
8
BLACK
6
CONTINUOUS
10
30.6780079999999984
20
-105.3398380000000003
11
30.4875319999999981
21
-105.4350759999999951
0
LINE
8
BLACK
6
CONTINUOUS
10
30.4875319999999981
20
-105.4350759999999951
11
30.3922939999999997
21
-105.53031399999999
0
LINE
8
BLACK
6
CONTINUOUS
10
30.3922939999999997
20
-105.53031399999999
11
30.2018179999999994
21
-105.8160279999999887
0
LINE
8
BLACK
6
CONTINUOUS
10
30.2018179999999994
20
-105.8160279999999887
11
30.1065799999999975
21
-106.1969799999999964
0
LINE
8
BLACK
6
CONTINUOUS
10
30.1065799999999975
20
-106.1969799999999964
11
30.1065799999999975
21
-106.9588849999999951
0
LINE
8
BLACK
6
CONTINUOUS
10
30.1065799999999975
20
-106.9588849999999951
11
30.2018179999999994
21
-107.149360999999999
0
LINE
8
BLACK
6
CONTINUOUS
10
30.2018179999999994
20
-107.149360999999999
11
30.2970559999999978
21
-107.2445999999999913
0
LINE
8
BLACK
6
CONTINUOUS
10
30.2970559999999978
20
-107.2445999999999913
11
30.4875319999999981
21
-107.3398380000000003
0
LINE
8
BLACK
6
CONTINUOUS
10
30.4875319999999981
20
-107.3398380000000003
11
30.8684849999999997
21
-107.3398380000000003
0
LINE
8
BLACK
6
CONTINUOUS
10
30.8684849999999997
20
-107.3398380000000003
11
31.058961
21
-107.2445999999999913
0
LINE
8
BLACK
6
CONTINUOUS
10
31.058961
20
-107.2445999999999913
11
31.1541989999999984
21
-107.149360999999999
0
LINE
8
BLACK
6
CONTINUOUS
10
31.1541989999999984
20
-107.149360999999999
11
31.2494370000000004
21
-106.9588849999999951
0
LINE
8
BLACK
6
CONTINUOUS
10
31.2494370000000004
20
-106.9588849999999951
11
31.2494370000000004
21
-106.4826949999999925
0
LINE
8
BLACK
6
CONTINUOUS
10
31.2494370000000004
20
-106.4826949999999925
11
31.1541989999999984
21
-106.2922189999999887
0
LINE
8
BLACK
6
CONTINUOUS
10
31.1541989999999984
20
-106.2922189999999887
11
31.058961
21
-106.1969799999999964
0
LINE
8
BLACK
6
CONTINUOUS
10
31.058961
20
-106.1969799999999964
11
30.8684849999999997
21
-106.1017420000000016
0
LINE
8
BLACK
6
CONTINUOUS
10
30.8684849999999997
20
-106.1017420000000016
11
30.4875319999999981
21
-106.1017420000000016
0
LINE
8
BLACK
6
CONTINUOUS
10
30.4875319999999981
20
-106.1017420000000016
11
30.2970559999999978
21
-106.1969799999999964
0
LINE
8
BLACK
6
CONTINUOUS
10
30.2970559999999978
20
-106.1969799999999964
11
30.2018179999999994
21
-106.2922189999999887
0
LINE
8
BLACK
6
CONTINUOUS
10
30.2018179999999994
20
-106.2922189999999887
11
30.1065799999999975
21
-106.4826949999999925
0
LINE
8
BLACK
6
CONTINUOUS
10
32.0113419999999991
20
-105.3398380000000003
11
32.0113419999999991
21
-105.7207899999999938
0
LINE
8
BLACK
6
CONTINUOUS
10
32.7732469999999978
20
-105.3398380000000003
11
32.7732469999999978
21
-105.7207899999999938
0
LINE
8
BLACK
6
CONTINUOUS
10
35.7256289999999979
20
-108.1017420000000016
11
35.6303899999999985
21
-108.0065039999999925
0
LINE
8
BLACK
6
CONTINUOUS
10
35.6303899999999985
20
-108.0065039999999925
11
35.4399140000000017
21
-107.7207899999999938
0
LINE
8
BLACK
6
CONTINUOUS
10
35.4399140000000017
20
-107.7207899999999938
11
35.3446759999999998
21
-107.53031399999999
0
LINE
8
BLACK
6
CONTINUOUS
10
35.3446759999999998
20
-107.53031399999999
11
35.2494379999999978
21
-107.2445999999999913
0
LINE
8
BLACK
6
CONTINUOUS
10
35.2494379999999978
20
-107.2445999999999913
11
35.1541999999999959
21
-106.7684089999999912
0
LINE
8
BLACK
6
CONTINUOUS
10
35.1541999999999959
20
-106.7684089999999912
11
35.1541999999999959
21
-106.3874569999999977
0
LINE
8
BLACK
6
CONTINUOUS
10
35.1541999999999959
20
-106.3874569999999977
11
35.2494379999999978
21
-105.9112659999999977
0
LINE
8
BLACK
6
CONTINUOUS
10
35.2494379999999978
20
-105.9112659999999977
11
35.3446759999999998
21
-105.625551999999999
0
LINE
8
BLACK
6
CONTINUOUS
10
35.3446759999999998
20
-105.625551999999999
11
35.4399140000000017
21
-105.4350759999999951
0
LINE
8
BLACK
6
CONTINUOUS
10
35.4399140000000017
20
-105.4350759999999951
11
35.6303899999999985
21
-105.149360999999999
0
LINE
8
BLACK
6
CONTINUOUS
10
35.6303899999999985
20
-105.149360999999999
11
35.7256289999999979
21
-105.0541229999999899
0
LINE
8
BLACK
6
CONTINUOUS
10
37.5351519999999965
20
-107.3398380000000003
11
36.3922949999999972
21
-107.3398380000000003
0
LINE
8
BLACK
6
CONTINUOUS
10
36.9637230000000017
20
-107.3398380000000003
11
36.9637230000000017
21
-105.3398380000000003
0
LINE
8
BLACK
6
CONTINUOUS
10
36.9637230000000017
20
-105.3398380000000003
11
36.7732469999999978
21
-105.625551999999999
0
LINE
8
BLACK
6
CONTINUOUS
10
36.7732469999999978
20
-105.625551999999999
11
36.582771000000001
21
-105.8160279999999887
0
LINE
8
BLACK
6
CONTINUOUS
10
36.582771000000001
20
-105.8160279999999887
11
36.3922949999999972
21
-105.9112659999999977
0
LINE
8
BLACK
6
CONTINUOUS
10
38.2018190000000004
20
-105.3398380000000003
11
39.5351519999999965
21
-105.3398380000000003
0
LINE
8
BLACK
6
CONTINUOUS
10
39.5351519999999965
20
-105.3398380000000003
11
38.6780089999999959
21
-107.3398380000000003
0
LINE
8
BLACK
6
CONTINUOUS
10
41.8208669999999998
20
-107.3398380000000003
11
41.8208669999999998
21
-105.3398380000000003
0
LINE
8
BLACK
6
CONTINUOUS
10
42.6780100000000004
20
-107.3398380000000003
11
42.6780100000000004
21
-106.2922189999999887
0
LINE
8
BLACK
6
CONTINUOUS
10
42.6780100000000004
20
-106.2922189999999887
11
42.5827719999999985
21
-106.1017420000000016
0
LINE
8
BLACK
6
CONTINUOUS
10
42.5827719999999985
20
-106.1017420000000016
11
42.3922959999999946
21
-106.0065039999999925
0
LINE
8
BLACK
6
CONTINUOUS
10
42.3922959999999946
20
-106.0065039999999925
11
42.1065809999999985
21
-106.0065039999999925
0
LINE
8
BLACK
6
CONTINUOUS
10
42.1065809999999985
20
-106.0065039999999925
11
41.9161049999999946
21
-106.1017420000000016
0
LINE
8
BLACK
6
CONTINUOUS
10
41.9161049999999946
20
-106.1017420000000016
11
41.8208669999999998
21
-106.1969799999999964
0
LINE
8
BLACK
6
CONTINUOUS
10
43.9161049999999946
20
-107.3398380000000003
11
43.7256289999999979
21
-107.2445999999999913
0
LINE
8
BLACK
6
CONTINUOUS
10
43.7256289999999979
20
-107.2445999999999913
11
43.6303909999999959
21
-107.149360999999999
0
LINE
8
BLACK
6
CONTINUOUS
10
43.6303909999999959
20
-107.149360999999999
11
43.5351530000000011
21
-106.9588849999999951
0
LINE
8
BLACK
6
CONTINUOUS
10
43.5351530000000011
20
-106.9588849999999951
11
43.5351530000000011
21
-106.3874569999999977
0
LINE
8
BLACK
6
CONTINUOUS
10
43.5351530000000011
20
-106.3874569999999977
11
43.6303909999999959
21
-106.1969799999999964
0
LINE
8
BLACK
6
CONTINUOUS
10
43.6303909999999959
20
-106.1969799999999964
11
43.7256289999999979
21
-106.1017420000000016
0
LINE
8
BLACK
6
CONTINUOUS
10
43.7256289999999979
20
-106.1017420000000016
11
43.9161049999999946
21
-106.0065039999999925
0
LINE
8
BLACK
6
CONTINUOUS
10
43.9161049999999946
20
-106.0065039999999925
11
44.2018199999999979
21
-106.0065039999999925
0
LINE
8
BLACK
6
CONTINUOUS
10
44.2018199999999979
20
-106.0065039999999925
11
44.3922959999999946
21
-106.1017420000000016
0
LINE
8
BLACK
6
CONTINUOUS
10
44.3922959999999946
20
-106.1017420000000016
11
44.4875339999999966
21
-106.1969799999999964
0
LINE
8
BLACK
6
CONTINUOUS
10
44.4875339999999966
20
-106.1969799999999964
11
44.5827719999999985
21
-106.3874569999999977
0
LINE
8
BLACK
6
CONTINUOUS
10
44.5827719999999985
20
-106.3874569999999977
11
44.5827719999999985
21
-106.9588849999999951
0
LINE
8
BLACK
6
CONTINUOUS
10
44.5827719999999985
20
-106.9588849999999951
11
44.4875339999999966
21
-107.149360999999999
0
LINE
8
BLACK
6
CONTINUOUS
10
44.4875339999999966
20
-107.149360999999999
11
44.3922959999999946
21
-107.2445999999999913
0
LINE
8
BLACK
6
CONTINUOUS
10
44.3922959999999946
20
-107.2445999999999913
11
44.2018199999999979
21
-107.3398380000000003
0
LINE
8
BLACK
6
CONTINUOUS
10
44.2018199999999979
20
-107.3398380000000003
11
43.9161049999999946
21
-107.3398380000000003
0
LINE
8
BLACK
6
CONTINUOUS
10
45.7256289999999979
20
-107.3398380000000003
11
45.5351530000000011
21
-107.2445999999999913
0
LINE
8
BLACK
6
CONTINUOUS
10
45.5351530000000011
20
-107.2445999999999913
11
45.4399149999999992
21
-107.0541229999999899
0
LINE
8
BLACK
6
CONTINUOUS
10
45.4399149999999992
20
-107.0541229999999899
11
45.4399149999999992
21
-105.3398380000000003
0
LINE
8
BLACK
6
CONTINUOUS
10
47.2494389999999953
20
-107.2445999999999913
11
47.0589629999999985
21
-107.3398380000000003
0
LINE
8
BLACK
6
CONTINUOUS
10
47.0589629999999985
20
-107.3398380000000003
11
46.6780100000000004
21
-107.3398380000000003
0
LINE
8
BLACK
6
CONTINUOUS
10
46.6780100000000004
20
-107.3398380000000003
11
46.4875339999999966
21
-107.2445999999999913
0
LINE
8
BLACK
6
CONTINUOUS
10
46.4875339999999966
20
-107.2445999999999913
11
46.3922959999999946
21
-107.0541229999999899
0
LINE
8
BLACK
6
CONTINUOUS
10
46.3922959999999946
20
-107.0541229999999899
11
46.3922959999999946
21
-106.2922189999999887
0
LINE
8
BLACK
6
CONTINUOUS
10
46.3922959999999946
20
-106.2922189999999887
11
46.4875339999999966
21
-106.1017420000000016
0
LINE
8
BLACK
6
CONTINUOUS
10
46.4875339999999966
20
-106.1017420000000016
11
46.6780100000000004
21
-106.0065039999999925
0
LINE
8
BLACK
6
CONTINUOUS
10
46.6780100000000004
20
-106.0065039999999925
11
47.0589629999999985
21
-106.0065039999999925
0
LINE
8
BLACK
6
CONTINUOUS
10
47.0589629999999985
20
-106.0065039999999925
11
47.2494389999999953
21
-106.1017420000000016
0
LINE
8
BLACK
6
CONTINUOUS
10
47.2494389999999953
20
-106.1017420000000016
11
47.3446769999999972
21
-106.2922189999999887
0
LINE
8
BLACK
6
CONTINUOUS
10
47.3446769999999972
20
-106.2922189999999887
11
47.3446769999999972
21
-106.4826949999999925
0
LINE
8
BLACK
6
CONTINUOUS
10
47.3446769999999972
20
-106.4826949999999925
11
46.3922959999999946
21
-106.6731709999999964
0
LINE
8
BLACK
6
CONTINUOUS
10
48.106581999999996
20
-107.2445999999999913
11
48.2970579999999998
21
-107.3398380000000003
0
LINE
8
BLACK
6
CONTINUOUS
10
48.2970579999999998
20
-107.3398380000000003
11
48.6780100000000004
21
-107.3398380000000003
0
LINE
8
BLACK
6
CONTINUOUS
10
48.6780100000000004
20
-107.3398380000000003
11
48.8684869999999947
21
-107.2445999999999913
0
LINE
8
BLACK
6
CONTINUOUS
10
48.8684869999999947
20
-107.2445999999999913
11
48.9637249999999966
21
-107.0541229999999899
0
LINE
8
BLACK
6
CONTINUOUS
10
48.9637249999999966
20
-107.0541229999999899
11
48.9637249999999966
21
-106.9588849999999951
0
LINE
8
BLACK
6
CONTINUOUS
10
48.9637249999999966
20
-106.9588849999999951
11
48.8684869999999947
21
-106.7684089999999912
0
LINE
8
BLACK
6
CONTINUOUS
10
48.8684869999999947
20
-106.7684089999999912
11
48.6780100000000004
21
-106.6731709999999964
0
LINE
8
BLACK
6
CONTINUOUS
10
48.6780100000000004
20
-106.6731709999999964
11
48.3922959999999946
21
-106.6731709999999964
0
LINE
8
BLACK
6
CONTINUOUS
10
48.3922959999999946
20
-106.6731709999999964
11
48.2018199999999979
21
-106.5779330000000016
0
LINE
8
BLACK
6
CONTINUOUS
10
48.2018199999999979
20
-106.5779330000000016
11
48.106581999999996
21
-106.3874569999999977
0
LINE
8
BLACK
6
CONTINUOUS
10
48.106581999999996
20
-106.3874569999999977
11
48.106581999999996
21
-106.2922189999999887
0
LINE
8
BLACK
6
CONTINUOUS
10
48.106581999999996
20
-106.2922189999999887
11
48.2018199999999979
21
-106.1017420000000016
0
LINE
8
BLACK
6
CONTINUOUS
10
48.2018199999999979
20
-106.1017420000000016
11
48.3922959999999946
21
-106.0065039999999925
0
LINE
8
BLACK
6
CONTINUOUS
10
48.3922959999999946
20
-106.0065039999999925
11
48.6780100000000004
21
-106.0065039999999925
0
LINE
8
BLACK
6
CONTINUOUS
10
48.6780100000000004
20
-106.0065039999999925
11
48.8684869999999947
21
-106.1017420000000016
0
LINE
8
BLACK
6
CONTINUOUS
10
49.6303920000000005
20
-108.1017420000000016
11
49.7256299999999953
21
-108.0065039999999925
0
LINE
8
BLACK
6
CONTINUOUS
10
49.7256299999999953
20
-108.0065039999999925
11
49.9161059999999992
21
-107.7207899999999938
0
LINE
8
BLACK
6
CONTINUOUS
10
49.9161059999999992
20
-107.7207899999999938
11
50.0113440000000011
21
-107.53031399999999
0
LINE
8
BLACK
6
CONTINUOUS
10
50.0113440000000011
20
-107.53031399999999
11
50.106581999999996
21
-107.2445999999999913
0
LINE
8
BLACK
6
CONTINUOUS
10
50.106581999999996
20
-107.2445999999999913
11
50.2018199999999979
21
-106.7684089999999912
0
LINE
8
BLACK
6
CONTINUOUS
10
50.2018199999999979
20
-106.7684089999999912
11
50.2018199999999979
21
-106.3874569999999977
0
LINE
8
BLACK
6
CONTINUOUS
10
50.2018199999999979
20
-106.3874569999999977
11
50.106581999999996
21
-105.9112659999999977
0
LINE
8
BLACK
6
CONTINUOUS
10
50.106581999999996
20
-105.9112659999999977
11
50.0113440000000011
21
-105.625551999999999
0
LINE
8
BLACK
6
CONTINUOUS
10
50.0113440000000011
20
-105.625551999999999
11
49.9161059999999992
21
-105.4350759999999951
0
LINE
8
BLACK
6
CONTINUOUS
10
49.9161059999999992
20
-105.4350759999999951
11
49.7256299999999953
21
-105.149360999999999
0
LINE
8
BLACK
6
CONTINUOUS
10
49.7256299999999953
20
-105.149360999999999
11
49.6303920000000005
21
-105.0541229999999899
0
LINE
8
BLACK
6
CONTINUOUS
10
53.2494399999999999
20
-108.1017420000000016
11
53.1542010000000005
21
-108.0065039999999925
0
LINE
8
BLACK
6
CONTINUOUS
10
53.1542010000000005
20
-108.0065039999999925
11
52.9637249999999966
21
-107.7207899999999938
0
LINE
8
BLACK
6
CONTINUOUS
10
52.9637249999999966
20
-107.7207899999999938
11
52.8684869999999947
21
-107.53031399999999
0
LINE
8
BLACK
6
CONTINUOUS
10
52.8684869999999947
20
-107.53031399999999
11
52.7732489999999999
21
-107.2445999999999913
0
LINE
8
BLACK
6
CONTINUOUS
10
52.7732489999999999
20
-107.2445999999999913
11
52.6780109999999979
21
-106.7684089999999912
0
LINE
8
BLACK
6
CONTINUOUS
10
52.6780109999999979
20
-106.7684089999999912
11
52.6780109999999979
21
-106.3874569999999977
0
LINE
8
BLACK
6
CONTINUOUS
10
52.6780109999999979
20
-106.3874569999999977
11
52.7732489999999999
21
-105.9112659999999977
0
LINE
8
BLACK
6
CONTINUOUS
10
52.7732489999999999
20
-105.9112659999999977
11
52.8684869999999947
21
-105.625551999999999
0
LINE
8
BLACK
6
CONTINUOUS
10
52.8684869999999947
20
-105.625551999999999
11
52.9637249999999966
21
-105.4350759999999951
0
LINE
8
BLACK
6
CONTINUOUS
10
52.9637249999999966
20
-105.4350759999999951
11
53.1542010000000005
21
-105.149360999999999
0
LINE
8
BLACK
6
CONTINUOUS
10
53.1542010000000005
20
-105.149360999999999
11
53.2494399999999999
21
-105.0541229999999899
0
LINE
8
BLACK
6
CONTINUOUS
10
54.011343999999994
20
-106.0065039999999925
11
54.011343999999994
21
-107.3398380000000003
0
LINE
8
BLACK
6
CONTINUOUS
10
54.011343999999994
20
-106.1969799999999964
11
54.106581999999996
21
-106.1017420000000016
0
LINE
8
BLACK
6
CONTINUOUS
10
54.106581999999996
20
-106.1017420000000016
11
54.2970579999999998
21
-106.0065039999999925
0
LINE
8
BLACK
6
CONTINUOUS
10
54.2970579999999998
20
-106.0065039999999925
11
54.582772999999996
21
-106.0065039999999925
0
LINE
8
BLACK
6
CONTINUOUS
10
54.582772999999996
20
-106.0065039999999925
11
54.7732489999999999
21
-106.1017420000000016
0
LINE
8
BLACK
6
CONTINUOUS
10
54.7732489999999999
20
-106.1017420000000016
11
54.8684869999999947
21
-106.2922189999999887
0
LINE
8
BLACK
6
CONTINUOUS
10
54.8684869999999947
20
-106.2922189999999887
11
54.8684869999999947
21
-107.3398380000000003
0
LINE
8
BLACK
6
CONTINUOUS
10
56.106581999999996
20
-107.3398380000000003
11
55.9161059999999992
21
-107.2445999999999913
0
LINE
8
BLACK
6
CONTINUOUS
10
55.9161059999999992
20
-107.2445999999999913
11
55.8208679999999973
21
-107.149360999999999
0
LINE
8
BLACK
6
CONTINUOUS
10
55.8208679999999973
20
-107.149360999999999
11
55.7256299999999953
21
-106.9588849999999951
0
LINE
8
BLACK
6
CONTINUOUS
10
55.7256299999999953
20
-106.9588849999999951
11
55.7256299999999953
21
-106.3874569999999977
0
LINE
8
BLACK
6
CONTINUOUS
10
55.7256299999999953
20
-106.3874569999999977
11
55.8208679999999973
21
-106.1969799999999964
0
LINE
8
BLACK
6
CONTINUOUS
10
55.8208679999999973
20
-106.1969799999999964
11
55.9161059999999992
21
-106.1017420000000016
0
LINE
8
BLACK
6
CONTINUOUS
10
55.9161059999999992
20
-106.1017420000000016
11
56.106581999999996
21
-106.0065039999999925
0
LINE
8
BLACK
6
CONTINUOUS
10
56.106581999999996
20
-106.0065039999999925
11
56.3922969999999992
21
-106.0065039999999925
0
LINE
8
BLACK
6
CONTINUOUS
10
56.3922969999999992
20
-106.0065039999999925
11
56.582772999999996
21
-106.1017420000000016
0
LINE
8
BLACK
6
CONTINUOUS
10
56.582772999999996
20
-106.1017420000000016
11
56.6780109999999979
21
-106.1969799999999964
0
LINE
8
BLACK
6
CONTINUOUS
10
56.6780109999999979
20
-106.1969799999999964
11
56.7732489999999999
21
-106.3874569999999977
0
LINE
8
BLACK
6
CONTINUOUS
10
56.7732489999999999
20
-106.3874569999999977
11
56.7732489999999999
21
-106.9588849999999951
0
LINE
8
BLACK
6
CONTINUOUS
10
56.7732489999999999
20
-106.9588849999999951
11
56.6780109999999979
21
-107.149360999999999
0
LINE
8
BLACK
6
CONTINUOUS
10
56.6780109999999979
20
-107.149360999999999
11
56.582772999999996
21
-107.2445999999999913
0
LINE
8
BLACK
6
CONTINUOUS
10
56.582772999999996
20
-107.2445999999999913
11
56.3922969999999992
21
-107.3398380000000003
0
LINE
8
BLACK
6
CONTINUOUS
10
56.3922969999999992
20
-107.3398380000000003
11
56.106581999999996
21
-107.3398380000000003
0
LINE
8
BLACK
6
CONTINUOUS
10
57.3446779999999947
20
-106.0065039999999925
11
58.106581999999996
21
-106.0065039999999925
0
LINE
8
BLACK
6
CONTINUOUS
10
57.6303920000000005
20
-105.3398380000000003
11
57.6303920000000005
21
-107.0541229999999899
0
LINE
8
BLACK
6
CONTINUOUS
10
57.6303920000000005
20
-107.0541229999999899
11
57.7256299999999953
21
-107.2445999999999913
0
LINE
8
BLACK
6
CONTINUOUS
10
57.7256299999999953
20
-107.2445999999999913
11
57.9161059999999992
21
-107.3398380000000003
0
LINE
8
BLACK
6
CONTINUOUS
10
57.9161059999999992
20
-107.3398380000000003
11
58.106581999999996
21
-107.3398380000000003
0
LINE
8
BLACK
6
CONTINUOUS
10
60.2970589999999973
20
-106.0065039999999925
11
60.2970589999999973
21
-108.0065039999999925
0
LINE
8
BLACK
6
CONTINUOUS
10
60.2970589999999973
20
-106.1017420000000016
11
60.4875349999999941
21
-106.0065039999999925
0
LINE
8
BLACK
6
CONTINUOUS
10
60.4875349999999941
20
-106.0065039999999925
11
60.8684879999999993
21
-106.0065039999999925
0
LINE
8
BLACK
6
CONTINUOUS
10
60.8684879999999993
20
-106.0065039999999925
11
61.058963999999996
21
-106.1017420000000016
0
LINE
8
BLACK
6
CONTINUOUS
10
61.058963999999996
20
-106.1017420000000016
11
61.154201999999998
21
-106.1969799999999964
0
LINE
8
BLACK
6
CONTINUOUS
10
61.154201999999998
20
-106.1969799999999964
11
61.2494399999999999
21
-106.3874569999999977
0
LINE
8
BLACK
6
CONTINUOUS
10
61.2494399999999999
20
-106.3874569999999977
11
61.2494399999999999
21
-106.9588849999999951
0
LINE
8
BLACK
6
CONTINUOUS
10
61.2494399999999999
20
-106.9588849999999951
11
61.154201999999998
21
-107.149360999999999
0
LINE
8
BLACK
6
CONTINUOUS
10
61.154201999999998
20
-107.149360999999999
11
61.058963999999996
21
-107.2445999999999913
0
LINE
8
BLACK
6
CONTINUOUS
10
61.058963999999996
20
-107.2445999999999913
11
60.8684879999999993
21
-107.3398380000000003
0
LINE
8
BLACK
6
CONTINUOUS
10
60.8684879999999993
20
-107.3398380000000003
11
60.4875349999999941
21
-107.3398380000000003
0
LINE
8
BLACK
6
CONTINUOUS
10
60.4875349999999941
20
-107.3398380000000003
11
60.2970589999999973
21
-107.2445999999999913
0
LINE
8
BLACK
6
CONTINUOUS
10
62.3922969999999992
20
-107.3398380000000003
11
62.2018209999999954
21
-107.2445999999999913
0
LINE
8
BLACK
6
CONTINUOUS
10
62.2018209999999954
20
-107.2445999999999913
11
62.1065830000000005
21
-107.0541229999999899
0
LINE
8
BLACK
6
CONTINUOUS
10
62.1065830000000005
20
-107.0541229999999899
11
62.1065830000000005
21
-105.3398380000000003
0
LINE
8
BLACK
6
CONTINUOUS
10
64.0113449999999915
20
-107.3398380000000003
11
64.0113449999999915
21
-106.2922189999999887
0
LINE
8
BLACK
6
CONTINUOUS
10
64.0113449999999915
20
-106.2922189999999887
11
63.9161069999999967
21
-106.1017420000000016
0
LINE
8
BLACK
6
CONTINUOUS
10
63.9161069999999967
20
-106.1017420000000016
11
63.7256309999999999
21
-106.0065039999999925
0
LINE
8
BLACK
6
CONTINUOUS
10
63.7256309999999999
20
-106.0065039999999925
11
63.3446779999999947
21
-106.0065039999999925
0
LINE
8
BLACK
6
CONTINUOUS
10
63.3446779999999947
20
-106.0065039999999925
11
63.154201999999998
21
-106.1017420000000016
0
LINE
8
BLACK
6
CONTINUOUS
10
64.0113449999999915
20
-107.2445999999999913
11
63.8208689999999947
21
-107.3398380000000003
0
LINE
8
BLACK
6
CONTINUOUS
10
63.8208689999999947
20
-107.3398380000000003
11
63.3446779999999947
21
-107.3398380000000003
0
LINE
8
BLACK
6
CONTINUOUS
10
63.3446779999999947
20
-107.3398380000000003
11
63.154201999999998
21
-107.2445999999999913
0
LINE
8
BLACK
6
CONTINUOUS
10
63.154201999999998
20
-107.2445999999999913
11
63.058963999999996
21
-107.0541229999999899
0
LINE
8
BLACK
6
CONTINUOUS
10
63.058963999999996
20
-107.0541229999999899
11
63.058963999999996
21
-106.8636470000000003
0
LINE
8
BLACK
6
CONTINUOUS
10
63.058963999999996
20
-106.8636470000000003
11
63.154201999999998
21
-106.6731709999999964
0
LINE
8
BLACK
6
CONTINUOUS
10
63.154201999999998
20
-106.6731709999999964
11
63.3446779999999947
21
-106.5779330000000016
0
LINE
8
BLACK
6
CONTINUOUS
10
63.3446779999999947
20
-106.5779330000000016
11
63.8208689999999947
21
-106.5779330000000016
0
LINE
8
BLACK
6
CONTINUOUS
10
63.8208689999999947
20
-106.5779330000000016
11
64.0113449999999915
21
-106.4826949999999925
0
LINE
8
BLACK
6
CONTINUOUS
10
64.6780119999999954
20
-106.0065039999999925
11
65.4399159999999966
21
-106.0065039999999925
0
LINE
8
BLACK
6
CONTINUOUS
10
64.9637259999999941
20
-105.3398380000000003
11
64.9637259999999941
21
-107.0541229999999899
0
LINE
8
BLACK
6
CONTINUOUS
10
64.9637259999999941
20
-107.0541229999999899
11
65.0589640000000031
21
-107.2445999999999913
0
LINE
8
BLACK
6
CONTINUOUS
10
65.0589640000000031
20
-107.2445999999999913
11
65.2494399999999928
21
-107.3398380000000003
0
LINE
8
BLACK
6
CONTINUOUS
10
65.2494399999999928
20
-107.3398380000000003
11
65.4399159999999966
21
-107.3398380000000003
0
LINE
8
BLACK
6
CONTINUOUS
10
66.8684879999999993
20
-107.2445999999999913
11
66.6780119999999954
21
-107.3398380000000003
0
LINE
8
BLACK
6
CONTINUOUS
10
66.6780119999999954
20
-107.3398380000000003
11
66.2970589999999902
21
-107.3398380000000003
0
LINE
8
BLACK
6
CONTINUOUS
10
66.2970589999999902
20
-107.3398380000000003
11
66.1065830000000005
21
-107.2445999999999913
0
LINE
8
BLACK
6
CONTINUOUS
10
66.1065830000000005
20
-107.2445999999999913
11
66.0113449999999915
21
-107.0541229999999899
0
LINE
8
BLACK
6
CONTINUOUS
10
66.0113449999999915
20
-107.0541229999999899
11
66.0113449999999915
21
-106.2922189999999887
0
LINE
8
BLACK
6
CONTINUOUS
10
66.0113449999999915
20
-106.2922189999999887
11
66.1065830000000005
21
-106.1017420000000016
0
LINE
8
BLACK
6
CONTINUOUS
10
66.1065830000000005
20
-106.1017420000000016
11
66.2970589999999902
21
-106.0065039999999925
0
LINE
8
BLACK
6
CONTINUOUS
10
66.2970589999999902
20
-106.0065039999999925
11
66.6780119999999954
21
-106.0065039999999925
0
LINE
8
BLACK
6
CONTINUOUS
10
66.6780119999999954
20
-106.0065039999999925
11
66.8684879999999993
21
-106.1017420000000016
0
LINE
8
BLACK
6
CONTINUOUS
10
66.8684879999999993
20
-106.1017420000000016
11
66.9637259999999941
21
-106.2922189999999887
0
LINE
8
BLACK
6
CONTINUOUS
10
66.9637259999999941
20
-106.2922189999999887
11
66.9637259999999941
21
-106.4826949999999925
0
LINE
8
BLACK
6
CONTINUOUS
10
66.9637259999999941
20
-106.4826949999999925
11
66.0113449999999915
21
-106.6731709999999964
0
LINE
8
BLACK
6
CONTINUOUS
10
68.6780119999999954
20
-107.3398380000000003
11
68.6780119999999954
21
-105.3398380000000003
0
LINE
8
BLACK
6
CONTINUOUS
10
68.6780119999999954
20
-107.2445999999999913
11
68.4875359999999915
21
-107.3398380000000003
0
LINE
8
BLACK
6
CONTINUOUS
10
68.4875359999999915
20
-107.3398380000000003
11
68.1065830000000005
21
-107.3398380000000003
0
LINE
8
BLACK
6
CONTINUOUS
10
68.1065830000000005
20
-107.3398380000000003
11
67.9161069999999967
21
-107.2445999999999913
0
LINE
8
BLACK
6
CONTINUOUS
10
67.9161069999999967
20
-107.2445999999999913
11
67.8208690000000018
21
-107.149360999999999
0
LINE
8
BLACK
6
CONTINUOUS
10
67.8208690000000018
20
-107.149360999999999
11
67.7256309999999928
21
-106.9588849999999951
0
LINE
8
BLACK
6
CONTINUOUS
10
67.7256309999999928
20
-106.9588849999999951
11
67.7256309999999928
21
-106.3874569999999977
0
LINE
8
BLACK
6
CONTINUOUS
10
67.7256309999999928
20
-106.3874569999999977
11
67.8208690000000018
21
-106.1969799999999964
0
LINE
8
BLACK
6
CONTINUOUS
10
67.8208690000000018
20
-106.1969799999999964
11
67.9161069999999967
21
-106.1017420000000016
0
LINE
8
BLACK
6
CONTINUOUS
10
67.9161069999999967
20
-106.1017420000000016
11
68.1065830000000005
21
-106.0065039999999925
0
LINE
8
BLACK
6
CONTINUOUS
10
68.1065830000000005
20
-106.0065039999999925
11
68.4875359999999915
21
-106.0065039999999925
0
LINE
8
BLACK
6
CONTINUOUS
10
68.4875359999999915
20
-106.0065039999999925
11
68.6780119999999954
21
-106.1017420000000016
0
LINE
8
BLACK
6
CONTINUOUS
10
69.4399169999999941
20
-108.1017420000000016
11
69.5351550000000032
21
-108.0065039999999925
0
LINE
8
BLACK
6
CONTINUOUS
10
69.5351550000000032
20
-108.0065039999999925
11
69.7256309999999928
21
-107.7207899999999938
0
LINE
8
BLACK
6
CONTINUOUS
10
69.7256309999999928
20
-107.7207899999999938
11
69.8208690000000018
21
-107.53031399999999
0
LINE
8
BLACK
6
CONTINUOUS
10
69.8208690000000018
20
-107.53031399999999
11
69.9161069999999967
21
-107.2445999999999913
0
LINE
8
BLACK
6
CONTINUOUS
10
69.9161069999999967
20
-107.2445999999999913
11
70.0113449999999915
21
-106.7684089999999912
0
LINE
8
BLACK
6
CONTINUOUS
10
70.0113449999999915
20
-106.7684089999999912
11
70.0113449999999915
21
-106.3874569999999977
0
LINE
8
BLACK
6
CONTINUOUS
10
70.0113449999999915
20
-106.3874569999999977
11
69.9161069999999967
21
-105.9112659999999977
0
LINE
8
BLACK
6
CONTINUOUS
10
69.9161069999999967
20
-105.9112659999999977
11
69.8208690000000018
21
-105.625551999999999
0
LINE
8
BLACK
6
CONTINUOUS
10
69.8208690000000018
20
-105.625551999999999
11
69.7256309999999928
21
-105.4350759999999951
0
LINE
8
BLACK
6
CONTINUOUS
10
69.7256309999999928
20
-105.4350759999999951
11
69.5351550000000032
21
-105.149360999999999
0
LINE
8
BLACK
6
CONTINUOUS
10
69.5351550000000032
20
-105.149360999999999
11
69.4399169999999941
21
-105.0541229999999899
  0
ENDSEC
  0
EOF
