%TF.GenerationSoftware,KiCad,Pcbnew,8.0.7*%
%TF.CreationDate,2025-01-08T21:00:36+09:00*%
%TF.ProjectId,ledplane,6c656470-6c61-46e6-952e-6b696361645f,rev?*%
%TF.SameCoordinates,Original*%
%TF.FileFunction,Copper,L1,Top*%
%TF.FilePolarity,Positive*%
%FSLAX46Y46*%
G04 Gerber Fmt 4.6, Leading zero omitted, Abs format (unit mm)*
G04 Created by KiCad (PCBNEW 8.0.7) date 2025-01-08 21:00:36*
%MOMM*%
%LPD*%
G01*
G04 APERTURE LIST*
%TA.AperFunction,SMDPad,CuDef*%
%ADD10R,2.700000X3.500000*%
%TD*%
%TA.AperFunction,SMDPad,CuDef*%
%ADD11C,6.000000*%
%TD*%
%TA.AperFunction,SMDPad,CuDef*%
%ADD12R,4.000000X6.000000*%
%TD*%
%TA.AperFunction,Conductor*%
%ADD13C,2.000000*%
%TD*%
G04 APERTURE END LIST*
D10*
%TO.P,D9,1,K*%
%TO.N,Net-(D13-A)*%
X13250000Y-69000000D03*
%TO.P,D9,2,A*%
%TO.N,Net-(D5-K)*%
X11750000Y-56000000D03*
D11*
%TO.P,D9,3,PAD*%
%TO.N,unconnected-(D9-PAD-Pad3)*%
X12500000Y-62500000D03*
%TD*%
D12*
%TO.P,TP7,1,1*%
%TO.N,Net-(D15-K)*%
X53500000Y-75000000D03*
%TD*%
%TO.P,TP3,1,1*%
%TO.N,Net-(D3-A)*%
X53500000Y-25000000D03*
%TD*%
D10*
%TO.P,D2,1,K*%
%TO.N,Net-(D2-K)*%
X38250000Y-19000000D03*
%TO.P,D2,2,A*%
%TO.N,Net-(D2-A)*%
X36750000Y-6000000D03*
D11*
%TO.P,D2,3,PAD*%
%TO.N,unconnected-(D2-PAD-Pad3)*%
X37500000Y-12500000D03*
%TD*%
D10*
%TO.P,D13,1,K*%
%TO.N,Net-(D13-K)*%
X13250000Y-94000000D03*
%TO.P,D13,2,A*%
%TO.N,Net-(D13-A)*%
X11750000Y-81000000D03*
D11*
%TO.P,D13,3,PAD*%
%TO.N,unconnected-(D13-PAD-Pad3)*%
X12500000Y-87500000D03*
%TD*%
D12*
%TO.P,TP5,1,1*%
%TO.N,Net-(D13-K)*%
X25000000Y-75000000D03*
%TD*%
%TO.P,TP8,1,1*%
%TO.N,Net-(D16-K)*%
X75000000Y-75000000D03*
%TD*%
D10*
%TO.P,D11,1,K*%
%TO.N,Net-(D11-K)*%
X63250000Y-69000000D03*
%TO.P,D11,2,A*%
%TO.N,Net-(D11-A)*%
X61750000Y-56000000D03*
D11*
%TO.P,D11,3,PAD*%
%TO.N,unconnected-(D11-PAD-Pad3)*%
X62500000Y-62500000D03*
%TD*%
D10*
%TO.P,D8,1,K*%
%TO.N,Net-(D12-A)*%
X88250000Y-44000000D03*
%TO.P,D8,2,A*%
%TO.N,Net-(D4-K)*%
X86750000Y-31000000D03*
D11*
%TO.P,D8,3,PAD*%
%TO.N,unconnected-(D8-PAD-Pad3)*%
X87500000Y-37500000D03*
%TD*%
D10*
%TO.P,D5,1,K*%
%TO.N,Net-(D5-K)*%
X13250000Y-44000000D03*
%TO.P,D5,2,A*%
%TO.N,Net-(D1-K)*%
X11750000Y-31000000D03*
D11*
%TO.P,D5,3,PAD*%
%TO.N,unconnected-(D5-PAD-Pad3)*%
X12500000Y-37500000D03*
%TD*%
D10*
%TO.P,D15,1,K*%
%TO.N,Net-(D15-K)*%
X63250000Y-94000000D03*
%TO.P,D15,2,A*%
%TO.N,Net-(D11-K)*%
X61750000Y-81000000D03*
D11*
%TO.P,D15,3,PAD*%
%TO.N,unconnected-(D15-PAD-Pad3)*%
X62500000Y-87500000D03*
%TD*%
D10*
%TO.P,D6,1,K*%
%TO.N,Net-(D10-A)*%
X38250000Y-44000000D03*
%TO.P,D6,2,A*%
%TO.N,Net-(D2-K)*%
X36750000Y-31000000D03*
D11*
%TO.P,D6,3,PAD*%
%TO.N,unconnected-(D6-PAD-Pad3)*%
X37500000Y-37500000D03*
%TD*%
D12*
%TO.P,TP1,1,1*%
%TO.N,Net-(D1-A)*%
X25000000Y-25000000D03*
%TD*%
D10*
%TO.P,D10,1,K*%
%TO.N,Net-(D10-K)*%
X38250000Y-69000000D03*
%TO.P,D10,2,A*%
%TO.N,Net-(D10-A)*%
X36750000Y-56000000D03*
D11*
%TO.P,D10,3,PAD*%
%TO.N,unconnected-(D10-PAD-Pad3)*%
X37500000Y-62500000D03*
%TD*%
D12*
%TO.P,TP2,1,1*%
%TO.N,Net-(D2-A)*%
X46500000Y-25000000D03*
%TD*%
D10*
%TO.P,D7,1,K*%
%TO.N,Net-(D11-A)*%
X63250000Y-44000000D03*
%TO.P,D7,2,A*%
%TO.N,Net-(D3-K)*%
X61750000Y-31000000D03*
D11*
%TO.P,D7,3,PAD*%
%TO.N,unconnected-(D7-PAD-Pad3)*%
X62500000Y-37500000D03*
%TD*%
D10*
%TO.P,D14,1,K*%
%TO.N,Net-(D14-K)*%
X38250000Y-94000000D03*
%TO.P,D14,2,A*%
%TO.N,Net-(D10-K)*%
X36750000Y-81000000D03*
D11*
%TO.P,D14,3,PAD*%
%TO.N,unconnected-(D14-PAD-Pad3)*%
X37500000Y-87500000D03*
%TD*%
D10*
%TO.P,D1,1,K*%
%TO.N,Net-(D1-K)*%
X13250000Y-19000000D03*
%TO.P,D1,2,A*%
%TO.N,Net-(D1-A)*%
X11750000Y-6000000D03*
D11*
%TO.P,D1,3,PAD*%
%TO.N,unconnected-(D1-PAD-Pad3)*%
X12500000Y-12500000D03*
%TD*%
D12*
%TO.P,TP6,1,1*%
%TO.N,Net-(D14-K)*%
X46500000Y-75000000D03*
%TD*%
D10*
%TO.P,D3,1,K*%
%TO.N,Net-(D3-K)*%
X63250000Y-19000000D03*
%TO.P,D3,2,A*%
%TO.N,Net-(D3-A)*%
X61750000Y-6000000D03*
D11*
%TO.P,D3,3,PAD*%
%TO.N,unconnected-(D3-PAD-Pad3)*%
X62500000Y-12500000D03*
%TD*%
D10*
%TO.P,D16,1,K*%
%TO.N,Net-(D16-K)*%
X88250000Y-94000000D03*
%TO.P,D16,2,A*%
%TO.N,Net-(D12-K)*%
X86750000Y-81000000D03*
D11*
%TO.P,D16,3,PAD*%
%TO.N,unconnected-(D16-PAD-Pad3)*%
X87500000Y-87500000D03*
%TD*%
D12*
%TO.P,TP4,1,1*%
%TO.N,Net-(D4-A)*%
X75000000Y-25000000D03*
%TD*%
D10*
%TO.P,D4,1,K*%
%TO.N,Net-(D4-K)*%
X88250000Y-19000000D03*
%TO.P,D4,2,A*%
%TO.N,Net-(D4-A)*%
X86750000Y-6000000D03*
D11*
%TO.P,D4,3,PAD*%
%TO.N,unconnected-(D4-PAD-Pad3)*%
X87500000Y-12500000D03*
%TD*%
D10*
%TO.P,D12,1,K*%
%TO.N,Net-(D12-K)*%
X88250000Y-69000000D03*
%TO.P,D12,2,A*%
%TO.N,Net-(D12-A)*%
X86750000Y-56000000D03*
D11*
%TO.P,D12,3,PAD*%
%TO.N,unconnected-(D12-PAD-Pad3)*%
X87500000Y-62500000D03*
%TD*%
D13*
%TO.N,Net-(D4-A)*%
X75000000Y-25000000D02*
X75000000Y-23000000D01*
X75000000Y-23000000D02*
X82000000Y-16000000D01*
X82000000Y-16000000D02*
X82000000Y-8000000D01*
X82000000Y-8000000D02*
X84000000Y-6000000D01*
X84000000Y-6000000D02*
X86750000Y-6000000D01*
%TO.N,Net-(D4-K)*%
X88250000Y-19000000D02*
X88250000Y-29500000D01*
X88250000Y-29500000D02*
X86750000Y-31000000D01*
%TO.N,Net-(D12-A)*%
X88250000Y-44000000D02*
X88250000Y-54500000D01*
X88250000Y-54500000D02*
X86750000Y-56000000D01*
%TO.N,Net-(D12-K)*%
X88250000Y-69000000D02*
X88250000Y-79500000D01*
X88250000Y-79500000D02*
X86750000Y-81000000D01*
%TO.N,Net-(D16-K)*%
X75000000Y-75000000D02*
X82000000Y-82000000D01*
X82000000Y-82000000D02*
X82000000Y-92000000D01*
X82000000Y-92000000D02*
X84000000Y-94000000D01*
X84000000Y-94000000D02*
X88250000Y-94000000D01*
%TO.N,Net-(D15-K)*%
X53500000Y-75000000D02*
X53500000Y-82500000D01*
X53500000Y-82500000D02*
X57000000Y-86000000D01*
X57000000Y-86000000D02*
X57000000Y-91100000D01*
X57000000Y-91100000D02*
X59900000Y-94000000D01*
X59900000Y-94000000D02*
X63250000Y-94000000D01*
%TO.N,Net-(D11-K)*%
X63250000Y-69000000D02*
X63250000Y-79500000D01*
X63250000Y-79500000D02*
X61750000Y-81000000D01*
%TO.N,Net-(D11-A)*%
X63250000Y-44000000D02*
X63250000Y-54500000D01*
X63250000Y-54500000D02*
X61750000Y-56000000D01*
%TO.N,Net-(D3-K)*%
X63250000Y-19000000D02*
X63250000Y-29500000D01*
X63250000Y-29500000D02*
X61750000Y-31000000D01*
%TO.N,Net-(D3-A)*%
X53500000Y-25000000D02*
X53500000Y-18500000D01*
X53500000Y-18500000D02*
X57000000Y-15000000D01*
X57000000Y-15000000D02*
X57000000Y-8000000D01*
X57000000Y-8000000D02*
X59000000Y-6000000D01*
X59000000Y-6000000D02*
X61750000Y-6000000D01*
%TO.N,Net-(D2-A)*%
X46500000Y-25000000D02*
X46500000Y-18500000D01*
X46500000Y-18500000D02*
X43000000Y-15000000D01*
X43000000Y-15000000D02*
X43000000Y-8000000D01*
X43000000Y-8000000D02*
X41000000Y-6000000D01*
X41000000Y-6000000D02*
X36750000Y-6000000D01*
%TO.N,Net-(D1-A)*%
X25000000Y-25000000D02*
X18000000Y-18000000D01*
X18000000Y-18000000D02*
X18000000Y-8000000D01*
X18000000Y-8000000D02*
X16000000Y-6000000D01*
X16000000Y-6000000D02*
X11750000Y-6000000D01*
%TO.N,Net-(D2-K)*%
X38250000Y-19000000D02*
X38250000Y-29500000D01*
X38250000Y-29500000D02*
X36750000Y-31000000D01*
%TO.N,Net-(D10-A)*%
X38250000Y-44000000D02*
X38250000Y-54500000D01*
X38250000Y-54500000D02*
X36750000Y-56000000D01*
%TO.N,Net-(D10-K)*%
X38250000Y-69000000D02*
X38250000Y-79500000D01*
X38250000Y-79500000D02*
X36750000Y-81000000D01*
%TO.N,Net-(D14-K)*%
X46500000Y-75000000D02*
X46500000Y-81500000D01*
X46500000Y-81500000D02*
X43000000Y-85000000D01*
X43000000Y-85000000D02*
X43000000Y-92000000D01*
X43000000Y-92000000D02*
X41000000Y-94000000D01*
X41000000Y-94000000D02*
X38250000Y-94000000D01*
%TO.N,Net-(D13-K)*%
X25000000Y-75000000D02*
X25000000Y-79000000D01*
X25000000Y-79000000D02*
X18000000Y-86000000D01*
X18000000Y-86000000D02*
X18000000Y-93000000D01*
X18000000Y-93000000D02*
X17000000Y-94000000D01*
X17000000Y-94000000D02*
X13250000Y-94000000D01*
%TO.N,Net-(D13-A)*%
X13250000Y-69000000D02*
X13250000Y-79500000D01*
X13250000Y-79500000D02*
X11750000Y-81000000D01*
%TO.N,Net-(D5-K)*%
X13250000Y-44000000D02*
X13250000Y-54500000D01*
X13250000Y-54500000D02*
X11750000Y-56000000D01*
%TO.N,Net-(D1-K)*%
X13250000Y-19000000D02*
X13250000Y-29500000D01*
X13250000Y-29500000D02*
X11750000Y-31000000D01*
%TD*%
%TA.AperFunction,Conductor*%
%TO.N,unconnected-(D12-PAD-Pad3)*%
G36*
X86692539Y-50525185D02*
G01*
X86738294Y-50577989D01*
X86749500Y-50629500D01*
X86749500Y-53625500D01*
X86729815Y-53692539D01*
X86677011Y-53738294D01*
X86625500Y-53749500D01*
X85352129Y-53749500D01*
X85352123Y-53749501D01*
X85292516Y-53755908D01*
X85157671Y-53806202D01*
X85157664Y-53806206D01*
X85042455Y-53892452D01*
X85042452Y-53892455D01*
X84956206Y-54007664D01*
X84956202Y-54007671D01*
X84905908Y-54142517D01*
X84899501Y-54202116D01*
X84899500Y-54202135D01*
X84899500Y-57797870D01*
X84899501Y-57797876D01*
X84905908Y-57857483D01*
X84956202Y-57992328D01*
X84956206Y-57992335D01*
X85042452Y-58107544D01*
X85042455Y-58107547D01*
X85157664Y-58193793D01*
X85157671Y-58193797D01*
X85292517Y-58244091D01*
X85292516Y-58244091D01*
X85299444Y-58244835D01*
X85352127Y-58250500D01*
X88147872Y-58250499D01*
X88207483Y-58244091D01*
X88342331Y-58193796D01*
X88457546Y-58107546D01*
X88543796Y-57992331D01*
X88594091Y-57857483D01*
X88600500Y-57797873D01*
X88600499Y-56322888D01*
X88620184Y-56255850D01*
X88636818Y-56235208D01*
X88994261Y-55877765D01*
X89394517Y-55477510D01*
X89533343Y-55286434D01*
X89640568Y-55075992D01*
X89657952Y-55022490D01*
X89713553Y-54851368D01*
X89750500Y-54618097D01*
X89750500Y-50629500D01*
X89770185Y-50562461D01*
X89822989Y-50516706D01*
X89874500Y-50505500D01*
X99475500Y-50505500D01*
X99542539Y-50525185D01*
X99588294Y-50577989D01*
X99599500Y-50629500D01*
X99599500Y-74370500D01*
X99579815Y-74437539D01*
X99527011Y-74483294D01*
X99475500Y-74494500D01*
X97523791Y-74494500D01*
X97435961Y-74502190D01*
X97435947Y-74502192D01*
X97418259Y-74505314D01*
X97348819Y-74497578D01*
X97294585Y-74453528D01*
X97286227Y-74439495D01*
X97197815Y-74265978D01*
X97181260Y-74243192D01*
X97068247Y-74087641D01*
X97068243Y-74087636D01*
X96912363Y-73931756D01*
X96912358Y-73931752D01*
X96734025Y-73802187D01*
X96734024Y-73802186D01*
X96734022Y-73802185D01*
X96671096Y-73770122D01*
X96537606Y-73702104D01*
X96537603Y-73702103D01*
X96327952Y-73633985D01*
X96219086Y-73616742D01*
X96110222Y-73599500D01*
X95889778Y-73599500D01*
X95817201Y-73610995D01*
X95672047Y-73633985D01*
X95462396Y-73702103D01*
X95462393Y-73702104D01*
X95265974Y-73802187D01*
X95087641Y-73931752D01*
X95087636Y-73931756D01*
X94931756Y-74087636D01*
X94931752Y-74087641D01*
X94802187Y-74265974D01*
X94711733Y-74443498D01*
X94663758Y-74494294D01*
X94595937Y-74511089D01*
X94583602Y-74509941D01*
X94476202Y-74494500D01*
X94476201Y-74494500D01*
X89874500Y-74494500D01*
X89807461Y-74474815D01*
X89761706Y-74422011D01*
X89750500Y-74370500D01*
X89750500Y-71314141D01*
X89770185Y-71247102D01*
X89822989Y-71201347D01*
X89831149Y-71197966D01*
X89842331Y-71193796D01*
X89957546Y-71107546D01*
X90043796Y-70992331D01*
X90094091Y-70857483D01*
X90100500Y-70797873D01*
X90100499Y-67202128D01*
X90094091Y-67142517D01*
X90043796Y-67007669D01*
X90043795Y-67007668D01*
X90043793Y-67007664D01*
X89957547Y-66892455D01*
X89957544Y-66892452D01*
X89842335Y-66806206D01*
X89842328Y-66806202D01*
X89707482Y-66755908D01*
X89707483Y-66755908D01*
X89647883Y-66749501D01*
X89647881Y-66749500D01*
X89647873Y-66749500D01*
X89647864Y-66749500D01*
X86852129Y-66749500D01*
X86852123Y-66749501D01*
X86792516Y-66755908D01*
X86657671Y-66806202D01*
X86657664Y-66806206D01*
X86542455Y-66892452D01*
X86542452Y-66892455D01*
X86456206Y-67007664D01*
X86456202Y-67007671D01*
X86405908Y-67142517D01*
X86399501Y-67202116D01*
X86399501Y-67202123D01*
X86399500Y-67202135D01*
X86399500Y-70797870D01*
X86399501Y-70797876D01*
X86405908Y-70857483D01*
X86456202Y-70992328D01*
X86456206Y-70992335D01*
X86542452Y-71107544D01*
X86542455Y-71107547D01*
X86657665Y-71193794D01*
X86657667Y-71193794D01*
X86657669Y-71193796D01*
X86668830Y-71197958D01*
X86724764Y-71239826D01*
X86749184Y-71305289D01*
X86749500Y-71314141D01*
X86749500Y-74370500D01*
X86729815Y-74437539D01*
X86677011Y-74483294D01*
X86625500Y-74494500D01*
X83523791Y-74494500D01*
X83435961Y-74502190D01*
X83435947Y-74502192D01*
X83418259Y-74505314D01*
X83348819Y-74497578D01*
X83294585Y-74453528D01*
X83286227Y-74439495D01*
X83197815Y-74265978D01*
X83181260Y-74243192D01*
X83068247Y-74087641D01*
X83068243Y-74087636D01*
X82912363Y-73931756D01*
X82912358Y-73931752D01*
X82734025Y-73802187D01*
X82734024Y-73802186D01*
X82734022Y-73802185D01*
X82671096Y-73770122D01*
X82537606Y-73702104D01*
X82537603Y-73702103D01*
X82327952Y-73633985D01*
X82219086Y-73616742D01*
X82110222Y-73599500D01*
X81889778Y-73599500D01*
X81817201Y-73610995D01*
X81672047Y-73633985D01*
X81462396Y-73702103D01*
X81462393Y-73702104D01*
X81265974Y-73802187D01*
X81087641Y-73931752D01*
X81087636Y-73931756D01*
X80931756Y-74087636D01*
X80931752Y-74087641D01*
X80802187Y-74265974D01*
X80711733Y-74443498D01*
X80663758Y-74494294D01*
X80595937Y-74511089D01*
X80583602Y-74509941D01*
X80476202Y-74494500D01*
X80476201Y-74494500D01*
X77624499Y-74494500D01*
X77557460Y-74474815D01*
X77511705Y-74422011D01*
X77500499Y-74370500D01*
X77500499Y-71952129D01*
X77500498Y-71952123D01*
X77494091Y-71892516D01*
X77443797Y-71757671D01*
X77443793Y-71757664D01*
X77357547Y-71642455D01*
X77357544Y-71642452D01*
X77242335Y-71556206D01*
X77242328Y-71556202D01*
X77107482Y-71505908D01*
X77107483Y-71505908D01*
X77047883Y-71499501D01*
X77047881Y-71499500D01*
X77047873Y-71499500D01*
X77047865Y-71499500D01*
X75629500Y-71499500D01*
X75562461Y-71479815D01*
X75516706Y-71427011D01*
X75505500Y-71375500D01*
X75505500Y-62368872D01*
X76184500Y-62368872D01*
X76184500Y-62631127D01*
X76202436Y-62767354D01*
X76218730Y-62891116D01*
X76242974Y-62981595D01*
X76286602Y-63144418D01*
X76286605Y-63144428D01*
X76386953Y-63386690D01*
X76386958Y-63386700D01*
X76518075Y-63613803D01*
X76677718Y-63821851D01*
X76677726Y-63821860D01*
X76863140Y-64007274D01*
X76863148Y-64007281D01*
X77071196Y-64166924D01*
X77298299Y-64298041D01*
X77298309Y-64298046D01*
X77540571Y-64398394D01*
X77540581Y-64398398D01*
X77793884Y-64466270D01*
X78053880Y-64500500D01*
X78053887Y-64500500D01*
X78316113Y-64500500D01*
X78316120Y-64500500D01*
X78576116Y-64466270D01*
X78829419Y-64398398D01*
X79071697Y-64298043D01*
X79298803Y-64166924D01*
X79506851Y-64007282D01*
X79506855Y-64007277D01*
X79506860Y-64007274D01*
X79692274Y-63821860D01*
X79692277Y-63821855D01*
X79692282Y-63821851D01*
X79851924Y-63613803D01*
X79983043Y-63386697D01*
X80083398Y-63144419D01*
X80151270Y-62891116D01*
X80185500Y-62631120D01*
X80185500Y-62368880D01*
X80185499Y-62368872D01*
X94814500Y-62368872D01*
X94814500Y-62631127D01*
X94832436Y-62767354D01*
X94848730Y-62891116D01*
X94872974Y-62981595D01*
X94916602Y-63144418D01*
X94916605Y-63144428D01*
X95016953Y-63386690D01*
X95016958Y-63386700D01*
X95148075Y-63613803D01*
X95307718Y-63821851D01*
X95307726Y-63821860D01*
X95493140Y-64007274D01*
X95493148Y-64007281D01*
X95701196Y-64166924D01*
X95928299Y-64298041D01*
X95928309Y-64298046D01*
X96170571Y-64398394D01*
X96170581Y-64398398D01*
X96423884Y-64466270D01*
X96683880Y-64500500D01*
X96683887Y-64500500D01*
X96946113Y-64500500D01*
X96946120Y-64500500D01*
X97206116Y-64466270D01*
X97459419Y-64398398D01*
X97701697Y-64298043D01*
X97928803Y-64166924D01*
X98136851Y-64007282D01*
X98136855Y-64007277D01*
X98136860Y-64007274D01*
X98322274Y-63821860D01*
X98322277Y-63821855D01*
X98322282Y-63821851D01*
X98481924Y-63613803D01*
X98613043Y-63386697D01*
X98713398Y-63144419D01*
X98781270Y-62891116D01*
X98815500Y-62631120D01*
X98815500Y-62368880D01*
X98781270Y-62108884D01*
X98713398Y-61855581D01*
X98705853Y-61837365D01*
X98613046Y-61613309D01*
X98613041Y-61613299D01*
X98481924Y-61386196D01*
X98322281Y-61178148D01*
X98322274Y-61178140D01*
X98136860Y-60992726D01*
X98136851Y-60992718D01*
X97928803Y-60833075D01*
X97701700Y-60701958D01*
X97701690Y-60701953D01*
X97459428Y-60601605D01*
X97459421Y-60601603D01*
X97459419Y-60601602D01*
X97206116Y-60533730D01*
X97148339Y-60526123D01*
X96946127Y-60499500D01*
X96946120Y-60499500D01*
X96683880Y-60499500D01*
X96683872Y-60499500D01*
X96452772Y-60529926D01*
X96423884Y-60533730D01*
X96170581Y-60601602D01*
X96170571Y-60601605D01*
X95928309Y-60701953D01*
X95928299Y-60701958D01*
X95701196Y-60833075D01*
X95493148Y-60992718D01*
X95307718Y-61178148D01*
X95148075Y-61386196D01*
X95016958Y-61613299D01*
X95016953Y-61613309D01*
X94916605Y-61855571D01*
X94916602Y-61855581D01*
X94848730Y-62108885D01*
X94814500Y-62368872D01*
X80185499Y-62368872D01*
X80151270Y-62108884D01*
X80083398Y-61855581D01*
X80075853Y-61837365D01*
X79983046Y-61613309D01*
X79983041Y-61613299D01*
X79851924Y-61386196D01*
X79692281Y-61178148D01*
X79692274Y-61178140D01*
X79506860Y-60992726D01*
X79506851Y-60992718D01*
X79298803Y-60833075D01*
X79071700Y-60701958D01*
X79071690Y-60701953D01*
X78829428Y-60601605D01*
X78829421Y-60601603D01*
X78829419Y-60601602D01*
X78576116Y-60533730D01*
X78518339Y-60526123D01*
X78316127Y-60499500D01*
X78316120Y-60499500D01*
X78053880Y-60499500D01*
X78053872Y-60499500D01*
X77822772Y-60529926D01*
X77793884Y-60533730D01*
X77540581Y-60601602D01*
X77540571Y-60601605D01*
X77298309Y-60701953D01*
X77298299Y-60701958D01*
X77071196Y-60833075D01*
X76863148Y-60992718D01*
X76677718Y-61178148D01*
X76518075Y-61386196D01*
X76386958Y-61613299D01*
X76386953Y-61613309D01*
X76286605Y-61855571D01*
X76286602Y-61855581D01*
X76218730Y-62108885D01*
X76184500Y-62368872D01*
X75505500Y-62368872D01*
X75505500Y-50629500D01*
X75525185Y-50562461D01*
X75577989Y-50516706D01*
X75629500Y-50505500D01*
X86625500Y-50505500D01*
X86692539Y-50525185D01*
G37*
%TD.AperFunction*%
%TD*%
%TA.AperFunction,Conductor*%
%TO.N,unconnected-(D8-PAD-Pad3)*%
G36*
X97416389Y-25490057D02*
G01*
X97523799Y-25505500D01*
X97523802Y-25505500D01*
X99475500Y-25505500D01*
X99542539Y-25525185D01*
X99588294Y-25577989D01*
X99599500Y-25629500D01*
X99599500Y-49876000D01*
X99579815Y-49943039D01*
X99527011Y-49988794D01*
X99475500Y-50000000D01*
X89874500Y-50000000D01*
X89807461Y-49980315D01*
X89761706Y-49927511D01*
X89750500Y-49876000D01*
X89750500Y-46314141D01*
X89770185Y-46247102D01*
X89822989Y-46201347D01*
X89831149Y-46197966D01*
X89842331Y-46193796D01*
X89957546Y-46107546D01*
X90043796Y-45992331D01*
X90094091Y-45857483D01*
X90100500Y-45797873D01*
X90100499Y-42202128D01*
X90094091Y-42142517D01*
X90043796Y-42007669D01*
X90043795Y-42007668D01*
X90043793Y-42007664D01*
X89957547Y-41892455D01*
X89957544Y-41892452D01*
X89842335Y-41806206D01*
X89842328Y-41806202D01*
X89707482Y-41755908D01*
X89707483Y-41755908D01*
X89647883Y-41749501D01*
X89647881Y-41749500D01*
X89647873Y-41749500D01*
X89647864Y-41749500D01*
X86852129Y-41749500D01*
X86852123Y-41749501D01*
X86792516Y-41755908D01*
X86657671Y-41806202D01*
X86657664Y-41806206D01*
X86542455Y-41892452D01*
X86542452Y-41892455D01*
X86456206Y-42007664D01*
X86456202Y-42007671D01*
X86405908Y-42142517D01*
X86399501Y-42202116D01*
X86399501Y-42202123D01*
X86399500Y-42202135D01*
X86399500Y-45797870D01*
X86399501Y-45797876D01*
X86405908Y-45857483D01*
X86456202Y-45992328D01*
X86456206Y-45992335D01*
X86542452Y-46107544D01*
X86542455Y-46107547D01*
X86657665Y-46193794D01*
X86657667Y-46193794D01*
X86657669Y-46193796D01*
X86668830Y-46197958D01*
X86724764Y-46239826D01*
X86749184Y-46305289D01*
X86749500Y-46314141D01*
X86749500Y-49876000D01*
X86729815Y-49943039D01*
X86677011Y-49988794D01*
X86625500Y-50000000D01*
X75629500Y-50000000D01*
X75562461Y-49980315D01*
X75516706Y-49927511D01*
X75505500Y-49876000D01*
X75505500Y-37368872D01*
X76184500Y-37368872D01*
X76184500Y-37631127D01*
X76202436Y-37767354D01*
X76218730Y-37891116D01*
X76242974Y-37981595D01*
X76286602Y-38144418D01*
X76286605Y-38144428D01*
X76386953Y-38386690D01*
X76386958Y-38386700D01*
X76518075Y-38613803D01*
X76677718Y-38821851D01*
X76677726Y-38821860D01*
X76863140Y-39007274D01*
X76863148Y-39007281D01*
X77071196Y-39166924D01*
X77298299Y-39298041D01*
X77298309Y-39298046D01*
X77540571Y-39398394D01*
X77540581Y-39398398D01*
X77793884Y-39466270D01*
X78053880Y-39500500D01*
X78053887Y-39500500D01*
X78316113Y-39500500D01*
X78316120Y-39500500D01*
X78576116Y-39466270D01*
X78829419Y-39398398D01*
X79071697Y-39298043D01*
X79298803Y-39166924D01*
X79506851Y-39007282D01*
X79506855Y-39007277D01*
X79506860Y-39007274D01*
X79692274Y-38821860D01*
X79692277Y-38821855D01*
X79692282Y-38821851D01*
X79851924Y-38613803D01*
X79983043Y-38386697D01*
X80083398Y-38144419D01*
X80151270Y-37891116D01*
X80185500Y-37631120D01*
X80185500Y-37368880D01*
X80185499Y-37368872D01*
X94814500Y-37368872D01*
X94814500Y-37631127D01*
X94832436Y-37767354D01*
X94848730Y-37891116D01*
X94872974Y-37981595D01*
X94916602Y-38144418D01*
X94916605Y-38144428D01*
X95016953Y-38386690D01*
X95016958Y-38386700D01*
X95148075Y-38613803D01*
X95307718Y-38821851D01*
X95307726Y-38821860D01*
X95493140Y-39007274D01*
X95493148Y-39007281D01*
X95701196Y-39166924D01*
X95928299Y-39298041D01*
X95928309Y-39298046D01*
X96170571Y-39398394D01*
X96170581Y-39398398D01*
X96423884Y-39466270D01*
X96683880Y-39500500D01*
X96683887Y-39500500D01*
X96946113Y-39500500D01*
X96946120Y-39500500D01*
X97206116Y-39466270D01*
X97459419Y-39398398D01*
X97701697Y-39298043D01*
X97928803Y-39166924D01*
X98136851Y-39007282D01*
X98136855Y-39007277D01*
X98136860Y-39007274D01*
X98322274Y-38821860D01*
X98322277Y-38821855D01*
X98322282Y-38821851D01*
X98481924Y-38613803D01*
X98613043Y-38386697D01*
X98713398Y-38144419D01*
X98781270Y-37891116D01*
X98815500Y-37631120D01*
X98815500Y-37368880D01*
X98781270Y-37108884D01*
X98713398Y-36855581D01*
X98705853Y-36837365D01*
X98613046Y-36613309D01*
X98613041Y-36613299D01*
X98481924Y-36386196D01*
X98322281Y-36178148D01*
X98322274Y-36178140D01*
X98136860Y-35992726D01*
X98136851Y-35992718D01*
X97928803Y-35833075D01*
X97701700Y-35701958D01*
X97701690Y-35701953D01*
X97459428Y-35601605D01*
X97459421Y-35601603D01*
X97459419Y-35601602D01*
X97206116Y-35533730D01*
X97148339Y-35526123D01*
X96946127Y-35499500D01*
X96946120Y-35499500D01*
X96683880Y-35499500D01*
X96683872Y-35499500D01*
X96452772Y-35529926D01*
X96423884Y-35533730D01*
X96170581Y-35601602D01*
X96170571Y-35601605D01*
X95928309Y-35701953D01*
X95928299Y-35701958D01*
X95701196Y-35833075D01*
X95493148Y-35992718D01*
X95307718Y-36178148D01*
X95148075Y-36386196D01*
X95016958Y-36613299D01*
X95016953Y-36613309D01*
X94916605Y-36855571D01*
X94916602Y-36855581D01*
X94848730Y-37108885D01*
X94814500Y-37368872D01*
X80185499Y-37368872D01*
X80151270Y-37108884D01*
X80083398Y-36855581D01*
X80075853Y-36837365D01*
X79983046Y-36613309D01*
X79983041Y-36613299D01*
X79851924Y-36386196D01*
X79692281Y-36178148D01*
X79692274Y-36178140D01*
X79506860Y-35992726D01*
X79506851Y-35992718D01*
X79298803Y-35833075D01*
X79071700Y-35701958D01*
X79071690Y-35701953D01*
X78829428Y-35601605D01*
X78829421Y-35601603D01*
X78829419Y-35601602D01*
X78576116Y-35533730D01*
X78518339Y-35526123D01*
X78316127Y-35499500D01*
X78316120Y-35499500D01*
X78053880Y-35499500D01*
X78053872Y-35499500D01*
X77822772Y-35529926D01*
X77793884Y-35533730D01*
X77540581Y-35601602D01*
X77540571Y-35601605D01*
X77298309Y-35701953D01*
X77298299Y-35701958D01*
X77071196Y-35833075D01*
X76863148Y-35992718D01*
X76677718Y-36178148D01*
X76518075Y-36386196D01*
X76386958Y-36613299D01*
X76386953Y-36613309D01*
X76286605Y-36855571D01*
X76286602Y-36855581D01*
X76218730Y-37108885D01*
X76184500Y-37368872D01*
X75505500Y-37368872D01*
X75505500Y-28624499D01*
X75525185Y-28557460D01*
X75577989Y-28511705D01*
X75629500Y-28500499D01*
X77047871Y-28500499D01*
X77047872Y-28500499D01*
X77107483Y-28494091D01*
X77242331Y-28443796D01*
X77357546Y-28357546D01*
X77443796Y-28242331D01*
X77494091Y-28107483D01*
X77500500Y-28047873D01*
X77500499Y-25629499D01*
X77520184Y-25562461D01*
X77572987Y-25516706D01*
X77624499Y-25505500D01*
X80476209Y-25505500D01*
X80564038Y-25497809D01*
X80564038Y-25497808D01*
X80564048Y-25497808D01*
X80581737Y-25494686D01*
X80651176Y-25502419D01*
X80705412Y-25546466D01*
X80713767Y-25560495D01*
X80748928Y-25629500D01*
X80802187Y-25734025D01*
X80931752Y-25912358D01*
X80931756Y-25912363D01*
X81087636Y-26068243D01*
X81087641Y-26068247D01*
X81243192Y-26181260D01*
X81265978Y-26197815D01*
X81394375Y-26263237D01*
X81462393Y-26297895D01*
X81462396Y-26297896D01*
X81567221Y-26331955D01*
X81672049Y-26366015D01*
X81889778Y-26400500D01*
X81889779Y-26400500D01*
X82110221Y-26400500D01*
X82110222Y-26400500D01*
X82327951Y-26366015D01*
X82537606Y-26297895D01*
X82734022Y-26197815D01*
X82912365Y-26068242D01*
X83068242Y-25912365D01*
X83197815Y-25734022D01*
X83288267Y-25556500D01*
X83336242Y-25505705D01*
X83404063Y-25488910D01*
X83416389Y-25490057D01*
X83523799Y-25505500D01*
X83523802Y-25505500D01*
X86625500Y-25505500D01*
X86692539Y-25525185D01*
X86738294Y-25577989D01*
X86749500Y-25629500D01*
X86749500Y-28625500D01*
X86729815Y-28692539D01*
X86677011Y-28738294D01*
X86625500Y-28749500D01*
X85352129Y-28749500D01*
X85352123Y-28749501D01*
X85292516Y-28755908D01*
X85157671Y-28806202D01*
X85157664Y-28806206D01*
X85042455Y-28892452D01*
X85042452Y-28892455D01*
X84956206Y-29007664D01*
X84956202Y-29007671D01*
X84905908Y-29142517D01*
X84899501Y-29202116D01*
X84899500Y-29202135D01*
X84899500Y-32797870D01*
X84899501Y-32797876D01*
X84905908Y-32857483D01*
X84956202Y-32992328D01*
X84956206Y-32992335D01*
X85042452Y-33107544D01*
X85042455Y-33107547D01*
X85157664Y-33193793D01*
X85157671Y-33193797D01*
X85292517Y-33244091D01*
X85292516Y-33244091D01*
X85299444Y-33244835D01*
X85352127Y-33250500D01*
X88147872Y-33250499D01*
X88207483Y-33244091D01*
X88342331Y-33193796D01*
X88457546Y-33107546D01*
X88543796Y-32992331D01*
X88594091Y-32857483D01*
X88600500Y-32797873D01*
X88600499Y-31322888D01*
X88620184Y-31255850D01*
X88636818Y-31235208D01*
X88994261Y-30877765D01*
X89394517Y-30477510D01*
X89533343Y-30286434D01*
X89640568Y-30075992D01*
X89657952Y-30022490D01*
X89713553Y-29851368D01*
X89750500Y-29618097D01*
X89750500Y-25629500D01*
X89770185Y-25562461D01*
X89822989Y-25516706D01*
X89874500Y-25505500D01*
X94476209Y-25505500D01*
X94564038Y-25497809D01*
X94564038Y-25497808D01*
X94564048Y-25497808D01*
X94581737Y-25494686D01*
X94651176Y-25502419D01*
X94705412Y-25546466D01*
X94713767Y-25560495D01*
X94748928Y-25629500D01*
X94802187Y-25734025D01*
X94931752Y-25912358D01*
X94931756Y-25912363D01*
X95087636Y-26068243D01*
X95087641Y-26068247D01*
X95243192Y-26181260D01*
X95265978Y-26197815D01*
X95394375Y-26263237D01*
X95462393Y-26297895D01*
X95462396Y-26297896D01*
X95567221Y-26331955D01*
X95672049Y-26366015D01*
X95889778Y-26400500D01*
X95889779Y-26400500D01*
X96110221Y-26400500D01*
X96110222Y-26400500D01*
X96327951Y-26366015D01*
X96537606Y-26297895D01*
X96734022Y-26197815D01*
X96912365Y-26068242D01*
X97068242Y-25912365D01*
X97197815Y-25734022D01*
X97288267Y-25556500D01*
X97336242Y-25505705D01*
X97404063Y-25488910D01*
X97416389Y-25490057D01*
G37*
%TD.AperFunction*%
%TD*%
%TA.AperFunction,Conductor*%
%TO.N,unconnected-(D10-PAD-Pad3)*%
G36*
X48651176Y-50502419D02*
G01*
X48705412Y-50546466D01*
X48713767Y-50560495D01*
X48748928Y-50629500D01*
X48802187Y-50734025D01*
X48931752Y-50912358D01*
X48931756Y-50912363D01*
X49087636Y-51068243D01*
X49087641Y-51068247D01*
X49243192Y-51181260D01*
X49265978Y-51197815D01*
X49427718Y-51280226D01*
X49443498Y-51288267D01*
X49494294Y-51336242D01*
X49511089Y-51404063D01*
X49509941Y-51416398D01*
X49494500Y-51523796D01*
X49494500Y-74370500D01*
X49474815Y-74437539D01*
X49422011Y-74483294D01*
X49370500Y-74494500D01*
X49124499Y-74494500D01*
X49057460Y-74474815D01*
X49011705Y-74422011D01*
X49000499Y-74370500D01*
X49000499Y-71952129D01*
X49000498Y-71952123D01*
X49000497Y-71952116D01*
X48994091Y-71892517D01*
X48968748Y-71824570D01*
X48943797Y-71757671D01*
X48943793Y-71757664D01*
X48857547Y-71642455D01*
X48857544Y-71642452D01*
X48742335Y-71556206D01*
X48742328Y-71556202D01*
X48607482Y-71505908D01*
X48607483Y-71505908D01*
X48547883Y-71499501D01*
X48547881Y-71499500D01*
X48547873Y-71499500D01*
X48547864Y-71499500D01*
X44452129Y-71499500D01*
X44452123Y-71499501D01*
X44392516Y-71505908D01*
X44257671Y-71556202D01*
X44257664Y-71556206D01*
X44142455Y-71642452D01*
X44142452Y-71642455D01*
X44056206Y-71757664D01*
X44056202Y-71757671D01*
X44005908Y-71892517D01*
X43999501Y-71952116D01*
X43999501Y-71952123D01*
X43999500Y-71952135D01*
X43999500Y-74370500D01*
X43979815Y-74437539D01*
X43927011Y-74483294D01*
X43875500Y-74494500D01*
X39874500Y-74494500D01*
X39807461Y-74474815D01*
X39761706Y-74422011D01*
X39750500Y-74370500D01*
X39750500Y-71314141D01*
X39770185Y-71247102D01*
X39822989Y-71201347D01*
X39831149Y-71197966D01*
X39842331Y-71193796D01*
X39957546Y-71107546D01*
X40043796Y-70992331D01*
X40094091Y-70857483D01*
X40100500Y-70797873D01*
X40100499Y-67202128D01*
X40094091Y-67142517D01*
X40043796Y-67007669D01*
X40043795Y-67007668D01*
X40043793Y-67007664D01*
X39957547Y-66892455D01*
X39957544Y-66892452D01*
X39842335Y-66806206D01*
X39842328Y-66806202D01*
X39707482Y-66755908D01*
X39707483Y-66755908D01*
X39647883Y-66749501D01*
X39647881Y-66749500D01*
X39647873Y-66749500D01*
X39647864Y-66749500D01*
X36852129Y-66749500D01*
X36852123Y-66749501D01*
X36792516Y-66755908D01*
X36657671Y-66806202D01*
X36657664Y-66806206D01*
X36542455Y-66892452D01*
X36542452Y-66892455D01*
X36456206Y-67007664D01*
X36456202Y-67007671D01*
X36405908Y-67142517D01*
X36399501Y-67202116D01*
X36399501Y-67202123D01*
X36399500Y-67202135D01*
X36399500Y-70797870D01*
X36399501Y-70797876D01*
X36405908Y-70857483D01*
X36456202Y-70992328D01*
X36456206Y-70992335D01*
X36542452Y-71107544D01*
X36542455Y-71107547D01*
X36657665Y-71193794D01*
X36657667Y-71193794D01*
X36657669Y-71193796D01*
X36668830Y-71197958D01*
X36724764Y-71239826D01*
X36749184Y-71305289D01*
X36749500Y-71314141D01*
X36749500Y-74370500D01*
X36729815Y-74437539D01*
X36677011Y-74483294D01*
X36625500Y-74494500D01*
X27624499Y-74494500D01*
X27557460Y-74474815D01*
X27511705Y-74422011D01*
X27500499Y-74370500D01*
X27500499Y-71952129D01*
X27500498Y-71952123D01*
X27500497Y-71952116D01*
X27494091Y-71892517D01*
X27468748Y-71824570D01*
X27443797Y-71757671D01*
X27443793Y-71757664D01*
X27357547Y-71642455D01*
X27357544Y-71642452D01*
X27242335Y-71556206D01*
X27242328Y-71556202D01*
X27107482Y-71505908D01*
X27107483Y-71505908D01*
X27047883Y-71499501D01*
X27047881Y-71499500D01*
X27047873Y-71499500D01*
X27047865Y-71499500D01*
X25629500Y-71499500D01*
X25562461Y-71479815D01*
X25516706Y-71427011D01*
X25505500Y-71375500D01*
X25505500Y-62368872D01*
X26184500Y-62368872D01*
X26184500Y-62631127D01*
X26202436Y-62767354D01*
X26218730Y-62891116D01*
X26242974Y-62981595D01*
X26286602Y-63144418D01*
X26286605Y-63144428D01*
X26386953Y-63386690D01*
X26386958Y-63386700D01*
X26518075Y-63613803D01*
X26677718Y-63821851D01*
X26677726Y-63821860D01*
X26863140Y-64007274D01*
X26863148Y-64007281D01*
X27071196Y-64166924D01*
X27298299Y-64298041D01*
X27298309Y-64298046D01*
X27540571Y-64398394D01*
X27540581Y-64398398D01*
X27793884Y-64466270D01*
X28053880Y-64500500D01*
X28053887Y-64500500D01*
X28316113Y-64500500D01*
X28316120Y-64500500D01*
X28576116Y-64466270D01*
X28829419Y-64398398D01*
X29071697Y-64298043D01*
X29298803Y-64166924D01*
X29506851Y-64007282D01*
X29506855Y-64007277D01*
X29506860Y-64007274D01*
X29692274Y-63821860D01*
X29692277Y-63821855D01*
X29692282Y-63821851D01*
X29851924Y-63613803D01*
X29983043Y-63386697D01*
X30083398Y-63144419D01*
X30151270Y-62891116D01*
X30185500Y-62631120D01*
X30185500Y-62368880D01*
X30185499Y-62368872D01*
X44814500Y-62368872D01*
X44814500Y-62631127D01*
X44832436Y-62767354D01*
X44848730Y-62891116D01*
X44872974Y-62981595D01*
X44916602Y-63144418D01*
X44916605Y-63144428D01*
X45016953Y-63386690D01*
X45016958Y-63386700D01*
X45148075Y-63613803D01*
X45307718Y-63821851D01*
X45307726Y-63821860D01*
X45493140Y-64007274D01*
X45493148Y-64007281D01*
X45701196Y-64166924D01*
X45928299Y-64298041D01*
X45928309Y-64298046D01*
X46170571Y-64398394D01*
X46170581Y-64398398D01*
X46423884Y-64466270D01*
X46683880Y-64500500D01*
X46683887Y-64500500D01*
X46946113Y-64500500D01*
X46946120Y-64500500D01*
X47206116Y-64466270D01*
X47459419Y-64398398D01*
X47701697Y-64298043D01*
X47928803Y-64166924D01*
X48136851Y-64007282D01*
X48136855Y-64007277D01*
X48136860Y-64007274D01*
X48322274Y-63821860D01*
X48322277Y-63821855D01*
X48322282Y-63821851D01*
X48481924Y-63613803D01*
X48613043Y-63386697D01*
X48713398Y-63144419D01*
X48781270Y-62891116D01*
X48815500Y-62631120D01*
X48815500Y-62368880D01*
X48781270Y-62108884D01*
X48713398Y-61855581D01*
X48705853Y-61837365D01*
X48613046Y-61613309D01*
X48613041Y-61613299D01*
X48481924Y-61386196D01*
X48322281Y-61178148D01*
X48322274Y-61178140D01*
X48136860Y-60992726D01*
X48136851Y-60992718D01*
X47928803Y-60833075D01*
X47701700Y-60701958D01*
X47701690Y-60701953D01*
X47459428Y-60601605D01*
X47459421Y-60601603D01*
X47459419Y-60601602D01*
X47206116Y-60533730D01*
X47148339Y-60526123D01*
X46946127Y-60499500D01*
X46946120Y-60499500D01*
X46683880Y-60499500D01*
X46683872Y-60499500D01*
X46452772Y-60529926D01*
X46423884Y-60533730D01*
X46170581Y-60601602D01*
X46170571Y-60601605D01*
X45928309Y-60701953D01*
X45928299Y-60701958D01*
X45701196Y-60833075D01*
X45493148Y-60992718D01*
X45307718Y-61178148D01*
X45148075Y-61386196D01*
X45016958Y-61613299D01*
X45016953Y-61613309D01*
X44916605Y-61855571D01*
X44916602Y-61855581D01*
X44848730Y-62108885D01*
X44814500Y-62368872D01*
X30185499Y-62368872D01*
X30151270Y-62108884D01*
X30083398Y-61855581D01*
X30075853Y-61837365D01*
X29983046Y-61613309D01*
X29983041Y-61613299D01*
X29851924Y-61386196D01*
X29692281Y-61178148D01*
X29692274Y-61178140D01*
X29506860Y-60992726D01*
X29506851Y-60992718D01*
X29298803Y-60833075D01*
X29071700Y-60701958D01*
X29071690Y-60701953D01*
X28829428Y-60601605D01*
X28829421Y-60601603D01*
X28829419Y-60601602D01*
X28576116Y-60533730D01*
X28518339Y-60526123D01*
X28316127Y-60499500D01*
X28316120Y-60499500D01*
X28053880Y-60499500D01*
X28053872Y-60499500D01*
X27822772Y-60529926D01*
X27793884Y-60533730D01*
X27540581Y-60601602D01*
X27540571Y-60601605D01*
X27298309Y-60701953D01*
X27298299Y-60701958D01*
X27071196Y-60833075D01*
X26863148Y-60992718D01*
X26677718Y-61178148D01*
X26518075Y-61386196D01*
X26386958Y-61613299D01*
X26386953Y-61613309D01*
X26286605Y-61855571D01*
X26286602Y-61855581D01*
X26218730Y-62108885D01*
X26184500Y-62368872D01*
X25505500Y-62368872D01*
X25505500Y-50629500D01*
X25525185Y-50562461D01*
X25577989Y-50516706D01*
X25629500Y-50505500D01*
X36625500Y-50505500D01*
X36692539Y-50525185D01*
X36738294Y-50577989D01*
X36749500Y-50629500D01*
X36749500Y-53625500D01*
X36729815Y-53692539D01*
X36677011Y-53738294D01*
X36625500Y-53749500D01*
X35352129Y-53749500D01*
X35352123Y-53749501D01*
X35292516Y-53755908D01*
X35157671Y-53806202D01*
X35157664Y-53806206D01*
X35042455Y-53892452D01*
X35042452Y-53892455D01*
X34956206Y-54007664D01*
X34956202Y-54007671D01*
X34905908Y-54142517D01*
X34899501Y-54202116D01*
X34899500Y-54202135D01*
X34899500Y-57797870D01*
X34899501Y-57797876D01*
X34905908Y-57857483D01*
X34956202Y-57992328D01*
X34956206Y-57992335D01*
X35042452Y-58107544D01*
X35042455Y-58107547D01*
X35157664Y-58193793D01*
X35157671Y-58193797D01*
X35292517Y-58244091D01*
X35292516Y-58244091D01*
X35299444Y-58244835D01*
X35352127Y-58250500D01*
X38147872Y-58250499D01*
X38207483Y-58244091D01*
X38342331Y-58193796D01*
X38457546Y-58107546D01*
X38543796Y-57992331D01*
X38594091Y-57857483D01*
X38600500Y-57797873D01*
X38600499Y-56322888D01*
X38620184Y-56255850D01*
X38636818Y-56235208D01*
X38994261Y-55877765D01*
X39394517Y-55477510D01*
X39533343Y-55286434D01*
X39640568Y-55075992D01*
X39657952Y-55022490D01*
X39713553Y-54851368D01*
X39750500Y-54618097D01*
X39750500Y-50629500D01*
X39770185Y-50562461D01*
X39822989Y-50516706D01*
X39874500Y-50505500D01*
X48476209Y-50505500D01*
X48564038Y-50497809D01*
X48564038Y-50497808D01*
X48564048Y-50497808D01*
X48581737Y-50494686D01*
X48651176Y-50502419D01*
G37*
%TD.AperFunction*%
%TD*%
%TA.AperFunction,Conductor*%
%TO.N,unconnected-(D9-PAD-Pad3)*%
G36*
X24795751Y-50411088D02*
G01*
X24914542Y-50465339D01*
X24918685Y-50466884D01*
X24917969Y-50468803D01*
X24969702Y-50502040D01*
X24998735Y-50565592D01*
X25000000Y-50583256D01*
X25000000Y-71375500D01*
X24980315Y-71442539D01*
X24927511Y-71488294D01*
X24876000Y-71499500D01*
X22952129Y-71499500D01*
X22952123Y-71499501D01*
X22892516Y-71505908D01*
X22757671Y-71556202D01*
X22757664Y-71556206D01*
X22642455Y-71642452D01*
X22642452Y-71642455D01*
X22556206Y-71757664D01*
X22556202Y-71757671D01*
X22505908Y-71892517D01*
X22499501Y-71952116D01*
X22499500Y-71952135D01*
X22499500Y-74370500D01*
X22479815Y-74437539D01*
X22427011Y-74483294D01*
X22375500Y-74494500D01*
X19523791Y-74494500D01*
X19435961Y-74502190D01*
X19435947Y-74502192D01*
X19418259Y-74505314D01*
X19348819Y-74497578D01*
X19294585Y-74453528D01*
X19286227Y-74439495D01*
X19197815Y-74265978D01*
X19181260Y-74243192D01*
X19068247Y-74087641D01*
X19068243Y-74087636D01*
X18912363Y-73931756D01*
X18912358Y-73931752D01*
X18734025Y-73802187D01*
X18734024Y-73802186D01*
X18734022Y-73802185D01*
X18671096Y-73770122D01*
X18537606Y-73702104D01*
X18537603Y-73702103D01*
X18327952Y-73633985D01*
X18219086Y-73616742D01*
X18110222Y-73599500D01*
X17889778Y-73599500D01*
X17817201Y-73610995D01*
X17672047Y-73633985D01*
X17462396Y-73702103D01*
X17462393Y-73702104D01*
X17265974Y-73802187D01*
X17087641Y-73931752D01*
X17087636Y-73931756D01*
X16931756Y-74087636D01*
X16931752Y-74087641D01*
X16802187Y-74265974D01*
X16711733Y-74443498D01*
X16663758Y-74494294D01*
X16595937Y-74511089D01*
X16583602Y-74509941D01*
X16476202Y-74494500D01*
X16476201Y-74494500D01*
X14874500Y-74494500D01*
X14807461Y-74474815D01*
X14761706Y-74422011D01*
X14750500Y-74370500D01*
X14750500Y-71314141D01*
X14770185Y-71247102D01*
X14822989Y-71201347D01*
X14831149Y-71197966D01*
X14842331Y-71193796D01*
X14957546Y-71107546D01*
X15043796Y-70992331D01*
X15094091Y-70857483D01*
X15100500Y-70797873D01*
X15100499Y-67202128D01*
X15094091Y-67142517D01*
X15043796Y-67007669D01*
X15043795Y-67007668D01*
X15043793Y-67007664D01*
X14957547Y-66892455D01*
X14957544Y-66892452D01*
X14842335Y-66806206D01*
X14842328Y-66806202D01*
X14707482Y-66755908D01*
X14707483Y-66755908D01*
X14647883Y-66749501D01*
X14647881Y-66749500D01*
X14647873Y-66749500D01*
X14647864Y-66749500D01*
X11852129Y-66749500D01*
X11852123Y-66749501D01*
X11792516Y-66755908D01*
X11657671Y-66806202D01*
X11657664Y-66806206D01*
X11542455Y-66892452D01*
X11542452Y-66892455D01*
X11456206Y-67007664D01*
X11456202Y-67007671D01*
X11405908Y-67142517D01*
X11399501Y-67202116D01*
X11399501Y-67202123D01*
X11399500Y-67202135D01*
X11399500Y-70797870D01*
X11399501Y-70797876D01*
X11405908Y-70857483D01*
X11456202Y-70992328D01*
X11456206Y-70992335D01*
X11542452Y-71107544D01*
X11542455Y-71107547D01*
X11657665Y-71193794D01*
X11657667Y-71193794D01*
X11657669Y-71193796D01*
X11668830Y-71197958D01*
X11724764Y-71239826D01*
X11749184Y-71305289D01*
X11749500Y-71314141D01*
X11749500Y-74370500D01*
X11729815Y-74437539D01*
X11677011Y-74483294D01*
X11625500Y-74494500D01*
X5523791Y-74494500D01*
X5435961Y-74502190D01*
X5435947Y-74502192D01*
X5418259Y-74505314D01*
X5348819Y-74497578D01*
X5294585Y-74453528D01*
X5286227Y-74439495D01*
X5197815Y-74265978D01*
X5181260Y-74243192D01*
X5068247Y-74087641D01*
X5068243Y-74087636D01*
X4912363Y-73931756D01*
X4912358Y-73931752D01*
X4734025Y-73802187D01*
X4734024Y-73802186D01*
X4734022Y-73802185D01*
X4671096Y-73770122D01*
X4537606Y-73702104D01*
X4537603Y-73702103D01*
X4327952Y-73633985D01*
X4219086Y-73616742D01*
X4110222Y-73599500D01*
X3889778Y-73599500D01*
X3817201Y-73610995D01*
X3672047Y-73633985D01*
X3462396Y-73702103D01*
X3462393Y-73702104D01*
X3265974Y-73802187D01*
X3087641Y-73931752D01*
X3087636Y-73931756D01*
X2931756Y-74087636D01*
X2931752Y-74087641D01*
X2802187Y-74265974D01*
X2711733Y-74443498D01*
X2663758Y-74494294D01*
X2595937Y-74511089D01*
X2583602Y-74509941D01*
X2476202Y-74494500D01*
X2476201Y-74494500D01*
X524500Y-74494500D01*
X457461Y-74474815D01*
X411706Y-74422011D01*
X400500Y-74370500D01*
X400500Y-62368872D01*
X1184500Y-62368872D01*
X1184500Y-62631127D01*
X1211123Y-62833339D01*
X1218730Y-62891116D01*
X1286602Y-63144418D01*
X1286605Y-63144428D01*
X1386953Y-63386690D01*
X1386958Y-63386700D01*
X1518075Y-63613803D01*
X1677718Y-63821851D01*
X1677726Y-63821860D01*
X1863140Y-64007274D01*
X1863148Y-64007281D01*
X2071196Y-64166924D01*
X2298299Y-64298041D01*
X2298309Y-64298046D01*
X2540571Y-64398394D01*
X2540581Y-64398398D01*
X2793884Y-64466270D01*
X3053880Y-64500500D01*
X3053887Y-64500500D01*
X3316113Y-64500500D01*
X3316120Y-64500500D01*
X3576116Y-64466270D01*
X3829419Y-64398398D01*
X4071697Y-64298043D01*
X4298803Y-64166924D01*
X4506851Y-64007282D01*
X4506855Y-64007277D01*
X4506860Y-64007274D01*
X4692274Y-63821860D01*
X4692277Y-63821855D01*
X4692282Y-63821851D01*
X4851924Y-63613803D01*
X4983043Y-63386697D01*
X5083398Y-63144419D01*
X5151270Y-62891116D01*
X5185500Y-62631120D01*
X5185500Y-62368880D01*
X5185499Y-62368872D01*
X19814500Y-62368872D01*
X19814500Y-62631127D01*
X19841123Y-62833339D01*
X19848730Y-62891116D01*
X19916602Y-63144418D01*
X19916605Y-63144428D01*
X20016953Y-63386690D01*
X20016958Y-63386700D01*
X20148075Y-63613803D01*
X20307718Y-63821851D01*
X20307726Y-63821860D01*
X20493140Y-64007274D01*
X20493148Y-64007281D01*
X20701196Y-64166924D01*
X20928299Y-64298041D01*
X20928309Y-64298046D01*
X21170571Y-64398394D01*
X21170581Y-64398398D01*
X21423884Y-64466270D01*
X21683880Y-64500500D01*
X21683887Y-64500500D01*
X21946113Y-64500500D01*
X21946120Y-64500500D01*
X22206116Y-64466270D01*
X22459419Y-64398398D01*
X22701697Y-64298043D01*
X22928803Y-64166924D01*
X23136851Y-64007282D01*
X23136855Y-64007277D01*
X23136860Y-64007274D01*
X23322274Y-63821860D01*
X23322277Y-63821855D01*
X23322282Y-63821851D01*
X23481924Y-63613803D01*
X23613043Y-63386697D01*
X23713398Y-63144419D01*
X23781270Y-62891116D01*
X23815500Y-62631120D01*
X23815500Y-62368880D01*
X23781270Y-62108884D01*
X23713398Y-61855581D01*
X23713394Y-61855571D01*
X23613046Y-61613309D01*
X23613041Y-61613299D01*
X23481924Y-61386196D01*
X23322281Y-61178148D01*
X23322274Y-61178140D01*
X23136860Y-60992726D01*
X23136851Y-60992718D01*
X22928803Y-60833075D01*
X22701700Y-60701958D01*
X22701690Y-60701953D01*
X22459428Y-60601605D01*
X22459421Y-60601603D01*
X22459419Y-60601602D01*
X22206116Y-60533730D01*
X22148339Y-60526123D01*
X21946127Y-60499500D01*
X21946120Y-60499500D01*
X21683880Y-60499500D01*
X21683872Y-60499500D01*
X21452772Y-60529926D01*
X21423884Y-60533730D01*
X21170581Y-60601602D01*
X21170571Y-60601605D01*
X20928309Y-60701953D01*
X20928299Y-60701958D01*
X20701196Y-60833075D01*
X20493148Y-60992718D01*
X20307718Y-61178148D01*
X20148075Y-61386196D01*
X20016958Y-61613299D01*
X20016953Y-61613309D01*
X19916605Y-61855571D01*
X19916602Y-61855581D01*
X19848730Y-62108885D01*
X19814500Y-62368872D01*
X5185499Y-62368872D01*
X5151270Y-62108884D01*
X5083398Y-61855581D01*
X5083394Y-61855571D01*
X4983046Y-61613309D01*
X4983041Y-61613299D01*
X4851924Y-61386196D01*
X4692281Y-61178148D01*
X4692274Y-61178140D01*
X4506860Y-60992726D01*
X4506851Y-60992718D01*
X4298803Y-60833075D01*
X4071700Y-60701958D01*
X4071690Y-60701953D01*
X3829428Y-60601605D01*
X3829421Y-60601603D01*
X3829419Y-60601602D01*
X3576116Y-60533730D01*
X3518339Y-60526123D01*
X3316127Y-60499500D01*
X3316120Y-60499500D01*
X3053880Y-60499500D01*
X3053872Y-60499500D01*
X2822772Y-60529926D01*
X2793884Y-60533730D01*
X2540581Y-60601602D01*
X2540571Y-60601605D01*
X2298309Y-60701953D01*
X2298299Y-60701958D01*
X2071196Y-60833075D01*
X1863148Y-60992718D01*
X1677718Y-61178148D01*
X1518075Y-61386196D01*
X1386958Y-61613299D01*
X1386953Y-61613309D01*
X1286605Y-61855571D01*
X1286602Y-61855581D01*
X1218730Y-62108885D01*
X1184500Y-62368872D01*
X400500Y-62368872D01*
X400500Y-50629500D01*
X420185Y-50562461D01*
X472989Y-50516706D01*
X524500Y-50505500D01*
X11625500Y-50505500D01*
X11692539Y-50525185D01*
X11738294Y-50577989D01*
X11749500Y-50629500D01*
X11749500Y-53625500D01*
X11729815Y-53692539D01*
X11677011Y-53738294D01*
X11625500Y-53749500D01*
X10352129Y-53749500D01*
X10352123Y-53749501D01*
X10292516Y-53755908D01*
X10157671Y-53806202D01*
X10157664Y-53806206D01*
X10042455Y-53892452D01*
X10042452Y-53892455D01*
X9956206Y-54007664D01*
X9956202Y-54007671D01*
X9905908Y-54142517D01*
X9899501Y-54202116D01*
X9899500Y-54202135D01*
X9899500Y-57797870D01*
X9899501Y-57797876D01*
X9905908Y-57857483D01*
X9956202Y-57992328D01*
X9956206Y-57992335D01*
X10042452Y-58107544D01*
X10042455Y-58107547D01*
X10157664Y-58193793D01*
X10157671Y-58193797D01*
X10292517Y-58244091D01*
X10292516Y-58244091D01*
X10299444Y-58244835D01*
X10352127Y-58250500D01*
X13147872Y-58250499D01*
X13207483Y-58244091D01*
X13342331Y-58193796D01*
X13457546Y-58107546D01*
X13543796Y-57992331D01*
X13594091Y-57857483D01*
X13600500Y-57797873D01*
X13600499Y-56322888D01*
X13620184Y-56255850D01*
X13636818Y-56235208D01*
X14394517Y-55477510D01*
X14533343Y-55286434D01*
X14640568Y-55075992D01*
X14657952Y-55022490D01*
X14713553Y-54851368D01*
X14750500Y-54618097D01*
X14750500Y-50629500D01*
X14770185Y-50562461D01*
X14822989Y-50516706D01*
X14874500Y-50505500D01*
X24370490Y-50505500D01*
X24370500Y-50505500D01*
X24477956Y-50493947D01*
X24529467Y-50482741D01*
X24632004Y-50448613D01*
X24677198Y-50419567D01*
X24744236Y-50399882D01*
X24795751Y-50411088D01*
G37*
%TD.AperFunction*%
%TD*%
%TA.AperFunction,Conductor*%
%TO.N,unconnected-(D3-PAD-Pad3)*%
G36*
X74437539Y-420185D02*
G01*
X74483294Y-472989D01*
X74494500Y-524500D01*
X74494500Y-5476209D01*
X74502190Y-5564038D01*
X74502192Y-5564052D01*
X74505314Y-5581741D01*
X74497578Y-5651181D01*
X74453528Y-5705415D01*
X74439495Y-5713773D01*
X74265974Y-5802187D01*
X74087641Y-5931752D01*
X74087636Y-5931756D01*
X73931756Y-6087636D01*
X73931752Y-6087641D01*
X73802187Y-6265974D01*
X73702104Y-6462393D01*
X73702103Y-6462396D01*
X73633985Y-6672047D01*
X73624169Y-6734022D01*
X73599500Y-6889778D01*
X73599500Y-7110222D01*
X73613373Y-7197812D01*
X73633985Y-7327952D01*
X73702103Y-7537603D01*
X73702104Y-7537606D01*
X73802187Y-7734025D01*
X73931752Y-7912358D01*
X73931756Y-7912363D01*
X74087636Y-8068243D01*
X74087641Y-8068247D01*
X74243192Y-8181260D01*
X74265978Y-8197815D01*
X74427718Y-8280226D01*
X74443498Y-8288267D01*
X74494294Y-8336242D01*
X74511089Y-8404063D01*
X74509941Y-8416398D01*
X74494500Y-8523796D01*
X74494500Y-20578629D01*
X74494820Y-20596611D01*
X74495139Y-20605527D01*
X74496103Y-20623513D01*
X74496105Y-20623528D01*
X74523074Y-20747498D01*
X74526688Y-20764111D01*
X74541847Y-20804755D01*
X74551105Y-20829576D01*
X74551107Y-20829580D01*
X74620056Y-20955850D01*
X74620057Y-20955851D01*
X74683408Y-21019205D01*
X74716892Y-21080529D01*
X74711906Y-21150220D01*
X74683406Y-21194565D01*
X74414790Y-21463181D01*
X74353467Y-21496666D01*
X74327109Y-21499500D01*
X72952129Y-21499500D01*
X72952123Y-21499501D01*
X72892516Y-21505908D01*
X72757671Y-21556202D01*
X72757664Y-21556206D01*
X72642455Y-21642452D01*
X72642452Y-21642455D01*
X72556206Y-21757664D01*
X72556202Y-21757671D01*
X72505908Y-21892517D01*
X72499501Y-21952116D01*
X72499501Y-21952123D01*
X72499500Y-21952135D01*
X72499500Y-24370500D01*
X72479815Y-24437539D01*
X72427011Y-24483294D01*
X72375500Y-24494500D01*
X64874500Y-24494500D01*
X64807461Y-24474815D01*
X64761706Y-24422011D01*
X64750500Y-24370500D01*
X64750500Y-21314141D01*
X64770185Y-21247102D01*
X64822989Y-21201347D01*
X64831149Y-21197966D01*
X64842331Y-21193796D01*
X64957546Y-21107546D01*
X65043796Y-20992331D01*
X65094091Y-20857483D01*
X65100500Y-20797873D01*
X65100499Y-17202128D01*
X65094091Y-17142517D01*
X65073621Y-17087635D01*
X65043797Y-17007671D01*
X65043793Y-17007664D01*
X64957547Y-16892455D01*
X64957544Y-16892452D01*
X64842335Y-16806206D01*
X64842328Y-16806202D01*
X64707482Y-16755908D01*
X64707483Y-16755908D01*
X64647883Y-16749501D01*
X64647881Y-16749500D01*
X64647873Y-16749500D01*
X64647864Y-16749500D01*
X61852129Y-16749500D01*
X61852123Y-16749501D01*
X61792516Y-16755908D01*
X61657671Y-16806202D01*
X61657664Y-16806206D01*
X61542455Y-16892452D01*
X61542452Y-16892455D01*
X61456206Y-17007664D01*
X61456202Y-17007671D01*
X61405908Y-17142517D01*
X61399501Y-17202116D01*
X61399501Y-17202123D01*
X61399500Y-17202135D01*
X61399500Y-20797870D01*
X61399501Y-20797876D01*
X61405908Y-20857483D01*
X61456202Y-20992328D01*
X61456206Y-20992335D01*
X61542452Y-21107544D01*
X61542455Y-21107547D01*
X61657665Y-21193794D01*
X61657667Y-21193794D01*
X61657669Y-21193796D01*
X61668830Y-21197958D01*
X61724764Y-21239826D01*
X61749184Y-21305289D01*
X61749500Y-21314141D01*
X61749500Y-24370500D01*
X61729815Y-24437539D01*
X61677011Y-24483294D01*
X61625500Y-24494500D01*
X56124499Y-24494500D01*
X56057460Y-24474815D01*
X56011705Y-24422011D01*
X56000499Y-24370500D01*
X56000499Y-21952129D01*
X56000498Y-21952123D01*
X56000497Y-21952116D01*
X55994091Y-21892517D01*
X55968748Y-21824570D01*
X55943797Y-21757671D01*
X55943793Y-21757664D01*
X55857547Y-21642455D01*
X55857544Y-21642452D01*
X55742335Y-21556206D01*
X55742328Y-21556202D01*
X55607482Y-21505908D01*
X55607483Y-21505908D01*
X55547883Y-21499501D01*
X55547881Y-21499500D01*
X55547873Y-21499500D01*
X55547865Y-21499500D01*
X55124500Y-21499500D01*
X55057461Y-21479815D01*
X55011706Y-21427011D01*
X55000500Y-21375500D01*
X55000500Y-19172889D01*
X55020185Y-19105850D01*
X55036819Y-19085208D01*
X56449980Y-17672047D01*
X58144517Y-15977510D01*
X58283343Y-15786434D01*
X58390568Y-15575993D01*
X58425161Y-15469526D01*
X58463553Y-15351368D01*
X58500500Y-15118097D01*
X58500500Y-12368872D01*
X69814500Y-12368872D01*
X69814500Y-12631127D01*
X69832436Y-12767354D01*
X69848730Y-12891116D01*
X69872974Y-12981595D01*
X69916602Y-13144418D01*
X69916605Y-13144428D01*
X70016953Y-13386690D01*
X70016958Y-13386700D01*
X70148075Y-13613803D01*
X70307718Y-13821851D01*
X70307726Y-13821860D01*
X70493140Y-14007274D01*
X70493148Y-14007281D01*
X70701196Y-14166924D01*
X70928299Y-14298041D01*
X70928309Y-14298046D01*
X71128943Y-14381151D01*
X71170581Y-14398398D01*
X71423884Y-14466270D01*
X71683880Y-14500500D01*
X71683887Y-14500500D01*
X71946113Y-14500500D01*
X71946120Y-14500500D01*
X72206116Y-14466270D01*
X72459419Y-14398398D01*
X72701697Y-14298043D01*
X72928803Y-14166924D01*
X73136851Y-14007282D01*
X73136855Y-14007277D01*
X73136860Y-14007274D01*
X73322274Y-13821860D01*
X73322277Y-13821855D01*
X73322282Y-13821851D01*
X73481924Y-13613803D01*
X73613043Y-13386697D01*
X73713398Y-13144419D01*
X73781270Y-12891116D01*
X73815500Y-12631120D01*
X73815500Y-12368880D01*
X73781270Y-12108884D01*
X73713398Y-11855581D01*
X73705853Y-11837365D01*
X73613046Y-11613309D01*
X73613041Y-11613299D01*
X73481924Y-11386196D01*
X73322281Y-11178148D01*
X73322274Y-11178140D01*
X73136860Y-10992726D01*
X73136851Y-10992718D01*
X72928803Y-10833075D01*
X72701700Y-10701958D01*
X72701690Y-10701953D01*
X72459428Y-10601605D01*
X72459421Y-10601603D01*
X72459419Y-10601602D01*
X72206116Y-10533730D01*
X72148339Y-10526123D01*
X71946127Y-10499500D01*
X71946120Y-10499500D01*
X71683880Y-10499500D01*
X71683872Y-10499500D01*
X71452772Y-10529926D01*
X71423884Y-10533730D01*
X71170581Y-10601602D01*
X71170571Y-10601605D01*
X70928309Y-10701953D01*
X70928299Y-10701958D01*
X70701196Y-10833075D01*
X70493148Y-10992718D01*
X70307718Y-11178148D01*
X70148075Y-11386196D01*
X70016958Y-11613299D01*
X70016953Y-11613309D01*
X69916605Y-11855571D01*
X69916602Y-11855581D01*
X69848730Y-12108885D01*
X69814500Y-12368872D01*
X58500500Y-12368872D01*
X58500500Y-8672889D01*
X58520185Y-8605850D01*
X58536819Y-8585208D01*
X59585208Y-7536819D01*
X59646531Y-7503334D01*
X59672889Y-7500500D01*
X59775501Y-7500500D01*
X59842540Y-7520185D01*
X59888295Y-7572989D01*
X59899501Y-7624500D01*
X59899501Y-7797876D01*
X59905908Y-7857483D01*
X59956202Y-7992328D01*
X59956206Y-7992335D01*
X60042452Y-8107544D01*
X60042455Y-8107547D01*
X60157664Y-8193793D01*
X60157671Y-8193797D01*
X60292517Y-8244091D01*
X60292516Y-8244091D01*
X60299444Y-8244835D01*
X60352127Y-8250500D01*
X63147872Y-8250499D01*
X63207483Y-8244091D01*
X63342331Y-8193796D01*
X63457546Y-8107546D01*
X63543796Y-7992331D01*
X63594091Y-7857483D01*
X63600500Y-7797873D01*
X63600499Y-4202128D01*
X63594091Y-4142517D01*
X63543796Y-4007669D01*
X63543795Y-4007668D01*
X63543793Y-4007664D01*
X63457547Y-3892455D01*
X63457544Y-3892452D01*
X63342335Y-3806206D01*
X63342328Y-3806202D01*
X63207482Y-3755908D01*
X63207483Y-3755908D01*
X63147883Y-3749501D01*
X63147881Y-3749500D01*
X63147873Y-3749500D01*
X63147864Y-3749500D01*
X60352129Y-3749500D01*
X60352123Y-3749501D01*
X60292516Y-3755908D01*
X60157671Y-3806202D01*
X60157664Y-3806206D01*
X60042455Y-3892452D01*
X60042452Y-3892455D01*
X59956206Y-4007664D01*
X59956202Y-4007671D01*
X59905908Y-4142517D01*
X59899501Y-4202116D01*
X59899501Y-4202123D01*
X59899500Y-4202135D01*
X59899500Y-4375500D01*
X59879815Y-4442539D01*
X59827011Y-4488294D01*
X59775500Y-4499500D01*
X58881903Y-4499500D01*
X58648634Y-4536446D01*
X58424005Y-4609433D01*
X58213565Y-4716657D01*
X58022488Y-4855484D01*
X55855484Y-7022488D01*
X55716657Y-7213565D01*
X55625206Y-7393050D01*
X55625205Y-7393050D01*
X55609435Y-7423998D01*
X55536446Y-7648631D01*
X55499500Y-7881902D01*
X55499500Y-14327111D01*
X55479815Y-14394150D01*
X55463181Y-14414792D01*
X52355485Y-17522487D01*
X52355484Y-17522488D01*
X52216655Y-17713567D01*
X52146225Y-17851797D01*
X52146225Y-17851798D01*
X52109433Y-17924003D01*
X52036446Y-18148631D01*
X51999500Y-18381902D01*
X51999500Y-21375500D01*
X51979815Y-21442539D01*
X51927011Y-21488294D01*
X51875500Y-21499500D01*
X51452129Y-21499500D01*
X51452123Y-21499501D01*
X51392516Y-21505908D01*
X51257671Y-21556202D01*
X51257664Y-21556206D01*
X51142455Y-21642452D01*
X51142452Y-21642455D01*
X51056206Y-21757664D01*
X51056202Y-21757671D01*
X51005908Y-21892517D01*
X50999501Y-21952116D01*
X50999501Y-21952123D01*
X50999500Y-21952135D01*
X50999500Y-24370500D01*
X50979815Y-24437539D01*
X50927011Y-24483294D01*
X50875500Y-24494500D01*
X50629500Y-24494500D01*
X50562461Y-24474815D01*
X50516706Y-24422011D01*
X50505500Y-24370500D01*
X50505500Y-19523797D01*
X50504753Y-19515303D01*
X50497753Y-19435638D01*
X50494690Y-19418345D01*
X50502379Y-19348902D01*
X50546391Y-19294638D01*
X50560484Y-19286237D01*
X50734022Y-19197815D01*
X50912365Y-19068242D01*
X51068242Y-18912365D01*
X51197815Y-18734022D01*
X51297895Y-18537606D01*
X51366015Y-18327951D01*
X51400500Y-18110222D01*
X51400500Y-17889778D01*
X51366015Y-17672049D01*
X51317421Y-17522490D01*
X51297896Y-17462396D01*
X51297895Y-17462393D01*
X51263237Y-17394375D01*
X51197815Y-17265978D01*
X51108116Y-17142517D01*
X51068247Y-17087641D01*
X51068243Y-17087636D01*
X50912363Y-16931756D01*
X50912358Y-16931752D01*
X50734025Y-16802187D01*
X50734024Y-16802186D01*
X50734022Y-16802185D01*
X50556500Y-16711732D01*
X50505705Y-16663758D01*
X50488910Y-16595937D01*
X50490058Y-16583601D01*
X50505500Y-16476201D01*
X50505500Y-12368872D01*
X51184500Y-12368872D01*
X51184500Y-12631127D01*
X51202436Y-12767354D01*
X51218730Y-12891116D01*
X51242974Y-12981595D01*
X51286602Y-13144418D01*
X51286605Y-13144428D01*
X51386953Y-13386690D01*
X51386958Y-13386700D01*
X51518075Y-13613803D01*
X51677718Y-13821851D01*
X51677726Y-13821860D01*
X51863140Y-14007274D01*
X51863148Y-14007281D01*
X52071196Y-14166924D01*
X52298299Y-14298041D01*
X52298309Y-14298046D01*
X52498943Y-14381151D01*
X52540581Y-14398398D01*
X52793884Y-14466270D01*
X53053880Y-14500500D01*
X53053887Y-14500500D01*
X53316113Y-14500500D01*
X53316120Y-14500500D01*
X53576116Y-14466270D01*
X53829419Y-14398398D01*
X54071697Y-14298043D01*
X54298803Y-14166924D01*
X54506851Y-14007282D01*
X54506855Y-14007277D01*
X54506860Y-14007274D01*
X54692274Y-13821860D01*
X54692277Y-13821855D01*
X54692282Y-13821851D01*
X54851924Y-13613803D01*
X54983043Y-13386697D01*
X55083398Y-13144419D01*
X55151270Y-12891116D01*
X55185500Y-12631120D01*
X55185500Y-12368880D01*
X55151270Y-12108884D01*
X55083398Y-11855581D01*
X55075853Y-11837365D01*
X54983046Y-11613309D01*
X54983041Y-11613299D01*
X54851924Y-11386196D01*
X54692281Y-11178148D01*
X54692274Y-11178140D01*
X54506860Y-10992726D01*
X54506851Y-10992718D01*
X54298803Y-10833075D01*
X54071700Y-10701958D01*
X54071690Y-10701953D01*
X53829428Y-10601605D01*
X53829421Y-10601603D01*
X53829419Y-10601602D01*
X53576116Y-10533730D01*
X53518339Y-10526123D01*
X53316127Y-10499500D01*
X53316120Y-10499500D01*
X53053880Y-10499500D01*
X53053872Y-10499500D01*
X52822772Y-10529926D01*
X52793884Y-10533730D01*
X52540581Y-10601602D01*
X52540571Y-10601605D01*
X52298309Y-10701953D01*
X52298299Y-10701958D01*
X52071196Y-10833075D01*
X51863148Y-10992718D01*
X51677718Y-11178148D01*
X51518075Y-11386196D01*
X51386958Y-11613299D01*
X51386953Y-11613309D01*
X51286605Y-11855571D01*
X51286602Y-11855581D01*
X51218730Y-12108885D01*
X51184500Y-12368872D01*
X50505500Y-12368872D01*
X50505500Y-7523798D01*
X50504906Y-7517044D01*
X50501520Y-7478508D01*
X50497753Y-7435638D01*
X50494690Y-7418345D01*
X50502379Y-7348902D01*
X50546391Y-7294638D01*
X50560484Y-7286237D01*
X50734022Y-7197815D01*
X50912365Y-7068242D01*
X51068242Y-6912365D01*
X51197815Y-6734022D01*
X51297895Y-6537606D01*
X51366015Y-6327951D01*
X51400500Y-6110222D01*
X51400500Y-5889778D01*
X51366015Y-5672049D01*
X51297895Y-5462394D01*
X51297895Y-5462393D01*
X51263237Y-5394375D01*
X51197815Y-5265978D01*
X51112824Y-5148997D01*
X51068247Y-5087641D01*
X51068243Y-5087636D01*
X50912363Y-4931756D01*
X50912358Y-4931752D01*
X50734025Y-4802187D01*
X50734024Y-4802186D01*
X50734022Y-4802185D01*
X50556500Y-4711732D01*
X50505705Y-4663758D01*
X50488910Y-4595937D01*
X50490058Y-4583601D01*
X50505500Y-4476201D01*
X50505500Y-524500D01*
X50525185Y-457461D01*
X50577989Y-411706D01*
X50629500Y-400500D01*
X74370500Y-400500D01*
X74437539Y-420185D01*
G37*
%TD.AperFunction*%
%TD*%
%TA.AperFunction,Conductor*%
%TO.N,unconnected-(D16-PAD-Pad3)*%
G36*
X80543240Y-75019685D02*
G01*
X80588995Y-75072489D01*
X80597579Y-75105593D01*
X80598738Y-75105410D01*
X80633985Y-75327952D01*
X80702103Y-75537603D01*
X80702104Y-75537606D01*
X80802187Y-75734025D01*
X80931752Y-75912358D01*
X80931756Y-75912363D01*
X81087636Y-76068243D01*
X81087641Y-76068247D01*
X81243192Y-76181260D01*
X81265978Y-76197815D01*
X81394375Y-76263237D01*
X81462393Y-76297895D01*
X81462396Y-76297896D01*
X81567221Y-76331955D01*
X81672049Y-76366015D01*
X81889778Y-76400500D01*
X81889779Y-76400500D01*
X82110221Y-76400500D01*
X82110222Y-76400500D01*
X82327951Y-76366015D01*
X82537606Y-76297895D01*
X82734022Y-76197815D01*
X82912365Y-76068242D01*
X83068242Y-75912365D01*
X83197815Y-75734022D01*
X83297895Y-75537606D01*
X83366015Y-75327951D01*
X83400500Y-75110222D01*
X83400500Y-75110220D01*
X83401262Y-75105410D01*
X83403414Y-75105750D01*
X83425103Y-75048933D01*
X83481355Y-75007490D01*
X83523799Y-75000000D01*
X86625500Y-75000000D01*
X86692539Y-75019685D01*
X86738294Y-75072489D01*
X86749500Y-75124000D01*
X86749500Y-78625500D01*
X86729815Y-78692539D01*
X86677011Y-78738294D01*
X86625500Y-78749500D01*
X85352129Y-78749500D01*
X85352123Y-78749501D01*
X85292516Y-78755908D01*
X85157671Y-78806202D01*
X85157664Y-78806206D01*
X85042455Y-78892452D01*
X85042452Y-78892455D01*
X84956206Y-79007664D01*
X84956202Y-79007671D01*
X84905908Y-79142517D01*
X84899501Y-79202116D01*
X84899500Y-79202135D01*
X84899500Y-82797870D01*
X84899501Y-82797876D01*
X84905908Y-82857483D01*
X84956202Y-82992328D01*
X84956206Y-82992335D01*
X85042452Y-83107544D01*
X85042455Y-83107547D01*
X85157664Y-83193793D01*
X85157671Y-83193797D01*
X85292517Y-83244091D01*
X85292516Y-83244091D01*
X85299444Y-83244835D01*
X85352127Y-83250500D01*
X88147872Y-83250499D01*
X88207483Y-83244091D01*
X88342331Y-83193796D01*
X88457546Y-83107546D01*
X88543796Y-82992331D01*
X88594091Y-82857483D01*
X88600500Y-82797873D01*
X88600499Y-81322888D01*
X88620184Y-81255850D01*
X88636818Y-81235208D01*
X88994260Y-80877766D01*
X89394517Y-80477510D01*
X89533343Y-80286434D01*
X89640568Y-80075992D01*
X89657952Y-80022490D01*
X89713553Y-79851368D01*
X89750500Y-79618097D01*
X89750500Y-75124000D01*
X89770185Y-75056961D01*
X89822989Y-75011206D01*
X89874500Y-75000000D01*
X94476201Y-75000000D01*
X94543240Y-75019685D01*
X94588995Y-75072489D01*
X94597579Y-75105593D01*
X94598738Y-75105410D01*
X94633985Y-75327952D01*
X94702103Y-75537603D01*
X94702104Y-75537606D01*
X94802187Y-75734025D01*
X94931752Y-75912358D01*
X94931756Y-75912363D01*
X95087636Y-76068243D01*
X95087641Y-76068247D01*
X95243192Y-76181260D01*
X95265978Y-76197815D01*
X95394375Y-76263237D01*
X95462393Y-76297895D01*
X95462396Y-76297896D01*
X95567221Y-76331955D01*
X95672049Y-76366015D01*
X95889778Y-76400500D01*
X95889779Y-76400500D01*
X96110221Y-76400500D01*
X96110222Y-76400500D01*
X96327951Y-76366015D01*
X96537606Y-76297895D01*
X96734022Y-76197815D01*
X96912365Y-76068242D01*
X97068242Y-75912365D01*
X97197815Y-75734022D01*
X97297895Y-75537606D01*
X97366015Y-75327951D01*
X97400500Y-75110222D01*
X97400500Y-75110220D01*
X97401262Y-75105410D01*
X97403414Y-75105750D01*
X97425103Y-75048933D01*
X97481355Y-75007490D01*
X97523799Y-75000000D01*
X99475500Y-75000000D01*
X99542539Y-75019685D01*
X99588294Y-75072489D01*
X99599500Y-75124000D01*
X99599500Y-99475500D01*
X99579815Y-99542539D01*
X99527011Y-99588294D01*
X99475500Y-99599500D01*
X75629500Y-99599500D01*
X75562461Y-99579815D01*
X75516706Y-99527011D01*
X75505500Y-99475500D01*
X75505500Y-94523797D01*
X75501641Y-94479885D01*
X75497753Y-94435638D01*
X75494690Y-94418345D01*
X75502379Y-94348902D01*
X75546391Y-94294638D01*
X75560484Y-94286237D01*
X75734022Y-94197815D01*
X75912365Y-94068242D01*
X76068242Y-93912365D01*
X76197815Y-93734022D01*
X76297895Y-93537606D01*
X76366015Y-93327951D01*
X76400500Y-93110222D01*
X76400500Y-92889778D01*
X76366015Y-92672049D01*
X76315935Y-92517916D01*
X76297896Y-92462396D01*
X76297895Y-92462393D01*
X76223981Y-92317332D01*
X76197815Y-92265978D01*
X76108116Y-92142517D01*
X76068247Y-92087641D01*
X76068243Y-92087636D01*
X75912363Y-91931756D01*
X75912358Y-91931752D01*
X75734025Y-91802187D01*
X75734024Y-91802186D01*
X75734022Y-91802185D01*
X75556500Y-91711732D01*
X75505705Y-91663758D01*
X75488910Y-91595937D01*
X75490058Y-91583601D01*
X75505500Y-91476201D01*
X75505500Y-87368872D01*
X76184500Y-87368872D01*
X76184500Y-87631127D01*
X76205718Y-87792283D01*
X76218730Y-87891116D01*
X76286602Y-88144418D01*
X76286605Y-88144428D01*
X76386953Y-88386690D01*
X76386958Y-88386700D01*
X76518075Y-88613803D01*
X76677718Y-88821851D01*
X76677726Y-88821860D01*
X76863140Y-89007274D01*
X76863148Y-89007281D01*
X77071196Y-89166924D01*
X77298299Y-89298041D01*
X77298309Y-89298046D01*
X77540571Y-89398394D01*
X77540581Y-89398398D01*
X77793884Y-89466270D01*
X78053880Y-89500500D01*
X78053887Y-89500500D01*
X78316113Y-89500500D01*
X78316120Y-89500500D01*
X78576116Y-89466270D01*
X78829419Y-89398398D01*
X79071697Y-89298043D01*
X79298803Y-89166924D01*
X79506851Y-89007282D01*
X79506855Y-89007277D01*
X79506860Y-89007274D01*
X79692274Y-88821860D01*
X79692277Y-88821855D01*
X79692282Y-88821851D01*
X79851924Y-88613803D01*
X79983043Y-88386697D01*
X80083398Y-88144419D01*
X80151270Y-87891116D01*
X80185500Y-87631120D01*
X80185500Y-87368880D01*
X80151270Y-87108884D01*
X80083398Y-86855581D01*
X80075853Y-86837365D01*
X79983046Y-86613309D01*
X79983041Y-86613299D01*
X79851924Y-86386196D01*
X79692281Y-86178148D01*
X79692274Y-86178140D01*
X79506860Y-85992726D01*
X79506851Y-85992718D01*
X79298803Y-85833075D01*
X79071700Y-85701958D01*
X79071690Y-85701953D01*
X78829428Y-85601605D01*
X78829421Y-85601603D01*
X78829419Y-85601602D01*
X78576116Y-85533730D01*
X78518339Y-85526123D01*
X78316127Y-85499500D01*
X78316120Y-85499500D01*
X78053880Y-85499500D01*
X78053872Y-85499500D01*
X77822772Y-85529926D01*
X77793884Y-85533730D01*
X77540581Y-85601602D01*
X77540571Y-85601605D01*
X77298309Y-85701953D01*
X77298299Y-85701958D01*
X77071196Y-85833075D01*
X76863148Y-85992718D01*
X76677718Y-86178148D01*
X76518075Y-86386196D01*
X76386958Y-86613299D01*
X76386953Y-86613309D01*
X76286605Y-86855571D01*
X76286602Y-86855581D01*
X76218730Y-87108885D01*
X76184500Y-87368872D01*
X75505500Y-87368872D01*
X75505500Y-78624499D01*
X75525185Y-78557460D01*
X75577989Y-78511705D01*
X75629500Y-78500499D01*
X76327110Y-78500499D01*
X76394149Y-78520184D01*
X76414791Y-78536818D01*
X80463181Y-82585208D01*
X80496666Y-82646531D01*
X80499500Y-82672889D01*
X80499500Y-92118097D01*
X80536446Y-92351368D01*
X80609433Y-92575996D01*
X80716657Y-92786434D01*
X80855483Y-92977510D01*
X83022490Y-95144517D01*
X83213566Y-95283343D01*
X83424008Y-95390568D01*
X83648631Y-95463553D01*
X83736109Y-95477408D01*
X83881903Y-95500500D01*
X83881908Y-95500500D01*
X86275501Y-95500500D01*
X86342540Y-95520185D01*
X86388295Y-95572989D01*
X86399501Y-95624500D01*
X86399501Y-95797876D01*
X86405908Y-95857483D01*
X86456202Y-95992328D01*
X86456206Y-95992335D01*
X86542452Y-96107544D01*
X86542455Y-96107547D01*
X86657664Y-96193793D01*
X86657671Y-96193797D01*
X86792517Y-96244091D01*
X86792516Y-96244091D01*
X86799444Y-96244835D01*
X86852127Y-96250500D01*
X89647872Y-96250499D01*
X89707483Y-96244091D01*
X89842331Y-96193796D01*
X89957546Y-96107546D01*
X90043796Y-95992331D01*
X90094091Y-95857483D01*
X90100500Y-95797873D01*
X90100499Y-92202128D01*
X90094091Y-92142517D01*
X90073621Y-92087635D01*
X90043797Y-92007671D01*
X90043793Y-92007664D01*
X89957547Y-91892455D01*
X89957544Y-91892452D01*
X89842335Y-91806206D01*
X89842328Y-91806202D01*
X89707482Y-91755908D01*
X89707483Y-91755908D01*
X89647883Y-91749501D01*
X89647881Y-91749500D01*
X89647873Y-91749500D01*
X89647864Y-91749500D01*
X86852129Y-91749500D01*
X86852123Y-91749501D01*
X86792516Y-91755908D01*
X86657671Y-91806202D01*
X86657664Y-91806206D01*
X86542455Y-91892452D01*
X86542452Y-91892455D01*
X86456206Y-92007664D01*
X86456202Y-92007671D01*
X86405908Y-92142517D01*
X86399501Y-92202116D01*
X86399501Y-92202123D01*
X86399500Y-92202135D01*
X86399500Y-92375500D01*
X86379815Y-92442539D01*
X86327011Y-92488294D01*
X86275500Y-92499500D01*
X84672889Y-92499500D01*
X84605850Y-92479815D01*
X84585208Y-92463181D01*
X83536819Y-91414792D01*
X83503334Y-91353469D01*
X83500500Y-91327111D01*
X83500500Y-87368872D01*
X94814500Y-87368872D01*
X94814500Y-87631127D01*
X94835718Y-87792283D01*
X94848730Y-87891116D01*
X94916602Y-88144418D01*
X94916605Y-88144428D01*
X95016953Y-88386690D01*
X95016958Y-88386700D01*
X95148075Y-88613803D01*
X95307718Y-88821851D01*
X95307726Y-88821860D01*
X95493140Y-89007274D01*
X95493148Y-89007281D01*
X95701196Y-89166924D01*
X95928299Y-89298041D01*
X95928309Y-89298046D01*
X96170571Y-89398394D01*
X96170581Y-89398398D01*
X96423884Y-89466270D01*
X96683880Y-89500500D01*
X96683887Y-89500500D01*
X96946113Y-89500500D01*
X96946120Y-89500500D01*
X97206116Y-89466270D01*
X97459419Y-89398398D01*
X97701697Y-89298043D01*
X97928803Y-89166924D01*
X98136851Y-89007282D01*
X98136855Y-89007277D01*
X98136860Y-89007274D01*
X98322274Y-88821860D01*
X98322277Y-88821855D01*
X98322282Y-88821851D01*
X98481924Y-88613803D01*
X98613043Y-88386697D01*
X98713398Y-88144419D01*
X98781270Y-87891116D01*
X98815500Y-87631120D01*
X98815500Y-87368880D01*
X98781270Y-87108884D01*
X98713398Y-86855581D01*
X98705853Y-86837365D01*
X98613046Y-86613309D01*
X98613041Y-86613299D01*
X98481924Y-86386196D01*
X98322281Y-86178148D01*
X98322274Y-86178140D01*
X98136860Y-85992726D01*
X98136851Y-85992718D01*
X97928803Y-85833075D01*
X97701700Y-85701958D01*
X97701690Y-85701953D01*
X97459428Y-85601605D01*
X97459421Y-85601603D01*
X97459419Y-85601602D01*
X97206116Y-85533730D01*
X97148339Y-85526123D01*
X96946127Y-85499500D01*
X96946120Y-85499500D01*
X96683880Y-85499500D01*
X96683872Y-85499500D01*
X96452772Y-85529926D01*
X96423884Y-85533730D01*
X96170581Y-85601602D01*
X96170571Y-85601605D01*
X95928309Y-85701953D01*
X95928299Y-85701958D01*
X95701196Y-85833075D01*
X95493148Y-85992718D01*
X95307718Y-86178148D01*
X95148075Y-86386196D01*
X95016958Y-86613299D01*
X95016953Y-86613309D01*
X94916605Y-86855571D01*
X94916602Y-86855581D01*
X94848730Y-87108885D01*
X94814500Y-87368872D01*
X83500500Y-87368872D01*
X83500500Y-81881902D01*
X83463553Y-81648631D01*
X83425305Y-81530918D01*
X83390568Y-81424008D01*
X83390566Y-81424005D01*
X83390566Y-81424003D01*
X83294023Y-81234527D01*
X83283343Y-81213566D01*
X83144517Y-81022490D01*
X77536818Y-75414791D01*
X77503333Y-75353468D01*
X77500499Y-75327110D01*
X77500499Y-75124000D01*
X77520184Y-75056961D01*
X77572988Y-75011206D01*
X77624499Y-75000000D01*
X80476201Y-75000000D01*
X80543240Y-75019685D01*
G37*
%TD.AperFunction*%
%TD*%
%TA.AperFunction,Conductor*%
%TO.N,unconnected-(D2-PAD-Pad3)*%
G36*
X49943039Y-420185D02*
G01*
X49988794Y-472989D01*
X50000000Y-524500D01*
X50000000Y-4476201D01*
X49980315Y-4543240D01*
X49927511Y-4588995D01*
X49894406Y-4597579D01*
X49894590Y-4598738D01*
X49889779Y-4599500D01*
X49889778Y-4599500D01*
X49827070Y-4609432D01*
X49672047Y-4633985D01*
X49462396Y-4702103D01*
X49462393Y-4702104D01*
X49265974Y-4802187D01*
X49087641Y-4931752D01*
X49087636Y-4931756D01*
X48931756Y-5087636D01*
X48931752Y-5087641D01*
X48802187Y-5265974D01*
X48702104Y-5462393D01*
X48702103Y-5462396D01*
X48633985Y-5672047D01*
X48599500Y-5889778D01*
X48599500Y-6110221D01*
X48633985Y-6327952D01*
X48702103Y-6537603D01*
X48702104Y-6537606D01*
X48802187Y-6734025D01*
X48931752Y-6912358D01*
X48931756Y-6912363D01*
X49087636Y-7068243D01*
X49087641Y-7068247D01*
X49240600Y-7179377D01*
X49265978Y-7197815D01*
X49394375Y-7263237D01*
X49462393Y-7297895D01*
X49462396Y-7297896D01*
X49554898Y-7327951D01*
X49672049Y-7366015D01*
X49889778Y-7400500D01*
X49889779Y-7400500D01*
X49894590Y-7401262D01*
X49894244Y-7403445D01*
X49950946Y-7425009D01*
X49992457Y-7481210D01*
X50000000Y-7523798D01*
X50000000Y-16476201D01*
X49980315Y-16543240D01*
X49927511Y-16588995D01*
X49894406Y-16597579D01*
X49894590Y-16598738D01*
X49889779Y-16599500D01*
X49889778Y-16599500D01*
X49827070Y-16609432D01*
X49672047Y-16633985D01*
X49462396Y-16702103D01*
X49462393Y-16702104D01*
X49265974Y-16802187D01*
X49087641Y-16931752D01*
X49087636Y-16931756D01*
X48931756Y-17087636D01*
X48931752Y-17087641D01*
X48802187Y-17265974D01*
X48702104Y-17462393D01*
X48702103Y-17462396D01*
X48633985Y-17672047D01*
X48633985Y-17672049D01*
X48599500Y-17889778D01*
X48599500Y-18110222D01*
X48605584Y-18148632D01*
X48633985Y-18327952D01*
X48702103Y-18537603D01*
X48702104Y-18537606D01*
X48802187Y-18734025D01*
X48931752Y-18912358D01*
X48931756Y-18912363D01*
X49087636Y-19068243D01*
X49087641Y-19068247D01*
X49195391Y-19146531D01*
X49265978Y-19197815D01*
X49394375Y-19263237D01*
X49462393Y-19297895D01*
X49462396Y-19297896D01*
X49567221Y-19331955D01*
X49672049Y-19366015D01*
X49889778Y-19400500D01*
X49889779Y-19400500D01*
X49894590Y-19401262D01*
X49894244Y-19403445D01*
X49950946Y-19425009D01*
X49992457Y-19481210D01*
X50000000Y-19523798D01*
X50000000Y-24416204D01*
X49980315Y-24483243D01*
X49927511Y-24528998D01*
X49915160Y-24533858D01*
X49862498Y-24551385D01*
X49817297Y-24580434D01*
X49750257Y-24600117D01*
X49698747Y-24588911D01*
X49579965Y-24534664D01*
X49579960Y-24534662D01*
X49579959Y-24534662D01*
X49512920Y-24514977D01*
X49512922Y-24514977D01*
X49512917Y-24514976D01*
X49450854Y-24506053D01*
X49370500Y-24494500D01*
X49124499Y-24494500D01*
X49057460Y-24474815D01*
X49011705Y-24422011D01*
X49000499Y-24370500D01*
X49000499Y-21952129D01*
X49000498Y-21952123D01*
X49000497Y-21952116D01*
X48994091Y-21892517D01*
X48943796Y-21757669D01*
X48943795Y-21757668D01*
X48943793Y-21757664D01*
X48857547Y-21642455D01*
X48857544Y-21642452D01*
X48742335Y-21556206D01*
X48742328Y-21556202D01*
X48607482Y-21505908D01*
X48607483Y-21505908D01*
X48547883Y-21499501D01*
X48547881Y-21499500D01*
X48547873Y-21499500D01*
X48547865Y-21499500D01*
X48124500Y-21499500D01*
X48057461Y-21479815D01*
X48011706Y-21427011D01*
X48000500Y-21375500D01*
X48000500Y-18381902D01*
X47963553Y-18148631D01*
X47892075Y-17928647D01*
X47891012Y-17924880D01*
X47890568Y-17924008D01*
X47890568Y-17924007D01*
X47783343Y-17713566D01*
X47644517Y-17522490D01*
X44536819Y-14414792D01*
X44503334Y-14353469D01*
X44500500Y-14327111D01*
X44500500Y-12368872D01*
X44814500Y-12368872D01*
X44814500Y-12631127D01*
X44832436Y-12767354D01*
X44848730Y-12891116D01*
X44872974Y-12981595D01*
X44916602Y-13144418D01*
X44916605Y-13144428D01*
X45016953Y-13386690D01*
X45016958Y-13386700D01*
X45148075Y-13613803D01*
X45307718Y-13821851D01*
X45307726Y-13821860D01*
X45493140Y-14007274D01*
X45493148Y-14007281D01*
X45701196Y-14166924D01*
X45928299Y-14298041D01*
X45928309Y-14298046D01*
X46170571Y-14398394D01*
X46170581Y-14398398D01*
X46423884Y-14466270D01*
X46683880Y-14500500D01*
X46683887Y-14500500D01*
X46946113Y-14500500D01*
X46946120Y-14500500D01*
X47206116Y-14466270D01*
X47459419Y-14398398D01*
X47701697Y-14298043D01*
X47928803Y-14166924D01*
X48136851Y-14007282D01*
X48136855Y-14007277D01*
X48136860Y-14007274D01*
X48322274Y-13821860D01*
X48322277Y-13821855D01*
X48322282Y-13821851D01*
X48481924Y-13613803D01*
X48613043Y-13386697D01*
X48713398Y-13144419D01*
X48781270Y-12891116D01*
X48815500Y-12631120D01*
X48815500Y-12368880D01*
X48781270Y-12108884D01*
X48713398Y-11855581D01*
X48705853Y-11837365D01*
X48613046Y-11613309D01*
X48613041Y-11613299D01*
X48481924Y-11386196D01*
X48322281Y-11178148D01*
X48322274Y-11178140D01*
X48136860Y-10992726D01*
X48136851Y-10992718D01*
X47928803Y-10833075D01*
X47701700Y-10701958D01*
X47701690Y-10701953D01*
X47459428Y-10601605D01*
X47459421Y-10601603D01*
X47459419Y-10601602D01*
X47206116Y-10533730D01*
X47148339Y-10526123D01*
X46946127Y-10499500D01*
X46946120Y-10499500D01*
X46683880Y-10499500D01*
X46683872Y-10499500D01*
X46452772Y-10529926D01*
X46423884Y-10533730D01*
X46170581Y-10601602D01*
X46170571Y-10601605D01*
X45928309Y-10701953D01*
X45928299Y-10701958D01*
X45701196Y-10833075D01*
X45493148Y-10992718D01*
X45307718Y-11178148D01*
X45148075Y-11386196D01*
X45016958Y-11613299D01*
X45016953Y-11613309D01*
X44916605Y-11855571D01*
X44916602Y-11855581D01*
X44848730Y-12108885D01*
X44814500Y-12368872D01*
X44500500Y-12368872D01*
X44500500Y-7881906D01*
X44499083Y-7872961D01*
X44463553Y-7648633D01*
X44463553Y-7648631D01*
X44390568Y-7424008D01*
X44283343Y-7213566D01*
X44144517Y-7022490D01*
X41977510Y-4855483D01*
X41786434Y-4716657D01*
X41757870Y-4702103D01*
X41575996Y-4609433D01*
X41351368Y-4536446D01*
X41118097Y-4499500D01*
X41118092Y-4499500D01*
X38724499Y-4499500D01*
X38657460Y-4479815D01*
X38611705Y-4427011D01*
X38600499Y-4375500D01*
X38600499Y-4202129D01*
X38600498Y-4202123D01*
X38600497Y-4202116D01*
X38594091Y-4142517D01*
X38543796Y-4007669D01*
X38543795Y-4007668D01*
X38543793Y-4007664D01*
X38457547Y-3892455D01*
X38457544Y-3892452D01*
X38342335Y-3806206D01*
X38342328Y-3806202D01*
X38207482Y-3755908D01*
X38207483Y-3755908D01*
X38147883Y-3749501D01*
X38147881Y-3749500D01*
X38147873Y-3749500D01*
X38147864Y-3749500D01*
X35352129Y-3749500D01*
X35352123Y-3749501D01*
X35292516Y-3755908D01*
X35157671Y-3806202D01*
X35157664Y-3806206D01*
X35042455Y-3892452D01*
X35042452Y-3892455D01*
X34956206Y-4007664D01*
X34956202Y-4007671D01*
X34905908Y-4142517D01*
X34899501Y-4202116D01*
X34899501Y-4202123D01*
X34899500Y-4202135D01*
X34899500Y-7797870D01*
X34899501Y-7797876D01*
X34905908Y-7857483D01*
X34956202Y-7992328D01*
X34956206Y-7992335D01*
X35042452Y-8107544D01*
X35042455Y-8107547D01*
X35157664Y-8193793D01*
X35157671Y-8193797D01*
X35292517Y-8244091D01*
X35292516Y-8244091D01*
X35299444Y-8244835D01*
X35352127Y-8250500D01*
X38147872Y-8250499D01*
X38207483Y-8244091D01*
X38342331Y-8193796D01*
X38457546Y-8107546D01*
X38543796Y-7992331D01*
X38594091Y-7857483D01*
X38600500Y-7797873D01*
X38600500Y-7624500D01*
X38620185Y-7557461D01*
X38672989Y-7511706D01*
X38724500Y-7500500D01*
X40327111Y-7500500D01*
X40394150Y-7520185D01*
X40414792Y-7536819D01*
X41463181Y-8585208D01*
X41496666Y-8646531D01*
X41499500Y-8672889D01*
X41499500Y-15118097D01*
X41536446Y-15351368D01*
X41609433Y-15575996D01*
X41716657Y-15786434D01*
X41855484Y-15977511D01*
X44963181Y-19085208D01*
X44996666Y-19146531D01*
X44999500Y-19172889D01*
X44999500Y-21375500D01*
X44979815Y-21442539D01*
X44927011Y-21488294D01*
X44875500Y-21499500D01*
X44452129Y-21499500D01*
X44452123Y-21499501D01*
X44392516Y-21505908D01*
X44257671Y-21556202D01*
X44257664Y-21556206D01*
X44142455Y-21642452D01*
X44142452Y-21642455D01*
X44056206Y-21757664D01*
X44056202Y-21757671D01*
X44005908Y-21892517D01*
X43999501Y-21952116D01*
X43999501Y-21952123D01*
X43999500Y-21952135D01*
X43999500Y-24370500D01*
X43979815Y-24437539D01*
X43927011Y-24483294D01*
X43875500Y-24494500D01*
X39874500Y-24494500D01*
X39807461Y-24474815D01*
X39761706Y-24422011D01*
X39750500Y-24370500D01*
X39750500Y-21314141D01*
X39770185Y-21247102D01*
X39822989Y-21201347D01*
X39831149Y-21197966D01*
X39842331Y-21193796D01*
X39957546Y-21107546D01*
X40043796Y-20992331D01*
X40094091Y-20857483D01*
X40100500Y-20797873D01*
X40100499Y-17202128D01*
X40094091Y-17142517D01*
X40073621Y-17087635D01*
X40043797Y-17007671D01*
X40043793Y-17007664D01*
X39957547Y-16892455D01*
X39957544Y-16892452D01*
X39842335Y-16806206D01*
X39842328Y-16806202D01*
X39707482Y-16755908D01*
X39707483Y-16755908D01*
X39647883Y-16749501D01*
X39647881Y-16749500D01*
X39647873Y-16749500D01*
X39647864Y-16749500D01*
X36852129Y-16749500D01*
X36852123Y-16749501D01*
X36792516Y-16755908D01*
X36657671Y-16806202D01*
X36657664Y-16806206D01*
X36542455Y-16892452D01*
X36542452Y-16892455D01*
X36456206Y-17007664D01*
X36456202Y-17007671D01*
X36405908Y-17142517D01*
X36399501Y-17202116D01*
X36399501Y-17202123D01*
X36399500Y-17202135D01*
X36399500Y-20797870D01*
X36399501Y-20797876D01*
X36405908Y-20857483D01*
X36456202Y-20992328D01*
X36456206Y-20992335D01*
X36542452Y-21107544D01*
X36542455Y-21107547D01*
X36657665Y-21193794D01*
X36657667Y-21193794D01*
X36657669Y-21193796D01*
X36668830Y-21197958D01*
X36724764Y-21239826D01*
X36749184Y-21305289D01*
X36749500Y-21314141D01*
X36749500Y-24370500D01*
X36729815Y-24437539D01*
X36677011Y-24483294D01*
X36625500Y-24494500D01*
X27624499Y-24494500D01*
X27557460Y-24474815D01*
X27511705Y-24422011D01*
X27500499Y-24370500D01*
X27500499Y-21952129D01*
X27500498Y-21952123D01*
X27500497Y-21952116D01*
X27494091Y-21892517D01*
X27443796Y-21757669D01*
X27443795Y-21757668D01*
X27443793Y-21757664D01*
X27357547Y-21642455D01*
X27357544Y-21642452D01*
X27242335Y-21556206D01*
X27242328Y-21556202D01*
X27107482Y-21505908D01*
X27107483Y-21505908D01*
X27047883Y-21499501D01*
X27047881Y-21499500D01*
X27047873Y-21499500D01*
X27047865Y-21499500D01*
X25629500Y-21499500D01*
X25562461Y-21479815D01*
X25516706Y-21427011D01*
X25505500Y-21375500D01*
X25505500Y-12368872D01*
X26184500Y-12368872D01*
X26184500Y-12631127D01*
X26202436Y-12767354D01*
X26218730Y-12891116D01*
X26242974Y-12981595D01*
X26286602Y-13144418D01*
X26286605Y-13144428D01*
X26386953Y-13386690D01*
X26386958Y-13386700D01*
X26518075Y-13613803D01*
X26677718Y-13821851D01*
X26677726Y-13821860D01*
X26863140Y-14007274D01*
X26863148Y-14007281D01*
X27071196Y-14166924D01*
X27298299Y-14298041D01*
X27298309Y-14298046D01*
X27540571Y-14398394D01*
X27540581Y-14398398D01*
X27793884Y-14466270D01*
X28053880Y-14500500D01*
X28053887Y-14500500D01*
X28316113Y-14500500D01*
X28316120Y-14500500D01*
X28576116Y-14466270D01*
X28829419Y-14398398D01*
X29071697Y-14298043D01*
X29298803Y-14166924D01*
X29506851Y-14007282D01*
X29506855Y-14007277D01*
X29506860Y-14007274D01*
X29692274Y-13821860D01*
X29692277Y-13821855D01*
X29692282Y-13821851D01*
X29851924Y-13613803D01*
X29983043Y-13386697D01*
X30083398Y-13144419D01*
X30151270Y-12891116D01*
X30185500Y-12631120D01*
X30185500Y-12368880D01*
X30151270Y-12108884D01*
X30083398Y-11855581D01*
X30075853Y-11837365D01*
X29983046Y-11613309D01*
X29983041Y-11613299D01*
X29851924Y-11386196D01*
X29692281Y-11178148D01*
X29692274Y-11178140D01*
X29506860Y-10992726D01*
X29506851Y-10992718D01*
X29298803Y-10833075D01*
X29071700Y-10701958D01*
X29071690Y-10701953D01*
X28829428Y-10601605D01*
X28829421Y-10601603D01*
X28829419Y-10601602D01*
X28576116Y-10533730D01*
X28518339Y-10526123D01*
X28316127Y-10499500D01*
X28316120Y-10499500D01*
X28053880Y-10499500D01*
X28053872Y-10499500D01*
X27822772Y-10529926D01*
X27793884Y-10533730D01*
X27540581Y-10601602D01*
X27540571Y-10601605D01*
X27298309Y-10701953D01*
X27298299Y-10701958D01*
X27071196Y-10833075D01*
X26863148Y-10992718D01*
X26677718Y-11178148D01*
X26518075Y-11386196D01*
X26386958Y-11613299D01*
X26386953Y-11613309D01*
X26286605Y-11855571D01*
X26286602Y-11855581D01*
X26218730Y-12108885D01*
X26184500Y-12368872D01*
X25505500Y-12368872D01*
X25505500Y-8523797D01*
X25504753Y-8515303D01*
X25497753Y-8435638D01*
X25494690Y-8418345D01*
X25502379Y-8348902D01*
X25546391Y-8294638D01*
X25560484Y-8286237D01*
X25734022Y-8197815D01*
X25912365Y-8068242D01*
X26068242Y-7912365D01*
X26197815Y-7734022D01*
X26297895Y-7537606D01*
X26366015Y-7327951D01*
X26400500Y-7110222D01*
X26400500Y-6889778D01*
X26366015Y-6672049D01*
X26331955Y-6567221D01*
X26297896Y-6462396D01*
X26297895Y-6462393D01*
X26263237Y-6394375D01*
X26197815Y-6265978D01*
X26181260Y-6243192D01*
X26068247Y-6087641D01*
X26068243Y-6087636D01*
X25912363Y-5931756D01*
X25912358Y-5931752D01*
X25734025Y-5802187D01*
X25734024Y-5802186D01*
X25734022Y-5802185D01*
X25556500Y-5711732D01*
X25505705Y-5663758D01*
X25488910Y-5595937D01*
X25490058Y-5583601D01*
X25505500Y-5476201D01*
X25505500Y-524500D01*
X25525185Y-457461D01*
X25577989Y-411706D01*
X25629500Y-400500D01*
X49876000Y-400500D01*
X49943039Y-420185D01*
G37*
%TD.AperFunction*%
%TD*%
%TA.AperFunction,Conductor*%
%TO.N,unconnected-(D4-PAD-Pad3)*%
G36*
X99542539Y-420185D02*
G01*
X99588294Y-472989D01*
X99599500Y-524500D01*
X99599500Y-24876000D01*
X99579815Y-24943039D01*
X99527011Y-24988794D01*
X99475500Y-25000000D01*
X97523799Y-25000000D01*
X97456760Y-24980315D01*
X97411005Y-24927511D01*
X97402420Y-24894406D01*
X97401262Y-24894590D01*
X97383693Y-24783664D01*
X97366015Y-24672049D01*
X97321376Y-24534662D01*
X97297896Y-24462396D01*
X97297895Y-24462393D01*
X97263237Y-24394375D01*
X97197815Y-24265978D01*
X97181260Y-24243192D01*
X97068247Y-24087641D01*
X97068243Y-24087636D01*
X96912363Y-23931756D01*
X96912358Y-23931752D01*
X96734025Y-23802187D01*
X96734024Y-23802186D01*
X96734022Y-23802185D01*
X96671096Y-23770122D01*
X96537606Y-23702104D01*
X96537603Y-23702103D01*
X96327952Y-23633985D01*
X96219086Y-23616742D01*
X96110222Y-23599500D01*
X95889778Y-23599500D01*
X95817201Y-23610995D01*
X95672047Y-23633985D01*
X95462396Y-23702103D01*
X95462393Y-23702104D01*
X95265974Y-23802187D01*
X95087641Y-23931752D01*
X95087636Y-23931756D01*
X94931756Y-24087636D01*
X94931752Y-24087641D01*
X94802187Y-24265974D01*
X94702104Y-24462393D01*
X94702103Y-24462396D01*
X94633985Y-24672047D01*
X94598738Y-24894590D01*
X94596585Y-24894249D01*
X94574897Y-24951067D01*
X94518645Y-24992510D01*
X94476201Y-25000000D01*
X89874500Y-25000000D01*
X89807461Y-24980315D01*
X89761706Y-24927511D01*
X89750500Y-24876000D01*
X89750500Y-21314141D01*
X89770185Y-21247102D01*
X89822989Y-21201347D01*
X89831149Y-21197966D01*
X89842331Y-21193796D01*
X89957546Y-21107546D01*
X90043796Y-20992331D01*
X90094091Y-20857483D01*
X90100500Y-20797873D01*
X90100499Y-17202128D01*
X90094091Y-17142517D01*
X90043796Y-17007669D01*
X90043795Y-17007668D01*
X90043793Y-17007664D01*
X89957547Y-16892455D01*
X89957544Y-16892452D01*
X89842335Y-16806206D01*
X89842328Y-16806202D01*
X89707482Y-16755908D01*
X89707483Y-16755908D01*
X89647883Y-16749501D01*
X89647881Y-16749500D01*
X89647873Y-16749500D01*
X89647864Y-16749500D01*
X86852129Y-16749500D01*
X86852123Y-16749501D01*
X86792516Y-16755908D01*
X86657671Y-16806202D01*
X86657664Y-16806206D01*
X86542455Y-16892452D01*
X86542452Y-16892455D01*
X86456206Y-17007664D01*
X86456202Y-17007671D01*
X86405908Y-17142517D01*
X86399501Y-17202116D01*
X86399501Y-17202123D01*
X86399500Y-17202135D01*
X86399500Y-20797870D01*
X86399501Y-20797876D01*
X86405908Y-20857483D01*
X86456202Y-20992328D01*
X86456206Y-20992335D01*
X86542452Y-21107544D01*
X86542455Y-21107547D01*
X86657665Y-21193794D01*
X86657667Y-21193794D01*
X86657669Y-21193796D01*
X86668830Y-21197958D01*
X86724764Y-21239826D01*
X86749184Y-21305289D01*
X86749500Y-21314141D01*
X86749500Y-24876000D01*
X86729815Y-24943039D01*
X86677011Y-24988794D01*
X86625500Y-25000000D01*
X83523799Y-25000000D01*
X83456760Y-24980315D01*
X83411005Y-24927511D01*
X83402420Y-24894406D01*
X83401262Y-24894590D01*
X83383693Y-24783664D01*
X83366015Y-24672049D01*
X83321376Y-24534662D01*
X83297896Y-24462396D01*
X83297895Y-24462393D01*
X83263237Y-24394375D01*
X83197815Y-24265978D01*
X83181260Y-24243192D01*
X83068247Y-24087641D01*
X83068243Y-24087636D01*
X82912363Y-23931756D01*
X82912358Y-23931752D01*
X82734025Y-23802187D01*
X82734024Y-23802186D01*
X82734022Y-23802185D01*
X82671096Y-23770122D01*
X82537606Y-23702104D01*
X82537603Y-23702103D01*
X82327952Y-23633985D01*
X82219086Y-23616742D01*
X82110222Y-23599500D01*
X81889778Y-23599500D01*
X81817201Y-23610995D01*
X81672047Y-23633985D01*
X81462396Y-23702103D01*
X81462393Y-23702104D01*
X81265974Y-23802187D01*
X81087641Y-23931752D01*
X81087636Y-23931756D01*
X80931756Y-24087636D01*
X80931752Y-24087641D01*
X80802187Y-24265974D01*
X80702104Y-24462393D01*
X80702103Y-24462396D01*
X80633985Y-24672047D01*
X80598738Y-24894590D01*
X80596585Y-24894249D01*
X80574897Y-24951067D01*
X80518645Y-24992510D01*
X80476201Y-25000000D01*
X77624499Y-25000000D01*
X77557460Y-24980315D01*
X77511705Y-24927511D01*
X77500499Y-24876000D01*
X77500499Y-22672889D01*
X77520184Y-22605850D01*
X77536818Y-22585208D01*
X79543416Y-20578610D01*
X83144517Y-16977510D01*
X83283343Y-16786434D01*
X83390568Y-16575992D01*
X83463553Y-16351368D01*
X83500500Y-16118097D01*
X83500500Y-12368872D01*
X94814500Y-12368872D01*
X94814500Y-12631127D01*
X94841123Y-12833339D01*
X94848730Y-12891116D01*
X94916602Y-13144418D01*
X94916605Y-13144428D01*
X95016953Y-13386690D01*
X95016958Y-13386700D01*
X95148075Y-13613803D01*
X95307718Y-13821851D01*
X95307726Y-13821860D01*
X95493140Y-14007274D01*
X95493148Y-14007281D01*
X95701196Y-14166924D01*
X95928299Y-14298041D01*
X95928309Y-14298046D01*
X96170571Y-14398394D01*
X96170581Y-14398398D01*
X96423884Y-14466270D01*
X96683880Y-14500500D01*
X96683887Y-14500500D01*
X96946113Y-14500500D01*
X96946120Y-14500500D01*
X97206116Y-14466270D01*
X97459419Y-14398398D01*
X97701697Y-14298043D01*
X97928803Y-14166924D01*
X98136851Y-14007282D01*
X98136855Y-14007277D01*
X98136860Y-14007274D01*
X98322274Y-13821860D01*
X98322277Y-13821855D01*
X98322282Y-13821851D01*
X98481924Y-13613803D01*
X98613043Y-13386697D01*
X98713398Y-13144419D01*
X98781270Y-12891116D01*
X98815500Y-12631120D01*
X98815500Y-12368880D01*
X98781270Y-12108884D01*
X98713398Y-11855581D01*
X98713394Y-11855571D01*
X98613046Y-11613309D01*
X98613041Y-11613299D01*
X98481924Y-11386196D01*
X98322281Y-11178148D01*
X98322274Y-11178140D01*
X98136860Y-10992726D01*
X98136851Y-10992718D01*
X97928803Y-10833075D01*
X97701700Y-10701958D01*
X97701690Y-10701953D01*
X97459428Y-10601605D01*
X97459421Y-10601603D01*
X97459419Y-10601602D01*
X97206116Y-10533730D01*
X97148339Y-10526123D01*
X96946127Y-10499500D01*
X96946120Y-10499500D01*
X96683880Y-10499500D01*
X96683872Y-10499500D01*
X96452772Y-10529926D01*
X96423884Y-10533730D01*
X96170581Y-10601602D01*
X96170571Y-10601605D01*
X95928309Y-10701953D01*
X95928299Y-10701958D01*
X95701196Y-10833075D01*
X95493148Y-10992718D01*
X95307718Y-11178148D01*
X95148075Y-11386196D01*
X95016958Y-11613299D01*
X95016953Y-11613309D01*
X94916605Y-11855571D01*
X94916602Y-11855581D01*
X94848730Y-12108885D01*
X94814500Y-12368872D01*
X83500500Y-12368872D01*
X83500500Y-8672889D01*
X83520185Y-8605850D01*
X83536819Y-8585208D01*
X84585208Y-7536819D01*
X84646531Y-7503334D01*
X84672889Y-7500500D01*
X84775501Y-7500500D01*
X84842540Y-7520185D01*
X84888295Y-7572989D01*
X84899501Y-7624500D01*
X84899501Y-7797876D01*
X84905908Y-7857483D01*
X84956202Y-7992328D01*
X84956206Y-7992335D01*
X85042452Y-8107544D01*
X85042455Y-8107547D01*
X85157664Y-8193793D01*
X85157671Y-8193797D01*
X85292517Y-8244091D01*
X85292516Y-8244091D01*
X85299444Y-8244835D01*
X85352127Y-8250500D01*
X88147872Y-8250499D01*
X88207483Y-8244091D01*
X88342331Y-8193796D01*
X88457546Y-8107546D01*
X88543796Y-7992331D01*
X88594091Y-7857483D01*
X88600500Y-7797873D01*
X88600499Y-4202128D01*
X88594091Y-4142517D01*
X88543796Y-4007669D01*
X88543795Y-4007668D01*
X88543793Y-4007664D01*
X88457547Y-3892455D01*
X88457544Y-3892452D01*
X88342335Y-3806206D01*
X88342328Y-3806202D01*
X88207482Y-3755908D01*
X88207483Y-3755908D01*
X88147883Y-3749501D01*
X88147881Y-3749500D01*
X88147873Y-3749500D01*
X88147864Y-3749500D01*
X85352129Y-3749500D01*
X85352123Y-3749501D01*
X85292516Y-3755908D01*
X85157671Y-3806202D01*
X85157664Y-3806206D01*
X85042455Y-3892452D01*
X85042452Y-3892455D01*
X84956206Y-4007664D01*
X84956202Y-4007671D01*
X84905908Y-4142517D01*
X84899501Y-4202116D01*
X84899501Y-4202123D01*
X84899500Y-4202135D01*
X84899500Y-4375500D01*
X84879815Y-4442539D01*
X84827011Y-4488294D01*
X84775500Y-4499500D01*
X83881903Y-4499500D01*
X83648634Y-4536446D01*
X83424005Y-4609433D01*
X83213565Y-4716657D01*
X83022488Y-4855484D01*
X80855484Y-7022488D01*
X80716657Y-7213565D01*
X80609433Y-7424003D01*
X80536446Y-7648631D01*
X80499500Y-7881902D01*
X80499500Y-15327110D01*
X80479815Y-15394149D01*
X80463181Y-15414791D01*
X75211681Y-20666291D01*
X75150358Y-20699776D01*
X75080666Y-20694792D01*
X75024733Y-20652920D01*
X75000316Y-20587456D01*
X75000000Y-20578610D01*
X75000000Y-12368872D01*
X76184500Y-12368872D01*
X76184500Y-12631127D01*
X76211123Y-12833339D01*
X76218730Y-12891116D01*
X76286602Y-13144418D01*
X76286605Y-13144428D01*
X76386953Y-13386690D01*
X76386958Y-13386700D01*
X76518075Y-13613803D01*
X76677718Y-13821851D01*
X76677726Y-13821860D01*
X76863140Y-14007274D01*
X76863148Y-14007281D01*
X77071196Y-14166924D01*
X77298299Y-14298041D01*
X77298309Y-14298046D01*
X77540571Y-14398394D01*
X77540581Y-14398398D01*
X77793884Y-14466270D01*
X78053880Y-14500500D01*
X78053887Y-14500500D01*
X78316113Y-14500500D01*
X78316120Y-14500500D01*
X78576116Y-14466270D01*
X78829419Y-14398398D01*
X79071697Y-14298043D01*
X79298803Y-14166924D01*
X79506851Y-14007282D01*
X79506855Y-14007277D01*
X79506860Y-14007274D01*
X79692274Y-13821860D01*
X79692277Y-13821855D01*
X79692282Y-13821851D01*
X79851924Y-13613803D01*
X79983043Y-13386697D01*
X80083398Y-13144419D01*
X80151270Y-12891116D01*
X80185500Y-12631120D01*
X80185500Y-12368880D01*
X80151270Y-12108884D01*
X80083398Y-11855581D01*
X80083394Y-11855571D01*
X79983046Y-11613309D01*
X79983041Y-11613299D01*
X79851924Y-11386196D01*
X79692281Y-11178148D01*
X79692274Y-11178140D01*
X79506860Y-10992726D01*
X79506851Y-10992718D01*
X79298803Y-10833075D01*
X79071700Y-10701958D01*
X79071690Y-10701953D01*
X78829428Y-10601605D01*
X78829421Y-10601603D01*
X78829419Y-10601602D01*
X78576116Y-10533730D01*
X78518339Y-10526123D01*
X78316127Y-10499500D01*
X78316120Y-10499500D01*
X78053880Y-10499500D01*
X78053872Y-10499500D01*
X77822772Y-10529926D01*
X77793884Y-10533730D01*
X77540581Y-10601602D01*
X77540571Y-10601605D01*
X77298309Y-10701953D01*
X77298299Y-10701958D01*
X77071196Y-10833075D01*
X76863148Y-10992718D01*
X76677718Y-11178148D01*
X76518075Y-11386196D01*
X76386958Y-11613299D01*
X76386953Y-11613309D01*
X76286605Y-11855571D01*
X76286602Y-11855581D01*
X76218730Y-12108885D01*
X76184500Y-12368872D01*
X75000000Y-12368872D01*
X75000000Y-8523798D01*
X75019685Y-8456759D01*
X75072489Y-8411004D01*
X75105596Y-8402440D01*
X75105410Y-8401262D01*
X75110221Y-8400500D01*
X75110222Y-8400500D01*
X75327951Y-8366015D01*
X75537606Y-8297895D01*
X75734022Y-8197815D01*
X75912365Y-8068242D01*
X76068242Y-7912365D01*
X76197815Y-7734022D01*
X76297895Y-7537606D01*
X76366015Y-7327951D01*
X76400500Y-7110222D01*
X76400500Y-6889778D01*
X76366015Y-6672049D01*
X76297895Y-6462394D01*
X76297895Y-6462393D01*
X76263237Y-6394375D01*
X76197815Y-6265978D01*
X76181260Y-6243192D01*
X76068247Y-6087641D01*
X76068243Y-6087636D01*
X75912363Y-5931756D01*
X75912358Y-5931752D01*
X75734025Y-5802187D01*
X75734024Y-5802186D01*
X75734022Y-5802185D01*
X75671096Y-5770122D01*
X75537606Y-5702104D01*
X75537603Y-5702103D01*
X75327952Y-5633985D01*
X75213078Y-5615790D01*
X75110222Y-5599500D01*
X75110221Y-5599500D01*
X75105410Y-5598738D01*
X75105750Y-5596585D01*
X75048933Y-5574897D01*
X75007490Y-5518645D01*
X75000000Y-5476201D01*
X75000000Y-524500D01*
X75019685Y-457461D01*
X75072489Y-411706D01*
X75124000Y-400500D01*
X99475500Y-400500D01*
X99542539Y-420185D01*
G37*
%TD.AperFunction*%
%TD*%
%TA.AperFunction,Conductor*%
%TO.N,unconnected-(D11-PAD-Pad3)*%
G36*
X51416389Y-50490057D02*
G01*
X51523799Y-50505500D01*
X51523802Y-50505500D01*
X61625500Y-50505500D01*
X61692539Y-50525185D01*
X61738294Y-50577989D01*
X61749500Y-50629500D01*
X61749500Y-53625500D01*
X61729815Y-53692539D01*
X61677011Y-53738294D01*
X61625500Y-53749500D01*
X60352129Y-53749500D01*
X60352123Y-53749501D01*
X60292516Y-53755908D01*
X60157671Y-53806202D01*
X60157664Y-53806206D01*
X60042455Y-53892452D01*
X60042452Y-53892455D01*
X59956206Y-54007664D01*
X59956202Y-54007671D01*
X59905908Y-54142517D01*
X59899501Y-54202116D01*
X59899500Y-54202135D01*
X59899500Y-57797870D01*
X59899501Y-57797876D01*
X59905908Y-57857483D01*
X59956202Y-57992328D01*
X59956206Y-57992335D01*
X60042452Y-58107544D01*
X60042455Y-58107547D01*
X60157664Y-58193793D01*
X60157671Y-58193797D01*
X60292517Y-58244091D01*
X60292516Y-58244091D01*
X60299444Y-58244835D01*
X60352127Y-58250500D01*
X63147872Y-58250499D01*
X63207483Y-58244091D01*
X63342331Y-58193796D01*
X63457546Y-58107546D01*
X63543796Y-57992331D01*
X63594091Y-57857483D01*
X63600500Y-57797873D01*
X63600499Y-56322888D01*
X63620184Y-56255850D01*
X63636818Y-56235208D01*
X64394517Y-55477510D01*
X64533343Y-55286434D01*
X64640568Y-55075992D01*
X64657952Y-55022490D01*
X64713553Y-54851368D01*
X64750500Y-54618097D01*
X64750500Y-50629500D01*
X64770185Y-50562461D01*
X64822989Y-50516706D01*
X64874500Y-50505500D01*
X74876000Y-50505500D01*
X74943039Y-50525185D01*
X74988794Y-50577989D01*
X75000000Y-50629500D01*
X75000000Y-71375500D01*
X74980315Y-71442539D01*
X74927511Y-71488294D01*
X74876000Y-71499500D01*
X72952129Y-71499500D01*
X72952123Y-71499501D01*
X72892516Y-71505908D01*
X72757671Y-71556202D01*
X72757664Y-71556206D01*
X72642455Y-71642452D01*
X72642452Y-71642455D01*
X72556206Y-71757664D01*
X72556202Y-71757671D01*
X72505908Y-71892517D01*
X72499501Y-71952116D01*
X72499501Y-71952123D01*
X72499500Y-71952135D01*
X72499500Y-74370500D01*
X72479815Y-74437539D01*
X72427011Y-74483294D01*
X72375500Y-74494500D01*
X64874500Y-74494500D01*
X64807461Y-74474815D01*
X64761706Y-74422011D01*
X64750500Y-74370500D01*
X64750500Y-71314141D01*
X64770185Y-71247102D01*
X64822989Y-71201347D01*
X64831149Y-71197966D01*
X64842331Y-71193796D01*
X64957546Y-71107546D01*
X65043796Y-70992331D01*
X65094091Y-70857483D01*
X65100500Y-70797873D01*
X65100499Y-67202128D01*
X65094091Y-67142517D01*
X65043796Y-67007669D01*
X65043795Y-67007668D01*
X65043793Y-67007664D01*
X64957547Y-66892455D01*
X64957544Y-66892452D01*
X64842335Y-66806206D01*
X64842328Y-66806202D01*
X64707482Y-66755908D01*
X64707483Y-66755908D01*
X64647883Y-66749501D01*
X64647881Y-66749500D01*
X64647873Y-66749500D01*
X64647864Y-66749500D01*
X61852129Y-66749500D01*
X61852123Y-66749501D01*
X61792516Y-66755908D01*
X61657671Y-66806202D01*
X61657664Y-66806206D01*
X61542455Y-66892452D01*
X61542452Y-66892455D01*
X61456206Y-67007664D01*
X61456202Y-67007671D01*
X61405908Y-67142517D01*
X61399501Y-67202116D01*
X61399501Y-67202123D01*
X61399500Y-67202135D01*
X61399500Y-70797870D01*
X61399501Y-70797876D01*
X61405908Y-70857483D01*
X61456202Y-70992328D01*
X61456206Y-70992335D01*
X61542452Y-71107544D01*
X61542455Y-71107547D01*
X61657665Y-71193794D01*
X61657667Y-71193794D01*
X61657669Y-71193796D01*
X61668830Y-71197958D01*
X61724764Y-71239826D01*
X61749184Y-71305289D01*
X61749500Y-71314141D01*
X61749500Y-74370500D01*
X61729815Y-74437539D01*
X61677011Y-74483294D01*
X61625500Y-74494500D01*
X56124499Y-74494500D01*
X56057460Y-74474815D01*
X56011705Y-74422011D01*
X56000499Y-74370500D01*
X56000499Y-71952129D01*
X56000498Y-71952123D01*
X56000497Y-71952116D01*
X55994091Y-71892517D01*
X55943796Y-71757669D01*
X55943795Y-71757668D01*
X55943793Y-71757664D01*
X55857547Y-71642455D01*
X55857544Y-71642452D01*
X55742335Y-71556206D01*
X55742328Y-71556202D01*
X55607482Y-71505908D01*
X55607483Y-71505908D01*
X55547883Y-71499501D01*
X55547881Y-71499500D01*
X55547873Y-71499500D01*
X55547864Y-71499500D01*
X51452129Y-71499500D01*
X51452123Y-71499501D01*
X51392516Y-71505908D01*
X51257671Y-71556202D01*
X51257664Y-71556206D01*
X51142455Y-71642452D01*
X51142452Y-71642455D01*
X51056206Y-71757664D01*
X51056202Y-71757671D01*
X51005908Y-71892517D01*
X50999501Y-71952116D01*
X50999501Y-71952123D01*
X50999500Y-71952135D01*
X50999500Y-74370500D01*
X50979815Y-74437539D01*
X50927011Y-74483294D01*
X50875500Y-74494500D01*
X50629500Y-74494500D01*
X50629491Y-74494500D01*
X50629490Y-74494501D01*
X50522049Y-74506052D01*
X50522037Y-74506054D01*
X50470527Y-74517260D01*
X50367999Y-74551385D01*
X50322797Y-74580434D01*
X50255757Y-74600117D01*
X50204247Y-74588911D01*
X50085457Y-74534660D01*
X50081315Y-74533116D01*
X50082017Y-74531232D01*
X50030182Y-74497825D01*
X50001239Y-74434231D01*
X50000000Y-74416743D01*
X50000000Y-62368872D01*
X51184500Y-62368872D01*
X51184500Y-62631127D01*
X51211123Y-62833339D01*
X51218730Y-62891116D01*
X51286602Y-63144418D01*
X51286605Y-63144428D01*
X51386953Y-63386690D01*
X51386958Y-63386700D01*
X51518075Y-63613803D01*
X51677718Y-63821851D01*
X51677726Y-63821860D01*
X51863140Y-64007274D01*
X51863148Y-64007281D01*
X52071196Y-64166924D01*
X52298299Y-64298041D01*
X52298309Y-64298046D01*
X52540571Y-64398394D01*
X52540581Y-64398398D01*
X52793884Y-64466270D01*
X53053880Y-64500500D01*
X53053887Y-64500500D01*
X53316113Y-64500500D01*
X53316120Y-64500500D01*
X53576116Y-64466270D01*
X53829419Y-64398398D01*
X54071697Y-64298043D01*
X54298803Y-64166924D01*
X54506851Y-64007282D01*
X54506855Y-64007277D01*
X54506860Y-64007274D01*
X54692274Y-63821860D01*
X54692277Y-63821855D01*
X54692282Y-63821851D01*
X54851924Y-63613803D01*
X54983043Y-63386697D01*
X55083398Y-63144419D01*
X55151270Y-62891116D01*
X55185500Y-62631120D01*
X55185500Y-62368880D01*
X55185499Y-62368872D01*
X69814500Y-62368872D01*
X69814500Y-62631127D01*
X69841123Y-62833339D01*
X69848730Y-62891116D01*
X69916602Y-63144418D01*
X69916605Y-63144428D01*
X70016953Y-63386690D01*
X70016958Y-63386700D01*
X70148075Y-63613803D01*
X70307718Y-63821851D01*
X70307726Y-63821860D01*
X70493140Y-64007274D01*
X70493148Y-64007281D01*
X70701196Y-64166924D01*
X70928299Y-64298041D01*
X70928309Y-64298046D01*
X71170571Y-64398394D01*
X71170581Y-64398398D01*
X71423884Y-64466270D01*
X71683880Y-64500500D01*
X71683887Y-64500500D01*
X71946113Y-64500500D01*
X71946120Y-64500500D01*
X72206116Y-64466270D01*
X72459419Y-64398398D01*
X72701697Y-64298043D01*
X72928803Y-64166924D01*
X73136851Y-64007282D01*
X73136855Y-64007277D01*
X73136860Y-64007274D01*
X73322274Y-63821860D01*
X73322277Y-63821855D01*
X73322282Y-63821851D01*
X73481924Y-63613803D01*
X73613043Y-63386697D01*
X73713398Y-63144419D01*
X73781270Y-62891116D01*
X73815500Y-62631120D01*
X73815500Y-62368880D01*
X73781270Y-62108884D01*
X73713398Y-61855581D01*
X73713394Y-61855571D01*
X73613046Y-61613309D01*
X73613041Y-61613299D01*
X73481924Y-61386196D01*
X73322281Y-61178148D01*
X73322274Y-61178140D01*
X73136860Y-60992726D01*
X73136851Y-60992718D01*
X72928803Y-60833075D01*
X72701700Y-60701958D01*
X72701690Y-60701953D01*
X72459428Y-60601605D01*
X72459421Y-60601603D01*
X72459419Y-60601602D01*
X72206116Y-60533730D01*
X72148339Y-60526123D01*
X71946127Y-60499500D01*
X71946120Y-60499500D01*
X71683880Y-60499500D01*
X71683872Y-60499500D01*
X71452772Y-60529926D01*
X71423884Y-60533730D01*
X71170581Y-60601602D01*
X71170571Y-60601605D01*
X70928309Y-60701953D01*
X70928299Y-60701958D01*
X70701196Y-60833075D01*
X70493148Y-60992718D01*
X70307718Y-61178148D01*
X70148075Y-61386196D01*
X70016958Y-61613299D01*
X70016953Y-61613309D01*
X69916605Y-61855571D01*
X69916602Y-61855581D01*
X69848730Y-62108885D01*
X69814500Y-62368872D01*
X55185499Y-62368872D01*
X55151270Y-62108884D01*
X55083398Y-61855581D01*
X55083394Y-61855571D01*
X54983046Y-61613309D01*
X54983041Y-61613299D01*
X54851924Y-61386196D01*
X54692281Y-61178148D01*
X54692274Y-61178140D01*
X54506860Y-60992726D01*
X54506851Y-60992718D01*
X54298803Y-60833075D01*
X54071700Y-60701958D01*
X54071690Y-60701953D01*
X53829428Y-60601605D01*
X53829421Y-60601603D01*
X53829419Y-60601602D01*
X53576116Y-60533730D01*
X53518339Y-60526123D01*
X53316127Y-60499500D01*
X53316120Y-60499500D01*
X53053880Y-60499500D01*
X53053872Y-60499500D01*
X52822772Y-60529926D01*
X52793884Y-60533730D01*
X52540581Y-60601602D01*
X52540571Y-60601605D01*
X52298309Y-60701953D01*
X52298299Y-60701958D01*
X52071196Y-60833075D01*
X51863148Y-60992718D01*
X51677718Y-61178148D01*
X51518075Y-61386196D01*
X51386958Y-61613299D01*
X51386953Y-61613309D01*
X51286605Y-61855571D01*
X51286602Y-61855581D01*
X51218730Y-62108885D01*
X51184500Y-62368872D01*
X50000000Y-62368872D01*
X50000000Y-51523798D01*
X50019685Y-51456759D01*
X50072489Y-51411004D01*
X50105596Y-51402440D01*
X50105410Y-51401262D01*
X50110221Y-51400500D01*
X50110222Y-51400500D01*
X50327951Y-51366015D01*
X50537606Y-51297895D01*
X50734022Y-51197815D01*
X50912365Y-51068242D01*
X51068242Y-50912365D01*
X51197815Y-50734022D01*
X51288267Y-50556500D01*
X51336242Y-50505705D01*
X51404063Y-50488910D01*
X51416389Y-50490057D01*
G37*
%TD.AperFunction*%
%TD*%
%TA.AperFunction,Conductor*%
%TO.N,unconnected-(D5-PAD-Pad3)*%
G36*
X19416389Y-25490057D02*
G01*
X19523799Y-25505500D01*
X19523802Y-25505500D01*
X22375500Y-25505500D01*
X22442539Y-25525185D01*
X22488294Y-25577989D01*
X22499500Y-25629500D01*
X22499500Y-28047870D01*
X22499501Y-28047876D01*
X22505908Y-28107483D01*
X22556202Y-28242328D01*
X22556206Y-28242335D01*
X22642452Y-28357544D01*
X22642455Y-28357547D01*
X22757664Y-28443793D01*
X22757671Y-28443797D01*
X22892517Y-28494091D01*
X22892516Y-28494091D01*
X22899444Y-28494835D01*
X22952127Y-28500500D01*
X24370500Y-28500499D01*
X24437539Y-28520184D01*
X24483294Y-28572987D01*
X24494500Y-28624499D01*
X24494500Y-49876000D01*
X24474815Y-49943039D01*
X24422011Y-49988794D01*
X24370500Y-50000000D01*
X14874500Y-50000000D01*
X14807461Y-49980315D01*
X14761706Y-49927511D01*
X14750500Y-49876000D01*
X14750500Y-46314141D01*
X14770185Y-46247102D01*
X14822989Y-46201347D01*
X14831149Y-46197966D01*
X14842331Y-46193796D01*
X14957546Y-46107546D01*
X15043796Y-45992331D01*
X15094091Y-45857483D01*
X15100500Y-45797873D01*
X15100499Y-42202128D01*
X15094091Y-42142517D01*
X15043796Y-42007669D01*
X15043795Y-42007668D01*
X15043793Y-42007664D01*
X14957547Y-41892455D01*
X14957544Y-41892452D01*
X14842335Y-41806206D01*
X14842328Y-41806202D01*
X14707482Y-41755908D01*
X14707483Y-41755908D01*
X14647883Y-41749501D01*
X14647881Y-41749500D01*
X14647873Y-41749500D01*
X14647864Y-41749500D01*
X11852129Y-41749500D01*
X11852123Y-41749501D01*
X11792516Y-41755908D01*
X11657671Y-41806202D01*
X11657664Y-41806206D01*
X11542455Y-41892452D01*
X11542452Y-41892455D01*
X11456206Y-42007664D01*
X11456202Y-42007671D01*
X11405908Y-42142517D01*
X11399501Y-42202116D01*
X11399501Y-42202123D01*
X11399500Y-42202135D01*
X11399500Y-45797870D01*
X11399501Y-45797876D01*
X11405908Y-45857483D01*
X11456202Y-45992328D01*
X11456206Y-45992335D01*
X11542452Y-46107544D01*
X11542455Y-46107547D01*
X11657665Y-46193794D01*
X11657667Y-46193794D01*
X11657669Y-46193796D01*
X11668830Y-46197958D01*
X11724764Y-46239826D01*
X11749184Y-46305289D01*
X11749500Y-46314141D01*
X11749500Y-49876000D01*
X11729815Y-49943039D01*
X11677011Y-49988794D01*
X11625500Y-50000000D01*
X524500Y-50000000D01*
X457461Y-49980315D01*
X411706Y-49927511D01*
X400500Y-49876000D01*
X400500Y-37368872D01*
X1184500Y-37368872D01*
X1184500Y-37631127D01*
X1205718Y-37792283D01*
X1218730Y-37891116D01*
X1286602Y-38144418D01*
X1286605Y-38144428D01*
X1386953Y-38386690D01*
X1386958Y-38386700D01*
X1518075Y-38613803D01*
X1677718Y-38821851D01*
X1677726Y-38821860D01*
X1863140Y-39007274D01*
X1863148Y-39007281D01*
X2071196Y-39166924D01*
X2298299Y-39298041D01*
X2298309Y-39298046D01*
X2540571Y-39398394D01*
X2540581Y-39398398D01*
X2793884Y-39466270D01*
X3053880Y-39500500D01*
X3053887Y-39500500D01*
X3316113Y-39500500D01*
X3316120Y-39500500D01*
X3576116Y-39466270D01*
X3829419Y-39398398D01*
X4071697Y-39298043D01*
X4298803Y-39166924D01*
X4506851Y-39007282D01*
X4506855Y-39007277D01*
X4506860Y-39007274D01*
X4692274Y-38821860D01*
X4692277Y-38821855D01*
X4692282Y-38821851D01*
X4851924Y-38613803D01*
X4983043Y-38386697D01*
X5083398Y-38144419D01*
X5151270Y-37891116D01*
X5185500Y-37631120D01*
X5185500Y-37368880D01*
X5185499Y-37368872D01*
X19814500Y-37368872D01*
X19814500Y-37631127D01*
X19835718Y-37792283D01*
X19848730Y-37891116D01*
X19916602Y-38144418D01*
X19916605Y-38144428D01*
X20016953Y-38386690D01*
X20016958Y-38386700D01*
X20148075Y-38613803D01*
X20307718Y-38821851D01*
X20307726Y-38821860D01*
X20493140Y-39007274D01*
X20493148Y-39007281D01*
X20701196Y-39166924D01*
X20928299Y-39298041D01*
X20928309Y-39298046D01*
X21170571Y-39398394D01*
X21170581Y-39398398D01*
X21423884Y-39466270D01*
X21683880Y-39500500D01*
X21683887Y-39500500D01*
X21946113Y-39500500D01*
X21946120Y-39500500D01*
X22206116Y-39466270D01*
X22459419Y-39398398D01*
X22701697Y-39298043D01*
X22928803Y-39166924D01*
X23136851Y-39007282D01*
X23136855Y-39007277D01*
X23136860Y-39007274D01*
X23322274Y-38821860D01*
X23322277Y-38821855D01*
X23322282Y-38821851D01*
X23481924Y-38613803D01*
X23613043Y-38386697D01*
X23713398Y-38144419D01*
X23781270Y-37891116D01*
X23815500Y-37631120D01*
X23815500Y-37368880D01*
X23781270Y-37108884D01*
X23713398Y-36855581D01*
X23705853Y-36837365D01*
X23613046Y-36613309D01*
X23613041Y-36613299D01*
X23481924Y-36386196D01*
X23322281Y-36178148D01*
X23322274Y-36178140D01*
X23136860Y-35992726D01*
X23136851Y-35992718D01*
X22928803Y-35833075D01*
X22701700Y-35701958D01*
X22701690Y-35701953D01*
X22459428Y-35601605D01*
X22459421Y-35601603D01*
X22459419Y-35601602D01*
X22206116Y-35533730D01*
X22148339Y-35526123D01*
X21946127Y-35499500D01*
X21946120Y-35499500D01*
X21683880Y-35499500D01*
X21683872Y-35499500D01*
X21452772Y-35529926D01*
X21423884Y-35533730D01*
X21170581Y-35601602D01*
X21170571Y-35601605D01*
X20928309Y-35701953D01*
X20928299Y-35701958D01*
X20701196Y-35833075D01*
X20493148Y-35992718D01*
X20307718Y-36178148D01*
X20148075Y-36386196D01*
X20016958Y-36613299D01*
X20016953Y-36613309D01*
X19916605Y-36855571D01*
X19916602Y-36855581D01*
X19848730Y-37108885D01*
X19814500Y-37368872D01*
X5185499Y-37368872D01*
X5151270Y-37108884D01*
X5083398Y-36855581D01*
X5075853Y-36837365D01*
X4983046Y-36613309D01*
X4983041Y-36613299D01*
X4851924Y-36386196D01*
X4692281Y-36178148D01*
X4692274Y-36178140D01*
X4506860Y-35992726D01*
X4506851Y-35992718D01*
X4298803Y-35833075D01*
X4071700Y-35701958D01*
X4071690Y-35701953D01*
X3829428Y-35601605D01*
X3829421Y-35601603D01*
X3829419Y-35601602D01*
X3576116Y-35533730D01*
X3518339Y-35526123D01*
X3316127Y-35499500D01*
X3316120Y-35499500D01*
X3053880Y-35499500D01*
X3053872Y-35499500D01*
X2822772Y-35529926D01*
X2793884Y-35533730D01*
X2540581Y-35601602D01*
X2540571Y-35601605D01*
X2298309Y-35701953D01*
X2298299Y-35701958D01*
X2071196Y-35833075D01*
X1863148Y-35992718D01*
X1677718Y-36178148D01*
X1518075Y-36386196D01*
X1386958Y-36613299D01*
X1386953Y-36613309D01*
X1286605Y-36855571D01*
X1286602Y-36855581D01*
X1218730Y-37108885D01*
X1184500Y-37368872D01*
X400500Y-37368872D01*
X400500Y-25629500D01*
X420185Y-25562461D01*
X472989Y-25516706D01*
X524500Y-25505500D01*
X2476209Y-25505500D01*
X2564038Y-25497809D01*
X2564038Y-25497808D01*
X2564048Y-25497808D01*
X2581737Y-25494686D01*
X2651176Y-25502419D01*
X2705412Y-25546466D01*
X2713767Y-25560495D01*
X2748928Y-25629500D01*
X2802187Y-25734025D01*
X2931752Y-25912358D01*
X2931756Y-25912363D01*
X3087636Y-26068243D01*
X3087641Y-26068247D01*
X3243192Y-26181260D01*
X3265978Y-26197815D01*
X3394375Y-26263237D01*
X3462393Y-26297895D01*
X3462396Y-26297896D01*
X3567221Y-26331955D01*
X3672049Y-26366015D01*
X3889778Y-26400500D01*
X3889779Y-26400500D01*
X4110221Y-26400500D01*
X4110222Y-26400500D01*
X4327951Y-26366015D01*
X4537606Y-26297895D01*
X4734022Y-26197815D01*
X4912365Y-26068242D01*
X5068242Y-25912365D01*
X5197815Y-25734022D01*
X5288267Y-25556500D01*
X5336242Y-25505705D01*
X5404063Y-25488910D01*
X5416389Y-25490057D01*
X5523799Y-25505500D01*
X5523802Y-25505500D01*
X11625500Y-25505500D01*
X11692539Y-25525185D01*
X11738294Y-25577989D01*
X11749500Y-25629500D01*
X11749500Y-28625500D01*
X11729815Y-28692539D01*
X11677011Y-28738294D01*
X11625500Y-28749500D01*
X10352129Y-28749500D01*
X10352123Y-28749501D01*
X10292516Y-28755908D01*
X10157671Y-28806202D01*
X10157664Y-28806206D01*
X10042455Y-28892452D01*
X10042452Y-28892455D01*
X9956206Y-29007664D01*
X9956202Y-29007671D01*
X9905908Y-29142517D01*
X9899501Y-29202116D01*
X9899500Y-29202135D01*
X9899500Y-32797870D01*
X9899501Y-32797876D01*
X9905908Y-32857483D01*
X9956202Y-32992328D01*
X9956206Y-32992335D01*
X10042452Y-33107544D01*
X10042455Y-33107547D01*
X10157664Y-33193793D01*
X10157671Y-33193797D01*
X10292517Y-33244091D01*
X10292516Y-33244091D01*
X10299444Y-33244835D01*
X10352127Y-33250500D01*
X13147872Y-33250499D01*
X13207483Y-33244091D01*
X13342331Y-33193796D01*
X13457546Y-33107546D01*
X13543796Y-32992331D01*
X13594091Y-32857483D01*
X13600500Y-32797873D01*
X13600499Y-31322888D01*
X13620184Y-31255850D01*
X13636818Y-31235208D01*
X13994260Y-30877766D01*
X14394517Y-30477510D01*
X14533343Y-30286434D01*
X14640568Y-30075992D01*
X14657952Y-30022490D01*
X14713553Y-29851368D01*
X14750500Y-29618097D01*
X14750500Y-25629500D01*
X14770185Y-25562461D01*
X14822989Y-25516706D01*
X14874500Y-25505500D01*
X16476209Y-25505500D01*
X16564038Y-25497809D01*
X16564038Y-25497808D01*
X16564048Y-25497808D01*
X16581737Y-25494686D01*
X16651176Y-25502419D01*
X16705412Y-25546466D01*
X16713767Y-25560495D01*
X16748928Y-25629500D01*
X16802187Y-25734025D01*
X16931752Y-25912358D01*
X16931756Y-25912363D01*
X17087636Y-26068243D01*
X17087641Y-26068247D01*
X17243192Y-26181260D01*
X17265978Y-26197815D01*
X17394375Y-26263237D01*
X17462393Y-26297895D01*
X17462396Y-26297896D01*
X17567221Y-26331955D01*
X17672049Y-26366015D01*
X17889778Y-26400500D01*
X17889779Y-26400500D01*
X18110221Y-26400500D01*
X18110222Y-26400500D01*
X18327951Y-26366015D01*
X18537606Y-26297895D01*
X18734022Y-26197815D01*
X18912365Y-26068242D01*
X19068242Y-25912365D01*
X19197815Y-25734022D01*
X19288267Y-25556500D01*
X19336242Y-25505705D01*
X19404063Y-25488910D01*
X19416389Y-25490057D01*
G37*
%TD.AperFunction*%
%TD*%
%TA.AperFunction,Conductor*%
%TO.N,unconnected-(D15-PAD-Pad3)*%
G36*
X50942540Y-75019685D02*
G01*
X50988295Y-75072489D01*
X50999501Y-75124000D01*
X50999501Y-78047876D01*
X51005908Y-78107483D01*
X51056202Y-78242328D01*
X51056206Y-78242335D01*
X51142452Y-78357544D01*
X51142455Y-78357547D01*
X51257664Y-78443793D01*
X51257671Y-78443797D01*
X51302618Y-78460561D01*
X51392517Y-78494091D01*
X51452127Y-78500500D01*
X51875500Y-78500499D01*
X51942539Y-78520183D01*
X51988294Y-78572987D01*
X51999500Y-78624499D01*
X51999500Y-82618097D01*
X52036446Y-82851368D01*
X52109433Y-83075996D01*
X52195082Y-83244091D01*
X52216657Y-83286434D01*
X52292315Y-83390568D01*
X52355484Y-83477511D01*
X55463181Y-86585208D01*
X55496666Y-86646531D01*
X55499500Y-86672889D01*
X55499500Y-91218097D01*
X55536446Y-91451368D01*
X55609433Y-91675996D01*
X55658469Y-91772234D01*
X55716657Y-91886434D01*
X55855483Y-92077510D01*
X58922490Y-95144517D01*
X59113566Y-95283343D01*
X59212992Y-95334003D01*
X59324003Y-95390566D01*
X59324005Y-95390566D01*
X59324008Y-95390568D01*
X59399328Y-95415041D01*
X59548631Y-95463553D01*
X59781903Y-95500500D01*
X59781908Y-95500500D01*
X61275501Y-95500500D01*
X61342540Y-95520185D01*
X61388295Y-95572989D01*
X61399501Y-95624500D01*
X61399501Y-95797876D01*
X61405908Y-95857483D01*
X61456202Y-95992328D01*
X61456206Y-95992335D01*
X61542452Y-96107544D01*
X61542455Y-96107547D01*
X61657664Y-96193793D01*
X61657671Y-96193797D01*
X61792517Y-96244091D01*
X61792516Y-96244091D01*
X61799444Y-96244835D01*
X61852127Y-96250500D01*
X64647872Y-96250499D01*
X64707483Y-96244091D01*
X64842331Y-96193796D01*
X64957546Y-96107546D01*
X65043796Y-95992331D01*
X65094091Y-95857483D01*
X65100500Y-95797873D01*
X65100499Y-92202128D01*
X65094091Y-92142517D01*
X65083852Y-92115066D01*
X65043797Y-92007671D01*
X65043793Y-92007664D01*
X64957547Y-91892455D01*
X64957544Y-91892452D01*
X64842335Y-91806206D01*
X64842328Y-91806202D01*
X64707482Y-91755908D01*
X64707483Y-91755908D01*
X64647883Y-91749501D01*
X64647881Y-91749500D01*
X64647873Y-91749500D01*
X64647864Y-91749500D01*
X61852129Y-91749500D01*
X61852123Y-91749501D01*
X61792516Y-91755908D01*
X61657671Y-91806202D01*
X61657664Y-91806206D01*
X61542455Y-91892452D01*
X61542452Y-91892455D01*
X61456206Y-92007664D01*
X61456202Y-92007671D01*
X61405908Y-92142517D01*
X61399501Y-92202116D01*
X61399501Y-92202123D01*
X61399500Y-92202135D01*
X61399500Y-92375500D01*
X61379815Y-92442539D01*
X61327011Y-92488294D01*
X61275500Y-92499500D01*
X60572889Y-92499500D01*
X60505850Y-92479815D01*
X60485208Y-92463181D01*
X58536819Y-90514792D01*
X58503334Y-90453469D01*
X58500500Y-90427111D01*
X58500500Y-87368872D01*
X69814500Y-87368872D01*
X69814500Y-87631127D01*
X69832436Y-87767354D01*
X69848730Y-87891116D01*
X69872974Y-87981595D01*
X69916602Y-88144418D01*
X69916605Y-88144428D01*
X70016953Y-88386690D01*
X70016958Y-88386700D01*
X70148075Y-88613803D01*
X70307718Y-88821851D01*
X70307726Y-88821860D01*
X70493140Y-89007274D01*
X70493148Y-89007281D01*
X70701196Y-89166924D01*
X70928299Y-89298041D01*
X70928309Y-89298046D01*
X71170571Y-89398394D01*
X71170581Y-89398398D01*
X71423884Y-89466270D01*
X71683880Y-89500500D01*
X71683887Y-89500500D01*
X71946113Y-89500500D01*
X71946120Y-89500500D01*
X72206116Y-89466270D01*
X72459419Y-89398398D01*
X72701697Y-89298043D01*
X72928803Y-89166924D01*
X73136851Y-89007282D01*
X73136855Y-89007277D01*
X73136860Y-89007274D01*
X73322274Y-88821860D01*
X73322277Y-88821855D01*
X73322282Y-88821851D01*
X73481924Y-88613803D01*
X73613043Y-88386697D01*
X73713398Y-88144419D01*
X73781270Y-87891116D01*
X73815500Y-87631120D01*
X73815500Y-87368880D01*
X73781270Y-87108884D01*
X73713398Y-86855581D01*
X73705853Y-86837365D01*
X73613046Y-86613309D01*
X73613041Y-86613299D01*
X73481924Y-86386196D01*
X73322281Y-86178148D01*
X73322274Y-86178140D01*
X73136860Y-85992726D01*
X73136851Y-85992718D01*
X72928803Y-85833075D01*
X72701700Y-85701958D01*
X72701690Y-85701953D01*
X72459428Y-85601605D01*
X72459421Y-85601603D01*
X72459419Y-85601602D01*
X72206116Y-85533730D01*
X72148339Y-85526123D01*
X71946127Y-85499500D01*
X71946120Y-85499500D01*
X71683880Y-85499500D01*
X71683872Y-85499500D01*
X71452772Y-85529926D01*
X71423884Y-85533730D01*
X71170581Y-85601602D01*
X71170571Y-85601605D01*
X70928309Y-85701953D01*
X70928299Y-85701958D01*
X70701196Y-85833075D01*
X70493148Y-85992718D01*
X70307718Y-86178148D01*
X70148075Y-86386196D01*
X70016958Y-86613299D01*
X70016953Y-86613309D01*
X69916605Y-86855571D01*
X69916602Y-86855581D01*
X69848730Y-87108885D01*
X69814500Y-87368872D01*
X58500500Y-87368872D01*
X58500500Y-85881902D01*
X58463553Y-85648631D01*
X58392075Y-85428647D01*
X58391012Y-85424880D01*
X58390568Y-85424008D01*
X58390568Y-85424007D01*
X58283343Y-85213566D01*
X58144517Y-85022490D01*
X55036819Y-81914792D01*
X55003334Y-81853469D01*
X55000500Y-81827111D01*
X55000500Y-78624499D01*
X55020185Y-78557460D01*
X55072989Y-78511705D01*
X55124500Y-78500499D01*
X55547871Y-78500499D01*
X55547872Y-78500499D01*
X55607483Y-78494091D01*
X55742331Y-78443796D01*
X55857546Y-78357546D01*
X55943796Y-78242331D01*
X55994091Y-78107483D01*
X56000500Y-78047873D01*
X56000499Y-75123998D01*
X56020184Y-75056961D01*
X56072987Y-75011206D01*
X56124499Y-75000000D01*
X61625500Y-75000000D01*
X61692539Y-75019685D01*
X61738294Y-75072489D01*
X61749500Y-75124000D01*
X61749500Y-78625500D01*
X61729815Y-78692539D01*
X61677011Y-78738294D01*
X61625500Y-78749500D01*
X60352129Y-78749500D01*
X60352123Y-78749501D01*
X60292516Y-78755908D01*
X60157671Y-78806202D01*
X60157664Y-78806206D01*
X60042455Y-78892452D01*
X60042452Y-78892455D01*
X59956206Y-79007664D01*
X59956202Y-79007671D01*
X59905908Y-79142517D01*
X59899501Y-79202116D01*
X59899500Y-79202135D01*
X59899500Y-82797870D01*
X59899501Y-82797876D01*
X59905908Y-82857483D01*
X59956202Y-82992328D01*
X59956206Y-82992335D01*
X60042452Y-83107544D01*
X60042455Y-83107547D01*
X60157664Y-83193793D01*
X60157671Y-83193797D01*
X60292517Y-83244091D01*
X60292516Y-83244091D01*
X60299444Y-83244835D01*
X60352127Y-83250500D01*
X63147872Y-83250499D01*
X63207483Y-83244091D01*
X63342331Y-83193796D01*
X63457546Y-83107546D01*
X63543796Y-82992331D01*
X63594091Y-82857483D01*
X63600500Y-82797873D01*
X63600499Y-81322888D01*
X63620184Y-81255850D01*
X63636818Y-81235208D01*
X63994260Y-80877766D01*
X64394517Y-80477510D01*
X64533343Y-80286434D01*
X64640568Y-80075992D01*
X64657952Y-80022490D01*
X64713553Y-79851368D01*
X64750500Y-79618097D01*
X64750500Y-75124000D01*
X64770185Y-75056961D01*
X64822989Y-75011206D01*
X64874500Y-75000000D01*
X72375501Y-75000000D01*
X72442540Y-75019685D01*
X72488295Y-75072489D01*
X72499501Y-75124000D01*
X72499501Y-78047876D01*
X72505908Y-78107483D01*
X72556202Y-78242328D01*
X72556206Y-78242335D01*
X72642452Y-78357544D01*
X72642455Y-78357547D01*
X72757664Y-78443793D01*
X72757671Y-78443797D01*
X72892517Y-78494091D01*
X72892516Y-78494091D01*
X72899444Y-78494835D01*
X72952127Y-78500500D01*
X74876001Y-78500499D01*
X74943039Y-78520184D01*
X74988794Y-78572987D01*
X75000000Y-78624499D01*
X75000000Y-91476201D01*
X74980315Y-91543240D01*
X74927511Y-91588995D01*
X74894406Y-91597579D01*
X74894590Y-91598738D01*
X74889779Y-91599500D01*
X74889778Y-91599500D01*
X74823577Y-91609985D01*
X74672047Y-91633985D01*
X74462396Y-91702103D01*
X74462393Y-91702104D01*
X74265974Y-91802187D01*
X74087641Y-91931752D01*
X74087636Y-91931756D01*
X73931756Y-92087636D01*
X73931752Y-92087641D01*
X73802187Y-92265974D01*
X73702104Y-92462393D01*
X73702103Y-92462396D01*
X73633985Y-92672047D01*
X73599500Y-92889778D01*
X73599500Y-93110221D01*
X73633985Y-93327952D01*
X73702103Y-93537603D01*
X73702104Y-93537606D01*
X73802187Y-93734025D01*
X73931752Y-93912358D01*
X73931756Y-93912363D01*
X74087636Y-94068243D01*
X74087641Y-94068247D01*
X74243192Y-94181260D01*
X74265978Y-94197815D01*
X74394375Y-94263237D01*
X74462393Y-94297895D01*
X74462396Y-94297896D01*
X74567221Y-94331955D01*
X74672049Y-94366015D01*
X74889778Y-94400500D01*
X74889779Y-94400500D01*
X74894590Y-94401262D01*
X74894244Y-94403445D01*
X74950946Y-94425009D01*
X74992457Y-94481210D01*
X75000000Y-94523798D01*
X75000000Y-99475500D01*
X74980315Y-99542539D01*
X74927511Y-99588294D01*
X74876000Y-99599500D01*
X50629500Y-99599500D01*
X50562461Y-99579815D01*
X50516706Y-99527011D01*
X50505500Y-99475500D01*
X50505500Y-94523797D01*
X50504753Y-94515303D01*
X50497753Y-94435638D01*
X50494690Y-94418345D01*
X50502379Y-94348902D01*
X50546391Y-94294638D01*
X50560484Y-94286237D01*
X50734022Y-94197815D01*
X50912365Y-94068242D01*
X51068242Y-93912365D01*
X51197815Y-93734022D01*
X51297895Y-93537606D01*
X51366015Y-93327951D01*
X51400500Y-93110222D01*
X51400500Y-92889778D01*
X51366015Y-92672049D01*
X51321313Y-92534467D01*
X51297896Y-92462396D01*
X51297895Y-92462393D01*
X51223981Y-92317332D01*
X51197815Y-92265978D01*
X51108116Y-92142517D01*
X51068247Y-92087641D01*
X51068243Y-92087636D01*
X50912363Y-91931756D01*
X50912358Y-91931752D01*
X50734025Y-91802187D01*
X50734024Y-91802186D01*
X50734022Y-91802185D01*
X50556500Y-91711732D01*
X50505705Y-91663758D01*
X50488910Y-91595937D01*
X50490058Y-91583601D01*
X50505500Y-91476201D01*
X50505500Y-87368872D01*
X51184500Y-87368872D01*
X51184500Y-87631127D01*
X51202436Y-87767354D01*
X51218730Y-87891116D01*
X51242974Y-87981595D01*
X51286602Y-88144418D01*
X51286605Y-88144428D01*
X51386953Y-88386690D01*
X51386958Y-88386700D01*
X51518075Y-88613803D01*
X51677718Y-88821851D01*
X51677726Y-88821860D01*
X51863140Y-89007274D01*
X51863148Y-89007281D01*
X52071196Y-89166924D01*
X52298299Y-89298041D01*
X52298309Y-89298046D01*
X52540571Y-89398394D01*
X52540581Y-89398398D01*
X52793884Y-89466270D01*
X53053880Y-89500500D01*
X53053887Y-89500500D01*
X53316113Y-89500500D01*
X53316120Y-89500500D01*
X53576116Y-89466270D01*
X53829419Y-89398398D01*
X54071697Y-89298043D01*
X54298803Y-89166924D01*
X54506851Y-89007282D01*
X54506855Y-89007277D01*
X54506860Y-89007274D01*
X54692274Y-88821860D01*
X54692277Y-88821855D01*
X54692282Y-88821851D01*
X54851924Y-88613803D01*
X54983043Y-88386697D01*
X55083398Y-88144419D01*
X55151270Y-87891116D01*
X55185500Y-87631120D01*
X55185500Y-87368880D01*
X55151270Y-87108884D01*
X55083398Y-86855581D01*
X55075853Y-86837365D01*
X54983046Y-86613309D01*
X54983041Y-86613299D01*
X54851924Y-86386196D01*
X54692281Y-86178148D01*
X54692274Y-86178140D01*
X54506860Y-85992726D01*
X54506851Y-85992718D01*
X54298803Y-85833075D01*
X54071700Y-85701958D01*
X54071690Y-85701953D01*
X53829428Y-85601605D01*
X53829421Y-85601603D01*
X53829419Y-85601602D01*
X53576116Y-85533730D01*
X53518339Y-85526123D01*
X53316127Y-85499500D01*
X53316120Y-85499500D01*
X53053880Y-85499500D01*
X53053872Y-85499500D01*
X52822772Y-85529926D01*
X52793884Y-85533730D01*
X52540581Y-85601602D01*
X52540571Y-85601605D01*
X52298309Y-85701953D01*
X52298299Y-85701958D01*
X52071196Y-85833075D01*
X51863148Y-85992718D01*
X51677718Y-86178148D01*
X51518075Y-86386196D01*
X51386958Y-86613299D01*
X51386953Y-86613309D01*
X51286605Y-86855571D01*
X51286602Y-86855581D01*
X51218730Y-87108885D01*
X51184500Y-87368872D01*
X50505500Y-87368872D01*
X50505500Y-83523798D01*
X50497753Y-83435638D01*
X50494690Y-83418345D01*
X50502379Y-83348902D01*
X50546391Y-83294638D01*
X50560484Y-83286237D01*
X50734022Y-83197815D01*
X50912365Y-83068242D01*
X51068242Y-82912365D01*
X51197815Y-82734022D01*
X51297895Y-82537606D01*
X51366015Y-82327951D01*
X51400500Y-82110222D01*
X51400500Y-81889778D01*
X51366015Y-81672049D01*
X51297895Y-81462394D01*
X51297895Y-81462393D01*
X51263237Y-81394375D01*
X51197815Y-81265978D01*
X51158112Y-81211331D01*
X51068247Y-81087641D01*
X51068243Y-81087636D01*
X50912363Y-80931756D01*
X50912358Y-80931752D01*
X50734025Y-80802187D01*
X50734024Y-80802186D01*
X50734022Y-80802185D01*
X50556500Y-80711732D01*
X50505705Y-80663758D01*
X50488910Y-80595937D01*
X50490058Y-80583601D01*
X50505500Y-80476201D01*
X50505500Y-75124000D01*
X50525185Y-75056961D01*
X50577989Y-75011206D01*
X50629500Y-75000000D01*
X50875501Y-75000000D01*
X50942540Y-75019685D01*
G37*
%TD.AperFunction*%
%TD*%
%TA.AperFunction,Conductor*%
%TO.N,unconnected-(D13-PAD-Pad3)*%
G36*
X2543240Y-75019685D02*
G01*
X2588995Y-75072489D01*
X2597579Y-75105593D01*
X2598738Y-75105410D01*
X2633985Y-75327952D01*
X2702103Y-75537603D01*
X2702104Y-75537606D01*
X2802187Y-75734025D01*
X2931752Y-75912358D01*
X2931756Y-75912363D01*
X3087636Y-76068243D01*
X3087641Y-76068247D01*
X3243192Y-76181260D01*
X3265978Y-76197815D01*
X3394375Y-76263237D01*
X3462393Y-76297895D01*
X3462396Y-76297896D01*
X3567221Y-76331955D01*
X3672049Y-76366015D01*
X3889778Y-76400500D01*
X3889779Y-76400500D01*
X4110221Y-76400500D01*
X4110222Y-76400500D01*
X4327951Y-76366015D01*
X4537606Y-76297895D01*
X4734022Y-76197815D01*
X4912365Y-76068242D01*
X5068242Y-75912365D01*
X5197815Y-75734022D01*
X5297895Y-75537606D01*
X5366015Y-75327951D01*
X5400500Y-75110222D01*
X5400500Y-75110220D01*
X5401262Y-75105410D01*
X5403414Y-75105750D01*
X5425103Y-75048933D01*
X5481355Y-75007490D01*
X5523799Y-75000000D01*
X11625500Y-75000000D01*
X11692539Y-75019685D01*
X11738294Y-75072489D01*
X11749500Y-75124000D01*
X11749500Y-78625500D01*
X11729815Y-78692539D01*
X11677011Y-78738294D01*
X11625500Y-78749500D01*
X10352129Y-78749500D01*
X10352123Y-78749501D01*
X10292516Y-78755908D01*
X10157671Y-78806202D01*
X10157664Y-78806206D01*
X10042455Y-78892452D01*
X10042452Y-78892455D01*
X9956206Y-79007664D01*
X9956202Y-79007671D01*
X9905908Y-79142517D01*
X9899501Y-79202116D01*
X9899500Y-79202135D01*
X9899500Y-82797870D01*
X9899501Y-82797876D01*
X9905908Y-82857483D01*
X9956202Y-82992328D01*
X9956206Y-82992335D01*
X10042452Y-83107544D01*
X10042455Y-83107547D01*
X10157664Y-83193793D01*
X10157671Y-83193797D01*
X10292517Y-83244091D01*
X10292516Y-83244091D01*
X10299444Y-83244835D01*
X10352127Y-83250500D01*
X13147872Y-83250499D01*
X13207483Y-83244091D01*
X13342331Y-83193796D01*
X13457546Y-83107546D01*
X13543796Y-82992331D01*
X13594091Y-82857483D01*
X13600500Y-82797873D01*
X13600499Y-81322888D01*
X13620184Y-81255850D01*
X13636818Y-81235208D01*
X13994260Y-80877766D01*
X14394517Y-80477510D01*
X14533343Y-80286434D01*
X14640568Y-80075992D01*
X14657952Y-80022490D01*
X14713553Y-79851368D01*
X14750500Y-79618097D01*
X14750500Y-75124000D01*
X14770185Y-75056961D01*
X14822989Y-75011206D01*
X14874500Y-75000000D01*
X16476201Y-75000000D01*
X16543240Y-75019685D01*
X16588995Y-75072489D01*
X16597579Y-75105593D01*
X16598738Y-75105410D01*
X16633985Y-75327952D01*
X16702103Y-75537603D01*
X16702104Y-75537606D01*
X16802187Y-75734025D01*
X16931752Y-75912358D01*
X16931756Y-75912363D01*
X17087636Y-76068243D01*
X17087641Y-76068247D01*
X17243192Y-76181260D01*
X17265978Y-76197815D01*
X17394375Y-76263237D01*
X17462393Y-76297895D01*
X17462396Y-76297896D01*
X17567221Y-76331955D01*
X17672049Y-76366015D01*
X17889778Y-76400500D01*
X17889779Y-76400500D01*
X18110221Y-76400500D01*
X18110222Y-76400500D01*
X18327951Y-76366015D01*
X18537606Y-76297895D01*
X18734022Y-76197815D01*
X18912365Y-76068242D01*
X19068242Y-75912365D01*
X19197815Y-75734022D01*
X19297895Y-75537606D01*
X19366015Y-75327951D01*
X19400500Y-75110222D01*
X19400500Y-75110220D01*
X19401262Y-75105410D01*
X19403414Y-75105750D01*
X19425103Y-75048933D01*
X19481355Y-75007490D01*
X19523799Y-75000000D01*
X22375501Y-75000000D01*
X22442540Y-75019685D01*
X22488295Y-75072489D01*
X22499501Y-75124000D01*
X22499501Y-78047876D01*
X22505908Y-78107483D01*
X22556202Y-78242328D01*
X22556206Y-78242335D01*
X22642452Y-78357544D01*
X22642455Y-78357547D01*
X22757664Y-78443793D01*
X22757671Y-78443797D01*
X22802618Y-78460561D01*
X22892517Y-78494091D01*
X22952127Y-78500500D01*
X23078111Y-78500499D01*
X23145149Y-78520183D01*
X23190904Y-78572987D01*
X23200848Y-78642145D01*
X23171824Y-78705701D01*
X23165791Y-78712180D01*
X16855485Y-85022487D01*
X16855484Y-85022488D01*
X16716657Y-85213565D01*
X16609433Y-85424003D01*
X16536446Y-85648631D01*
X16499500Y-85881902D01*
X16499500Y-92327109D01*
X16479815Y-92394148D01*
X16463182Y-92414789D01*
X16414792Y-92463180D01*
X16353469Y-92496666D01*
X16327110Y-92499500D01*
X15224499Y-92499500D01*
X15157460Y-92479815D01*
X15111705Y-92427011D01*
X15100499Y-92375500D01*
X15100499Y-92202129D01*
X15100498Y-92202123D01*
X15100497Y-92202116D01*
X15094091Y-92142517D01*
X15088317Y-92127037D01*
X15043797Y-92007671D01*
X15043793Y-92007664D01*
X14957547Y-91892455D01*
X14957544Y-91892452D01*
X14842335Y-91806206D01*
X14842328Y-91806202D01*
X14707482Y-91755908D01*
X14707483Y-91755908D01*
X14647883Y-91749501D01*
X14647881Y-91749500D01*
X14647873Y-91749500D01*
X14647864Y-91749500D01*
X11852129Y-91749500D01*
X11852123Y-91749501D01*
X11792516Y-91755908D01*
X11657671Y-91806202D01*
X11657664Y-91806206D01*
X11542455Y-91892452D01*
X11542452Y-91892455D01*
X11456206Y-92007664D01*
X11456202Y-92007671D01*
X11405908Y-92142517D01*
X11399501Y-92202116D01*
X11399501Y-92202123D01*
X11399500Y-92202135D01*
X11399500Y-95797870D01*
X11399501Y-95797876D01*
X11405908Y-95857483D01*
X11456202Y-95992328D01*
X11456206Y-95992335D01*
X11542452Y-96107544D01*
X11542455Y-96107547D01*
X11657664Y-96193793D01*
X11657671Y-96193797D01*
X11792517Y-96244091D01*
X11792516Y-96244091D01*
X11799444Y-96244835D01*
X11852127Y-96250500D01*
X14647872Y-96250499D01*
X14707483Y-96244091D01*
X14842331Y-96193796D01*
X14957546Y-96107546D01*
X15043796Y-95992331D01*
X15094091Y-95857483D01*
X15100500Y-95797873D01*
X15100500Y-95624500D01*
X15120185Y-95557461D01*
X15172989Y-95511706D01*
X15224500Y-95500500D01*
X17118097Y-95500500D01*
X17351368Y-95463553D01*
X17575992Y-95390568D01*
X17786434Y-95283343D01*
X17977510Y-95144517D01*
X19144518Y-93977510D01*
X19283343Y-93786433D01*
X19390568Y-93575992D01*
X19463553Y-93351368D01*
X19485378Y-93213567D01*
X19500500Y-93118092D01*
X19500500Y-87368872D01*
X19814500Y-87368872D01*
X19814500Y-87631127D01*
X19832436Y-87767354D01*
X19848730Y-87891116D01*
X19872974Y-87981595D01*
X19916602Y-88144418D01*
X19916605Y-88144428D01*
X20016953Y-88386690D01*
X20016958Y-88386700D01*
X20148075Y-88613803D01*
X20307718Y-88821851D01*
X20307726Y-88821860D01*
X20493140Y-89007274D01*
X20493148Y-89007281D01*
X20701196Y-89166924D01*
X20928299Y-89298041D01*
X20928309Y-89298046D01*
X21170571Y-89398394D01*
X21170581Y-89398398D01*
X21423884Y-89466270D01*
X21683880Y-89500500D01*
X21683887Y-89500500D01*
X21946113Y-89500500D01*
X21946120Y-89500500D01*
X22206116Y-89466270D01*
X22459419Y-89398398D01*
X22701697Y-89298043D01*
X22928803Y-89166924D01*
X23136851Y-89007282D01*
X23136855Y-89007277D01*
X23136860Y-89007274D01*
X23322274Y-88821860D01*
X23322277Y-88821855D01*
X23322282Y-88821851D01*
X23481924Y-88613803D01*
X23613043Y-88386697D01*
X23713398Y-88144419D01*
X23781270Y-87891116D01*
X23815500Y-87631120D01*
X23815500Y-87368880D01*
X23781270Y-87108884D01*
X23713398Y-86855581D01*
X23705853Y-86837365D01*
X23613046Y-86613309D01*
X23613041Y-86613299D01*
X23481924Y-86386196D01*
X23322281Y-86178148D01*
X23322274Y-86178140D01*
X23136860Y-85992726D01*
X23136851Y-85992718D01*
X22928803Y-85833075D01*
X22701700Y-85701958D01*
X22701690Y-85701953D01*
X22459428Y-85601605D01*
X22459421Y-85601603D01*
X22459419Y-85601602D01*
X22206116Y-85533730D01*
X22148339Y-85526123D01*
X21946127Y-85499500D01*
X21946120Y-85499500D01*
X21683880Y-85499500D01*
X21683872Y-85499500D01*
X21452772Y-85529926D01*
X21423884Y-85533730D01*
X21170581Y-85601602D01*
X21170571Y-85601605D01*
X20928309Y-85701953D01*
X20928299Y-85701958D01*
X20701196Y-85833075D01*
X20493148Y-85992718D01*
X20307718Y-86178148D01*
X20148075Y-86386196D01*
X20016958Y-86613299D01*
X20016953Y-86613309D01*
X19916605Y-86855571D01*
X19916602Y-86855581D01*
X19848730Y-87108885D01*
X19814500Y-87368872D01*
X19500500Y-87368872D01*
X19500500Y-86672889D01*
X19520185Y-86605850D01*
X19536819Y-86585208D01*
X24282819Y-81839208D01*
X24344142Y-81805723D01*
X24413834Y-81810707D01*
X24469767Y-81852579D01*
X24494184Y-81918043D01*
X24494500Y-81926889D01*
X24494500Y-91476209D01*
X24502190Y-91564038D01*
X24502192Y-91564052D01*
X24505314Y-91581741D01*
X24497578Y-91651181D01*
X24453528Y-91705415D01*
X24439497Y-91713771D01*
X24369377Y-91749500D01*
X24265974Y-91802187D01*
X24087641Y-91931752D01*
X24087636Y-91931756D01*
X23931756Y-92087636D01*
X23931752Y-92087641D01*
X23802187Y-92265974D01*
X23702104Y-92462393D01*
X23702103Y-92462396D01*
X23633985Y-92672047D01*
X23633985Y-92672049D01*
X23599500Y-92889778D01*
X23599500Y-93110222D01*
X23615238Y-93209587D01*
X23633985Y-93327952D01*
X23702103Y-93537603D01*
X23702104Y-93537606D01*
X23802187Y-93734025D01*
X23931752Y-93912358D01*
X23931756Y-93912363D01*
X24087636Y-94068243D01*
X24087641Y-94068247D01*
X24165310Y-94124676D01*
X24265978Y-94197815D01*
X24427718Y-94280226D01*
X24443498Y-94288267D01*
X24494294Y-94336242D01*
X24511089Y-94404063D01*
X24509941Y-94416398D01*
X24494500Y-94523796D01*
X24494500Y-99475500D01*
X24474815Y-99542539D01*
X24422011Y-99588294D01*
X24370500Y-99599500D01*
X524500Y-99599500D01*
X457461Y-99579815D01*
X411706Y-99527011D01*
X400500Y-99475500D01*
X400500Y-87368872D01*
X1184500Y-87368872D01*
X1184500Y-87631127D01*
X1202436Y-87767354D01*
X1218730Y-87891116D01*
X1242974Y-87981595D01*
X1286602Y-88144418D01*
X1286605Y-88144428D01*
X1386953Y-88386690D01*
X1386958Y-88386700D01*
X1518075Y-88613803D01*
X1677718Y-88821851D01*
X1677726Y-88821860D01*
X1863140Y-89007274D01*
X1863148Y-89007281D01*
X2071196Y-89166924D01*
X2298299Y-89298041D01*
X2298309Y-89298046D01*
X2540571Y-89398394D01*
X2540581Y-89398398D01*
X2793884Y-89466270D01*
X3053880Y-89500500D01*
X3053887Y-89500500D01*
X3316113Y-89500500D01*
X3316120Y-89500500D01*
X3576116Y-89466270D01*
X3829419Y-89398398D01*
X4071697Y-89298043D01*
X4298803Y-89166924D01*
X4506851Y-89007282D01*
X4506855Y-89007277D01*
X4506860Y-89007274D01*
X4692274Y-88821860D01*
X4692277Y-88821855D01*
X4692282Y-88821851D01*
X4851924Y-88613803D01*
X4983043Y-88386697D01*
X5083398Y-88144419D01*
X5151270Y-87891116D01*
X5185500Y-87631120D01*
X5185500Y-87368880D01*
X5151270Y-87108884D01*
X5083398Y-86855581D01*
X5075853Y-86837365D01*
X4983046Y-86613309D01*
X4983041Y-86613299D01*
X4851924Y-86386196D01*
X4692281Y-86178148D01*
X4692274Y-86178140D01*
X4506860Y-85992726D01*
X4506851Y-85992718D01*
X4298803Y-85833075D01*
X4071700Y-85701958D01*
X4071690Y-85701953D01*
X3829428Y-85601605D01*
X3829421Y-85601603D01*
X3829419Y-85601602D01*
X3576116Y-85533730D01*
X3518339Y-85526123D01*
X3316127Y-85499500D01*
X3316120Y-85499500D01*
X3053880Y-85499500D01*
X3053872Y-85499500D01*
X2822772Y-85529926D01*
X2793884Y-85533730D01*
X2540581Y-85601602D01*
X2540571Y-85601605D01*
X2298309Y-85701953D01*
X2298299Y-85701958D01*
X2071196Y-85833075D01*
X1863148Y-85992718D01*
X1677718Y-86178148D01*
X1518075Y-86386196D01*
X1386958Y-86613299D01*
X1386953Y-86613309D01*
X1286605Y-86855571D01*
X1286602Y-86855581D01*
X1218730Y-87108885D01*
X1184500Y-87368872D01*
X400500Y-87368872D01*
X400500Y-75124000D01*
X420185Y-75056961D01*
X472989Y-75011206D01*
X524500Y-75000000D01*
X2476201Y-75000000D01*
X2543240Y-75019685D01*
G37*
%TD.AperFunction*%
%TD*%
%TA.AperFunction,Conductor*%
%TO.N,unconnected-(D14-PAD-Pad3)*%
G36*
X36692539Y-75019685D02*
G01*
X36738294Y-75072489D01*
X36749500Y-75124000D01*
X36749500Y-78625500D01*
X36729815Y-78692539D01*
X36677011Y-78738294D01*
X36625500Y-78749500D01*
X35352129Y-78749500D01*
X35352123Y-78749501D01*
X35292516Y-78755908D01*
X35157671Y-78806202D01*
X35157664Y-78806206D01*
X35042455Y-78892452D01*
X35042452Y-78892455D01*
X34956206Y-79007664D01*
X34956202Y-79007671D01*
X34905908Y-79142517D01*
X34899501Y-79202116D01*
X34899500Y-79202135D01*
X34899500Y-82797870D01*
X34899501Y-82797876D01*
X34905908Y-82857483D01*
X34956202Y-82992328D01*
X34956206Y-82992335D01*
X35042452Y-83107544D01*
X35042455Y-83107547D01*
X35157664Y-83193793D01*
X35157671Y-83193797D01*
X35292517Y-83244091D01*
X35292516Y-83244091D01*
X35299444Y-83244835D01*
X35352127Y-83250500D01*
X38147872Y-83250499D01*
X38207483Y-83244091D01*
X38342331Y-83193796D01*
X38457546Y-83107546D01*
X38543796Y-82992331D01*
X38594091Y-82857483D01*
X38600500Y-82797873D01*
X38600499Y-81322888D01*
X38620184Y-81255850D01*
X38636818Y-81235208D01*
X38993553Y-80878473D01*
X39394517Y-80477510D01*
X39533343Y-80286434D01*
X39640568Y-80075992D01*
X39657952Y-80022490D01*
X39713553Y-79851368D01*
X39750500Y-79618097D01*
X39750500Y-75124000D01*
X39770185Y-75056961D01*
X39822989Y-75011206D01*
X39874500Y-75000000D01*
X43875501Y-75000000D01*
X43942540Y-75019685D01*
X43988295Y-75072489D01*
X43999501Y-75124000D01*
X43999501Y-78047876D01*
X44005908Y-78107483D01*
X44056202Y-78242328D01*
X44056206Y-78242335D01*
X44142452Y-78357544D01*
X44142455Y-78357547D01*
X44257664Y-78443793D01*
X44257671Y-78443797D01*
X44302618Y-78460561D01*
X44392517Y-78494091D01*
X44452127Y-78500500D01*
X44875500Y-78500499D01*
X44942539Y-78520183D01*
X44988294Y-78572987D01*
X44999500Y-78624499D01*
X44999500Y-80827111D01*
X44979815Y-80894150D01*
X44963181Y-80914792D01*
X41855485Y-84022487D01*
X41855484Y-84022488D01*
X41716657Y-84213565D01*
X41609433Y-84424003D01*
X41536446Y-84648631D01*
X41499500Y-84881902D01*
X41499500Y-91327111D01*
X41479815Y-91394150D01*
X41463181Y-91414792D01*
X40414792Y-92463181D01*
X40353469Y-92496666D01*
X40327111Y-92499500D01*
X40224499Y-92499500D01*
X40157460Y-92479815D01*
X40111705Y-92427011D01*
X40100499Y-92375500D01*
X40100499Y-92202129D01*
X40100498Y-92202123D01*
X40100497Y-92202116D01*
X40094091Y-92142517D01*
X40073621Y-92087635D01*
X40043797Y-92007671D01*
X40043793Y-92007664D01*
X39957547Y-91892455D01*
X39957544Y-91892452D01*
X39842335Y-91806206D01*
X39842328Y-91806202D01*
X39707482Y-91755908D01*
X39707483Y-91755908D01*
X39647883Y-91749501D01*
X39647881Y-91749500D01*
X39647873Y-91749500D01*
X39647864Y-91749500D01*
X36852129Y-91749500D01*
X36852123Y-91749501D01*
X36792516Y-91755908D01*
X36657671Y-91806202D01*
X36657664Y-91806206D01*
X36542455Y-91892452D01*
X36542452Y-91892455D01*
X36456206Y-92007664D01*
X36456202Y-92007671D01*
X36405908Y-92142517D01*
X36399501Y-92202116D01*
X36399501Y-92202123D01*
X36399500Y-92202135D01*
X36399500Y-95797870D01*
X36399501Y-95797876D01*
X36405908Y-95857483D01*
X36456202Y-95992328D01*
X36456206Y-95992335D01*
X36542452Y-96107544D01*
X36542455Y-96107547D01*
X36657664Y-96193793D01*
X36657671Y-96193797D01*
X36792517Y-96244091D01*
X36792516Y-96244091D01*
X36799444Y-96244835D01*
X36852127Y-96250500D01*
X39647872Y-96250499D01*
X39707483Y-96244091D01*
X39842331Y-96193796D01*
X39957546Y-96107546D01*
X40043796Y-95992331D01*
X40094091Y-95857483D01*
X40100500Y-95797873D01*
X40100500Y-95624500D01*
X40120185Y-95557461D01*
X40172989Y-95511706D01*
X40224500Y-95500500D01*
X41118097Y-95500500D01*
X41351368Y-95463553D01*
X41575992Y-95390568D01*
X41786434Y-95283343D01*
X41977510Y-95144517D01*
X44144517Y-92977510D01*
X44283343Y-92786434D01*
X44390568Y-92575992D01*
X44463553Y-92351369D01*
X44487190Y-92202128D01*
X44500500Y-92118097D01*
X44500500Y-87368872D01*
X44814500Y-87368872D01*
X44814500Y-87631127D01*
X44841123Y-87833339D01*
X44848730Y-87891116D01*
X44916602Y-88144418D01*
X44916605Y-88144428D01*
X45016953Y-88386690D01*
X45016958Y-88386700D01*
X45148075Y-88613803D01*
X45307718Y-88821851D01*
X45307726Y-88821860D01*
X45493140Y-89007274D01*
X45493148Y-89007281D01*
X45701196Y-89166924D01*
X45928299Y-89298041D01*
X45928309Y-89298046D01*
X46170571Y-89398394D01*
X46170581Y-89398398D01*
X46423884Y-89466270D01*
X46683880Y-89500500D01*
X46683887Y-89500500D01*
X46946113Y-89500500D01*
X46946120Y-89500500D01*
X47206116Y-89466270D01*
X47459419Y-89398398D01*
X47701697Y-89298043D01*
X47928803Y-89166924D01*
X48136851Y-89007282D01*
X48136855Y-89007277D01*
X48136860Y-89007274D01*
X48322274Y-88821860D01*
X48322277Y-88821855D01*
X48322282Y-88821851D01*
X48481924Y-88613803D01*
X48613043Y-88386697D01*
X48713398Y-88144419D01*
X48781270Y-87891116D01*
X48815500Y-87631120D01*
X48815500Y-87368880D01*
X48781270Y-87108884D01*
X48713398Y-86855581D01*
X48713394Y-86855571D01*
X48613046Y-86613309D01*
X48613041Y-86613299D01*
X48481924Y-86386196D01*
X48322281Y-86178148D01*
X48322274Y-86178140D01*
X48136860Y-85992726D01*
X48136851Y-85992718D01*
X47928803Y-85833075D01*
X47701700Y-85701958D01*
X47701690Y-85701953D01*
X47459428Y-85601605D01*
X47459421Y-85601603D01*
X47459419Y-85601602D01*
X47206116Y-85533730D01*
X47148339Y-85526123D01*
X46946127Y-85499500D01*
X46946120Y-85499500D01*
X46683880Y-85499500D01*
X46683872Y-85499500D01*
X46452772Y-85529926D01*
X46423884Y-85533730D01*
X46231765Y-85585208D01*
X46170581Y-85601602D01*
X46170571Y-85601605D01*
X45928309Y-85701953D01*
X45928299Y-85701958D01*
X45701196Y-85833075D01*
X45493148Y-85992718D01*
X45307718Y-86178148D01*
X45148075Y-86386196D01*
X45016958Y-86613299D01*
X45016953Y-86613309D01*
X44916605Y-86855571D01*
X44916602Y-86855581D01*
X44883932Y-86977510D01*
X44848730Y-87108885D01*
X44814500Y-87368872D01*
X44500500Y-87368872D01*
X44500500Y-85672889D01*
X44520185Y-85605850D01*
X44536819Y-85585208D01*
X45908462Y-84213565D01*
X47644517Y-82477510D01*
X47783343Y-82286434D01*
X47890568Y-82075993D01*
X47922567Y-81977510D01*
X47963553Y-81851368D01*
X48000500Y-81618097D01*
X48000500Y-78624499D01*
X48020185Y-78557460D01*
X48072989Y-78511705D01*
X48124500Y-78500499D01*
X48547871Y-78500499D01*
X48547872Y-78500499D01*
X48607483Y-78494091D01*
X48742331Y-78443796D01*
X48857546Y-78357546D01*
X48943796Y-78242331D01*
X48994091Y-78107483D01*
X49000500Y-78047873D01*
X49000499Y-75123998D01*
X49020184Y-75056961D01*
X49072987Y-75011206D01*
X49124499Y-75000000D01*
X49876000Y-75000000D01*
X49943039Y-75019685D01*
X49988794Y-75072489D01*
X50000000Y-75124000D01*
X50000000Y-80476201D01*
X49980315Y-80543240D01*
X49927511Y-80588995D01*
X49894406Y-80597579D01*
X49894590Y-80598738D01*
X49889779Y-80599500D01*
X49889778Y-80599500D01*
X49823577Y-80609985D01*
X49672047Y-80633985D01*
X49462396Y-80702103D01*
X49462393Y-80702104D01*
X49265974Y-80802187D01*
X49087641Y-80931752D01*
X49087636Y-80931756D01*
X48931756Y-81087636D01*
X48931752Y-81087641D01*
X48802187Y-81265974D01*
X48702104Y-81462393D01*
X48702103Y-81462396D01*
X48633985Y-81672047D01*
X48599500Y-81889778D01*
X48599500Y-82110221D01*
X48633985Y-82327952D01*
X48702103Y-82537603D01*
X48702104Y-82537606D01*
X48802187Y-82734025D01*
X48931752Y-82912358D01*
X48931756Y-82912363D01*
X49087636Y-83068243D01*
X49087641Y-83068247D01*
X49243192Y-83181260D01*
X49265978Y-83197815D01*
X49356799Y-83244091D01*
X49462393Y-83297895D01*
X49462396Y-83297896D01*
X49567221Y-83331955D01*
X49672049Y-83366015D01*
X49889778Y-83400500D01*
X49889779Y-83400500D01*
X49894590Y-83401262D01*
X49894244Y-83403445D01*
X49950946Y-83425009D01*
X49992457Y-83481210D01*
X50000000Y-83523798D01*
X50000000Y-91476201D01*
X49980315Y-91543240D01*
X49927511Y-91588995D01*
X49894406Y-91597579D01*
X49894590Y-91598738D01*
X49889779Y-91599500D01*
X49889778Y-91599500D01*
X49823577Y-91609985D01*
X49672047Y-91633985D01*
X49462396Y-91702103D01*
X49462393Y-91702104D01*
X49265974Y-91802187D01*
X49087641Y-91931752D01*
X49087636Y-91931756D01*
X48931756Y-92087636D01*
X48931752Y-92087641D01*
X48802187Y-92265974D01*
X48702104Y-92462393D01*
X48702103Y-92462396D01*
X48633985Y-92672047D01*
X48599500Y-92889778D01*
X48599500Y-93110221D01*
X48633985Y-93327952D01*
X48702103Y-93537603D01*
X48702104Y-93537606D01*
X48802187Y-93734025D01*
X48931752Y-93912358D01*
X48931756Y-93912363D01*
X49087636Y-94068243D01*
X49087641Y-94068247D01*
X49243192Y-94181260D01*
X49265978Y-94197815D01*
X49394375Y-94263237D01*
X49462393Y-94297895D01*
X49462396Y-94297896D01*
X49567221Y-94331955D01*
X49672049Y-94366015D01*
X49889778Y-94400500D01*
X49889779Y-94400500D01*
X49894590Y-94401262D01*
X49894244Y-94403445D01*
X49950946Y-94425009D01*
X49992457Y-94481210D01*
X50000000Y-94523798D01*
X50000000Y-99475500D01*
X49980315Y-99542539D01*
X49927511Y-99588294D01*
X49876000Y-99599500D01*
X25124000Y-99599500D01*
X25056961Y-99579815D01*
X25011206Y-99527011D01*
X25000000Y-99475500D01*
X25000000Y-94523798D01*
X25019685Y-94456759D01*
X25072489Y-94411004D01*
X25105596Y-94402440D01*
X25105410Y-94401262D01*
X25110221Y-94400500D01*
X25110222Y-94400500D01*
X25327951Y-94366015D01*
X25537606Y-94297895D01*
X25734022Y-94197815D01*
X25912365Y-94068242D01*
X26068242Y-93912365D01*
X26197815Y-93734022D01*
X26297895Y-93537606D01*
X26366015Y-93327951D01*
X26400500Y-93110222D01*
X26400500Y-92889778D01*
X26366015Y-92672049D01*
X26331955Y-92567221D01*
X26297896Y-92462396D01*
X26297895Y-92462393D01*
X26241322Y-92351365D01*
X26197815Y-92265978D01*
X26108116Y-92142517D01*
X26068247Y-92087641D01*
X26068243Y-92087636D01*
X25912363Y-91931756D01*
X25912358Y-91931752D01*
X25734025Y-91802187D01*
X25734024Y-91802186D01*
X25734022Y-91802185D01*
X25671096Y-91770122D01*
X25537606Y-91702104D01*
X25537603Y-91702103D01*
X25327952Y-91633985D01*
X25213078Y-91615790D01*
X25110222Y-91599500D01*
X25110221Y-91599500D01*
X25105410Y-91598738D01*
X25105750Y-91596585D01*
X25048933Y-91574897D01*
X25007490Y-91518645D01*
X25000000Y-91476201D01*
X25000000Y-87368872D01*
X26184500Y-87368872D01*
X26184500Y-87631127D01*
X26211123Y-87833339D01*
X26218730Y-87891116D01*
X26286602Y-88144418D01*
X26286605Y-88144428D01*
X26386953Y-88386690D01*
X26386958Y-88386700D01*
X26518075Y-88613803D01*
X26677718Y-88821851D01*
X26677726Y-88821860D01*
X26863140Y-89007274D01*
X26863148Y-89007281D01*
X27071196Y-89166924D01*
X27298299Y-89298041D01*
X27298309Y-89298046D01*
X27540571Y-89398394D01*
X27540581Y-89398398D01*
X27793884Y-89466270D01*
X28053880Y-89500500D01*
X28053887Y-89500500D01*
X28316113Y-89500500D01*
X28316120Y-89500500D01*
X28576116Y-89466270D01*
X28829419Y-89398398D01*
X29071697Y-89298043D01*
X29298803Y-89166924D01*
X29506851Y-89007282D01*
X29506855Y-89007277D01*
X29506860Y-89007274D01*
X29692274Y-88821860D01*
X29692277Y-88821855D01*
X29692282Y-88821851D01*
X29851924Y-88613803D01*
X29983043Y-88386697D01*
X30083398Y-88144419D01*
X30151270Y-87891116D01*
X30185500Y-87631120D01*
X30185500Y-87368880D01*
X30151270Y-87108884D01*
X30083398Y-86855581D01*
X30083394Y-86855571D01*
X29983046Y-86613309D01*
X29983041Y-86613299D01*
X29851924Y-86386196D01*
X29692281Y-86178148D01*
X29692274Y-86178140D01*
X29506860Y-85992726D01*
X29506851Y-85992718D01*
X29298803Y-85833075D01*
X29071700Y-85701958D01*
X29071690Y-85701953D01*
X28829428Y-85601605D01*
X28829421Y-85601603D01*
X28829419Y-85601602D01*
X28576116Y-85533730D01*
X28518339Y-85526123D01*
X28316127Y-85499500D01*
X28316120Y-85499500D01*
X28053880Y-85499500D01*
X28053872Y-85499500D01*
X27822772Y-85529926D01*
X27793884Y-85533730D01*
X27601765Y-85585208D01*
X27540581Y-85601602D01*
X27540571Y-85601605D01*
X27298309Y-85701953D01*
X27298299Y-85701958D01*
X27071196Y-85833075D01*
X26863148Y-85992718D01*
X26677718Y-86178148D01*
X26518075Y-86386196D01*
X26386958Y-86613299D01*
X26386953Y-86613309D01*
X26286605Y-86855571D01*
X26286602Y-86855581D01*
X26253932Y-86977510D01*
X26218730Y-87108885D01*
X26184500Y-87368872D01*
X25000000Y-87368872D01*
X25000000Y-81173389D01*
X25019685Y-81106350D01*
X25036319Y-81085708D01*
X25578787Y-80543240D01*
X26144517Y-79977510D01*
X26283343Y-79786434D01*
X26390568Y-79575992D01*
X26463553Y-79351368D01*
X26500500Y-79118097D01*
X26500500Y-78624499D01*
X26520185Y-78557460D01*
X26572989Y-78511705D01*
X26624500Y-78500499D01*
X27047871Y-78500499D01*
X27047872Y-78500499D01*
X27107483Y-78494091D01*
X27242331Y-78443796D01*
X27357546Y-78357546D01*
X27443796Y-78242331D01*
X27494091Y-78107483D01*
X27500500Y-78047873D01*
X27500499Y-75123998D01*
X27520184Y-75056961D01*
X27572987Y-75011206D01*
X27624499Y-75000000D01*
X36625500Y-75000000D01*
X36692539Y-75019685D01*
G37*
%TD.AperFunction*%
%TD*%
%TA.AperFunction,Conductor*%
%TO.N,unconnected-(D6-PAD-Pad3)*%
G36*
X36692539Y-25019685D02*
G01*
X36738294Y-25072489D01*
X36749500Y-25124000D01*
X36749500Y-28625500D01*
X36729815Y-28692539D01*
X36677011Y-28738294D01*
X36625500Y-28749500D01*
X35352129Y-28749500D01*
X35352123Y-28749501D01*
X35292516Y-28755908D01*
X35157671Y-28806202D01*
X35157664Y-28806206D01*
X35042455Y-28892452D01*
X35042452Y-28892455D01*
X34956206Y-29007664D01*
X34956202Y-29007671D01*
X34905908Y-29142517D01*
X34899501Y-29202116D01*
X34899500Y-29202135D01*
X34899500Y-32797870D01*
X34899501Y-32797876D01*
X34905908Y-32857483D01*
X34956202Y-32992328D01*
X34956206Y-32992335D01*
X35042452Y-33107544D01*
X35042455Y-33107547D01*
X35157664Y-33193793D01*
X35157671Y-33193797D01*
X35292517Y-33244091D01*
X35292516Y-33244091D01*
X35299444Y-33244835D01*
X35352127Y-33250500D01*
X38147872Y-33250499D01*
X38207483Y-33244091D01*
X38342331Y-33193796D01*
X38457546Y-33107546D01*
X38543796Y-32992331D01*
X38594091Y-32857483D01*
X38600500Y-32797873D01*
X38600499Y-31322888D01*
X38620184Y-31255850D01*
X38636818Y-31235208D01*
X38994261Y-30877765D01*
X39394517Y-30477510D01*
X39533343Y-30286434D01*
X39640568Y-30075992D01*
X39657952Y-30022490D01*
X39713553Y-29851368D01*
X39750500Y-29618097D01*
X39750500Y-25124000D01*
X39770185Y-25056961D01*
X39822989Y-25011206D01*
X39874500Y-25000000D01*
X43875501Y-25000000D01*
X43942540Y-25019685D01*
X43988295Y-25072489D01*
X43999501Y-25124000D01*
X43999501Y-28047876D01*
X44005908Y-28107483D01*
X44056202Y-28242328D01*
X44056206Y-28242335D01*
X44142452Y-28357544D01*
X44142455Y-28357547D01*
X44257664Y-28443793D01*
X44257671Y-28443797D01*
X44392517Y-28494091D01*
X44392516Y-28494091D01*
X44399444Y-28494835D01*
X44452127Y-28500500D01*
X48547872Y-28500499D01*
X48607483Y-28494091D01*
X48742331Y-28443796D01*
X48857546Y-28357546D01*
X48943796Y-28242331D01*
X48994091Y-28107483D01*
X49000500Y-28047873D01*
X49000499Y-25123998D01*
X49020184Y-25056961D01*
X49072987Y-25011206D01*
X49124499Y-25000000D01*
X49370500Y-25000000D01*
X49437539Y-25019685D01*
X49483294Y-25072489D01*
X49494500Y-25124000D01*
X49494500Y-48476209D01*
X49502190Y-48564038D01*
X49502192Y-48564052D01*
X49505314Y-48581741D01*
X49497578Y-48651181D01*
X49453528Y-48705415D01*
X49439495Y-48713773D01*
X49265974Y-48802187D01*
X49087641Y-48931752D01*
X49087636Y-48931756D01*
X48931756Y-49087636D01*
X48931752Y-49087641D01*
X48802187Y-49265974D01*
X48702104Y-49462393D01*
X48702103Y-49462396D01*
X48633985Y-49672047D01*
X48598738Y-49894590D01*
X48596585Y-49894249D01*
X48574897Y-49951067D01*
X48518645Y-49992510D01*
X48476201Y-50000000D01*
X39874500Y-50000000D01*
X39807461Y-49980315D01*
X39761706Y-49927511D01*
X39750500Y-49876000D01*
X39750500Y-46314141D01*
X39770185Y-46247102D01*
X39822989Y-46201347D01*
X39831149Y-46197966D01*
X39842331Y-46193796D01*
X39957546Y-46107546D01*
X40043796Y-45992331D01*
X40094091Y-45857483D01*
X40100500Y-45797873D01*
X40100499Y-42202128D01*
X40094091Y-42142517D01*
X40043796Y-42007669D01*
X40043795Y-42007668D01*
X40043793Y-42007664D01*
X39957547Y-41892455D01*
X39957544Y-41892452D01*
X39842335Y-41806206D01*
X39842328Y-41806202D01*
X39707482Y-41755908D01*
X39707483Y-41755908D01*
X39647883Y-41749501D01*
X39647881Y-41749500D01*
X39647873Y-41749500D01*
X39647864Y-41749500D01*
X36852129Y-41749500D01*
X36852123Y-41749501D01*
X36792516Y-41755908D01*
X36657671Y-41806202D01*
X36657664Y-41806206D01*
X36542455Y-41892452D01*
X36542452Y-41892455D01*
X36456206Y-42007664D01*
X36456202Y-42007671D01*
X36405908Y-42142517D01*
X36399501Y-42202116D01*
X36399501Y-42202123D01*
X36399500Y-42202135D01*
X36399500Y-45797870D01*
X36399501Y-45797876D01*
X36405908Y-45857483D01*
X36456202Y-45992328D01*
X36456206Y-45992335D01*
X36542452Y-46107544D01*
X36542455Y-46107547D01*
X36657665Y-46193794D01*
X36657667Y-46193794D01*
X36657669Y-46193796D01*
X36668830Y-46197958D01*
X36724764Y-46239826D01*
X36749184Y-46305289D01*
X36749500Y-46314141D01*
X36749500Y-49876000D01*
X36729815Y-49943039D01*
X36677011Y-49988794D01*
X36625500Y-50000000D01*
X25124000Y-50000000D01*
X25056961Y-49980315D01*
X25011206Y-49927511D01*
X25000000Y-49876000D01*
X25000000Y-37368872D01*
X26184500Y-37368872D01*
X26184500Y-37631127D01*
X26202436Y-37767354D01*
X26218730Y-37891116D01*
X26242974Y-37981595D01*
X26286602Y-38144418D01*
X26286605Y-38144428D01*
X26386953Y-38386690D01*
X26386958Y-38386700D01*
X26518075Y-38613803D01*
X26677718Y-38821851D01*
X26677726Y-38821860D01*
X26863140Y-39007274D01*
X26863148Y-39007281D01*
X27071196Y-39166924D01*
X27298299Y-39298041D01*
X27298309Y-39298046D01*
X27540571Y-39398394D01*
X27540581Y-39398398D01*
X27793884Y-39466270D01*
X28053880Y-39500500D01*
X28053887Y-39500500D01*
X28316113Y-39500500D01*
X28316120Y-39500500D01*
X28576116Y-39466270D01*
X28829419Y-39398398D01*
X29071697Y-39298043D01*
X29298803Y-39166924D01*
X29506851Y-39007282D01*
X29506855Y-39007277D01*
X29506860Y-39007274D01*
X29692274Y-38821860D01*
X29692277Y-38821855D01*
X29692282Y-38821851D01*
X29851924Y-38613803D01*
X29983043Y-38386697D01*
X30083398Y-38144419D01*
X30151270Y-37891116D01*
X30185500Y-37631120D01*
X30185500Y-37368880D01*
X30185499Y-37368872D01*
X44814500Y-37368872D01*
X44814500Y-37631127D01*
X44832436Y-37767354D01*
X44848730Y-37891116D01*
X44872974Y-37981595D01*
X44916602Y-38144418D01*
X44916605Y-38144428D01*
X45016953Y-38386690D01*
X45016958Y-38386700D01*
X45148075Y-38613803D01*
X45307718Y-38821851D01*
X45307726Y-38821860D01*
X45493140Y-39007274D01*
X45493148Y-39007281D01*
X45701196Y-39166924D01*
X45928299Y-39298041D01*
X45928309Y-39298046D01*
X46170571Y-39398394D01*
X46170581Y-39398398D01*
X46423884Y-39466270D01*
X46683880Y-39500500D01*
X46683887Y-39500500D01*
X46946113Y-39500500D01*
X46946120Y-39500500D01*
X47206116Y-39466270D01*
X47459419Y-39398398D01*
X47701697Y-39298043D01*
X47928803Y-39166924D01*
X48136851Y-39007282D01*
X48136855Y-39007277D01*
X48136860Y-39007274D01*
X48322274Y-38821860D01*
X48322277Y-38821855D01*
X48322282Y-38821851D01*
X48481924Y-38613803D01*
X48613043Y-38386697D01*
X48713398Y-38144419D01*
X48781270Y-37891116D01*
X48815500Y-37631120D01*
X48815500Y-37368880D01*
X48781270Y-37108884D01*
X48713398Y-36855581D01*
X48705853Y-36837365D01*
X48613046Y-36613309D01*
X48613041Y-36613299D01*
X48481924Y-36386196D01*
X48322281Y-36178148D01*
X48322274Y-36178140D01*
X48136860Y-35992726D01*
X48136851Y-35992718D01*
X47928803Y-35833075D01*
X47701700Y-35701958D01*
X47701690Y-35701953D01*
X47459428Y-35601605D01*
X47459421Y-35601603D01*
X47459419Y-35601602D01*
X47206116Y-35533730D01*
X47148339Y-35526123D01*
X46946127Y-35499500D01*
X46946120Y-35499500D01*
X46683880Y-35499500D01*
X46683872Y-35499500D01*
X46452772Y-35529926D01*
X46423884Y-35533730D01*
X46170581Y-35601602D01*
X46170571Y-35601605D01*
X45928309Y-35701953D01*
X45928299Y-35701958D01*
X45701196Y-35833075D01*
X45493148Y-35992718D01*
X45307718Y-36178148D01*
X45148075Y-36386196D01*
X45016958Y-36613299D01*
X45016953Y-36613309D01*
X44916605Y-36855571D01*
X44916602Y-36855581D01*
X44848730Y-37108885D01*
X44814500Y-37368872D01*
X30185499Y-37368872D01*
X30151270Y-37108884D01*
X30083398Y-36855581D01*
X30075853Y-36837365D01*
X29983046Y-36613309D01*
X29983041Y-36613299D01*
X29851924Y-36386196D01*
X29692281Y-36178148D01*
X29692274Y-36178140D01*
X29506860Y-35992726D01*
X29506851Y-35992718D01*
X29298803Y-35833075D01*
X29071700Y-35701958D01*
X29071690Y-35701953D01*
X28829428Y-35601605D01*
X28829421Y-35601603D01*
X28829419Y-35601602D01*
X28576116Y-35533730D01*
X28518339Y-35526123D01*
X28316127Y-35499500D01*
X28316120Y-35499500D01*
X28053880Y-35499500D01*
X28053872Y-35499500D01*
X27822772Y-35529926D01*
X27793884Y-35533730D01*
X27540581Y-35601602D01*
X27540571Y-35601605D01*
X27298309Y-35701953D01*
X27298299Y-35701958D01*
X27071196Y-35833075D01*
X26863148Y-35992718D01*
X26677718Y-36178148D01*
X26518075Y-36386196D01*
X26386958Y-36613299D01*
X26386953Y-36613309D01*
X26286605Y-36855571D01*
X26286602Y-36855581D01*
X26218730Y-37108885D01*
X26184500Y-37368872D01*
X25000000Y-37368872D01*
X25000000Y-28624499D01*
X25019685Y-28557460D01*
X25072489Y-28511705D01*
X25123997Y-28500499D01*
X27047872Y-28500499D01*
X27107483Y-28494091D01*
X27242331Y-28443796D01*
X27357546Y-28357546D01*
X27443796Y-28242331D01*
X27494091Y-28107483D01*
X27500500Y-28047873D01*
X27500499Y-25123998D01*
X27520184Y-25056961D01*
X27572987Y-25011206D01*
X27624499Y-25000000D01*
X36625500Y-25000000D01*
X36692539Y-25019685D01*
G37*
%TD.AperFunction*%
%TD*%
%TA.AperFunction,Conductor*%
%TO.N,unconnected-(D1-PAD-Pad3)*%
G36*
X24943039Y-420185D02*
G01*
X24988794Y-472989D01*
X25000000Y-524500D01*
X25000000Y-5476201D01*
X24980315Y-5543240D01*
X24927511Y-5588995D01*
X24894406Y-5597579D01*
X24894590Y-5598738D01*
X24889779Y-5599500D01*
X24889778Y-5599500D01*
X24823577Y-5609985D01*
X24672047Y-5633985D01*
X24462396Y-5702103D01*
X24462393Y-5702104D01*
X24265974Y-5802187D01*
X24087641Y-5931752D01*
X24087636Y-5931756D01*
X23931756Y-6087636D01*
X23931752Y-6087641D01*
X23802187Y-6265974D01*
X23702104Y-6462393D01*
X23702103Y-6462396D01*
X23633985Y-6672047D01*
X23599500Y-6889778D01*
X23599500Y-7110221D01*
X23633985Y-7327952D01*
X23702103Y-7537603D01*
X23702104Y-7537606D01*
X23802187Y-7734025D01*
X23931752Y-7912358D01*
X23931756Y-7912363D01*
X24087636Y-8068243D01*
X24087641Y-8068247D01*
X24243192Y-8181260D01*
X24265978Y-8197815D01*
X24356799Y-8244091D01*
X24462393Y-8297895D01*
X24462396Y-8297896D01*
X24567221Y-8331955D01*
X24672049Y-8366015D01*
X24889778Y-8400500D01*
X24889779Y-8400500D01*
X24894590Y-8401262D01*
X24894244Y-8403445D01*
X24950946Y-8425009D01*
X24992457Y-8481210D01*
X25000000Y-8523798D01*
X25000000Y-21375500D01*
X24980315Y-21442539D01*
X24927511Y-21488294D01*
X24876000Y-21499500D01*
X23672889Y-21499500D01*
X23605850Y-21479815D01*
X23585208Y-21463181D01*
X19536819Y-17414792D01*
X19503334Y-17353469D01*
X19500500Y-17327111D01*
X19500500Y-12368872D01*
X19814500Y-12368872D01*
X19814500Y-12631127D01*
X19841123Y-12833339D01*
X19848730Y-12891116D01*
X19916602Y-13144418D01*
X19916605Y-13144428D01*
X20016953Y-13386690D01*
X20016958Y-13386700D01*
X20148075Y-13613803D01*
X20307718Y-13821851D01*
X20307726Y-13821860D01*
X20493140Y-14007274D01*
X20493148Y-14007281D01*
X20701196Y-14166924D01*
X20928299Y-14298041D01*
X20928309Y-14298046D01*
X21170571Y-14398394D01*
X21170581Y-14398398D01*
X21423884Y-14466270D01*
X21683880Y-14500500D01*
X21683887Y-14500500D01*
X21946113Y-14500500D01*
X21946120Y-14500500D01*
X22206116Y-14466270D01*
X22459419Y-14398398D01*
X22701697Y-14298043D01*
X22928803Y-14166924D01*
X23136851Y-14007282D01*
X23136855Y-14007277D01*
X23136860Y-14007274D01*
X23322274Y-13821860D01*
X23322277Y-13821855D01*
X23322282Y-13821851D01*
X23481924Y-13613803D01*
X23613043Y-13386697D01*
X23713398Y-13144419D01*
X23781270Y-12891116D01*
X23815500Y-12631120D01*
X23815500Y-12368880D01*
X23781270Y-12108884D01*
X23713398Y-11855581D01*
X23713394Y-11855571D01*
X23613046Y-11613309D01*
X23613041Y-11613299D01*
X23481924Y-11386196D01*
X23322281Y-11178148D01*
X23322274Y-11178140D01*
X23136860Y-10992726D01*
X23136851Y-10992718D01*
X22928803Y-10833075D01*
X22701700Y-10701958D01*
X22701690Y-10701953D01*
X22459428Y-10601605D01*
X22459421Y-10601603D01*
X22459419Y-10601602D01*
X22206116Y-10533730D01*
X22148339Y-10526123D01*
X21946127Y-10499500D01*
X21946120Y-10499500D01*
X21683880Y-10499500D01*
X21683872Y-10499500D01*
X21452772Y-10529926D01*
X21423884Y-10533730D01*
X21170581Y-10601602D01*
X21170571Y-10601605D01*
X20928309Y-10701953D01*
X20928299Y-10701958D01*
X20701196Y-10833075D01*
X20493148Y-10992718D01*
X20307718Y-11178148D01*
X20148075Y-11386196D01*
X20016958Y-11613299D01*
X20016953Y-11613309D01*
X19916605Y-11855571D01*
X19916602Y-11855581D01*
X19848730Y-12108885D01*
X19814500Y-12368872D01*
X19500500Y-12368872D01*
X19500500Y-7881902D01*
X19463553Y-7648634D01*
X19463553Y-7648631D01*
X19390568Y-7424008D01*
X19283343Y-7213566D01*
X19144517Y-7022490D01*
X16977510Y-4855483D01*
X16786434Y-4716657D01*
X16575996Y-4609433D01*
X16351368Y-4536446D01*
X16118097Y-4499500D01*
X16118092Y-4499500D01*
X13724499Y-4499500D01*
X13657460Y-4479815D01*
X13611705Y-4427011D01*
X13600499Y-4375500D01*
X13600499Y-4202129D01*
X13600498Y-4202123D01*
X13600497Y-4202116D01*
X13594091Y-4142517D01*
X13543796Y-4007669D01*
X13543795Y-4007668D01*
X13543793Y-4007664D01*
X13457547Y-3892455D01*
X13457544Y-3892452D01*
X13342335Y-3806206D01*
X13342328Y-3806202D01*
X13207482Y-3755908D01*
X13207483Y-3755908D01*
X13147883Y-3749501D01*
X13147881Y-3749500D01*
X13147873Y-3749500D01*
X13147864Y-3749500D01*
X10352129Y-3749500D01*
X10352123Y-3749501D01*
X10292516Y-3755908D01*
X10157671Y-3806202D01*
X10157664Y-3806206D01*
X10042455Y-3892452D01*
X10042452Y-3892455D01*
X9956206Y-4007664D01*
X9956202Y-4007671D01*
X9905908Y-4142517D01*
X9899501Y-4202116D01*
X9899501Y-4202123D01*
X9899500Y-4202135D01*
X9899500Y-7797870D01*
X9899501Y-7797876D01*
X9905908Y-7857483D01*
X9956202Y-7992328D01*
X9956206Y-7992335D01*
X10042452Y-8107544D01*
X10042455Y-8107547D01*
X10157664Y-8193793D01*
X10157671Y-8193797D01*
X10292517Y-8244091D01*
X10292516Y-8244091D01*
X10299444Y-8244835D01*
X10352127Y-8250500D01*
X13147872Y-8250499D01*
X13207483Y-8244091D01*
X13342331Y-8193796D01*
X13457546Y-8107546D01*
X13543796Y-7992331D01*
X13594091Y-7857483D01*
X13600500Y-7797873D01*
X13600500Y-7624500D01*
X13620185Y-7557461D01*
X13672989Y-7511706D01*
X13724500Y-7500500D01*
X15327111Y-7500500D01*
X15394150Y-7520185D01*
X15414792Y-7536819D01*
X16463181Y-8585208D01*
X16496666Y-8646531D01*
X16499500Y-8672889D01*
X16499500Y-18118097D01*
X16536446Y-18351368D01*
X16609433Y-18575996D01*
X16716657Y-18786434D01*
X16855484Y-18977511D01*
X22463181Y-24585208D01*
X22496666Y-24646531D01*
X22499500Y-24672889D01*
X22499500Y-24876000D01*
X22479815Y-24943039D01*
X22427011Y-24988794D01*
X22375500Y-25000000D01*
X19523799Y-25000000D01*
X19456760Y-24980315D01*
X19411005Y-24927511D01*
X19402420Y-24894406D01*
X19401262Y-24894590D01*
X19398318Y-24876000D01*
X19366015Y-24672049D01*
X19297895Y-24462394D01*
X19297895Y-24462393D01*
X19263237Y-24394375D01*
X19197815Y-24265978D01*
X19181260Y-24243192D01*
X19068247Y-24087641D01*
X19068243Y-24087636D01*
X18912363Y-23931756D01*
X18912358Y-23931752D01*
X18734025Y-23802187D01*
X18734024Y-23802186D01*
X18734022Y-23802185D01*
X18671096Y-23770122D01*
X18537606Y-23702104D01*
X18537603Y-23702103D01*
X18327952Y-23633985D01*
X18219086Y-23616742D01*
X18110222Y-23599500D01*
X17889778Y-23599500D01*
X17817201Y-23610995D01*
X17672047Y-23633985D01*
X17462396Y-23702103D01*
X17462393Y-23702104D01*
X17265974Y-23802187D01*
X17087641Y-23931752D01*
X17087636Y-23931756D01*
X16931756Y-24087636D01*
X16931752Y-24087641D01*
X16802187Y-24265974D01*
X16702104Y-24462393D01*
X16702103Y-24462396D01*
X16633985Y-24672047D01*
X16598738Y-24894590D01*
X16596585Y-24894249D01*
X16574897Y-24951067D01*
X16518645Y-24992510D01*
X16476201Y-25000000D01*
X14874500Y-25000000D01*
X14807461Y-24980315D01*
X14761706Y-24927511D01*
X14750500Y-24876000D01*
X14750500Y-21314141D01*
X14770185Y-21247102D01*
X14822989Y-21201347D01*
X14831149Y-21197966D01*
X14842331Y-21193796D01*
X14957546Y-21107546D01*
X15043796Y-20992331D01*
X15094091Y-20857483D01*
X15100500Y-20797873D01*
X15100499Y-17202128D01*
X15094091Y-17142517D01*
X15043796Y-17007669D01*
X15043795Y-17007668D01*
X15043793Y-17007664D01*
X14957547Y-16892455D01*
X14957544Y-16892452D01*
X14842335Y-16806206D01*
X14842328Y-16806202D01*
X14707482Y-16755908D01*
X14707483Y-16755908D01*
X14647883Y-16749501D01*
X14647881Y-16749500D01*
X14647873Y-16749500D01*
X14647864Y-16749500D01*
X11852129Y-16749500D01*
X11852123Y-16749501D01*
X11792516Y-16755908D01*
X11657671Y-16806202D01*
X11657664Y-16806206D01*
X11542455Y-16892452D01*
X11542452Y-16892455D01*
X11456206Y-17007664D01*
X11456202Y-17007671D01*
X11405908Y-17142517D01*
X11399501Y-17202116D01*
X11399501Y-17202123D01*
X11399500Y-17202135D01*
X11399500Y-20797870D01*
X11399501Y-20797876D01*
X11405908Y-20857483D01*
X11456202Y-20992328D01*
X11456206Y-20992335D01*
X11542452Y-21107544D01*
X11542455Y-21107547D01*
X11657665Y-21193794D01*
X11657667Y-21193794D01*
X11657669Y-21193796D01*
X11668830Y-21197958D01*
X11724764Y-21239826D01*
X11749184Y-21305289D01*
X11749500Y-21314141D01*
X11749500Y-24876000D01*
X11729815Y-24943039D01*
X11677011Y-24988794D01*
X11625500Y-25000000D01*
X5523799Y-25000000D01*
X5456760Y-24980315D01*
X5411005Y-24927511D01*
X5402420Y-24894406D01*
X5401262Y-24894590D01*
X5398318Y-24876000D01*
X5366015Y-24672049D01*
X5297895Y-24462394D01*
X5297895Y-24462393D01*
X5263237Y-24394375D01*
X5197815Y-24265978D01*
X5181260Y-24243192D01*
X5068247Y-24087641D01*
X5068243Y-24087636D01*
X4912363Y-23931756D01*
X4912358Y-23931752D01*
X4734025Y-23802187D01*
X4734024Y-23802186D01*
X4734022Y-23802185D01*
X4671096Y-23770122D01*
X4537606Y-23702104D01*
X4537603Y-23702103D01*
X4327952Y-23633985D01*
X4219086Y-23616742D01*
X4110222Y-23599500D01*
X3889778Y-23599500D01*
X3817201Y-23610995D01*
X3672047Y-23633985D01*
X3462396Y-23702103D01*
X3462393Y-23702104D01*
X3265974Y-23802187D01*
X3087641Y-23931752D01*
X3087636Y-23931756D01*
X2931756Y-24087636D01*
X2931752Y-24087641D01*
X2802187Y-24265974D01*
X2702104Y-24462393D01*
X2702103Y-24462396D01*
X2633985Y-24672047D01*
X2598738Y-24894590D01*
X2596585Y-24894249D01*
X2574897Y-24951067D01*
X2518645Y-24992510D01*
X2476201Y-25000000D01*
X524500Y-25000000D01*
X457461Y-24980315D01*
X411706Y-24927511D01*
X400500Y-24876000D01*
X400500Y-12368872D01*
X1184500Y-12368872D01*
X1184500Y-12631127D01*
X1211123Y-12833339D01*
X1218730Y-12891116D01*
X1286602Y-13144418D01*
X1286605Y-13144428D01*
X1386953Y-13386690D01*
X1386958Y-13386700D01*
X1518075Y-13613803D01*
X1677718Y-13821851D01*
X1677726Y-13821860D01*
X1863140Y-14007274D01*
X1863148Y-14007281D01*
X2071196Y-14166924D01*
X2298299Y-14298041D01*
X2298309Y-14298046D01*
X2540571Y-14398394D01*
X2540581Y-14398398D01*
X2793884Y-14466270D01*
X3053880Y-14500500D01*
X3053887Y-14500500D01*
X3316113Y-14500500D01*
X3316120Y-14500500D01*
X3576116Y-14466270D01*
X3829419Y-14398398D01*
X4071697Y-14298043D01*
X4298803Y-14166924D01*
X4506851Y-14007282D01*
X4506855Y-14007277D01*
X4506860Y-14007274D01*
X4692274Y-13821860D01*
X4692277Y-13821855D01*
X4692282Y-13821851D01*
X4851924Y-13613803D01*
X4983043Y-13386697D01*
X5083398Y-13144419D01*
X5151270Y-12891116D01*
X5185500Y-12631120D01*
X5185500Y-12368880D01*
X5151270Y-12108884D01*
X5083398Y-11855581D01*
X5083394Y-11855571D01*
X4983046Y-11613309D01*
X4983041Y-11613299D01*
X4851924Y-11386196D01*
X4692281Y-11178148D01*
X4692274Y-11178140D01*
X4506860Y-10992726D01*
X4506851Y-10992718D01*
X4298803Y-10833075D01*
X4071700Y-10701958D01*
X4071690Y-10701953D01*
X3829428Y-10601605D01*
X3829421Y-10601603D01*
X3829419Y-10601602D01*
X3576116Y-10533730D01*
X3518339Y-10526123D01*
X3316127Y-10499500D01*
X3316120Y-10499500D01*
X3053880Y-10499500D01*
X3053872Y-10499500D01*
X2822772Y-10529926D01*
X2793884Y-10533730D01*
X2540581Y-10601602D01*
X2540571Y-10601605D01*
X2298309Y-10701953D01*
X2298299Y-10701958D01*
X2071196Y-10833075D01*
X1863148Y-10992718D01*
X1677718Y-11178148D01*
X1518075Y-11386196D01*
X1386958Y-11613299D01*
X1386953Y-11613309D01*
X1286605Y-11855571D01*
X1286602Y-11855581D01*
X1218730Y-12108885D01*
X1184500Y-12368872D01*
X400500Y-12368872D01*
X400500Y-524500D01*
X420185Y-457461D01*
X472989Y-411706D01*
X524500Y-400500D01*
X24876000Y-400500D01*
X24943039Y-420185D01*
G37*
%TD.AperFunction*%
%TD*%
%TA.AperFunction,Conductor*%
%TO.N,unconnected-(D7-PAD-Pad3)*%
G36*
X50942540Y-25019685D02*
G01*
X50988295Y-25072489D01*
X50999501Y-25124000D01*
X50999501Y-28047876D01*
X51005908Y-28107483D01*
X51056202Y-28242328D01*
X51056206Y-28242335D01*
X51142452Y-28357544D01*
X51142455Y-28357547D01*
X51257664Y-28443793D01*
X51257671Y-28443797D01*
X51392517Y-28494091D01*
X51392516Y-28494091D01*
X51399444Y-28494835D01*
X51452127Y-28500500D01*
X55547872Y-28500499D01*
X55607483Y-28494091D01*
X55742331Y-28443796D01*
X55857546Y-28357546D01*
X55943796Y-28242331D01*
X55994091Y-28107483D01*
X56000500Y-28047873D01*
X56000499Y-25123998D01*
X56020184Y-25056961D01*
X56072987Y-25011206D01*
X56124499Y-25000000D01*
X61625500Y-25000000D01*
X61692539Y-25019685D01*
X61738294Y-25072489D01*
X61749500Y-25124000D01*
X61749500Y-28625500D01*
X61729815Y-28692539D01*
X61677011Y-28738294D01*
X61625500Y-28749500D01*
X60352129Y-28749500D01*
X60352123Y-28749501D01*
X60292516Y-28755908D01*
X60157671Y-28806202D01*
X60157664Y-28806206D01*
X60042455Y-28892452D01*
X60042452Y-28892455D01*
X59956206Y-29007664D01*
X59956202Y-29007671D01*
X59905908Y-29142517D01*
X59899501Y-29202116D01*
X59899500Y-29202135D01*
X59899500Y-32797870D01*
X59899501Y-32797876D01*
X59905908Y-32857483D01*
X59956202Y-32992328D01*
X59956206Y-32992335D01*
X60042452Y-33107544D01*
X60042455Y-33107547D01*
X60157664Y-33193793D01*
X60157671Y-33193797D01*
X60292517Y-33244091D01*
X60292516Y-33244091D01*
X60299444Y-33244835D01*
X60352127Y-33250500D01*
X63147872Y-33250499D01*
X63207483Y-33244091D01*
X63342331Y-33193796D01*
X63457546Y-33107546D01*
X63543796Y-32992331D01*
X63594091Y-32857483D01*
X63600500Y-32797873D01*
X63600499Y-31322888D01*
X63620184Y-31255850D01*
X63636818Y-31235208D01*
X64394517Y-30477510D01*
X64533343Y-30286434D01*
X64640568Y-30075992D01*
X64657952Y-30022490D01*
X64713553Y-29851368D01*
X64750500Y-29618097D01*
X64750500Y-25124000D01*
X64770185Y-25056961D01*
X64822989Y-25011206D01*
X64874500Y-25000000D01*
X72375501Y-25000000D01*
X72442540Y-25019685D01*
X72488295Y-25072489D01*
X72499501Y-25124000D01*
X72499501Y-28047876D01*
X72505908Y-28107483D01*
X72556202Y-28242328D01*
X72556206Y-28242335D01*
X72642452Y-28357544D01*
X72642455Y-28357547D01*
X72757664Y-28443793D01*
X72757671Y-28443797D01*
X72892517Y-28494091D01*
X72892516Y-28494091D01*
X72899444Y-28494835D01*
X72952127Y-28500500D01*
X74876001Y-28500499D01*
X74943039Y-28520184D01*
X74988794Y-28572987D01*
X75000000Y-28624499D01*
X75000000Y-49876000D01*
X74980315Y-49943039D01*
X74927511Y-49988794D01*
X74876000Y-50000000D01*
X64874500Y-50000000D01*
X64807461Y-49980315D01*
X64761706Y-49927511D01*
X64750500Y-49876000D01*
X64750500Y-46314141D01*
X64770185Y-46247102D01*
X64822989Y-46201347D01*
X64831149Y-46197966D01*
X64842331Y-46193796D01*
X64957546Y-46107546D01*
X65043796Y-45992331D01*
X65094091Y-45857483D01*
X65100500Y-45797873D01*
X65100499Y-42202128D01*
X65094091Y-42142517D01*
X65043796Y-42007669D01*
X65043795Y-42007668D01*
X65043793Y-42007664D01*
X64957547Y-41892455D01*
X64957544Y-41892452D01*
X64842335Y-41806206D01*
X64842328Y-41806202D01*
X64707482Y-41755908D01*
X64707483Y-41755908D01*
X64647883Y-41749501D01*
X64647881Y-41749500D01*
X64647873Y-41749500D01*
X64647864Y-41749500D01*
X61852129Y-41749500D01*
X61852123Y-41749501D01*
X61792516Y-41755908D01*
X61657671Y-41806202D01*
X61657664Y-41806206D01*
X61542455Y-41892452D01*
X61542452Y-41892455D01*
X61456206Y-42007664D01*
X61456202Y-42007671D01*
X61405908Y-42142517D01*
X61399501Y-42202116D01*
X61399501Y-42202123D01*
X61399500Y-42202135D01*
X61399500Y-45797870D01*
X61399501Y-45797876D01*
X61405908Y-45857483D01*
X61456202Y-45992328D01*
X61456206Y-45992335D01*
X61542452Y-46107544D01*
X61542455Y-46107547D01*
X61657665Y-46193794D01*
X61657667Y-46193794D01*
X61657669Y-46193796D01*
X61668830Y-46197958D01*
X61724764Y-46239826D01*
X61749184Y-46305289D01*
X61749500Y-46314141D01*
X61749500Y-49876000D01*
X61729815Y-49943039D01*
X61677011Y-49988794D01*
X61625500Y-50000000D01*
X51523799Y-50000000D01*
X51456760Y-49980315D01*
X51411005Y-49927511D01*
X51402420Y-49894406D01*
X51401262Y-49894590D01*
X51398318Y-49876000D01*
X51366015Y-49672049D01*
X51297895Y-49462394D01*
X51297895Y-49462393D01*
X51263237Y-49394375D01*
X51197815Y-49265978D01*
X51181260Y-49243192D01*
X51068247Y-49087641D01*
X51068243Y-49087636D01*
X50912363Y-48931756D01*
X50912358Y-48931752D01*
X50734025Y-48802187D01*
X50734024Y-48802186D01*
X50734022Y-48802185D01*
X50671096Y-48770122D01*
X50537606Y-48702104D01*
X50537603Y-48702103D01*
X50327952Y-48633985D01*
X50213078Y-48615790D01*
X50110222Y-48599500D01*
X50110221Y-48599500D01*
X50105410Y-48598738D01*
X50105750Y-48596585D01*
X50048933Y-48574897D01*
X50007490Y-48518645D01*
X50000000Y-48476201D01*
X50000000Y-37368872D01*
X51184500Y-37368872D01*
X51184500Y-37631127D01*
X51211123Y-37833339D01*
X51218730Y-37891116D01*
X51286602Y-38144418D01*
X51286605Y-38144428D01*
X51386953Y-38386690D01*
X51386958Y-38386700D01*
X51518075Y-38613803D01*
X51677718Y-38821851D01*
X51677726Y-38821860D01*
X51863140Y-39007274D01*
X51863148Y-39007281D01*
X52071196Y-39166924D01*
X52298299Y-39298041D01*
X52298309Y-39298046D01*
X52540571Y-39398394D01*
X52540581Y-39398398D01*
X52793884Y-39466270D01*
X53053880Y-39500500D01*
X53053887Y-39500500D01*
X53316113Y-39500500D01*
X53316120Y-39500500D01*
X53576116Y-39466270D01*
X53829419Y-39398398D01*
X54071697Y-39298043D01*
X54298803Y-39166924D01*
X54506851Y-39007282D01*
X54506855Y-39007277D01*
X54506860Y-39007274D01*
X54692274Y-38821860D01*
X54692277Y-38821855D01*
X54692282Y-38821851D01*
X54851924Y-38613803D01*
X54983043Y-38386697D01*
X55083398Y-38144419D01*
X55151270Y-37891116D01*
X55185500Y-37631120D01*
X55185500Y-37368880D01*
X55185499Y-37368872D01*
X69814500Y-37368872D01*
X69814500Y-37631127D01*
X69841123Y-37833339D01*
X69848730Y-37891116D01*
X69916602Y-38144418D01*
X69916605Y-38144428D01*
X70016953Y-38386690D01*
X70016958Y-38386700D01*
X70148075Y-38613803D01*
X70307718Y-38821851D01*
X70307726Y-38821860D01*
X70493140Y-39007274D01*
X70493148Y-39007281D01*
X70701196Y-39166924D01*
X70928299Y-39298041D01*
X70928309Y-39298046D01*
X71170571Y-39398394D01*
X71170581Y-39398398D01*
X71423884Y-39466270D01*
X71683880Y-39500500D01*
X71683887Y-39500500D01*
X71946113Y-39500500D01*
X71946120Y-39500500D01*
X72206116Y-39466270D01*
X72459419Y-39398398D01*
X72701697Y-39298043D01*
X72928803Y-39166924D01*
X73136851Y-39007282D01*
X73136855Y-39007277D01*
X73136860Y-39007274D01*
X73322274Y-38821860D01*
X73322277Y-38821855D01*
X73322282Y-38821851D01*
X73481924Y-38613803D01*
X73613043Y-38386697D01*
X73713398Y-38144419D01*
X73781270Y-37891116D01*
X73815500Y-37631120D01*
X73815500Y-37368880D01*
X73781270Y-37108884D01*
X73713398Y-36855581D01*
X73713394Y-36855571D01*
X73613046Y-36613309D01*
X73613041Y-36613299D01*
X73481924Y-36386196D01*
X73322281Y-36178148D01*
X73322274Y-36178140D01*
X73136860Y-35992726D01*
X73136851Y-35992718D01*
X72928803Y-35833075D01*
X72701700Y-35701958D01*
X72701690Y-35701953D01*
X72459428Y-35601605D01*
X72459421Y-35601603D01*
X72459419Y-35601602D01*
X72206116Y-35533730D01*
X72148339Y-35526123D01*
X71946127Y-35499500D01*
X71946120Y-35499500D01*
X71683880Y-35499500D01*
X71683872Y-35499500D01*
X71452772Y-35529926D01*
X71423884Y-35533730D01*
X71170581Y-35601602D01*
X71170571Y-35601605D01*
X70928309Y-35701953D01*
X70928299Y-35701958D01*
X70701196Y-35833075D01*
X70493148Y-35992718D01*
X70307718Y-36178148D01*
X70148075Y-36386196D01*
X70016958Y-36613299D01*
X70016953Y-36613309D01*
X69916605Y-36855571D01*
X69916602Y-36855581D01*
X69848730Y-37108885D01*
X69814500Y-37368872D01*
X55185499Y-37368872D01*
X55151270Y-37108884D01*
X55083398Y-36855581D01*
X55083394Y-36855571D01*
X54983046Y-36613309D01*
X54983041Y-36613299D01*
X54851924Y-36386196D01*
X54692281Y-36178148D01*
X54692274Y-36178140D01*
X54506860Y-35992726D01*
X54506851Y-35992718D01*
X54298803Y-35833075D01*
X54071700Y-35701958D01*
X54071690Y-35701953D01*
X53829428Y-35601605D01*
X53829421Y-35601603D01*
X53829419Y-35601602D01*
X53576116Y-35533730D01*
X53518339Y-35526123D01*
X53316127Y-35499500D01*
X53316120Y-35499500D01*
X53053880Y-35499500D01*
X53053872Y-35499500D01*
X52822772Y-35529926D01*
X52793884Y-35533730D01*
X52540581Y-35601602D01*
X52540571Y-35601605D01*
X52298309Y-35701953D01*
X52298299Y-35701958D01*
X52071196Y-35833075D01*
X51863148Y-35992718D01*
X51677718Y-36178148D01*
X51518075Y-36386196D01*
X51386958Y-36613299D01*
X51386953Y-36613309D01*
X51286605Y-36855571D01*
X51286602Y-36855581D01*
X51218730Y-37108885D01*
X51184500Y-37368872D01*
X50000000Y-37368872D01*
X50000000Y-25124000D01*
X50019685Y-25056961D01*
X50072489Y-25011206D01*
X50124000Y-25000000D01*
X50875501Y-25000000D01*
X50942540Y-25019685D01*
G37*
%TD.AperFunction*%
%TD*%
M02*
