M48
; DRILL file {KiCad 8.0.7} date 2025-01-08T21:00:38+0900
; FORMAT={-:-/ absolute / metric / decimal}
; #@! TF.CreationDate,2025-01-08T21:00:38+09:00
; #@! TF.GenerationSoftware,Kicad,Pcbnew,8.0.7
; #@! TF.FileFunction,NonPlated,1,2,NPTH
FMAT,2
METRIC
; #@! TA.AperFunction,NonPlated,NPTH,ComponentDrill
T1C2.200
; #@! TA.AperFunction,NonPlated,NPTH,ComponentDrill
T2C3.400
%
G90
G05
T1
X4.0Y-25.0
X4.0Y-75.0
X18.0Y-25.0
X18.0Y-75.0
X25.0Y-7.0
X25.0Y-93.0
X50.0Y-6.0
X50.0Y-18.0
X50.0Y-50.0
X50.0Y-82.0
X50.0Y-93.0
X75.0Y-7.0
X75.0Y-93.0
X82.0Y-25.0
X82.0Y-75.0
X96.0Y-25.0
X96.0Y-75.0
T2
X3.185Y-12.5
X3.185Y-37.5
X3.185Y-62.5
X3.185Y-87.5
X21.815Y-12.5
X21.815Y-37.5
X21.815Y-62.5
X21.815Y-87.5
X28.185Y-12.5
X28.185Y-37.5
X28.185Y-62.5
X28.185Y-87.5
X46.815Y-12.5
X46.815Y-37.5
X46.815Y-62.5
X46.815Y-87.5
X53.185Y-12.5
X53.185Y-37.5
X53.185Y-62.5
X53.185Y-87.5
X71.815Y-12.5
X71.815Y-37.5
X71.815Y-62.5
X71.815Y-87.5
X78.185Y-12.5
X78.185Y-37.5
X78.185Y-62.5
X78.185Y-87.5
X96.815Y-12.5
X96.815Y-37.5
X96.815Y-62.5
X96.815Y-87.5
M30
