%TF.GenerationSoftware,KiCad,Pcbnew,8.0.7*%
%TF.CreationDate,2025-01-08T21:00:37+09:00*%
%TF.ProjectId,ledplane,6c656470-6c61-46e6-952e-6b696361645f,rev?*%
%TF.SameCoordinates,Original*%
%TF.FileFunction,Paste,Top*%
%TF.FilePolarity,Positive*%
%FSLAX46Y46*%
G04 Gerber Fmt 4.6, Leading zero omitted, Abs format (unit mm)*
G04 Created by KiCad (PCBNEW 8.0.7) date 2025-01-08 21:00:37*
%MOMM*%
%LPD*%
G01*
G04 APERTURE LIST*
%ADD10R,2.700000X3.500000*%
%ADD11C,6.000000*%
%ADD12R,4.000000X6.000000*%
G04 APERTURE END LIST*
D10*
%TO.C,D9*%
X13250000Y-69000000D03*
X11750000Y-56000000D03*
D11*
X12500000Y-62500000D03*
%TD*%
D12*
%TO.C,TP7*%
X53500000Y-75000000D03*
%TD*%
%TO.C,TP3*%
X53500000Y-25000000D03*
%TD*%
D10*
%TO.C,D2*%
X38250000Y-19000000D03*
X36750000Y-6000000D03*
D11*
X37500000Y-12500000D03*
%TD*%
D10*
%TO.C,D13*%
X13250000Y-94000000D03*
X11750000Y-81000000D03*
D11*
X12500000Y-87500000D03*
%TD*%
D12*
%TO.C,TP5*%
X25000000Y-75000000D03*
%TD*%
%TO.C,TP8*%
X75000000Y-75000000D03*
%TD*%
D10*
%TO.C,D11*%
X63250000Y-69000000D03*
X61750000Y-56000000D03*
D11*
X62500000Y-62500000D03*
%TD*%
D10*
%TO.C,D8*%
X88250000Y-44000000D03*
X86750000Y-31000000D03*
D11*
X87500000Y-37500000D03*
%TD*%
D10*
%TO.C,D5*%
X13250000Y-44000000D03*
X11750000Y-31000000D03*
D11*
X12500000Y-37500000D03*
%TD*%
D10*
%TO.C,D15*%
X63250000Y-94000000D03*
X61750000Y-81000000D03*
D11*
X62500000Y-87500000D03*
%TD*%
D10*
%TO.C,D6*%
X38250000Y-44000000D03*
X36750000Y-31000000D03*
D11*
X37500000Y-37500000D03*
%TD*%
D12*
%TO.C,TP1*%
X25000000Y-25000000D03*
%TD*%
D10*
%TO.C,D10*%
X38250000Y-69000000D03*
X36750000Y-56000000D03*
D11*
X37500000Y-62500000D03*
%TD*%
D12*
%TO.C,TP2*%
X46500000Y-25000000D03*
%TD*%
D10*
%TO.C,D7*%
X63250000Y-44000000D03*
X61750000Y-31000000D03*
D11*
X62500000Y-37500000D03*
%TD*%
D10*
%TO.C,D14*%
X38250000Y-94000000D03*
X36750000Y-81000000D03*
D11*
X37500000Y-87500000D03*
%TD*%
D10*
%TO.C,D1*%
X13250000Y-19000000D03*
X11750000Y-6000000D03*
D11*
X12500000Y-12500000D03*
%TD*%
D12*
%TO.C,TP6*%
X46500000Y-75000000D03*
%TD*%
D10*
%TO.C,D3*%
X63250000Y-19000000D03*
X61750000Y-6000000D03*
D11*
X62500000Y-12500000D03*
%TD*%
D10*
%TO.C,D16*%
X88250000Y-94000000D03*
X86750000Y-81000000D03*
D11*
X87500000Y-87500000D03*
%TD*%
D12*
%TO.C,TP4*%
X75000000Y-25000000D03*
%TD*%
D10*
%TO.C,D4*%
X88250000Y-19000000D03*
X86750000Y-6000000D03*
D11*
X87500000Y-12500000D03*
%TD*%
D10*
%TO.C,D12*%
X88250000Y-69000000D03*
X86750000Y-56000000D03*
D11*
X87500000Y-62500000D03*
%TD*%
M02*
