%TF.GenerationSoftware,KiCad,Pcbnew,8.0.7*%
%TF.CreationDate,2025-01-08T21:00:37+09:00*%
%TF.ProjectId,ledplane,6c656470-6c61-46e6-952e-6b696361645f,rev?*%
%TF.SameCoordinates,Original*%
%TF.FileFunction,Soldermask,Bot*%
%TF.FilePolarity,Negative*%
%FSLAX46Y46*%
G04 Gerber Fmt 4.6, Leading zero omitted, Abs format (unit mm)*
G04 Created by KiCad (PCBNEW 8.0.7) date 2025-01-08 21:00:37*
%MOMM*%
%LPD*%
G01*
G04 APERTURE LIST*
%ADD10C,2.276000*%
%ADD11C,3.476000*%
G04 APERTURE END LIST*
D10*
%TO.C,H9*%
X50000000Y-93000000D03*
%TD*%
D11*
%TO.C,D9*%
X3185000Y-62500000D03*
X21815000Y-62500000D03*
%TD*%
D10*
%TO.C,H4*%
X82000000Y-25000000D03*
%TD*%
%TO.C,H6*%
X25000000Y-93000000D03*
%TD*%
D11*
%TO.C,D2*%
X28185000Y-12500000D03*
X46815000Y-12500000D03*
%TD*%
D10*
%TO.C,H8*%
X50000000Y-50000000D03*
%TD*%
%TO.C,H7*%
X50000000Y-6000000D03*
%TD*%
%TO.C,H1*%
X4000000Y-25000000D03*
%TD*%
%TO.C,H3*%
X25000000Y-7000000D03*
%TD*%
%TO.C,H14*%
X82000000Y-75000000D03*
%TD*%
D11*
%TO.C,D13*%
X3185000Y-87500000D03*
X21815000Y-87500000D03*
%TD*%
D10*
%TO.C,H13*%
X50000000Y-82000000D03*
%TD*%
D11*
%TO.C,D11*%
X53185000Y-62500000D03*
X71815000Y-62500000D03*
%TD*%
D10*
%TO.C,H17*%
X75000000Y-93000000D03*
%TD*%
D11*
%TO.C,D8*%
X78185000Y-37500000D03*
X96815000Y-37500000D03*
%TD*%
D10*
%TO.C,H12*%
X18000000Y-75000000D03*
%TD*%
D11*
%TO.C,D5*%
X3185000Y-37500000D03*
X21815000Y-37500000D03*
%TD*%
%TO.C,D15*%
X53185000Y-87500000D03*
X71815000Y-87500000D03*
%TD*%
D10*
%TO.C,H15*%
X96000000Y-75000000D03*
%TD*%
%TO.C,H16*%
X75000000Y-7000000D03*
%TD*%
D11*
%TO.C,D6*%
X28185000Y-37500000D03*
X46815000Y-37500000D03*
%TD*%
D10*
%TO.C,H2*%
X18000000Y-25000000D03*
%TD*%
D11*
%TO.C,D10*%
X28185000Y-62500000D03*
X46815000Y-62500000D03*
%TD*%
%TO.C,D7*%
X53185000Y-37500000D03*
X71815000Y-37500000D03*
%TD*%
D10*
%TO.C,H11*%
X4000000Y-75000000D03*
%TD*%
D11*
%TO.C,D14*%
X28185000Y-87500000D03*
X46815000Y-87500000D03*
%TD*%
D10*
%TO.C,H5*%
X96000000Y-25000000D03*
%TD*%
D11*
%TO.C,D1*%
X3185000Y-12500000D03*
X21815000Y-12500000D03*
%TD*%
%TO.C,D3*%
X53185000Y-12500000D03*
X71815000Y-12500000D03*
%TD*%
%TO.C,D16*%
X78185000Y-87500000D03*
X96815000Y-87500000D03*
%TD*%
%TO.C,D4*%
X78185000Y-12500000D03*
X96815000Y-12500000D03*
%TD*%
%TO.C,D12*%
X78185000Y-62500000D03*
X96815000Y-62500000D03*
%TD*%
D10*
%TO.C,H10*%
X50000000Y-18000000D03*
%TD*%
M02*
